<svg version="1.1" xmlns="http://www.w3.org/2000/svg" xmlns:xlink="http://www.w3.org/1999/xlink" width="600" height="112" fill="none" font-family="sans-serif" font-size="10"><polygon stroke="#333" fill="rgba(0,0,0,0.2)" points="0,100.00 3,100.00 6,100.00 9,100.00 12,100.00 15,100.00 18,100.00 21,100.00 24,100.00 27,100.00 30,100.00 33,99.99 36,99.99 39,99.99 42,99.99 45,99.99 48,99.99 51,99.98 54,99.98 57,99.97 60,99.97 63,99.96 66,99.95 69,99.94 72,99.93 75,99.91 78,99.89 81,99.87 84,99.85 87,99.82 90,99.78 93,99.74 96,99.69 99,99.63 102,99.57 105,99.49 108,99.40 111,99.30 114,99.18 117,99.05 120,98.89 123,98.71 126,98.51 129,98.28 132,98.02 135,97.72 138,97.39 141,97.01 144,96.60 147,96.13 150,95.61 153,95.03 156,94.39 159,93.68 162,92.90 165,92.04 168,91.11 171,90.09 174,88.97 177,87.77 180,86.47 183,85.06 186,83.55 189,81.94 192,80.21 195,78.37 198,76.43 201,74.37 204,72.20 207,69.92 210,67.53 213,65.05 216,62.47 219,59.80 222,57.04 225,54.22 228,51.32 231,48.38 234,45.39 237,42.38 240,39.35 243,36.32 246,33.30 249,30.32 252,27.39 255,24.52 258,21.73 261,19.04 264,16.47 267,14.04 270,11.75 273,9.63 276,7.69 279,5.94 282,4.40 285,3.08 288,1.98 291,1.12 294,0.50 297,0.12 300,0 303,0.12 306,0.50 309,1.12 312,1.98 315,3.08 318,4.40 321,5.94 324,7.69 327,9.63 330,11.75 333,14.04 336,16.47 339,19.04 342,21.73 345,24.51 348,27.38 351,30.31 354,33.29 357,36.31 360,39.33 363,42.36 366,45.37 369,48.35 372,51.29 375,54.17 378,56.98 381,59.72 384,62.37 387,64.92 390,67.37 393,69.71 396,71.93 399,74.03 402,76.01 405,77.85 408,79.56 411,81.12 414,82.54 417,83.81 420,84.91 423,85.85 426,86.61 429,87.18 432,87.54 435,87.68 438,87.57 441,87.20 444,86.54 447,85.55 450,84.21 453,82.49 456,80.37 459,77.82 462,74.84 465,71.44 468,67.63 471,63.45 474,58.98 477,54.27 480,49.44 483,44.59 486,39.80 489,35.19 492,30.82 495,26.76 498,23.05 501,19.71 504,16.75 507,14.15 510,11.89 513,9.96 516,8.30 519,6.90 522,5.73 525,4.74 528,3.91 531,3.23 534,2.66 537,2.19 540,1.80 543,1.48 546,1.21 549,0.99 552,0.82 555,0.67 558,0.55 561,0.45 564,0.37 567,0.30 570,0.25 573,0.20 576,0.17 579,0.14 582,0.11 585,0.09 588,0.07 591,0.06 594,0.05 597,0.04 600,0.03 600,100 0,100"/><g fill="black"><text x="0" y="110">0.00</text><text text-anchor="end" x="600" y="110">10.00</text></g><g transform="translate(375.90 0)"><line stroke="red" x1="0" y1="0" x2="0" y2="100"/><text text-anchor="middle" fill="red" x="0" y="110">6.27</text></g></svg>