<svg version="1.1" xmlns="http://www.w3.org/2000/svg" xmlns:xlink="http://www.w3.org/1999/xlink" width="600" height="112" fill="none" font-family="sans-serif" font-size="10"><polygon stroke="hsl(0,100%,40%)" fill="hsla(0,100%,50%,20%)" points="0,0 3,0 6,0 9,0 12,0 15,0.00 18,0.00 21,0.00 24,0.00 27,0.00 30,0.00 33,0.00 36,0.00 39,0.00 42,0.00 45,0.00 48,0.00 51,0.00 54,0.00 57,0.00 60,0.00 63,0.00 66,0.00 69,0.00 72,0.00 75,0.00 78,0.00 81,0.00 84,0.00 87,0.00 90,0.00 93,0.00 96,0.00 99,0.00 102,0.00 105,0.00 108,0.00 111,0.00 114,0.00 117,0.00 120,0.00 123,0.00 126,0.00 129,0.00 132,0.00 135,0.00 138,0.00 141,0.00 144,0.00 147,0.00 150,0.00 153,0.01 156,0.02 159,0.03 162,0.05 165,0.09 168,0.17 171,0.30 174,0.55 177,1.00 180,1.80 183,3.23 186,5.73 189,9.98 192,16.80 195,26.89 198,40.13 201,54.98 204,69.00 207,80.22 210,88.08 213,93.09 216,96.08 219,97.81 222,98.79 225,99.33 228,99.63 231,99.80 234,99.89 237,99.94 240,99.97 243,99.98 246,99.99 249,99.99 252,100.00 255,100.00 258,100.00 261,100.00 264,100.00 267,100.00 270,100.00 273,100.00 276,100.00 279,100.00 282,100.00 285,100.00 288,100.00 291,100.00 294,100.00 297,100.00 300,100.00 303,100.00 306,100.00 309,100.00 312,100.00 315,100.00 318,100.00 321,100.00 324,100.00 327,100.00 330,100.00 333,100.00 336,100.00 339,100.00 342,100.00 345,100.00 348,100.00 351,100.00 354,100.00 357,100.00 360,100.00 363,100.00 366,100.00 369,100.00 372,100.00 375,100.00 378,100.00 381,100.00 384,100 387,100 390,100 393,100 396,100 399,100 402,100 405,100 408,100 411,100 414,100 417,100 420,100 423,100 426,100 429,100 432,100 435,100 438,100 441,100 444,100 447,100 450,100 453,100 456,100 459,100 462,100 465,100 468,100 471,100 474,100 477,100 480,100 483,100 486,100 489,100 492,100 495,100 498,100 501,100 504,100 507,100 510,100 513,100 516,100 519,100 522,100 525,100 528,100 531,100 534,100 537,100 540,100 543,100 546,100 549,100 552,100 555,100 558,100 561,100 564,100 567,100 570,100 573,100 576,100 579,100 582,100 585,100 588,100 591,100 594,100 597,100 600,100 600,100 0,100"/><polygon stroke="hsl(90,100%,40%)" fill="hsla(90,100%,50%,20%)" points="0,100 3,100 6,100 9,100 12,100 15,100 18,100 21,100 24,100 27,100 30,100 33,100 36,100 39,100 42,100 45,100 48,100 51,100 54,100 57,100 60,100 63,100 66,100 69,100 72,100 75,100 78,100 81,100 84,100 87,100 90,100 93,100 96,100 99,100 102,100 105,100 108,100 111,100 114,100 117,100 120,100 123,100 126,100 129,100 132,100 135,100 138,100 141,100 144,100 147,100 150,100 153,100 156,100 159,100 162,100 165,100 168,100 171,100 174,100 177,100 180,100 183,100 186,100 189,100 192,93.33 195,83.33 198,73.33 201,63.33 204,53.33 207,43.33 210,33.33 213,23.33 216,13.33 219,3.33 222,0 225,0 228,0 231,0 234,0 237,0 240,0 243,0 246,0 249,0 252,0 255,0 258,0 261,0 264,0 267,0 270,0 273,0 276,0 279,0 282,0 285,0 288,0 291,0 294,0 297,0 300,0 303,0 306,0 309,0 312,0 315,0 318,0 321,0 324,0 327,0 330,0 333,0 336,0 339,0 342,0 345,0 348,0 351,0 354,0 357,0 360,0 363,7.50 366,15.00 369,22.50 372,30.00 375,37.50 378,45.00 381,52.50 384,60.00 387,67.50 390,75 393,82.50 396,90.00 399,97.50 402,100 405,100 408,100 411,100 414,100 417,100 420,100 423,100 426,100 429,100 432,100 435,100 438,100 441,100 444,100 447,100 450,100 453,100 456,100 459,100 462,100 465,100 468,100 471,100 474,100 477,100 480,100 483,100 486,100 489,100 492,100 495,100 498,100 501,100 504,100 507,100 510,100 513,100 516,100 519,100 522,100 525,100 528,100 531,100 534,100 537,100 540,100 543,100 546,100 549,100 552,100 555,100 558,100 561,100 564,100 567,100 570,100 573,100 576,100 579,100 582,100 585,100 588,100 591,100 594,100 597,100 600,100 600,100 0,100"/><polygon stroke="hsl(180,100%,40%)" fill="hsla(180,100%,50%,20%)" points="0,100 3,100 6,100 9,100 12,100 15,100 18,100 21,100 24,100 27,100 30,100 33,100 36,100 39,100 42,100 45,100 48,100 51,100 54,100 57,100 60,100 63,100 66,100 69,100 72,100 75,100 78,100 81,100 84,100 87,100 90,100 93,100 96,100 99,100 102,100 105,100 108,100 111,100 114,100 117,100 120,100 123,100 126,100 129,100 132,100 135,100 138,100 141,100 144,100 147,100 150,100 153,100 156,100 159,100 162,100 165,100 168,100 171,100 174,100 177,100 180,100 183,100 186,100 189,100 192,100 195,100 198,100 201,100 204,100 207,100 210,100 213,100 216,100 219,100 222,100 225,100 228,100 231,100 234,100 237,100 240,100 243,100 246,100 249,100 252,100 255,100 258,100 261,100 264,100 267,100 270,100 273,100 276,100 279,100 282,100 285,100 288,100 291,100 294,100 297,100 300,100 303,100 306,100 309,100 312,100 315,100 318,100 321,100 324,100 327,100 330,100 333,100 336,100 339,100 342,100 345,100 348,100 351,98.00 354,92.00 357,86.00 360,80 363,74.00 366,68.00 369,62.00 372,56.00 375,50 378,44.00 381,38.00 384,32.00 387,26.00 390,20.00 393,14.00 396,8.00 399,2.00 402,0 405,0 408,0 411,0 414,0 417,0 420,0 423,0 426,0 429,0 432,0 435,0 438,0 441,0 444,0 447,0 450,0 453,0 456,0 459,0 462,0 465,0 468,0 471,0 474,0 477,0 480,0 483,0 486,0 489,0 492,0 495,0 498,0 501,2.50 504,10.00 507,17.50 510,25 513,32.50 516,40.00 519,47.50 522,55.00 525,62.50 528,70.00 531,77.50 534,85.00 537,92.50 540,100 543,100 546,100 549,100 552,100 555,100 558,100 561,100 564,100 567,100 570,100 573,100 576,100 579,100 582,100 585,100 588,100 591,100 594,100 597,100 600,100 600,100 0,100"/><polygon stroke="hsl(270,100%,40%)" fill="hsla(270,100%,50%,20%)" points="0,100 3,100 6,100 9,100 12,100 15,100 18,100 21,100 24,100 27,100 30,100 33,100 36,100 39,100 42,100 45,100 48,100 51,100 54,100 57,100 60,100 63,100 66,100 69,100 72,100 75,100 78,100 81,100 84,100 87,100 90,100 93,100 96,100 99,100 102,100 105,100 108,100 111,100 114,100 117,100 120,100 123,100 126,100 129,100 132,100 135,100 138,100 141,100 144,100 147,100 150,100 153,100 156,100 159,100 162,100 165,100 168,100 171,100 174,100 177,100 180,100 183,100 186,100 189,100 192,100 195,100 198,100 201,100 204,100 207,100 210,100 213,100 216,100 219,100 222,100 225,100 228,100 231,100 234,100 237,100 240,100 243,100 246,100 249,100 252,100 255,100 258,100 261,100 264,100 267,100 270,100 273,100 276,100 279,100 282,100 285,100 288,100 291,100 294,100 297,100 300,100 303,100 306,100 309,100 312,100 315,100 318,100 321,100 324,100 327,100 330,100 333,100.00 336,100.00 339,100.00 342,100.00 345,100.00 348,100.00 351,100.00 354,100.00 357,100.00 360,100.00 363,100.00 366,100.00 369,100.00 372,100.00 375,100.00 378,100.00 381,100.00 384,100.00 387,100.00 390,100.00 393,100.00 396,100.00 399,100.00 402,100.00 405,100.00 408,100.00 411,100.00 414,100.00 417,100.00 420,100.00 423,100.00 426,100.00 429,100.00 432,100.00 435,100.00 438,100.00 441,100.00 444,100.00 447,100.00 450,100.00 453,100.00 456,100.00 459,100.00 462,100.00 465,100.00 468,100.00 471,99.99 474,99.99 477,99.98 480,99.97 483,99.94 486,99.89 489,99.80 492,99.63 495,99.33 498,98.79 501,97.81 504,96.08 507,93.09 510,88.08 513,80.22 516,69.00 519,54.98 522,40.13 525,26.89 528,16.80 531,9.98 534,5.73 537,3.23 540,1.80 543,1.00 546,0.55 549,0.30 552,0.17 555,0.09 558,0.05 561,0.03 564,0.02 567,0.01 570,0.00 573,0.00 576,0.00 579,0.00 582,0.00 585,0.00 588,0.00 591,0.00 594,0.00 597,0.00 600,0.00 600,100 0,100"/><line stroke="hsl(0,100%,40%)" x1="0" y1="12" x2="20" y2="12"/><text dominant-baseline="middle" fill="black" x="30" y="12">freezing</text><line stroke="hsl(90,100%,40%)" x1="0" y1="24" x2="20" y2="24"/><text dominant-baseline="middle" fill="black" x="30" y="24">cold</text><line stroke="hsl(180,100%,40%)" x1="0" y1="36" x2="20" y2="36"/><text dominant-baseline="middle" fill="black" x="30" y="36">warm</text><line stroke="hsl(270,100%,40%)" x1="0" y1="48" x2="20" y2="48"/><text dominant-baseline="middle" fill="black" x="30" y="48">hot</text><g fill="black" transform="translate(0 110)"><line stroke="black" stroke-dasharray="2 2" x1="200" y1="0" x2="200" y2="100"/><text x="0" y="0">-20.00</text><text text-anchor="middle" x="200" y="0">0.00</text><text text-anchor="end" x="600" y="0">40.00</text></g></svg>