<svg xmlns="http://www.w3.org/2000/svg" width="300" height="300" viewBox="-105 -105 210 210" fill="none" stroke-width="0.75">
    <rect x="-105" y="-105" width="210" height="210" fill="white" stroke="none"/>
    <polygon stroke="#ccc" points="-100.00,-100.00 0.00,100.00 100.00,-100.00 0.00,0.00"/>
    <polygon stroke="#0df" points="-75.00,-75.00 -75.00,-50.00 -25.00,50.00 25.00,50.00 75.00,-50.00 75.00,-75.00 25.00,-25.00 -25.00,-25.00"/>
    <polygon stroke="#f0f" points="-62.50,-62.50 -75.00,-68.75 -75.00,-56.25 -62.50,-25.00 -37.50,25.00 -12.50,50.00 12.50,50.00 37.50,25.00 62.50,-25.00 75.00,-56.25 75.00,-68.75 62.50,-62.50 37.50,-37.50 12.50,-25.00 -12.50,-25.00 -37.50,-37.50"/>
    <polygon stroke="#000" points="-53.13,-53.13 -58.59,-58.20 -63.28,-62.11 -67.19,-64.84 -70.31,-66.41 -72.66,-66.80 -74.22,-66.02 -75.00,-64.06 -75.00,-60.94 -74.22,-56.64 -72.66,-51.17 -70.31,-44.53 -67.19,-36.72 -63.28,-27.73 -58.59,-17.58 -53.13,-6.25 -46.88,6.25 -40.63,17.19 -34.38,26.56 -28.13,34.38 -21.88,40.63 -15.63,45.31 -9.38,48.44 -3.13,50.00 3.13,50.00 9.38,48.44 15.63,45.31 21.88,40.63 28.13,34.38 34.38,26.56 40.63,17.19 46.88,6.25 53.13,-6.25 58.59,-17.58 63.28,-27.73 67.19,-36.72 70.31,-44.53 72.66,-51.17 74.22,-56.64 75.00,-60.94 75.00,-64.06 74.22,-66.02 72.66,-66.80 70.31,-66.41 67.19,-64.84 63.28,-62.11 58.59,-58.20 53.13,-53.13 46.88,-46.88 40.63,-41.41 34.38,-36.72 28.13,-32.81 21.88,-29.69 15.63,-27.34 9.38,-25.78 3.13,-25.00 -3.13,-25.00 -9.38,-25.78 -15.63,-27.34 -21.88,-29.69 -28.13,-32.81 -34.38,-36.72 -40.63,-41.41 -46.88,-46.88"/>
    <g fill="#000">
        <circle cx="-53.13" cy="-53.13" r="1.25"/>
        <circle cx="-58.59" cy="-58.20" r="1.25"/>
        <circle cx="-63.28" cy="-62.11" r="1.25"/>
        <circle cx="-67.19" cy="-64.84" r="1.25"/>
        <circle cx="-70.31" cy="-66.41" r="1.25"/>
        <circle cx="-72.66" cy="-66.80" r="1.25"/>
        <circle cx="-74.22" cy="-66.02" r="1.25"/>
        <circle cx="-75.00" cy="-64.06" r="1.25"/>
        <circle cx="-75.00" cy="-60.94" r="1.25"/>
        <circle cx="-74.22" cy="-56.64" r="1.25"/>
        <circle cx="-72.66" cy="-51.17" r="1.25"/>
        <circle cx="-70.31" cy="-44.53" r="1.25"/>
        <circle cx="-67.19" cy="-36.72" r="1.25"/>
        <circle cx="-63.28" cy="-27.73" r="1.25"/>
        <circle cx="-58.59" cy="-17.58" r="1.25"/>
        <circle cx="-53.13" cy="-6.25" r="1.25"/>
        <circle cx="-46.88" cy="6.25" r="1.25"/>
        <circle cx="-40.63" cy="17.19" r="1.25"/>
        <circle cx="-34.38" cy="26.56" r="1.25"/>
        <circle cx="-28.13" cy="34.38" r="1.25"/>
        <circle cx="-21.88" cy="40.63" r="1.25"/>
        <circle cx="-15.63" cy="45.31" r="1.25"/>
        <circle cx="-9.38" cy="48.44" r="1.25"/>
        <circle cx="-3.13" cy="50.00" r="1.25"/>
        <circle cx="3.13" cy="50.00" r="1.25"/>
        <circle cx="9.38" cy="48.44" r="1.25"/>
        <circle cx="15.63" cy="45.31" r="1.25"/>
        <circle cx="21.88" cy="40.63" r="1.25"/>
        <circle cx="28.13" cy="34.38" r="1.25"/>
        <circle cx="34.38" cy="26.56" r="1.25"/>
        <circle cx="40.63" cy="17.19" r="1.25"/>
        <circle cx="46.88" cy="6.25" r="1.25"/>
        <circle cx="53.13" cy="-6.25" r="1.25"/>
        <circle cx="58.59" cy="-17.58" r="1.25"/>
        <circle cx="63.28" cy="-27.73" r="1.25"/>
        <circle cx="67.19" cy="-36.72" r="1.25"/>
        <circle cx="70.31" cy="-44.53" r="1.25"/>
        <circle cx="72.66" cy="-51.17" r="1.25"/>
        <circle cx="74.22" cy="-56.64" r="1.25"/>
        <circle cx="75.00" cy="-60.94" r="1.25"/>
        <circle cx="75.00" cy="-64.06" r="1.25"/>
        <circle cx="74.22" cy="-66.02" r="1.25"/>
        <circle cx="72.66" cy="-66.80" r="1.25"/>
        <circle cx="70.31" cy="-66.41" r="1.25"/>
        <circle cx="67.19" cy="-64.84" r="1.25"/>
        <circle cx="63.28" cy="-62.11" r="1.25"/>
        <circle cx="58.59" cy="-58.20" r="1.25"/>
        <circle cx="53.13" cy="-53.13" r="1.25"/>
        <circle cx="46.88" cy="-46.88" r="1.25"/>
        <circle cx="40.63" cy="-41.41" r="1.25"/>
        <circle cx="34.38" cy="-36.72" r="1.25"/>
        <circle cx="28.13" cy="-32.81" r="1.25"/>
        <circle cx="21.88" cy="-29.69" r="1.25"/>
        <circle cx="15.63" cy="-27.34" r="1.25"/>
        <circle cx="9.38" cy="-25.78" r="1.25"/>
        <circle cx="3.13" cy="-25.00" r="1.25"/>
        <circle cx="-3.13" cy="-25.00" r="1.25"/>
        <circle cx="-9.38" cy="-25.78" r="1.25"/>
        <circle cx="-15.63" cy="-27.34" r="1.25"/>
        <circle cx="-21.88" cy="-29.69" r="1.25"/>
        <circle cx="-28.13" cy="-32.81" r="1.25"/>
        <circle cx="-34.38" cy="-36.72" r="1.25"/>
        <circle cx="-40.63" cy="-41.41" r="1.25"/>
        <circle cx="-46.88" cy="-46.88" r="1.25"/>
    </g>
</svg>
