<svg version="1.1" xmlns="http://www.w3.org/2000/svg" xmlns:xlink="http://www.w3.org/1999/xlink" xmlns:inkscape="http://www.inkscape.org/namespaces/inkscape" width="380.461" height="61.313" viewBox="0 3.715311427116397 380.4609375 61.31250107288361" stroke="none"><style>path { fill: #333; } @media (prefers-color-scheme: dark) { path { fill: #ccc; } }</style><path d="M0 47.520L7.031 47.520C10.469 35.817 13.986 24.193 17.367 12.434L19.969 3.715L12.938 3.715L10.336 12.434L4.711 12.434L3.445 16.864L9.070 16.864Z"/><path d="M18.281 47.520L25.313 47.520C27.919 38.759 30.449 29.922 33.117 21.223L23.977 21.223L29.109 3.715L22.078 3.715C19.919 11.002 17.838 18.366 15.609 25.583L9.141 47.520L16.172 47.520L22.641 25.583L24.750 25.583Z"/><path d="M44.508 13.454C44.489 11.502 42.949 9.973 40.992 9.973C39.023 9.973 37.477 11.520 37.477 13.489C37.477 15.387 39.023 16.934 40.992 16.934C42.949 16.934 44.489 15.406 44.508 13.454C44.508 13.442 44.508 13.430 44.508 13.418ZM27.422 47.520L34.453 47.520L42.258 21.223L35.227 21.223Z"/><path d="M44.578 44.145C44.578 42.176 43.031 40.629 41.063 40.629C39.164 40.629 37.617 42.176 37.617 44.145C37.617 46.114 39.164 47.661 41.133 47.661C43.102 47.661 44.648 46.114 44.648 44.145Z"/><path d="M54.844 47.520L61.875 47.520C64.481 38.759 67.012 29.922 69.680 21.223L53.508 21.223C50.839 29.922 48.310 38.760 45.703 47.520L52.734 47.520L59.203 25.583L61.313 25.583Z"/><path d="M58.781 65.028L74.953 65.028C78.918 51.954 82.725 38.721 86.625 25.583L87.961 21.223L71.789 21.223C69.121 29.922 66.591 38.760 63.984 47.520L71.016 47.520L77.484 25.583L79.594 25.583L69.258 60.668L67.148 60.668L68.414 56.309L61.383 56.309C60.544 59.244 59.677 62.150 58.781 65.028Z"/><path d="M77.063 65.028L84.094 65.028L102.234 3.715L95.203 3.715Z"/><path d="M100.547 47.520L107.578 47.520C110.184 38.759 112.715 29.922 115.383 21.223L106.242 21.223L111.375 3.715L104.344 3.715C102.185 11.002 100.103 18.366 97.875 25.583L91.406 47.520L98.438 47.520L104.906 25.583L107.016 25.583Z"/><path d="M126.773 13.454C126.755 11.502 125.215 9.973 123.258 9.973C121.289 9.973 119.742 11.520 119.742 13.489C119.742 15.387 121.289 16.934 123.258 16.934C125.215 16.934 126.755 15.406 126.773 13.454C126.773 13.442 126.773 13.430 126.773 13.418ZM109.688 47.520L116.719 47.520L124.523 21.223L117.492 21.223Z"/><path d="M133.172 30.012L140.203 30.012C141.034 27.046 141.901 24.116 142.805 21.223L126.633 21.223L125.297 25.583L125.333 25.583C123.167 32.897 120.954 40.165 118.828 47.520L135 47.520C135.847 44.570 136.715 41.641 137.602 38.731L130.570 38.731L129.234 43.161L127.125 43.161L132.365 25.583L134.438 25.583Z"/><path d="M151.453 30.012L158.484 30.012C159.315 27.046 160.182 24.116 161.086 21.223L144.914 21.223L143.578 25.583L143.615 25.583C141.448 32.897 139.236 40.165 137.109 47.520L153.281 47.520C154.128 44.570 154.996 41.641 155.883 38.731L148.852 38.731L147.516 43.161L145.406 43.161L150.646 25.583L152.719 25.583Z"/><path d="M155.391 47.520L171.563 47.520C174.119 38.710 176.769 29.992 179.367 21.223L172.336 21.223L165.797 43.161L163.688 43.161L170.227 21.223L163.195 21.223C160.597 29.992 157.948 38.710 155.391 47.520Z"/><path d="M182.813 47.520L189.844 47.520C192.450 38.759 194.980 29.922 197.648 21.223L181.477 21.223C177.073 35.757 172.814 50.436 168.469 65.028L175.500 65.028L187.172 25.583L189.281 25.583Z"/><path d="M195.820 34.372L211.992 34.372L213.328 30.012L197.156 30.012Z"/><path d="M228.516 47.520L235.547 47.520C238.153 38.759 240.684 29.922 243.352 21.223L218.039 21.223C215.371 29.922 212.841 38.760 210.234 47.520L217.266 47.520L223.734 25.583L225.844 25.583L219.375 47.520L226.406 47.520L232.875 25.583L234.984 25.583Z"/><path d="M237.656 47.520L253.828 47.520C255.953 40.176 258.142 32.896 260.297 25.583L261.633 21.223L245.461 21.223L244.125 25.583L253.266 25.583L248.063 43.161L245.953 43.161L249.891 30.012L242.859 30.012C241.124 35.847 239.346 41.640 237.656 47.520Z"/><path d="M270.281 30.012L277.313 30.012C278.143 27.046 279.010 24.116 279.914 21.223L263.742 21.223C261.074 29.922 258.544 38.760 255.938 47.520L262.969 47.520L269.438 25.583L271.547 25.583Z"/><path d="M283.359 47.520L290.391 47.520L292.992 38.731L285.131 34.379C288.600 32.905 292.109 31.471 295.594 30.012L298.195 21.223L291.164 21.223L288.563 30.012L286.121 31.028L294.188 3.715L287.156 3.715L278.104 34.364L278.086 34.372L278.100 34.379L274.219 47.520L281.250 47.520L284.143 37.725L285.961 38.731Z"/><path d="M292.500 47.520L308.672 47.520C312.949 32.883 317.302 18.322 321.609 3.715L314.578 3.715L302.906 43.161L300.797 43.161L307.336 21.223L300.305 21.223C297.706 29.992 295.057 38.710 292.500 47.520Z"/><path d="M310.781 47.520L326.953 47.520C329.078 40.176 331.267 32.896 333.422 25.583L334.758 21.223L318.586 21.223C316.349 28.479 314.229 35.851 312.047 43.161ZM326.391 25.583L321.188 43.161L319.078 43.161L324.281 25.583Z"/><path d="M329.063 47.520L354.375 47.520C356.932 38.710 359.582 29.992 362.180 21.223L355.148 21.223L348.609 43.161L346.500 43.161L353.039 21.223L346.008 21.223L339.469 43.161L337.359 43.161L343.898 21.223L336.867 21.223C334.269 29.992 331.620 38.710 329.063 47.520Z"/><path d="M365.625 47.520L372.656 47.520C375.263 38.759 377.793 29.922 380.461 21.223L364.289 21.223C361.621 29.922 359.091 38.760 356.484 47.520L363.516 47.520L369.984 25.583L372.094 25.583Z"/></svg>