<svg version="1.1" xmlns="http://www.w3.org/2000/svg" xmlns:xlink="http://www.w3.org/1999/xlink" xmlns:inkscape="http://www.inkscape.org/namespaces/inkscape" width="316.477" height="61.313" viewBox="0 3.715312500000003 316.4765625 61.31250000000001" stroke="none"><style>path { fill: #333; } @media (prefers-color-scheme: dark) { path { fill: #ccc; } }</style><path d="M0 47.520L7.031 47.520C10.469 35.817 13.986 24.193 17.367 12.434L19.969 3.715L12.938 3.715L10.336 12.434L4.711 12.434L3.445 16.864L9.070 16.864Z"/><path d="M18.281 47.520L25.313 47.520C27.919 38.759 30.449 29.922 33.117 21.223L23.977 21.223L29.109 3.715L22.078 3.715C19.919 11.002 17.838 18.366 15.609 25.583L9.141 47.520L16.172 47.520L22.641 25.583L24.750 25.583Z"/><path d="M44.508 13.454C44.489 11.502 42.949 9.973 40.992 9.973C39.023 9.973 37.477 11.520 37.477 13.489C37.477 15.387 39.023 16.934 40.992 16.934C42.949 16.934 44.489 15.406 44.508 13.454C44.508 13.442 44.508 13.430 44.508 13.418ZM27.422 47.520L34.453 47.520L42.258 21.223L35.227 21.223Z"/><path d="M44.578 44.145C44.578 42.176 43.031 40.629 41.063 40.629C39.164 40.629 37.617 42.176 37.617 44.145C37.617 46.114 39.164 47.661 41.133 47.661C43.102 47.661 44.648 46.114 44.648 44.145Z"/><path d="M54.844 47.520L61.875 47.520C64.481 38.759 67.012 29.922 69.680 21.223L53.508 21.223C50.839 29.922 48.310 38.760 45.703 47.520L52.734 47.520L59.203 25.583L61.313 25.583Z"/><path d="M58.781 65.028L74.953 65.028C78.918 51.954 82.725 38.721 86.625 25.583L87.961 21.223L71.789 21.223C69.121 29.922 66.591 38.760 63.984 47.520L71.016 47.520L77.484 25.583L79.594 25.583L69.258 60.668L67.148 60.668L68.414 56.309L61.383 56.309C60.544 59.244 59.677 62.150 58.781 65.028Z"/><path d="M77.063 65.028L84.094 65.028L102.234 3.715L95.203 3.715Z"/><path d="M86.203 65.028L102.375 65.028C106.340 51.954 110.146 38.721 114.047 25.583L115.383 21.223L99.211 21.223C96.543 29.922 94.013 38.760 91.406 47.520L98.438 47.520L104.906 25.583L107.016 25.583L96.680 60.668L94.570 60.668L95.836 56.309L88.805 56.309C87.966 59.244 87.099 62.150 86.203 65.028Z"/><path d="M124.031 30.012L131.063 30.012C131.893 27.046 132.760 24.116 133.664 21.223L117.492 21.223C114.824 29.922 112.294 38.760 109.688 47.520L116.719 47.520L123.188 25.583L125.297 25.583Z"/><path d="M145.055 13.454C145.036 11.502 143.496 9.973 141.539 9.973C139.570 9.973 138.023 11.520 138.023 13.489C138.023 15.387 139.570 16.934 141.539 16.934C143.496 16.934 145.036 15.406 145.055 13.454C145.055 13.442 145.055 13.430 145.055 13.418ZM127.969 47.520L135.000 47.520L142.805 21.223L135.773 21.223Z"/><path d="M137.109 47.520L153.281 47.520C157.558 32.883 161.911 18.322 166.219 3.715L159.188 3.715L147.516 43.161L145.406 43.161L151.945 21.223L144.914 21.223C142.316 29.992 139.666 38.710 137.109 47.520Z"/><path d="M159.258 34.372L175.430 34.372L176.766 30.012L160.594 30.012Z"/><path d="M190.758 13.454C190.739 11.502 189.199 9.973 187.242 9.973C185.273 9.973 183.727 11.520 183.727 13.489C183.727 15.387 185.273 16.934 187.242 16.934C189.199 16.934 190.739 15.406 190.758 13.454C190.758 13.442 190.758 13.430 190.758 13.418ZM173.672 47.520L180.703 47.520L188.508 21.223L181.477 21.223Z"/><path d="M182.813 47.520L189.844 47.520C193.281 35.817 196.798 24.193 200.180 12.434L202.781 3.715L195.750 3.715L193.148 12.434L187.523 12.434L186.258 16.864L191.883 16.864Z"/><path d="M203.695 38.731L210.727 38.731C212.459 32.893 214.136 26.999 215.930 21.223L199.758 21.223L198.422 25.583L198.458 25.583C196.292 32.897 194.079 40.165 191.953 47.520L208.125 47.520L209.391 43.161L200.250 43.161L205.490 25.583L207.563 25.583Z"/><path d="M224.578 30.012L231.609 30.012C232.440 27.046 233.307 24.116 234.211 21.223L218.039 21.223C215.371 29.922 212.841 38.760 210.234 47.520L217.266 47.520L223.734 25.583L225.844 25.583Z"/><path d="M228.516 47.520L244.688 47.520C246.813 40.176 249.001 32.896 251.156 25.583L252.492 21.223L236.320 21.223L234.984 25.583L244.125 25.583L238.922 43.161L236.813 43.161L240.750 30.012L233.719 30.012C231.983 35.847 230.206 41.640 228.516 47.520Z"/><path d="M246.797 47.520L253.828 47.520C257.266 35.817 260.783 24.193 264.164 12.434L266.766 3.715L259.734 3.715L257.133 12.434L251.508 12.434L250.242 16.864L255.867 16.864Z"/><path d="M255.938 47.520L272.109 47.520C274.235 40.176 276.423 32.896 278.578 25.583L279.914 21.223L263.742 21.223C261.506 28.479 259.385 35.851 257.203 43.161ZM271.547 25.583L266.344 43.161L264.234 43.161L269.438 25.583Z"/><path d="M288.563 30.012L295.594 30.012C296.424 27.046 297.291 24.116 298.195 21.223L282.023 21.223C279.355 29.922 276.826 38.760 274.219 47.520L281.250 47.520L287.719 25.583L289.828 25.583Z"/><path d="M306.844 30.012L313.875 30.012C314.706 27.046 315.572 24.116 316.477 21.223L300.305 21.223C299.401 24.116 298.533 27.046 297.703 30.012L304.242 38.731L302.906 43.161L300.797 43.161L302.133 38.731L295.102 38.731C294.215 41.641 293.347 44.570 292.500 47.520L308.672 47.520C309.519 44.570 310.387 41.641 311.273 38.731L304.734 30.012L306 25.583L308.109 25.583Z"/></svg>