<svg version="1.1" xmlns="http://www.w3.org/2000/svg" xmlns:xlink="http://www.w3.org/1999/xlink" xmlns:inkscape="http://www.inkscape.org/namespaces/inkscape" width="197.648" height="61.313" viewBox="0 3.715312500000003 197.6484375 61.31250000000001" stroke="none"><style>path { fill: #333; } @media (prefers-color-scheme: dark) { path { fill: #ccc; } }</style><path d="M0 47.520L7.031 47.520C10.469 35.817 13.986 24.193 17.367 12.434L19.969 3.715L12.938 3.715L10.336 12.434L4.711 12.434L3.445 16.864L9.070 16.864Z"/><path d="M18.281 47.520L25.313 47.520C27.919 38.759 30.449 29.922 33.117 21.223L23.977 21.223L29.109 3.715L22.078 3.715C19.919 11.002 17.838 18.366 15.609 25.583L9.141 47.520L16.172 47.520L22.641 25.583L24.750 25.583Z"/><path d="M44.508 13.454C44.489 11.502 42.949 9.973 40.992 9.973C39.023 9.973 37.477 11.520 37.477 13.489C37.477 15.387 39.023 16.934 40.992 16.934C42.949 16.934 44.489 15.406 44.508 13.454C44.508 13.442 44.508 13.430 44.508 13.418ZM27.422 47.520L34.453 47.520L42.258 21.223L35.227 21.223Z"/><path d="M44.578 44.145C44.578 42.176 43.031 40.629 41.063 40.629C39.164 40.629 37.617 42.176 37.617 44.145C37.617 46.114 39.164 47.661 41.133 47.661C43.102 47.661 44.648 46.114 44.648 44.145Z"/><path d="M54.844 47.520L61.875 47.520C64.481 38.759 67.012 29.922 69.680 21.223L53.508 21.223C50.839 29.922 48.310 38.760 45.703 47.520L52.734 47.520L59.203 25.583L61.313 25.583Z"/><path d="M58.781 65.028L74.953 65.028C78.918 51.954 82.725 38.721 86.625 25.583L87.961 21.223L71.789 21.223C69.121 29.922 66.591 38.760 63.984 47.520L71.016 47.520L77.484 25.583L79.594 25.583L69.258 60.668L67.148 60.668L68.414 56.309L61.383 56.309C60.544 59.244 59.677 62.150 58.781 65.028Z"/><path d="M77.063 65.028L84.094 65.028L102.234 3.715L95.203 3.715Z"/><path d="M105.750 30.012L112.781 30.012C113.612 27.046 114.479 24.116 115.383 21.223L99.211 21.223C96.543 29.922 94.013 38.760 91.406 47.520L98.438 47.520L104.906 25.583L107.016 25.583Z"/><path d="M109.688 47.520L125.859 47.520C127.985 40.176 130.173 32.896 132.328 25.583L133.664 21.223L117.492 21.223C115.256 28.479 113.135 35.851 110.953 43.161ZM125.297 25.583L120.094 43.161L117.984 43.161L123.188 25.583Z"/><path d="M127.969 47.520L144.141 47.520C146.697 38.710 149.347 29.992 151.945 21.223L144.914 21.223L138.375 43.161L136.266 43.161L142.805 21.223L135.773 21.223C133.175 29.992 130.526 38.710 127.969 47.520Z"/><path d="M146.250 47.520L153.281 47.520C156.719 35.817 160.236 24.193 163.617 12.434L166.219 3.715L159.188 3.715L156.586 12.434L150.961 12.434L149.695 16.864L155.320 16.864Z"/><path d="M167.133 38.731L174.164 38.731C175.896 32.893 177.573 26.999 179.367 21.223L163.195 21.223L161.859 25.583L161.896 25.583C159.729 32.897 157.517 40.165 155.391 47.520L171.563 47.520L172.828 43.161L163.688 43.161L168.927 25.583L171 25.583Z"/><path d="M188.016 30.012L195.047 30.012C195.878 27.046 196.744 24.116 197.648 21.223L181.477 21.223C178.808 29.922 176.279 38.760 173.672 47.520L180.703 47.520L187.172 25.583L189.281 25.583Z"/></svg>