<svg version="1.1" xmlns="http://www.w3.org/2000/svg" xmlns:xlink="http://www.w3.org/1999/xlink" xmlns:inkscape="http://www.inkscape.org/namespaces/inkscape" width="353.039" height="61.313" viewBox="0 3.715311427116397 353.0390625 61.31250107288361" stroke="none"><style>path { fill: #333; } @media (prefers-color-scheme: dark) { path { fill: #ccc; } }</style><path d="M0 47.520L7.031 47.520C10.469 35.817 13.986 24.193 17.367 12.434L19.969 3.715L12.938 3.715L10.336 12.434L4.711 12.434L3.445 16.864L9.070 16.864Z"/><path d="M18.281 47.520L25.313 47.520C27.919 38.759 30.449 29.922 33.117 21.223L23.977 21.223L29.109 3.715L22.078 3.715C19.919 11.002 17.838 18.366 15.609 25.583L9.141 47.520L16.172 47.520L22.641 25.583L24.750 25.583Z"/><path d="M44.508 13.454C44.489 11.502 42.949 9.973 40.992 9.973C39.023 9.973 37.477 11.520 37.477 13.489C37.477 15.387 39.023 16.934 40.992 16.934C42.949 16.934 44.489 15.406 44.508 13.454C44.508 13.442 44.508 13.430 44.508 13.418ZM27.422 47.520L34.453 47.520L42.258 21.223L35.227 21.223Z"/><path d="M44.578 44.145C44.578 42.176 43.031 40.629 41.063 40.629C39.164 40.629 37.617 42.176 37.617 44.145C37.617 46.114 39.164 47.661 41.133 47.661C43.102 47.661 44.648 46.114 44.648 44.145Z"/><path d="M54.844 47.520L61.875 47.520C64.481 38.759 67.012 29.922 69.680 21.223L53.508 21.223C50.839 29.922 48.310 38.760 45.703 47.520L52.734 47.520L59.203 25.583L61.313 25.583Z"/><path d="M58.781 65.028L74.953 65.028C78.918 51.954 82.725 38.721 86.625 25.583L87.961 21.223L71.789 21.223C69.121 29.922 66.591 38.760 63.984 47.520L71.016 47.520L77.484 25.583L79.594 25.583L69.258 60.668L67.148 60.668L68.414 56.309L61.383 56.309C60.544 59.244 59.677 62.150 58.781 65.028Z"/><path d="M77.063 65.028L84.094 65.028L102.234 3.715L95.203 3.715Z"/><path d="M109.688 47.520L116.719 47.520C119.325 38.759 121.855 29.922 124.523 21.223L99.211 21.223C96.543 29.922 94.013 38.760 91.406 47.520L98.438 47.520L104.906 25.583L107.016 25.583L100.547 47.520L107.578 47.520L114.047 25.583L116.156 25.583Z"/><path d="M118.828 47.520L135 47.520C137.125 40.176 139.314 32.896 141.469 25.583L142.805 21.223L126.633 21.223L125.297 25.583L134.438 25.583L129.234 43.161L127.125 43.161L131.063 30.012L124.031 30.012C122.296 35.847 120.518 41.640 118.828 47.520Z"/><path d="M151.453 30.012L158.484 30.012C159.315 27.046 160.182 24.116 161.086 21.223L144.914 21.223C142.246 29.922 139.716 38.760 137.109 47.520L144.141 47.520L150.609 25.583L152.719 25.583Z"/><path d="M164.531 47.520L171.563 47.520L174.164 38.731L166.303 34.379C169.772 32.905 173.281 31.471 176.766 30.012L179.367 21.223L172.336 21.223L169.734 30.012L167.293 31.028L175.359 3.715L168.328 3.715L159.276 34.364L159.258 34.372L159.272 34.379L155.391 47.520L162.422 47.520L165.315 37.725L167.133 38.731Z"/><path d="M173.672 47.520L189.844 47.520C194.120 32.883 198.474 18.322 202.781 3.715L195.750 3.715L184.078 43.161L181.969 43.161L188.508 21.223L181.477 21.223C178.878 29.992 176.229 38.710 173.672 47.520Z"/><path d="M191.953 47.520L208.125 47.520C210.250 40.176 212.439 32.896 214.594 25.583L215.930 21.223L199.758 21.223C197.521 28.479 195.401 35.851 193.219 43.161ZM207.563 25.583L202.359 43.161L200.250 43.161L205.453 25.583Z"/><path d="M210.234 47.520L235.547 47.520C238.104 38.710 240.754 29.992 243.352 21.223L236.320 21.223L229.781 43.161L227.672 43.161L234.211 21.223L227.180 21.223L220.641 43.161L218.531 43.161L225.070 21.223L218.039 21.223C215.441 29.992 212.791 38.710 210.234 47.520Z"/><path d="M246.797 47.520L253.828 47.520C256.434 38.759 258.965 29.922 261.633 21.223L245.461 21.223C242.793 29.922 240.263 38.760 237.656 47.520L244.688 47.520L251.156 25.583L253.266 25.583Z"/><path d="M259.805 34.372L275.977 34.372L277.313 30.012L261.141 30.012Z"/><path d="M274.219 47.520L281.250 47.520C284.688 35.817 288.205 24.193 291.586 12.434L294.188 3.715L287.156 3.715L284.555 12.434L278.930 12.434L277.664 16.864L283.289 16.864Z"/><path d="M283.359 47.520L299.531 47.520C301.656 40.176 303.845 32.896 306 25.583L307.336 21.223L291.164 21.223L289.828 25.583L298.969 25.583L293.766 43.161L291.656 43.161L295.594 30.012L288.563 30.012C286.827 35.847 285.049 41.640 283.359 47.520Z"/><path d="M301.641 47.520L317.813 47.520C320.369 38.710 323.019 29.992 325.617 21.223L318.586 21.223L312.047 43.161L309.938 43.161L321.609 3.715L314.578 3.715C310.270 18.321 305.918 32.883 301.641 47.520Z"/><path d="M319.922 47.520L326.953 47.520L339.891 3.715L332.859 3.715Z"/><path d="M340.805 38.731L347.836 38.731C349.568 32.893 351.245 26.999 353.039 21.223L336.867 21.223L335.531 25.583L335.568 25.583C333.401 32.897 331.189 40.165 329.063 47.520L345.234 47.520L346.500 43.161L337.359 43.161L342.599 25.583L344.672 25.583Z"/></svg>