<svg version="1.1" xmlns="http://www.w3.org/2000/svg" xmlns:xlink="http://www.w3.org/1999/xlink" xmlns:inkscape="http://www.inkscape.org/namespaces/inkscape" width="270.773" height="61.313" viewBox="0 3.715312500000003 270.7734375 61.31250000000001" stroke="none"><style>path { fill: #333; } @media (prefers-color-scheme: dark) { path { fill: #ccc; } }</style><path d="M0 47.520L7.031 47.520C10.469 35.817 13.986 24.193 17.367 12.434L19.969 3.715L12.938 3.715L10.336 12.434L4.711 12.434L3.445 16.864L9.070 16.864Z"/><path d="M18.281 47.520L25.313 47.520C27.919 38.759 30.449 29.922 33.117 21.223L23.977 21.223L29.109 3.715L22.078 3.715C19.919 11.002 17.838 18.366 15.609 25.583L9.141 47.520L16.172 47.520L22.641 25.583L24.750 25.583Z"/><path d="M44.508 13.454C44.489 11.502 42.949 9.973 40.992 9.973C39.023 9.973 37.477 11.520 37.477 13.489C37.477 15.387 39.023 16.934 40.992 16.934C42.949 16.934 44.489 15.406 44.508 13.454C44.508 13.442 44.508 13.430 44.508 13.418ZM27.422 47.520L34.453 47.520L42.258 21.223L35.227 21.223Z"/><path d="M44.578 44.145C44.578 42.176 43.031 40.629 41.063 40.629C39.164 40.629 37.617 42.176 37.617 44.145C37.617 46.114 39.164 47.661 41.133 47.661C43.102 47.661 44.648 46.114 44.648 44.145Z"/><path d="M54.844 47.520L61.875 47.520C64.481 38.759 67.012 29.922 69.680 21.223L53.508 21.223C50.839 29.922 48.310 38.760 45.703 47.520L52.734 47.520L59.203 25.583L61.313 25.583Z"/><path d="M58.781 65.028L74.953 65.028C78.918 51.954 82.725 38.721 86.625 25.583L87.961 21.223L71.789 21.223C69.121 29.922 66.591 38.760 63.984 47.520L71.016 47.520L77.484 25.583L79.594 25.583L69.258 60.668L67.148 60.668L68.414 56.309L61.383 56.309C60.544 59.244 59.677 62.150 58.781 65.028Z"/><path d="M77.063 65.028L84.094 65.028L102.234 3.715L95.203 3.715Z"/><path d="M91.406 47.520L107.578 47.520C110.135 38.710 112.785 29.992 115.383 21.223L108.352 21.223L101.813 43.161L99.703 43.161L111.375 3.715L104.344 3.715C100.036 18.321 95.684 32.883 91.406 47.520Z"/><path d="M126.773 13.454C126.755 11.502 125.215 9.973 123.258 9.973C121.289 9.973 119.742 11.520 119.742 13.489C119.742 15.387 121.289 16.934 123.258 16.934C125.215 16.934 126.755 15.406 126.773 13.454C126.773 13.442 126.773 13.430 126.773 13.418ZM109.688 47.520L116.719 47.520L124.523 21.223L117.492 21.223Z"/><path d="M118.828 47.520L135 47.520C139.277 32.883 143.630 18.322 147.938 3.715L140.906 3.715L129.234 43.161L127.125 43.161L133.664 21.223L126.633 21.223C124.035 29.992 121.385 38.710 118.828 47.520Z"/><path d="M154.195 13.454C154.177 11.502 152.637 9.973 150.680 9.973C148.711 9.973 147.164 11.520 147.164 13.489C147.164 15.387 148.711 16.934 150.680 16.934C152.637 16.934 154.177 15.406 154.195 13.454C154.195 13.442 154.195 13.430 154.195 13.418ZM137.109 47.520L144.141 47.520L151.945 21.223L144.914 21.223Z"/><path d="M160.594 30.012L167.625 30.012C168.456 27.046 169.322 24.116 170.227 21.223L154.055 21.223C151.386 29.922 148.857 38.760 146.250 47.520L153.281 47.520L159.750 25.583L161.859 25.583Z"/><path d="M168.398 34.372L184.570 34.372L185.906 30.012L169.734 30.012Z"/><path d="M199.898 13.454C199.880 11.502 198.340 9.973 196.383 9.973C194.414 9.973 192.867 11.520 192.867 13.489C192.867 15.387 194.414 16.934 196.383 16.934C198.340 16.934 199.880 15.406 199.898 13.454C199.898 13.442 199.898 13.430 199.898 13.418ZM182.813 47.520L189.844 47.520L197.648 21.223L190.617 21.223Z"/><path d="M201.094 47.520L208.125 47.520C210.731 38.759 213.262 29.922 215.930 21.223L199.758 21.223C197.089 29.922 194.560 38.760 191.953 47.520L198.984 47.520L205.453 25.583L207.563 25.583Z"/><path d="M210.234 47.520L226.406 47.520C230.683 32.883 235.036 18.322 239.344 3.715L232.313 3.715L220.641 43.161L218.531 43.161L225.070 21.223L218.039 21.223C215.441 29.992 212.791 38.710 210.234 47.520Z"/><path d="M240.258 38.731L247.289 38.731C249.021 32.893 250.698 26.999 252.492 21.223L236.320 21.223L234.984 25.583L235.021 25.583C232.854 32.897 230.642 40.165 228.516 47.520L244.688 47.520L245.953 43.161L236.813 43.161L242.052 25.583L244.125 25.583Z"/><path d="M255.938 47.520L262.969 47.520L265.570 38.731L262.301 34.372L268.172 30.012L270.773 21.223L263.742 21.223L261.141 30.012L259.786 31.018L259.031 30.012L261.633 21.223L254.602 21.223L252 30.012L255.270 34.372L249.398 38.731L246.797 47.520L253.828 47.520L256.430 38.731L257.785 37.725L258.539 38.731Z"/></svg>