<svg version="1.1" xmlns="http://www.w3.org/2000/svg" xmlns:xlink="http://www.w3.org/1999/xlink" xmlns:inkscape="http://www.inkscape.org/namespaces/inkscape" width="307.336" height="61.313" viewBox="0 3.715312500000003 307.3359375 61.31250000000001" stroke="none"><style>path { fill: #333; } @media (prefers-color-scheme: dark) { path { fill: #ccc; } }</style><path d="M0 47.520L7.031 47.520C10.469 35.817 13.986 24.193 17.367 12.434L19.969 3.715L12.938 3.715L10.336 12.434L4.711 12.434L3.445 16.864L9.070 16.864Z"/><path d="M18.281 47.520L25.313 47.520C27.919 38.759 30.449 29.922 33.117 21.223L23.977 21.223L29.109 3.715L22.078 3.715C19.919 11.002 17.838 18.366 15.609 25.583L9.141 47.520L16.172 47.520L22.641 25.583L24.750 25.583Z"/><path d="M44.508 13.454C44.489 11.502 42.949 9.973 40.992 9.973C39.023 9.973 37.477 11.520 37.477 13.489C37.477 15.387 39.023 16.934 40.992 16.934C42.949 16.934 44.489 15.406 44.508 13.454C44.508 13.442 44.508 13.430 44.508 13.418ZM27.422 47.520L34.453 47.520L42.258 21.223L35.227 21.223Z"/><path d="M44.578 44.145C44.578 42.176 43.031 40.629 41.063 40.629C39.164 40.629 37.617 42.176 37.617 44.145C37.617 46.114 39.164 47.661 41.133 47.661C43.102 47.661 44.648 46.114 44.648 44.145Z"/><path d="M54.844 47.520L61.875 47.520C64.481 38.759 67.012 29.922 69.680 21.223L53.508 21.223C50.839 29.922 48.310 38.760 45.703 47.520L52.734 47.520L59.203 25.583L61.313 25.583Z"/><path d="M58.781 65.028L74.953 65.028C78.918 51.954 82.725 38.721 86.625 25.583L87.961 21.223L71.789 21.223C69.121 29.922 66.591 38.760 63.984 47.520L71.016 47.520L77.484 25.583L79.594 25.583L69.258 60.668L67.148 60.668L68.414 56.309L61.383 56.309C60.544 59.244 59.677 62.150 58.781 65.028Z"/><path d="M77.063 65.028L84.094 65.028L102.234 3.715L95.203 3.715Z"/><path d="M100.547 47.520L107.578 47.520C110.184 38.759 112.715 29.922 115.383 21.223L106.242 21.223L111.375 3.715L104.344 3.715C102.185 11.002 100.103 18.366 97.875 25.583L91.406 47.520L98.438 47.520L104.906 25.583L107.016 25.583Z"/><path d="M109.688 47.520L125.859 47.520C130.136 32.883 134.489 18.322 138.797 3.715L131.766 3.715L120.094 43.161L117.984 43.161L124.523 21.223L117.492 21.223C114.894 29.992 112.245 38.710 109.688 47.520Z"/><path d="M127.969 47.520L144.141 47.520C146.266 40.176 148.455 32.896 150.609 25.583L151.945 21.223L135.773 21.223C133.537 28.479 131.416 35.851 129.234 43.161ZM143.578 25.583L138.375 43.161L136.266 43.161L141.469 25.583Z"/><path d="M164.531 47.520L171.563 47.520C174.169 38.759 176.699 29.922 179.367 21.223L154.055 21.223C151.386 29.922 148.857 38.760 146.250 47.520L153.281 47.520L159.750 25.583L161.859 25.583L155.391 47.520L162.422 47.520L168.891 25.583L171 25.583Z"/><path d="M177.539 34.372L193.711 34.372L195.047 30.012L178.875 30.012Z"/><path d="M206.297 30.012L213.328 30.012C214.159 27.046 215.026 24.116 215.930 21.223L199.758 21.223L198.422 25.583L198.458 25.583C196.292 32.897 194.079 40.165 191.953 47.520L208.125 47.520C208.972 44.570 209.840 41.641 210.727 38.731L203.695 38.731L202.359 43.161L200.250 43.161L205.490 25.583L207.563 25.583Z"/><path d="M210.234 47.520L226.406 47.520C228.531 40.176 230.720 32.896 232.875 25.583L234.211 21.223L218.039 21.223L216.703 25.583L225.844 25.583L220.641 43.161L218.531 43.161L222.469 30.012L215.438 30.012C213.702 35.847 211.924 41.640 210.234 47.520Z"/><path d="M237.656 47.520L244.688 47.520C247.294 38.759 249.824 29.922 252.492 21.223L236.320 21.223C233.652 29.922 231.122 38.760 228.516 47.520L235.547 47.520L242.016 25.583L244.125 25.583Z"/><path d="M258.539 38.731L255.836 40.754L261.633 21.223L254.602 21.223L246.797 47.520L253.828 47.520L265.570 38.731L270.773 21.223L263.742 21.223Z"/><path d="M265.078 47.520L281.250 47.520C283.375 40.176 285.564 32.896 287.719 25.583L289.055 21.223L272.883 21.223L271.547 25.583L280.688 25.583L275.484 43.161L273.375 43.161L277.313 30.012L270.281 30.012C268.546 35.847 266.768 41.640 265.078 47.520Z"/><path d="M297.703 30.012L304.734 30.012C305.565 27.046 306.432 24.116 307.336 21.223L291.164 21.223C290.260 24.116 289.393 27.046 288.563 30.012L295.102 38.731L293.766 43.161L291.656 43.161L292.992 38.731L285.961 38.731C285.074 41.641 284.206 44.570 283.359 47.520L299.531 47.520C300.378 44.570 301.246 41.641 302.133 38.731L295.594 30.012L296.859 25.583L298.969 25.583Z"/></svg>