<svg version="1.1" xmlns="http://www.w3.org/2000/svg" xmlns:xlink="http://www.w3.org/1999/xlink" xmlns:inkscape="http://www.inkscape.org/namespaces/inkscape" width="230.695" height="61.313" viewBox="0 3.715312500000003 230.6953125 61.31250000000001" stroke="none"><style>path { fill: #333; } @media (prefers-color-scheme: dark) { path { fill: #ccc; } }</style><path d="M0 47.520L7.031 47.520C10.469 35.817 13.986 24.193 17.367 12.434L19.969 3.715L12.938 3.715L10.336 12.434L4.711 12.434L3.445 16.864L9.070 16.864Z"/><path d="M18.281 47.520L25.313 47.520C27.919 38.759 30.449 29.922 33.117 21.223L23.977 21.223L29.109 3.715L22.078 3.715C19.919 11.002 17.838 18.366 15.609 25.583L9.141 47.520L16.172 47.520L22.641 25.583L24.750 25.583Z"/><path d="M44.508 13.454C44.489 11.502 42.949 9.973 40.992 9.973C39.023 9.973 37.477 11.520 37.477 13.489C37.477 15.387 39.023 16.934 40.992 16.934C42.949 16.934 44.489 15.406 44.508 13.454C44.508 13.442 44.508 13.430 44.508 13.418ZM27.422 47.520L34.453 47.520L42.258 21.223L35.227 21.223Z"/><path d="M44.578 44.145C44.578 42.176 43.031 40.629 41.063 40.629C39.164 40.629 37.617 42.176 37.617 44.145C37.617 46.114 39.164 47.661 41.133 47.661C43.102 47.661 44.648 46.114 44.648 44.145Z"/><path d="M54.844 47.520L61.875 47.520C64.481 38.759 67.012 29.922 69.680 21.223L53.508 21.223C50.839 29.922 48.310 38.760 45.703 47.520L52.734 47.520L59.203 25.583L61.313 25.583Z"/><path d="M58.781 65.028L74.953 65.028C78.918 51.954 82.725 38.721 86.625 25.583L87.961 21.223L71.789 21.223C69.121 29.922 66.591 38.760 63.984 47.520L71.016 47.520L77.484 25.583L79.594 25.583L69.258 60.668L67.148 60.668L68.414 56.309L61.383 56.309C60.544 59.244 59.677 62.150 58.781 65.028Z"/><path d="M77.063 65.028L84.094 65.028L102.234 3.715L95.203 3.715Z"/><path d="M100.547 47.520L107.578 47.520C110.184 38.759 112.715 29.922 115.383 21.223L99.211 21.223C94.807 35.757 90.549 50.436 86.203 65.028L93.234 65.028L104.906 25.583L107.016 25.583Z"/><path d="M124.031 30.012L131.063 30.012C131.893 27.046 132.760 24.116 133.664 21.223L117.492 21.223C114.824 29.922 112.294 38.760 109.688 47.520L116.719 47.520L123.188 25.583L125.297 25.583Z"/><path d="M139.711 38.731L146.742 38.731C148.474 32.893 150.151 26.999 151.945 21.223L135.773 21.223L134.438 25.583L134.474 25.583C132.307 32.897 130.095 40.165 127.969 47.520L144.141 47.520L145.406 43.161L136.266 43.161L141.505 25.583L143.578 25.583Z"/><path d="M146.250 47.520L153.281 47.520L159.750 25.583L165.375 25.583L166.711 21.223L161.086 21.223L175.359 3.715L168.328 3.715L154.055 21.223C151.386 29.922 148.857 38.760 146.250 47.520Z"/><path d="M178.101 13.454C178.083 11.502 176.543 9.973 174.586 9.973C172.617 9.973 171.070 11.520 171.070 13.489C171.070 15.387 172.617 16.934 174.586 16.934C176.543 16.934 178.083 15.406 178.101 13.454C178.101 13.442 178.102 13.430 178.102 13.418ZM161.016 47.520L168.047 47.520L175.852 21.223L168.820 21.223Z"/><path d="M179.297 47.520L186.328 47.520L188.930 38.731L185.660 34.372L191.531 30.012L194.133 21.223L187.102 21.223L184.500 30.012L183.145 31.018L182.391 30.012L184.992 21.223L177.961 21.223L175.359 30.012L178.629 34.372L172.758 38.731L170.156 47.520L177.188 47.520L179.789 38.731L181.144 37.725L181.898 38.731Z"/><path d="M200.180 38.731L207.211 38.731C208.943 32.893 210.620 26.999 212.414 21.223L196.242 21.223L194.906 25.583L194.943 25.583C192.776 32.897 190.564 40.165 188.438 47.520L204.609 47.520L205.875 43.161L196.734 43.161L201.974 25.583L204.047 25.583Z"/><path d="M221.063 30.012L228.094 30.012C228.924 27.046 229.791 24.116 230.695 21.223L214.523 21.223C213.620 24.116 212.752 27.046 211.922 30.012L218.461 38.731L217.125 43.161L215.016 43.161L216.352 38.731L209.320 38.731C208.434 41.641 207.565 44.570 206.719 47.520L222.891 47.520C223.738 44.570 224.605 41.641 225.492 38.731L218.953 30.012L220.219 25.583L222.328 25.583Z"/></svg>