<svg version="1.1" xmlns="http://www.w3.org/2000/svg" xmlns:xlink="http://www.w3.org/1999/xlink" xmlns:inkscape="http://www.inkscape.org/namespaces/inkscape" width="215.930" height="61.313" viewBox="0 3.715312500000003 215.9296875 61.31250000000001" stroke="none"><style>path { fill: #333; } @media (prefers-color-scheme: dark) { path { fill: #ccc; } }</style><path d="M0 47.520L7.031 47.520C10.469 35.817 13.986 24.193 17.367 12.434L19.969 3.715L12.938 3.715L10.336 12.434L4.711 12.434L3.445 16.864L9.070 16.864Z"/><path d="M18.281 47.520L25.313 47.520C27.919 38.759 30.449 29.922 33.117 21.223L23.977 21.223L29.109 3.715L22.078 3.715C19.919 11.002 17.838 18.366 15.609 25.583L9.141 47.520L16.172 47.520L22.641 25.583L24.750 25.583Z"/><path d="M44.508 13.454C44.489 11.502 42.949 9.973 40.992 9.973C39.023 9.973 37.477 11.520 37.477 13.489C37.477 15.387 39.023 16.934 40.992 16.934C42.949 16.934 44.489 15.406 44.508 13.454C44.508 13.442 44.508 13.430 44.508 13.418ZM27.422 47.520L34.453 47.520L42.258 21.223L35.227 21.223Z"/><path d="M44.578 44.145C44.578 42.176 43.031 40.629 41.063 40.629C39.164 40.629 37.617 42.176 37.617 44.145C37.617 46.114 39.164 47.661 41.133 47.661C43.102 47.661 44.648 46.114 44.648 44.145Z"/><path d="M54.844 47.520L61.875 47.520C64.481 38.759 67.012 29.922 69.680 21.223L53.508 21.223C50.839 29.922 48.310 38.760 45.703 47.520L52.734 47.520L59.203 25.583L61.313 25.583Z"/><path d="M58.781 65.028L74.953 65.028C78.918 51.954 82.725 38.721 86.625 25.583L87.961 21.223L71.789 21.223C69.121 29.922 66.591 38.760 63.984 47.520L71.016 47.520L77.484 25.583L79.594 25.583L69.258 60.668L67.148 60.668L68.414 56.309L61.383 56.309C60.544 59.244 59.677 62.150 58.781 65.028Z"/><path d="M77.063 65.028L84.094 65.028L102.234 3.715L95.203 3.715Z"/><path d="M91.406 47.520L98.438 47.520L111.375 3.715L104.344 3.715Z"/><path d="M100.547 47.520L116.719 47.520C118.844 40.176 121.033 32.896 123.188 25.583L124.523 21.223L108.352 21.223C106.115 28.479 103.995 35.851 101.813 43.161ZM116.156 25.583L110.953 43.161L108.844 43.161L114.047 25.583Z"/><path d="M118.828 47.520L144.141 47.520C146.697 38.710 149.347 29.992 151.945 21.223L144.914 21.223L138.375 43.161L136.266 43.161L142.805 21.223L135.773 21.223L129.234 43.161L127.125 43.161L133.664 21.223L126.633 21.223C124.035 29.992 121.385 38.710 118.828 47.520Z"/><path d="M146.250 47.520L162.422 47.520C166.699 32.883 171.052 18.322 175.359 3.715L168.328 3.715L156.656 43.161L154.547 43.161L161.086 21.223L154.055 21.223C151.456 29.992 148.807 38.710 146.250 47.520Z"/><path d="M181.617 13.454C181.599 11.502 180.059 9.973 178.102 9.973C176.133 9.973 174.586 11.520 174.586 13.489C174.586 15.387 176.133 16.934 178.102 16.934C180.059 16.934 181.599 15.406 181.617 13.454C181.617 13.442 181.617 13.430 181.617 13.418ZM164.531 47.520L171.563 47.520L179.367 21.223L172.336 21.223Z"/><path d="M188.016 30.012L195.047 30.012C195.878 27.046 196.744 24.116 197.648 21.223L181.477 21.223C180.573 24.116 179.705 27.046 178.875 30.012L185.414 38.731L184.078 43.161L181.969 43.161L183.305 38.731L176.273 38.731C175.387 41.641 174.519 44.570 173.672 47.520L189.844 47.520C190.691 44.570 191.558 41.641 192.445 38.731L185.906 30.012L187.172 25.583L189.281 25.583Z"/><path d="M206.297 30.012L213.328 30.012C214.159 27.046 215.026 24.116 215.930 21.223L199.758 21.223L198.422 25.583L198.458 25.583C196.292 32.897 194.079 40.165 191.953 47.520L208.125 47.520C208.972 44.570 209.840 41.641 210.727 38.731L203.695 38.731L202.359 43.161L200.250 43.161L205.490 25.583L207.563 25.583Z"/></svg>