<svg version="1.1" xmlns="http://www.w3.org/2000/svg" xmlns:xlink="http://www.w3.org/1999/xlink" xmlns:inkscape="http://www.inkscape.org/namespaces/inkscape" width="206.789" height="61.313" viewBox="0 3.715311427116397 206.7890625 61.31250107288361" stroke="none"><style>path { fill: #333; } @media (prefers-color-scheme: dark) { path { fill: #ccc; } }</style><path d="M0 47.520L7.031 47.520C10.469 35.817 13.986 24.193 17.367 12.434L19.969 3.715L12.938 3.715L10.336 12.434L4.711 12.434L3.445 16.864L9.070 16.864Z"/><path d="M18.281 47.520L25.313 47.520C27.919 38.759 30.449 29.922 33.117 21.223L23.977 21.223L29.109 3.715L22.078 3.715C19.919 11.002 17.838 18.366 15.609 25.583L9.141 47.520L16.172 47.520L22.641 25.583L24.750 25.583Z"/><path d="M44.508 13.454C44.489 11.502 42.949 9.973 40.992 9.973C39.023 9.973 37.477 11.520 37.477 13.489C37.477 15.387 39.023 16.934 40.992 16.934C42.949 16.934 44.489 15.406 44.508 13.454C44.508 13.442 44.508 13.430 44.508 13.418ZM27.422 47.520L34.453 47.520L42.258 21.223L35.227 21.223Z"/><path d="M44.578 44.145C44.578 42.176 43.031 40.629 41.063 40.629C39.164 40.629 37.617 42.176 37.617 44.145C37.617 46.114 39.164 47.661 41.133 47.661C43.102 47.661 44.648 46.114 44.648 44.145Z"/><path d="M54.844 47.520L61.875 47.520C64.481 38.759 67.012 29.922 69.680 21.223L53.508 21.223C50.839 29.922 48.310 38.760 45.703 47.520L52.734 47.520L59.203 25.583L61.313 25.583Z"/><path d="M58.781 65.028L74.953 65.028C78.918 51.954 82.725 38.721 86.625 25.583L87.961 21.223L71.789 21.223C69.121 29.922 66.591 38.760 63.984 47.520L71.016 47.520L77.484 25.583L79.594 25.583L69.258 60.668L67.148 60.668L68.414 56.309L61.383 56.309C60.544 59.244 59.677 62.150 58.781 65.028Z"/><path d="M77.063 65.028L84.094 65.028L102.234 3.715L95.203 3.715Z"/><path d="M105.750 30.012L112.781 30.012C113.612 27.046 114.479 24.116 115.383 21.223L99.211 21.223L97.875 25.583L97.912 25.583C95.745 32.897 93.532 40.165 91.406 47.520L107.578 47.520C108.425 44.570 109.293 41.641 110.180 38.731L103.148 38.731L101.813 43.161L99.703 43.161L104.943 25.583L107.016 25.583Z"/><path d="M118.828 47.520L125.859 47.520C128.466 38.759 130.996 29.922 133.664 21.223L124.523 21.223L129.656 3.715L122.625 3.715C120.466 11.002 118.385 18.366 116.156 25.583L109.688 47.520L116.719 47.520L123.188 25.583L125.297 25.583Z"/><path d="M139.711 38.731L146.742 38.731C148.474 32.893 150.151 26.999 151.945 21.223L135.773 21.223L134.438 25.583L134.474 25.583C132.307 32.897 130.095 40.165 127.969 47.520L144.141 47.520L145.406 43.161L136.266 43.161L141.505 25.583L143.578 25.583Z"/><path d="M160.594 30.012L167.625 30.012C168.456 27.046 169.322 24.116 170.227 21.223L154.055 21.223L152.719 25.583L152.755 25.583C150.589 32.897 148.376 40.165 146.250 47.520L162.422 47.520C163.269 44.570 164.137 41.641 165.023 38.731L157.992 38.731L156.656 43.161L154.547 43.161L159.787 25.583L161.859 25.583Z"/><path d="M173.672 47.520L180.703 47.520L183.305 38.731L175.444 34.379C178.912 32.905 182.422 31.471 185.906 30.012L188.508 21.223L181.477 21.223L178.875 30.012L176.433 31.028L184.500 3.715L177.469 3.715L168.417 34.364L168.398 34.372L168.412 34.379L164.531 47.520L171.563 47.520L174.456 37.725L176.273 38.731Z"/><path d="M197.156 30.012L204.188 30.012C205.018 27.046 205.885 24.116 206.789 21.223L190.617 21.223C189.714 24.116 188.846 27.046 188.016 30.012L194.555 38.731L193.219 43.161L191.109 43.161L192.445 38.731L185.414 38.731C184.527 41.641 183.659 44.570 182.813 47.520L198.984 47.520C199.831 44.570 200.699 41.641 201.586 38.731L195.047 30.012L196.313 25.583L198.422 25.583Z"/></svg>