<svg version="1.1" xmlns="http://www.w3.org/2000/svg" xmlns:xlink="http://www.w3.org/1999/xlink" xmlns:inkscape="http://www.inkscape.org/namespaces/inkscape" width="275.906" height="61.313" viewBox="0 3.715312500000003 275.90625 61.31250000000001" stroke="none"><style>path { fill: #333; } @media (prefers-color-scheme: dark) { path { fill: #ccc; } }</style><path d="M0 47.520L7.031 47.520C10.469 35.817 13.986 24.193 17.367 12.434L19.969 3.715L12.938 3.715L10.336 12.434L4.711 12.434L3.445 16.864L9.070 16.864Z"/><path d="M18.281 47.520L25.313 47.520C27.919 38.759 30.449 29.922 33.117 21.223L23.977 21.223L29.109 3.715L22.078 3.715C19.919 11.002 17.838 18.366 15.609 25.583L9.141 47.520L16.172 47.520L22.641 25.583L24.750 25.583Z"/><path d="M44.508 13.454C44.489 11.502 42.949 9.973 40.992 9.973C39.023 9.973 37.477 11.520 37.477 13.489C37.477 15.387 39.023 16.934 40.992 16.934C42.949 16.934 44.489 15.406 44.508 13.454C44.508 13.442 44.508 13.430 44.508 13.418ZM27.422 47.520L34.453 47.520L42.258 21.223L35.227 21.223Z"/><path d="M44.578 44.145C44.578 42.176 43.031 40.629 41.063 40.629C39.164 40.629 37.617 42.176 37.617 44.145C37.617 46.114 39.164 47.661 41.133 47.661C43.102 47.661 44.648 46.114 44.648 44.145Z"/><path d="M54.844 47.520L61.875 47.520C64.481 38.759 67.012 29.922 69.680 21.223L53.508 21.223C50.839 29.922 48.310 38.760 45.703 47.520L52.734 47.520L59.203 25.583L61.313 25.583Z"/><path d="M58.781 65.028L74.953 65.028C78.918 51.954 82.725 38.721 86.625 25.583L87.961 21.223L71.789 21.223C69.121 29.922 66.591 38.760 63.984 47.520L71.016 47.520L77.484 25.583L79.594 25.583L69.258 60.668L67.148 60.668L68.414 56.309L61.383 56.309C60.544 59.244 59.677 62.150 58.781 65.028Z"/><path d="M77.063 65.028L84.094 65.028L102.234 3.715L95.203 3.715Z"/><path d="M105.750 30.012L112.781 30.012C113.612 27.046 114.479 24.116 115.383 21.223L99.211 21.223C98.307 24.116 97.440 27.046 96.609 30.012L103.148 38.731L101.813 43.161L99.703 43.161L101.039 38.731L94.008 38.731C93.121 41.641 92.253 44.570 91.406 47.520L107.578 47.520C108.425 44.570 109.293 41.641 110.180 38.731L103.641 30.012L104.906 25.583L107.016 25.583Z"/><path d="M118.828 47.520L125.859 47.520C128.466 38.759 130.996 29.922 133.664 21.223L124.523 21.223L129.656 3.715L122.625 3.715C120.466 11.002 118.385 18.366 116.156 25.583L109.688 47.520L116.719 47.520L123.188 25.583L125.297 25.583Z"/><path d="M127.969 47.520L144.141 47.520C146.266 40.176 148.455 32.896 150.609 25.583L151.945 21.223L135.773 21.223L134.438 25.583L143.578 25.583L138.375 43.161L136.266 43.161L140.203 30.012L133.172 30.012C131.436 35.847 129.659 41.640 127.969 47.520Z"/><path d="M146.250 47.520L162.422 47.520C166.699 32.883 171.052 18.322 175.359 3.715L168.328 3.715L156.656 43.161L154.547 43.161L161.086 21.223L154.055 21.223C151.456 29.992 148.807 38.710 146.250 47.520Z"/><path d="M176.273 38.731L183.305 38.731C185.037 32.893 186.714 26.999 188.508 21.223L172.336 21.223L171 25.583L171.037 25.583C168.870 32.897 166.657 40.165 164.531 47.520L180.703 47.520L181.969 43.161L172.828 43.161L178.068 25.583L180.141 25.583Z"/><path d="M197.156 30.012L204.188 30.012C205.018 27.046 205.885 24.116 206.789 21.223L190.617 21.223C187.949 29.922 185.419 38.760 182.813 47.520L189.844 47.520L196.313 25.583L198.422 25.583Z"/><path d="M204.961 34.372L221.133 34.372L222.469 30.012L206.297 30.012Z"/><path d="M219.375 47.520L235.547 47.520C237.672 40.176 239.861 32.896 242.016 25.583L243.352 21.223L227.180 21.223L225.844 25.583L234.984 25.583L229.781 43.161L227.672 43.161L231.609 30.012L224.578 30.012C222.842 35.847 221.065 41.640 219.375 47.520Z"/><path d="M252 30.012L259.031 30.012C259.862 27.046 260.729 24.116 261.633 21.223L245.461 21.223C244.557 24.116 243.690 27.046 242.859 30.012L249.398 38.731L248.063 43.161L245.953 43.161L247.289 38.731L240.258 38.731C239.371 41.641 238.503 44.570 237.656 47.520L253.828 47.520C254.675 44.570 255.543 41.641 256.430 38.731L249.891 30.012L251.156 25.583L253.266 25.583Z"/><path d="M255.938 47.520L262.969 47.520C266.406 35.817 269.923 24.193 273.305 12.434L275.906 3.715L268.875 3.715L266.273 12.434L260.648 12.434L259.383 16.864L265.008 16.864Z"/></svg>