<svg version="1.1" xmlns="http://www.w3.org/2000/svg" xmlns:xlink="http://www.w3.org/1999/xlink" xmlns:inkscape="http://www.inkscape.org/namespaces/inkscape" width="194.133" height="61.313" viewBox="0 3.715312500000003 194.1328125 61.31250000000001" stroke="none"><style>path { fill: #333; } @media (prefers-color-scheme: dark) { path { fill: #ccc; } }</style><path d="M0 47.520L7.031 47.520C10.469 35.817 13.986 24.193 17.367 12.434L19.969 3.715L12.938 3.715L10.336 12.434L4.711 12.434L3.445 16.864L9.070 16.864Z"/><path d="M18.281 47.520L25.313 47.520C27.919 38.759 30.449 29.922 33.117 21.223L23.977 21.223L29.109 3.715L22.078 3.715C19.919 11.002 17.838 18.366 15.609 25.583L9.141 47.520L16.172 47.520L22.641 25.583L24.750 25.583Z"/><path d="M44.508 13.454C44.489 11.502 42.949 9.973 40.992 9.973C39.023 9.973 37.477 11.520 37.477 13.489C37.477 15.387 39.023 16.934 40.992 16.934C42.949 16.934 44.489 15.406 44.508 13.454C44.508 13.442 44.508 13.430 44.508 13.418ZM27.422 47.520L34.453 47.520L42.258 21.223L35.227 21.223Z"/><path d="M44.578 44.145C44.578 42.176 43.031 40.629 41.063 40.629C39.164 40.629 37.617 42.176 37.617 44.145C37.617 46.114 39.164 47.661 41.133 47.661C43.102 47.661 44.648 46.114 44.648 44.145Z"/><path d="M54.844 47.520L61.875 47.520C64.481 38.759 67.012 29.922 69.680 21.223L53.508 21.223C50.839 29.922 48.310 38.760 45.703 47.520L52.734 47.520L59.203 25.583L61.313 25.583Z"/><path d="M58.781 65.028L74.953 65.028C78.918 51.954 82.725 38.721 86.625 25.583L87.961 21.223L71.789 21.223C69.121 29.922 66.591 38.760 63.984 47.520L71.016 47.520L77.484 25.583L79.594 25.583L69.258 60.668L67.148 60.668L68.414 56.309L61.383 56.309C60.544 59.244 59.677 62.150 58.781 65.028Z"/><path d="M77.063 65.028L84.094 65.028L102.234 3.715L95.203 3.715Z"/><path d="M91.406 47.520L98.438 47.520L104.906 25.583L110.531 25.583L111.867 21.223L106.242 21.223L120.516 3.715L113.484 3.715L99.211 21.223C96.543 29.922 94.013 38.760 91.406 47.520Z"/><path d="M123.258 13.454C123.239 11.502 121.699 9.973 119.742 9.973C117.773 9.973 116.227 11.520 116.227 13.489C116.227 15.387 117.773 16.934 119.742 16.934C121.699 16.934 123.239 15.406 123.258 13.454C123.258 13.442 123.258 13.430 123.258 13.418ZM106.172 47.520L113.203 47.520L121.008 21.223L113.977 21.223Z"/><path d="M115.313 47.520L131.484 47.520C134.041 38.710 136.691 29.992 139.289 21.223L132.258 21.223L125.719 43.161L123.609 43.161L135.281 3.715L128.250 3.715C123.942 18.321 119.590 32.883 115.313 47.520Z"/><path d="M145.336 38.731L152.367 38.731C154.099 32.893 155.776 26.999 157.570 21.223L141.398 21.223L140.063 25.583L140.099 25.583C137.932 32.897 135.720 40.165 133.594 47.520L149.766 47.520L151.031 43.161L141.891 43.161L147.130 25.583L149.203 25.583Z"/><path d="M166.219 30.012L173.250 30.012C174.081 27.046 174.947 24.116 175.852 21.223L159.680 21.223C157.011 29.922 154.482 38.760 151.875 47.520L158.906 47.520L165.375 25.583L167.484 25.583Z"/><path d="M184.500 30.012L191.531 30.012C192.362 27.046 193.229 24.116 194.133 21.223L177.961 21.223C177.057 24.116 176.190 27.046 175.359 30.012L181.898 38.731L180.563 43.161L178.453 43.161L179.789 38.731L172.758 38.731C171.871 41.641 171.003 44.570 170.156 47.520L186.328 47.520C187.175 44.570 188.043 41.641 188.930 38.731L182.391 30.012L183.656 25.583L185.766 25.583Z"/></svg>