<svg version="1.1" xmlns="http://www.w3.org/2000/svg" xmlns:xlink="http://www.w3.org/1999/xlink" xmlns:inkscape="http://www.inkscape.org/namespaces/inkscape" width="230.695" height="61.313" viewBox="0 3.715311427116397 230.6953125 61.31250107288361" stroke="none"><style>path { fill: #333; } @media (prefers-color-scheme: dark) { path { fill: #ccc; } }</style><path d="M0 47.520L7.031 47.520C10.469 35.817 13.986 24.193 17.367 12.434L19.969 3.715L12.938 3.715L10.336 12.434L4.711 12.434L3.445 16.864L9.070 16.864Z"/><path d="M18.281 47.520L25.313 47.520C27.919 38.759 30.449 29.922 33.117 21.223L23.977 21.223L29.109 3.715L22.078 3.715C19.919 11.002 17.838 18.366 15.609 25.583L9.141 47.520L16.172 47.520L22.641 25.583L24.750 25.583Z"/><path d="M44.508 13.454C44.489 11.502 42.949 9.973 40.992 9.973C39.023 9.973 37.477 11.520 37.477 13.489C37.477 15.387 39.023 16.934 40.992 16.934C42.949 16.934 44.489 15.406 44.508 13.454C44.508 13.442 44.508 13.430 44.508 13.418ZM27.422 47.520L34.453 47.520L42.258 21.223L35.227 21.223Z"/><path d="M44.578 44.145C44.578 42.176 43.031 40.629 41.063 40.629C39.164 40.629 37.617 42.176 37.617 44.145C37.617 46.114 39.164 47.661 41.133 47.661C43.102 47.661 44.648 46.114 44.648 44.145Z"/><path d="M54.844 47.520L61.875 47.520C64.481 38.759 67.012 29.922 69.680 21.223L53.508 21.223C50.839 29.922 48.310 38.760 45.703 47.520L52.734 47.520L59.203 25.583L61.313 25.583Z"/><path d="M58.781 65.028L74.953 65.028C78.918 51.954 82.725 38.721 86.625 25.583L87.961 21.223L71.789 21.223C69.121 29.922 66.591 38.760 63.984 47.520L71.016 47.520L77.484 25.583L79.594 25.583L69.258 60.668L67.148 60.668L68.414 56.309L61.383 56.309C60.544 59.244 59.677 62.150 58.781 65.028Z"/><path d="M77.063 65.028L84.094 65.028L102.234 3.715L95.203 3.715Z"/><path d="M91.406 47.520L107.578 47.520C110.135 38.710 112.785 29.992 115.383 21.223L108.352 21.223L101.813 43.161L99.703 43.161L111.375 3.715L104.344 3.715C100.036 18.321 95.684 32.883 91.406 47.520Z"/><path d="M109.688 47.520L116.719 47.520L129.656 3.715L122.625 3.715Z"/><path d="M118.828 47.520L135 47.520C137.125 40.176 139.314 32.896 141.469 25.583L142.805 21.223L126.633 21.223C124.396 28.479 122.276 35.851 120.094 43.161ZM134.438 25.583L129.234 43.161L127.125 43.161L132.328 25.583Z"/><path d="M151.453 30.012L158.484 30.012C159.315 27.046 160.182 24.116 161.086 21.223L144.914 21.223L143.578 25.583L143.615 25.583C141.448 32.897 139.236 40.165 137.109 47.520L153.281 47.520C154.128 44.570 154.996 41.641 155.883 38.731L148.852 38.731L147.516 43.161L145.406 43.161L150.646 25.583L152.719 25.583Z"/><path d="M164.531 47.520L171.563 47.520L174.164 38.731L166.303 34.379C169.772 32.905 173.281 31.471 176.766 30.012L179.367 21.223L172.336 21.223L169.734 30.012L167.293 31.028L175.359 3.715L168.328 3.715L159.276 34.364L159.258 34.372L159.272 34.379L155.391 47.520L162.422 47.520L165.315 37.725L167.133 38.731Z"/><path d="M177.539 34.372L193.711 34.372L195.047 30.012L178.875 30.012Z"/><path d="M191.953 47.520L198.984 47.520L205.453 25.583L211.078 25.583L212.414 21.223L206.789 21.223L221.063 3.715L214.031 3.715L199.758 21.223C197.089 29.922 194.560 38.760 191.953 47.520Z"/><path d="M221.063 30.012L228.094 30.012C228.924 27.046 229.791 24.116 230.695 21.223L214.523 21.223C213.620 24.116 212.752 27.046 211.922 30.012L218.461 38.731L217.125 43.161L215.016 43.161L216.352 38.731L209.320 38.731C208.434 41.641 207.565 44.570 206.719 47.520L222.891 47.520C223.738 44.570 224.605 41.641 225.492 38.731L218.953 30.012L220.219 25.583L222.328 25.583Z"/></svg>