<svg version="1.1" xmlns="http://www.w3.org/2000/svg" xmlns:xlink="http://www.w3.org/1999/xlink" xmlns:inkscape="http://www.inkscape.org/namespaces/inkscape" width="199.266" height="61.313" viewBox="0 3.715312500000003 199.265625 61.31250000000001" stroke="none"><style>path { fill: #333; } @media (prefers-color-scheme: dark) { path { fill: #ccc; } }</style><path d="M0 47.520L7.031 47.520C10.469 35.817 13.986 24.193 17.367 12.434L19.969 3.715L12.938 3.715L10.336 12.434L4.711 12.434L3.445 16.864L9.070 16.864Z"/><path d="M18.281 47.520L25.313 47.520C27.919 38.759 30.449 29.922 33.117 21.223L23.977 21.223L29.109 3.715L22.078 3.715C19.919 11.002 17.838 18.366 15.609 25.583L9.141 47.520L16.172 47.520L22.641 25.583L24.750 25.583Z"/><path d="M44.508 13.454C44.489 11.502 42.949 9.973 40.992 9.973C39.023 9.973 37.477 11.520 37.477 13.489C37.477 15.387 39.023 16.934 40.992 16.934C42.949 16.934 44.489 15.406 44.508 13.454C44.508 13.442 44.508 13.430 44.508 13.418ZM27.422 47.520L34.453 47.520L42.258 21.223L35.227 21.223Z"/><path d="M44.578 44.145C44.578 42.176 43.031 40.629 41.063 40.629C39.164 40.629 37.617 42.176 37.617 44.145C37.617 46.114 39.164 47.661 41.133 47.661C43.102 47.661 44.648 46.114 44.648 44.145Z"/><path d="M54.844 47.520L61.875 47.520C64.481 38.759 67.012 29.922 69.680 21.223L53.508 21.223C50.839 29.922 48.310 38.760 45.703 47.520L52.734 47.520L59.203 25.583L61.313 25.583Z"/><path d="M58.781 65.028L74.953 65.028C78.918 51.954 82.725 38.721 86.625 25.583L87.961 21.223L71.789 21.223C69.121 29.922 66.591 38.760 63.984 47.520L71.016 47.520L77.484 25.583L79.594 25.583L69.258 60.668L67.148 60.668L68.414 56.309L61.383 56.309C60.544 59.244 59.677 62.150 58.781 65.028Z"/><path d="M77.063 65.028L84.094 65.028L102.234 3.715L95.203 3.715Z"/><path d="M91.406 47.520L98.438 47.520L111.375 3.715L104.344 3.715Z"/><path d="M112.289 38.731L119.320 38.731C121.053 32.893 122.729 26.999 124.523 21.223L108.352 21.223L107.016 25.583L107.052 25.583C104.885 32.897 102.673 40.165 100.547 47.520L116.719 47.520L117.984 43.161L108.844 43.161L114.083 25.583L116.156 25.583Z"/><path d="M118.828 47.520L135 47.520C137.557 38.710 140.207 29.992 142.805 21.223L135.773 21.223L129.234 43.161L127.125 43.161L138.797 3.715L131.766 3.715C127.458 18.321 123.106 32.883 118.828 47.520Z"/><path d="M142.734 47.520L149.766 47.520C154.074 32.914 158.426 18.352 162.703 3.715L150.047 3.715L148.781 8.075L154.406 8.075Z"/><path d="M151.875 47.520L168.047 47.520L169.313 43.161L160.172 43.161L161.508 38.731L178.383 12.434C179.278 9.556 180.146 6.650 180.984 3.715L164.813 3.715L163.547 8.075L172.688 8.075L171.352 12.434L154.477 38.731C153.590 41.641 152.722 44.570 151.875 47.520Z"/><path d="M199.266 3.715L183.094 3.715L177.961 21.223L181.230 25.618L175.359 30.012L171.452 43.161L171.422 43.161L170.156 47.520L186.328 47.520L191.531 30.012L188.262 25.618L194.133 21.223L197.988 8.075L198 8.075ZM190.956 8.075L187.102 21.223L185.747 22.237L184.992 21.223L188.847 8.075ZM180.592 43.161L178.483 43.161L182.391 30.012L183.745 28.998L184.500 30.012Z"/></svg>