<svg version="1.1" xmlns="http://www.w3.org/2000/svg" xmlns:xlink="http://www.w3.org/1999/xlink" xmlns:inkscape="http://www.inkscape.org/namespaces/inkscape" width="258.117" height="61.313" viewBox="0 3.715312500000003 258.1171875 61.31250000000001" stroke="none"><style>path { fill: #333; } @media (prefers-color-scheme: dark) { path { fill: #ccc; } }</style><path d="M0 47.520L7.031 47.520C10.469 35.817 13.986 24.193 17.367 12.434L19.969 3.715L12.938 3.715L10.336 12.434L4.711 12.434L3.445 16.864L9.070 16.864Z"/><path d="M18.281 47.520L25.313 47.520C27.919 38.759 30.449 29.922 33.117 21.223L23.977 21.223L29.109 3.715L22.078 3.715C19.919 11.002 17.838 18.366 15.609 25.583L9.141 47.520L16.172 47.520L22.641 25.583L24.750 25.583Z"/><path d="M44.508 13.454C44.489 11.502 42.949 9.973 40.992 9.973C39.023 9.973 37.477 11.520 37.477 13.489C37.477 15.387 39.023 16.934 40.992 16.934C42.949 16.934 44.489 15.406 44.508 13.454C44.508 13.442 44.508 13.430 44.508 13.418ZM27.422 47.520L34.453 47.520L42.258 21.223L35.227 21.223Z"/><path d="M44.578 44.145C44.578 42.176 43.031 40.629 41.063 40.629C39.164 40.629 37.617 42.176 37.617 44.145C37.617 46.114 39.164 47.661 41.133 47.661C43.102 47.661 44.648 46.114 44.648 44.145Z"/><path d="M54.844 47.520L61.875 47.520C64.481 38.759 67.012 29.922 69.680 21.223L53.508 21.223C50.839 29.922 48.310 38.760 45.703 47.520L52.734 47.520L59.203 25.583L61.313 25.583Z"/><path d="M58.781 65.028L74.953 65.028C78.918 51.954 82.725 38.721 86.625 25.583L87.961 21.223L71.789 21.223C69.121 29.922 66.591 38.760 63.984 47.520L71.016 47.520L77.484 25.583L79.594 25.583L69.258 60.668L67.148 60.668L68.414 56.309L61.383 56.309C60.544 59.244 59.677 62.150 58.781 65.028Z"/><path d="M77.063 65.028L84.094 65.028L102.234 3.715L95.203 3.715Z"/><path d="M91.406 47.520L107.578 47.520C109.703 40.176 111.892 32.896 114.047 25.583L115.383 21.223L99.211 21.223L97.875 25.583L107.016 25.583L101.813 43.161L99.703 43.161L103.641 30.012L96.609 30.012C94.874 35.847 93.096 41.640 91.406 47.520Z"/><path d="M109.688 47.520L125.859 47.520C130.136 32.883 134.489 18.322 138.797 3.715L131.766 3.715L120.094 43.161L117.984 43.161L124.523 21.223L117.492 21.223C114.894 29.992 112.245 38.710 109.688 47.520Z"/><path d="M150.680 13.454C150.661 11.502 149.121 9.973 147.164 9.973C145.195 9.973 143.648 11.520 143.648 13.489C143.648 15.387 145.195 16.934 147.164 16.934C149.121 16.934 150.661 15.406 150.680 13.454C150.680 13.442 150.680 13.430 150.680 13.418ZM119.250 65.028L135.422 65.028C139.387 51.954 143.193 38.721 147.094 25.583L148.430 21.223L135.773 21.223L134.438 25.583L140.063 25.583L129.727 60.668L127.617 60.668L128.883 56.309L121.852 56.309C121.013 59.244 120.145 62.150 119.250 65.028Z"/><path d="M142.734 47.520L158.906 47.520C161.031 40.176 163.220 32.896 165.375 25.583L166.711 21.223L150.539 21.223L149.203 25.583L158.344 25.583L153.141 43.161L151.031 43.161L154.969 30.012L147.938 30.012C146.202 35.847 144.424 41.640 142.734 47.520Z"/><path d="M175.359 30.012L182.391 30.012C183.221 27.046 184.088 24.116 184.992 21.223L168.820 21.223L167.484 25.583L167.521 25.583C165.354 32.897 163.142 40.165 161.016 47.520L177.188 47.520C178.034 44.570 178.902 41.641 179.789 38.731L172.758 38.731L171.422 43.161L169.313 43.161L174.552 25.583L176.625 25.583Z"/><path d="M191.039 38.731L198.070 38.731C199.803 32.893 201.479 26.999 203.273 21.223L187.102 21.223L185.766 25.583L185.802 25.583C183.635 32.897 181.423 40.165 179.297 47.520L195.469 47.520L196.734 43.161L187.594 43.161L192.833 25.583L194.906 25.583Z"/><path d="M206.719 47.520L213.750 47.520C216.356 38.759 218.887 29.922 221.555 21.223L205.383 21.223C202.714 29.922 200.185 38.760 197.578 47.520L204.609 47.520L211.078 25.583L213.188 25.583Z"/><path d="M230.203 30.012L237.234 30.012C238.065 27.046 238.932 24.116 239.836 21.223L223.664 21.223L222.328 25.583L222.365 25.583C220.198 32.897 217.986 40.165 215.859 47.520L232.031 47.520C232.878 44.570 233.746 41.641 234.633 38.731L227.602 38.731L226.266 43.161L224.156 43.161L229.396 25.583L231.469 25.583Z"/><path d="M238.078 65.028L245.109 65.028C247.264 57.737 249.459 50.487 251.578 43.161L258.117 21.223L251.086 21.223L244.547 43.161L242.438 43.161L248.977 21.223L241.945 21.223C239.347 29.992 236.698 38.710 234.141 47.520L243.281 47.520Z"/></svg>