<svg version="1.1" xmlns="http://www.w3.org/2000/svg" xmlns:xlink="http://www.w3.org/1999/xlink" xmlns:inkscape="http://www.inkscape.org/namespaces/inkscape" width="316.477" height="61.313" viewBox="0 3.715312500000003 316.4765625 61.31250000000001" stroke="none"><style>path { fill: #333; } @media (prefers-color-scheme: dark) { path { fill: #ccc; } }</style><path d="M0 47.520L7.031 47.520C10.469 35.817 13.986 24.193 17.367 12.434L19.969 3.715L12.938 3.715L10.336 12.434L4.711 12.434L3.445 16.864L9.070 16.864Z"/><path d="M18.281 47.520L25.313 47.520C27.919 38.759 30.449 29.922 33.117 21.223L23.977 21.223L29.109 3.715L22.078 3.715C19.919 11.002 17.838 18.366 15.609 25.583L9.141 47.520L16.172 47.520L22.641 25.583L24.750 25.583Z"/><path d="M44.508 13.454C44.489 11.502 42.949 9.973 40.992 9.973C39.023 9.973 37.477 11.520 37.477 13.489C37.477 15.387 39.023 16.934 40.992 16.934C42.949 16.934 44.489 15.406 44.508 13.454C44.508 13.442 44.508 13.430 44.508 13.418ZM27.422 47.520L34.453 47.520L42.258 21.223L35.227 21.223Z"/><path d="M44.578 44.145C44.578 42.176 43.031 40.629 41.063 40.629C39.164 40.629 37.617 42.176 37.617 44.145C37.617 46.114 39.164 47.661 41.133 47.661C43.102 47.661 44.648 46.114 44.648 44.145Z"/><path d="M54.844 47.520L61.875 47.520C64.481 38.759 67.012 29.922 69.680 21.223L53.508 21.223C50.839 29.922 48.310 38.760 45.703 47.520L52.734 47.520L59.203 25.583L61.313 25.583Z"/><path d="M58.781 65.028L74.953 65.028C78.918 51.954 82.725 38.721 86.625 25.583L87.961 21.223L71.789 21.223C69.121 29.922 66.591 38.760 63.984 47.520L71.016 47.520L77.484 25.583L79.594 25.583L69.258 60.668L67.148 60.668L68.414 56.309L61.383 56.309C60.544 59.244 59.677 62.150 58.781 65.028Z"/><path d="M77.063 65.028L84.094 65.028L102.234 3.715L95.203 3.715Z"/><path d="M105.750 30.012L112.781 30.012C113.612 27.046 114.479 24.116 115.383 21.223L99.211 21.223L97.875 25.583L97.912 25.583C95.745 32.897 93.532 40.165 91.406 47.520L107.578 47.520C108.425 44.570 109.293 41.641 110.180 38.731L103.148 38.731L101.813 43.161L99.703 43.161L104.943 25.583L107.016 25.583Z"/><path d="M109.688 47.520L125.859 47.520C127.985 40.176 130.173 32.896 132.328 25.583L133.664 21.223L117.492 21.223C115.256 28.479 113.135 35.851 110.953 43.161ZM125.297 25.583L120.094 43.161L117.984 43.161L123.188 25.583Z"/><path d="M127.969 47.520L135 47.520L147.938 3.715L140.906 3.715Z"/><path d="M137.109 47.520L153.281 47.520C155.406 40.176 157.595 32.896 159.750 25.583L161.086 21.223L144.914 21.223C142.678 28.479 140.557 35.851 138.375 43.161ZM152.719 25.583L147.516 43.161L145.406 43.161L150.609 25.583Z"/><path d="M169.734 30.012L176.766 30.012C177.596 27.046 178.463 24.116 179.367 21.223L163.195 21.223C160.527 29.922 157.997 38.760 155.391 47.520L162.422 47.520L168.891 25.583L171 25.583Z"/><path d="M177.539 34.372L193.711 34.372L195.047 30.012L178.875 30.012Z"/><path d="M201.094 47.520L208.125 47.520C210.731 38.759 213.262 29.922 215.930 21.223L199.758 21.223C195.354 35.757 191.096 50.436 186.750 65.028L193.781 65.028L205.453 25.583L207.563 25.583Z"/><path d="M210.234 47.520L226.406 47.520C228.531 40.176 230.720 32.896 232.875 25.583L234.211 21.223L218.039 21.223L216.703 25.583L225.844 25.583L220.641 43.161L218.531 43.161L222.469 30.012L215.438 30.012C213.702 35.847 211.924 41.640 210.234 47.520Z"/><path d="M228.516 47.520L235.547 47.520L248.484 3.715L241.453 3.715Z"/><path d="M249.398 38.731L256.430 38.731C258.162 32.893 259.839 26.999 261.633 21.223L245.461 21.223L244.125 25.583L244.162 25.583C241.995 32.897 239.782 40.165 237.656 47.520L253.828 47.520L255.094 43.161L245.953 43.161L251.193 25.583L253.266 25.583Z"/><path d="M255.938 47.520L262.969 47.520C266.406 35.817 269.923 24.193 273.305 12.434L275.906 3.715L268.875 3.715L266.273 12.434L260.648 12.434L259.383 16.864L265.008 16.864Z"/><path d="M265.078 47.520L272.109 47.520C275.547 35.817 279.064 24.193 282.445 12.434L285.047 3.715L278.016 3.715L275.414 12.434L269.789 12.434L268.523 16.864L274.148 16.864Z"/><path d="M285.961 38.731L292.992 38.731C294.724 32.893 296.401 26.999 298.195 21.223L282.023 21.223L280.688 25.583L280.724 25.583C278.557 32.897 276.345 40.165 274.219 47.520L290.391 47.520L291.656 43.161L282.516 43.161L287.755 25.583L289.828 25.583Z"/><path d="M306.844 30.012L313.875 30.012C314.706 27.046 315.572 24.116 316.477 21.223L300.305 21.223C299.401 24.116 298.533 27.046 297.703 30.012L304.242 38.731L302.906 43.161L300.797 43.161L302.133 38.731L295.102 38.731C294.215 41.641 293.347 44.570 292.500 47.520L308.672 47.520C309.519 44.570 310.387 41.641 311.273 38.731L304.734 30.012L306 25.583L308.109 25.583Z"/></svg>