<svg version="1.1" xmlns="http://www.w3.org/2000/svg" xmlns:xlink="http://www.w3.org/1999/xlink" xmlns:inkscape="http://www.inkscape.org/namespaces/inkscape" width="245.602" height="61.313" viewBox="0 3.715312500000003 245.6015635728836 61.31250000000001" stroke="none"><style>path { fill: #333; } @media (prefers-color-scheme: dark) { path { fill: #ccc; } }</style><path d="M0 47.520L7.031 47.520C10.469 35.817 13.986 24.193 17.367 12.434L19.969 3.715L12.938 3.715L10.336 12.434L4.711 12.434L3.445 16.864L9.070 16.864Z"/><path d="M18.281 47.520L25.313 47.520C27.919 38.759 30.449 29.922 33.117 21.223L23.977 21.223L29.109 3.715L22.078 3.715C19.919 11.002 17.838 18.366 15.609 25.583L9.141 47.520L16.172 47.520L22.641 25.583L24.750 25.583Z"/><path d="M44.508 13.454C44.489 11.502 42.949 9.973 40.992 9.973C39.023 9.973 37.477 11.520 37.477 13.489C37.477 15.387 39.023 16.934 40.992 16.934C42.949 16.934 44.489 15.406 44.508 13.454C44.508 13.442 44.508 13.430 44.508 13.418ZM27.422 47.520L34.453 47.520L42.258 21.223L35.227 21.223Z"/><path d="M44.578 44.145C44.578 42.176 43.031 40.629 41.063 40.629C39.164 40.629 37.617 42.176 37.617 44.145C37.617 46.114 39.164 47.661 41.133 47.661C43.102 47.661 44.648 46.114 44.648 44.145Z"/><path d="M54.844 47.520L61.875 47.520C64.481 38.759 67.012 29.922 69.680 21.223L53.508 21.223C50.839 29.922 48.310 38.760 45.703 47.520L52.734 47.520L59.203 25.583L61.313 25.583Z"/><path d="M58.781 65.028L74.953 65.028C78.918 51.954 82.725 38.721 86.625 25.583L87.961 21.223L71.789 21.223C69.121 29.922 66.591 38.760 63.984 47.520L71.016 47.520L77.484 25.583L79.594 25.583L69.258 60.668L67.148 60.668L68.414 56.309L61.383 56.309C60.544 59.244 59.677 62.150 58.781 65.028Z"/><path d="M77.063 65.028L84.094 65.028L102.234 3.715L95.203 3.715Z"/><path d="M91.406 47.520L107.578 47.520C109.703 40.176 111.892 32.896 114.047 25.583L115.383 21.223L99.211 21.223L97.875 25.583L107.016 25.583L101.813 43.161L99.703 43.161L103.641 30.012L96.609 30.012C94.874 35.847 93.096 41.640 91.406 47.520Z"/><path d="M109.688 47.520L125.859 47.520C130.136 32.883 134.489 18.322 138.797 3.715L131.766 3.715L120.094 43.161L117.984 43.161L124.523 21.223L117.492 21.223C114.894 29.992 112.245 38.710 109.688 47.520Z"/><path d="M127.969 47.520L144.141 47.520C146.266 40.176 148.455 32.896 150.609 25.583L151.945 21.223L135.773 21.223L134.438 25.583L143.578 25.583L138.375 43.161L136.266 43.161L140.203 30.012L133.172 30.012C131.436 35.847 129.659 41.640 127.969 47.520Z"/><path d="M155.391 47.520L162.422 47.520C165.028 38.759 167.559 29.922 170.227 21.223L154.055 21.223C149.651 35.757 145.392 50.436 141.047 65.028L148.078 65.028L159.750 25.583L161.859 25.583Z"/><path d="M164.531 47.520L171.563 47.520C175.000 35.817 178.517 24.193 181.898 12.434L184.500 3.715L177.469 3.715L174.867 12.434L169.242 12.434L167.977 16.864L173.602 16.864Z"/><path d="M177.539 34.372L193.711 34.372L195.047 30.012L178.875 30.012Z"/><path d="M191.953 47.520L208.125 47.520C212.402 32.883 216.755 18.322 221.063 3.715L214.031 3.715L202.359 43.161L200.250 43.161L206.789 21.223L199.758 21.223C197.160 29.992 194.510 38.710 191.953 47.520Z"/><path d="M219.375 47.520L226.406 47.520C229.013 38.759 231.543 29.922 234.211 21.223L218.039 21.223C213.635 35.757 209.377 50.436 205.031 65.028L212.063 65.028L223.734 25.583L225.844 25.583Z"/><path d="M245.601 13.454C245.583 11.502 244.043 9.973 242.086 9.973C240.117 9.973 238.570 11.520 238.570 13.489C238.570 15.387 240.117 16.934 242.086 16.934C244.043 16.934 245.583 15.406 245.601 13.454C245.601 13.442 245.602 13.430 245.602 13.418ZM228.516 47.520L235.547 47.520L243.352 21.223L236.320 21.223Z"/></svg>