<svg version="1.1" xmlns="http://www.w3.org/2000/svg" xmlns:xlink="http://www.w3.org/1999/xlink" xmlns:inkscape="http://www.inkscape.org/namespaces/inkscape" width="298.195" height="61.313" viewBox="0 3.715312500000003 298.1953125 61.31250000000001" stroke="none"><style>path { fill: #333; } @media (prefers-color-scheme: dark) { path { fill: #ccc; } }</style><path d="M0 47.520L7.031 47.520C10.469 35.817 13.986 24.193 17.367 12.434L19.969 3.715L12.938 3.715L10.336 12.434L4.711 12.434L3.445 16.864L9.070 16.864Z"/><path d="M18.281 47.520L25.313 47.520C27.919 38.759 30.449 29.922 33.117 21.223L23.977 21.223L29.109 3.715L22.078 3.715C19.919 11.002 17.838 18.366 15.609 25.583L9.141 47.520L16.172 47.520L22.641 25.583L24.750 25.583Z"/><path d="M44.508 13.454C44.489 11.502 42.949 9.973 40.992 9.973C39.023 9.973 37.477 11.520 37.477 13.489C37.477 15.387 39.023 16.934 40.992 16.934C42.949 16.934 44.489 15.406 44.508 13.454C44.508 13.442 44.508 13.430 44.508 13.418ZM27.422 47.520L34.453 47.520L42.258 21.223L35.227 21.223Z"/><path d="M44.578 44.145C44.578 42.176 43.031 40.629 41.063 40.629C39.164 40.629 37.617 42.176 37.617 44.145C37.617 46.114 39.164 47.661 41.133 47.661C43.102 47.661 44.648 46.114 44.648 44.145Z"/><path d="M54.844 47.520L61.875 47.520C64.481 38.759 67.012 29.922 69.680 21.223L53.508 21.223C50.839 29.922 48.310 38.760 45.703 47.520L52.734 47.520L59.203 25.583L61.313 25.583Z"/><path d="M58.781 65.028L74.953 65.028C78.918 51.954 82.725 38.721 86.625 25.583L87.961 21.223L71.789 21.223C69.121 29.922 66.591 38.760 63.984 47.520L71.016 47.520L77.484 25.583L79.594 25.583L69.258 60.668L67.148 60.668L68.414 56.309L61.383 56.309C60.544 59.244 59.677 62.150 58.781 65.028Z"/><path d="M77.063 65.028L84.094 65.028L102.234 3.715L95.203 3.715Z"/><path d="M103.148 38.731L100.446 40.754L106.242 21.223L99.211 21.223L91.406 47.520L98.438 47.520L110.180 38.731L115.383 21.223L108.352 21.223Z"/><path d="M121.430 38.731L128.461 38.731C130.193 32.893 131.870 26.999 133.664 21.223L117.492 21.223L116.156 25.583L116.193 25.583C114.026 32.897 111.814 40.165 109.688 47.520L125.859 47.520L127.125 43.161L117.984 43.161L123.224 25.583L125.297 25.583Z"/><path d="M142.313 30.012L149.344 30.012C150.174 27.046 151.041 24.116 151.945 21.223L135.773 21.223L134.438 25.583L134.474 25.583C132.307 32.897 130.095 40.165 127.969 47.520L144.141 47.520C144.988 44.570 145.855 41.641 146.742 38.731L139.711 38.731L138.375 43.161L136.266 43.161L141.505 25.583L143.578 25.583Z"/><path d="M146.250 47.520L153.281 47.520C156.719 35.817 160.236 24.193 163.617 12.434L166.219 3.715L159.188 3.715L156.586 12.434L150.961 12.434L149.695 16.864L155.320 16.864Z"/><path d="M155.391 47.520L171.563 47.520C173.688 40.176 175.876 32.896 178.031 25.583L179.367 21.223L163.195 21.223C160.959 28.479 158.838 35.851 156.656 43.161ZM171 25.583L165.797 43.161L163.688 43.161L168.891 25.583Z"/><path d="M188.016 30.012L195.047 30.012C195.878 27.046 196.744 24.116 197.648 21.223L181.477 21.223C178.808 29.922 176.279 38.760 173.672 47.520L180.703 47.520L187.172 25.583L189.281 25.583Z"/><path d="M195.820 34.372L211.992 34.372L213.328 30.012L197.156 30.012Z"/><path d="M219.375 47.520L226.406 47.520C229.013 38.759 231.543 29.922 234.211 21.223L218.039 21.223C213.635 35.757 209.377 50.436 205.031 65.028L212.063 65.028L223.734 25.583L225.844 25.583Z"/><path d="M228.516 47.520L244.688 47.520C246.813 40.176 249.001 32.896 251.156 25.583L252.492 21.223L236.320 21.223C234.084 28.479 231.963 35.851 229.781 43.161ZM244.125 25.583L238.922 43.161L236.813 43.161L242.016 25.583Z"/><path d="M246.797 47.520L262.969 47.520C265.094 40.176 267.283 32.896 269.438 25.583L270.773 21.223L254.602 21.223C252.365 28.479 250.245 35.851 248.063 43.161ZM262.406 25.583L257.203 43.161L255.094 43.161L260.297 25.583Z"/><path d="M265.078 47.520L272.109 47.520L285.047 3.715L278.016 3.715Z"/><path d="M288.563 30.012L295.594 30.012C296.424 27.046 297.291 24.116 298.195 21.223L282.023 21.223C281.120 24.116 280.252 27.046 279.422 30.012L285.961 38.731L284.625 43.161L282.516 43.161L283.852 38.731L276.820 38.731C275.934 41.641 275.065 44.570 274.219 47.520L290.391 47.520C291.238 44.570 292.105 41.641 292.992 38.731L286.453 30.012L287.719 25.583L289.828 25.583Z"/></svg>