<svg version="1.1" xmlns="http://www.w3.org/2000/svg" xmlns:xlink="http://www.w3.org/1999/xlink" xmlns:inkscape="http://www.inkscape.org/namespaces/inkscape" width="254.109" height="61.313" viewBox="0 3.715312500000003 254.109375 61.31250000000001" stroke="none"><style>path { fill: #333; } @media (prefers-color-scheme: dark) { path { fill: #ccc; } }</style><path d="M0 47.520L7.031 47.520C10.469 35.817 13.986 24.193 17.367 12.434L19.969 3.715L12.938 3.715L10.336 12.434L4.711 12.434L3.445 16.864L9.070 16.864Z"/><path d="M18.281 47.520L25.313 47.520C27.919 38.759 30.449 29.922 33.117 21.223L23.977 21.223L29.109 3.715L22.078 3.715C19.919 11.002 17.838 18.366 15.609 25.583L9.141 47.520L16.172 47.520L22.641 25.583L24.750 25.583Z"/><path d="M44.508 13.454C44.489 11.502 42.949 9.973 40.992 9.973C39.023 9.973 37.477 11.520 37.477 13.489C37.477 15.387 39.023 16.934 40.992 16.934C42.949 16.934 44.489 15.406 44.508 13.454C44.508 13.442 44.508 13.430 44.508 13.418ZM27.422 47.520L34.453 47.520L42.258 21.223L35.227 21.223Z"/><path d="M44.578 44.145C44.578 42.176 43.031 40.629 41.063 40.629C39.164 40.629 37.617 42.176 37.617 44.145C37.617 46.114 39.164 47.661 41.133 47.661C43.102 47.661 44.648 46.114 44.648 44.145Z"/><path d="M54.844 47.520L61.875 47.520C64.481 38.759 67.012 29.922 69.680 21.223L53.508 21.223C50.839 29.922 48.310 38.760 45.703 47.520L52.734 47.520L59.203 25.583L61.313 25.583Z"/><path d="M58.781 65.028L74.953 65.028C78.918 51.954 82.725 38.721 86.625 25.583L87.961 21.223L71.789 21.223C69.121 29.922 66.591 38.760 63.984 47.520L71.016 47.520L77.484 25.583L79.594 25.583L69.258 60.668L67.148 60.668L68.414 56.309L61.383 56.309C60.544 59.244 59.677 62.150 58.781 65.028Z"/><path d="M77.063 65.028L84.094 65.028L102.234 3.715L95.203 3.715Z"/><path d="M97.031 47.520L104.063 47.520C107.500 35.817 111.017 24.193 114.398 12.434L117 3.715L109.969 3.715L107.367 12.434L101.742 12.434L100.477 16.864L106.102 16.864Z"/><path d="M117.914 38.731L124.945 38.731C126.678 32.893 128.354 26.999 130.148 21.223L113.977 21.223L112.641 25.583L112.677 25.583C110.510 32.897 108.298 40.165 106.172 47.520L122.344 47.520L123.609 43.161L114.469 43.161L119.708 25.583L121.781 25.583Z"/><path d="M138.797 30.012L145.828 30.012C146.659 27.046 147.526 24.116 148.430 21.223L132.258 21.223C131.354 24.116 130.486 27.046 129.656 30.012L136.195 38.731L134.859 43.161L132.750 43.161L134.086 38.731L127.055 38.731C126.168 41.641 125.300 44.570 124.453 47.520L140.625 47.520C141.472 44.570 142.340 41.641 143.227 38.731L136.688 30.012L137.953 25.583L140.063 25.583Z"/><path d="M142.734 47.520L149.766 47.520C153.203 35.817 156.720 24.193 160.102 12.434L162.703 3.715L155.672 3.715L153.070 12.434L147.445 12.434L146.180 16.864L151.805 16.864Z"/><path d="M151.875 47.520L168.047 47.520C170.172 40.176 172.361 32.896 174.516 25.583L175.852 21.223L159.680 21.223L158.344 25.583L167.484 25.583L162.281 43.161L160.172 43.161L164.109 30.012L157.078 30.012C155.342 35.847 153.565 41.640 151.875 47.520Z"/><path d="M188.438 47.520L195.469 47.520C198.075 38.759 200.605 29.922 203.273 21.223L177.961 21.223C175.293 29.922 172.763 38.760 170.156 47.520L177.188 47.520L183.656 25.583L185.766 25.583L179.297 47.520L186.328 47.520L192.797 25.583L194.906 25.583Z"/><path d="M209.320 38.731L216.352 38.731C218.084 32.893 219.761 26.999 221.555 21.223L205.383 21.223L204.047 25.583L204.083 25.583C201.917 32.897 199.704 40.165 197.578 47.520L213.750 47.520L215.016 43.161L205.875 43.161L211.115 25.583L213.188 25.583Z"/><path d="M225 47.520L232.031 47.520C234.638 38.759 237.168 29.922 239.836 21.223L223.664 21.223C220.996 29.922 218.466 38.760 215.859 47.520L222.891 47.520L229.359 25.583L231.469 25.583Z"/><path d="M234.141 47.520L241.172 47.520C244.609 35.817 248.127 24.193 251.508 12.434L254.109 3.715L247.078 3.715L244.477 12.434L238.852 12.434L237.586 16.864L243.211 16.864Z"/></svg>