<svg version="1.1" xmlns="http://www.w3.org/2000/svg" xmlns:xlink="http://www.w3.org/1999/xlink" xmlns:inkscape="http://www.inkscape.org/namespaces/inkscape" width="298.195" height="61.313" viewBox="0 3.715312500000003 298.1953125 61.31250000000001" stroke="none"><style>path { fill: #333; } @media (prefers-color-scheme: dark) { path { fill: #ccc; } }</style><path d="M0 47.520L7.031 47.520C10.469 35.817 13.986 24.193 17.367 12.434L19.969 3.715L12.938 3.715L10.336 12.434L4.711 12.434L3.445 16.864L9.070 16.864Z"/><path d="M18.281 47.520L25.313 47.520C27.919 38.759 30.449 29.922 33.117 21.223L23.977 21.223L29.109 3.715L22.078 3.715C19.919 11.002 17.838 18.366 15.609 25.583L9.141 47.520L16.172 47.520L22.641 25.583L24.750 25.583Z"/><path d="M44.508 13.454C44.489 11.502 42.949 9.973 40.992 9.973C39.023 9.973 37.477 11.520 37.477 13.489C37.477 15.387 39.023 16.934 40.992 16.934C42.949 16.934 44.489 15.406 44.508 13.454C44.508 13.442 44.508 13.430 44.508 13.418ZM27.422 47.520L34.453 47.520L42.258 21.223L35.227 21.223Z"/><path d="M44.578 44.145C44.578 42.176 43.031 40.629 41.063 40.629C39.164 40.629 37.617 42.176 37.617 44.145C37.617 46.114 39.164 47.661 41.133 47.661C43.102 47.661 44.648 46.114 44.648 44.145Z"/><path d="M54.844 47.520L61.875 47.520C64.481 38.759 67.012 29.922 69.680 21.223L53.508 21.223C50.839 29.922 48.310 38.760 45.703 47.520L52.734 47.520L59.203 25.583L61.313 25.583Z"/><path d="M58.781 65.028L74.953 65.028C78.918 51.954 82.725 38.721 86.625 25.583L87.961 21.223L71.789 21.223C69.121 29.922 66.591 38.760 63.984 47.520L71.016 47.520L77.484 25.583L79.594 25.583L69.258 60.668L67.148 60.668L68.414 56.309L61.383 56.309C60.544 59.244 59.677 62.150 58.781 65.028Z"/><path d="M77.063 65.028L84.094 65.028L102.234 3.715L95.203 3.715Z"/><path d="M91.406 47.520L107.578 47.520C111.855 32.883 116.208 18.322 120.516 3.715L113.484 3.715L101.813 43.161L99.703 43.161L106.242 21.223L99.211 21.223C96.613 29.992 93.963 38.710 91.406 47.520Z"/><path d="M109.688 47.520L125.859 47.520C128.416 38.710 131.066 29.992 133.664 21.223L126.633 21.223L120.094 43.161L117.984 43.161L124.523 21.223L117.492 21.223C114.894 29.992 112.245 38.710 109.688 47.520Z"/><path d="M127.969 47.520L144.141 47.520C146.266 40.176 148.455 32.896 150.609 25.583L151.945 21.223L135.773 21.223L134.438 25.583L143.578 25.583L138.375 43.161L136.266 43.161L140.203 30.012L133.172 30.012C131.436 35.847 129.659 41.640 127.969 47.520Z"/><path d="M146.250 47.520L153.281 47.520L166.219 3.715L159.188 3.715Z"/><path d="M159.258 34.372L175.430 34.372L176.766 30.012L160.594 30.012Z"/><path d="M173.672 47.520L189.844 47.520C191.969 40.176 194.158 32.896 196.313 25.583L197.648 21.223L181.477 21.223L180.141 25.583L189.281 25.583L184.078 43.161L181.969 43.161L185.906 30.012L178.875 30.012C177.139 35.847 175.362 41.640 173.672 47.520Z"/><path d="M191.953 47.520L198.984 47.520L211.922 3.715L204.891 3.715Z"/><path d="M195.891 65.028L212.063 65.028C216.028 51.954 219.834 38.721 223.734 25.583L225.070 21.223L208.898 21.223C206.230 29.922 203.701 38.760 201.094 47.520L208.125 47.520L214.594 25.583L216.703 25.583L206.367 60.668L204.258 60.668L205.523 56.309L198.492 56.309C197.653 59.244 196.786 62.150 195.891 65.028Z"/><path d="M231.117 38.731L238.148 38.731C239.881 32.893 241.557 26.999 243.352 21.223L227.180 21.223L225.844 25.583L225.880 25.583C223.714 32.897 221.501 40.165 219.375 47.520L235.547 47.520L236.813 43.161L227.672 43.161L232.912 25.583L234.984 25.583Z"/><path d="M237.656 47.520L253.828 47.520C256.385 38.710 259.035 29.992 261.633 21.223L254.602 21.223L248.063 43.161L245.953 43.161L257.625 3.715L250.594 3.715C246.286 18.321 241.934 32.883 237.656 47.520Z"/><path d="M270.281 30.012L277.313 30.012C278.143 27.046 279.010 24.116 279.914 21.223L263.742 21.223C261.074 29.922 258.544 38.760 255.938 47.520L262.969 47.520L269.438 25.583L271.547 25.583Z"/><path d="M274.219 47.520L290.391 47.520C292.516 40.176 294.705 32.896 296.859 25.583L298.195 21.223L282.023 21.223L280.688 25.583L289.828 25.583L284.625 43.161L282.516 43.161L286.453 30.012L279.422 30.012C277.686 35.847 275.909 41.640 274.219 47.520Z"/></svg>