<svg version="1.1" xmlns="http://www.w3.org/2000/svg" xmlns:xlink="http://www.w3.org/1999/xlink" xmlns:inkscape="http://www.inkscape.org/namespaces/inkscape" width="229.430" height="61.313" viewBox="0 3.715312500000003 229.4296885728836 61.31250000000001" stroke="none"><style>path { fill: #333; } @media (prefers-color-scheme: dark) { path { fill: #ccc; } }</style><path d="M0 47.520L7.031 47.520C10.469 35.817 13.986 24.193 17.367 12.434L19.969 3.715L12.938 3.715L10.336 12.434L4.711 12.434L3.445 16.864L9.070 16.864Z"/><path d="M18.281 47.520L25.313 47.520C27.919 38.759 30.449 29.922 33.117 21.223L23.977 21.223L29.109 3.715L22.078 3.715C19.919 11.002 17.838 18.366 15.609 25.583L9.141 47.520L16.172 47.520L22.641 25.583L24.750 25.583Z"/><path d="M44.508 13.454C44.489 11.502 42.949 9.973 40.992 9.973C39.023 9.973 37.477 11.520 37.477 13.489C37.477 15.387 39.023 16.934 40.992 16.934C42.949 16.934 44.489 15.406 44.508 13.454C44.508 13.442 44.508 13.430 44.508 13.418ZM27.422 47.520L34.453 47.520L42.258 21.223L35.227 21.223Z"/><path d="M44.578 44.145C44.578 42.176 43.031 40.629 41.063 40.629C39.164 40.629 37.617 42.176 37.617 44.145C37.617 46.114 39.164 47.661 41.133 47.661C43.102 47.661 44.648 46.114 44.648 44.145Z"/><path d="M54.844 47.520L61.875 47.520C64.481 38.759 67.012 29.922 69.680 21.223L53.508 21.223C50.839 29.922 48.310 38.760 45.703 47.520L52.734 47.520L59.203 25.583L61.313 25.583Z"/><path d="M58.781 65.028L74.953 65.028C78.918 51.954 82.725 38.721 86.625 25.583L87.961 21.223L71.789 21.223C69.121 29.922 66.591 38.760 63.984 47.520L71.016 47.520L77.484 25.583L79.594 25.583L69.258 60.668L67.148 60.668L68.414 56.309L61.383 56.309C60.544 59.244 59.677 62.150 58.781 65.028Z"/><path d="M77.063 65.028L84.094 65.028L102.234 3.715L95.203 3.715Z"/><path d="M91.406 47.520L107.578 47.520C111.855 32.883 116.208 18.322 120.516 3.715L113.484 3.715L101.813 43.161L99.703 43.161L106.242 21.223L99.211 21.223C96.613 29.992 93.963 38.710 91.406 47.520Z"/><path d="M121.430 38.731L128.461 38.731C130.193 32.893 131.870 26.999 133.664 21.223L117.492 21.223L116.156 25.583L116.193 25.583C114.026 32.897 111.814 40.165 109.688 47.520L125.859 47.520L127.125 43.161L117.984 43.161L123.224 25.583L125.297 25.583Z"/><path d="M127.969 47.520L135 47.520L141.469 25.583L147.094 25.583L148.430 21.223L142.805 21.223L157.078 3.715L150.047 3.715L135.773 21.223C133.105 29.922 130.576 38.760 127.969 47.520Z"/><path d="M161.016 47.520L168.047 47.520C170.653 38.759 173.184 29.922 175.852 21.223L150.539 21.223C147.871 29.922 145.341 38.760 142.734 47.520L149.766 47.520L156.234 25.583L158.344 25.583L151.875 47.520L158.906 47.520L165.375 25.583L167.484 25.583Z"/><path d="M170.156 47.520L186.328 47.520C188.885 38.710 191.535 29.992 194.133 21.223L187.102 21.223L180.563 43.161L178.453 43.161L184.992 21.223L177.961 21.223C175.363 29.992 172.713 38.710 170.156 47.520Z"/><path d="M188.438 47.520L195.469 47.520L208.406 3.715L201.375 3.715Z"/><path d="M203.203 47.520L210.234 47.520C213.672 35.817 217.189 24.193 220.570 12.434L223.172 3.715L216.141 3.715L213.539 12.434L207.914 12.434L206.648 16.864L212.273 16.864Z"/><path d="M229.430 13.454C229.411 11.502 227.871 9.973 225.914 9.973C223.945 9.973 222.398 11.520 222.398 13.489C222.398 15.387 223.945 16.934 225.914 16.934C227.871 16.934 229.411 15.406 229.430 13.454C229.430 13.442 229.430 13.430 229.430 13.418ZM212.344 47.520L219.375 47.520L227.180 21.223L220.148 21.223Z"/></svg>