<svg version="1.1" xmlns="http://www.w3.org/2000/svg" xmlns:xlink="http://www.w3.org/1999/xlink" xmlns:inkscape="http://www.inkscape.org/namespaces/inkscape" width="279.914" height="61.313" viewBox="0 3.715312500000003 279.9140625 61.31250000000001" stroke="none"><style>path { fill: #333; } @media (prefers-color-scheme: dark) { path { fill: #ccc; } }</style><path d="M0 47.520L7.031 47.520C10.469 35.817 13.986 24.193 17.367 12.434L19.969 3.715L12.938 3.715L10.336 12.434L4.711 12.434L3.445 16.864L9.070 16.864Z"/><path d="M18.281 47.520L25.313 47.520C27.919 38.759 30.449 29.922 33.117 21.223L23.977 21.223L29.109 3.715L22.078 3.715C19.919 11.002 17.838 18.366 15.609 25.583L9.141 47.520L16.172 47.520L22.641 25.583L24.750 25.583Z"/><path d="M44.508 13.454C44.489 11.502 42.949 9.973 40.992 9.973C39.023 9.973 37.477 11.520 37.477 13.489C37.477 15.387 39.023 16.934 40.992 16.934C42.949 16.934 44.489 15.406 44.508 13.454C44.508 13.442 44.508 13.430 44.508 13.418ZM27.422 47.520L34.453 47.520L42.258 21.223L35.227 21.223Z"/><path d="M44.578 44.145C44.578 42.176 43.031 40.629 41.063 40.629C39.164 40.629 37.617 42.176 37.617 44.145C37.617 46.114 39.164 47.661 41.133 47.661C43.102 47.661 44.648 46.114 44.648 44.145Z"/><path d="M54.844 47.520L61.875 47.520C64.481 38.759 67.012 29.922 69.680 21.223L53.508 21.223C50.839 29.922 48.310 38.760 45.703 47.520L52.734 47.520L59.203 25.583L61.313 25.583Z"/><path d="M58.781 65.028L74.953 65.028C78.918 51.954 82.725 38.721 86.625 25.583L87.961 21.223L71.789 21.223C69.121 29.922 66.591 38.760 63.984 47.520L71.016 47.520L77.484 25.583L79.594 25.583L69.258 60.668L67.148 60.668L68.414 56.309L61.383 56.309C60.544 59.244 59.677 62.150 58.781 65.028Z"/><path d="M77.063 65.028L84.094 65.028L102.234 3.715L95.203 3.715Z"/><path d="M91.406 47.520L107.578 47.520C111.855 32.883 116.208 18.322 120.516 3.715L113.484 3.715L101.813 43.161L99.703 43.161L106.242 21.223L99.211 21.223C96.613 29.992 93.963 38.710 91.406 47.520Z"/><path d="M124.031 30.012L131.063 30.012C131.893 27.046 132.760 24.116 133.664 21.223L117.492 21.223C116.589 24.116 115.721 27.046 114.891 30.012L121.430 38.731L120.094 43.161L117.984 43.161L119.320 38.731L112.289 38.731C111.402 41.641 110.534 44.570 109.688 47.520L125.859 47.520C126.706 44.570 127.574 41.641 128.461 38.731L121.922 30.012L123.188 25.583L125.297 25.583Z"/><path d="M137.109 47.520L144.141 47.520C146.747 38.759 149.277 29.922 151.945 21.223L135.773 21.223C131.370 35.757 127.111 50.436 122.766 65.028L129.797 65.028L141.469 25.583L143.578 25.583Z"/><path d="M150.117 34.372L166.289 34.372L167.625 30.012L151.453 30.012Z"/><path d="M181.617 13.454C181.599 11.502 180.059 9.973 178.102 9.973C176.133 9.973 174.586 11.520 174.586 13.489C174.586 15.387 176.133 16.934 178.102 16.934C180.059 16.934 181.599 15.406 181.617 13.454C181.617 13.442 181.617 13.430 181.617 13.418ZM164.531 47.520L171.563 47.520L179.367 21.223L172.336 21.223Z"/><path d="M173.672 47.520L189.844 47.520C191.969 40.176 194.158 32.896 196.313 25.583L197.648 21.223L181.477 21.223C179.240 28.479 177.120 35.851 174.938 43.161ZM189.281 25.583L184.078 43.161L181.969 43.161L187.172 25.583Z"/><path d="M195.820 34.372L211.992 34.372L213.328 30.012L197.156 30.012Z"/><path d="M210.234 47.520L235.547 47.520C238.104 38.710 240.754 29.992 243.352 21.223L236.320 21.223L229.781 43.161L227.672 43.161L234.211 21.223L227.180 21.223L220.641 43.161L218.531 43.161L225.070 21.223L218.039 21.223C215.441 29.992 212.791 38.710 210.234 47.520Z"/><path d="M237.656 47.520L253.828 47.520C255.953 40.176 258.142 32.896 260.297 25.583L261.633 21.223L245.461 21.223L244.125 25.583L253.266 25.583L248.063 43.161L245.953 43.161L249.891 30.012L242.859 30.012C241.124 35.847 239.346 41.640 237.656 47.520Z"/><path d="M267.680 38.731L264.977 40.754L270.773 21.223L263.742 21.223L255.938 47.520L262.969 47.520L274.711 38.731L279.914 21.223L272.883 21.223Z"/></svg>