<svg version="1.1" xmlns="http://www.w3.org/2000/svg" xmlns:xlink="http://www.w3.org/1999/xlink" xmlns:inkscape="http://www.inkscape.org/namespaces/inkscape" width="353.039" height="61.313" viewBox="0 3.715312500000003 353.0390625 61.31250000000001" stroke="none"><style>path { fill: #333; } @media (prefers-color-scheme: dark) { path { fill: #ccc; } }</style><path d="M0 47.520L7.031 47.520C10.469 35.817 13.986 24.193 17.367 12.434L19.969 3.715L12.938 3.715L10.336 12.434L4.711 12.434L3.445 16.864L9.070 16.864Z"/><path d="M18.281 47.520L25.313 47.520C27.919 38.759 30.449 29.922 33.117 21.223L23.977 21.223L29.109 3.715L22.078 3.715C19.919 11.002 17.838 18.366 15.609 25.583L9.141 47.520L16.172 47.520L22.641 25.583L24.750 25.583Z"/><path d="M44.508 13.454C44.489 11.502 42.949 9.973 40.992 9.973C39.023 9.973 37.477 11.520 37.477 13.489C37.477 15.387 39.023 16.934 40.992 16.934C42.949 16.934 44.489 15.406 44.508 13.454C44.508 13.442 44.508 13.430 44.508 13.418ZM27.422 47.520L34.453 47.520L42.258 21.223L35.227 21.223Z"/><path d="M44.578 44.145C44.578 42.176 43.031 40.629 41.063 40.629C39.164 40.629 37.617 42.176 37.617 44.145C37.617 46.114 39.164 47.661 41.133 47.661C43.102 47.661 44.648 46.114 44.648 44.145Z"/><path d="M54.844 47.520L61.875 47.520C64.481 38.759 67.012 29.922 69.680 21.223L53.508 21.223C50.839 29.922 48.310 38.760 45.703 47.520L52.734 47.520L59.203 25.583L61.313 25.583Z"/><path d="M58.781 65.028L74.953 65.028C78.918 51.954 82.725 38.721 86.625 25.583L87.961 21.223L71.789 21.223C69.121 29.922 66.591 38.760 63.984 47.520L71.016 47.520L77.484 25.583L79.594 25.583L69.258 60.668L67.148 60.668L68.414 56.309L61.383 56.309C60.544 59.244 59.677 62.150 58.781 65.028Z"/><path d="M77.063 65.028L84.094 65.028L102.234 3.715L95.203 3.715Z"/><path d="M91.406 47.520L107.578 47.520C111.855 32.883 116.208 18.322 120.516 3.715L113.484 3.715L101.813 43.161L99.703 43.161L106.242 21.223L99.211 21.223C96.613 29.992 93.963 38.710 91.406 47.520Z"/><path d="M109.688 47.520L125.859 47.520C127.985 40.176 130.173 32.896 132.328 25.583L133.664 21.223L117.492 21.223C115.256 28.479 113.135 35.851 110.953 43.161ZM125.297 25.583L120.094 43.161L117.984 43.161L123.188 25.583Z"/><path d="M146.250 47.520L153.281 47.520C155.888 38.759 158.418 29.922 161.086 21.223L135.773 21.223C133.105 29.922 130.576 38.760 127.969 47.520L135 47.520L141.469 25.583L143.578 25.583L137.109 47.520L144.141 47.520L150.609 25.583L152.719 25.583Z"/><path d="M172.476 13.454C172.458 11.502 170.918 9.973 168.961 9.973C166.992 9.973 165.445 11.520 165.445 13.489C165.445 15.387 166.992 16.934 168.961 16.934C170.918 16.934 172.458 15.406 172.476 13.454C172.476 13.442 172.477 13.430 172.477 13.418ZM155.391 47.520L162.422 47.520L170.227 21.223L163.195 21.223Z"/><path d="M173.672 47.520L180.703 47.520C183.309 38.759 185.840 29.922 188.508 21.223L172.336 21.223C169.668 29.922 167.138 38.760 164.531 47.520L171.563 47.520L178.031 25.583L180.141 25.583Z"/><path d="M182.813 47.520L198.984 47.520C201.110 40.176 203.298 32.896 205.453 25.583L206.789 21.223L190.617 21.223L189.281 25.583L198.422 25.583L193.219 43.161L191.109 43.161L195.047 30.012L188.016 30.012C186.280 35.847 184.502 41.640 182.813 47.520Z"/><path d="M210.234 47.520L217.266 47.520C219.872 38.759 222.402 29.922 225.070 21.223L208.898 21.223C206.230 29.922 203.701 38.760 201.094 47.520L208.125 47.520L214.594 25.583L216.703 25.583Z"/><path d="M219.375 47.520L226.406 47.520C229.844 35.817 233.361 24.193 236.742 12.434L239.344 3.715L232.313 3.715L229.711 12.434L224.086 12.434L222.820 16.864L228.445 16.864Z"/><path d="M232.383 34.372L248.555 34.372L249.891 30.012L233.719 30.012Z"/><path d="M261.141 30.012L268.172 30.012C269.003 27.046 269.869 24.116 270.773 21.223L254.602 21.223L253.266 25.583L253.302 25.583C251.135 32.897 248.923 40.165 246.797 47.520L262.969 47.520C263.816 44.570 264.683 41.641 265.570 38.731L258.539 38.731L257.203 43.161L255.094 43.161L260.333 25.583L262.406 25.583Z"/><path d="M265.078 47.520L281.250 47.520C283.375 40.176 285.564 32.896 287.719 25.583L289.055 21.223L272.883 21.223C270.646 28.479 268.526 35.851 266.344 43.161ZM280.688 25.583L275.484 43.161L273.375 43.161L278.578 25.583Z"/><path d="M283.359 47.520L290.391 47.520L303.328 3.715L296.297 3.715Z"/><path d="M292.500 47.520L308.672 47.520C310.797 40.176 312.986 32.896 315.141 25.583L316.477 21.223L300.305 21.223C298.068 28.479 295.948 35.851 293.766 43.161ZM308.109 25.583L302.906 43.161L300.797 43.161L306 25.583Z"/><path d="M325.125 30.012L332.156 30.012C332.987 27.046 333.854 24.116 334.758 21.223L318.586 21.223C315.918 29.922 313.388 38.760 310.781 47.520L317.813 47.520L324.281 25.583L326.391 25.583Z"/><path d="M343.406 30.012L350.438 30.012C351.268 27.046 352.135 24.116 353.039 21.223L336.867 21.223C335.964 24.116 335.096 27.046 334.266 30.012L340.805 38.731L339.469 43.161L337.359 43.161L338.695 38.731L331.664 38.731C330.777 41.641 329.909 44.570 329.063 47.520L345.234 47.520C346.081 44.570 346.949 41.641 347.836 38.731L341.297 30.012L342.563 25.583L344.672 25.583Z"/></svg>