<svg version="1.1" xmlns="http://www.w3.org/2000/svg" xmlns:xlink="http://www.w3.org/1999/xlink" xmlns:inkscape="http://www.inkscape.org/namespaces/inkscape" width="362.180" height="61.313" viewBox="0 3.715312500000003 362.1796875 61.31250000000001" stroke="none"><style>path { fill: #333; } @media (prefers-color-scheme: dark) { path { fill: #ccc; } }</style><path d="M0 47.520L7.031 47.520C10.469 35.817 13.986 24.193 17.367 12.434L19.969 3.715L12.938 3.715L10.336 12.434L4.711 12.434L3.445 16.864L9.070 16.864Z"/><path d="M18.281 47.520L25.313 47.520C27.919 38.759 30.449 29.922 33.117 21.223L23.977 21.223L29.109 3.715L22.078 3.715C19.919 11.002 17.838 18.366 15.609 25.583L9.141 47.520L16.172 47.520L22.641 25.583L24.750 25.583Z"/><path d="M44.508 13.454C44.489 11.502 42.949 9.973 40.992 9.973C39.023 9.973 37.477 11.520 37.477 13.489C37.477 15.387 39.023 16.934 40.992 16.934C42.949 16.934 44.489 15.406 44.508 13.454C44.508 13.442 44.508 13.430 44.508 13.418ZM27.422 47.520L34.453 47.520L42.258 21.223L35.227 21.223Z"/><path d="M44.578 44.145C44.578 42.176 43.031 40.629 41.063 40.629C39.164 40.629 37.617 42.176 37.617 44.145C37.617 46.114 39.164 47.661 41.133 47.661C43.102 47.661 44.648 46.114 44.648 44.145Z"/><path d="M54.844 47.520L61.875 47.520C64.481 38.759 67.012 29.922 69.680 21.223L53.508 21.223C50.839 29.922 48.310 38.760 45.703 47.520L52.734 47.520L59.203 25.583L61.313 25.583Z"/><path d="M58.781 65.028L74.953 65.028C78.918 51.954 82.725 38.721 86.625 25.583L87.961 21.223L71.789 21.223C69.121 29.922 66.591 38.760 63.984 47.520L71.016 47.520L77.484 25.583L79.594 25.583L69.258 60.668L67.148 60.668L68.414 56.309L61.383 56.309C60.544 59.244 59.677 62.150 58.781 65.028Z"/><path d="M77.063 65.028L84.094 65.028L102.234 3.715L95.203 3.715Z"/><path d="M91.406 47.520L116.719 47.520C119.275 38.710 121.926 29.992 124.523 21.223L117.492 21.223L110.953 43.161L108.844 43.161L115.383 21.223L108.352 21.223L101.813 43.161L99.703 43.161L106.242 21.223L99.211 21.223C96.613 29.992 93.963 38.710 91.406 47.520Z"/><path d="M130.570 38.731L137.602 38.731C139.334 32.893 141.011 26.999 142.805 21.223L126.633 21.223L125.297 25.583L125.333 25.583C123.167 32.897 120.954 40.165 118.828 47.520L135 47.520L136.266 43.161L127.125 43.161L132.365 25.583L134.438 25.583Z"/><path d="M137.109 47.520L153.281 47.520C155.838 38.710 158.488 29.992 161.086 21.223L154.055 21.223L147.516 43.161L145.406 43.161L157.078 3.715L150.047 3.715C145.739 18.321 141.387 32.883 137.109 47.520Z"/><path d="M150.188 65.028L166.359 65.028C170.325 51.954 174.131 38.721 178.031 25.583L179.367 21.223L163.195 21.223C160.527 29.922 157.997 38.760 155.391 47.520L162.422 47.520L168.891 25.583L171 25.583L160.664 60.668L158.555 60.668L159.820 56.309L152.789 56.309C151.950 59.244 151.083 62.150 150.188 65.028Z"/><path d="M173.672 47.520L180.703 47.520L193.641 3.715L186.609 3.715Z"/><path d="M186.680 34.372L202.852 34.372L204.188 30.012L188.016 30.012Z"/><path d="M215.438 30.012L222.469 30.012C223.299 27.046 224.166 24.116 225.070 21.223L208.898 21.223C207.995 24.116 207.127 27.046 206.297 30.012L212.836 38.731L211.500 43.161L209.391 43.161L210.727 38.731L203.695 38.731C202.809 41.641 201.940 44.570 201.094 47.520L217.266 47.520C218.113 44.570 218.980 41.641 219.867 38.731L213.328 30.012L214.594 25.583L216.703 25.583Z"/><path d="M228.516 47.520L235.547 47.520C238.153 38.759 240.684 29.922 243.352 21.223L234.211 21.223L239.344 3.715L232.313 3.715C230.154 11.002 228.072 18.366 225.844 25.583L219.375 47.520L226.406 47.520L232.875 25.583L234.984 25.583Z"/><path d="M237.656 47.520L253.828 47.520C255.953 40.176 258.142 32.896 260.297 25.583L261.633 21.223L245.461 21.223L244.125 25.583L253.266 25.583L248.063 43.161L245.953 43.161L249.891 30.012L242.859 30.012C241.124 35.847 239.346 41.640 237.656 47.520Z"/><path d="M255.938 47.520L272.109 47.520C276.386 32.883 280.739 18.322 285.047 3.715L278.016 3.715L266.344 43.161L264.234 43.161L270.773 21.223L263.742 21.223C261.144 29.992 258.495 38.710 255.938 47.520Z"/><path d="M285.961 38.731L292.992 38.731C294.724 32.893 296.401 26.999 298.195 21.223L282.023 21.223L280.688 25.583L280.724 25.583C278.557 32.897 276.345 40.165 274.219 47.520L290.391 47.520L291.656 43.161L282.516 43.161L287.755 25.583L289.828 25.583Z"/><path d="M306.844 30.012L313.875 30.012C314.706 27.046 315.572 24.116 316.477 21.223L300.305 21.223C297.636 29.922 295.107 38.760 292.500 47.520L299.531 47.520L306 25.583L308.109 25.583Z"/><path d="M310.781 47.520L317.813 47.520C321.250 35.817 324.767 24.193 328.148 12.434L330.750 3.715L323.719 3.715L321.117 12.434L315.492 12.434L314.227 16.864L319.852 16.864Z"/><path d="M319.922 47.520L336.094 47.520C338.219 40.176 340.408 32.896 342.563 25.583L343.898 21.223L327.727 21.223C325.490 28.479 323.370 35.851 321.188 43.161ZM335.531 25.583L330.328 43.161L328.219 43.161L333.422 25.583Z"/><path d="M342.141 65.028L349.172 65.028C351.327 57.737 353.522 50.487 355.641 43.161L362.180 21.223L355.148 21.223L348.609 43.161L346.500 43.161L353.039 21.223L346.008 21.223C343.410 29.992 340.760 38.710 338.203 47.520L347.344 47.520Z"/></svg>