<svg version="1.1" xmlns="http://www.w3.org/2000/svg" xmlns:xlink="http://www.w3.org/1999/xlink" xmlns:inkscape="http://www.inkscape.org/namespaces/inkscape" width="298.195" height="61.313" viewBox="0 3.715312500000003 298.1953125 61.31250000000001" stroke="none"><style>path { fill: #333; } @media (prefers-color-scheme: dark) { path { fill: #ccc; } }</style><path d="M0 47.520L7.031 47.520C10.469 35.817 13.986 24.193 17.367 12.434L19.969 3.715L12.938 3.715L10.336 12.434L4.711 12.434L3.445 16.864L9.070 16.864Z"/><path d="M18.281 47.520L25.313 47.520C27.919 38.759 30.449 29.922 33.117 21.223L23.977 21.223L29.109 3.715L22.078 3.715C19.919 11.002 17.838 18.366 15.609 25.583L9.141 47.520L16.172 47.520L22.641 25.583L24.750 25.583Z"/><path d="M44.508 13.454C44.489 11.502 42.949 9.973 40.992 9.973C39.023 9.973 37.477 11.520 37.477 13.489C37.477 15.387 39.023 16.934 40.992 16.934C42.949 16.934 44.489 15.406 44.508 13.454C44.508 13.442 44.508 13.430 44.508 13.418ZM27.422 47.520L34.453 47.520L42.258 21.223L35.227 21.223Z"/><path d="M44.578 44.145C44.578 42.176 43.031 40.629 41.063 40.629C39.164 40.629 37.617 42.176 37.617 44.145C37.617 46.114 39.164 47.661 41.133 47.661C43.102 47.661 44.648 46.114 44.648 44.145Z"/><path d="M54.844 47.520L61.875 47.520C64.481 38.759 67.012 29.922 69.680 21.223L53.508 21.223C50.839 29.922 48.310 38.760 45.703 47.520L52.734 47.520L59.203 25.583L61.313 25.583Z"/><path d="M58.781 65.028L74.953 65.028C78.918 51.954 82.725 38.721 86.625 25.583L87.961 21.223L71.789 21.223C69.121 29.922 66.591 38.760 63.984 47.520L71.016 47.520L77.484 25.583L79.594 25.583L69.258 60.668L67.148 60.668L68.414 56.309L61.383 56.309C60.544 59.244 59.677 62.150 58.781 65.028Z"/><path d="M77.063 65.028L84.094 65.028L102.234 3.715L95.203 3.715Z"/><path d="M105.750 30.012L112.781 30.012C113.612 27.046 114.479 24.116 115.383 21.223L99.211 21.223C96.543 29.922 94.013 38.760 91.406 47.520L98.438 47.520L104.906 25.583L107.016 25.583Z"/><path d="M109.688 47.520L125.859 47.520C127.985 40.176 130.173 32.896 132.328 25.583L133.664 21.223L117.492 21.223L116.156 25.583L125.297 25.583L120.094 43.161L117.984 43.161L121.922 30.012L114.891 30.012C113.155 35.847 111.377 41.640 109.688 47.520Z"/><path d="M137.109 47.520L144.141 47.520C146.747 38.759 149.277 29.922 151.945 21.223L135.773 21.223C133.105 29.922 130.576 38.760 127.969 47.520L135 47.520L141.469 25.583L143.578 25.583Z"/><path d="M141.047 65.028L157.219 65.028C161.184 51.954 164.990 38.721 168.891 25.583L170.227 21.223L154.055 21.223C151.386 29.922 148.857 38.760 146.250 47.520L153.281 47.520L159.750 25.583L161.859 25.583L151.523 60.668L149.414 60.668L150.680 56.309L143.648 56.309C142.810 59.244 141.942 62.150 141.047 65.028Z"/><path d="M176.273 38.731L183.305 38.731C185.037 32.893 186.714 26.999 188.508 21.223L172.336 21.223L171 25.583L171.037 25.583C168.870 32.897 166.657 40.165 164.531 47.520L180.703 47.520L181.969 43.161L172.828 43.161L178.068 25.583L180.141 25.583Z"/><path d="M186.680 34.372L202.852 34.372L204.188 30.012L188.016 30.012Z"/><path d="M215.438 30.012L222.469 30.012C223.299 27.046 224.166 24.116 225.070 21.223L208.898 21.223L207.563 25.583L207.599 25.583C205.432 32.897 203.220 40.165 201.094 47.520L217.266 47.520C218.113 44.570 218.980 41.641 219.867 38.731L212.836 38.731L211.500 43.161L209.391 43.161L214.630 25.583L216.703 25.583Z"/><path d="M219.375 47.520L235.547 47.520C237.672 40.176 239.861 32.896 242.016 25.583L243.352 21.223L227.180 21.223C224.943 28.479 222.823 35.851 220.641 43.161ZM234.984 25.583L229.781 43.161L227.672 43.161L232.875 25.583Z"/><path d="M237.656 47.520L253.828 47.520C258.105 32.883 262.458 18.322 266.766 3.715L259.734 3.715L248.063 43.161L245.953 43.161L252.492 21.223L245.461 21.223C242.863 29.992 240.213 38.710 237.656 47.520Z"/><path d="M267.680 38.731L274.711 38.731C276.443 32.893 278.120 26.999 279.914 21.223L263.742 21.223L262.406 25.583L262.443 25.583C260.276 32.897 258.064 40.165 255.938 47.520L272.109 47.520L273.375 43.161L264.234 43.161L269.474 25.583L271.547 25.583Z"/><path d="M288.563 30.012L295.594 30.012C296.424 27.046 297.291 24.116 298.195 21.223L282.023 21.223C279.355 29.922 276.826 38.760 274.219 47.520L281.250 47.520L287.719 25.583L289.828 25.583Z"/></svg>