<svg version="1.1" xmlns="http://www.w3.org/2000/svg" xmlns:xlink="http://www.w3.org/1999/xlink" xmlns:inkscape="http://www.inkscape.org/namespaces/inkscape" width="395.227" height="61.313" viewBox="0 3.715312500000003 395.2265625 61.31250000000001" stroke="none"><style>path { fill: #333; } @media (prefers-color-scheme: dark) { path { fill: #ccc; } }</style><path d="M0 47.520L7.031 47.520C10.469 35.817 13.986 24.193 17.367 12.434L19.969 3.715L12.938 3.715L10.336 12.434L4.711 12.434L3.445 16.864L9.070 16.864Z"/><path d="M18.281 47.520L25.313 47.520C27.919 38.759 30.449 29.922 33.117 21.223L23.977 21.223L29.109 3.715L22.078 3.715C19.919 11.002 17.838 18.366 15.609 25.583L9.141 47.520L16.172 47.520L22.641 25.583L24.750 25.583Z"/><path d="M44.508 13.454C44.489 11.502 42.949 9.973 40.992 9.973C39.023 9.973 37.477 11.520 37.477 13.489C37.477 15.387 39.023 16.934 40.992 16.934C42.949 16.934 44.489 15.406 44.508 13.454C44.508 13.442 44.508 13.430 44.508 13.418ZM27.422 47.520L34.453 47.520L42.258 21.223L35.227 21.223Z"/><path d="M44.578 44.145C44.578 42.176 43.031 40.629 41.063 40.629C39.164 40.629 37.617 42.176 37.617 44.145C37.617 46.114 39.164 47.661 41.133 47.661C43.102 47.661 44.648 46.114 44.648 44.145Z"/><path d="M54.844 47.520L61.875 47.520C64.481 38.759 67.012 29.922 69.680 21.223L53.508 21.223C50.839 29.922 48.310 38.760 45.703 47.520L52.734 47.520L59.203 25.583L61.313 25.583Z"/><path d="M58.781 65.028L74.953 65.028C78.918 51.954 82.725 38.721 86.625 25.583L87.961 21.223L71.789 21.223C69.121 29.922 66.591 38.760 63.984 47.520L71.016 47.520L77.484 25.583L79.594 25.583L69.258 60.668L67.148 60.668L68.414 56.309L61.383 56.309C60.544 59.244 59.677 62.150 58.781 65.028Z"/><path d="M77.063 65.028L84.094 65.028L102.234 3.715L95.203 3.715Z"/><path d="M97.031 47.520L104.063 47.520C107.500 35.817 111.017 24.193 114.398 12.434L117 3.715L109.969 3.715L107.367 12.434L101.742 12.434L100.477 16.864L106.102 16.864Z"/><path d="M120.516 30.012L127.547 30.012C128.378 27.046 129.244 24.116 130.148 21.223L113.977 21.223C111.308 29.922 108.779 38.760 106.172 47.520L113.203 47.520L119.672 25.583L121.781 25.583Z"/><path d="M124.453 47.520L140.625 47.520C142.750 40.176 144.939 32.896 147.094 25.583L148.430 21.223L132.258 21.223L130.922 25.583L140.063 25.583L134.859 43.161L132.750 43.161L136.688 30.012L129.656 30.012C127.921 35.847 126.143 41.640 124.453 47.520Z"/><path d="M151.875 47.520L158.906 47.520C161.513 38.759 164.043 29.922 166.711 21.223L150.539 21.223C147.871 29.922 145.341 38.760 142.734 47.520L149.766 47.520L156.234 25.583L158.344 25.583Z"/><path d="M175.359 30.012L182.391 30.012C183.221 27.046 184.088 24.116 184.992 21.223L168.820 21.223C167.917 24.116 167.049 27.046 166.219 30.012L172.758 38.731L171.422 43.161L169.313 43.161L170.648 38.731L163.617 38.731C162.731 41.641 161.862 44.570 161.016 47.520L177.188 47.520C178.034 44.570 178.902 41.641 179.789 38.731L173.250 30.012L174.516 25.583L176.625 25.583Z"/><path d="M179.297 47.520L195.469 47.520C199.745 32.883 204.099 18.322 208.406 3.715L201.375 3.715L189.703 43.161L187.594 43.161L194.133 21.223L187.102 21.223C184.503 29.992 181.854 38.710 179.297 47.520Z"/><path d="M197.578 47.520L213.750 47.520C216.307 38.710 218.957 29.992 221.555 21.223L214.523 21.223L207.984 43.161L205.875 43.161L212.414 21.223L205.383 21.223C202.785 29.992 200.135 38.710 197.578 47.520Z"/><path d="M230.203 30.012L237.234 30.012C238.065 27.046 238.932 24.116 239.836 21.223L223.664 21.223L222.328 25.583L222.365 25.583C220.198 32.897 217.986 40.165 215.859 47.520L232.031 47.520C232.878 44.570 233.746 41.641 234.633 38.731L227.602 38.731L226.266 43.161L224.156 43.161L229.396 25.583L231.469 25.583Z"/><path d="M245.883 38.731L252.914 38.731C254.646 32.893 256.323 26.999 258.117 21.223L241.945 21.223L240.609 25.583L240.646 25.583C238.479 32.897 236.267 40.165 234.141 47.520L250.313 47.520L251.578 43.161L242.438 43.161L247.677 25.583L249.750 25.583Z"/><path d="M266.766 30.012L273.797 30.012C274.628 27.046 275.494 24.116 276.398 21.223L260.227 21.223C257.558 29.922 255.029 38.760 252.422 47.520L259.453 47.520L265.922 25.583L268.031 25.583Z"/><path d="M285.047 30.012L292.078 30.012C292.909 27.046 293.776 24.116 294.680 21.223L278.508 21.223C277.604 24.116 276.736 27.046 275.906 30.012L282.445 38.731L281.109 43.161L279 43.161L280.336 38.731L273.305 38.731C272.418 41.641 271.550 44.570 270.703 47.520L286.875 47.520C287.722 44.570 288.590 41.641 289.477 38.731L282.938 30.012L284.203 25.583L286.313 25.583Z"/><path d="M292.852 34.372L309.023 34.372L310.359 30.012L294.188 30.012Z"/><path d="M316.406 47.520L323.438 47.520C326.044 38.759 328.574 29.922 331.242 21.223L322.102 21.223L327.234 3.715L320.203 3.715C318.044 11.002 315.963 18.366 313.734 25.583L307.266 47.520L314.297 47.520L320.766 25.583L322.875 25.583Z"/><path d="M325.547 47.520L341.719 47.520C345.995 32.883 350.349 18.322 354.656 3.715L347.625 3.715L335.953 43.161L333.844 43.161L340.383 21.223L333.352 21.223C330.753 29.992 328.104 38.710 325.547 47.520Z"/><path d="M343.828 47.520L360 47.520C362.125 40.176 364.314 32.896 366.469 25.583L367.805 21.223L351.633 21.223C349.396 28.479 347.276 35.851 345.094 43.161ZM359.438 25.583L354.234 43.161L352.125 43.161L357.328 25.583Z"/><path d="M380.391 47.520L387.422 47.520C390.028 38.759 392.559 29.922 395.227 21.223L369.914 21.223C367.246 29.922 364.716 38.760 362.109 47.520L369.141 47.520L375.609 25.583L377.719 25.583L371.250 47.520L378.281 47.520L384.750 25.583L386.859 25.583Z"/></svg>