<svg version="1.1" xmlns="http://www.w3.org/2000/svg" xmlns:xlink="http://www.w3.org/1999/xlink" xmlns:inkscape="http://www.inkscape.org/namespaces/inkscape" width="267.258" height="61.313" viewBox="0 3.715312500000003 267.2578125 61.31250000000001" stroke="none"><style>path { fill: #333; } @media (prefers-color-scheme: dark) { path { fill: #ccc; } }</style><path d="M0 47.520L7.031 47.520C10.469 35.817 13.986 24.193 17.367 12.434L19.969 3.715L12.938 3.715L10.336 12.434L4.711 12.434L3.445 16.864L9.070 16.864Z"/><path d="M18.281 47.520L25.313 47.520C27.919 38.759 30.449 29.922 33.117 21.223L23.977 21.223L29.109 3.715L22.078 3.715C19.919 11.002 17.838 18.366 15.609 25.583L9.141 47.520L16.172 47.520L22.641 25.583L24.750 25.583Z"/><path d="M44.508 13.454C44.489 11.502 42.949 9.973 40.992 9.973C39.023 9.973 37.477 11.520 37.477 13.489C37.477 15.387 39.023 16.934 40.992 16.934C42.949 16.934 44.489 15.406 44.508 13.454C44.508 13.442 44.508 13.430 44.508 13.418ZM27.422 47.520L34.453 47.520L42.258 21.223L35.227 21.223Z"/><path d="M44.578 44.145C44.578 42.176 43.031 40.629 41.063 40.629C39.164 40.629 37.617 42.176 37.617 44.145C37.617 46.114 39.164 47.661 41.133 47.661C43.102 47.661 44.648 46.114 44.648 44.145Z"/><path d="M54.844 47.520L61.875 47.520C64.481 38.759 67.012 29.922 69.680 21.223L53.508 21.223C50.839 29.922 48.310 38.760 45.703 47.520L52.734 47.520L59.203 25.583L61.313 25.583Z"/><path d="M58.781 65.028L74.953 65.028C78.918 51.954 82.725 38.721 86.625 25.583L87.961 21.223L71.789 21.223C69.121 29.922 66.591 38.760 63.984 47.520L71.016 47.520L77.484 25.583L79.594 25.583L69.258 60.668L67.148 60.668L68.414 56.309L61.383 56.309C60.544 59.244 59.677 62.150 58.781 65.028Z"/><path d="M77.063 65.028L84.094 65.028L102.234 3.715L95.203 3.715Z"/><path d="M97.031 47.520L104.063 47.520C107.500 35.817 111.017 24.193 114.398 12.434L117 3.715L109.969 3.715L107.367 12.434L101.742 12.434L100.477 16.864L106.102 16.864Z"/><path d="M120.516 30.012L127.547 30.012C128.378 27.046 129.244 24.116 130.148 21.223L113.977 21.223C111.308 29.922 108.779 38.760 106.172 47.520L113.203 47.520L119.672 25.583L121.781 25.583Z"/><path d="M124.453 47.520L140.625 47.520C142.750 40.176 144.939 32.896 147.094 25.583L148.430 21.223L132.258 21.223L130.922 25.583L140.063 25.583L134.859 43.161L132.750 43.161L136.688 30.012L129.656 30.012C127.921 35.847 126.143 41.640 124.453 47.520Z"/><path d="M151.875 47.520L158.906 47.520C161.513 38.759 164.043 29.922 166.711 21.223L150.539 21.223C147.871 29.922 145.341 38.760 142.734 47.520L149.766 47.520L156.234 25.583L158.344 25.583Z"/><path d="M175.359 30.012L182.391 30.012C183.221 27.046 184.088 24.116 184.992 21.223L168.820 21.223C167.917 24.116 167.049 27.046 166.219 30.012L172.758 38.731L171.422 43.161L169.313 43.161L170.648 38.731L163.617 38.731C162.731 41.641 161.862 44.570 161.016 47.520L177.188 47.520C178.034 44.570 178.902 41.641 179.789 38.731L173.250 30.012L174.516 25.583L176.625 25.583Z"/><path d="M193.641 30.012L200.672 30.012C201.503 27.046 202.369 24.116 203.273 21.223L187.102 21.223L185.766 25.583L185.802 25.583C183.635 32.897 181.423 40.165 179.297 47.520L195.469 47.520C196.316 44.570 197.183 41.641 198.070 38.731L191.039 38.731L189.703 43.161L187.594 43.161L192.833 25.583L194.906 25.583Z"/><path d="M197.578 47.520L204.609 47.520L217.547 3.715L210.516 3.715Z"/><path d="M206.719 47.520L222.891 47.520C225.447 38.710 228.097 29.992 230.695 21.223L223.664 21.223L217.125 43.161L215.016 43.161L221.555 21.223L214.523 21.223C211.925 29.992 209.276 38.710 206.719 47.520Z"/><path d="M225 47.520L241.172 47.520C245.449 32.883 249.802 18.322 254.109 3.715L247.078 3.715L235.406 43.161L233.297 43.161L239.836 21.223L232.805 21.223C230.206 29.992 227.557 38.710 225 47.520Z"/><path d="M255.023 38.731L262.055 38.731C263.787 32.893 265.464 26.999 267.258 21.223L251.086 21.223L249.750 25.583L249.787 25.583C247.620 32.897 245.407 40.165 243.281 47.520L259.453 47.520L260.719 43.161L251.578 43.161L256.818 25.583L258.891 25.583Z"/></svg>