<svg version="1.1" xmlns="http://www.w3.org/2000/svg" xmlns:xlink="http://www.w3.org/1999/xlink" xmlns:inkscape="http://www.inkscape.org/namespaces/inkscape" width="275.906" height="61.313" viewBox="0 3.715312500000003 275.90625 61.31250000000001" stroke="none"><style>path { fill: #333; } @media (prefers-color-scheme: dark) { path { fill: #ccc; } }</style><path d="M0 47.520L7.031 47.520C10.469 35.817 13.986 24.193 17.367 12.434L19.969 3.715L12.938 3.715L10.336 12.434L4.711 12.434L3.445 16.864L9.070 16.864Z"/><path d="M18.281 47.520L25.313 47.520C27.919 38.759 30.449 29.922 33.117 21.223L23.977 21.223L29.109 3.715L22.078 3.715C19.919 11.002 17.838 18.366 15.609 25.583L9.141 47.520L16.172 47.520L22.641 25.583L24.750 25.583Z"/><path d="M44.508 13.454C44.489 11.502 42.949 9.973 40.992 9.973C39.023 9.973 37.477 11.520 37.477 13.489C37.477 15.387 39.023 16.934 40.992 16.934C42.949 16.934 44.489 15.406 44.508 13.454C44.508 13.442 44.508 13.430 44.508 13.418ZM27.422 47.520L34.453 47.520L42.258 21.223L35.227 21.223Z"/><path d="M44.578 44.145C44.578 42.176 43.031 40.629 41.063 40.629C39.164 40.629 37.617 42.176 37.617 44.145C37.617 46.114 39.164 47.661 41.133 47.661C43.102 47.661 44.648 46.114 44.648 44.145Z"/><path d="M54.844 47.520L61.875 47.520C64.481 38.759 67.012 29.922 69.680 21.223L53.508 21.223C50.839 29.922 48.310 38.760 45.703 47.520L52.734 47.520L59.203 25.583L61.313 25.583Z"/><path d="M58.781 65.028L74.953 65.028C78.918 51.954 82.725 38.721 86.625 25.583L87.961 21.223L71.789 21.223C69.121 29.922 66.591 38.760 63.984 47.520L71.016 47.520L77.484 25.583L79.594 25.583L69.258 60.668L67.148 60.668L68.414 56.309L61.383 56.309C60.544 59.244 59.677 62.150 58.781 65.028Z"/><path d="M77.063 65.028L84.094 65.028L102.234 3.715L95.203 3.715Z"/><path d="M91.406 47.520L107.578 47.520C110.135 38.710 112.785 29.992 115.383 21.223L108.352 21.223L101.813 43.161L99.703 43.161L106.242 21.223L99.211 21.223C96.613 29.992 93.963 38.710 91.406 47.520Z"/><path d="M118.828 47.520L125.859 47.520C128.466 38.759 130.996 29.922 133.664 21.223L117.492 21.223C114.824 29.922 112.294 38.760 109.688 47.520L116.719 47.520L123.188 25.583L125.297 25.583Z"/><path d="M145.055 13.454C145.036 11.502 143.496 9.973 141.539 9.973C139.570 9.973 138.023 11.520 138.023 13.489C138.023 15.387 139.570 16.934 141.539 16.934C143.496 16.934 145.036 15.406 145.055 13.454C145.055 13.442 145.055 13.430 145.055 13.418ZM127.969 47.520L135.000 47.520L142.805 21.223L135.773 21.223Z"/><path d="M137.109 47.520L153.281 47.520C155.406 40.176 157.595 32.896 159.750 25.583L161.086 21.223L144.914 21.223C142.678 28.479 140.557 35.851 138.375 43.161ZM152.719 25.583L147.516 43.161L145.406 43.161L150.609 25.583Z"/><path d="M164.531 47.520L171.563 47.520C174.169 38.759 176.699 29.922 179.367 21.223L163.195 21.223C160.527 29.922 157.997 38.760 155.391 47.520L162.422 47.520L168.891 25.583L171 25.583Z"/><path d="M188.016 30.012L195.047 30.012C195.878 27.046 196.744 24.116 197.648 21.223L181.477 21.223C180.573 24.116 179.705 27.046 178.875 30.012L185.414 38.731L184.078 43.161L181.969 43.161L183.305 38.731L176.273 38.731C175.387 41.641 174.519 44.570 173.672 47.520L189.844 47.520C190.691 44.570 191.558 41.641 192.445 38.731L185.906 30.012L187.172 25.583L189.281 25.583Z"/><path d="M191.953 47.520L198.984 47.520C202.422 35.817 205.939 24.193 209.320 12.434L211.922 3.715L204.891 3.715L202.289 12.434L196.664 12.434L195.398 16.864L201.023 16.864Z"/><path d="M215.438 30.012L222.469 30.012C223.299 27.046 224.166 24.116 225.070 21.223L208.898 21.223C206.230 29.922 203.701 38.760 201.094 47.520L208.125 47.520L214.594 25.583L216.703 25.583Z"/><path d="M219.375 47.520L235.547 47.520C238.104 38.710 240.754 29.992 243.352 21.223L236.320 21.223L229.781 43.161L227.672 43.161L234.211 21.223L227.180 21.223C224.581 29.992 221.932 38.710 219.375 47.520Z"/><path d="M252 30.012L259.031 30.012C259.862 27.046 260.729 24.116 261.633 21.223L245.461 21.223L244.125 25.583L244.162 25.583C241.995 32.897 239.782 40.165 237.656 47.520L253.828 47.520C254.675 44.570 255.543 41.641 256.430 38.731L249.398 38.731L248.063 43.161L245.953 43.161L251.193 25.583L253.266 25.583Z"/><path d="M255.938 47.520L262.969 47.520C266.406 35.817 269.923 24.193 273.305 12.434L275.906 3.715L268.875 3.715L266.273 12.434L260.648 12.434L259.383 16.864L265.008 16.864Z"/></svg>