<svg version="1.1" xmlns="http://www.w3.org/2000/svg" xmlns:xlink="http://www.w3.org/1999/xlink" xmlns:inkscape="http://www.inkscape.org/namespaces/inkscape" width="218.039" height="61.313" viewBox="0 3.715312500000003 218.0390625 61.31250000000001" stroke="none"><style>path { fill: #333; } @media (prefers-color-scheme: dark) { path { fill: #ccc; } }</style><path d="M0 47.520L7.031 47.520C10.469 35.817 13.986 24.193 17.367 12.434L19.969 3.715L12.938 3.715L10.336 12.434L4.711 12.434L3.445 16.864L9.070 16.864Z"/><path d="M18.281 47.520L25.313 47.520C27.919 38.759 30.449 29.922 33.117 21.223L23.977 21.223L29.109 3.715L22.078 3.715C19.919 11.002 17.838 18.366 15.609 25.583L9.141 47.520L16.172 47.520L22.641 25.583L24.750 25.583Z"/><path d="M44.508 13.454C44.489 11.502 42.949 9.973 40.992 9.973C39.023 9.973 37.477 11.520 37.477 13.489C37.477 15.387 39.023 16.934 40.992 16.934C42.949 16.934 44.489 15.406 44.508 13.454C44.508 13.442 44.508 13.430 44.508 13.418ZM27.422 47.520L34.453 47.520L42.258 21.223L35.227 21.223Z"/><path d="M44.578 44.145C44.578 42.176 43.031 40.629 41.063 40.629C39.164 40.629 37.617 42.176 37.617 44.145C37.617 46.114 39.164 47.661 41.133 47.661C43.102 47.661 44.648 46.114 44.648 44.145Z"/><path d="M54.844 47.520L61.875 47.520C64.481 38.759 67.012 29.922 69.680 21.223L53.508 21.223C50.839 29.922 48.310 38.760 45.703 47.520L52.734 47.520L59.203 25.583L61.313 25.583Z"/><path d="M58.781 65.028L74.953 65.028C78.918 51.954 82.725 38.721 86.625 25.583L87.961 21.223L71.789 21.223C69.121 29.922 66.591 38.760 63.984 47.520L71.016 47.520L77.484 25.583L79.594 25.583L69.258 60.668L67.148 60.668L68.414 56.309L61.383 56.309C60.544 59.244 59.677 62.150 58.781 65.028Z"/><path d="M77.063 65.028L84.094 65.028L102.234 3.715L95.203 3.715Z"/><path d="M91.406 47.520L107.578 47.520C110.135 38.710 112.785 29.992 115.383 21.223L108.352 21.223L101.813 43.161L99.703 43.161L111.375 3.715L104.344 3.715C100.036 18.321 95.684 32.883 91.406 47.520Z"/><path d="M109.688 47.520L125.859 47.520C128.416 38.710 131.066 29.992 133.664 21.223L126.633 21.223L120.094 43.161L117.984 43.161L124.523 21.223L117.492 21.223C114.894 29.992 112.245 38.710 109.688 47.520Z"/><path d="M127.969 47.520L135 47.520L141.469 25.583L147.094 25.583L148.430 21.223L142.805 21.223L157.078 3.715L150.047 3.715L135.773 21.223C133.105 29.922 130.576 38.760 127.969 47.520Z"/><path d="M142.734 47.520L149.766 47.520L156.234 25.583L161.859 25.583L163.195 21.223L157.570 21.223L171.844 3.715L164.813 3.715L150.539 21.223C147.871 29.922 145.341 38.760 142.734 47.520Z"/><path d="M169.242 38.731L176.273 38.731C178.006 32.893 179.682 26.999 181.477 21.223L165.305 21.223L163.969 25.583L164.005 25.583C161.839 32.897 159.626 40.165 157.500 47.520L173.672 47.520L174.938 43.161L165.797 43.161L171.037 25.583L173.109 25.583Z"/><path d="M190.125 30.012L197.156 30.012C197.987 27.046 198.854 24.116 199.758 21.223L183.586 21.223C180.918 29.922 178.388 38.760 175.781 47.520L182.813 47.520L189.281 25.583L191.391 25.583Z"/><path d="M208.406 30.012L215.438 30.012C216.268 27.046 217.135 24.116 218.039 21.223L201.867 21.223C200.964 24.116 200.096 27.046 199.266 30.012L205.805 38.731L204.469 43.161L202.359 43.161L203.695 38.731L196.664 38.731C195.777 41.641 194.909 44.570 194.063 47.520L210.234 47.520C211.081 44.570 211.949 41.641 212.836 38.731L206.297 30.012L207.563 25.583L209.672 25.583Z"/></svg>