<svg version="1.1" xmlns="http://www.w3.org/2000/svg" xmlns:xlink="http://www.w3.org/1999/xlink" width="353.039" height="61.313" viewBox="0 3.715312500000003 353.0390625 61.31250000000001" stroke="none"><style>path { fill: #333; } @media (prefers-color-scheme: dark) { path { fill: #ccc; } }</style><path d="M0 47.520L7.031 47.520C10.469 35.817 13.986 24.193 17.367 12.434L19.969 3.715L12.938 3.715L10.336 12.434L4.711 12.434L3.445 16.864L9.070 16.864Z"/><path d="M18.281 47.520L25.313 47.520C27.919 38.759 30.449 29.922 33.117 21.223L23.977 21.223L29.109 3.715L22.078 3.715C19.919 11.002 17.838 18.366 15.609 25.583L9.141 47.520L16.172 47.520L22.641 25.583L24.750 25.583Z"/><path d="M44.508 13.454C44.489 11.502 42.949 9.973 40.992 9.973C39.023 9.973 37.477 11.520 37.477 13.489C37.477 15.387 39.023 16.934 40.992 16.934C42.949 16.934 44.489 15.406 44.508 13.454C44.508 13.442 44.508 13.430 44.508 13.418ZM27.422 47.520L34.453 47.520L42.258 21.223L35.227 21.223Z"/><path d="M44.578 44.145C44.578 42.176 43.031 40.629 41.063 40.629C39.164 40.629 37.617 42.176 37.617 44.145C37.617 46.114 39.164 47.661 41.133 47.661C43.102 47.661 44.648 46.114 44.648 44.145Z"/><path d="M54.844 47.520L61.875 47.520C64.481 38.759 67.012 29.922 69.680 21.223L53.508 21.223C50.839 29.922 48.310 38.760 45.703 47.520L52.734 47.520L59.203 25.583L61.313 25.583Z"/><path d="M58.781 65.028L74.953 65.028C78.918 51.954 82.725 38.721 86.625 25.583L87.961 21.223L71.789 21.223C69.121 29.922 66.591 38.760 63.984 47.520L71.016 47.520L77.484 25.583L79.594 25.583L69.258 60.668L67.148 60.668L68.414 56.309L61.383 56.309C60.544 59.244 59.677 62.150 58.781 65.028Z"/><path d="M77.063 65.028L84.094 65.028L102.234 3.715L95.203 3.715Z"/><path d="M91.406 47.520L116.719 47.520C119.275 38.710 121.926 29.992 124.523 21.223L117.492 21.223L110.953 43.161L108.844 43.161L115.383 21.223L108.352 21.223L101.813 43.161L99.703 43.161L106.242 21.223L99.211 21.223C96.613 29.992 93.963 38.710 91.406 47.520Z"/><path d="M118.828 47.520L135 47.520C137.125 40.176 139.314 32.896 141.469 25.583L142.805 21.223L126.633 21.223L125.297 25.583L134.438 25.583L129.234 43.161L127.125 43.161L131.063 30.012L124.031 30.012C122.296 35.847 120.518 41.640 118.828 47.520Z"/><path d="M151.453 30.012L158.484 30.012C159.315 27.046 160.182 24.116 161.086 21.223L144.914 21.223C144.010 24.116 143.143 27.046 142.313 30.012L148.852 38.731L147.516 43.161L145.406 43.161L146.742 38.731L139.711 38.731C138.824 41.641 137.956 44.570 137.109 47.520L153.281 47.520C154.128 44.570 154.996 41.641 155.883 38.731L149.344 30.012L150.609 25.583L152.719 25.583Z"/><path d="M173.672 47.520L180.703 47.520C183.309 38.759 185.840 29.922 188.508 21.223L163.195 21.223C160.527 29.922 157.997 38.760 155.391 47.520L162.422 47.520L168.891 25.583L171 25.583L164.531 47.520L171.563 47.520L178.031 25.583L180.141 25.583Z"/><path d="M186.680 34.372L202.852 34.372L204.188 30.012L188.016 30.012Z"/><path d="M201.094 47.520L217.266 47.520C219.391 40.176 221.580 32.896 223.734 25.583L225.070 21.223L208.898 21.223L207.563 25.583L216.703 25.583L211.500 43.161L209.391 43.161L213.328 30.012L206.297 30.012C204.561 35.847 202.784 41.640 201.094 47.520Z"/><path d="M228.516 47.520L235.547 47.520C238.153 38.759 240.684 29.922 243.352 21.223L227.180 21.223C222.776 35.757 218.517 50.436 214.172 65.028L221.203 65.028L232.875 25.583L234.984 25.583Z"/><path d="M254.742 13.454C254.724 11.502 253.184 9.973 251.227 9.973C249.258 9.973 247.711 11.520 247.711 13.489C247.711 15.387 249.258 16.934 251.227 16.934C253.184 16.934 254.724 15.406 254.742 13.454C254.742 13.442 254.742 13.430 254.742 13.418ZM237.656 47.520L244.688 47.520L252.492 21.223L245.461 21.223Z"/><path d="M250.664 34.372L266.836 34.372L268.172 30.012L252 30.012Z"/><path d="M265.078 47.520L272.109 47.520C275.547 35.817 279.064 24.193 282.445 12.434L285.047 3.715L278.016 3.715L275.414 12.434L269.789 12.434L268.523 16.864L274.148 16.864Z"/><path d="M291.305 13.454C291.286 11.502 289.746 9.973 287.789 9.973C285.820 9.973 284.273 11.520 284.273 13.489C284.273 15.387 285.820 16.934 287.789 16.934C289.746 16.934 291.286 15.406 291.305 13.454C291.305 13.442 291.305 13.430 291.305 13.418ZM274.219 47.520L281.250 47.520L289.055 21.223L282.023 21.223Z"/><path d="M301.641 47.520L308.672 47.520C311.278 38.759 313.809 29.922 316.477 21.223L291.164 21.223C288.496 29.922 285.966 38.760 283.359 47.520L290.391 47.520L296.859 25.583L298.969 25.583L292.500 47.520L299.531 47.520L306 25.583L308.109 25.583Z"/><path d="M322.523 38.731L329.555 38.731C331.287 32.893 332.964 26.999 334.758 21.223L318.586 21.223L317.250 25.583L317.287 25.583C315.120 32.897 312.907 40.165 310.781 47.520L326.953 47.520L328.219 43.161L319.078 43.161L324.318 25.583L326.391 25.583Z"/><path d="M343.406 30.012L350.438 30.012C351.268 27.046 352.135 24.116 353.039 21.223L336.867 21.223C334.199 29.922 331.669 38.760 329.063 47.520L336.094 47.520L342.563 25.583L344.672 25.583Z"/></svg>