<svg version="1.1" xmlns="http://www.w3.org/2000/svg" xmlns:xlink="http://www.w3.org/1999/xlink" xmlns:inkscape="http://www.inkscape.org/namespaces/inkscape" width="234.211" height="61.313" viewBox="0 3.715312500000003 234.2109375 61.31250000000001" stroke="none"><style>path { fill: #333; } @media (prefers-color-scheme: dark) { path { fill: #ccc; } }</style><path d="M0 47.520L7.031 47.520C10.469 35.817 13.986 24.193 17.367 12.434L19.969 3.715L12.938 3.715L10.336 12.434L4.711 12.434L3.445 16.864L9.070 16.864Z"/><path d="M18.281 47.520L25.313 47.520C27.919 38.759 30.449 29.922 33.117 21.223L23.977 21.223L29.109 3.715L22.078 3.715C19.919 11.002 17.838 18.366 15.609 25.583L9.141 47.520L16.172 47.520L22.641 25.583L24.750 25.583Z"/><path d="M44.508 13.454C44.489 11.502 42.949 9.973 40.992 9.973C39.023 9.973 37.477 11.520 37.477 13.489C37.477 15.387 39.023 16.934 40.992 16.934C42.949 16.934 44.489 15.406 44.508 13.454C44.508 13.442 44.508 13.430 44.508 13.418ZM27.422 47.520L34.453 47.520L42.258 21.223L35.227 21.223Z"/><path d="M44.578 44.145C44.578 42.176 43.031 40.629 41.063 40.629C39.164 40.629 37.617 42.176 37.617 44.145C37.617 46.114 39.164 47.661 41.133 47.661C43.102 47.661 44.648 46.114 44.648 44.145Z"/><path d="M54.844 47.520L61.875 47.520C64.481 38.759 67.012 29.922 69.680 21.223L53.508 21.223C50.839 29.922 48.310 38.760 45.703 47.520L52.734 47.520L59.203 25.583L61.313 25.583Z"/><path d="M58.781 65.028L74.953 65.028C78.918 51.954 82.725 38.721 86.625 25.583L87.961 21.223L71.789 21.223C69.121 29.922 66.591 38.760 63.984 47.520L71.016 47.520L77.484 25.583L79.594 25.583L69.258 60.668L67.148 60.668L68.414 56.309L61.383 56.309C60.544 59.244 59.677 62.150 58.781 65.028Z"/><path d="M77.063 65.028L84.094 65.028L102.234 3.715L95.203 3.715Z"/><path d="M108.492 13.454C108.474 11.502 106.934 9.973 104.977 9.973C103.008 9.973 101.461 11.520 101.461 13.489C101.461 15.387 103.008 16.934 104.977 16.934C106.934 16.934 108.474 15.406 108.492 13.454C108.492 13.442 108.492 13.430 108.492 13.418ZM91.406 47.520L98.438 47.520L106.242 21.223L99.211 21.223Z"/><path d="M100.547 47.520L107.578 47.520C111.016 35.817 114.533 24.193 117.914 12.434L120.516 3.715L113.484 3.715L110.883 12.434L105.258 12.434L103.992 16.864L109.617 16.864Z"/><path d="M121.430 38.731L128.461 38.731C130.193 32.893 131.870 26.999 133.664 21.223L117.492 21.223L116.156 25.583L116.193 25.583C114.026 32.897 111.814 40.165 109.688 47.520L125.859 47.520L127.125 43.161L117.984 43.161L123.224 25.583L125.297 25.583Z"/><path d="M142.313 30.012L149.344 30.012C150.174 27.046 151.041 24.116 151.945 21.223L135.773 21.223C133.105 29.922 130.576 38.760 127.969 47.520L135 47.520L141.469 25.583L143.578 25.583Z"/><path d="M146.250 47.520L162.422 47.520C164.547 40.176 166.736 32.896 168.891 25.583L170.227 21.223L154.055 21.223L152.719 25.583L161.859 25.583L156.656 43.161L154.547 43.161L158.484 30.012L151.453 30.012C149.717 35.847 147.940 41.640 146.250 47.520Z"/><path d="M164.531 47.520L171.563 47.520C175.000 35.817 178.517 24.193 181.898 12.434L184.500 3.715L177.469 3.715L174.867 12.434L169.242 12.434L167.977 16.864L173.602 16.864Z"/><path d="M173.672 47.520L189.844 47.520C191.969 40.176 194.158 32.896 196.313 25.583L197.648 21.223L181.477 21.223C179.240 28.479 177.120 35.851 174.938 43.161ZM189.281 25.583L184.078 43.161L181.969 43.161L187.172 25.583Z"/><path d="M206.297 30.012L213.328 30.012C214.159 27.046 215.026 24.116 215.930 21.223L199.758 21.223C197.089 29.922 194.560 38.760 191.953 47.520L198.984 47.520L205.453 25.583L207.563 25.583Z"/><path d="M224.578 30.012L231.609 30.012C232.440 27.046 233.307 24.116 234.211 21.223L218.039 21.223C217.135 24.116 216.268 27.046 215.438 30.012L221.977 38.731L220.641 43.161L218.531 43.161L219.867 38.731L212.836 38.731C211.949 41.641 211.081 44.570 210.234 47.520L226.406 47.520C227.253 44.570 228.121 41.641 229.008 38.731L222.469 30.012L223.734 25.583L225.844 25.583Z"/></svg>