<svg version="1.1" xmlns="http://www.w3.org/2000/svg" xmlns:xlink="http://www.w3.org/1999/xlink" xmlns:inkscape="http://www.inkscape.org/namespaces/inkscape" width="208.406" height="61.313" viewBox="0 3.715312500000003 208.40625 61.31250000000001" stroke="none"><style>path { fill: #333; } @media (prefers-color-scheme: dark) { path { fill: #ccc; } }</style><path d="M0 47.520L7.031 47.520C10.469 35.817 13.986 24.193 17.367 12.434L19.969 3.715L12.938 3.715L10.336 12.434L4.711 12.434L3.445 16.864L9.070 16.864Z"/><path d="M18.281 47.520L25.313 47.520C27.919 38.759 30.449 29.922 33.117 21.223L23.977 21.223L29.109 3.715L22.078 3.715C19.919 11.002 17.838 18.366 15.609 25.583L9.141 47.520L16.172 47.520L22.641 25.583L24.750 25.583Z"/><path d="M44.508 13.454C44.489 11.502 42.949 9.973 40.992 9.973C39.023 9.973 37.477 11.520 37.477 13.489C37.477 15.387 39.023 16.934 40.992 16.934C42.949 16.934 44.489 15.406 44.508 13.454C44.508 13.442 44.508 13.430 44.508 13.418ZM27.422 47.520L34.453 47.520L42.258 21.223L35.227 21.223Z"/><path d="M44.578 44.145C44.578 42.176 43.031 40.629 41.063 40.629C39.164 40.629 37.617 42.176 37.617 44.145C37.617 46.114 39.164 47.661 41.133 47.661C43.102 47.661 44.648 46.114 44.648 44.145Z"/><path d="M54.844 47.520L61.875 47.520C64.481 38.759 67.012 29.922 69.680 21.223L53.508 21.223C50.839 29.922 48.310 38.760 45.703 47.520L52.734 47.520L59.203 25.583L61.313 25.583Z"/><path d="M58.781 65.028L74.953 65.028C78.918 51.954 82.725 38.721 86.625 25.583L87.961 21.223L71.789 21.223C69.121 29.922 66.591 38.760 63.984 47.520L71.016 47.520L77.484 25.583L79.594 25.583L69.258 60.668L67.148 60.668L68.414 56.309L61.383 56.309C60.544 59.244 59.677 62.150 58.781 65.028Z"/><path d="M77.063 65.028L84.094 65.028L102.234 3.715L95.203 3.715Z"/><path d="M91.406 47.520L107.578 47.520C110.135 38.710 112.785 29.992 115.383 21.223L108.352 21.223L101.813 43.161L99.703 43.161L111.375 3.715L104.344 3.715C100.036 18.321 95.684 32.883 91.406 47.520Z"/><path d="M126.773 13.454C126.755 11.502 125.215 9.973 123.258 9.973C121.289 9.973 119.742 11.520 119.742 13.489C119.742 15.387 121.289 16.934 123.258 16.934C125.215 16.934 126.755 15.406 126.773 13.454C126.773 13.442 126.773 13.430 126.773 13.418ZM109.688 47.520L116.719 47.520L124.523 21.223L117.492 21.223Z"/><path d="M118.828 47.520L125.859 47.520C129.297 35.817 132.814 24.193 136.195 12.434L138.797 3.715L131.766 3.715L129.164 12.434L123.539 12.434L122.273 16.864L127.898 16.864Z"/><path d="M127.969 47.520L135 47.520L141.469 25.583L147.094 25.583L148.430 21.223L142.805 21.223L157.078 3.715L150.047 3.715L135.773 21.223C133.105 29.922 130.576 38.760 127.969 47.520Z"/><path d="M159.820 13.454C159.802 11.502 158.262 9.973 156.305 9.973C154.336 9.973 152.789 11.520 152.789 13.489C152.789 15.387 154.336 16.934 156.305 16.934C158.262 16.934 159.802 15.406 159.820 13.454C159.820 13.442 159.820 13.430 159.820 13.418ZM142.734 47.520L149.766 47.520L157.570 21.223L150.539 21.223Z"/><path d="M163.617 38.731L170.648 38.731C172.381 32.893 174.057 26.999 175.852 21.223L159.680 21.223L158.344 25.583L158.380 25.583C156.214 32.897 154.001 40.165 151.875 47.520L168.047 47.520L169.313 43.161L160.172 43.161L165.412 25.583L167.484 25.583Z"/><path d="M170.156 47.520L177.188 47.520L190.125 3.715L183.094 3.715Z"/><path d="M179.297 47.520L195.469 47.520C199.745 32.883 204.099 18.322 208.406 3.715L201.375 3.715L189.703 43.161L187.594 43.161L194.133 21.223L187.102 21.223C184.503 29.992 181.854 38.710 179.297 47.520Z"/></svg>