<svg version="1.1" xmlns="http://www.w3.org/2000/svg" xmlns:xlink="http://www.w3.org/1999/xlink" xmlns:inkscape="http://www.inkscape.org/namespaces/inkscape" width="343.898" height="61.313" viewBox="0 3.715312500000003 343.8984375 61.31250000000001" stroke="none"><style>path { fill: #333; } @media (prefers-color-scheme: dark) { path { fill: #ccc; } }</style><path d="M0 47.520L7.031 47.520C10.469 35.817 13.986 24.193 17.367 12.434L19.969 3.715L12.938 3.715L10.336 12.434L4.711 12.434L3.445 16.864L9.070 16.864Z"/><path d="M18.281 47.520L25.313 47.520C27.919 38.759 30.449 29.922 33.117 21.223L23.977 21.223L29.109 3.715L22.078 3.715C19.919 11.002 17.838 18.366 15.609 25.583L9.141 47.520L16.172 47.520L22.641 25.583L24.750 25.583Z"/><path d="M44.508 13.454C44.489 11.502 42.949 9.973 40.992 9.973C39.023 9.973 37.477 11.520 37.477 13.489C37.477 15.387 39.023 16.934 40.992 16.934C42.949 16.934 44.489 15.406 44.508 13.454C44.508 13.442 44.508 13.430 44.508 13.418ZM27.422 47.520L34.453 47.520L42.258 21.223L35.227 21.223Z"/><path d="M44.578 44.145C44.578 42.176 43.031 40.629 41.063 40.629C39.164 40.629 37.617 42.176 37.617 44.145C37.617 46.114 39.164 47.661 41.133 47.661C43.102 47.661 44.648 46.114 44.648 44.145Z"/><path d="M54.844 47.520L61.875 47.520C64.481 38.759 67.012 29.922 69.680 21.223L53.508 21.223C50.839 29.922 48.310 38.760 45.703 47.520L52.734 47.520L59.203 25.583L61.313 25.583Z"/><path d="M58.781 65.028L74.953 65.028C78.918 51.954 82.725 38.721 86.625 25.583L87.961 21.223L71.789 21.223C69.121 29.922 66.591 38.760 63.984 47.520L71.016 47.520L77.484 25.583L79.594 25.583L69.258 60.668L67.148 60.668L68.414 56.309L61.383 56.309C60.544 59.244 59.677 62.150 58.781 65.028Z"/><path d="M77.063 65.028L84.094 65.028L102.234 3.715L95.203 3.715Z"/><path d="M86.203 65.028L102.375 65.028C106.340 51.954 110.146 38.721 114.047 25.583L115.383 21.223L99.211 21.223C96.543 29.922 94.013 38.760 91.406 47.520L98.438 47.520L104.906 25.583L107.016 25.583L96.680 60.668L94.570 60.668L95.836 56.309L88.805 56.309C87.966 59.244 87.099 62.150 86.203 65.028Z"/><path d="M121.430 38.731L128.461 38.731C130.193 32.893 131.870 26.999 133.664 21.223L117.492 21.223L116.156 25.583L116.193 25.583C114.026 32.897 111.814 40.165 109.688 47.520L125.859 47.520L127.125 43.161L117.984 43.161L123.224 25.583L125.297 25.583Z"/><path d="M127.969 47.520L144.141 47.520C146.266 40.176 148.455 32.896 150.609 25.583L151.945 21.223L135.773 21.223C133.537 28.479 131.416 35.851 129.234 43.161ZM143.578 25.583L138.375 43.161L136.266 43.161L141.469 25.583Z"/><path d="M164.531 47.520L171.563 47.520C174.169 38.759 176.699 29.922 179.367 21.223L154.055 21.223C151.386 29.922 148.857 38.760 146.250 47.520L153.281 47.520L159.750 25.583L161.859 25.583L155.391 47.520L162.422 47.520L168.891 25.583L171 25.583Z"/><path d="M177.539 34.372L193.711 34.372L195.047 30.012L178.875 30.012Z"/><path d="M191.953 47.520L198.984 47.520C202.422 35.817 205.939 24.193 209.320 12.434L211.922 3.715L204.891 3.715L202.289 12.434L196.664 12.434L195.398 16.864L201.023 16.864Z"/><path d="M212.836 38.731L219.867 38.731C221.599 32.893 223.276 26.999 225.070 21.223L208.898 21.223L207.563 25.583L207.599 25.583C205.432 32.897 203.220 40.165 201.094 47.520L217.266 47.520L218.531 43.161L209.391 43.161L214.630 25.583L216.703 25.583Z"/><path d="M233.719 30.012L240.750 30.012C241.581 27.046 242.447 24.116 243.352 21.223L227.180 21.223C226.276 24.116 225.408 27.046 224.578 30.012L231.117 38.731L229.781 43.161L227.672 43.161L229.008 38.731L221.977 38.731C221.090 41.641 220.222 44.570 219.375 47.520L235.547 47.520C236.394 44.570 237.262 41.641 238.148 38.731L231.609 30.012L232.875 25.583L234.984 25.583Z"/><path d="M252 30.012L259.031 30.012C259.862 27.046 260.729 24.116 261.633 21.223L245.461 21.223C244.557 24.116 243.690 27.046 242.859 30.012L249.398 38.731L248.063 43.161L245.953 43.161L247.289 38.731L240.258 38.731C239.371 41.641 238.503 44.570 237.656 47.520L253.828 47.520C254.675 44.570 255.543 41.641 256.430 38.731L249.891 30.012L251.156 25.583L253.266 25.583Z"/><path d="M267.680 38.731L274.711 38.731C276.443 32.893 278.120 26.999 279.914 21.223L263.742 21.223L262.406 25.583L262.443 25.583C260.276 32.897 258.064 40.165 255.938 47.520L272.109 47.520L273.375 43.161L264.234 43.161L269.474 25.583L271.547 25.583Z"/><path d="M274.219 47.520L281.250 47.520L294.188 3.715L287.156 3.715Z"/><path d="M283.359 47.520L290.391 47.520L303.328 3.715L296.297 3.715Z"/><path d="M292.500 47.520L308.672 47.520C310.797 40.176 312.986 32.896 315.141 25.583L316.477 21.223L300.305 21.223L298.969 25.583L308.109 25.583L302.906 43.161L300.797 43.161L304.734 30.012L297.703 30.012C295.967 35.847 294.190 41.640 292.500 47.520Z"/><path d="M310.781 47.520L317.813 47.520C321.250 35.817 324.767 24.193 328.148 12.434L330.750 3.715L323.719 3.715L321.117 12.434L315.492 12.434L314.227 16.864L319.852 16.864Z"/><path d="M331.664 38.731L338.695 38.731C340.428 32.893 342.104 26.999 343.898 21.223L327.727 21.223L326.391 25.583L326.427 25.583C324.260 32.897 322.048 40.165 319.922 47.520L336.094 47.520L337.359 43.161L328.219 43.161L333.458 25.583L335.531 25.583Z"/></svg>