<svg version="1.1" xmlns="http://www.w3.org/2000/svg" xmlns:xlink="http://www.w3.org/1999/xlink" xmlns:inkscape="http://www.inkscape.org/namespaces/inkscape" width="197.648" height="61.313" viewBox="0 3.715311427116397 197.6484385728836 61.31250107288361" stroke="none"><style>path { fill: #333; } @media (prefers-color-scheme: dark) { path { fill: #ccc; } }</style><path d="M0 47.520L7.031 47.520C10.469 35.817 13.986 24.193 17.367 12.434L19.969 3.715L12.938 3.715L10.336 12.434L4.711 12.434L3.445 16.864L9.070 16.864Z"/><path d="M18.281 47.520L25.313 47.520C27.919 38.759 30.449 29.922 33.117 21.223L23.977 21.223L29.109 3.715L22.078 3.715C19.919 11.002 17.838 18.366 15.609 25.583L9.141 47.520L16.172 47.520L22.641 25.583L24.750 25.583Z"/><path d="M44.508 13.454C44.489 11.502 42.949 9.973 40.992 9.973C39.023 9.973 37.477 11.520 37.477 13.489C37.477 15.387 39.023 16.934 40.992 16.934C42.949 16.934 44.489 15.406 44.508 13.454C44.508 13.442 44.508 13.430 44.508 13.418ZM27.422 47.520L34.453 47.520L42.258 21.223L35.227 21.223Z"/><path d="M44.578 44.145C44.578 42.176 43.031 40.629 41.063 40.629C39.164 40.629 37.617 42.176 37.617 44.145C37.617 46.114 39.164 47.661 41.133 47.661C43.102 47.661 44.648 46.114 44.648 44.145Z"/><path d="M54.844 47.520L61.875 47.520C64.481 38.759 67.012 29.922 69.680 21.223L53.508 21.223C50.839 29.922 48.310 38.760 45.703 47.520L52.734 47.520L59.203 25.583L61.313 25.583Z"/><path d="M58.781 65.028L74.953 65.028C78.918 51.954 82.725 38.721 86.625 25.583L87.961 21.223L71.789 21.223C69.121 29.922 66.591 38.760 63.984 47.520L71.016 47.520L77.484 25.583L79.594 25.583L69.258 60.668L67.148 60.668L68.414 56.309L61.383 56.309C60.544 59.244 59.677 62.150 58.781 65.028Z"/><path d="M77.063 65.028L84.094 65.028L102.234 3.715L95.203 3.715Z"/><path d="M103.148 38.731L100.446 40.754L106.242 21.223L99.211 21.223L91.406 47.520L98.438 47.520L110.180 38.731L115.383 21.223L108.352 21.223Z"/><path d="M124.031 30.012L131.063 30.012C131.893 27.046 132.760 24.116 133.664 21.223L117.492 21.223L116.156 25.583L116.193 25.583C114.026 32.897 111.814 40.165 109.688 47.520L125.859 47.520C126.706 44.570 127.574 41.641 128.461 38.731L121.430 38.731L120.094 43.161L117.984 43.161L123.224 25.583L125.297 25.583Z"/><path d="M127.969 47.520L135 47.520L147.938 3.715L140.906 3.715Z"/><path d="M137.109 47.520L153.281 47.520C155.406 40.176 157.595 32.896 159.750 25.583L161.086 21.223L144.914 21.223C142.678 28.479 140.557 35.851 138.375 43.161ZM152.719 25.583L147.516 43.161L145.406 43.161L150.609 25.583Z"/><path d="M169.734 30.012L176.766 30.012C177.596 27.046 178.463 24.116 179.367 21.223L163.195 21.223L161.859 25.583L161.896 25.583C159.729 32.897 157.517 40.165 155.391 47.520L171.563 47.520C172.409 44.570 173.277 41.641 174.164 38.731L167.133 38.731L165.797 43.161L163.688 43.161L168.927 25.583L171 25.583Z"/><path d="M182.813 47.520L189.844 47.520L192.445 38.731L184.584 34.379C188.053 32.905 191.563 31.471 195.047 30.012L197.648 21.223L190.617 21.223L188.016 30.012L185.574 31.028L193.641 3.715L186.609 3.715L177.557 34.364L177.539 34.372L177.553 34.379L173.672 47.520L180.703 47.520L183.596 37.725L185.414 38.731Z"/></svg>