<svg version="1.1" xmlns="http://www.w3.org/2000/svg" xmlns:xlink="http://www.w3.org/1999/xlink" xmlns:inkscape="http://www.inkscape.org/namespaces/inkscape" width="248.977" height="61.313" viewBox="0 3.715312500000003 248.9765625 61.31250000000001" stroke="none"><style>path { fill: #333; } @media (prefers-color-scheme: dark) { path { fill: #ccc; } }</style><path d="M0 47.520L7.031 47.520C10.469 35.817 13.986 24.193 17.367 12.434L19.969 3.715L12.938 3.715L10.336 12.434L4.711 12.434L3.445 16.864L9.070 16.864Z"/><path d="M18.281 47.520L25.313 47.520C27.919 38.759 30.449 29.922 33.117 21.223L23.977 21.223L29.109 3.715L22.078 3.715C19.919 11.002 17.838 18.366 15.609 25.583L9.141 47.520L16.172 47.520L22.641 25.583L24.750 25.583Z"/><path d="M44.508 13.454C44.489 11.502 42.949 9.973 40.992 9.973C39.023 9.973 37.477 11.520 37.477 13.489C37.477 15.387 39.023 16.934 40.992 16.934C42.949 16.934 44.489 15.406 44.508 13.454C44.508 13.442 44.508 13.430 44.508 13.418ZM27.422 47.520L34.453 47.520L42.258 21.223L35.227 21.223Z"/><path d="M44.578 44.145C44.578 42.176 43.031 40.629 41.063 40.629C39.164 40.629 37.617 42.176 37.617 44.145C37.617 46.114 39.164 47.661 41.133 47.661C43.102 47.661 44.648 46.114 44.648 44.145Z"/><path d="M54.844 47.520L61.875 47.520C64.481 38.759 67.012 29.922 69.680 21.223L53.508 21.223C50.839 29.922 48.310 38.760 45.703 47.520L52.734 47.520L59.203 25.583L61.313 25.583Z"/><path d="M58.781 65.028L74.953 65.028C78.918 51.954 82.725 38.721 86.625 25.583L87.961 21.223L71.789 21.223C69.121 29.922 66.591 38.760 63.984 47.520L71.016 47.520L77.484 25.583L79.594 25.583L69.258 60.668L67.148 60.668L68.414 56.309L61.383 56.309C60.544 59.244 59.677 62.150 58.781 65.028Z"/><path d="M77.063 65.028L84.094 65.028L102.234 3.715L95.203 3.715Z"/><path d="M91.406 47.520L98.438 47.520L104.906 25.583L110.531 25.583L111.867 21.223L106.242 21.223L120.516 3.715L113.484 3.715L99.211 21.223C96.543 29.922 94.013 38.760 91.406 47.520Z"/><path d="M106.172 47.520L122.344 47.520C124.900 38.710 127.551 29.992 130.148 21.223L123.117 21.223L116.578 43.161L114.469 43.161L121.008 21.223L113.977 21.223C111.378 29.992 108.729 38.710 106.172 47.520Z"/><path d="M124.453 47.520L140.625 47.520L141.891 43.161L132.750 43.161L147.094 25.583L148.430 21.223L132.258 21.223L130.922 25.583L140.063 25.583L125.719 43.161Z"/><path d="M142.734 47.520L158.906 47.520L160.172 43.161L151.031 43.161L165.375 25.583L166.711 21.223L150.539 21.223L149.203 25.583L158.344 25.583L144 43.161Z"/><path d="M164.953 65.028L171.984 65.028C174.139 57.737 176.334 50.487 178.453 43.161L184.992 21.223L177.961 21.223L171.422 43.161L169.313 43.161L175.852 21.223L168.820 21.223C166.222 29.992 163.573 38.710 161.016 47.520L170.156 47.520Z"/><path d="M183.164 34.372L199.336 34.372L200.672 30.012L184.500 30.012Z"/><path d="M209.320 38.731L206.617 40.754L212.414 21.223L205.383 21.223L197.578 47.520L204.609 47.520L216.352 38.731L221.555 21.223L214.523 21.223Z"/><path d="M232.945 13.454C232.927 11.502 231.387 9.973 229.430 9.973C227.461 9.973 225.914 11.520 225.914 13.489C225.914 15.387 227.461 16.934 229.430 16.934C231.387 16.934 232.927 15.406 232.945 13.454C232.945 13.442 232.945 13.430 232.945 13.418ZM215.859 47.520L222.891 47.520L230.695 21.223L223.664 21.223Z"/><path d="M225 47.520L241.172 47.520L242.438 43.161L233.297 43.161L247.641 25.583L248.977 21.223L232.805 21.223L231.469 25.583L240.609 25.583L226.266 43.161Z"/></svg>