<svg version="1.1" xmlns="http://www.w3.org/2000/svg" xmlns:xlink="http://www.w3.org/1999/xlink" xmlns:inkscape="http://www.inkscape.org/namespaces/inkscape" width="294.680" height="61.313" viewBox="0 3.715312500000003 294.6796875 61.31250000000001" stroke="none"><style>path { fill: #333; } @media (prefers-color-scheme: dark) { path { fill: #ccc; } }</style><path d="M0 47.520L7.031 47.520C10.469 35.817 13.986 24.193 17.367 12.434L19.969 3.715L12.938 3.715L10.336 12.434L4.711 12.434L3.445 16.864L9.070 16.864Z"/><path d="M18.281 47.520L25.313 47.520C27.919 38.759 30.449 29.922 33.117 21.223L23.977 21.223L29.109 3.715L22.078 3.715C19.919 11.002 17.838 18.366 15.609 25.583L9.141 47.520L16.172 47.520L22.641 25.583L24.750 25.583Z"/><path d="M44.508 13.454C44.489 11.502 42.949 9.973 40.992 9.973C39.023 9.973 37.477 11.520 37.477 13.489C37.477 15.387 39.023 16.934 40.992 16.934C42.949 16.934 44.489 15.406 44.508 13.454C44.508 13.442 44.508 13.430 44.508 13.418ZM27.422 47.520L34.453 47.520L42.258 21.223L35.227 21.223Z"/><path d="M44.578 44.145C44.578 42.176 43.031 40.629 41.063 40.629C39.164 40.629 37.617 42.176 37.617 44.145C37.617 46.114 39.164 47.661 41.133 47.661C43.102 47.661 44.648 46.114 44.648 44.145Z"/><path d="M54.844 47.520L61.875 47.520C64.481 38.759 67.012 29.922 69.680 21.223L53.508 21.223C50.839 29.922 48.310 38.760 45.703 47.520L52.734 47.520L59.203 25.583L61.313 25.583Z"/><path d="M58.781 65.028L74.953 65.028C78.918 51.954 82.725 38.721 86.625 25.583L87.961 21.223L71.789 21.223C69.121 29.922 66.591 38.760 63.984 47.520L71.016 47.520L77.484 25.583L79.594 25.583L69.258 60.668L67.148 60.668L68.414 56.309L61.383 56.309C60.544 59.244 59.677 62.150 58.781 65.028Z"/><path d="M77.063 65.028L84.094 65.028L102.234 3.715L95.203 3.715Z"/><path d="M105.750 30.012L112.781 30.012C113.612 27.046 114.479 24.116 115.383 21.223L99.211 21.223C96.543 29.922 94.013 38.760 91.406 47.520L98.438 47.520L104.906 25.583L107.016 25.583Z"/><path d="M109.688 47.520L125.859 47.520C130.136 32.883 134.489 18.322 138.797 3.715L131.766 3.715L120.094 43.161L117.984 43.161L124.523 21.223L117.492 21.223C114.894 29.992 112.245 38.710 109.688 47.520Z"/><path d="M127.969 47.520L144.141 47.520C146.266 40.176 148.455 32.896 150.609 25.583L151.945 21.223L135.773 21.223C133.537 28.479 131.416 35.851 129.234 43.161ZM143.578 25.583L138.375 43.161L136.266 43.161L141.469 25.583Z"/><path d="M164.531 47.520L171.563 47.520C174.169 38.759 176.699 29.922 179.367 21.223L154.055 21.223C151.386 29.922 148.857 38.760 146.250 47.520L153.281 47.520L159.750 25.583L161.859 25.583L155.391 47.520L162.422 47.520L168.891 25.583L171 25.583Z"/><path d="M177.539 34.372L193.711 34.372L195.047 30.012L178.875 30.012Z"/><path d="M191.953 47.520L198.984 47.520L205.453 25.583L211.078 25.583L212.414 21.223L206.789 21.223L221.063 3.715L214.031 3.715L199.758 21.223C197.089 29.922 194.560 38.760 191.953 47.520Z"/><path d="M206.719 47.520L222.891 47.520C225.016 40.176 227.205 32.896 229.359 25.583L230.695 21.223L214.523 21.223C212.287 28.479 210.166 35.851 207.984 43.161ZM222.328 25.583L217.125 43.161L215.016 43.161L220.219 25.583Z"/><path d="M239.344 30.012L246.375 30.012C247.206 27.046 248.072 24.116 248.977 21.223L232.805 21.223C230.136 29.922 227.607 38.760 225 47.520L232.031 47.520L238.500 25.583L240.609 25.583Z"/><path d="M261.563 47.520L268.594 47.520C271.200 38.759 273.730 29.922 276.398 21.223L251.086 21.223C248.418 29.922 245.888 38.760 243.281 47.520L250.313 47.520L256.781 25.583L258.891 25.583L252.422 47.520L259.453 47.520L265.922 25.583L268.031 25.583Z"/><path d="M285.047 30.012L292.078 30.012C292.909 27.046 293.776 24.116 294.680 21.223L278.508 21.223C277.604 24.116 276.736 27.046 275.906 30.012L282.445 38.731L281.109 43.161L279 43.161L280.336 38.731L273.305 38.731C272.418 41.641 271.550 44.570 270.703 47.520L286.875 47.520C287.722 44.570 288.590 41.641 289.477 38.731L282.938 30.012L284.203 25.583L286.313 25.583Z"/></svg>