<svg version="1.1" xmlns="http://www.w3.org/2000/svg" xmlns:xlink="http://www.w3.org/1999/xlink" xmlns:inkscape="http://www.inkscape.org/namespaces/inkscape" width="261.633" height="61.313" viewBox="0 3.715312500000003 261.6328125 61.31250000000001" stroke="none"><style>path { fill: #333; } @media (prefers-color-scheme: dark) { path { fill: #ccc; } }</style><path d="M0 47.520L7.031 47.520C10.469 35.817 13.986 24.193 17.367 12.434L19.969 3.715L12.938 3.715L10.336 12.434L4.711 12.434L3.445 16.864L9.070 16.864Z"/><path d="M18.281 47.520L25.313 47.520C27.919 38.759 30.449 29.922 33.117 21.223L23.977 21.223L29.109 3.715L22.078 3.715C19.919 11.002 17.838 18.366 15.609 25.583L9.141 47.520L16.172 47.520L22.641 25.583L24.750 25.583Z"/><path d="M44.508 13.454C44.489 11.502 42.949 9.973 40.992 9.973C39.023 9.973 37.477 11.520 37.477 13.489C37.477 15.387 39.023 16.934 40.992 16.934C42.949 16.934 44.489 15.406 44.508 13.454C44.508 13.442 44.508 13.430 44.508 13.418ZM27.422 47.520L34.453 47.520L42.258 21.223L35.227 21.223Z"/><path d="M44.578 44.145C44.578 42.176 43.031 40.629 41.063 40.629C39.164 40.629 37.617 42.176 37.617 44.145C37.617 46.114 39.164 47.661 41.133 47.661C43.102 47.661 44.648 46.114 44.648 44.145Z"/><path d="M54.844 47.520L61.875 47.520C64.481 38.759 67.012 29.922 69.680 21.223L53.508 21.223C50.839 29.922 48.310 38.760 45.703 47.520L52.734 47.520L59.203 25.583L61.313 25.583Z"/><path d="M58.781 65.028L74.953 65.028C78.918 51.954 82.725 38.721 86.625 25.583L87.961 21.223L71.789 21.223C69.121 29.922 66.591 38.760 63.984 47.520L71.016 47.520L77.484 25.583L79.594 25.583L69.258 60.668L67.148 60.668L68.414 56.309L61.383 56.309C60.544 59.244 59.677 62.150 58.781 65.028Z"/><path d="M77.063 65.028L84.094 65.028L102.234 3.715L95.203 3.715Z"/><path d="M95.344 65.028L102.375 65.028C106.719 50.434 110.981 35.759 115.383 21.223L99.211 21.223C96.543 29.922 94.013 38.760 91.406 47.520L98.438 47.520L104.906 25.583L107.016 25.583Z"/><path d="M109.688 47.520L125.859 47.520C128.416 38.710 131.066 29.992 133.664 21.223L126.633 21.223L120.094 43.161L117.984 43.161L124.523 21.223L117.492 21.223C114.894 29.992 112.245 38.710 109.688 47.520Z"/><path d="M127.969 47.520L144.141 47.520C146.266 40.176 148.455 32.896 150.609 25.583L151.945 21.223L135.773 21.223L134.438 25.583L143.578 25.583L138.375 43.161L136.266 43.161L140.203 30.012L133.172 30.012C131.436 35.847 129.659 41.640 127.969 47.520Z"/><path d="M146.250 47.520L162.422 47.520C166.699 32.883 171.052 18.322 175.359 3.715L168.328 3.715L156.656 43.161L154.547 43.161L161.086 21.223L154.055 21.223C151.456 29.992 148.807 38.710 146.250 47.520Z"/><path d="M168.398 34.372L184.570 34.372L185.906 30.012L169.734 30.012Z"/><path d="M194.555 38.731L201.586 38.731C203.318 32.893 204.995 26.999 206.789 21.223L190.617 21.223L189.281 25.583L189.318 25.583C187.151 32.897 184.939 40.165 182.813 47.520L198.984 47.520L200.250 43.161L191.109 43.161L196.349 25.583L198.422 25.583Z"/><path d="M201.094 47.520L217.266 47.520C221.542 32.883 225.896 18.322 230.203 3.715L223.172 3.715L211.500 43.161L209.391 43.161L215.930 21.223L208.898 21.223C206.300 29.992 203.651 38.710 201.094 47.520Z"/><path d="M214.172 65.028L230.344 65.028C234.309 51.954 238.115 38.721 242.016 25.583L243.352 21.223L227.180 21.223C224.511 29.922 221.982 38.760 219.375 47.520L226.406 47.520L232.875 25.583L234.984 25.583L224.648 60.668L222.539 60.668L223.805 56.309L216.773 56.309C215.935 59.244 215.067 62.150 214.172 65.028Z"/><path d="M249.398 38.731L256.430 38.731C258.162 32.893 259.839 26.999 261.633 21.223L245.461 21.223L244.125 25.583L244.162 25.583C241.995 32.897 239.782 40.165 237.656 47.520L253.828 47.520L255.094 43.161L245.953 43.161L251.193 25.583L253.266 25.583Z"/></svg>