<svg version="1.1" xmlns="http://www.w3.org/2000/svg" xmlns:xlink="http://www.w3.org/1999/xlink" xmlns:inkscape="http://www.inkscape.org/namespaces/inkscape" width="303.328" height="61.313" viewBox="0 3.715311427116397 303.328125 61.31250107288361" stroke="none"><style>path { fill: #333; } @media (prefers-color-scheme: dark) { path { fill: #ccc; } }</style><path d="M0 47.520L7.031 47.520C10.469 35.817 13.986 24.193 17.367 12.434L19.969 3.715L12.938 3.715L10.336 12.434L4.711 12.434L3.445 16.864L9.070 16.864Z"/><path d="M18.281 47.520L25.313 47.520C27.919 38.759 30.449 29.922 33.117 21.223L23.977 21.223L29.109 3.715L22.078 3.715C19.919 11.002 17.838 18.366 15.609 25.583L9.141 47.520L16.172 47.520L22.641 25.583L24.750 25.583Z"/><path d="M44.508 13.454C44.489 11.502 42.949 9.973 40.992 9.973C39.023 9.973 37.477 11.520 37.477 13.489C37.477 15.387 39.023 16.934 40.992 16.934C42.949 16.934 44.489 15.406 44.508 13.454C44.508 13.442 44.508 13.430 44.508 13.418ZM27.422 47.520L34.453 47.520L42.258 21.223L35.227 21.223Z"/><path d="M44.578 44.145C44.578 42.176 43.031 40.629 41.063 40.629C39.164 40.629 37.617 42.176 37.617 44.145C37.617 46.114 39.164 47.661 41.133 47.661C43.102 47.661 44.648 46.114 44.648 44.145Z"/><path d="M54.844 47.520L61.875 47.520C64.481 38.759 67.012 29.922 69.680 21.223L53.508 21.223C50.839 29.922 48.310 38.760 45.703 47.520L52.734 47.520L59.203 25.583L61.313 25.583Z"/><path d="M58.781 65.028L74.953 65.028C78.918 51.954 82.725 38.721 86.625 25.583L87.961 21.223L71.789 21.223C69.121 29.922 66.591 38.760 63.984 47.520L71.016 47.520L77.484 25.583L79.594 25.583L69.258 60.668L67.148 60.668L68.414 56.309L61.383 56.309C60.544 59.244 59.677 62.150 58.781 65.028Z"/><path d="M77.063 65.028L84.094 65.028L102.234 3.715L95.203 3.715Z"/><path d="M91.406 47.520L98.438 47.520L111.375 3.715L104.344 3.715Z"/><path d="M112.289 38.731L119.320 38.731C121.053 32.893 122.729 26.999 124.523 21.223L108.352 21.223L107.016 25.583L107.052 25.583C104.885 32.897 102.673 40.165 100.547 47.520L116.719 47.520L117.984 43.161L108.844 43.161L114.083 25.583L116.156 25.583Z"/><path d="M118.828 47.520L135 47.520C137.125 40.176 139.314 32.896 141.469 25.583L142.805 21.223L126.633 21.223L125.297 25.583L134.438 25.583L129.234 43.161L127.125 43.161L131.063 30.012L124.031 30.012C122.296 35.847 120.518 41.640 118.828 47.520Z"/><path d="M146.250 47.520L153.281 47.520L155.883 38.731L148.022 34.379C151.490 32.905 155.000 31.471 158.484 30.012L161.086 21.223L154.055 21.223L151.453 30.012L149.011 31.028L157.078 3.715L150.047 3.715L140.995 34.364L140.977 34.372L140.990 34.379L137.109 47.520L144.141 47.520L147.034 37.725L148.852 38.731Z"/><path d="M159.328 65.028L166.359 65.028C168.514 57.737 170.709 50.487 172.828 43.161L179.367 21.223L172.336 21.223L165.797 43.161L163.688 43.161L170.227 21.223L163.195 21.223C160.597 29.992 157.948 38.710 155.391 47.520L164.531 47.520Z"/><path d="M177.539 34.372L193.711 34.372L195.047 30.012L178.875 30.012Z"/><path d="M191.953 47.520L208.125 47.520C210.682 38.710 213.332 29.992 215.930 21.223L208.898 21.223L202.359 43.161L200.250 43.161L211.922 3.715L204.891 3.715C200.583 18.321 196.231 32.883 191.953 47.520Z"/><path d="M210.234 47.520L226.406 47.520C228.963 38.710 231.613 29.992 234.211 21.223L227.180 21.223L220.641 43.161L218.531 43.161L225.070 21.223L218.039 21.223C215.441 29.992 212.791 38.710 210.234 47.520Z"/><path d="M242.859 30.012L249.891 30.012C250.721 27.046 251.588 24.116 252.492 21.223L236.320 21.223L234.984 25.583L235.021 25.583C232.854 32.897 230.642 40.165 228.516 47.520L244.688 47.520C245.534 44.570 246.402 41.641 247.289 38.731L240.258 38.731L238.922 43.161L236.813 43.161L242.052 25.583L244.125 25.583Z"/><path d="M255.938 47.520L262.969 47.520L265.570 38.731L257.709 34.379C261.178 32.905 264.688 31.471 268.172 30.012L270.773 21.223L263.742 21.223L261.141 30.012L258.699 31.028L266.766 3.715L259.734 3.715L250.682 34.364L250.664 34.372L250.678 34.379L246.797 47.520L253.828 47.520L256.721 37.725L258.539 38.731Z"/><path d="M276.820 38.731L283.852 38.731C285.584 32.893 287.261 26.999 289.055 21.223L272.883 21.223L271.547 25.583L271.583 25.583C269.417 32.897 267.204 40.165 265.078 47.520L281.250 47.520L282.516 43.161L273.375 43.161L278.615 25.583L280.688 25.583Z"/><path d="M283.359 47.520L290.391 47.520C293.828 35.817 297.345 24.193 300.727 12.434L303.328 3.715L296.297 3.715L293.695 12.434L288.070 12.434L286.805 16.864L292.430 16.864Z"/></svg>