<svg version="1.1" xmlns="http://www.w3.org/2000/svg" xmlns:xlink="http://www.w3.org/1999/xlink" xmlns:inkscape="http://www.inkscape.org/namespaces/inkscape" width="234.211" height="61.313" viewBox="0 3.715311427116397 234.2109385728836 61.31250107288361" stroke="none"><style>path { fill: #333; } @media (prefers-color-scheme: dark) { path { fill: #ccc; } }</style><path d="M0 47.520L7.031 47.520C10.469 35.817 13.986 24.193 17.367 12.434L19.969 3.715L12.938 3.715L10.336 12.434L4.711 12.434L3.445 16.864L9.070 16.864Z"/><path d="M18.281 47.520L25.313 47.520C27.919 38.759 30.449 29.922 33.117 21.223L23.977 21.223L29.109 3.715L22.078 3.715C19.919 11.002 17.838 18.366 15.609 25.583L9.141 47.520L16.172 47.520L22.641 25.583L24.750 25.583Z"/><path d="M44.508 13.454C44.489 11.502 42.949 9.973 40.992 9.973C39.023 9.973 37.477 11.520 37.477 13.489C37.477 15.387 39.023 16.934 40.992 16.934C42.949 16.934 44.489 15.406 44.508 13.454C44.508 13.442 44.508 13.430 44.508 13.418ZM27.422 47.520L34.453 47.520L42.258 21.223L35.227 21.223Z"/><path d="M44.578 44.145C44.578 42.176 43.031 40.629 41.063 40.629C39.164 40.629 37.617 42.176 37.617 44.145C37.617 46.114 39.164 47.661 41.133 47.661C43.102 47.661 44.648 46.114 44.648 44.145Z"/><path d="M54.844 47.520L61.875 47.520C64.481 38.759 67.012 29.922 69.680 21.223L53.508 21.223C50.839 29.922 48.310 38.760 45.703 47.520L52.734 47.520L59.203 25.583L61.313 25.583Z"/><path d="M58.781 65.028L74.953 65.028C78.918 51.954 82.725 38.721 86.625 25.583L87.961 21.223L71.789 21.223C69.121 29.922 66.591 38.760 63.984 47.520L71.016 47.520L77.484 25.583L79.594 25.583L69.258 60.668L67.148 60.668L68.414 56.309L61.383 56.309C60.544 59.244 59.677 62.150 58.781 65.028Z"/><path d="M77.063 65.028L84.094 65.028L102.234 3.715L95.203 3.715Z"/><path d="M109.688 47.520L116.719 47.520C119.325 38.759 121.855 29.922 124.523 21.223L99.211 21.223C96.543 29.922 94.013 38.760 91.406 47.520L98.438 47.520L104.906 25.583L107.016 25.583L100.547 47.520L107.578 47.520L114.047 25.583L116.156 25.583Z"/><path d="M133.172 30.012L140.203 30.012C141.034 27.046 141.901 24.116 142.805 21.223L126.633 21.223C125.729 24.116 124.861 27.046 124.031 30.012L130.570 38.731L129.234 43.161L127.125 43.161L128.461 38.731L121.430 38.731C120.543 41.641 119.675 44.570 118.828 47.520L135 47.520C135.847 44.570 136.715 41.641 137.602 38.731L131.063 30.012L132.328 25.583L134.438 25.583Z"/><path d="M131.906 65.028L148.078 65.028C152.043 51.954 155.850 38.721 159.750 25.583L161.086 21.223L144.914 21.223C142.246 29.922 139.716 38.760 137.109 47.520L144.141 47.520L150.609 25.583L152.719 25.583L142.383 60.668L140.273 60.668L141.539 56.309L134.508 56.309C133.669 59.244 132.802 62.150 131.906 65.028Z"/><path d="M164.531 47.520L171.563 47.520C174.169 38.759 176.699 29.922 179.367 21.223L163.195 21.223C158.792 35.757 154.533 50.436 150.188 65.028L157.219 65.028L168.891 25.583L171 25.583Z"/><path d="M173.672 47.520L189.844 47.520C191.969 40.176 194.158 32.896 196.313 25.583L197.648 21.223L181.477 21.223L180.141 25.583L189.281 25.583L184.078 43.161L181.969 43.161L185.906 30.012L178.875 30.012C177.139 35.847 175.362 41.640 173.672 47.520Z"/><path d="M206.297 30.012L213.328 30.012C214.159 27.046 215.026 24.116 215.930 21.223L199.758 21.223L198.422 25.583L198.458 25.583C196.292 32.897 194.079 40.165 191.953 47.520L208.125 47.520C208.972 44.570 209.840 41.641 210.727 38.731L203.695 38.731L202.359 43.161L200.250 43.161L205.490 25.583L207.563 25.583Z"/><path d="M219.375 47.520L226.406 47.520L229.008 38.731L221.147 34.379C224.615 32.905 228.125 31.471 231.609 30.012L234.211 21.223L227.180 21.223L224.578 30.012L222.136 31.028L230.203 3.715L223.172 3.715L214.120 34.364L214.102 34.372L214.115 34.379L210.234 47.520L217.266 47.520L220.159 37.725L221.977 38.731Z"/></svg>