<svg version="1.1" xmlns="http://www.w3.org/2000/svg" xmlns:xlink="http://www.w3.org/1999/xlink" xmlns:inkscape="http://www.inkscape.org/namespaces/inkscape" width="340.383" height="61.313" viewBox="0 3.715312500000003 340.3828125 61.31250000000001" stroke="none"><style>path { fill: #333; } @media (prefers-color-scheme: dark) { path { fill: #ccc; } }</style><path d="M0 47.520L7.031 47.520C10.469 35.817 13.986 24.193 17.367 12.434L19.969 3.715L12.938 3.715L10.336 12.434L4.711 12.434L3.445 16.864L9.070 16.864Z"/><path d="M18.281 47.520L25.313 47.520C27.919 38.759 30.449 29.922 33.117 21.223L23.977 21.223L29.109 3.715L22.078 3.715C19.919 11.002 17.838 18.366 15.609 25.583L9.141 47.520L16.172 47.520L22.641 25.583L24.750 25.583Z"/><path d="M44.508 13.454C44.489 11.502 42.949 9.973 40.992 9.973C39.023 9.973 37.477 11.520 37.477 13.489C37.477 15.387 39.023 16.934 40.992 16.934C42.949 16.934 44.489 15.406 44.508 13.454C44.508 13.442 44.508 13.430 44.508 13.418ZM27.422 47.520L34.453 47.520L42.258 21.223L35.227 21.223Z"/><path d="M44.578 44.145C44.578 42.176 43.031 40.629 41.063 40.629C39.164 40.629 37.617 42.176 37.617 44.145C37.617 46.114 39.164 47.661 41.133 47.661C43.102 47.661 44.648 46.114 44.648 44.145Z"/><path d="M54.844 47.520L61.875 47.520C64.481 38.759 67.012 29.922 69.680 21.223L53.508 21.223C50.839 29.922 48.310 38.760 45.703 47.520L52.734 47.520L59.203 25.583L61.313 25.583Z"/><path d="M58.781 65.028L74.953 65.028C78.918 51.954 82.725 38.721 86.625 25.583L87.961 21.223L71.789 21.223C69.121 29.922 66.591 38.760 63.984 47.520L71.016 47.520L77.484 25.583L79.594 25.583L69.258 60.668L67.148 60.668L68.414 56.309L61.383 56.309C60.544 59.244 59.677 62.150 58.781 65.028Z"/><path d="M77.063 65.028L84.094 65.028L102.234 3.715L95.203 3.715Z"/><path d="M105.750 30.012L112.781 30.012C113.612 27.046 114.479 24.116 115.383 21.223L99.211 21.223C96.543 29.922 94.013 38.760 91.406 47.520L98.438 47.520L104.906 25.583L107.016 25.583Z"/><path d="M109.688 47.520L125.859 47.520C127.985 40.176 130.173 32.896 132.328 25.583L133.664 21.223L117.492 21.223L116.156 25.583L125.297 25.583L120.094 43.161L117.984 43.161L121.922 30.012L114.891 30.012C113.155 35.847 111.377 41.640 109.688 47.520Z"/><path d="M137.109 47.520L144.141 47.520C146.747 38.759 149.277 29.922 151.945 21.223L135.773 21.223C133.105 29.922 130.576 38.760 127.969 47.520L135 47.520L141.469 25.583L143.578 25.583Z"/><path d="M146.250 47.520L162.422 47.520C166.699 32.883 171.052 18.322 175.359 3.715L168.328 3.715L156.656 43.161L154.547 43.161L161.086 21.223L154.055 21.223C151.456 29.992 148.807 38.710 146.250 47.520Z"/><path d="M164.531 47.520L180.703 47.520C182.828 40.176 185.017 32.896 187.172 25.583L188.508 21.223L172.336 21.223C170.099 28.479 167.979 35.851 165.797 43.161ZM180.141 25.583L174.938 43.161L172.828 43.161L178.031 25.583Z"/><path d="M201.094 47.520L208.125 47.520C210.731 38.759 213.262 29.922 215.930 21.223L190.617 21.223C187.949 29.922 185.419 38.760 182.813 47.520L189.844 47.520L196.313 25.583L198.422 25.583L191.953 47.520L198.984 47.520L205.453 25.583L207.563 25.583Z"/><path d="M214.102 34.372L230.273 34.372L231.609 30.012L215.438 30.012Z"/><path d="M228.516 47.520L235.547 47.520L242.016 25.583L247.641 25.583L248.977 21.223L243.352 21.223L257.625 3.715L250.594 3.715L236.320 21.223C233.652 29.922 231.122 38.760 228.516 47.520Z"/><path d="M252.422 47.520L259.453 47.520L262.055 38.731L258.785 34.372L264.656 30.012L267.258 21.223L260.227 21.223L257.625 30.012L256.270 31.018L255.516 30.012L258.117 21.223L251.086 21.223L248.484 30.012L251.754 34.372L245.883 38.731L243.281 47.520L250.313 47.520L252.914 38.731L254.269 37.725L255.023 38.731Z"/><path d="M270.703 47.520L277.734 47.520C280.341 38.759 282.871 29.922 285.539 21.223L276.398 21.223L281.531 3.715L274.500 3.715C272.341 11.002 270.260 18.366 268.031 25.583L261.563 47.520L268.594 47.520L275.063 25.583L277.172 25.583Z"/><path d="M279.844 47.520L296.016 47.520C298.141 40.176 300.330 32.896 302.484 25.583L303.820 21.223L287.648 21.223L286.313 25.583L295.453 25.583L290.250 43.161L288.141 43.161L292.078 30.012L285.047 30.012C283.311 35.847 281.534 41.640 279.844 47.520Z"/><path d="M312.469 30.012L319.500 30.012C320.331 27.046 321.197 24.116 322.102 21.223L305.930 21.223C305.026 24.116 304.158 27.046 303.328 30.012L309.867 38.731L308.531 43.161L306.422 43.161L307.758 38.731L300.727 38.731C299.840 41.641 298.972 44.570 298.125 47.520L314.297 47.520C315.144 44.570 316.012 41.641 316.898 38.731L310.359 30.012L311.625 25.583L313.734 25.583Z"/><path d="M325.547 47.520L332.578 47.520C335.184 38.759 337.715 29.922 340.383 21.223L331.242 21.223L336.375 3.715L329.344 3.715C327.185 11.002 325.103 18.366 322.875 25.583L316.406 47.520L323.438 47.520L329.906 25.583L332.016 25.583Z"/></svg>