<svg version="1.1" xmlns="http://www.w3.org/2000/svg" xmlns:xlink="http://www.w3.org/1999/xlink" xmlns:inkscape="http://www.inkscape.org/namespaces/inkscape" width="398.742" height="61.313" viewBox="0 3.715312500000003 398.7421875 61.31250000000001" stroke="none"><style>path { fill: #333; } @media (prefers-color-scheme: dark) { path { fill: #ccc; } }</style><path d="M0 47.520L7.031 47.520C10.469 35.817 13.986 24.193 17.367 12.434L19.969 3.715L12.938 3.715L10.336 12.434L4.711 12.434L3.445 16.864L9.070 16.864Z"/><path d="M18.281 47.520L25.313 47.520C27.919 38.759 30.449 29.922 33.117 21.223L23.977 21.223L29.109 3.715L22.078 3.715C19.919 11.002 17.838 18.366 15.609 25.583L9.141 47.520L16.172 47.520L22.641 25.583L24.750 25.583Z"/><path d="M44.508 13.454C44.489 11.502 42.949 9.973 40.992 9.973C39.023 9.973 37.477 11.520 37.477 13.489C37.477 15.387 39.023 16.934 40.992 16.934C42.949 16.934 44.489 15.406 44.508 13.454C44.508 13.442 44.508 13.430 44.508 13.418ZM27.422 47.520L34.453 47.520L42.258 21.223L35.227 21.223Z"/><path d="M44.578 44.145C44.578 42.176 43.031 40.629 41.063 40.629C39.164 40.629 37.617 42.176 37.617 44.145C37.617 46.114 39.164 47.661 41.133 47.661C43.102 47.661 44.648 46.114 44.648 44.145Z"/><path d="M54.844 47.520L61.875 47.520C64.481 38.759 67.012 29.922 69.680 21.223L53.508 21.223C50.839 29.922 48.310 38.760 45.703 47.520L52.734 47.520L59.203 25.583L61.313 25.583Z"/><path d="M58.781 65.028L74.953 65.028C78.918 51.954 82.725 38.721 86.625 25.583L87.961 21.223L71.789 21.223C69.121 29.922 66.591 38.760 63.984 47.520L71.016 47.520L77.484 25.583L79.594 25.583L69.258 60.668L67.148 60.668L68.414 56.309L61.383 56.309C60.544 59.244 59.677 62.150 58.781 65.028Z"/><path d="M77.063 65.028L84.094 65.028L102.234 3.715L95.203 3.715Z"/><path d="M86.203 65.028L102.375 65.028C106.340 51.954 110.146 38.721 114.047 25.583L115.383 21.223L99.211 21.223C96.543 29.922 94.013 38.760 91.406 47.520L98.438 47.520L104.906 25.583L107.016 25.583L96.680 60.668L94.570 60.668L95.836 56.309L88.805 56.309C87.966 59.244 87.099 62.150 86.203 65.028Z"/><path d="M121.430 38.731L128.461 38.731C130.193 32.893 131.870 26.999 133.664 21.223L117.492 21.223L116.156 25.583L116.193 25.583C114.026 32.897 111.814 40.165 109.688 47.520L125.859 47.520L127.125 43.161L117.984 43.161L123.224 25.583L125.297 25.583Z"/><path d="M127.969 47.520L144.141 47.520C146.266 40.176 148.455 32.896 150.609 25.583L151.945 21.223L135.773 21.223C133.537 28.479 131.416 35.851 129.234 43.161ZM143.578 25.583L138.375 43.161L136.266 43.161L141.469 25.583Z"/><path d="M164.531 47.520L171.563 47.520C174.169 38.759 176.699 29.922 179.367 21.223L154.055 21.223C151.386 29.922 148.857 38.760 146.250 47.520L153.281 47.520L159.750 25.583L161.859 25.583L155.391 47.520L162.422 47.520L168.891 25.583L171 25.583Z"/><path d="M177.539 34.372L193.711 34.372L195.047 30.012L178.875 30.012Z"/><path d="M191.953 47.520L198.984 47.520C202.422 35.817 205.939 24.193 209.320 12.434L211.922 3.715L204.891 3.715L202.289 12.434L196.664 12.434L195.398 16.864L201.023 16.864Z"/><path d="M215.438 30.012L222.469 30.012C223.299 27.046 224.166 24.116 225.070 21.223L208.898 21.223C206.230 29.922 203.701 38.760 201.094 47.520L208.125 47.520L214.594 25.583L216.703 25.583Z"/><path d="M219.375 47.520L235.547 47.520C237.672 40.176 239.861 32.896 242.016 25.583L243.352 21.223L227.180 21.223L225.844 25.583L234.984 25.583L229.781 43.161L227.672 43.161L231.609 30.012L224.578 30.012C222.842 35.847 221.065 41.640 219.375 47.520Z"/><path d="M252 30.012L259.031 30.012C259.862 27.046 260.729 24.116 261.633 21.223L245.461 21.223L244.125 25.583L244.162 25.583C241.995 32.897 239.782 40.165 237.656 47.520L253.828 47.520C254.675 44.570 255.543 41.641 256.430 38.731L249.398 38.731L248.063 43.161L245.953 43.161L251.193 25.583L253.266 25.583Z"/><path d="M267.680 38.731L274.711 38.731C276.443 32.893 278.120 26.999 279.914 21.223L263.742 21.223L262.406 25.583L262.443 25.583C260.276 32.897 258.064 40.165 255.938 47.520L272.109 47.520L273.375 43.161L264.234 43.161L269.474 25.583L271.547 25.583Z"/><path d="M278.086 34.372L294.258 34.372L295.594 30.012L279.422 30.012Z"/><path d="M292.500 47.520L308.672 47.520C311.229 38.710 313.879 29.992 316.477 21.223L309.445 21.223L302.906 43.161L300.797 43.161L312.469 3.715L305.438 3.715C301.129 18.321 296.778 32.883 292.500 47.520Z"/><path d="M327.867 13.454C327.849 11.502 326.309 9.973 324.352 9.973C322.383 9.973 320.836 11.520 320.836 13.489C320.836 15.387 322.383 16.934 324.352 16.934C326.309 16.934 327.849 15.406 327.867 13.454C327.867 13.442 327.867 13.430 327.867 13.418ZM310.781 47.520L317.813 47.520L325.617 21.223L318.586 21.223Z"/><path d="M319.922 47.520L326.953 47.520C330.391 35.817 333.908 24.193 337.289 12.434L339.891 3.715L332.859 3.715L330.258 12.434L324.633 12.434L323.367 16.864L328.992 16.864Z"/><path d="M347.344 47.520L354.375 47.520C356.981 38.759 359.512 29.922 362.180 21.223L336.867 21.223C334.199 29.922 331.669 38.760 329.063 47.520L336.094 47.520L342.563 25.583L344.672 25.583L338.203 47.520L345.234 47.520L351.703 25.583L353.813 25.583Z"/><path d="M356.484 47.520L372.656 47.520C374.781 40.176 376.970 32.896 379.125 25.583L380.461 21.223L364.289 21.223L362.953 25.583L372.094 25.583L366.891 43.161L364.781 43.161L368.719 30.012L361.688 30.012C359.952 35.847 358.174 41.640 356.484 47.520Z"/><path d="M383.906 47.520L390.938 47.520C393.544 38.759 396.074 29.922 398.742 21.223L382.570 21.223C378.167 35.757 373.908 50.436 369.563 65.028L376.594 65.028L388.266 25.583L390.375 25.583Z"/></svg>