<svg version="1.1" xmlns="http://www.w3.org/2000/svg" xmlns:xlink="http://www.w3.org/1999/xlink" xmlns:inkscape="http://www.inkscape.org/namespaces/inkscape" width="285.539" height="61.313" viewBox="0 3.715312500000003 285.5390625 61.31250000000001" stroke="none"><style>path { fill: #333; } @media (prefers-color-scheme: dark) { path { fill: #ccc; } }</style><path d="M0 47.520L7.031 47.520C10.469 35.817 13.986 24.193 17.367 12.434L19.969 3.715L12.938 3.715L10.336 12.434L4.711 12.434L3.445 16.864L9.070 16.864Z"/><path d="M18.281 47.520L25.313 47.520C27.919 38.759 30.449 29.922 33.117 21.223L23.977 21.223L29.109 3.715L22.078 3.715C19.919 11.002 17.838 18.366 15.609 25.583L9.141 47.520L16.172 47.520L22.641 25.583L24.750 25.583Z"/><path d="M44.508 13.454C44.489 11.502 42.949 9.973 40.992 9.973C39.023 9.973 37.477 11.520 37.477 13.489C37.477 15.387 39.023 16.934 40.992 16.934C42.949 16.934 44.489 15.406 44.508 13.454C44.508 13.442 44.508 13.430 44.508 13.418ZM27.422 47.520L34.453 47.520L42.258 21.223L35.227 21.223Z"/><path d="M44.578 44.145C44.578 42.176 43.031 40.629 41.063 40.629C39.164 40.629 37.617 42.176 37.617 44.145C37.617 46.114 39.164 47.661 41.133 47.661C43.102 47.661 44.648 46.114 44.648 44.145Z"/><path d="M54.844 47.520L61.875 47.520C64.481 38.759 67.012 29.922 69.680 21.223L53.508 21.223C50.839 29.922 48.310 38.760 45.703 47.520L52.734 47.520L59.203 25.583L61.313 25.583Z"/><path d="M58.781 65.028L74.953 65.028C78.918 51.954 82.725 38.721 86.625 25.583L87.961 21.223L71.789 21.223C69.121 29.922 66.591 38.760 63.984 47.520L71.016 47.520L77.484 25.583L79.594 25.583L69.258 60.668L67.148 60.668L68.414 56.309L61.383 56.309C60.544 59.244 59.677 62.150 58.781 65.028Z"/><path d="M77.063 65.028L84.094 65.028L102.234 3.715L95.203 3.715Z"/><path d="M97.031 47.520L104.063 47.520C107.500 35.817 111.017 24.193 114.398 12.434L117 3.715L109.969 3.715L107.367 12.434L101.742 12.434L100.477 16.864L106.102 16.864Z"/><path d="M117.914 38.731L124.945 38.731C126.678 32.893 128.354 26.999 130.148 21.223L113.977 21.223L112.641 25.583L112.677 25.583C110.510 32.897 108.298 40.165 106.172 47.520L122.344 47.520L123.609 43.161L114.469 43.161L119.708 25.583L121.781 25.583Z"/><path d="M133.594 47.520L140.625 47.520L143.227 38.731L139.957 34.372L145.828 30.012L148.430 21.223L141.398 21.223L138.797 30.012L137.442 31.018L136.688 30.012L139.289 21.223L132.258 21.223L129.656 30.012L132.926 34.372L127.055 38.731L124.453 47.520L131.484 47.520L134.086 38.731L135.441 37.725L136.195 38.731Z"/><path d="M142.734 47.520L149.766 47.520C153.203 35.817 156.720 24.193 160.102 12.434L162.703 3.715L155.672 3.715L153.070 12.434L147.445 12.434L146.180 16.864L151.805 16.864Z"/><path d="M155.742 34.372L171.914 34.372L173.250 30.012L157.078 30.012Z"/><path d="M184.500 30.012L191.531 30.012C192.362 27.046 193.229 24.116 194.133 21.223L177.961 21.223L176.625 25.583L176.662 25.583C174.495 32.897 172.282 40.165 170.156 47.520L186.328 47.520C187.175 44.570 188.043 41.641 188.930 38.731L181.898 38.731L180.563 43.161L178.453 43.161L183.693 25.583L185.766 25.583Z"/><path d="M188.438 47.520L204.609 47.520C206.735 40.176 208.923 32.896 211.078 25.583L212.414 21.223L196.242 21.223L194.906 25.583L204.047 25.583L198.844 43.161L196.734 43.161L200.672 30.012L193.641 30.012C191.905 35.847 190.127 41.640 188.438 47.520Z"/><path d="M215.859 47.520L222.891 47.520C225.497 38.759 228.027 29.922 230.695 21.223L214.523 21.223C211.855 29.922 209.326 38.760 206.719 47.520L213.750 47.520L220.219 25.583L222.328 25.583Z"/><path d="M236.742 38.731L234.039 40.754L239.836 21.223L232.805 21.223L225 47.520L232.031 47.520L243.773 38.731L248.977 21.223L241.945 21.223Z"/><path d="M243.281 47.520L259.453 47.520C261.578 40.176 263.767 32.896 265.922 25.583L267.258 21.223L251.086 21.223L249.750 25.583L258.891 25.583L253.688 43.161L251.578 43.161L255.516 30.012L248.484 30.012C246.749 35.847 244.971 41.640 243.281 47.520Z"/><path d="M275.906 30.012L282.938 30.012C283.768 27.046 284.635 24.116 285.539 21.223L269.367 21.223C268.464 24.116 267.596 27.046 266.766 30.012L273.305 38.731L271.969 43.161L269.859 43.161L271.195 38.731L264.164 38.731C263.277 41.641 262.409 44.570 261.563 47.520L277.734 47.520C278.581 44.570 279.449 41.641 280.336 38.731L273.797 30.012L275.063 25.583L277.172 25.583Z"/></svg>