<svg version="1.1" xmlns="http://www.w3.org/2000/svg" xmlns:xlink="http://www.w3.org/1999/xlink" xmlns:inkscape="http://www.inkscape.org/namespaces/inkscape" width="318.727" height="61.313" viewBox="0 3.715312500000003 318.7265635728836 61.31250000000001" stroke="none"><style>path { fill: #333; } @media (prefers-color-scheme: dark) { path { fill: #ccc; } }</style><path d="M0 47.520L7.031 47.520C10.469 35.817 13.986 24.193 17.367 12.434L19.969 3.715L12.938 3.715L10.336 12.434L4.711 12.434L3.445 16.864L9.070 16.864Z"/><path d="M18.281 47.520L25.313 47.520C27.919 38.759 30.449 29.922 33.117 21.223L23.977 21.223L29.109 3.715L22.078 3.715C19.919 11.002 17.838 18.366 15.609 25.583L9.141 47.520L16.172 47.520L22.641 25.583L24.750 25.583Z"/><path d="M44.508 13.454C44.489 11.502 42.949 9.973 40.992 9.973C39.023 9.973 37.477 11.520 37.477 13.489C37.477 15.387 39.023 16.934 40.992 16.934C42.949 16.934 44.489 15.406 44.508 13.454C44.508 13.442 44.508 13.430 44.508 13.418ZM27.422 47.520L34.453 47.520L42.258 21.223L35.227 21.223Z"/><path d="M44.578 44.145C44.578 42.176 43.031 40.629 41.063 40.629C39.164 40.629 37.617 42.176 37.617 44.145C37.617 46.114 39.164 47.661 41.133 47.661C43.102 47.661 44.648 46.114 44.648 44.145Z"/><path d="M54.844 47.520L61.875 47.520C64.481 38.759 67.012 29.922 69.680 21.223L53.508 21.223C50.839 29.922 48.310 38.760 45.703 47.520L52.734 47.520L59.203 25.583L61.313 25.583Z"/><path d="M58.781 65.028L74.953 65.028C78.918 51.954 82.725 38.721 86.625 25.583L87.961 21.223L71.789 21.223C69.121 29.922 66.591 38.760 63.984 47.520L71.016 47.520L77.484 25.583L79.594 25.583L69.258 60.668L67.148 60.668L68.414 56.309L61.383 56.309C60.544 59.244 59.677 62.150 58.781 65.028Z"/><path d="M77.063 65.028L84.094 65.028L102.234 3.715L95.203 3.715Z"/><path d="M86.203 65.028L102.375 65.028C106.340 51.954 110.146 38.721 114.047 25.583L115.383 21.223L99.211 21.223C96.543 29.922 94.013 38.760 91.406 47.520L98.438 47.520L104.906 25.583L107.016 25.583L96.680 60.668L94.570 60.668L95.836 56.309L88.805 56.309C87.966 59.244 87.099 62.150 86.203 65.028Z"/><path d="M121.430 38.731L128.461 38.731C130.193 32.893 131.870 26.999 133.664 21.223L117.492 21.223L116.156 25.583L116.193 25.583C114.026 32.897 111.814 40.165 109.688 47.520L125.859 47.520L127.125 43.161L117.984 43.161L123.224 25.583L125.297 25.583Z"/><path d="M127.969 47.520L144.141 47.520C146.266 40.176 148.455 32.896 150.609 25.583L151.945 21.223L135.773 21.223C133.537 28.479 131.416 35.851 129.234 43.161ZM143.578 25.583L138.375 43.161L136.266 43.161L141.469 25.583Z"/><path d="M164.531 47.520L171.563 47.520C174.169 38.759 176.699 29.922 179.367 21.223L154.055 21.223C151.386 29.922 148.857 38.760 146.250 47.520L153.281 47.520L159.750 25.583L161.859 25.583L155.391 47.520L162.422 47.520L168.891 25.583L171 25.583Z"/><path d="M177.539 34.372L193.711 34.372L195.047 30.012L178.875 30.012Z"/><path d="M203.695 38.731L200.992 40.754L206.789 21.223L199.758 21.223L191.953 47.520L198.984 47.520L210.727 38.731L215.930 21.223L208.898 21.223Z"/><path d="M210.234 47.520L226.406 47.520C228.531 40.176 230.720 32.896 232.875 25.583L234.211 21.223L218.039 21.223C215.803 28.479 213.682 35.851 211.500 43.161ZM225.844 25.583L220.641 43.161L218.531 43.161L223.734 25.583Z"/><path d="M242.859 30.012L249.891 30.012C250.721 27.046 251.588 24.116 252.492 21.223L236.320 21.223C233.652 29.922 231.122 38.760 228.516 47.520L235.547 47.520L242.016 25.583L244.125 25.583Z"/><path d="M246.797 47.520L262.969 47.520C265.094 40.176 267.283 32.896 269.438 25.583L270.773 21.223L254.602 21.223C252.365 28.479 250.245 35.851 248.063 43.161ZM262.406 25.583L257.203 43.161L255.094 43.161L260.297 25.583Z"/><path d="M274.219 47.520L281.250 47.520C283.856 38.759 286.387 29.922 289.055 21.223L272.883 21.223C270.214 29.922 267.685 38.760 265.078 47.520L272.109 47.520L278.578 25.583L280.688 25.583Z"/><path d="M283.359 47.520L299.531 47.520C301.656 40.176 303.845 32.896 306 25.583L307.336 21.223L291.164 21.223C288.928 28.479 286.807 35.851 284.625 43.161ZM298.969 25.583L293.766 43.161L291.656 43.161L296.859 25.583Z"/><path d="M318.726 13.454C318.708 11.502 317.168 9.973 315.211 9.973C313.242 9.973 311.695 11.520 311.695 13.489C311.695 15.387 313.242 16.934 315.211 16.934C317.168 16.934 318.708 15.406 318.726 13.454C318.726 13.442 318.727 13.430 318.727 13.418ZM301.641 47.520L308.672 47.520L316.477 21.223L309.445 21.223Z"/></svg>