<svg version="1.1" xmlns="http://www.w3.org/2000/svg" xmlns:xlink="http://www.w3.org/1999/xlink" xmlns:inkscape="http://www.inkscape.org/namespaces/inkscape" width="391.711" height="61.313" viewBox="0 3.715312500000003 391.7109375 61.31250000000001" stroke="none"><style>path { fill: #333; } @media (prefers-color-scheme: dark) { path { fill: #ccc; } }</style><path d="M0 47.520L7.031 47.520C10.469 35.817 13.986 24.193 17.367 12.434L19.969 3.715L12.938 3.715L10.336 12.434L4.711 12.434L3.445 16.864L9.070 16.864Z"/><path d="M18.281 47.520L25.313 47.520C27.919 38.759 30.449 29.922 33.117 21.223L23.977 21.223L29.109 3.715L22.078 3.715C19.919 11.002 17.838 18.366 15.609 25.583L9.141 47.520L16.172 47.520L22.641 25.583L24.750 25.583Z"/><path d="M44.508 13.454C44.489 11.502 42.949 9.973 40.992 9.973C39.023 9.973 37.477 11.520 37.477 13.489C37.477 15.387 39.023 16.934 40.992 16.934C42.949 16.934 44.489 15.406 44.508 13.454C44.508 13.442 44.508 13.430 44.508 13.418ZM27.422 47.520L34.453 47.520L42.258 21.223L35.227 21.223Z"/><path d="M44.578 44.145C44.578 42.176 43.031 40.629 41.063 40.629C39.164 40.629 37.617 42.176 37.617 44.145C37.617 46.114 39.164 47.661 41.133 47.661C43.102 47.661 44.648 46.114 44.648 44.145Z"/><path d="M54.844 47.520L61.875 47.520C64.481 38.759 67.012 29.922 69.680 21.223L53.508 21.223C50.839 29.922 48.310 38.760 45.703 47.520L52.734 47.520L59.203 25.583L61.313 25.583Z"/><path d="M58.781 65.028L74.953 65.028C78.918 51.954 82.725 38.721 86.625 25.583L87.961 21.223L71.789 21.223C69.121 29.922 66.591 38.760 63.984 47.520L71.016 47.520L77.484 25.583L79.594 25.583L69.258 60.668L67.148 60.668L68.414 56.309L61.383 56.309C60.544 59.244 59.677 62.150 58.781 65.028Z"/><path d="M77.063 65.028L84.094 65.028L102.234 3.715L95.203 3.715Z"/><path d="M97.031 47.520L104.063 47.520C107.500 35.817 111.017 24.193 114.398 12.434L117 3.715L109.969 3.715L107.367 12.434L101.742 12.434L100.477 16.864L106.102 16.864Z"/><path d="M117.914 38.731L124.945 38.731C126.678 32.893 128.354 26.999 130.148 21.223L113.977 21.223L112.641 25.583L112.677 25.583C110.510 32.897 108.298 40.165 106.172 47.520L122.344 47.520L123.609 43.161L114.469 43.161L119.708 25.583L121.781 25.583Z"/><path d="M133.594 47.520L140.625 47.520L143.227 38.731L139.957 34.372L145.828 30.012L148.430 21.223L141.398 21.223L138.797 30.012L137.442 31.018L136.688 30.012L139.289 21.223L132.258 21.223L129.656 30.012L132.926 34.372L127.055 38.731L124.453 47.520L131.484 47.520L134.086 38.731L135.441 37.725L136.195 38.731Z"/><path d="M142.734 47.520L149.766 47.520C153.203 35.817 156.720 24.193 160.102 12.434L162.703 3.715L155.672 3.715L153.070 12.434L147.445 12.434L146.180 16.864L151.805 16.864Z"/><path d="M155.742 34.372L171.914 34.372L173.250 30.012L157.078 30.012Z"/><path d="M170.156 47.520L177.188 47.520L183.656 25.583L189.281 25.583L190.617 21.223L184.992 21.223L199.266 3.715L192.234 3.715L177.961 21.223C175.293 29.922 172.763 38.760 170.156 47.520Z"/><path d="M184.922 47.520L201.094 47.520C203.219 40.176 205.408 32.896 207.563 25.583L208.898 21.223L192.727 21.223C190.490 28.479 188.370 35.851 186.188 43.161ZM200.531 25.583L195.328 43.161L193.219 43.161L198.422 25.583Z"/><path d="M217.547 30.012L224.578 30.012C225.409 27.046 226.276 24.116 227.180 21.223L211.008 21.223C208.339 29.922 205.810 38.760 203.203 47.520L210.234 47.520L216.703 25.583L218.813 25.583Z"/><path d="M239.766 47.520L246.797 47.520C249.403 38.759 251.934 29.922 254.602 21.223L229.289 21.223C226.621 29.922 224.091 38.760 221.484 47.520L228.516 47.520L234.984 25.583L237.094 25.583L230.625 47.520L237.656 47.520L244.125 25.583L246.234 25.583Z"/><path d="M248.906 47.520L265.078 47.520C267.203 40.176 269.392 32.896 271.547 25.583L272.883 21.223L256.711 21.223L255.375 25.583L264.516 25.583L259.313 43.161L257.203 43.161L261.141 30.012L254.109 30.012C252.374 35.847 250.596 41.640 248.906 47.520Z"/><path d="M267.188 47.520L274.219 47.520C277.656 35.817 281.173 24.193 284.555 12.434L287.156 3.715L280.125 3.715L277.523 12.434L271.898 12.434L270.633 16.864L276.258 16.864Z"/><path d="M280.195 34.372L296.367 34.372L297.703 30.012L281.531 30.012Z"/><path d="M311.695 13.454C311.677 11.502 310.137 9.973 308.180 9.973C306.211 9.973 304.664 11.520 304.664 13.489C304.664 15.387 306.211 16.934 308.180 16.934C310.137 16.934 311.677 15.406 311.695 13.454C311.695 13.442 311.695 13.430 311.695 13.418ZM294.609 47.520L301.641 47.520L309.445 21.223L302.414 21.223Z"/><path d="M322.031 47.520L329.063 47.520C331.669 38.759 334.199 29.922 336.867 21.223L311.555 21.223C308.886 29.922 306.357 38.760 303.750 47.520L310.781 47.520L317.250 25.583L319.359 25.583L312.891 47.520L319.922 47.520L326.391 25.583L328.500 25.583Z"/><path d="M331.172 47.520L347.344 47.520C349.469 40.176 351.658 32.896 353.813 25.583L355.148 21.223L338.977 21.223L337.641 25.583L346.781 25.583L341.578 43.161L339.469 43.161L343.406 30.012L336.375 30.012C334.639 35.847 332.862 41.640 331.172 47.520Z"/><path d="M344.250 65.028L360.422 65.028C364.387 51.954 368.193 38.721 372.094 25.583L373.430 21.223L357.258 21.223C354.589 29.922 352.060 38.760 349.453 47.520L356.484 47.520L362.953 25.583L365.063 25.583L354.727 60.668L352.617 60.668L353.883 56.309L346.852 56.309C346.013 59.244 345.145 62.150 344.250 65.028Z"/><path d="M379.477 38.731L386.508 38.731C388.240 32.893 389.917 26.999 391.711 21.223L375.539 21.223L374.203 25.583L374.240 25.583C372.073 32.897 369.861 40.165 367.734 47.520L383.906 47.520L385.172 43.161L376.031 43.161L381.271 25.583L383.344 25.583Z"/></svg>