<svg version="1.1" xmlns="http://www.w3.org/2000/svg" xmlns:xlink="http://www.w3.org/1999/xlink" xmlns:inkscape="http://www.inkscape.org/namespaces/inkscape" width="184.500" height="61.313" viewBox="0 3.715311427116397 184.5 61.31250107288361" stroke="none"><style>path { fill: #333; } @media (prefers-color-scheme: dark) { path { fill: #ccc; } }</style><path d="M0 47.520L7.031 47.520C10.469 35.817 13.986 24.193 17.367 12.434L19.969 3.715L12.938 3.715L10.336 12.434L4.711 12.434L3.445 16.864L9.070 16.864Z"/><path d="M18.281 47.520L25.313 47.520C27.919 38.759 30.449 29.922 33.117 21.223L23.977 21.223L29.109 3.715L22.078 3.715C19.919 11.002 17.838 18.366 15.609 25.583L9.141 47.520L16.172 47.520L22.641 25.583L24.750 25.583Z"/><path d="M44.508 13.454C44.489 11.502 42.949 9.973 40.992 9.973C39.023 9.973 37.477 11.520 37.477 13.489C37.477 15.387 39.023 16.934 40.992 16.934C42.949 16.934 44.489 15.406 44.508 13.454C44.508 13.442 44.508 13.430 44.508 13.418ZM27.422 47.520L34.453 47.520L42.258 21.223L35.227 21.223Z"/><path d="M44.578 44.145C44.578 42.176 43.031 40.629 41.063 40.629C39.164 40.629 37.617 42.176 37.617 44.145C37.617 46.114 39.164 47.661 41.133 47.661C43.102 47.661 44.648 46.114 44.648 44.145Z"/><path d="M54.844 47.520L61.875 47.520C64.481 38.759 67.012 29.922 69.680 21.223L53.508 21.223C50.839 29.922 48.310 38.760 45.703 47.520L52.734 47.520L59.203 25.583L61.313 25.583Z"/><path d="M58.781 65.028L74.953 65.028C78.918 51.954 82.725 38.721 86.625 25.583L87.961 21.223L71.789 21.223C69.121 29.922 66.591 38.760 63.984 47.520L71.016 47.520L77.484 25.583L79.594 25.583L69.258 60.668L67.148 60.668L68.414 56.309L61.383 56.309C60.544 59.244 59.677 62.150 58.781 65.028Z"/><path d="M77.063 65.028L84.094 65.028L102.234 3.715L95.203 3.715Z"/><path d="M100.547 47.520L107.578 47.520L110.180 38.731L102.319 34.379C105.787 32.905 109.297 31.471 112.781 30.012L115.383 21.223L108.352 21.223L105.750 30.012L103.308 31.028L111.375 3.715L104.344 3.715L95.292 34.364L95.273 34.372L95.287 34.379L91.406 47.520L98.438 47.520L101.331 37.725L103.148 38.731Z"/><path d="M124.031 30.012L131.063 30.012C131.893 27.046 132.760 24.116 133.664 21.223L117.492 21.223C116.589 24.116 115.721 27.046 114.891 30.012L121.430 38.731L120.094 43.161L117.984 43.161L119.320 38.731L112.289 38.731C111.402 41.641 110.534 44.570 109.688 47.520L125.859 47.520C126.706 44.570 127.574 41.641 128.461 38.731L121.922 30.012L123.188 25.583L125.297 25.583Z"/><path d="M127.969 47.520L144.141 47.520C146.697 38.710 149.347 29.992 151.945 21.223L144.914 21.223L138.375 43.161L136.266 43.161L142.805 21.223L135.773 21.223C133.175 29.992 130.526 38.710 127.969 47.520Z"/><path d="M163.336 13.454C163.317 11.502 161.777 9.973 159.820 9.973C157.852 9.973 156.305 11.520 156.305 13.489C156.305 15.387 157.852 16.934 159.820 16.934C161.777 16.934 163.317 15.406 163.336 13.454C163.336 13.442 163.336 13.430 163.336 13.418ZM146.250 47.520L153.281 47.520L161.086 21.223L154.055 21.223Z"/><path d="M155.391 47.520L171.563 47.520C175.839 32.883 180.193 18.322 184.500 3.715L177.469 3.715L165.797 43.161L163.688 43.161L170.227 21.223L163.195 21.223C160.597 29.992 157.948 38.710 155.391 47.520Z"/></svg>