<svg version="1.1" xmlns="http://www.w3.org/2000/svg" xmlns:xlink="http://www.w3.org/1999/xlink" xmlns:inkscape="http://www.inkscape.org/namespaces/inkscape" width="404.367" height="61.313" viewBox="0 3.715312500000003 404.3671875 61.31250000000001" stroke="none"><style>path { fill: #333; } @media (prefers-color-scheme: dark) { path { fill: #ccc; } }</style><path d="M0 47.520L7.031 47.520C10.469 35.817 13.986 24.193 17.367 12.434L19.969 3.715L12.938 3.715L10.336 12.434L4.711 12.434L3.445 16.864L9.070 16.864Z"/><path d="M18.281 47.520L25.313 47.520C27.919 38.759 30.449 29.922 33.117 21.223L23.977 21.223L29.109 3.715L22.078 3.715C19.919 11.002 17.838 18.366 15.609 25.583L9.141 47.520L16.172 47.520L22.641 25.583L24.750 25.583Z"/><path d="M44.508 13.454C44.489 11.502 42.949 9.973 40.992 9.973C39.023 9.973 37.477 11.520 37.477 13.489C37.477 15.387 39.023 16.934 40.992 16.934C42.949 16.934 44.489 15.406 44.508 13.454C44.508 13.442 44.508 13.430 44.508 13.418ZM27.422 47.520L34.453 47.520L42.258 21.223L35.227 21.223Z"/><path d="M44.578 44.145C44.578 42.176 43.031 40.629 41.063 40.629C39.164 40.629 37.617 42.176 37.617 44.145C37.617 46.114 39.164 47.661 41.133 47.661C43.102 47.661 44.648 46.114 44.648 44.145Z"/><path d="M54.844 47.520L61.875 47.520C64.481 38.759 67.012 29.922 69.680 21.223L53.508 21.223C50.839 29.922 48.310 38.760 45.703 47.520L52.734 47.520L59.203 25.583L61.313 25.583Z"/><path d="M58.781 65.028L74.953 65.028C78.918 51.954 82.725 38.721 86.625 25.583L87.961 21.223L71.789 21.223C69.121 29.922 66.591 38.760 63.984 47.520L71.016 47.520L77.484 25.583L79.594 25.583L69.258 60.668L67.148 60.668L68.414 56.309L61.383 56.309C60.544 59.244 59.677 62.150 58.781 65.028Z"/><path d="M77.063 65.028L84.094 65.028L102.234 3.715L95.203 3.715Z"/><path d="M91.406 47.520L107.578 47.520C111.855 32.883 116.208 18.322 120.516 3.715L113.484 3.715L101.813 43.161L99.703 43.161L106.242 21.223L99.211 21.223C96.613 29.992 93.963 38.710 91.406 47.520Z"/><path d="M126.773 13.454C126.755 11.502 125.215 9.973 123.258 9.973C121.289 9.973 119.742 11.520 119.742 13.489C119.742 15.387 121.289 16.934 123.258 16.934C125.215 16.934 126.755 15.406 126.773 13.454C126.773 13.442 126.773 13.430 126.773 13.418ZM109.688 47.520L116.719 47.520L124.523 21.223L117.492 21.223Z"/><path d="M133.172 30.012L140.203 30.012C141.034 27.046 141.901 24.116 142.805 21.223L126.633 21.223C125.729 24.116 124.861 27.046 124.031 30.012L130.570 38.731L129.234 43.161L127.125 43.161L128.461 38.731L121.430 38.731C120.543 41.641 119.675 44.570 118.828 47.520L135 47.520C135.847 44.570 136.715 41.641 137.602 38.731L131.063 30.012L132.328 25.583L134.438 25.583Z"/><path d="M137.109 47.520L144.141 47.520C147.578 35.817 151.095 24.193 154.477 12.434L157.078 3.715L150.047 3.715L147.445 12.434L141.820 12.434L140.555 16.864L146.180 16.864Z"/><path d="M146.250 47.520L162.422 47.520C164.547 40.176 166.736 32.896 168.891 25.583L170.227 21.223L154.055 21.223L152.719 25.583L161.859 25.583L156.656 43.161L154.547 43.161L158.484 30.012L151.453 30.012C149.717 35.847 147.940 41.640 146.250 47.520Z"/><path d="M173.672 47.520L180.703 47.520C183.309 38.759 185.840 29.922 188.508 21.223L172.336 21.223C169.668 29.922 167.138 38.760 164.531 47.520L171.563 47.520L178.031 25.583L180.141 25.583Z"/><path d="M197.156 30.012L204.188 30.012C205.018 27.046 205.885 24.116 206.789 21.223L190.617 21.223L189.281 25.583L189.318 25.583C187.151 32.897 184.939 40.165 182.813 47.520L198.984 47.520C199.831 44.570 200.699 41.641 201.586 38.731L194.555 38.731L193.219 43.161L191.109 43.161L196.349 25.583L198.422 25.583Z"/><path d="M212.836 38.731L219.867 38.731C221.599 32.893 223.276 26.999 225.070 21.223L208.898 21.223L207.563 25.583L207.599 25.583C205.432 32.897 203.220 40.165 201.094 47.520L217.266 47.520L218.531 43.161L209.391 43.161L214.630 25.583L216.703 25.583Z"/><path d="M223.242 34.372L239.414 34.372L240.750 30.012L224.578 30.012Z"/><path d="M237.656 47.520L244.688 47.520C248.125 35.817 251.642 24.193 255.023 12.434L257.625 3.715L250.594 3.715L247.992 12.434L242.367 12.434L241.102 16.864L246.727 16.864Z"/><path d="M261.141 30.012L268.172 30.012C269.003 27.046 269.869 24.116 270.773 21.223L254.602 21.223C251.933 29.922 249.404 38.760 246.797 47.520L253.828 47.520L260.297 25.583L262.406 25.583Z"/><path d="M265.078 47.520L281.250 47.520C283.375 40.176 285.564 32.896 287.719 25.583L289.055 21.223L272.883 21.223L271.547 25.583L280.688 25.583L275.484 43.161L273.375 43.161L277.313 30.012L270.281 30.012C268.546 35.847 266.768 41.640 265.078 47.520Z"/><path d="M292.500 47.520L299.531 47.520C302.138 38.759 304.668 29.922 307.336 21.223L291.164 21.223C288.496 29.922 285.966 38.760 283.359 47.520L290.391 47.520L296.859 25.583L298.969 25.583Z"/><path d="M315.984 30.012L323.016 30.012C323.846 27.046 324.713 24.116 325.617 21.223L309.445 21.223C308.542 24.116 307.674 27.046 306.844 30.012L313.383 38.731L312.047 43.161L309.938 43.161L311.273 38.731L304.242 38.731C303.356 41.641 302.487 44.570 301.641 47.520L317.813 47.520C318.659 44.570 319.527 41.641 320.414 38.731L313.875 30.012L315.141 25.583L317.250 25.583Z"/><path d="M319.922 47.520L326.953 47.520L333.422 25.583L339.047 25.583L340.383 21.223L334.758 21.223L349.031 3.715L342 3.715L327.727 21.223C325.058 29.922 322.529 38.760 319.922 47.520Z"/><path d="M334.688 47.520L350.859 47.520C352.985 40.176 355.173 32.896 357.328 25.583L358.664 21.223L342.492 21.223C340.256 28.479 338.135 35.851 335.953 43.161ZM350.297 25.583L345.094 43.161L342.984 43.161L348.188 25.583Z"/><path d="M367.313 30.012L374.344 30.012C375.174 27.046 376.041 24.116 376.945 21.223L360.773 21.223C358.105 29.922 355.576 38.760 352.969 47.520L360 47.520L366.469 25.583L368.578 25.583Z"/><path d="M389.531 47.520L396.563 47.520C399.169 38.759 401.699 29.922 404.367 21.223L379.055 21.223C376.386 29.922 373.857 38.760 371.250 47.520L378.281 47.520L384.750 25.583L386.859 25.583L380.391 47.520L387.422 47.520L393.891 25.583L396 25.583Z"/></svg>