<svg version="1.1" xmlns="http://www.w3.org/2000/svg" xmlns:xlink="http://www.w3.org/1999/xlink" xmlns:inkscape="http://www.inkscape.org/namespaces/inkscape" width="316.477" height="61.313" viewBox="0 3.715312500000003 316.4765625 61.31250000000001" stroke="none"><style>path { fill: #333; } @media (prefers-color-scheme: dark) { path { fill: #ccc; } }</style><path d="M0 47.520L7.031 47.520C10.469 35.817 13.986 24.193 17.367 12.434L19.969 3.715L12.938 3.715L10.336 12.434L4.711 12.434L3.445 16.864L9.070 16.864Z"/><path d="M18.281 47.520L25.313 47.520C27.919 38.759 30.449 29.922 33.117 21.223L23.977 21.223L29.109 3.715L22.078 3.715C19.919 11.002 17.838 18.366 15.609 25.583L9.141 47.520L16.172 47.520L22.641 25.583L24.750 25.583Z"/><path d="M44.508 13.454C44.489 11.502 42.949 9.973 40.992 9.973C39.023 9.973 37.477 11.520 37.477 13.489C37.477 15.387 39.023 16.934 40.992 16.934C42.949 16.934 44.489 15.406 44.508 13.454C44.508 13.442 44.508 13.430 44.508 13.418ZM27.422 47.520L34.453 47.520L42.258 21.223L35.227 21.223Z"/><path d="M44.578 44.145C44.578 42.176 43.031 40.629 41.063 40.629C39.164 40.629 37.617 42.176 37.617 44.145C37.617 46.114 39.164 47.661 41.133 47.661C43.102 47.661 44.648 46.114 44.648 44.145Z"/><path d="M54.844 47.520L61.875 47.520C64.481 38.759 67.012 29.922 69.680 21.223L53.508 21.223C50.839 29.922 48.310 38.760 45.703 47.520L52.734 47.520L59.203 25.583L61.313 25.583Z"/><path d="M58.781 65.028L74.953 65.028C78.918 51.954 82.725 38.721 86.625 25.583L87.961 21.223L71.789 21.223C69.121 29.922 66.591 38.760 63.984 47.520L71.016 47.520L77.484 25.583L79.594 25.583L69.258 60.668L67.148 60.668L68.414 56.309L61.383 56.309C60.544 59.244 59.677 62.150 58.781 65.028Z"/><path d="M77.063 65.028L84.094 65.028L102.234 3.715L95.203 3.715Z"/><path d="M100.547 47.520L107.578 47.520C110.184 38.759 112.715 29.922 115.383 21.223L99.211 21.223C94.807 35.757 90.549 50.436 86.203 65.028L93.234 65.028L104.906 25.583L107.016 25.583Z"/><path d="M126.773 13.454C126.755 11.502 125.215 9.973 123.258 9.973C121.289 9.973 119.742 11.520 119.742 13.489C119.742 15.387 121.289 16.934 123.258 16.934C125.215 16.934 126.755 15.406 126.773 13.454C126.773 13.442 126.773 13.430 126.773 13.418ZM109.688 47.520L116.719 47.520L124.523 21.223L117.492 21.223Z"/><path d="M127.969 47.520L135 47.520L137.602 38.731L134.332 34.372L140.203 30.012L142.805 21.223L135.773 21.223L133.172 30.012L131.817 31.018L131.063 30.012L133.664 21.223L126.633 21.223L124.031 30.012L127.301 34.372L121.430 38.731L118.828 47.520L125.859 47.520L128.461 38.731L129.816 37.725L130.570 38.731Z"/><path d="M148.852 38.731L155.883 38.731C157.615 32.893 159.292 26.999 161.086 21.223L144.914 21.223L143.578 25.583L143.615 25.583C141.448 32.897 139.236 40.165 137.109 47.520L153.281 47.520L154.547 43.161L145.406 43.161L150.646 25.583L152.719 25.583Z"/><path d="M155.391 47.520L162.422 47.520L175.359 3.715L168.328 3.715Z"/><path d="M168.398 34.372L184.570 34.372L185.906 30.012L169.734 30.012Z"/><path d="M182.813 47.520L198.984 47.520C201.110 40.176 203.298 32.896 205.453 25.583L206.789 21.223L190.617 21.223L189.281 25.583L198.422 25.583L193.219 43.161L191.109 43.161L195.047 30.012L188.016 30.012C186.280 35.847 184.502 41.640 182.813 47.520Z"/><path d="M210.234 47.520L217.266 47.520C219.872 38.759 222.402 29.922 225.070 21.223L208.898 21.223C206.230 29.922 203.701 38.760 201.094 47.520L208.125 47.520L214.594 25.583L216.703 25.583Z"/><path d="M219.375 47.520L235.547 47.520C237.672 40.176 239.861 32.896 242.016 25.583L243.352 21.223L227.180 21.223L225.844 25.583L234.984 25.583L229.781 43.161L227.672 43.161L231.609 30.012L224.578 30.012C222.842 35.847 221.065 41.640 219.375 47.520Z"/><path d="M237.656 47.520L244.688 47.520L257.625 3.715L250.594 3.715Z"/><path d="M250.734 65.028L257.766 65.028C259.920 57.737 262.115 50.487 264.234 43.161L270.773 21.223L263.742 21.223L257.203 43.161L255.094 43.161L261.633 21.223L254.602 21.223C252.003 29.992 249.354 38.710 246.797 47.520L255.938 47.520Z"/><path d="M279.422 30.012L286.453 30.012C287.284 27.046 288.151 24.116 289.055 21.223L272.883 21.223C271.979 24.116 271.111 27.046 270.281 30.012L276.820 38.731L275.484 43.161L273.375 43.161L274.711 38.731L267.680 38.731C266.793 41.641 265.925 44.570 265.078 47.520L281.250 47.520C282.097 44.570 282.965 41.641 283.852 38.731L277.313 30.012L278.578 25.583L280.688 25.583Z"/><path d="M300.445 13.454C300.427 11.502 298.887 9.973 296.930 9.973C294.961 9.973 293.414 11.520 293.414 13.489C293.414 15.387 294.961 16.934 296.930 16.934C298.887 16.934 300.427 15.406 300.445 13.454C300.445 13.442 300.445 13.430 300.445 13.418ZM283.359 47.520L290.391 47.520L298.195 21.223L291.164 21.223Z"/><path d="M306.844 30.012L313.875 30.012C314.706 27.046 315.572 24.116 316.477 21.223L300.305 21.223C299.401 24.116 298.533 27.046 297.703 30.012L304.242 38.731L302.906 43.161L300.797 43.161L302.133 38.731L295.102 38.731C294.215 41.641 293.347 44.570 292.500 47.520L308.672 47.520C309.519 44.570 310.387 41.641 311.273 38.731L304.734 30.012L306 25.583L308.109 25.583Z"/></svg>