<svg version="1.1" xmlns="http://www.w3.org/2000/svg" xmlns:xlink="http://www.w3.org/1999/xlink" xmlns:inkscape="http://www.inkscape.org/namespaces/inkscape" width="194.133" height="61.313" viewBox="0 3.715312500000003 194.1328125 61.31250000000001" stroke="none"><style>path { fill: #333; } @media (prefers-color-scheme: dark) { path { fill: #ccc; } }</style><path d="M0 47.520L7.031 47.520C10.469 35.817 13.986 24.193 17.367 12.434L19.969 3.715L12.938 3.715L10.336 12.434L4.711 12.434L3.445 16.864L9.070 16.864Z"/><path d="M18.281 47.520L25.313 47.520C27.919 38.759 30.449 29.922 33.117 21.223L23.977 21.223L29.109 3.715L22.078 3.715C19.919 11.002 17.838 18.366 15.609 25.583L9.141 47.520L16.172 47.520L22.641 25.583L24.750 25.583Z"/><path d="M44.508 13.454C44.489 11.502 42.949 9.973 40.992 9.973C39.023 9.973 37.477 11.520 37.477 13.489C37.477 15.387 39.023 16.934 40.992 16.934C42.949 16.934 44.489 15.406 44.508 13.454C44.508 13.442 44.508 13.430 44.508 13.418ZM27.422 47.520L34.453 47.520L42.258 21.223L35.227 21.223Z"/><path d="M44.578 44.145C44.578 42.176 43.031 40.629 41.063 40.629C39.164 40.629 37.617 42.176 37.617 44.145C37.617 46.114 39.164 47.661 41.133 47.661C43.102 47.661 44.648 46.114 44.648 44.145Z"/><path d="M54.844 47.520L61.875 47.520C64.481 38.759 67.012 29.922 69.680 21.223L53.508 21.223C50.839 29.922 48.310 38.760 45.703 47.520L52.734 47.520L59.203 25.583L61.313 25.583Z"/><path d="M58.781 65.028L74.953 65.028C78.918 51.954 82.725 38.721 86.625 25.583L87.961 21.223L71.789 21.223C69.121 29.922 66.591 38.760 63.984 47.520L71.016 47.520L77.484 25.583L79.594 25.583L69.258 60.668L67.148 60.668L68.414 56.309L61.383 56.309C60.544 59.244 59.677 62.150 58.781 65.028Z"/><path d="M77.063 65.028L84.094 65.028L102.234 3.715L95.203 3.715Z"/><path d="M91.406 47.520L98.438 47.520L104.906 25.583L110.531 25.583L111.867 21.223L106.242 21.223L120.516 3.715L113.484 3.715L99.211 21.223C96.543 29.922 94.013 38.760 91.406 47.520Z"/><path d="M123.258 13.454C123.239 11.502 121.699 9.973 119.742 9.973C117.773 9.973 116.227 11.520 116.227 13.489C116.227 15.387 117.773 16.934 119.742 16.934C121.699 16.934 123.239 15.406 123.258 13.454C123.258 13.442 123.258 13.430 123.258 13.418ZM106.172 47.520L113.203 47.520L121.008 21.223L113.977 21.223Z"/><path d="M115.313 47.520L122.344 47.520L135.281 3.715L128.250 3.715Z"/><path d="M136.195 38.731L143.227 38.731C144.959 32.893 146.636 26.999 148.430 21.223L132.258 21.223L130.922 25.583L130.958 25.583C128.792 32.897 126.579 40.165 124.453 47.520L140.625 47.520L141.891 43.161L132.750 43.161L137.990 25.583L140.063 25.583Z"/><path d="M146.602 34.372L162.773 34.372L164.109 30.012L147.938 30.012Z"/><path d="M178.101 13.454C178.083 11.502 176.543 9.973 174.586 9.973C172.617 9.973 171.070 11.520 171.070 13.489C171.070 15.387 172.617 16.934 174.586 16.934C176.543 16.934 178.083 15.406 178.101 13.454C178.101 13.442 178.102 13.430 178.102 13.418ZM161.016 47.520L168.047 47.520L175.852 21.223L168.820 21.223Z"/><path d="M170.156 47.520L186.328 47.520C188.453 40.176 190.642 32.896 192.797 25.583L194.133 21.223L177.961 21.223C175.724 28.479 173.604 35.851 171.422 43.161ZM185.766 25.583L180.563 43.161L178.453 43.161L183.656 25.583Z"/></svg>