<svg version="1.1" xmlns="http://www.w3.org/2000/svg" xmlns:xlink="http://www.w3.org/1999/xlink" xmlns:inkscape="http://www.inkscape.org/namespaces/inkscape" width="322.102" height="61.313" viewBox="0 3.715312500000003 322.1015625 61.31250000000001" stroke="none"><style>path { fill: #333; } @media (prefers-color-scheme: dark) { path { fill: #ccc; } }</style><path d="M0 47.520L7.031 47.520C10.469 35.817 13.986 24.193 17.367 12.434L19.969 3.715L12.938 3.715L10.336 12.434L4.711 12.434L3.445 16.864L9.070 16.864Z"/><path d="M18.281 47.520L25.313 47.520C27.919 38.759 30.449 29.922 33.117 21.223L23.977 21.223L29.109 3.715L22.078 3.715C19.919 11.002 17.838 18.366 15.609 25.583L9.141 47.520L16.172 47.520L22.641 25.583L24.750 25.583Z"/><path d="M44.508 13.454C44.489 11.502 42.949 9.973 40.992 9.973C39.023 9.973 37.477 11.520 37.477 13.489C37.477 15.387 39.023 16.934 40.992 16.934C42.949 16.934 44.489 15.406 44.508 13.454C44.508 13.442 44.508 13.430 44.508 13.418ZM27.422 47.520L34.453 47.520L42.258 21.223L35.227 21.223Z"/><path d="M44.578 44.145C44.578 42.176 43.031 40.629 41.063 40.629C39.164 40.629 37.617 42.176 37.617 44.145C37.617 46.114 39.164 47.661 41.133 47.661C43.102 47.661 44.648 46.114 44.648 44.145Z"/><path d="M54.844 47.520L61.875 47.520C64.481 38.759 67.012 29.922 69.680 21.223L53.508 21.223C50.839 29.922 48.310 38.760 45.703 47.520L52.734 47.520L59.203 25.583L61.313 25.583Z"/><path d="M58.781 65.028L74.953 65.028C78.918 51.954 82.725 38.721 86.625 25.583L87.961 21.223L71.789 21.223C69.121 29.922 66.591 38.760 63.984 47.520L71.016 47.520L77.484 25.583L79.594 25.583L69.258 60.668L67.148 60.668L68.414 56.309L61.383 56.309C60.544 59.244 59.677 62.150 58.781 65.028Z"/><path d="M77.063 65.028L84.094 65.028L102.234 3.715L95.203 3.715Z"/><path d="M100.547 47.520L107.578 47.520C110.184 38.759 112.715 29.922 115.383 21.223L99.211 21.223C94.807 35.757 90.549 50.436 86.203 65.028L93.234 65.028L104.906 25.583L107.016 25.583Z"/><path d="M109.688 47.520L125.859 47.520C127.985 40.176 130.173 32.896 132.328 25.583L133.664 21.223L117.492 21.223C115.256 28.479 113.135 35.851 110.953 43.161ZM125.297 25.583L120.094 43.161L117.984 43.161L123.188 25.583Z"/><path d="M145.055 13.454C145.036 11.502 143.496 9.973 141.539 9.973C139.570 9.973 138.023 11.520 138.023 13.489C138.023 15.387 139.570 16.934 141.539 16.934C143.496 16.934 145.036 15.406 145.055 13.454C145.055 13.442 145.055 13.430 145.055 13.418ZM127.969 47.520L135.000 47.520L142.805 21.223L135.773 21.223Z"/><path d="M146.250 47.520L153.281 47.520C155.888 38.759 158.418 29.922 161.086 21.223L144.914 21.223C142.246 29.922 139.716 38.760 137.109 47.520L144.141 47.520L150.609 25.583L152.719 25.583Z"/><path d="M155.391 47.520L162.422 47.520C165.859 35.817 169.377 24.193 172.758 12.434L175.359 3.715L168.328 3.715L165.727 12.434L160.102 12.434L158.836 16.864L164.461 16.864Z"/><path d="M164.531 47.520L171.563 47.520L178.031 25.583L183.656 25.583L184.992 21.223L179.367 21.223L193.641 3.715L186.609 3.715L172.336 21.223C169.668 29.922 167.138 38.760 164.531 47.520Z"/><path d="M193.641 30.012L200.672 30.012C201.503 27.046 202.369 24.116 203.273 21.223L187.102 21.223C184.433 29.922 181.904 38.760 179.297 47.520L186.328 47.520L192.797 25.583L194.906 25.583Z"/><path d="M209.320 38.731L216.352 38.731C218.084 32.893 219.761 26.999 221.555 21.223L205.383 21.223L204.047 25.583L204.083 25.583C201.917 32.897 199.704 40.165 197.578 47.520L213.750 47.520L215.016 43.161L205.875 43.161L211.115 25.583L213.188 25.583Z"/><path d="M227.602 38.731L234.633 38.731C236.365 32.893 238.042 26.999 239.836 21.223L223.664 21.223L222.328 25.583L222.365 25.583C220.198 32.897 217.986 40.165 215.859 47.520L232.031 47.520L233.297 43.161L224.156 43.161L229.396 25.583L231.469 25.583Z"/><path d="M238.008 34.372L254.180 34.372L255.516 30.012L239.344 30.012Z"/><path d="M252.422 47.520L259.453 47.520L272.391 3.715L265.359 3.715Z"/><path d="M261.563 47.520L277.734 47.520C279.860 40.176 282.048 32.896 284.203 25.583L285.539 21.223L269.367 21.223L268.031 25.583L277.172 25.583L271.969 43.161L269.859 43.161L273.797 30.012L266.766 30.012C265.030 35.847 263.252 41.640 261.563 47.520Z"/><path d="M288.984 47.520L296.016 47.520C298.622 38.759 301.152 29.922 303.820 21.223L287.648 21.223C284.980 29.922 282.451 38.760 279.844 47.520L286.875 47.520L293.344 25.583L295.453 25.583Z"/><path d="M292.922 65.028L309.094 65.028C313.059 51.954 316.865 38.721 320.766 25.583L322.102 21.223L305.930 21.223C303.261 29.922 300.732 38.760 298.125 47.520L305.156 47.520L311.625 25.583L313.734 25.583L303.398 60.668L301.289 60.668L302.555 56.309L295.523 56.309C294.685 59.244 293.817 62.150 292.922 65.028Z"/></svg>