<svg version="1.1" xmlns="http://www.w3.org/2000/svg" xmlns:xlink="http://www.w3.org/1999/xlink" xmlns:inkscape="http://www.inkscape.org/namespaces/inkscape" width="234.211" height="61.313" viewBox="0 3.715312500000003 234.2109375 61.31250000000001" stroke="none"><style>path { fill: #333; } @media (prefers-color-scheme: dark) { path { fill: #ccc; } }</style><path d="M0 47.520L7.031 47.520C10.469 35.817 13.986 24.193 17.367 12.434L19.969 3.715L12.938 3.715L10.336 12.434L4.711 12.434L3.445 16.864L9.070 16.864Z"/><path d="M18.281 47.520L25.313 47.520C27.919 38.759 30.449 29.922 33.117 21.223L23.977 21.223L29.109 3.715L22.078 3.715C19.919 11.002 17.838 18.366 15.609 25.583L9.141 47.520L16.172 47.520L22.641 25.583L24.750 25.583Z"/><path d="M44.508 13.454C44.489 11.502 42.949 9.973 40.992 9.973C39.023 9.973 37.477 11.520 37.477 13.489C37.477 15.387 39.023 16.934 40.992 16.934C42.949 16.934 44.489 15.406 44.508 13.454C44.508 13.442 44.508 13.430 44.508 13.418ZM27.422 47.520L34.453 47.520L42.258 21.223L35.227 21.223Z"/><path d="M44.578 44.145C44.578 42.176 43.031 40.629 41.063 40.629C39.164 40.629 37.617 42.176 37.617 44.145C37.617 46.114 39.164 47.661 41.133 47.661C43.102 47.661 44.648 46.114 44.648 44.145Z"/><path d="M54.844 47.520L61.875 47.520C64.481 38.759 67.012 29.922 69.680 21.223L53.508 21.223C50.839 29.922 48.310 38.760 45.703 47.520L52.734 47.520L59.203 25.583L61.313 25.583Z"/><path d="M58.781 65.028L74.953 65.028C78.918 51.954 82.725 38.721 86.625 25.583L87.961 21.223L71.789 21.223C69.121 29.922 66.591 38.760 63.984 47.520L71.016 47.520L77.484 25.583L79.594 25.583L69.258 60.668L67.148 60.668L68.414 56.309L61.383 56.309C60.544 59.244 59.677 62.150 58.781 65.028Z"/><path d="M77.063 65.028L84.094 65.028L102.234 3.715L95.203 3.715Z"/><path d="M91.406 47.520L107.578 47.520C110.135 38.710 112.785 29.992 115.383 21.223L108.352 21.223L101.813 43.161L99.703 43.161L111.375 3.715L104.344 3.715C100.036 18.321 95.684 32.883 91.406 47.520Z"/><path d="M109.688 47.520L116.719 47.520L129.656 3.715L122.625 3.715Z"/><path d="M118.828 47.520L135 47.520C137.557 38.710 140.207 29.992 142.805 21.223L135.773 21.223L129.234 43.161L127.125 43.161L133.664 21.223L126.633 21.223C124.035 29.992 121.385 38.710 118.828 47.520Z"/><path d="M151.453 30.012L158.484 30.012C159.315 27.046 160.182 24.116 161.086 21.223L144.914 21.223C142.246 29.922 139.716 38.760 137.109 47.520L144.141 47.520L150.609 25.583L152.719 25.583Z"/><path d="M164.531 47.520L171.563 47.520C174.169 38.759 176.699 29.922 179.367 21.223L170.227 21.223L175.359 3.715L168.328 3.715C166.169 11.002 164.088 18.366 161.859 25.583L155.391 47.520L162.422 47.520L168.891 25.583L171 25.583Z"/><path d="M173.672 47.520L189.844 47.520C191.969 40.176 194.158 32.896 196.313 25.583L197.648 21.223L181.477 21.223L180.141 25.583L189.281 25.583L184.078 43.161L181.969 43.161L185.906 30.012L178.875 30.012C177.139 35.847 175.362 41.640 173.672 47.520Z"/><path d="M206.297 30.012L213.328 30.012C214.159 27.046 215.026 24.116 215.930 21.223L199.758 21.223C198.854 24.116 197.986 27.046 197.156 30.012L203.695 38.731L202.359 43.161L200.250 43.161L201.586 38.731L194.555 38.731C193.668 41.641 192.800 44.570 191.953 47.520L208.125 47.520C208.972 44.570 209.840 41.641 210.727 38.731L204.188 30.012L205.453 25.583L207.563 25.583Z"/><path d="M219.375 47.520L226.406 47.520C229.013 38.759 231.543 29.922 234.211 21.223L225.070 21.223L230.203 3.715L223.172 3.715C221.013 11.002 218.931 18.366 216.703 25.583L210.234 47.520L217.266 47.520L223.734 25.583L225.844 25.583Z"/></svg>