<svg version="1.1" xmlns="http://www.w3.org/2000/svg" xmlns:xlink="http://www.w3.org/1999/xlink" xmlns:inkscape="http://www.inkscape.org/namespaces/inkscape" width="234.211" height="61.313" viewBox="0 3.715312500000003 234.2109375 61.31250000000001" stroke="none"><style>path { fill: #333; } @media (prefers-color-scheme: dark) { path { fill: #ccc; } }</style><path d="M0 47.520L7.031 47.520C10.469 35.817 13.986 24.193 17.367 12.434L19.969 3.715L12.938 3.715L10.336 12.434L4.711 12.434L3.445 16.864L9.070 16.864Z"/><path d="M18.281 47.520L25.313 47.520C27.919 38.759 30.449 29.922 33.117 21.223L23.977 21.223L29.109 3.715L22.078 3.715C19.919 11.002 17.838 18.366 15.609 25.583L9.141 47.520L16.172 47.520L22.641 25.583L24.750 25.583Z"/><path d="M44.508 13.454C44.489 11.502 42.949 9.973 40.992 9.973C39.023 9.973 37.477 11.520 37.477 13.489C37.477 15.387 39.023 16.934 40.992 16.934C42.949 16.934 44.489 15.406 44.508 13.454C44.508 13.442 44.508 13.430 44.508 13.418ZM27.422 47.520L34.453 47.520L42.258 21.223L35.227 21.223Z"/><path d="M44.578 44.145C44.578 42.176 43.031 40.629 41.063 40.629C39.164 40.629 37.617 42.176 37.617 44.145C37.617 46.114 39.164 47.661 41.133 47.661C43.102 47.661 44.648 46.114 44.648 44.145Z"/><path d="M54.844 47.520L61.875 47.520C64.481 38.759 67.012 29.922 69.680 21.223L53.508 21.223C50.839 29.922 48.310 38.760 45.703 47.520L52.734 47.520L59.203 25.583L61.313 25.583Z"/><path d="M58.781 65.028L74.953 65.028C78.918 51.954 82.725 38.721 86.625 25.583L87.961 21.223L71.789 21.223C69.121 29.922 66.591 38.760 63.984 47.520L71.016 47.520L77.484 25.583L79.594 25.583L69.258 60.668L67.148 60.668L68.414 56.309L61.383 56.309C60.544 59.244 59.677 62.150 58.781 65.028Z"/><path d="M77.063 65.028L84.094 65.028L102.234 3.715L95.203 3.715Z"/><path d="M108.492 13.454C108.474 11.502 106.934 9.973 104.977 9.973C103.008 9.973 101.461 11.520 101.461 13.489C101.461 15.387 103.008 16.934 104.977 16.934C106.934 16.934 108.474 15.406 108.492 13.454C108.492 13.442 108.492 13.430 108.492 13.418ZM91.406 47.520L98.438 47.520L106.242 21.223L99.211 21.223Z"/><path d="M109.688 47.520L116.719 47.520C119.325 38.759 121.855 29.922 124.523 21.223L108.352 21.223C105.683 29.922 103.154 38.760 100.547 47.520L107.578 47.520L114.047 25.583L116.156 25.583Z"/><path d="M118.828 47.520L125.859 47.520C129.297 35.817 132.814 24.193 136.195 12.434L138.797 3.715L131.766 3.715L129.164 12.434L123.539 12.434L122.273 16.864L127.898 16.864Z"/><path d="M139.711 38.731L146.742 38.731C148.474 32.893 150.151 26.999 151.945 21.223L135.773 21.223L134.438 25.583L134.474 25.583C132.307 32.897 130.095 40.165 127.969 47.520L144.141 47.520L145.406 43.161L136.266 43.161L141.505 25.583L143.578 25.583Z"/><path d="M160.594 30.012L167.625 30.012C168.456 27.046 169.322 24.116 170.227 21.223L154.055 21.223C151.386 29.922 148.857 38.760 146.250 47.520L153.281 47.520L159.750 25.583L161.859 25.583Z"/><path d="M176.273 38.731L173.571 40.754L179.367 21.223L172.336 21.223L164.531 47.520L171.563 47.520L183.305 38.731L188.508 21.223L181.477 21.223Z"/><path d="M182.813 47.520L198.984 47.520C201.110 40.176 203.298 32.896 205.453 25.583L206.789 21.223L190.617 21.223L189.281 25.583L198.422 25.583L193.219 43.161L191.109 43.161L195.047 30.012L188.016 30.012C186.280 35.847 184.502 41.640 182.813 47.520Z"/><path d="M201.094 47.520L208.125 47.520L221.063 3.715L214.031 3.715Z"/><path d="M224.578 30.012L231.609 30.012C232.440 27.046 233.307 24.116 234.211 21.223L218.039 21.223C217.135 24.116 216.268 27.046 215.438 30.012L221.977 38.731L220.641 43.161L218.531 43.161L219.867 38.731L212.836 38.731C211.949 41.641 211.081 44.570 210.234 47.520L226.406 47.520C227.253 44.570 228.121 41.641 229.008 38.731L222.469 30.012L223.734 25.583L225.844 25.583Z"/></svg>