<svg version="1.1" xmlns="http://www.w3.org/2000/svg" xmlns:xlink="http://www.w3.org/1999/xlink" xmlns:inkscape="http://www.inkscape.org/namespaces/inkscape" width="188.508" height="61.313" viewBox="0 3.715312500000003 188.5078125 61.31250000000001" stroke="none"><style>path { fill: #333; } @media (prefers-color-scheme: dark) { path { fill: #ccc; } }</style><path d="M0 47.520L7.031 47.520C10.469 35.817 13.986 24.193 17.367 12.434L19.969 3.715L12.938 3.715L10.336 12.434L4.711 12.434L3.445 16.864L9.070 16.864Z"/><path d="M18.281 47.520L25.313 47.520C27.919 38.759 30.449 29.922 33.117 21.223L23.977 21.223L29.109 3.715L22.078 3.715C19.919 11.002 17.838 18.366 15.609 25.583L9.141 47.520L16.172 47.520L22.641 25.583L24.750 25.583Z"/><path d="M44.508 13.454C44.489 11.502 42.949 9.973 40.992 9.973C39.023 9.973 37.477 11.520 37.477 13.489C37.477 15.387 39.023 16.934 40.992 16.934C42.949 16.934 44.489 15.406 44.508 13.454C44.508 13.442 44.508 13.430 44.508 13.418ZM27.422 47.520L34.453 47.520L42.258 21.223L35.227 21.223Z"/><path d="M44.578 44.145C44.578 42.176 43.031 40.629 41.063 40.629C39.164 40.629 37.617 42.176 37.617 44.145C37.617 46.114 39.164 47.661 41.133 47.661C43.102 47.661 44.648 46.114 44.648 44.145Z"/><path d="M54.844 47.520L61.875 47.520C64.481 38.759 67.012 29.922 69.680 21.223L53.508 21.223C50.839 29.922 48.310 38.760 45.703 47.520L52.734 47.520L59.203 25.583L61.313 25.583Z"/><path d="M58.781 65.028L74.953 65.028C78.918 51.954 82.725 38.721 86.625 25.583L87.961 21.223L71.789 21.223C69.121 29.922 66.591 38.760 63.984 47.520L71.016 47.520L77.484 25.583L79.594 25.583L69.258 60.668L67.148 60.668L68.414 56.309L61.383 56.309C60.544 59.244 59.677 62.150 58.781 65.028Z"/><path d="M77.063 65.028L84.094 65.028L102.234 3.715L95.203 3.715Z"/><path d="M91.406 47.520L107.578 47.520C111.855 32.883 116.208 18.322 120.516 3.715L113.484 3.715L101.813 43.161L99.703 43.161L106.242 21.223L99.211 21.223C96.613 29.992 93.963 38.710 91.406 47.520Z"/><path d="M109.688 47.520L116.719 47.520L129.656 3.715L122.625 3.715Z"/><path d="M118.828 47.520L135 47.520C137.125 40.176 139.314 32.896 141.469 25.583L142.805 21.223L126.633 21.223C124.396 28.479 122.276 35.851 120.094 43.161ZM134.438 25.583L129.234 43.161L127.125 43.161L132.328 25.583Z"/><path d="M131.906 65.028L148.078 65.028C152.043 51.954 155.850 38.721 159.750 25.583L161.086 21.223L144.914 21.223C142.246 29.922 139.716 38.760 137.109 47.520L144.141 47.520L150.609 25.583L152.719 25.583L142.383 60.668L140.273 60.668L141.539 56.309L134.508 56.309C133.669 59.244 132.802 62.150 131.906 65.028Z"/><path d="M172.476 13.454C172.458 11.502 170.918 9.973 168.961 9.973C166.992 9.973 165.445 11.520 165.445 13.489C165.445 15.387 166.992 16.934 168.961 16.934C170.918 16.934 172.458 15.406 172.476 13.454C172.476 13.442 172.477 13.430 172.477 13.418ZM155.391 47.520L162.422 47.520L170.227 21.223L163.195 21.223Z"/><path d="M178.875 30.012L185.906 30.012C186.737 27.046 187.604 24.116 188.508 21.223L172.336 21.223L171 25.583L171.037 25.583C168.870 32.897 166.657 40.165 164.531 47.520L180.703 47.520C181.550 44.570 182.418 41.641 183.305 38.731L176.273 38.731L174.938 43.161L172.828 43.161L178.068 25.583L180.141 25.583Z"/></svg>