<svg version="1.1" xmlns="http://www.w3.org/2000/svg" xmlns:xlink="http://www.w3.org/1999/xlink" xmlns:inkscape="http://www.inkscape.org/namespaces/inkscape" width="298.195" height="61.313" viewBox="0 3.715312500000003 298.1953125 61.31250000000001" stroke="none"><style>path { fill: #333; } @media (prefers-color-scheme: dark) { path { fill: #ccc; } }</style><path d="M0 47.520L7.031 47.520C10.469 35.817 13.986 24.193 17.367 12.434L19.969 3.715L12.938 3.715L10.336 12.434L4.711 12.434L3.445 16.864L9.070 16.864Z"/><path d="M18.281 47.520L25.313 47.520C27.919 38.759 30.449 29.922 33.117 21.223L23.977 21.223L29.109 3.715L22.078 3.715C19.919 11.002 17.838 18.366 15.609 25.583L9.141 47.520L16.172 47.520L22.641 25.583L24.750 25.583Z"/><path d="M44.508 13.454C44.489 11.502 42.949 9.973 40.992 9.973C39.023 9.973 37.477 11.520 37.477 13.489C37.477 15.387 39.023 16.934 40.992 16.934C42.949 16.934 44.489 15.406 44.508 13.454C44.508 13.442 44.508 13.430 44.508 13.418ZM27.422 47.520L34.453 47.520L42.258 21.223L35.227 21.223Z"/><path d="M44.578 44.145C44.578 42.176 43.031 40.629 41.063 40.629C39.164 40.629 37.617 42.176 37.617 44.145C37.617 46.114 39.164 47.661 41.133 47.661C43.102 47.661 44.648 46.114 44.648 44.145Z"/><path d="M54.844 47.520L61.875 47.520C64.481 38.759 67.012 29.922 69.680 21.223L53.508 21.223C50.839 29.922 48.310 38.760 45.703 47.520L52.734 47.520L59.203 25.583L61.313 25.583Z"/><path d="M58.781 65.028L74.953 65.028C78.918 51.954 82.725 38.721 86.625 25.583L87.961 21.223L71.789 21.223C69.121 29.922 66.591 38.760 63.984 47.520L71.016 47.520L77.484 25.583L79.594 25.583L69.258 60.668L67.148 60.668L68.414 56.309L61.383 56.309C60.544 59.244 59.677 62.150 58.781 65.028Z"/><path d="M77.063 65.028L84.094 65.028L102.234 3.715L95.203 3.715Z"/><path d="M105.750 30.012L112.781 30.012C113.612 27.046 114.479 24.116 115.383 21.223L99.211 21.223C96.543 29.922 94.013 38.760 91.406 47.520L98.438 47.520L104.906 25.583L107.016 25.583Z"/><path d="M121.430 38.731L128.461 38.731C130.193 32.893 131.870 26.999 133.664 21.223L117.492 21.223L116.156 25.583L116.193 25.583C114.026 32.897 111.814 40.165 109.688 47.520L125.859 47.520L127.125 43.161L117.984 43.161L123.224 25.583L125.297 25.583Z"/><path d="M142.313 30.012L149.344 30.012C150.174 27.046 151.041 24.116 151.945 21.223L135.773 21.223C134.870 24.116 134.002 27.046 133.172 30.012L139.711 38.731L138.375 43.161L136.266 43.161L137.602 38.731L130.570 38.731C129.684 41.641 128.815 44.570 127.969 47.520L144.141 47.520C144.988 44.570 145.855 41.641 146.742 38.731L140.203 30.012L141.469 25.583L143.578 25.583Z"/><path d="M146.250 47.520L162.422 47.520C164.547 40.176 166.736 32.896 168.891 25.583L170.227 21.223L154.055 21.223C151.818 28.479 149.698 35.851 147.516 43.161ZM161.859 25.583L156.656 43.161L154.547 43.161L159.750 25.583Z"/><path d="M164.531 47.520L171.563 47.520L184.500 3.715L177.469 3.715Z"/><path d="M185.414 38.731L182.711 40.754L188.508 21.223L181.477 21.223L173.672 47.520L180.703 47.520L192.445 38.731L197.648 21.223L190.617 21.223Z"/><path d="M203.695 38.731L210.727 38.731C212.459 32.893 214.136 26.999 215.930 21.223L199.758 21.223L198.422 25.583L198.458 25.583C196.292 32.897 194.079 40.165 191.953 47.520L208.125 47.520L209.391 43.161L200.250 43.161L205.490 25.583L207.563 25.583Z"/><path d="M214.102 34.372L230.273 34.372L231.609 30.012L215.438 30.012Z"/><path d="M246.797 47.520L253.828 47.520C256.434 38.759 258.965 29.922 261.633 21.223L236.320 21.223C233.652 29.922 231.122 38.760 228.516 47.520L235.547 47.520L242.016 25.583L244.125 25.583L237.656 47.520L244.688 47.520L251.156 25.583L253.266 25.583Z"/><path d="M255.938 47.520L272.109 47.520C274.235 40.176 276.423 32.896 278.578 25.583L279.914 21.223L263.742 21.223L262.406 25.583L271.547 25.583L266.344 43.161L264.234 43.161L268.172 30.012L261.141 30.012C259.405 35.847 257.627 41.640 255.938 47.520Z"/><path d="M283.359 47.520L290.391 47.520C292.997 38.759 295.527 29.922 298.195 21.223L282.023 21.223C277.620 35.757 273.361 50.436 269.016 65.028L276.047 65.028L287.719 25.583L289.828 25.583Z"/></svg>