<svg version="1.1" xmlns="http://www.w3.org/2000/svg" xmlns:xlink="http://www.w3.org/1999/xlink" xmlns:inkscape="http://www.inkscape.org/namespaces/inkscape" width="294.188" height="61.313" viewBox="0 3.715312500000003 294.1875 61.31250000000001" stroke="none"><style>path { fill: #333; } @media (prefers-color-scheme: dark) { path { fill: #ccc; } }</style><path d="M0 47.520L7.031 47.520C10.469 35.817 13.986 24.193 17.367 12.434L19.969 3.715L12.938 3.715L10.336 12.434L4.711 12.434L3.445 16.864L9.070 16.864Z"/><path d="M18.281 47.520L25.313 47.520C27.919 38.759 30.449 29.922 33.117 21.223L23.977 21.223L29.109 3.715L22.078 3.715C19.919 11.002 17.838 18.366 15.609 25.583L9.141 47.520L16.172 47.520L22.641 25.583L24.750 25.583Z"/><path d="M44.508 13.454C44.489 11.502 42.949 9.973 40.992 9.973C39.023 9.973 37.477 11.520 37.477 13.489C37.477 15.387 39.023 16.934 40.992 16.934C42.949 16.934 44.489 15.406 44.508 13.454C44.508 13.442 44.508 13.430 44.508 13.418ZM27.422 47.520L34.453 47.520L42.258 21.223L35.227 21.223Z"/><path d="M44.578 44.145C44.578 42.176 43.031 40.629 41.063 40.629C39.164 40.629 37.617 42.176 37.617 44.145C37.617 46.114 39.164 47.661 41.133 47.661C43.102 47.661 44.648 46.114 44.648 44.145Z"/><path d="M54.844 47.520L61.875 47.520C64.481 38.759 67.012 29.922 69.680 21.223L53.508 21.223C50.839 29.922 48.310 38.760 45.703 47.520L52.734 47.520L59.203 25.583L61.313 25.583Z"/><path d="M58.781 65.028L74.953 65.028C78.918 51.954 82.725 38.721 86.625 25.583L87.961 21.223L71.789 21.223C69.121 29.922 66.591 38.760 63.984 47.520L71.016 47.520L77.484 25.583L79.594 25.583L69.258 60.668L67.148 60.668L68.414 56.309L61.383 56.309C60.544 59.244 59.677 62.150 58.781 65.028Z"/><path d="M77.063 65.028L84.094 65.028L102.234 3.715L95.203 3.715Z"/><path d="M91.406 47.520L116.719 47.520C119.275 38.710 121.926 29.992 124.523 21.223L117.492 21.223L110.953 43.161L108.844 43.161L115.383 21.223L108.352 21.223L101.813 43.161L99.703 43.161L106.242 21.223L99.211 21.223C96.613 29.992 93.963 38.710 91.406 47.520Z"/><path d="M130.570 38.731L137.602 38.731C139.334 32.893 141.011 26.999 142.805 21.223L126.633 21.223L125.297 25.583L125.333 25.583C123.167 32.897 120.954 40.165 118.828 47.520L135 47.520L136.266 43.161L127.125 43.161L132.365 25.583L134.438 25.583Z"/><path d="M137.109 47.520L153.281 47.520C155.838 38.710 158.488 29.992 161.086 21.223L154.055 21.223L147.516 43.161L145.406 43.161L157.078 3.715L150.047 3.715C145.739 18.321 141.387 32.883 137.109 47.520Z"/><path d="M150.188 65.028L166.359 65.028C170.325 51.954 174.131 38.721 178.031 25.583L179.367 21.223L163.195 21.223C160.527 29.922 157.997 38.760 155.391 47.520L162.422 47.520L168.891 25.583L171 25.583L160.664 60.668L158.555 60.668L159.820 56.309L152.789 56.309C151.950 59.244 151.083 62.150 150.188 65.028Z"/><path d="M173.672 47.520L180.703 47.520L193.641 3.715L186.609 3.715Z"/><path d="M186.680 34.372L202.852 34.372L204.188 30.012L188.016 30.012Z"/><path d="M219.375 47.520L226.406 47.520C229.013 38.759 231.543 29.922 234.211 21.223L208.898 21.223C206.230 29.922 203.701 38.760 201.094 47.520L208.125 47.520L214.594 25.583L216.703 25.583L210.234 47.520L217.266 47.520L223.734 25.583L225.844 25.583Z"/><path d="M242.859 30.012L249.891 30.012C250.721 27.046 251.588 24.116 252.492 21.223L236.320 21.223C235.417 24.116 234.549 27.046 233.719 30.012L240.258 38.731L238.922 43.161L236.813 43.161L238.148 38.731L231.117 38.731C230.231 41.641 229.362 44.570 228.516 47.520L244.688 47.520C245.534 44.570 246.402 41.641 247.289 38.731L240.750 30.012L242.016 25.583L244.125 25.583Z"/><path d="M246.797 47.520L262.969 47.520C267.245 32.883 271.599 18.322 275.906 3.715L268.875 3.715L257.203 43.161L255.094 43.161L261.633 21.223L254.602 21.223C252.003 29.992 249.354 38.710 246.797 47.520Z"/><path d="M265.078 47.520L272.109 47.520L278.578 25.583L284.203 25.583L285.539 21.223L279.914 21.223L294.188 3.715L287.156 3.715L272.883 21.223C270.214 29.922 267.685 38.760 265.078 47.520Z"/></svg>