<svg version="1.1" xmlns="http://www.w3.org/2000/svg" xmlns:xlink="http://www.w3.org/1999/xlink" xmlns:inkscape="http://www.inkscape.org/namespaces/inkscape" width="225.070" height="61.313" viewBox="0 3.715312500000003 225.0703125 61.31250000000001" stroke="none"><style>path { fill: #333; } @media (prefers-color-scheme: dark) { path { fill: #ccc; } }</style><path d="M0 47.520L7.031 47.520C10.469 35.817 13.986 24.193 17.367 12.434L19.969 3.715L12.938 3.715L10.336 12.434L4.711 12.434L3.445 16.864L9.070 16.864Z"/><path d="M18.281 47.520L25.313 47.520C27.919 38.759 30.449 29.922 33.117 21.223L23.977 21.223L29.109 3.715L22.078 3.715C19.919 11.002 17.838 18.366 15.609 25.583L9.141 47.520L16.172 47.520L22.641 25.583L24.750 25.583Z"/><path d="M44.508 13.454C44.489 11.502 42.949 9.973 40.992 9.973C39.023 9.973 37.477 11.520 37.477 13.489C37.477 15.387 39.023 16.934 40.992 16.934C42.949 16.934 44.489 15.406 44.508 13.454C44.508 13.442 44.508 13.430 44.508 13.418ZM27.422 47.520L34.453 47.520L42.258 21.223L35.227 21.223Z"/><path d="M44.578 44.145C44.578 42.176 43.031 40.629 41.063 40.629C39.164 40.629 37.617 42.176 37.617 44.145C37.617 46.114 39.164 47.661 41.133 47.661C43.102 47.661 44.648 46.114 44.648 44.145Z"/><path d="M54.844 47.520L61.875 47.520C64.481 38.759 67.012 29.922 69.680 21.223L53.508 21.223C50.839 29.922 48.310 38.760 45.703 47.520L52.734 47.520L59.203 25.583L61.313 25.583Z"/><path d="M58.781 65.028L74.953 65.028C78.918 51.954 82.725 38.721 86.625 25.583L87.961 21.223L71.789 21.223C69.121 29.922 66.591 38.760 63.984 47.520L71.016 47.520L77.484 25.583L79.594 25.583L69.258 60.668L67.148 60.668L68.414 56.309L61.383 56.309C60.544 59.244 59.677 62.150 58.781 65.028Z"/><path d="M77.063 65.028L84.094 65.028L102.234 3.715L95.203 3.715Z"/><path d="M91.406 47.520L107.578 47.520C109.703 40.176 111.892 32.896 114.047 25.583L115.383 21.223L99.211 21.223L97.875 25.583L107.016 25.583L101.813 43.161L99.703 43.161L103.641 30.012L96.609 30.012C94.874 35.847 93.096 41.640 91.406 47.520Z"/><path d="M118.828 47.520L125.859 47.520L128.461 38.731L125.191 34.372L131.063 30.012L133.664 21.223L126.633 21.223L124.031 30.012L122.676 31.018L121.922 30.012L124.523 21.223L117.492 21.223L114.891 30.012L118.160 34.372L112.289 38.731L109.688 47.520L116.719 47.520L119.320 38.731L120.675 37.725L121.430 38.731Z"/><path d="M145.055 13.454C145.036 11.502 143.496 9.973 141.539 9.973C139.570 9.973 138.023 11.520 138.023 13.489C138.023 15.387 139.570 16.934 141.539 16.934C143.496 16.934 145.036 15.406 145.055 13.454C145.055 13.442 145.055 13.430 145.055 13.418ZM127.969 47.520L135.000 47.520L142.805 21.223L135.773 21.223Z"/><path d="M137.109 47.520L153.281 47.520C157.558 32.883 161.911 18.322 166.219 3.715L159.188 3.715L147.516 43.161L145.406 43.161L151.945 21.223L144.914 21.223C142.316 29.992 139.666 38.710 137.109 47.520Z"/><path d="M169.734 30.012L176.766 30.012C177.596 27.046 178.463 24.116 179.367 21.223L163.195 21.223C160.527 29.922 157.997 38.760 155.391 47.520L162.422 47.520L168.891 25.583L171 25.583Z"/><path d="M173.672 47.520L189.844 47.520C191.969 40.176 194.158 32.896 196.313 25.583L197.648 21.223L181.477 21.223L180.141 25.583L189.281 25.583L184.078 43.161L181.969 43.161L185.906 30.012L178.875 30.012C177.139 35.847 175.362 41.640 173.672 47.520Z"/><path d="M191.953 47.520L217.266 47.520C219.822 38.710 222.472 29.992 225.070 21.223L218.039 21.223L211.500 43.161L209.391 43.161L215.930 21.223L208.898 21.223L202.359 43.161L200.250 43.161L206.789 21.223L199.758 21.223C197.160 29.992 194.510 38.710 191.953 47.520Z"/></svg>