<svg version="1.1" xmlns="http://www.w3.org/2000/svg" xmlns:xlink="http://www.w3.org/1999/xlink" xmlns:inkscape="http://www.inkscape.org/namespaces/inkscape" width="380.461" height="61.313" viewBox="0 3.715312500000003 380.4609375 61.31250000000001" stroke="none"><style>path { fill: #333; } @media (prefers-color-scheme: dark) { path { fill: #ccc; } }</style><path d="M0 47.520L7.031 47.520C10.469 35.817 13.986 24.193 17.367 12.434L19.969 3.715L12.938 3.715L10.336 12.434L4.711 12.434L3.445 16.864L9.070 16.864Z"/><path d="M18.281 47.520L25.313 47.520C27.919 38.759 30.449 29.922 33.117 21.223L23.977 21.223L29.109 3.715L22.078 3.715C19.919 11.002 17.838 18.366 15.609 25.583L9.141 47.520L16.172 47.520L22.641 25.583L24.750 25.583Z"/><path d="M44.508 13.454C44.489 11.502 42.949 9.973 40.992 9.973C39.023 9.973 37.477 11.520 37.477 13.489C37.477 15.387 39.023 16.934 40.992 16.934C42.949 16.934 44.489 15.406 44.508 13.454C44.508 13.442 44.508 13.430 44.508 13.418ZM27.422 47.520L34.453 47.520L42.258 21.223L35.227 21.223Z"/><path d="M44.578 44.145C44.578 42.176 43.031 40.629 41.063 40.629C39.164 40.629 37.617 42.176 37.617 44.145C37.617 46.114 39.164 47.661 41.133 47.661C43.102 47.661 44.648 46.114 44.648 44.145Z"/><path d="M54.844 47.520L61.875 47.520C64.481 38.759 67.012 29.922 69.680 21.223L53.508 21.223C50.839 29.922 48.310 38.760 45.703 47.520L52.734 47.520L59.203 25.583L61.313 25.583Z"/><path d="M58.781 65.028L74.953 65.028C78.918 51.954 82.725 38.721 86.625 25.583L87.961 21.223L71.789 21.223C69.121 29.922 66.591 38.760 63.984 47.520L71.016 47.520L77.484 25.583L79.594 25.583L69.258 60.668L67.148 60.668L68.414 56.309L61.383 56.309C60.544 59.244 59.677 62.150 58.781 65.028Z"/><path d="M77.063 65.028L84.094 65.028L102.234 3.715L95.203 3.715Z"/><path d="M105.750 30.012L112.781 30.012C113.612 27.046 114.479 24.116 115.383 21.223L99.211 21.223C96.543 29.922 94.013 38.760 91.406 47.520L98.438 47.520L104.906 25.583L107.016 25.583Z"/><path d="M124.031 30.012L131.063 30.012C131.893 27.046 132.760 24.116 133.664 21.223L117.492 21.223C116.589 24.116 115.721 27.046 114.891 30.012L121.430 38.731L120.094 43.161L117.984 43.161L119.320 38.731L112.289 38.731C111.402 41.641 110.534 44.570 109.688 47.520L125.859 47.520C126.706 44.570 127.574 41.641 128.461 38.731L121.922 30.012L123.188 25.583L125.297 25.583Z"/><path d="M127.969 47.520L135 47.520C138.438 35.817 141.955 24.193 145.336 12.434L147.938 3.715L140.906 3.715L138.305 12.434L132.680 12.434L131.414 16.864L137.039 16.864Z"/><path d="M151.453 30.012L158.484 30.012C159.315 27.046 160.182 24.116 161.086 21.223L144.914 21.223C142.246 29.922 139.716 38.760 137.109 47.520L144.141 47.520L150.609 25.583L152.719 25.583Z"/><path d="M167.133 38.731L174.164 38.731C175.896 32.893 177.573 26.999 179.367 21.223L163.195 21.223L161.859 25.583L161.896 25.583C159.729 32.897 157.517 40.165 155.391 47.520L171.563 47.520L172.828 43.161L163.688 43.161L168.927 25.583L171 25.583Z"/><path d="M173.672 47.520L189.844 47.520C191.969 40.176 194.158 32.896 196.313 25.583L197.648 21.223L181.477 21.223L180.141 25.583L189.281 25.583L184.078 43.161L181.969 43.161L185.906 30.012L178.875 30.012C177.139 35.847 175.362 41.640 173.672 47.520Z"/><path d="M210.234 47.520L217.266 47.520C219.872 38.759 222.402 29.922 225.070 21.223L199.758 21.223C197.089 29.922 194.560 38.760 191.953 47.520L198.984 47.520L205.453 25.583L207.563 25.583L201.094 47.520L208.125 47.520L214.594 25.583L216.703 25.583Z"/><path d="M223.242 34.372L239.414 34.372L240.750 30.012L224.578 30.012Z"/><path d="M232.453 65.028L248.625 65.028C252.590 51.954 256.396 38.721 260.297 25.583L261.633 21.223L245.461 21.223C242.793 29.922 240.263 38.760 237.656 47.520L244.688 47.520L251.156 25.583L253.266 25.583L242.930 60.668L240.820 60.668L242.086 56.309L235.055 56.309C234.216 59.244 233.349 62.150 232.453 65.028Z"/><path d="M267.680 38.731L274.711 38.731C276.443 32.893 278.120 26.999 279.914 21.223L263.742 21.223L262.406 25.583L262.443 25.583C260.276 32.897 258.064 40.165 255.938 47.520L272.109 47.520L273.375 43.161L264.234 43.161L269.474 25.583L271.547 25.583Z"/><path d="M288.563 30.012L295.594 30.012C296.424 27.046 297.291 24.116 298.195 21.223L282.023 21.223C281.120 24.116 280.252 27.046 279.422 30.012L285.961 38.731L284.625 43.161L282.516 43.161L283.852 38.731L276.820 38.731C275.934 41.641 275.065 44.570 274.219 47.520L290.391 47.520C291.238 44.570 292.105 41.641 292.992 38.731L286.453 30.012L287.719 25.583L289.828 25.583Z"/><path d="M292.500 47.520L299.531 47.520C302.969 35.817 306.486 24.193 309.867 12.434L312.469 3.715L305.438 3.715L302.836 12.434L297.211 12.434L295.945 16.864L301.570 16.864Z"/><path d="M301.641 47.520L317.813 47.520C320.369 38.710 323.019 29.992 325.617 21.223L318.586 21.223L312.047 43.161L309.938 43.161L316.477 21.223L309.445 21.223C306.847 29.992 304.198 38.710 301.641 47.520Z"/><path d="M334.266 30.012L341.297 30.012C342.128 27.046 342.994 24.116 343.898 21.223L327.727 21.223C325.058 29.922 322.529 38.760 319.922 47.520L326.953 47.520L333.422 25.583L335.531 25.583Z"/><path d="M349.945 38.731L356.977 38.731C358.709 32.893 360.386 26.999 362.180 21.223L346.008 21.223L344.672 25.583L344.708 25.583C342.542 32.897 340.329 40.165 338.203 47.520L354.375 47.520L355.641 43.161L346.500 43.161L351.740 25.583L353.813 25.583Z"/><path d="M370.828 30.012L377.859 30.012C378.690 27.046 379.557 24.116 380.461 21.223L364.289 21.223C363.385 24.116 362.518 27.046 361.688 30.012L368.227 38.731L366.891 43.161L364.781 43.161L366.117 38.731L359.086 38.731C358.199 41.641 357.331 44.570 356.484 47.520L372.656 47.520C373.503 44.570 374.371 41.641 375.258 38.731L368.719 30.012L369.984 25.583L372.094 25.583Z"/></svg>