<svg version="1.1" xmlns="http://www.w3.org/2000/svg" xmlns:xlink="http://www.w3.org/1999/xlink" xmlns:inkscape="http://www.inkscape.org/namespaces/inkscape" width="243.352" height="61.313" viewBox="0 3.715312500000003 243.3515625 61.31250000000001" stroke="none"><style>path { fill: #333; } @media (prefers-color-scheme: dark) { path { fill: #ccc; } }</style><path d="M0 47.520L7.031 47.520C10.469 35.817 13.986 24.193 17.367 12.434L19.969 3.715L12.938 3.715L10.336 12.434L4.711 12.434L3.445 16.864L9.070 16.864Z"/><path d="M18.281 47.520L25.313 47.520C27.919 38.759 30.449 29.922 33.117 21.223L23.977 21.223L29.109 3.715L22.078 3.715C19.919 11.002 17.838 18.366 15.609 25.583L9.141 47.520L16.172 47.520L22.641 25.583L24.750 25.583Z"/><path d="M44.508 13.454C44.489 11.502 42.949 9.973 40.992 9.973C39.023 9.973 37.477 11.520 37.477 13.489C37.477 15.387 39.023 16.934 40.992 16.934C42.949 16.934 44.489 15.406 44.508 13.454C44.508 13.442 44.508 13.430 44.508 13.418ZM27.422 47.520L34.453 47.520L42.258 21.223L35.227 21.223Z"/><path d="M44.578 44.145C44.578 42.176 43.031 40.629 41.063 40.629C39.164 40.629 37.617 42.176 37.617 44.145C37.617 46.114 39.164 47.661 41.133 47.661C43.102 47.661 44.648 46.114 44.648 44.145Z"/><path d="M54.844 47.520L61.875 47.520C64.481 38.759 67.012 29.922 69.680 21.223L53.508 21.223C50.839 29.922 48.310 38.760 45.703 47.520L52.734 47.520L59.203 25.583L61.313 25.583Z"/><path d="M58.781 65.028L74.953 65.028C78.918 51.954 82.725 38.721 86.625 25.583L87.961 21.223L71.789 21.223C69.121 29.922 66.591 38.760 63.984 47.520L71.016 47.520L77.484 25.583L79.594 25.583L69.258 60.668L67.148 60.668L68.414 56.309L61.383 56.309C60.544 59.244 59.677 62.150 58.781 65.028Z"/><path d="M77.063 65.028L84.094 65.028L102.234 3.715L95.203 3.715Z"/><path d="M109.688 47.520L116.719 47.520C119.325 38.759 121.855 29.922 124.523 21.223L99.211 21.223C96.543 29.922 94.013 38.760 91.406 47.520L98.438 47.520L104.906 25.583L107.016 25.583L100.547 47.520L107.578 47.520L114.047 25.583L116.156 25.583Z"/><path d="M130.570 38.731L137.602 38.731C139.334 32.893 141.011 26.999 142.805 21.223L126.633 21.223L125.297 25.583L125.333 25.583C123.167 32.897 120.954 40.165 118.828 47.520L135 47.520L136.266 43.161L127.125 43.161L132.365 25.583L134.438 25.583Z"/><path d="M137.109 47.520L144.141 47.520C147.578 35.817 151.095 24.193 154.477 12.434L157.078 3.715L150.047 3.715L147.445 12.434L141.820 12.434L140.555 16.864L146.180 16.864Z"/><path d="M146.250 47.520L162.422 47.520C164.547 40.176 166.736 32.896 168.891 25.583L170.227 21.223L154.055 21.223L152.719 25.583L161.859 25.583L156.656 43.161L154.547 43.161L158.484 30.012L151.453 30.012C149.717 35.847 147.940 41.640 146.250 47.520Z"/><path d="M168.398 34.372L184.570 34.372L185.906 30.012L169.734 30.012Z"/><path d="M197.156 30.012L204.188 30.012C205.018 27.046 205.885 24.116 206.789 21.223L190.617 21.223L189.281 25.583L189.318 25.583C187.151 32.897 184.939 40.165 182.813 47.520L198.984 47.520C199.831 44.570 200.699 41.641 201.586 38.731L194.555 38.731L193.219 43.161L191.109 43.161L196.349 25.583L198.422 25.583Z"/><path d="M215.438 30.012L222.469 30.012C223.299 27.046 224.166 24.116 225.070 21.223L208.898 21.223C207.995 24.116 207.127 27.046 206.297 30.012L212.836 38.731L211.500 43.161L209.391 43.161L210.727 38.731L203.695 38.731C202.809 41.641 201.940 44.570 201.094 47.520L217.266 47.520C218.113 44.570 218.980 41.641 219.867 38.731L213.328 30.012L214.594 25.583L216.703 25.583Z"/><path d="M233.719 30.012L240.750 30.012C241.581 27.046 242.447 24.116 243.352 21.223L227.180 21.223C226.276 24.116 225.408 27.046 224.578 30.012L231.117 38.731L229.781 43.161L227.672 43.161L229.008 38.731L221.977 38.731C221.090 41.641 220.222 44.570 219.375 47.520L235.547 47.520C236.394 44.570 237.262 41.641 238.148 38.731L231.609 30.012L232.875 25.583L234.984 25.583Z"/></svg>