<svg version="1.1" xmlns="http://www.w3.org/2000/svg" xmlns:xlink="http://www.w3.org/1999/xlink" xmlns:inkscape="http://www.inkscape.org/namespaces/inkscape" width="343.898" height="61.313" viewBox="0 3.715312500000003 343.8984375 61.31250000000001" stroke="none"><style>path { fill: #333; } @media (prefers-color-scheme: dark) { path { fill: #ccc; } }</style><path d="M0 47.520L7.031 47.520C10.469 35.817 13.986 24.193 17.367 12.434L19.969 3.715L12.938 3.715L10.336 12.434L4.711 12.434L3.445 16.864L9.070 16.864Z"/><path d="M18.281 47.520L25.313 47.520C27.919 38.759 30.449 29.922 33.117 21.223L23.977 21.223L29.109 3.715L22.078 3.715C19.919 11.002 17.838 18.366 15.609 25.583L9.141 47.520L16.172 47.520L22.641 25.583L24.750 25.583Z"/><path d="M44.508 13.454C44.489 11.502 42.949 9.973 40.992 9.973C39.023 9.973 37.477 11.520 37.477 13.489C37.477 15.387 39.023 16.934 40.992 16.934C42.949 16.934 44.489 15.406 44.508 13.454C44.508 13.442 44.508 13.430 44.508 13.418ZM27.422 47.520L34.453 47.520L42.258 21.223L35.227 21.223Z"/><path d="M44.578 44.145C44.578 42.176 43.031 40.629 41.063 40.629C39.164 40.629 37.617 42.176 37.617 44.145C37.617 46.114 39.164 47.661 41.133 47.661C43.102 47.661 44.648 46.114 44.648 44.145Z"/><path d="M54.844 47.520L61.875 47.520C64.481 38.759 67.012 29.922 69.680 21.223L53.508 21.223C50.839 29.922 48.310 38.760 45.703 47.520L52.734 47.520L59.203 25.583L61.313 25.583Z"/><path d="M58.781 65.028L74.953 65.028C78.918 51.954 82.725 38.721 86.625 25.583L87.961 21.223L71.789 21.223C69.121 29.922 66.591 38.760 63.984 47.520L71.016 47.520L77.484 25.583L79.594 25.583L69.258 60.668L67.148 60.668L68.414 56.309L61.383 56.309C60.544 59.244 59.677 62.150 58.781 65.028Z"/><path d="M77.063 65.028L84.094 65.028L102.234 3.715L95.203 3.715Z"/><path d="M100.547 47.520L107.578 47.520C110.184 38.759 112.715 29.922 115.383 21.223L99.211 21.223C94.807 35.757 90.549 50.436 86.203 65.028L93.234 65.028L104.906 25.583L107.016 25.583Z"/><path d="M126.773 13.454C126.755 11.502 125.215 9.973 123.258 9.973C121.289 9.973 119.742 11.520 119.742 13.489C119.742 15.387 121.289 16.934 123.258 16.934C125.215 16.934 126.755 15.406 126.773 13.454C126.773 13.442 126.773 13.430 126.773 13.418ZM109.688 47.520L116.719 47.520L124.523 21.223L117.492 21.223Z"/><path d="M127.969 47.520L135 47.520L137.602 38.731L134.332 34.372L140.203 30.012L142.805 21.223L135.773 21.223L133.172 30.012L131.817 31.018L131.063 30.012L133.664 21.223L126.633 21.223L124.031 30.012L127.301 34.372L121.430 38.731L118.828 47.520L125.859 47.520L128.461 38.731L129.816 37.725L130.570 38.731Z"/><path d="M148.852 38.731L155.883 38.731C157.615 32.893 159.292 26.999 161.086 21.223L144.914 21.223L143.578 25.583L143.615 25.583C141.448 32.897 139.236 40.165 137.109 47.520L153.281 47.520L154.547 43.161L145.406 43.161L150.646 25.583L152.719 25.583Z"/><path d="M155.391 47.520L162.422 47.520L175.359 3.715L168.328 3.715Z"/><path d="M168.398 34.372L184.570 34.372L185.906 30.012L169.734 30.012Z"/><path d="M199.898 13.454C199.880 11.502 198.340 9.973 196.383 9.973C194.414 9.973 192.867 11.520 192.867 13.489C192.867 15.387 194.414 16.934 196.383 16.934C198.340 16.934 199.880 15.406 199.898 13.454C199.898 13.442 199.898 13.430 199.898 13.418ZM182.813 47.520L189.844 47.520L197.648 21.223L190.617 21.223Z"/><path d="M191.953 47.520L208.125 47.520C210.250 40.176 212.439 32.896 214.594 25.583L215.930 21.223L199.758 21.223C197.521 28.479 195.401 35.851 193.219 43.161ZM207.563 25.583L202.359 43.161L200.250 43.161L205.453 25.583Z"/><path d="M214.102 34.372L230.273 34.372L231.609 30.012L215.438 30.012Z"/><path d="M237.656 47.520L244.688 47.520C247.294 38.759 249.824 29.922 252.492 21.223L236.320 21.223C233.652 29.922 231.122 38.760 228.516 47.520L235.547 47.520L242.016 25.583L244.125 25.583Z"/><path d="M258.539 38.731L265.570 38.731C267.303 32.893 268.979 26.999 270.773 21.223L254.602 21.223L253.266 25.583L253.302 25.583C251.135 32.897 248.923 40.165 246.797 47.520L262.969 47.520L264.234 43.161L255.094 43.161L260.333 25.583L262.406 25.583Z"/><path d="M265.078 47.520L272.109 47.520C275.547 35.817 279.064 24.193 282.445 12.434L285.047 3.715L278.016 3.715L275.414 12.434L269.789 12.434L268.523 16.864L274.148 16.864Z"/><path d="M283.359 47.520L290.391 47.520C292.997 38.759 295.527 29.922 298.195 21.223L282.023 21.223C277.620 35.757 273.361 50.436 269.016 65.028L276.047 65.028L287.719 25.583L289.828 25.583Z"/><path d="M292.500 47.520L308.672 47.520C311.229 38.710 313.879 29.992 316.477 21.223L309.445 21.223L302.906 43.161L300.797 43.161L312.469 3.715L305.438 3.715C301.129 18.321 296.778 32.883 292.500 47.520Z"/><path d="M329.063 47.520L336.094 47.520C338.700 38.759 341.230 29.922 343.898 21.223L318.586 21.223C315.918 29.922 313.388 38.760 310.781 47.520L317.813 47.520L324.281 25.583L326.391 25.583L319.922 47.520L326.953 47.520L333.422 25.583L335.531 25.583Z"/></svg>