<svg version="1.1" xmlns="http://www.w3.org/2000/svg" xmlns:xlink="http://www.w3.org/1999/xlink" xmlns:inkscape="http://www.inkscape.org/namespaces/inkscape" width="221.555" height="61.313" viewBox="0 3.715312500000003 221.5546875 61.31250000000001" stroke="none"><style>path { fill: #333; } @media (prefers-color-scheme: dark) { path { fill: #ccc; } }</style><path d="M0 47.520L7.031 47.520C10.469 35.817 13.986 24.193 17.367 12.434L19.969 3.715L12.938 3.715L10.336 12.434L4.711 12.434L3.445 16.864L9.070 16.864Z"/><path d="M18.281 47.520L25.313 47.520C27.919 38.759 30.449 29.922 33.117 21.223L23.977 21.223L29.109 3.715L22.078 3.715C19.919 11.002 17.838 18.366 15.609 25.583L9.141 47.520L16.172 47.520L22.641 25.583L24.750 25.583Z"/><path d="M44.508 13.454C44.489 11.502 42.949 9.973 40.992 9.973C39.023 9.973 37.477 11.520 37.477 13.489C37.477 15.387 39.023 16.934 40.992 16.934C42.949 16.934 44.489 15.406 44.508 13.454C44.508 13.442 44.508 13.430 44.508 13.418ZM27.422 47.520L34.453 47.520L42.258 21.223L35.227 21.223Z"/><path d="M44.578 44.145C44.578 42.176 43.031 40.629 41.063 40.629C39.164 40.629 37.617 42.176 37.617 44.145C37.617 46.114 39.164 47.661 41.133 47.661C43.102 47.661 44.648 46.114 44.648 44.145Z"/><path d="M54.844 47.520L61.875 47.520C64.481 38.759 67.012 29.922 69.680 21.223L53.508 21.223C50.839 29.922 48.310 38.760 45.703 47.520L52.734 47.520L59.203 25.583L61.313 25.583Z"/><path d="M58.781 65.028L74.953 65.028C78.918 51.954 82.725 38.721 86.625 25.583L87.961 21.223L71.789 21.223C69.121 29.922 66.591 38.760 63.984 47.520L71.016 47.520L77.484 25.583L79.594 25.583L69.258 60.668L67.148 60.668L68.414 56.309L61.383 56.309C60.544 59.244 59.677 62.150 58.781 65.028Z"/><path d="M77.063 65.028L84.094 65.028L102.234 3.715L95.203 3.715Z"/><path d="M97.031 47.520L104.063 47.520C107.500 35.817 111.017 24.193 114.398 12.434L117 3.715L109.969 3.715L107.367 12.434L101.742 12.434L100.477 16.864L106.102 16.864Z"/><path d="M117.914 38.731L124.945 38.731C126.678 32.893 128.354 26.999 130.148 21.223L113.977 21.223L112.641 25.583L112.677 25.583C110.510 32.897 108.298 40.165 106.172 47.520L122.344 47.520L123.609 43.161L114.469 43.161L119.708 25.583L121.781 25.583Z"/><path d="M133.594 47.520L140.625 47.520C143.231 38.759 145.762 29.922 148.430 21.223L132.258 21.223C129.589 29.922 127.060 38.760 124.453 47.520L131.484 47.520L137.953 25.583L140.063 25.583Z"/><path d="M157.078 30.012L164.109 30.012C164.940 27.046 165.807 24.116 166.711 21.223L150.539 21.223C149.635 24.116 148.768 27.046 147.938 30.012L154.477 38.731L153.141 43.161L151.031 43.161L152.367 38.731L145.336 38.731C144.449 41.641 143.581 44.570 142.734 47.520L158.906 47.520C159.753 44.570 160.621 41.641 161.508 38.731L154.969 30.012L156.234 25.583L158.344 25.583Z"/><path d="M161.016 47.520L177.188 47.520C179.313 40.176 181.501 32.896 183.656 25.583L184.992 21.223L168.820 21.223C166.584 28.479 164.463 35.851 162.281 43.161ZM176.625 25.583L171.422 43.161L169.313 43.161L174.516 25.583Z"/><path d="M193.641 30.012L200.672 30.012C201.503 27.046 202.369 24.116 203.273 21.223L187.102 21.223C184.433 29.922 181.904 38.760 179.297 47.520L186.328 47.520L192.797 25.583L194.906 25.583Z"/><path d="M211.922 30.012L218.953 30.012C219.784 27.046 220.651 24.116 221.555 21.223L205.383 21.223C204.479 24.116 203.611 27.046 202.781 30.012L209.320 38.731L207.984 43.161L205.875 43.161L207.211 38.731L200.180 38.731C199.293 41.641 198.425 44.570 197.578 47.520L213.750 47.520C214.597 44.570 215.465 41.641 216.352 38.731L209.813 30.012L211.078 25.583L213.188 25.583Z"/></svg>