<svg version="1.1" xmlns="http://www.w3.org/2000/svg" xmlns:xlink="http://www.w3.org/1999/xlink" xmlns:inkscape="http://www.inkscape.org/namespaces/inkscape" width="444.445" height="61.313" viewBox="0 3.715312500000003 444.4453125 61.31250000000001" stroke="none"><style>path { fill: #333; } @media (prefers-color-scheme: dark) { path { fill: #ccc; } }</style><path d="M0 47.520L7.031 47.520C10.469 35.817 13.986 24.193 17.367 12.434L19.969 3.715L12.938 3.715L10.336 12.434L4.711 12.434L3.445 16.864L9.070 16.864Z"/><path d="M18.281 47.520L25.313 47.520C27.919 38.759 30.449 29.922 33.117 21.223L23.977 21.223L29.109 3.715L22.078 3.715C19.919 11.002 17.838 18.366 15.609 25.583L9.141 47.520L16.172 47.520L22.641 25.583L24.750 25.583Z"/><path d="M44.508 13.454C44.489 11.502 42.949 9.973 40.992 9.973C39.023 9.973 37.477 11.520 37.477 13.489C37.477 15.387 39.023 16.934 40.992 16.934C42.949 16.934 44.489 15.406 44.508 13.454C44.508 13.442 44.508 13.430 44.508 13.418ZM27.422 47.520L34.453 47.520L42.258 21.223L35.227 21.223Z"/><path d="M44.578 44.145C44.578 42.176 43.031 40.629 41.063 40.629C39.164 40.629 37.617 42.176 37.617 44.145C37.617 46.114 39.164 47.661 41.133 47.661C43.102 47.661 44.648 46.114 44.648 44.145Z"/><path d="M54.844 47.520L61.875 47.520C64.481 38.759 67.012 29.922 69.680 21.223L53.508 21.223C50.839 29.922 48.310 38.760 45.703 47.520L52.734 47.520L59.203 25.583L61.313 25.583Z"/><path d="M58.781 65.028L74.953 65.028C78.918 51.954 82.725 38.721 86.625 25.583L87.961 21.223L71.789 21.223C69.121 29.922 66.591 38.760 63.984 47.520L71.016 47.520L77.484 25.583L79.594 25.583L69.258 60.668L67.148 60.668L68.414 56.309L61.383 56.309C60.544 59.244 59.677 62.150 58.781 65.028Z"/><path d="M77.063 65.028L84.094 65.028L102.234 3.715L95.203 3.715Z"/><path d="M100.547 47.520L107.578 47.520C110.184 38.759 112.715 29.922 115.383 21.223L99.211 21.223C94.807 35.757 90.549 50.436 86.203 65.028L93.234 65.028L104.906 25.583L107.016 25.583Z"/><path d="M126.773 13.454C126.755 11.502 125.215 9.973 123.258 9.973C121.289 9.973 119.742 11.520 119.742 13.489C119.742 15.387 121.289 16.934 123.258 16.934C125.215 16.934 126.755 15.406 126.773 13.454C126.773 13.442 126.773 13.430 126.773 13.418ZM109.688 47.520L116.719 47.520L124.523 21.223L117.492 21.223Z"/><path d="M127.969 47.520L135 47.520L137.602 38.731L134.332 34.372L140.203 30.012L142.805 21.223L135.773 21.223L133.172 30.012L131.817 31.018L131.063 30.012L133.664 21.223L126.633 21.223L124.031 30.012L127.301 34.372L121.430 38.731L118.828 47.520L125.859 47.520L128.461 38.731L129.816 37.725L130.570 38.731Z"/><path d="M148.852 38.731L155.883 38.731C157.615 32.893 159.292 26.999 161.086 21.223L144.914 21.223L143.578 25.583L143.615 25.583C141.448 32.897 139.236 40.165 137.109 47.520L153.281 47.520L154.547 43.161L145.406 43.161L150.646 25.583L152.719 25.583Z"/><path d="M155.391 47.520L162.422 47.520L175.359 3.715L168.328 3.715Z"/><path d="M168.398 34.372L184.570 34.372L185.906 30.012L169.734 30.012Z"/><path d="M182.813 47.520L198.984 47.520C203.261 32.883 207.614 18.322 211.922 3.715L204.891 3.715L193.219 43.161L191.109 43.161L197.648 21.223L190.617 21.223C188.019 29.992 185.370 38.710 182.813 47.520Z"/><path d="M201.094 47.520L217.266 47.520C219.391 40.176 221.580 32.896 223.734 25.583L225.070 21.223L208.898 21.223C206.662 28.479 204.541 35.851 202.359 43.161ZM216.703 25.583L211.500 43.161L209.391 43.161L214.594 25.583Z"/><path d="M237.656 47.520L244.688 47.520C247.294 38.759 249.824 29.922 252.492 21.223L227.180 21.223C224.511 29.922 221.982 38.760 219.375 47.520L226.406 47.520L232.875 25.583L234.984 25.583L228.516 47.520L235.547 47.520L242.016 25.583L244.125 25.583Z"/><path d="M263.883 13.454C263.864 11.502 262.324 9.973 260.367 9.973C258.398 9.973 256.852 11.520 256.852 13.489C256.852 15.387 258.398 16.934 260.367 16.934C262.324 16.934 263.864 15.406 263.883 13.454C263.883 13.442 263.883 13.430 263.883 13.418ZM246.797 47.520L253.828 47.520L261.633 21.223L254.602 21.223Z"/><path d="M265.078 47.520L272.109 47.520C274.716 38.759 277.246 29.922 279.914 21.223L263.742 21.223C261.074 29.922 258.544 38.760 255.938 47.520L262.969 47.520L269.438 25.583L271.547 25.583Z"/><path d="M274.219 47.520L290.391 47.520C292.516 40.176 294.705 32.896 296.859 25.583L298.195 21.223L282.023 21.223L280.688 25.583L289.828 25.583L284.625 43.161L282.516 43.161L286.453 30.012L279.422 30.012C277.686 35.847 275.909 41.640 274.219 47.520Z"/><path d="M301.641 47.520L308.672 47.520C311.278 38.759 313.809 29.922 316.477 21.223L300.305 21.223C297.636 29.922 295.107 38.760 292.500 47.520L299.531 47.520L306 25.583L308.109 25.583Z"/><path d="M310.781 47.520L317.813 47.520C321.250 35.817 324.767 24.193 328.148 12.434L330.750 3.715L323.719 3.715L321.117 12.434L315.492 12.434L314.227 16.864L319.852 16.864Z"/><path d="M323.789 34.372L339.961 34.372L341.297 30.012L325.125 30.012Z"/><path d="M352.547 30.012L359.578 30.012C360.409 27.046 361.276 24.116 362.180 21.223L346.008 21.223L344.672 25.583L344.708 25.583C342.542 32.897 340.329 40.165 338.203 47.520L354.375 47.520C355.222 44.570 356.090 41.641 356.977 38.731L349.945 38.731L348.609 43.161L346.500 43.161L351.740 25.583L353.813 25.583Z"/><path d="M356.484 47.520L372.656 47.520C374.781 40.176 376.970 32.896 379.125 25.583L380.461 21.223L364.289 21.223C362.053 28.479 359.932 35.851 357.750 43.161ZM372.094 25.583L366.891 43.161L364.781 43.161L369.984 25.583Z"/><path d="M374.766 47.520L381.797 47.520L394.734 3.715L387.703 3.715Z"/><path d="M383.906 47.520L400.078 47.520C402.203 40.176 404.392 32.896 406.547 25.583L407.883 21.223L391.711 21.223C389.474 28.479 387.354 35.851 385.172 43.161ZM399.516 25.583L394.313 43.161L392.203 43.161L397.406 25.583Z"/><path d="M416.531 30.012L423.563 30.012C424.393 27.046 425.260 24.116 426.164 21.223L409.992 21.223C407.324 29.922 404.794 38.760 402.188 47.520L409.219 47.520L415.688 25.583L417.797 25.583Z"/><path d="M434.813 30.012L441.844 30.012C442.674 27.046 443.541 24.116 444.445 21.223L428.273 21.223C427.370 24.116 426.502 27.046 425.672 30.012L432.211 38.731L430.875 43.161L428.766 43.161L430.102 38.731L423.070 38.731C422.184 41.641 421.315 44.570 420.469 47.520L436.641 47.520C437.488 44.570 438.355 41.641 439.242 38.731L432.703 30.012L433.969 25.583L436.078 25.583Z"/></svg>