<svg version="1.1" xmlns="http://www.w3.org/2000/svg" xmlns:xlink="http://www.w3.org/1999/xlink" xmlns:inkscape="http://www.inkscape.org/namespaces/inkscape" width="281.531" height="61.313" viewBox="0 3.715312500000003 281.53125 61.31250000000001" stroke="none"><style>path { fill: #333; } @media (prefers-color-scheme: dark) { path { fill: #ccc; } }</style><path d="M0 47.520L7.031 47.520C10.469 35.817 13.986 24.193 17.367 12.434L19.969 3.715L12.938 3.715L10.336 12.434L4.711 12.434L3.445 16.864L9.070 16.864Z"/><path d="M18.281 47.520L25.313 47.520C27.919 38.759 30.449 29.922 33.117 21.223L23.977 21.223L29.109 3.715L22.078 3.715C19.919 11.002 17.838 18.366 15.609 25.583L9.141 47.520L16.172 47.520L22.641 25.583L24.750 25.583Z"/><path d="M44.508 13.454C44.489 11.502 42.949 9.973 40.992 9.973C39.023 9.973 37.477 11.520 37.477 13.489C37.477 15.387 39.023 16.934 40.992 16.934C42.949 16.934 44.489 15.406 44.508 13.454C44.508 13.442 44.508 13.430 44.508 13.418ZM27.422 47.520L34.453 47.520L42.258 21.223L35.227 21.223Z"/><path d="M44.578 44.145C44.578 42.176 43.031 40.629 41.063 40.629C39.164 40.629 37.617 42.176 37.617 44.145C37.617 46.114 39.164 47.661 41.133 47.661C43.102 47.661 44.648 46.114 44.648 44.145Z"/><path d="M54.844 47.520L61.875 47.520C64.481 38.759 67.012 29.922 69.680 21.223L53.508 21.223C50.839 29.922 48.310 38.760 45.703 47.520L52.734 47.520L59.203 25.583L61.313 25.583Z"/><path d="M58.781 65.028L74.953 65.028C78.918 51.954 82.725 38.721 86.625 25.583L87.961 21.223L71.789 21.223C69.121 29.922 66.591 38.760 63.984 47.520L71.016 47.520L77.484 25.583L79.594 25.583L69.258 60.668L67.148 60.668L68.414 56.309L61.383 56.309C60.544 59.244 59.677 62.150 58.781 65.028Z"/><path d="M77.063 65.028L84.094 65.028L102.234 3.715L95.203 3.715Z"/><path d="M91.406 47.520L107.578 47.520C111.855 32.883 116.208 18.322 120.516 3.715L113.484 3.715L101.813 43.161L99.703 43.161L106.242 21.223L99.211 21.223C96.613 29.992 93.963 38.710 91.406 47.520Z"/><path d="M126.773 13.454C126.755 11.502 125.215 9.973 123.258 9.973C121.289 9.973 119.742 11.520 119.742 13.489C119.742 15.387 121.289 16.934 123.258 16.934C125.215 16.934 126.755 15.406 126.773 13.454C126.773 13.442 126.773 13.430 126.773 13.418ZM109.688 47.520L116.719 47.520L124.523 21.223L117.492 21.223Z"/><path d="M133.172 30.012L140.203 30.012C141.034 27.046 141.901 24.116 142.805 21.223L126.633 21.223C125.729 24.116 124.861 27.046 124.031 30.012L130.570 38.731L129.234 43.161L127.125 43.161L128.461 38.731L121.430 38.731C120.543 41.641 119.675 44.570 118.828 47.520L135 47.520C135.847 44.570 136.715 41.641 137.602 38.731L131.063 30.012L132.328 25.583L134.438 25.583Z"/><path d="M159.820 13.454C159.802 11.502 158.262 9.973 156.305 9.973C154.336 9.973 152.789 11.520 152.789 13.489C152.789 15.387 154.336 16.934 156.305 16.934C158.262 16.934 159.802 15.406 159.820 13.454C159.820 13.442 159.820 13.430 159.820 13.418ZM128.391 65.028L144.563 65.028C148.528 51.954 152.334 38.721 156.234 25.583L157.570 21.223L144.914 21.223L143.578 25.583L149.203 25.583L138.867 60.668L136.758 60.668L138.023 56.309L130.992 56.309C130.153 59.244 129.286 62.150 128.391 65.028Z"/><path d="M151.875 47.520L168.047 47.520C170.172 40.176 172.361 32.896 174.516 25.583L175.852 21.223L159.680 21.223C157.443 28.479 155.323 35.851 153.141 43.161ZM167.484 25.583L162.281 43.161L160.172 43.161L165.375 25.583Z"/><path d="M187.242 13.454C187.224 11.502 185.684 9.973 183.727 9.973C181.758 9.973 180.211 11.520 180.211 13.489C180.211 15.387 181.758 16.934 183.727 16.934C185.684 16.934 187.224 15.406 187.242 13.454C187.242 13.442 187.242 13.430 187.242 13.418ZM170.156 47.520L177.188 47.520L184.992 21.223L177.961 21.223Z"/><path d="M188.438 47.520L195.469 47.520C198.075 38.759 200.605 29.922 203.273 21.223L187.102 21.223C184.433 29.922 181.904 38.760 179.297 47.520L186.328 47.520L192.797 25.583L194.906 25.583Z"/><path d="M197.578 47.520L204.609 47.520C208.047 35.817 211.564 24.193 214.945 12.434L217.547 3.715L210.516 3.715L207.914 12.434L202.289 12.434L201.023 16.864L206.648 16.864Z"/><path d="M210.586 34.372L226.758 34.372L228.094 30.012L211.922 30.012Z"/><path d="M239.344 30.012L246.375 30.012C247.206 27.046 248.072 24.116 248.977 21.223L232.805 21.223C231.901 24.116 231.033 27.046 230.203 30.012L236.742 38.731L235.406 43.161L233.297 43.161L234.633 38.731L227.602 38.731C226.715 41.641 225.847 44.570 225 47.520L241.172 47.520C242.019 44.570 242.887 41.641 243.773 38.731L237.234 30.012L238.500 25.583L240.609 25.583Z"/><path d="M255.023 38.731L262.055 38.731C263.787 32.893 265.464 26.999 267.258 21.223L251.086 21.223L249.750 25.583L249.787 25.583C247.620 32.897 245.407 40.165 243.281 47.520L259.453 47.520L260.719 43.161L251.578 43.161L256.818 25.583L258.891 25.583Z"/><path d="M261.563 47.520L268.594 47.520C272.031 35.817 275.548 24.193 278.930 12.434L281.531 3.715L274.500 3.715L271.898 12.434L266.273 12.434L265.008 16.864L270.633 16.864Z"/></svg>