<svg xmlns="http://www.w3.org/2000/svg"
	xmlns:xlink="http://www.w3.org/1999/xlink" fill="none" stroke="black" version="1.1" viewBox="-160 -160 320 320">
	<path d="M-100,-86C-87.500,-107.651,87.500,-107.651,100,-86C112.500,-64.349,25,87.205,0,87.205C-25,87.205,-112.500,-64.349,-100,-86"/>
	<path d="M-100,-86C-81.250,-118.476,81.250,-118.476,100,-86C118.750,-53.524,37.500,87.205,0,87.205C-37.500,87.205,-118.750,-53.524,-100,-86"/>
	<path d="M-100,-86C-75,-129.301,75,-129.301,100,-86C125,-42.699,50,87.205,0,87.205C-50,87.205,-125,-42.699,-100,-86"/>
	<path d="M-100,-86C-68.750,-140.127,68.750,-140.127,100,-86C131.250,-31.873,62.500,87.205,0,87.205C-62.500,87.205,-131.250,-31.873,-100,-86"/>
	<path d="M-100,-86C-62.500,-150.952,62.500,-150.952,100,-86C137.500,-21.048,75,87.205,0,87.205C-75,87.205,-137.500,-21.048,-100,-86"/>
	<path d="M-100,-86C-56.250,-161.777,56.250,-161.777,100,-86C143.750,-10.223,87.500,87.205,0,87.205C-87.500,87.205,-143.750,-10.223,-100,-86"/>
	<path d="M-100,-86C-50,-172.603,50,-172.603,100,-86C150,0.603,100,87.205,0,87.205C-100,87.205,-150,0.603,-100,-86"/>
</svg>
