<?xml version="1.0" encoding="UTF-8" standalone="no"?>
<!DOCTYPE svg PUBLIC "-//W3C//DTD SVG 1.1//EN"
 "http://www.w3.org/Graphics/SVG/1.1/DTD/svg11.dtd">
<!-- Generated by graphviz version 2.40.1 (20161225.0304)
 -->
<!-- Title: g Pages: 1 -->
<svg width="482pt" height="230pt"
 viewBox="0.00 0.00 482.02 230.01" xmlns="http://www.w3.org/2000/svg" xmlns:xlink="http://www.w3.org/1999/xlink">
<g id="graph0" class="graph" transform="scale(1 1) rotate(0) translate(4 226.0136)">
<title>g</title>
<polygon fill="#ffffff" stroke="transparent" points="-4,4 -4,-226.0136 478.0219,-226.0136 478.0219,4 -4,4"/>
<!-- market -->
<g id="node1" class="node">
<title>market</title>
<ellipse fill="none" stroke="#000000" cx="29.1703" cy="-189" rx="29.3416" ry="18"/>
<text text-anchor="middle" x="29.1703" y="-185.9695" font-family="Inconsolata" font-size="11.00" fill="#000000">market</text>
</g>
<!-- data -->
<g id="node2" class="node">
<title>data</title>
<ellipse fill="none" stroke="#000000" cx="124.5109" cy="-189" rx="27" ry="18"/>
<text text-anchor="middle" x="124.5109" y="-185.9695" font-family="Inconsolata" font-size="11.00" fill="#000000">data</text>
</g>
<!-- market&#45;&gt;data -->
<g id="edge1" class="edge">
<title>market&#45;&gt;data</title>
<path fill="none" stroke="#000000" d="M58.5536,-189C67.6343,-189 77.7586,-189 87.2956,-189"/>
<polygon fill="#000000" stroke="#000000" points="87.3367,-192.5001 97.3367,-189 87.3366,-185.5001 87.3367,-192.5001"/>
</g>
<!-- chart -->
<g id="node5" class="node">
<title>chart</title>
<ellipse fill="none" stroke="#000000" cx="243.6812" cy="-95" rx="27" ry="18"/>
<text text-anchor="middle" x="243.6812" y="-91.9695" font-family="Inconsolata" font-size="11.00" fill="#000000">chart</text>
</g>
<!-- data&#45;&gt;chart -->
<g id="edge4" class="edge">
<title>data&#45;&gt;chart</title>
<path fill="none" stroke="#000000" d="M142.0949,-175.13C162.1617,-159.3016 195.1595,-133.2733 218.0795,-115.1943"/>
<polygon fill="#000000" stroke="#000000" points="220.3412,-117.8681 226.0251,-108.9269 216.006,-112.3721 220.3412,-117.8681"/>
</g>
<!-- symbol -->
<g id="node3" class="node">
<title>symbol</title>
<ellipse fill="none" stroke="#000000" cx="444.8515" cy="-164" rx="29.3416" ry="18"/>
<text text-anchor="middle" x="444.8515" y="-160.9695" font-family="Inconsolata" font-size="11.00" fill="#000000">symbol</text>
</g>
<!-- symbol&#45;&gt;data -->
<g id="edge2" class="edge">
<title>symbol&#45;&gt;data</title>
<path fill="none" stroke="#000000" d="M430.8646,-180.046C422.2715,-188.6446 410.4789,-198.3946 397.6812,-203 303.1701,-237.0109 271.0824,-217.4397 171.6812,-203 167.4016,-202.3783 162.9699,-201.455 158.6137,-200.3737"/>
<polygon fill="#000000" stroke="#000000" points="159.2642,-196.9223 148.6931,-197.6315 157.3991,-203.6693 159.2642,-196.9223"/>
</g>
<!-- ui -->
<g id="node8" class="node">
<title>ui</title>
<ellipse fill="none" stroke="#000000" cx="334.6812" cy="-95" rx="27" ry="18"/>
<text text-anchor="middle" x="334.6812" y="-91.9695" font-family="Inconsolata" font-size="11.00" fill="#000000">ui</text>
</g>
<!-- symbol&#45;&gt;ui -->
<g id="edge7" class="edge">
<title>symbol&#45;&gt;ui</title>
<path fill="none" stroke="#000000" d="M415.7126,-161.957C403.8585,-160.0893 390.4459,-156.5752 379.6812,-150 367.8365,-142.765 357.7118,-131.2674 350.0829,-120.6507"/>
<polygon fill="#000000" stroke="#000000" points="352.7747,-118.3827 344.2786,-112.0529 346.973,-122.2994 352.7747,-118.3827"/>
</g>
<!-- period -->
<g id="node4" class="node">
<title>period</title>
<ellipse fill="none" stroke="#000000" cx="444.8515" cy="-107" rx="29.3416" ry="18"/>
<text text-anchor="middle" x="444.8515" y="-103.9695" font-family="Inconsolata" font-size="11.00" fill="#000000">period</text>
</g>
<!-- period&#45;&gt;data -->
<g id="edge3" class="edge">
<title>period&#45;&gt;data</title>
<path fill="none" stroke="#000000" d="M430.6447,-122.7223C421.9782,-131.2964 410.1856,-141.2964 397.6812,-147 319.3056,-182.7496 216.5099,-189.0134 162.0916,-189.5657"/>
<polygon fill="#000000" stroke="#000000" points="161.8603,-186.0665 151.8746,-189.607 161.8887,-193.0664 161.8603,-186.0665"/>
</g>
<!-- period&#45;&gt;ui -->
<g id="edge8" class="edge">
<title>period&#45;&gt;ui</title>
<path fill="none" stroke="#000000" d="M416.1124,-103.8697C402.4885,-102.3857 386.0522,-100.5954 371.5242,-99.013"/>
<polygon fill="#000000" stroke="#000000" points="371.6706,-95.5083 361.3504,-97.9049 370.9126,-102.4672 371.6706,-95.5083"/>
</g>
<!-- chart&#45;&gt;ui -->
<g id="edge9" class="edge">
<title>chart&#45;&gt;ui</title>
<path fill="none" stroke="#000000" d="M270.9842,-95C279.2625,-95 288.503,-95 297.3217,-95"/>
<polygon fill="#000000" stroke="#000000" points="297.3975,-98.5001 307.3975,-95 297.3975,-91.5001 297.3975,-98.5001"/>
</g>
<!-- window -->
<g id="node6" class="node">
<title>window</title>
<ellipse fill="none" stroke="#000000" cx="124.5109" cy="-95" rx="29.3416" ry="18"/>
<text text-anchor="middle" x="124.5109" y="-91.9695" font-family="Inconsolata" font-size="11.00" fill="#000000">window</text>
</g>
<!-- window&#45;&gt;chart -->
<g id="edge5" class="edge">
<title>window&#45;&gt;chart</title>
<path fill="none" stroke="#000000" stroke-dasharray="5,2" d="M153.9688,-95C169.8367,-95 189.5729,-95 206.4905,-95"/>
<polygon fill="#000000" stroke="#000000" points="206.6001,-98.5001 216.6001,-95 206.6,-91.5001 206.6001,-98.5001"/>
<text text-anchor="middle" x="185.1812" y="-97.241" font-family="Inconsolata" font-size="9.00" fill="#000000">resize</text>
</g>
<!-- theme -->
<g id="node7" class="node">
<title>theme</title>
<ellipse fill="none" stroke="#000000" cx="444.8515" cy="-18" rx="27" ry="18"/>
<text text-anchor="middle" x="444.8515" y="-14.9695" font-family="Inconsolata" font-size="11.00" fill="#000000">theme</text>
</g>
<!-- theme&#45;&gt;chart -->
<g id="edge6" class="edge">
<title>theme&#45;&gt;chart</title>
<path fill="none" stroke="#000000" d="M417.7865,-16.543C405.9011,-16.5896 391.8997,-17.59 379.6812,-21 338.7416,-32.4255 296.4897,-57.9693 270.166,-75.8311"/>
<polygon fill="#000000" stroke="#000000" points="268.1102,-72.9973 261.8743,-81.5626 272.0906,-78.7555 268.1102,-72.9973"/>
</g>
<!-- theme&#45;&gt;ui -->
<g id="edge10" class="edge">
<title>theme&#45;&gt;ui</title>
<path fill="none" stroke="#000000" d="M417.765,-19.3701C405.3348,-21.0659 390.902,-24.6312 379.6812,-32 366.0297,-40.965 355.1996,-55.6126 347.588,-68.5287"/>
<polygon fill="#000000" stroke="#000000" points="344.392,-67.0759 342.6201,-77.5216 350.5193,-70.4608 344.392,-67.0759"/>
</g>
<!-- ui&#45;&gt;symbol -->
<g id="edge11" class="edge">
<title>ui&#45;&gt;symbol</title>
<path fill="none" stroke="#000000" stroke-dasharray="5,2" d="M354.3775,-107.3358C371.3684,-117.9773 396.1491,-133.4975 415.4816,-145.6055"/>
<polygon fill="#000000" stroke="#000000" points="413.8713,-148.7267 424.2041,-151.0684 417.5869,-142.7942 413.8713,-148.7267"/>
<text text-anchor="middle" x="388.6812" y="-136.241" font-family="Inconsolata" font-size="9.00" fill="#000000">user</text>
</g>
<!-- ui&#45;&gt;period -->
<g id="edge12" class="edge">
<title>ui&#45;&gt;period</title>
<path fill="none" stroke="#000000" stroke-dasharray="5,2" d="M359.6547,-87.7938C371.2798,-85.4241 385.255,-83.9824 397.6812,-86.559 402.7937,-87.6191 408.0328,-89.2621 413.0737,-91.1663"/>
<polygon fill="#000000" stroke="#000000" points="411.8608,-94.4525 422.4379,-95.0653 414.5515,-87.9903 411.8608,-94.4525"/>
<text text-anchor="middle" x="388.6812" y="-89.241" font-family="Inconsolata" font-size="9.00" fill="#000000">user</text>
</g>
<!-- ui&#45;&gt;theme -->
<g id="edge13" class="edge">
<title>ui&#45;&gt;theme</title>
<path fill="none" stroke="#000000" stroke-dasharray="5,2" d="M353.3701,-81.938C371.0176,-69.6039 397.6858,-50.965 417.6826,-36.9888"/>
<polygon fill="#000000" stroke="#000000" points="419.8795,-39.7236 426.071,-31.1261 415.8694,-33.986 419.8795,-39.7236"/>
<text text-anchor="middle" x="388.6812" y="-66.241" font-family="Inconsolata" font-size="9.00" fill="#000000">user</text>
</g>
</g>
</svg>
