<?xml version="1.0" encoding="UTF-8" standalone="no"?>
<!DOCTYPE svg PUBLIC "-//W3C//DTD SVG 1.1//EN"
 "http://www.w3.org/Graphics/SVG/1.1/DTD/svg11.dtd">
<!-- Generated by graphviz version 2.40.1 (20161225.0304)
 -->
<!-- Title: g Pages: 1 -->
<svg width="456pt" height="183pt"
 viewBox="0.00 0.00 456.02 183.00" xmlns="http://www.w3.org/2000/svg" xmlns:xlink="http://www.w3.org/1999/xlink">
<g id="graph0" class="graph" transform="scale(1 1) rotate(0) translate(4 179)">
<title>g</title>
<polygon fill="#ffffff" stroke="transparent" points="-4,4 -4,-179 452.0219,-179 452.0219,4 -4,4"/>
<!-- market -->
<g id="node1" class="node">
<title>market</title>
<ellipse fill="none" stroke="#000000" cx="29.1703" cy="-94" rx="29.3416" ry="18"/>
<text text-anchor="middle" x="29.1703" y="-90.9695" font-family="Inconsolata" font-size="11.00" fill="#000000">market</text>
</g>
<!-- data -->
<g id="node2" class="node">
<title>data</title>
<ellipse fill="none" stroke="#000000" cx="124.5109" cy="-94" rx="27" ry="18"/>
<text text-anchor="middle" x="124.5109" y="-90.9695" font-family="Inconsolata" font-size="11.00" fill="#000000">data</text>
</g>
<!-- market&#45;&gt;data -->
<g id="edge1" class="edge">
<title>market&#45;&gt;data</title>
<path fill="none" stroke="#000000" d="M58.5536,-94C67.6343,-94 77.7586,-94 87.2956,-94"/>
<polygon fill="#000000" stroke="#000000" points="87.3367,-97.5001 97.3367,-94 87.3366,-90.5001 87.3367,-97.5001"/>
</g>
<!-- chart -->
<g id="node5" class="node">
<title>chart</title>
<ellipse fill="none" stroke="#000000" cx="217.6812" cy="-94" rx="27" ry="18"/>
<text text-anchor="middle" x="217.6812" y="-90.9695" font-family="Inconsolata" font-size="11.00" fill="#000000">chart</text>
</g>
<!-- data&#45;&gt;chart -->
<g id="edge4" class="edge">
<title>data&#45;&gt;chart</title>
<path fill="none" stroke="#000000" d="M151.9612,-94C160.87,-94 170.9088,-94 180.4089,-94"/>
<polygon fill="#000000" stroke="#000000" points="180.4272,-97.5001 190.4272,-94 180.4272,-90.5001 180.4272,-97.5001"/>
</g>
<!-- symbol -->
<g id="node3" class="node">
<title>symbol</title>
<ellipse fill="none" stroke="#000000" cx="418.8515" cy="-76" rx="29.3416" ry="18"/>
<text text-anchor="middle" x="418.8515" y="-72.9695" font-family="Inconsolata" font-size="11.00" fill="#000000">symbol</text>
</g>
<!-- symbol&#45;&gt;data -->
<g id="edge2" class="edge">
<title>symbol&#45;&gt;data</title>
<path fill="none" stroke="#000000" d="M390.7834,-70.7562C347.408,-63.5766 261.6779,-53.0727 190.6812,-67 178.6276,-69.3645 166.0008,-73.9381 155.0469,-78.6586"/>
<polygon fill="#000000" stroke="#000000" points="153.5763,-75.4823 145.9077,-82.7929 156.4614,-81.8601 153.5763,-75.4823"/>
</g>
<!-- ui -->
<g id="node7" class="node">
<title>ui</title>
<ellipse fill="none" stroke="#000000" cx="308.6812" cy="-100" rx="27" ry="18"/>
<text text-anchor="middle" x="308.6812" y="-96.9695" font-family="Inconsolata" font-size="11.00" fill="#000000">ui</text>
</g>
<!-- symbol&#45;&gt;ui -->
<g id="edge6" class="edge">
<title>symbol&#45;&gt;ui</title>
<path fill="none" stroke="#000000" d="M391.2575,-82.0112C377.1262,-85.0896 359.7491,-88.8752 344.5871,-92.1781"/>
<polygon fill="#000000" stroke="#000000" points="343.5371,-88.8247 334.5113,-94.3731 345.0271,-95.6643 343.5371,-88.8247"/>
</g>
<!-- period -->
<g id="node4" class="node">
<title>period</title>
<ellipse fill="none" stroke="#000000" cx="418.8515" cy="-157" rx="29.3416" ry="18"/>
<text text-anchor="middle" x="418.8515" y="-153.9695" font-family="Inconsolata" font-size="11.00" fill="#000000">period</text>
</g>
<!-- period&#45;&gt;data -->
<g id="edge3" class="edge">
<title>period&#45;&gt;data</title>
<path fill="none" stroke="#000000" d="M389.9056,-160.3542C378.5776,-161.1389 365.4919,-161.3933 353.6812,-160 279.705,-151.2732 261.594,-143.8039 190.6812,-121 179.2866,-117.3358 167.0834,-112.5991 156.299,-108.1185"/>
<polygon fill="#000000" stroke="#000000" points="157.4306,-104.7967 146.8578,-104.1139 154.6972,-111.241 157.4306,-104.7967"/>
</g>
<!-- period&#45;&gt;ui -->
<g id="edge7" class="edge">
<title>period&#45;&gt;ui</title>
<path fill="none" stroke="#000000" d="M389.7654,-154.2389C378.0502,-152.2562 364.7256,-148.8504 353.6812,-143 344.5651,-138.171 335.9899,-130.9636 328.8201,-123.8232"/>
<polygon fill="#000000" stroke="#000000" points="331.0447,-121.0815 321.6325,-116.2173 325.957,-125.8894 331.0447,-121.0815"/>
</g>
<!-- chart&#45;&gt;ui -->
<g id="edge8" class="edge">
<title>chart&#45;&gt;ui</title>
<path fill="none" stroke="#000000" d="M244.9842,-95.8002C253.3378,-96.351 262.6711,-96.9664 271.5621,-97.5526"/>
<polygon fill="#000000" stroke="#000000" points="271.5025,-101.0562 281.7111,-98.2217 271.9631,-94.0713 271.5025,-101.0562"/>
</g>
<!-- window -->
<g id="node6" class="node">
<title>window</title>
<ellipse fill="none" stroke="#000000" cx="124.5109" cy="-18" rx="29.3416" ry="18"/>
<text text-anchor="middle" x="124.5109" y="-14.9695" font-family="Inconsolata" font-size="11.00" fill="#000000">window</text>
</g>
<!-- window&#45;&gt;chart -->
<g id="edge5" class="edge">
<title>window&#45;&gt;chart</title>
<path fill="none" stroke="#000000" stroke-dasharray="5,2" d="M142.4751,-32.6536C156.7046,-44.2607 176.7508,-60.6126 192.5689,-73.5156"/>
<polygon fill="#000000" stroke="#000000" points="190.4409,-76.2965 200.4022,-79.9053 194.8656,-70.8722 190.4409,-76.2965"/>
<text text-anchor="middle" x="164.9751" y="-34.8945" font-family="Inconsolata" font-size="9.00" fill="#000000"> &#160;&#160;&#160;resize</text>
</g>
<!-- ui&#45;&gt;symbol -->
<g id="edge9" class="edge">
<title>ui&#45;&gt;symbol</title>
<path fill="none" stroke="#000000" stroke-dasharray="5,2" d="M328.034,-87.3663C335.6988,-83.0602 344.7922,-78.7759 353.6812,-76.559 361.9545,-74.4957 371.0043,-73.5988 379.6565,-73.3602"/>
<polygon fill="#000000" stroke="#000000" points="379.9336,-76.8602 389.9342,-73.3617 379.9347,-69.8602 379.9336,-76.8602"/>
<text text-anchor="middle" x="362.6812" y="-78.241" font-family="Inconsolata" font-size="9.00" fill="#000000">user</text>
</g>
<!-- ui&#45;&gt;period -->
<g id="edge10" class="edge">
<title>ui&#45;&gt;period</title>
<path fill="none" stroke="#000000" stroke-dasharray="5,2" d="M330.1847,-111.1255C346.3955,-119.5127 368.8809,-131.1461 387.1515,-140.599"/>
<polygon fill="#000000" stroke="#000000" points="385.7761,-143.8281 396.2661,-145.3147 388.9928,-137.6109 385.7761,-143.8281"/>
<text text-anchor="middle" x="362.6812" y="-133.241" font-family="Inconsolata" font-size="9.00" fill="#000000">user</text>
</g>
</g>
</svg>
