<?xml version="1.0" encoding="UTF-8" standalone="no"?>
<!DOCTYPE svg PUBLIC "-//W3C//DTD SVG 1.1//EN"
 "http://www.w3.org/Graphics/SVG/1.1/DTD/svg11.dtd">
<!-- Generated by graphviz version 2.40.1 (20161225.0304)
 -->
<!-- Title: g Pages: 1 -->
<svg width="650pt" height="281pt"
 viewBox="0.00 0.00 650.17 281.00" xmlns="http://www.w3.org/2000/svg" xmlns:xlink="http://www.w3.org/1999/xlink">
<g id="graph0" class="graph" transform="scale(1 1) rotate(0) translate(4 277)">
<title>g</title>
<polygon fill="#ffffff" stroke="transparent" points="-4,4 -4,-277 646.1672,-277 646.1672,4 -4,4"/>
<!-- market -->
<g id="node1" class="node">
<title>market</title>
<ellipse fill="none" stroke="#000000" cx="195.1078" cy="-90" rx="29.3416" ry="18"/>
<text text-anchor="middle" x="195.1078" y="-86.9695" font-family="Inconsolata" font-size="11.00" fill="#000000">market</text>
</g>
<!-- response -->
<g id="node2" class="node">
<title>response</title>
<ellipse fill="none" stroke="#000000" cx="195.1078" cy="-18" rx="35.9388" ry="18"/>
<text text-anchor="middle" x="195.1078" y="-14.9695" font-family="Inconsolata" font-size="11.00" fill="#000000">response</text>
</g>
<!-- market&#45;&gt;response -->
<g id="edge1" class="edge">
<title>market&#45;&gt;response</title>
<path fill="none" stroke="#000000" d="M195.1078,-71.8594C195.1078,-63.2681 195.1078,-54.6768 195.1078,-46.0854"/>
<polygon fill="#000000" stroke="#000000" points="198.6079,-46 195.1078,-36 191.6079,-46 198.6079,-46"/>
</g>
<!-- data -->
<g id="node7" class="node">
<title>data</title>
<ellipse fill="none" stroke="#000000" cx="296.9969" cy="-94" rx="27" ry="18"/>
<text text-anchor="middle" x="296.9969" y="-90.9695" font-family="Inconsolata" font-size="11.00" fill="#000000">data</text>
</g>
<!-- response&#45;&gt;data -->
<g id="edge5" class="edge">
<title>response&#45;&gt;data</title>
<path fill="none" stroke="#000000" d="M215.2378,-33.0152C231.1865,-44.9114 253.5892,-61.6218 270.9119,-74.543"/>
<polygon fill="#000000" stroke="#000000" points="268.8488,-77.3705 278.9571,-80.544 273.0341,-71.7595 268.8488,-77.3705"/>
</g>
<!-- symbol -->
<g id="node3" class="node">
<title>symbol</title>
<ellipse fill="none" stroke="#000000" cx="195.1078" cy="-255" rx="29.3416" ry="18"/>
<text text-anchor="middle" x="195.1078" y="-251.9695" font-family="Inconsolata" font-size="11.00" fill="#000000">symbol</text>
</g>
<!-- symbol&#45;&gt;response -->
<g id="edge2" class="edge">
<title>symbol&#45;&gt;response</title>
<path fill="none" stroke="#000000" d="M166.797,-249.8214C147.7766,-244.7117 124.0827,-234.8115 112.1391,-216 77.8349,-161.9701 81.6294,-128.2597 112.1391,-72 121.6788,-54.4087 139.7046,-41.6485 156.5235,-32.9638"/>
<polygon fill="#000000" stroke="#000000" points="158.1905,-36.0458 165.6816,-28.5535 155.1533,-29.739 158.1905,-36.0458"/>
</g>
<!-- ui -->
<g id="node11" class="node">
<title>ui</title>
<ellipse fill="none" stroke="#000000" cx="507.1672" cy="-179" rx="27" ry="18"/>
<text text-anchor="middle" x="507.1672" y="-175.9695" font-family="Inconsolata" font-size="11.00" fill="#000000">ui</text>
</g>
<!-- symbol&#45;&gt;ui -->
<g id="edge10" class="edge">
<title>symbol&#45;&gt;ui</title>
<path fill="none" stroke="#000000" d="M223.9193,-251.1309C270.3294,-244.6985 364.4114,-230.8326 443.1672,-214 451.7063,-212.1749 454.2036,-212.5818 462.1672,-209 468.611,-206.1018 475.1547,-202.3153 481.1828,-198.4131"/>
<polygon fill="#000000" stroke="#000000" points="483.2756,-201.2226 489.5741,-192.7033 479.3376,-195.4353 483.2756,-201.2226"/>
</g>
<!-- period -->
<g id="node4" class="node">
<title>period</title>
<ellipse fill="none" stroke="#000000" cx="195.1078" cy="-198" rx="29.3416" ry="18"/>
<text text-anchor="middle" x="195.1078" y="-194.9695" font-family="Inconsolata" font-size="11.00" fill="#000000">period</text>
</g>
<!-- period&#45;&gt;response -->
<g id="edge3" class="edge">
<title>period&#45;&gt;response</title>
<path fill="none" stroke="#000000" d="M166.461,-193.7492C147.5443,-189.2929 124.1128,-180.2478 112.1391,-162 90.1945,-128.557 93.0705,-107.1623 112.1391,-72 121.6788,-54.4087 139.7046,-41.6485 156.5235,-32.9638"/>
<polygon fill="#000000" stroke="#000000" points="158.1905,-36.0458 165.6816,-28.5535 155.1533,-29.739 158.1905,-36.0458"/>
</g>
<!-- period&#45;&gt;ui -->
<g id="edge11" class="edge">
<title>period&#45;&gt;ui</title>
<path fill="none" stroke="#000000" d="M224.1854,-196.2296C280.9689,-192.7723 406.5467,-185.1264 469.5602,-181.2897"/>
<polygon fill="#000000" stroke="#000000" points="470.0741,-184.765 479.8428,-180.6637 469.6486,-177.778 470.0741,-184.765"/>
</g>
<!-- avgmode -->
<g id="node5" class="node">
<title>avgmode</title>
<ellipse fill="none" stroke="#000000" cx="195.1078" cy="-144" rx="32.3892" ry="18"/>
<text text-anchor="middle" x="195.1078" y="-140.9695" font-family="Inconsolata" font-size="11.00" fill="#000000">avgmode</text>
</g>
<!-- avgmode&#45;&gt;data -->
<g id="edge6" class="edge">
<title>avgmode&#45;&gt;data</title>
<path fill="none" stroke="#000000" d="M219.5128,-132.0238C233.4215,-125.1983 250.992,-116.576 265.8836,-109.2682"/>
<polygon fill="#000000" stroke="#000000" points="267.7818,-112.2355 275.2172,-104.6879 264.698,-105.9513 267.7818,-112.2355"/>
</g>
<!-- refresh -->
<g id="node6" class="node">
<title>refresh</title>
<ellipse fill="none" stroke="#000000" cx="32.4445" cy="-18" rx="32.3892" ry="18"/>
<text text-anchor="middle" x="32.4445" y="-14.9695" font-family="Inconsolata" font-size="11.00" fill="#000000">refresh</text>
</g>
<!-- refresh&#45;&gt;response -->
<g id="edge4" class="edge">
<title>refresh&#45;&gt;response</title>
<path fill="none" stroke="#000000" d="M64.9709,-18C89.0344,-18 122.143,-18 148.9425,-18"/>
<polygon fill="#000000" stroke="#000000" points="149.2455,-21.5001 159.2455,-18 149.2455,-14.5001 149.2455,-21.5001"/>
<text text-anchor="middle" x="112.1391" y="-20.241" font-family="Inconsolata" font-size="9.00" fill="#000000">every 60 secs</text>
</g>
<!-- chart -->
<g id="node8" class="node">
<title>chart</title>
<ellipse fill="none" stroke="#000000" cx="416.1672" cy="-91" rx="27" ry="18"/>
<text text-anchor="middle" x="416.1672" y="-87.9695" font-family="Inconsolata" font-size="11.00" fill="#000000">chart</text>
</g>
<!-- data&#45;&gt;chart -->
<g id="edge7" class="edge">
<title>data&#45;&gt;chart</title>
<path fill="none" stroke="#000000" d="M324.0384,-93.3193C340.2269,-92.9117 361.0383,-92.3878 378.7841,-91.9411"/>
<polygon fill="#000000" stroke="#000000" points="378.9114,-95.4391 388.8201,-91.6884 378.7351,-88.4413 378.9114,-95.4391"/>
</g>
<!-- chart&#45;&gt;ui -->
<g id="edge12" class="edge">
<title>chart&#45;&gt;ui</title>
<path fill="none" stroke="#000000" d="M433.651,-104.9543C442.4351,-112.1802 453.1087,-121.2937 462.1672,-130 470.4971,-138.0061 479.188,-147.237 486.6859,-155.5131"/>
<polygon fill="#000000" stroke="#000000" points="484.1827,-157.9644 493.4584,-163.0842 489.4,-153.2974 484.1827,-157.9644"/>
</g>
<!-- window -->
<g id="node9" class="node">
<title>window</title>
<ellipse fill="none" stroke="#000000" cx="296.9969" cy="-40" rx="29.3416" ry="18"/>
<text text-anchor="middle" x="296.9969" y="-36.9695" font-family="Inconsolata" font-size="11.00" fill="#000000">window</text>
</g>
<!-- window&#45;&gt;chart -->
<g id="edge8" class="edge">
<title>window&#45;&gt;chart</title>
<path fill="none" stroke="#000000" stroke-dasharray="5,2" d="M321.1127,-50.3206C339.2315,-58.0747 364.2298,-68.7729 384.043,-77.2522"/>
<polygon fill="#000000" stroke="#000000" points="382.7295,-80.4971 393.3001,-81.2138 385.4837,-74.0616 382.7295,-80.4971"/>
<text text-anchor="middle" x="357.6672" y="-73.241" font-family="Inconsolata" font-size="9.00" fill="#000000">resize</text>
</g>
<!-- theme -->
<g id="node10" class="node">
<title>theme</title>
<ellipse fill="none" stroke="#000000" cx="615.1672" cy="-155" rx="27" ry="18"/>
<text text-anchor="middle" x="615.1672" y="-151.9695" font-family="Inconsolata" font-size="11.00" fill="#000000">theme</text>
</g>
<!-- theme&#45;&gt;chart -->
<g id="edge9" class="edge">
<title>theme&#45;&gt;chart</title>
<path fill="none" stroke="#000000" d="M590.5663,-147.0882C555.2437,-135.7281 490.0298,-114.7548 450.1327,-101.9236"/>
<polygon fill="#000000" stroke="#000000" points="451.1599,-98.5774 440.5685,-98.8477 449.0167,-105.2413 451.1599,-98.5774"/>
</g>
<!-- theme&#45;&gt;ui -->
<g id="edge13" class="edge">
<title>theme&#45;&gt;ui</title>
<path fill="none" stroke="#000000" d="M589.5096,-160.7017C575.652,-163.7812 558.3193,-167.6329 543.1354,-171.0071"/>
<polygon fill="#000000" stroke="#000000" points="542.0384,-167.6654 533.0359,-173.2514 543.557,-174.4987 542.0384,-167.6654"/>
</g>
<!-- ui&#45;&gt;symbol -->
<g id="edge14" class="edge">
<title>ui&#45;&gt;symbol</title>
<path fill="none" stroke="#000000" stroke-dasharray="5,2" d="M494.4085,-194.9392C482.709,-208.1274 464.0648,-225.8178 443.1672,-233 361.0557,-261.2204 336.5614,-257.0318 249.8265,-261 244.5908,-261.2395 239.087,-261.1011 233.6703,-260.7356"/>
<polygon fill="#000000" stroke="#000000" points="233.734,-257.2267 223.4546,-259.7925 233.0905,-264.197 233.734,-257.2267"/>
<text text-anchor="middle" x="357.6672" y="-258.241" font-family="Inconsolata" font-size="9.00" fill="#000000">user</text>
</g>
<!-- ui&#45;&gt;period -->
<g id="edge15" class="edge">
<title>ui&#45;&gt;period</title>
<path fill="none" stroke="#000000" stroke-dasharray="5,2" d="M483.5998,-188.3037C476.7658,-190.7483 469.2386,-193.2011 462.1672,-195 453.882,-197.1077 451.6738,-197.1494 443.1672,-198 357.1937,-206.5962 335.1357,-207.0081 248.8265,-203 244.0489,-202.7781 239.04,-202.4459 234.0821,-202.056"/>
<polygon fill="#000000" stroke="#000000" points="234.3314,-198.5646 224.0676,-201.192 233.7297,-205.5387 234.3314,-198.5646"/>
<text text-anchor="middle" x="357.6672" y="-207.241" font-family="Inconsolata" font-size="9.00" fill="#000000">user</text>
</g>
<!-- ui&#45;&gt;avgmode -->
<g id="edge17" class="edge">
<title>ui&#45;&gt;avgmode</title>
<path fill="none" stroke="#000000" stroke-dasharray="5,2" d="M480.4521,-176.0037C426.0722,-169.9045 302.1633,-156.0071 236.9755,-148.6958"/>
<polygon fill="#000000" stroke="#000000" points="237.3649,-145.2176 227.0371,-147.5811 236.5847,-152.174 237.3649,-145.2176"/>
<text text-anchor="middle" x="357.6672" y="-165.241" font-family="Inconsolata" font-size="9.00" fill="#000000">user</text>
</g>
<!-- ui&#45;&gt;theme -->
<g id="edge16" class="edge">
<title>ui&#45;&gt;theme</title>
<path fill="none" stroke="#000000" stroke-dasharray="5,2" d="M526.5203,-166.3677C534.1851,-162.0618 543.2785,-157.7772 552.1672,-155.559 560.391,-153.5068 569.4087,-152.6458 577.9862,-152.4428"/>
<polygon fill="#000000" stroke="#000000" points="578.1327,-155.9434 588.1475,-152.4858 578.1624,-148.9434 578.1327,-155.9434"/>
<text text-anchor="middle" x="561.1672" y="-157.241" font-family="Inconsolata" font-size="9.00" fill="#000000">user</text>
</g>
</g>
</svg>
