<?xml version="1.0" encoding="UTF-8" standalone="no"?>
<!DOCTYPE svg PUBLIC "-//W3C//DTD SVG 1.1//EN"
 "http://www.w3.org/Graphics/SVG/1.1/DTD/svg11.dtd">
<!-- Generated by graphviz version 2.40.1 (20161225.0304)
 -->
<!-- Title: g Pages: 1 -->
<svg width="546pt" height="242pt"
 viewBox="0.00 0.00 546.07 242.00" xmlns="http://www.w3.org/2000/svg" xmlns:xlink="http://www.w3.org/1999/xlink">
<g id="graph0" class="graph" transform="scale(1 1) rotate(0) translate(4 238)">
<title>g</title>
<polygon fill="#ffffff" stroke="transparent" points="-4,4 -4,-238 542.0703,-238 542.0703,4 -4,4"/>
<!-- market -->
<g id="node1" class="node">
<title>market</title>
<ellipse fill="none" stroke="#000000" cx="32.4445" cy="-216" rx="29.3416" ry="18"/>
<text text-anchor="middle" x="32.4445" y="-212.9695" font-family="Inconsolata" font-size="11.00" fill="#000000">market</text>
</g>
<!-- data -->
<g id="node2" class="node">
<title>data</title>
<ellipse fill="none" stroke="#000000" cx="188.5594" cy="-189" rx="27" ry="18"/>
<text text-anchor="middle" x="188.5594" y="-185.9695" font-family="Inconsolata" font-size="11.00" fill="#000000">data</text>
</g>
<!-- market&#45;&gt;data -->
<g id="edge1" class="edge">
<title>market&#45;&gt;data</title>
<path fill="none" stroke="#000000" d="M60.7157,-211.1105C86.3493,-206.6772 124.2768,-200.1176 152.1663,-195.2942"/>
<polygon fill="#000000" stroke="#000000" points="153.06,-198.6917 162.3172,-193.5386 151.867,-191.7941 153.06,-198.6917"/>
</g>
<!-- chart -->
<g id="node6" class="node">
<title>chart</title>
<ellipse fill="none" stroke="#000000" cx="307.7297" cy="-95" rx="27" ry="18"/>
<text text-anchor="middle" x="307.7297" y="-91.9695" font-family="Inconsolata" font-size="11.00" fill="#000000">chart</text>
</g>
<!-- data&#45;&gt;chart -->
<g id="edge5" class="edge">
<title>data&#45;&gt;chart</title>
<path fill="none" stroke="#000000" d="M206.1434,-175.13C226.2101,-159.3016 259.2079,-133.2733 282.1279,-115.1943"/>
<polygon fill="#000000" stroke="#000000" points="284.3897,-117.8681 290.0735,-108.9269 280.0545,-112.3721 284.3897,-117.8681"/>
</g>
<!-- symbol -->
<g id="node3" class="node">
<title>symbol</title>
<ellipse fill="none" stroke="#000000" cx="508.9" cy="-164" rx="29.3416" ry="18"/>
<text text-anchor="middle" x="508.9" y="-160.9695" font-family="Inconsolata" font-size="11.00" fill="#000000">symbol</text>
</g>
<!-- symbol&#45;&gt;data -->
<g id="edge2" class="edge">
<title>symbol&#45;&gt;data</title>
<path fill="none" stroke="#000000" d="M494.9131,-180.046C486.3199,-188.6446 474.5273,-198.3946 461.7297,-203 367.2186,-237.0109 335.1308,-217.4397 235.7297,-203 231.45,-202.3783 227.0183,-201.455 222.6621,-200.3737"/>
<polygon fill="#000000" stroke="#000000" points="223.3126,-196.9223 212.7416,-197.6315 221.4476,-203.6693 223.3126,-196.9223"/>
</g>
<!-- ui -->
<g id="node9" class="node">
<title>ui</title>
<ellipse fill="none" stroke="#000000" cx="398.7297" cy="-95" rx="27" ry="18"/>
<text text-anchor="middle" x="398.7297" y="-91.9695" font-family="Inconsolata" font-size="11.00" fill="#000000">ui</text>
</g>
<!-- symbol&#45;&gt;ui -->
<g id="edge8" class="edge">
<title>symbol&#45;&gt;ui</title>
<path fill="none" stroke="#000000" d="M479.761,-161.957C467.9069,-160.0893 454.4943,-156.5752 443.7297,-150 431.885,-142.765 421.7603,-131.2674 414.1313,-120.6507"/>
<polygon fill="#000000" stroke="#000000" points="416.8232,-118.3827 408.327,-112.0529 411.0214,-122.2994 416.8232,-118.3827"/>
</g>
<!-- period -->
<g id="node4" class="node">
<title>period</title>
<ellipse fill="none" stroke="#000000" cx="508.9" cy="-107" rx="29.3416" ry="18"/>
<text text-anchor="middle" x="508.9" y="-103.9695" font-family="Inconsolata" font-size="11.00" fill="#000000">period</text>
</g>
<!-- period&#45;&gt;data -->
<g id="edge3" class="edge">
<title>period&#45;&gt;data</title>
<path fill="none" stroke="#000000" d="M494.2047,-122.7005C485.5531,-130.9643 473.9355,-140.4979 461.7297,-146 383.1523,-181.4206 280.4378,-188.3087 226.0861,-189.2633"/>
<polygon fill="#000000" stroke="#000000" points="225.8407,-185.7658 215.882,-189.3818 225.922,-192.7653 225.8407,-185.7658"/>
</g>
<!-- period&#45;&gt;ui -->
<g id="edge9" class="edge">
<title>period&#45;&gt;ui</title>
<path fill="none" stroke="#000000" d="M480.1608,-103.8697C466.537,-102.3857 450.1006,-100.5954 435.5727,-99.013"/>
<polygon fill="#000000" stroke="#000000" points="435.7191,-95.5083 425.3988,-97.9049 434.961,-102.4672 435.7191,-95.5083"/>
</g>
<!-- refresh -->
<g id="node5" class="node">
<title>refresh</title>
<ellipse fill="none" stroke="#000000" cx="32.4445" cy="-162" rx="32.3892" ry="18"/>
<text text-anchor="middle" x="32.4445" y="-158.9695" font-family="Inconsolata" font-size="11.00" fill="#000000">refresh</text>
</g>
<!-- refresh&#45;&gt;data -->
<g id="edge4" class="edge">
<title>refresh&#45;&gt;data</title>
<path fill="none" stroke="#000000" d="M63.6615,-167.399C89.1914,-171.8143 125.3295,-178.0644 152.1695,-182.7064"/>
<polygon fill="#000000" stroke="#000000" points="151.8697,-186.2064 162.3199,-184.4619 153.0627,-179.3088 151.8697,-186.2064"/>
<text text-anchor="middle" x="112.1391" y="-182.241" font-family="Inconsolata" font-size="9.00" fill="#000000">every 60 secs</text>
</g>
<!-- chart&#45;&gt;ui -->
<g id="edge10" class="edge">
<title>chart&#45;&gt;ui</title>
<path fill="none" stroke="#000000" d="M335.0327,-95C343.311,-95 352.5514,-95 361.3702,-95"/>
<polygon fill="#000000" stroke="#000000" points="361.446,-98.5001 371.4459,-95 361.4459,-91.5001 361.446,-98.5001"/>
</g>
<!-- window -->
<g id="node7" class="node">
<title>window</title>
<ellipse fill="none" stroke="#000000" cx="188.5594" cy="-95" rx="29.3416" ry="18"/>
<text text-anchor="middle" x="188.5594" y="-91.9695" font-family="Inconsolata" font-size="11.00" fill="#000000">window</text>
</g>
<!-- window&#45;&gt;chart -->
<g id="edge6" class="edge">
<title>window&#45;&gt;chart</title>
<path fill="none" stroke="#000000" stroke-dasharray="5,2" d="M218.0172,-95C233.8851,-95 253.6213,-95 270.5389,-95"/>
<polygon fill="#000000" stroke="#000000" points="270.6485,-98.5001 280.6485,-95 270.6485,-91.5001 270.6485,-98.5001"/>
<text text-anchor="middle" x="249.2297" y="-97.241" font-family="Inconsolata" font-size="9.00" fill="#000000">resize</text>
</g>
<!-- theme -->
<g id="node8" class="node">
<title>theme</title>
<ellipse fill="none" stroke="#000000" cx="508.9" cy="-18" rx="27" ry="18"/>
<text text-anchor="middle" x="508.9" y="-14.9695" font-family="Inconsolata" font-size="11.00" fill="#000000">theme</text>
</g>
<!-- theme&#45;&gt;chart -->
<g id="edge7" class="edge">
<title>theme&#45;&gt;chart</title>
<path fill="none" stroke="#000000" d="M481.835,-16.543C469.9495,-16.5896 455.9482,-17.59 443.7297,-21 402.7901,-32.4255 360.5381,-57.9693 334.2144,-75.8311"/>
<polygon fill="#000000" stroke="#000000" points="332.1586,-72.9973 325.9228,-81.5626 336.139,-78.7555 332.1586,-72.9973"/>
</g>
<!-- theme&#45;&gt;ui -->
<g id="edge11" class="edge">
<title>theme&#45;&gt;ui</title>
<path fill="none" stroke="#000000" d="M481.8134,-19.3701C469.3833,-21.0659 454.9504,-24.6312 443.7297,-32 430.0782,-40.965 419.248,-55.6126 411.6364,-68.5287"/>
<polygon fill="#000000" stroke="#000000" points="408.4405,-67.0759 406.6685,-77.5216 414.5677,-70.4608 408.4405,-67.0759"/>
</g>
<!-- ui&#45;&gt;symbol -->
<g id="edge12" class="edge">
<title>ui&#45;&gt;symbol</title>
<path fill="none" stroke="#000000" stroke-dasharray="5,2" d="M418.4259,-107.3358C435.4168,-117.9773 460.1976,-133.4975 479.53,-145.6055"/>
<polygon fill="#000000" stroke="#000000" points="477.9197,-148.7267 488.2525,-151.0684 481.6353,-142.7942 477.9197,-148.7267"/>
<text text-anchor="middle" x="452.7297" y="-135.241" font-family="Inconsolata" font-size="9.00" fill="#000000">user</text>
</g>
<!-- ui&#45;&gt;period -->
<g id="edge13" class="edge">
<title>ui&#45;&gt;period</title>
<path fill="none" stroke="#000000" stroke-dasharray="5,2" d="M423.7032,-87.7938C435.3282,-85.4241 449.3035,-83.9824 461.7297,-86.559 466.8421,-87.6191 472.0812,-89.2621 477.1222,-91.1663"/>
<polygon fill="#000000" stroke="#000000" points="475.9092,-94.4525 486.4863,-95.0653 478.6,-87.9903 475.9092,-94.4525"/>
<text text-anchor="middle" x="452.7297" y="-89.241" font-family="Inconsolata" font-size="9.00" fill="#000000">user</text>
</g>
<!-- ui&#45;&gt;theme -->
<g id="edge14" class="edge">
<title>ui&#45;&gt;theme</title>
<path fill="none" stroke="#000000" stroke-dasharray="5,2" d="M417.4186,-81.938C435.066,-69.6039 461.7343,-50.965 481.7311,-36.9888"/>
<polygon fill="#000000" stroke="#000000" points="483.928,-39.7236 490.1194,-31.1261 479.9179,-33.986 483.928,-39.7236"/>
<text text-anchor="middle" x="452.7297" y="-66.241" font-family="Inconsolata" font-size="9.00" fill="#000000">user</text>
</g>
</g>
</svg>
