<?xml version="1.0" encoding="UTF-8" standalone="no"?>
<!DOCTYPE svg PUBLIC "-//W3C//DTD SVG 1.1//EN"
 "http://www.w3.org/Graphics/SVG/1.1/DTD/svg11.dtd">
<!-- Generated by graphviz version 2.40.1 (20161225.0304)
 -->
<!-- Title: g Pages: 1 -->
<svg width="719pt" height="156pt"
 viewBox="0.00 0.00 718.51 155.98" xmlns="http://www.w3.org/2000/svg" xmlns:xlink="http://www.w3.org/1999/xlink">
<g id="graph0" class="graph" transform="scale(1 1) rotate(0) translate(4 151.9754)">
<title>g</title>
<polygon fill="#ffffff" stroke="transparent" points="-4,4 -4,-151.9754 714.5138,-151.9754 714.5138,4 -4,4"/>
<!-- s0 -->
<g id="node1" class="node">
<title>s0</title>
<ellipse fill="#0000ff" stroke="#0000ff" cx="50.2046" cy="-106.9754" rx="50.41" ry="21.9508"/>
<text text-anchor="middle" x="50.2046" y="-109.7144" font-family="Inconsolata" font-size="11.00" fill="#ffffff">iterable&#45;0</text>
<text text-anchor="middle" x="50.2046" y="-98.1754" font-family="Inconsolata" font-size="11.00" fill="#ffffff">(Stream)</text>
</g>
<!-- s1 -->
<g id="node2" class="node">
<title>s1</title>
<ellipse fill="#000000" stroke="#000000" cx="215.999" cy="-129.9754" rx="27" ry="18"/>
<text text-anchor="middle" x="215.999" y="-126.9449" font-family="Inconsolata" font-size="11.00" fill="#ffffff">x10</text>
</g>
<!-- s0&#45;&gt;s1 -->
<g id="edge5" class="edge">
<title>s0&#45;&gt;s1</title>
<path fill="none" stroke="#000000" d="M98.1592,-113.628C123.9845,-117.2106 155.348,-121.5615 179.2239,-124.8737"/>
<polygon fill="#000000" stroke="#000000" points="178.9032,-128.3627 189.2893,-126.2701 179.8652,-121.4291 178.9032,-128.3627"/>
<text text-anchor="middle" x="132.1592" y="-121.7144" font-family="Inconsolata" font-size="11.00" fill="#000000">xform</text>
</g>
<!-- s2 -->
<g id="node3" class="node">
<title>s2</title>
<ellipse fill="#000000" stroke="#000000" cx="215.999" cy="-75.9754" rx="52.1798" ry="18"/>
<text text-anchor="middle" x="215.999" y="-72.9449" font-family="Inconsolata" font-size="11.00" fill="#ffffff">in&#45;iterable&#45;0</text>
</g>
<!-- s0&#45;&gt;s2 -->
<g id="edge6" class="edge">
<title>s0&#45;&gt;s2</title>
<path fill="none" stroke="#000000" d="M96.3876,-98.3402C116.1494,-94.6451 139.3996,-90.2978 160.1209,-86.4234"/>
<polygon fill="#000000" stroke="#000000" points="160.8773,-89.8427 170.0637,-84.5643 159.5907,-82.962 160.8773,-89.8427"/>
</g>
<!-- s3 -->
<g id="node4" class="node">
<title>s3</title>
<ellipse fill="#c0c0c0" stroke="#c0c0c0" cx="334.2591" cy="-75.9754" rx="29.3416" ry="18"/>
<text text-anchor="middle" x="334.2591" y="-72.9449" font-family="Inconsolata" font-size="11.00" fill="#ffffff">&lt;noid&gt;</text>
</g>
<!-- s2&#45;&gt;s3 -->
<g id="edge4" class="edge">
<title>s2&#45;&gt;s3</title>
<path fill="none" stroke="#000000" d="M268.2139,-75.9754C277.1877,-75.9754 286.3771,-75.9754 294.9397,-75.9754"/>
<polygon fill="#000000" stroke="#000000" points="295.0168,-79.4755 305.0168,-75.9754 295.0168,-72.4755 295.0168,-79.4755"/>
</g>
<!-- s4 -->
<g id="node5" class="node">
<title>s4</title>
<ellipse fill="#ff0000" stroke="#ff0000" cx="462.3013" cy="-47.9754" rx="61.744" ry="21.9508"/>
<text text-anchor="middle" x="462.3013" y="-50.7144" font-family="Inconsolata" font-size="11.00" fill="#ffffff">streammerge&#45;0</text>
<text text-anchor="middle" x="462.3013" y="-39.1754" font-family="Inconsolata" font-size="11.00" fill="#ffffff">(StreamMerge)</text>
</g>
<!-- s3&#45;&gt;s4 -->
<g id="edge3" class="edge">
<title>s3&#45;&gt;s4</title>
<path fill="none" stroke="#000000" d="M362.0424,-69.8998C373.1199,-67.4774 386.3557,-64.583 399.5214,-61.704"/>
<polygon fill="#000000" stroke="#000000" points="400.5174,-65.069 409.5388,-59.5134 399.0219,-58.2306 400.5174,-65.069"/>
</g>
<!-- s5 -->
<g id="node6" class="node">
<title>s5</title>
<ellipse fill="#000000" stroke="#000000" cx="588.1731" cy="-47.9754" rx="27" ry="18"/>
<text text-anchor="middle" x="588.1731" y="-44.9449" font-family="Inconsolata" font-size="11.00" fill="#ffffff">sub&#45;1</text>
</g>
<!-- s4&#45;&gt;s5 -->
<g id="edge2" class="edge">
<title>s4&#45;&gt;s5</title>
<path fill="none" stroke="#000000" d="M524.4997,-47.9754C533.558,-47.9754 542.6367,-47.9754 550.9851,-47.9754"/>
<polygon fill="#000000" stroke="#000000" points="551.1125,-51.4755 561.1125,-47.9754 551.1125,-44.4755 551.1125,-51.4755"/>
</g>
<!-- s6 -->
<g id="node7" class="node">
<title>s6</title>
<ellipse fill="#c0c0c0" stroke="#c0c0c0" cx="681.3435" cy="-47.9754" rx="29.3416" ry="18"/>
<text text-anchor="middle" x="681.3435" y="-44.9449" font-family="Inconsolata" font-size="11.00" fill="#ffffff">&lt;noid&gt;</text>
</g>
<!-- s5&#45;&gt;s6 -->
<g id="edge1" class="edge">
<title>s5&#45;&gt;s6</title>
<path fill="none" stroke="#000000" d="M615.6234,-47.9754C623.8797,-47.9754 633.1065,-47.9754 641.9757,-47.9754"/>
<polygon fill="#000000" stroke="#000000" points="642.1434,-51.4755 652.1434,-47.9754 642.1433,-44.4755 642.1434,-51.4755"/>
</g>
<!-- s7 -->
<g id="node8" class="node">
<title>s7</title>
<ellipse fill="#0000ff" stroke="#0000ff" cx="50.2046" cy="-21.9754" rx="50.41" ry="21.9508"/>
<text text-anchor="middle" x="50.2046" y="-24.7144" font-family="Inconsolata" font-size="11.00" fill="#ffffff">iterable&#45;1</text>
<text text-anchor="middle" x="50.2046" y="-13.1754" font-family="Inconsolata" font-size="11.00" fill="#ffffff">(Stream)</text>
</g>
<!-- s8 -->
<g id="node9" class="node">
<title>s8</title>
<ellipse fill="#000000" stroke="#000000" cx="215.999" cy="-21.9754" rx="52.1798" ry="18"/>
<text text-anchor="middle" x="215.999" y="-18.9449" font-family="Inconsolata" font-size="11.00" fill="#ffffff">in&#45;iterable&#45;1</text>
</g>
<!-- s7&#45;&gt;s8 -->
<g id="edge9" class="edge">
<title>s7&#45;&gt;s8</title>
<path fill="none" stroke="#000000" d="M100.8492,-21.9754C117.4867,-21.9754 136.1777,-21.9754 153.5835,-21.9754"/>
<polygon fill="#000000" stroke="#000000" points="153.658,-25.4755 163.658,-21.9754 153.6579,-18.4755 153.658,-25.4755"/>
</g>
<!-- s9 -->
<g id="node10" class="node">
<title>s9</title>
<ellipse fill="#c0c0c0" stroke="#c0c0c0" cx="334.2591" cy="-21.9754" rx="29.3416" ry="18"/>
<text text-anchor="middle" x="334.2591" y="-18.9449" font-family="Inconsolata" font-size="11.00" fill="#ffffff">&lt;noid&gt;</text>
</g>
<!-- s8&#45;&gt;s9 -->
<g id="edge8" class="edge">
<title>s8&#45;&gt;s9</title>
<path fill="none" stroke="#000000" d="M268.2139,-21.9754C277.1877,-21.9754 286.3771,-21.9754 294.9397,-21.9754"/>
<polygon fill="#000000" stroke="#000000" points="295.0168,-25.4755 305.0168,-21.9754 295.0168,-18.4755 295.0168,-25.4755"/>
</g>
<!-- s9&#45;&gt;s4 -->
<g id="edge7" class="edge">
<title>s9&#45;&gt;s4</title>
<path fill="none" stroke="#000000" d="M362.0424,-27.617C372.8854,-29.8188 385.7964,-32.4405 398.6854,-35.0577"/>
<polygon fill="#000000" stroke="#000000" points="398.0063,-38.4911 408.5028,-37.0512 399.3994,-31.6311 398.0063,-38.4911"/>
</g>
</g>
</svg>
