<?xml version="1.0" encoding="UTF-8" standalone="no"?>
<!DOCTYPE svg PUBLIC "-//W3C//DTD SVG 1.1//EN"
 "http://www.w3.org/Graphics/SVG/1.1/DTD/svg11.dtd">
<!-- Generated by graphviz version 2.40.1 (20161225.0304)
 -->
<!-- Title: g Pages: 1 -->
<svg width="1067pt" height="329pt"
 viewBox="0.00 0.00 1066.65 328.95" xmlns="http://www.w3.org/2000/svg" xmlns:xlink="http://www.w3.org/1999/xlink">
<g id="graph0" class="graph" transform="scale(1 1) rotate(0) translate(4 324.9508)">
<title>g</title>
<polygon fill="#ffffff" stroke="transparent" points="-4,4 -4,-324.9508 1062.6527,-324.9508 1062.6527,4 -4,4"/>
<!-- s0 -->
<g id="node1" class="node">
<title>s0</title>
<ellipse fill="#0000ff" stroke="#0000ff" cx="42.4264" cy="-298.9754" rx="42.3529" ry="21.9508"/>
<text text-anchor="middle" x="42.4264" y="-301.7144" font-family="Inconsolata" font-size="11.00" fill="#ffffff">S</text>
<text text-anchor="middle" x="42.4264" y="-290.1754" font-family="Inconsolata" font-size="11.00" fill="#ffffff">(Stream)</text>
</g>
<!-- s1 -->
<g id="node2" class="node">
<title>s1</title>
<ellipse fill="#000000" stroke="#000000" cx="175.3528" cy="-298.9754" rx="27" ry="18"/>
<text text-anchor="middle" x="175.3528" y="-295.9449" font-family="Inconsolata" font-size="11.00" fill="#ffffff">s</text>
</g>
<!-- s0&#45;&gt;s1 -->
<g id="edge8" class="edge">
<title>s0&#45;&gt;s1</title>
<path fill="none" stroke="#000000" d="M85.2168,-298.9754C102.1511,-298.9754 121.4438,-298.9754 137.8234,-298.9754"/>
<polygon fill="#000000" stroke="#000000" points="138.1124,-302.4755 148.1123,-298.9754 138.1123,-295.4755 138.1124,-302.4755"/>
<text text-anchor="middle" x="116.6028" y="-301.7144" font-family="Inconsolata" font-size="11.00" fill="#000000">xform</text>
</g>
<!-- s2 -->
<g id="node3" class="node">
<title>s2</title>
<ellipse fill="#000000" stroke="#000000" cx="292.8528" cy="-298.9754" rx="27" ry="18"/>
<text text-anchor="middle" x="292.8528" y="-295.9449" font-family="Inconsolata" font-size="11.00" fill="#ffffff">in&#45;s</text>
</g>
<!-- s1&#45;&gt;s2 -->
<g id="edge7" class="edge">
<title>s1&#45;&gt;s2</title>
<path fill="none" stroke="#000000" d="M202.605,-298.9754C218.3248,-298.9754 238.3161,-298.9754 255.4859,-298.9754"/>
<polygon fill="#000000" stroke="#000000" points="255.7484,-302.4755 265.7484,-298.9754 255.7484,-295.4755 255.7484,-302.4755"/>
<text text-anchor="middle" x="234.1028" y="-301.7144" font-family="Inconsolata" font-size="11.00" fill="#000000">xform</text>
</g>
<!-- s3 -->
<g id="node4" class="node">
<title>s3</title>
<ellipse fill="#c0c0c0" stroke="#c0c0c0" cx="386.0231" cy="-298.9754" rx="29.3416" ry="18"/>
<text text-anchor="middle" x="386.0231" y="-295.9449" font-family="Inconsolata" font-size="11.00" fill="#ffffff">&lt;noid&gt;</text>
</g>
<!-- s2&#45;&gt;s3 -->
<g id="edge6" class="edge">
<title>s2&#45;&gt;s3</title>
<path fill="none" stroke="#000000" d="M320.3031,-298.9754C328.5593,-298.9754 337.7862,-298.9754 346.6553,-298.9754"/>
<polygon fill="#000000" stroke="#000000" points="346.8231,-302.4755 356.823,-298.9754 346.823,-295.4755 346.8231,-302.4755"/>
</g>
<!-- s4 -->
<g id="node5" class="node">
<title>s4</title>
<ellipse fill="#ff0000" stroke="#ff0000" cx="540.5653" cy="-244.9754" rx="57.9655" ry="21.9508"/>
<text text-anchor="middle" x="540.5653" y="-247.7144" font-family="Inconsolata" font-size="11.00" fill="#ffffff">london&#45;raw</text>
<text text-anchor="middle" x="540.5653" y="-236.1754" font-family="Inconsolata" font-size="11.00" fill="#ffffff">(StreamSync)</text>
</g>
<!-- s3&#45;&gt;s4 -->
<g id="edge5" class="edge">
<title>s3&#45;&gt;s4</title>
<path fill="none" stroke="#000000" d="M411.5426,-290.0584C432.2959,-282.8068 462.2667,-272.3344 488.0997,-263.3079"/>
<polygon fill="#000000" stroke="#000000" points="489.4842,-266.5317 497.77,-259.9289 487.1751,-259.9235 489.4842,-266.5317"/>
<text text-anchor="middle" x="446.9434" y="-283.7144" font-family="Inconsolata" font-size="11.00" fill="#000000">xform</text>
</g>
<!-- s5 -->
<g id="node6" class="node">
<title>s5</title>
<ellipse fill="#000000" stroke="#000000" cx="698.3816" cy="-244.9754" rx="32.3892" ry="18"/>
<text text-anchor="middle" x="698.3816" y="-241.9449" font-family="Inconsolata" font-size="11.00" fill="#ffffff">xform&#45;2</text>
</g>
<!-- s4&#45;&gt;s5 -->
<g id="edge4" class="edge">
<title>s4&#45;&gt;s5</title>
<path fill="none" stroke="#000000" d="M598.8819,-244.9754C617.4965,-244.9754 637.7549,-244.9754 655.1044,-244.9754"/>
<polygon fill="#000000" stroke="#000000" points="655.4903,-248.4755 665.4903,-244.9754 655.4902,-241.4755 655.4903,-248.4755"/>
<text text-anchor="middle" x="634.1871" y="-247.7144" font-family="Inconsolata" font-size="11.00" fill="#000000">xform</text>
</g>
<!-- s6 -->
<g id="node7" class="node">
<title>s6</title>
<ellipse fill="#000000" stroke="#000000" cx="833.3191" cy="-244.9754" rx="29.3416" ry="18"/>
<text text-anchor="middle" x="833.3191" y="-241.9449" font-family="Inconsolata" font-size="11.00" fill="#ffffff">london</text>
</g>
<!-- s5&#45;&gt;s6 -->
<g id="edge3" class="edge">
<title>s5&#45;&gt;s6</title>
<path fill="none" stroke="#000000" d="M731.0463,-244.9754C749.9097,-244.9754 773.7714,-244.9754 793.7009,-244.9754"/>
<polygon fill="#000000" stroke="#000000" points="793.717,-248.4755 803.717,-244.9754 793.7169,-241.4755 793.717,-248.4755"/>
<text text-anchor="middle" x="762.5762" y="-247.7144" font-family="Inconsolata" font-size="11.00" fill="#000000">xform</text>
</g>
<!-- s7 -->
<g id="node8" class="node">
<title>s7</title>
<ellipse fill="#000000" stroke="#000000" cx="936.3121" cy="-244.9754" rx="27" ry="18"/>
<text text-anchor="middle" x="936.3121" y="-241.9449" font-family="Inconsolata" font-size="11.00" fill="#ffffff">sub&#45;3</text>
</g>
<!-- s6&#45;&gt;s7 -->
<g id="edge2" class="edge">
<title>s6&#45;&gt;s7</title>
<path fill="none" stroke="#000000" d="M862.5573,-244.9754C873.8726,-244.9754 886.9633,-244.9754 898.9473,-244.9754"/>
<polygon fill="#000000" stroke="#000000" points="899.1214,-248.4755 909.1214,-244.9754 899.1214,-241.4755 899.1214,-248.4755"/>
</g>
<!-- s8 -->
<g id="node9" class="node">
<title>s8</title>
<ellipse fill="#c0c0c0" stroke="#c0c0c0" cx="1029.4824" cy="-244.9754" rx="29.3416" ry="18"/>
<text text-anchor="middle" x="1029.4824" y="-241.9449" font-family="Inconsolata" font-size="11.00" fill="#ffffff">&lt;noid&gt;</text>
</g>
<!-- s7&#45;&gt;s8 -->
<g id="edge1" class="edge">
<title>s7&#45;&gt;s8</title>
<path fill="none" stroke="#000000" d="M963.7623,-244.9754C972.0186,-244.9754 981.2455,-244.9754 990.1146,-244.9754"/>
<polygon fill="#000000" stroke="#000000" points="990.2824,-248.4755 1000.2823,-244.9754 990.2823,-241.4755 990.2824,-248.4755"/>
</g>
<!-- s9 -->
<g id="node10" class="node">
<title>s9</title>
<ellipse fill="#0000ff" stroke="#0000ff" cx="42.4264" cy="-21.9754" rx="42.3529" ry="21.9508"/>
<text text-anchor="middle" x="42.4264" y="-24.7144" font-family="Inconsolata" font-size="11.00" fill="#ffffff">P</text>
<text text-anchor="middle" x="42.4264" y="-13.1754" font-family="Inconsolata" font-size="11.00" fill="#ffffff">(Stream)</text>
</g>
<!-- s10 -->
<g id="node11" class="node">
<title>s10</title>
<ellipse fill="#000000" stroke="#000000" cx="175.3528" cy="-21.9754" rx="27" ry="18"/>
<text text-anchor="middle" x="175.3528" y="-18.9449" font-family="Inconsolata" font-size="11.00" fill="#ffffff">p</text>
</g>
<!-- s9&#45;&gt;s10 -->
<g id="edge16" class="edge">
<title>s9&#45;&gt;s10</title>
<path fill="none" stroke="#000000" d="M85.2168,-21.9754C102.1511,-21.9754 121.4438,-21.9754 137.8234,-21.9754"/>
<polygon fill="#000000" stroke="#000000" points="138.1124,-25.4755 148.1123,-21.9754 138.1123,-18.4755 138.1124,-25.4755"/>
<text text-anchor="middle" x="116.6028" y="-24.7144" font-family="Inconsolata" font-size="11.00" fill="#000000">xform</text>
</g>
<!-- s11 -->
<g id="node12" class="node">
<title>s11</title>
<ellipse fill="#000000" stroke="#000000" cx="292.8528" cy="-22.9754" rx="27" ry="18"/>
<text text-anchor="middle" x="292.8528" y="-19.9449" font-family="Inconsolata" font-size="11.00" fill="#ffffff">in&#45;p</text>
</g>
<!-- s10&#45;&gt;s11 -->
<g id="edge15" class="edge">
<title>s10&#45;&gt;s11</title>
<path fill="none" stroke="#000000" d="M202.605,-22.2073C218.3248,-22.3411 238.3161,-22.5113 255.4859,-22.6574"/>
<polygon fill="#000000" stroke="#000000" points="255.7189,-26.1594 265.7484,-22.7447 255.7786,-19.1597 255.7189,-26.1594"/>
<text text-anchor="middle" x="234.1028" y="-25.7144" font-family="Inconsolata" font-size="11.00" fill="#000000">xform</text>
</g>
<!-- s12 -->
<g id="node13" class="node">
<title>s12</title>
<ellipse fill="#c0c0c0" stroke="#c0c0c0" cx="386.0231" cy="-28.9754" rx="29.3416" ry="18"/>
<text text-anchor="middle" x="386.0231" y="-25.9449" font-family="Inconsolata" font-size="11.00" fill="#ffffff">&lt;noid&gt;</text>
</g>
<!-- s11&#45;&gt;s12 -->
<g id="edge14" class="edge">
<title>s11&#45;&gt;s12</title>
<path fill="none" stroke="#000000" d="M319.8015,-24.7109C328.2359,-25.254 337.7215,-25.8649 346.8213,-26.4509"/>
<polygon fill="#000000" stroke="#000000" points="346.6506,-29.947 356.8549,-27.097 347.1006,-22.9615 346.6506,-29.947"/>
</g>
<!-- s13 -->
<g id="node14" class="node">
<title>s13</title>
<ellipse fill="#ff0000" stroke="#ff0000" cx="540.5653" cy="-82.9754" rx="61.744" ry="21.9508"/>
<text text-anchor="middle" x="540.5653" y="-85.7144" font-family="Inconsolata" font-size="11.00" fill="#ffffff">countries&#45;raw</text>
<text text-anchor="middle" x="540.5653" y="-74.1754" font-family="Inconsolata" font-size="11.00" fill="#ffffff">(StreamSync)</text>
</g>
<!-- s12&#45;&gt;s13 -->
<g id="edge13" class="edge">
<title>s12&#45;&gt;s13</title>
<path fill="none" stroke="#000000" d="M411.5426,-37.8924C431.9158,-45.0112 461.1719,-55.2338 486.6762,-64.1455"/>
<polygon fill="#000000" stroke="#000000" points="485.6461,-67.493 496.2409,-67.4876 487.9551,-60.8848 485.6461,-67.493"/>
<text text-anchor="middle" x="446.9434" y="-57.7144" font-family="Inconsolata" font-size="11.00" fill="#000000">xform</text>
</g>
<!-- s14 -->
<g id="node15" class="node">
<title>s14</title>
<ellipse fill="#000000" stroke="#000000" cx="698.3816" cy="-82.9754" rx="32.3892" ry="18"/>
<text text-anchor="middle" x="698.3816" y="-79.9449" font-family="Inconsolata" font-size="11.00" fill="#ffffff">xform&#45;0</text>
</g>
<!-- s13&#45;&gt;s14 -->
<g id="edge12" class="edge">
<title>s13&#45;&gt;s14</title>
<path fill="none" stroke="#000000" d="M602.4855,-82.9754C620.1948,-82.9754 639.1025,-82.9754 655.4074,-82.9754"/>
<polygon fill="#000000" stroke="#000000" points="655.7075,-86.4755 665.7074,-82.9754 655.7074,-79.4755 655.7075,-86.4755"/>
<text text-anchor="middle" x="634.1871" y="-85.7144" font-family="Inconsolata" font-size="11.00" fill="#000000">xform</text>
</g>
<!-- s15 -->
<g id="node16" class="node">
<title>s15</title>
<ellipse fill="#000000" stroke="#000000" cx="833.3191" cy="-82.9754" rx="38.9859" ry="18"/>
<text text-anchor="middle" x="833.3191" y="-79.9449" font-family="Inconsolata" font-size="11.00" fill="#ffffff">countries</text>
</g>
<!-- s14&#45;&gt;s15 -->
<g id="edge11" class="edge">
<title>s14&#45;&gt;s15</title>
<path fill="none" stroke="#000000" d="M731.0463,-82.9754C746.9555,-82.9754 766.4201,-82.9754 784.0824,-82.9754"/>
<polygon fill="#000000" stroke="#000000" points="784.233,-86.4755 794.233,-82.9754 784.233,-79.4755 784.233,-86.4755"/>
<text text-anchor="middle" x="762.5762" y="-85.7144" font-family="Inconsolata" font-size="11.00" fill="#000000">xform</text>
</g>
<!-- s16 -->
<g id="node17" class="node">
<title>s16</title>
<ellipse fill="#000000" stroke="#000000" cx="936.3121" cy="-82.9754" rx="27" ry="18"/>
<text text-anchor="middle" x="936.3121" y="-79.9449" font-family="Inconsolata" font-size="11.00" fill="#ffffff">sub&#45;1</text>
</g>
<!-- s15&#45;&gt;s16 -->
<g id="edge10" class="edge">
<title>s15&#45;&gt;s16</title>
<path fill="none" stroke="#000000" d="M872.5502,-82.9754C881.1989,-82.9754 890.3378,-82.9754 898.9118,-82.9754"/>
<polygon fill="#000000" stroke="#000000" points="899.0192,-86.4755 909.0192,-82.9754 899.0192,-79.4755 899.0192,-86.4755"/>
</g>
<!-- s17 -->
<g id="node18" class="node">
<title>s17</title>
<ellipse fill="#c0c0c0" stroke="#c0c0c0" cx="1029.4824" cy="-82.9754" rx="29.3416" ry="18"/>
<text text-anchor="middle" x="1029.4824" y="-79.9449" font-family="Inconsolata" font-size="11.00" fill="#ffffff">&lt;noid&gt;</text>
</g>
<!-- s16&#45;&gt;s17 -->
<g id="edge9" class="edge">
<title>s16&#45;&gt;s17</title>
<path fill="none" stroke="#000000" d="M963.7623,-82.9754C972.0186,-82.9754 981.2455,-82.9754 990.1146,-82.9754"/>
<polygon fill="#000000" stroke="#000000" points="990.2824,-86.4755 1000.2823,-82.9754 990.2823,-79.4755 990.2824,-86.4755"/>
</g>
<!-- s18 -->
<g id="node19" class="node">
<title>s18</title>
<ellipse fill="#0000ff" stroke="#0000ff" cx="42.4264" cy="-83.9754" rx="42.3529" ry="21.9508"/>
<text text-anchor="middle" x="42.4264" y="-86.7144" font-family="Inconsolata" font-size="11.00" fill="#ffffff">O</text>
<text text-anchor="middle" x="42.4264" y="-75.1754" font-family="Inconsolata" font-size="11.00" fill="#ffffff">(Stream)</text>
</g>
<!-- s19 -->
<g id="node20" class="node">
<title>s19</title>
<ellipse fill="#000000" stroke="#000000" cx="175.3528" cy="-82.9754" rx="27" ry="18"/>
<text text-anchor="middle" x="175.3528" y="-79.9449" font-family="Inconsolata" font-size="11.00" fill="#ffffff">o</text>
</g>
<!-- s18&#45;&gt;s19 -->
<g id="edge20" class="edge">
<title>s18&#45;&gt;s19</title>
<path fill="none" stroke="#000000" d="M84.8506,-83.6562C101.8037,-83.5287 121.1684,-83.383 137.6232,-83.2592"/>
<polygon fill="#000000" stroke="#000000" points="137.9881,-86.7567 147.9615,-83.1815 137.9354,-79.7569 137.9881,-86.7567"/>
<text text-anchor="middle" x="116.6028" y="-86.7144" font-family="Inconsolata" font-size="11.00" fill="#000000">xform</text>
</g>
<!-- s20 -->
<g id="node21" class="node">
<title>s20</title>
<ellipse fill="#000000" stroke="#000000" cx="292.8528" cy="-82.9754" rx="27" ry="18"/>
<text text-anchor="middle" x="292.8528" y="-79.9449" font-family="Inconsolata" font-size="11.00" fill="#ffffff">in&#45;o</text>
</g>
<!-- s19&#45;&gt;s20 -->
<g id="edge19" class="edge">
<title>s19&#45;&gt;s20</title>
<path fill="none" stroke="#000000" d="M202.605,-82.9754C218.3248,-82.9754 238.3161,-82.9754 255.4859,-82.9754"/>
<polygon fill="#000000" stroke="#000000" points="255.7484,-86.4755 265.7484,-82.9754 255.7484,-79.4755 255.7484,-86.4755"/>
<text text-anchor="middle" x="234.1028" y="-85.7144" font-family="Inconsolata" font-size="11.00" fill="#000000">xform</text>
</g>
<!-- s21 -->
<g id="node22" class="node">
<title>s21</title>
<ellipse fill="#c0c0c0" stroke="#c0c0c0" cx="386.0231" cy="-82.9754" rx="29.3416" ry="18"/>
<text text-anchor="middle" x="386.0231" y="-79.9449" font-family="Inconsolata" font-size="11.00" fill="#ffffff">&lt;noid&gt;</text>
</g>
<!-- s20&#45;&gt;s21 -->
<g id="edge18" class="edge">
<title>s20&#45;&gt;s21</title>
<path fill="none" stroke="#000000" d="M320.3031,-82.9754C328.5593,-82.9754 337.7862,-82.9754 346.6553,-82.9754"/>
<polygon fill="#000000" stroke="#000000" points="346.8231,-86.4755 356.823,-82.9754 346.823,-79.4755 346.8231,-86.4755"/>
</g>
<!-- s21&#45;&gt;s13 -->
<g id="edge17" class="edge">
<title>s21&#45;&gt;s13</title>
<path fill="none" stroke="#000000" d="M415.4551,-82.9754C430.5989,-82.9754 449.7844,-82.9754 468.5541,-82.9754"/>
<polygon fill="#000000" stroke="#000000" points="468.608,-86.4755 478.608,-82.9754 468.6079,-79.4755 468.608,-86.4755"/>
<text text-anchor="middle" x="446.9434" y="-85.7144" font-family="Inconsolata" font-size="11.00" fill="#000000">xform</text>
</g>
<!-- s22 -->
<g id="node23" class="node">
<title>s22</title>
<ellipse fill="#0000ff" stroke="#0000ff" cx="42.4264" cy="-190.9754" rx="42.3529" ry="21.9508"/>
<text text-anchor="middle" x="42.4264" y="-193.7144" font-family="Inconsolata" font-size="11.00" fill="#ffffff">ALL</text>
<text text-anchor="middle" x="42.4264" y="-182.1754" font-family="Inconsolata" font-size="11.00" fill="#ffffff">(Stream)</text>
</g>
<!-- s23 -->
<g id="node24" class="node">
<title>s23</title>
<ellipse fill="#000000" stroke="#000000" cx="175.3528" cy="-136.9754" rx="27" ry="18"/>
<text text-anchor="middle" x="175.3528" y="-133.9449" font-family="Inconsolata" font-size="11.00" fill="#ffffff">s</text>
</g>
<!-- s22&#45;&gt;s23 -->
<g id="edge30" class="edge">
<title>s22&#45;&gt;s23</title>
<path fill="none" stroke="#000000" d="M75.9694,-177.3489C96.4589,-169.0253 122.5329,-158.433 142.8325,-150.1864"/>
<polygon fill="#000000" stroke="#000000" points="144.3368,-153.3532 152.2842,-146.3468 141.7022,-146.8679 144.3368,-153.3532"/>
</g>
<!-- s26 -->
<g id="node27" class="node">
<title>s26</title>
<ellipse fill="#000000" stroke="#000000" cx="175.3528" cy="-244.9754" rx="27" ry="18"/>
<text text-anchor="middle" x="175.3528" y="-241.9449" font-family="Inconsolata" font-size="11.00" fill="#ffffff">p</text>
</g>
<!-- s22&#45;&gt;s26 -->
<g id="edge31" class="edge">
<title>s22&#45;&gt;s26</title>
<path fill="none" stroke="#000000" d="M75.9694,-204.6019C96.4589,-212.9255 122.5329,-223.5178 142.8325,-231.7644"/>
<polygon fill="#000000" stroke="#000000" points="141.7022,-235.0829 152.2842,-235.604 144.3368,-228.5976 141.7022,-235.0829"/>
</g>
<!-- s29 -->
<g id="node30" class="node">
<title>s29</title>
<ellipse fill="#000000" stroke="#000000" cx="175.3528" cy="-190.9754" rx="27" ry="18"/>
<text text-anchor="middle" x="175.3528" y="-187.9449" font-family="Inconsolata" font-size="11.00" fill="#ffffff">o</text>
</g>
<!-- s22&#45;&gt;s29 -->
<g id="edge32" class="edge">
<title>s22&#45;&gt;s29</title>
<path fill="none" stroke="#000000" d="M85.2168,-190.9754C102.1511,-190.9754 121.4438,-190.9754 137.8234,-190.9754"/>
<polygon fill="#000000" stroke="#000000" points="138.1124,-194.4755 148.1123,-190.9754 138.1123,-187.4755 138.1124,-194.4755"/>
</g>
<!-- s24 -->
<g id="node25" class="node">
<title>s24</title>
<ellipse fill="#000000" stroke="#000000" cx="292.8528" cy="-136.9754" rx="27" ry="18"/>
<text text-anchor="middle" x="292.8528" y="-133.9449" font-family="Inconsolata" font-size="11.00" fill="#ffffff">in&#45;s</text>
</g>
<!-- s23&#45;&gt;s24 -->
<g id="edge23" class="edge">
<title>s23&#45;&gt;s24</title>
<path fill="none" stroke="#000000" d="M202.605,-136.9754C218.3248,-136.9754 238.3161,-136.9754 255.4859,-136.9754"/>
<polygon fill="#000000" stroke="#000000" points="255.7484,-140.4755 265.7484,-136.9754 255.7484,-133.4755 255.7484,-140.4755"/>
<text text-anchor="middle" x="234.1028" y="-139.7144" font-family="Inconsolata" font-size="11.00" fill="#000000">xform</text>
</g>
<!-- s25 -->
<g id="node26" class="node">
<title>s25</title>
<ellipse fill="#c0c0c0" stroke="#c0c0c0" cx="386.0231" cy="-136.9754" rx="29.3416" ry="18"/>
<text text-anchor="middle" x="386.0231" y="-133.9449" font-family="Inconsolata" font-size="11.00" fill="#ffffff">&lt;noid&gt;</text>
</g>
<!-- s24&#45;&gt;s25 -->
<g id="edge22" class="edge">
<title>s24&#45;&gt;s25</title>
<path fill="none" stroke="#000000" d="M320.3031,-136.9754C328.5593,-136.9754 337.7862,-136.9754 346.6553,-136.9754"/>
<polygon fill="#000000" stroke="#000000" points="346.8231,-140.4755 356.823,-136.9754 346.823,-133.4755 346.8231,-140.4755"/>
</g>
<!-- s25&#45;&gt;s13 -->
<g id="edge21" class="edge">
<title>s25&#45;&gt;s13</title>
<path fill="none" stroke="#000000" d="M411.5426,-128.0584C431.9158,-120.9396 461.1719,-110.717 486.6762,-101.8053"/>
<polygon fill="#000000" stroke="#000000" points="487.9551,-105.066 496.2409,-98.4632 485.6461,-98.4578 487.9551,-105.066"/>
<text text-anchor="middle" x="446.9434" y="-122.7144" font-family="Inconsolata" font-size="11.00" fill="#000000">xform</text>
</g>
<!-- s27 -->
<g id="node28" class="node">
<title>s27</title>
<ellipse fill="#000000" stroke="#000000" cx="292.8528" cy="-244.9754" rx="27" ry="18"/>
<text text-anchor="middle" x="292.8528" y="-241.9449" font-family="Inconsolata" font-size="11.00" fill="#ffffff">in&#45;p</text>
</g>
<!-- s26&#45;&gt;s27 -->
<g id="edge26" class="edge">
<title>s26&#45;&gt;s27</title>
<path fill="none" stroke="#000000" d="M202.605,-244.9754C218.3248,-244.9754 238.3161,-244.9754 255.4859,-244.9754"/>
<polygon fill="#000000" stroke="#000000" points="255.7484,-248.4755 265.7484,-244.9754 255.7484,-241.4755 255.7484,-248.4755"/>
<text text-anchor="middle" x="234.1028" y="-247.7144" font-family="Inconsolata" font-size="11.00" fill="#000000">xform</text>
</g>
<!-- s28 -->
<g id="node29" class="node">
<title>s28</title>
<ellipse fill="#c0c0c0" stroke="#c0c0c0" cx="386.0231" cy="-244.9754" rx="29.3416" ry="18"/>
<text text-anchor="middle" x="386.0231" y="-241.9449" font-family="Inconsolata" font-size="11.00" fill="#ffffff">&lt;noid&gt;</text>
</g>
<!-- s27&#45;&gt;s28 -->
<g id="edge25" class="edge">
<title>s27&#45;&gt;s28</title>
<path fill="none" stroke="#000000" d="M320.3031,-244.9754C328.5593,-244.9754 337.7862,-244.9754 346.6553,-244.9754"/>
<polygon fill="#000000" stroke="#000000" points="346.8231,-248.4755 356.823,-244.9754 346.823,-241.4755 346.8231,-248.4755"/>
</g>
<!-- s28&#45;&gt;s4 -->
<g id="edge24" class="edge">
<title>s28&#45;&gt;s4</title>
<path fill="none" stroke="#000000" d="M415.4551,-244.9754C431.6375,-244.9754 452.435,-244.9754 472.4086,-244.9754"/>
<polygon fill="#000000" stroke="#000000" points="472.4354,-248.4755 482.4354,-244.9754 472.4354,-241.4755 472.4354,-248.4755"/>
<text text-anchor="middle" x="446.9434" y="-247.7144" font-family="Inconsolata" font-size="11.00" fill="#000000">xform</text>
</g>
<!-- s30 -->
<g id="node31" class="node">
<title>s30</title>
<ellipse fill="#000000" stroke="#000000" cx="292.8528" cy="-190.9754" rx="27" ry="18"/>
<text text-anchor="middle" x="292.8528" y="-187.9449" font-family="Inconsolata" font-size="11.00" fill="#ffffff">in&#45;o</text>
</g>
<!-- s29&#45;&gt;s30 -->
<g id="edge29" class="edge">
<title>s29&#45;&gt;s30</title>
<path fill="none" stroke="#000000" d="M202.605,-190.9754C218.3248,-190.9754 238.3161,-190.9754 255.4859,-190.9754"/>
<polygon fill="#000000" stroke="#000000" points="255.7484,-194.4755 265.7484,-190.9754 255.7484,-187.4755 255.7484,-194.4755"/>
<text text-anchor="middle" x="234.1028" y="-193.7144" font-family="Inconsolata" font-size="11.00" fill="#000000">xform</text>
</g>
<!-- s31 -->
<g id="node32" class="node">
<title>s31</title>
<ellipse fill="#c0c0c0" stroke="#c0c0c0" cx="386.0231" cy="-190.9754" rx="29.3416" ry="18"/>
<text text-anchor="middle" x="386.0231" y="-187.9449" font-family="Inconsolata" font-size="11.00" fill="#ffffff">&lt;noid&gt;</text>
</g>
<!-- s30&#45;&gt;s31 -->
<g id="edge28" class="edge">
<title>s30&#45;&gt;s31</title>
<path fill="none" stroke="#000000" d="M320.3031,-190.9754C328.5593,-190.9754 337.7862,-190.9754 346.6553,-190.9754"/>
<polygon fill="#000000" stroke="#000000" points="346.8231,-194.4755 356.823,-190.9754 346.823,-187.4755 346.8231,-194.4755"/>
</g>
<!-- s31&#45;&gt;s4 -->
<g id="edge27" class="edge">
<title>s31&#45;&gt;s4</title>
<path fill="none" stroke="#000000" d="M411.5426,-199.8924C432.2959,-207.144 462.2667,-217.6164 488.0997,-226.6429"/>
<polygon fill="#000000" stroke="#000000" points="487.1751,-230.0273 497.77,-230.0219 489.4842,-223.4191 487.1751,-230.0273"/>
<text text-anchor="middle" x="446.9434" y="-219.7144" font-family="Inconsolata" font-size="11.00" fill="#000000">xform</text>
</g>
</g>
</svg>
