<?xml version="1.0"?>
<svg height="300" version="1.1" width="600" xmlns:xlink="http://www.w3.org/1999/xlink" xmlns="http://www.w3.org/2000/svg"><g><g stroke-dasharray="1 1" stroke="#ccc"><line x1="50.00" x2="50.00" y1="280.00" y2="20.00" /><line x1="81.18" x2="81.18" y1="280.00" y2="20.00" /><line x1="112.35" x2="112.35" y1="280.00" y2="20.00" /><line x1="143.53" x2="143.53" y1="280.00" y2="20.00" /><line x1="174.71" x2="174.71" y1="280.00" y2="20.00" /><line x1="205.88" x2="205.88" y1="280.00" y2="20.00" /><line x1="237.06" x2="237.06" y1="280.00" y2="20.00" /><line x1="268.24" x2="268.24" y1="280.00" y2="20.00" /><line x1="299.41" x2="299.41" y1="280.00" y2="20.00" /><line x1="330.59" x2="330.59" y1="280.00" y2="20.00" /><line x1="361.76" x2="361.76" y1="280.00" y2="20.00" /><line x1="392.94" x2="392.94" y1="280.00" y2="20.00" /><line x1="424.12" x2="424.12" y1="280.00" y2="20.00" /><line x1="455.29" x2="455.29" y1="280.00" y2="20.00" /><line x1="486.47" x2="486.47" y1="280.00" y2="20.00" /><line x1="517.65" x2="517.65" y1="280.00" y2="20.00" /><line x1="548.82" x2="548.82" y1="280.00" y2="20.00" /><line x1="580.00" x2="580.00" y1="280.00" y2="20.00" /><line x1="50.00" x2="580.00" y1="267.00" y2="267.00" /><line x1="50.00" x2="580.00" y1="241.00" y2="241.00" /><line x1="50.00" x2="580.00" y1="215.00" y2="215.00" /><line x1="50.00" x2="580.00" y1="189.00" y2="189.00" /><line x1="50.00" x2="580.00" y1="163.00" y2="163.00" /><line x1="50.00" x2="580.00" y1="137.00" y2="137.00" /><line x1="50.00" x2="580.00" y1="111.00" y2="111.00" /><line x1="50.00" x2="580.00" y1="85.00" y2="85.00" /><line x1="50.00" x2="580.00" y1="59.00" y2="59.00" /><line x1="50.00" x2="580.00" y1="33.00" y2="33.00" /><line x1="50.00" x2="580.00" y1="280.00" y2="280.00" /><line x1="50.00" x2="580.00" y1="254.00" y2="254.00" /><line x1="50.00" x2="580.00" y1="228.00" y2="228.00" /><line x1="50.00" x2="580.00" y1="202.00" y2="202.00" /><line x1="50.00" x2="580.00" y1="176.00" y2="176.00" /><line x1="50.00" x2="580.00" y1="150.00" y2="150.00" /><line x1="50.00" x2="580.00" y1="124.00" y2="124.00" /><line x1="50.00" x2="580.00" y1="98.00" y2="98.00" /><line x1="50.00" x2="580.00" y1="72.00" y2="72.00" /><line x1="50.00" x2="580.00" y1="46.00" y2="46.00" /><line x1="50.00" x2="580.00" y1="20.00" y2="20.00" /></g><g fill="none" stroke-width="5px" stroke="#0af"><line x1="75.18" x2="75.18" y1="139.82" y2="280.00" /><line x1="106.35" x2="106.35" y1="271.06" y2="280.00" /><line x1="137.53" x2="137.53" y1="189.33" y2="280.00" /><line x1="168.71" x2="168.71" y1="49.45" y2="280.00" /><line x1="199.88" x2="199.88" y1="240.45" y2="280.00" /><line x1="231.06" x2="231.06" y1="223.78" y2="280.00" /><line x1="262.24" x2="262.24" y1="134.48" y2="280.00" /><line x1="293.41" x2="293.41" y1="139.36" y2="280.00" /><line x1="324.59" x2="324.59" y1="168.08" y2="280.00" /><line x1="355.76" x2="355.76" y1="202.90" y2="280.00" /><line x1="386.94" x2="386.94" y1="192.05" y2="280.00" /><line x1="418.12" x2="418.12" y1="165.43" y2="280.00" /><line x1="449.29" x2="449.29" y1="208.75" y2="280.00" /><line x1="480.47" x2="480.47" y1="262.26" y2="280.00" /><line x1="511.65" x2="511.65" y1="123.17" y2="280.00" /><line x1="542.82" x2="542.82" y1="181.94" y2="280.00" /></g><g fill="none" stroke-width="5px" stroke="#fa0"><line x1="81.18" x2="81.18" y1="28.72" y2="280.00" /><line x1="112.35" x2="112.35" y1="237.72" y2="280.00" /><line x1="143.53" x2="143.53" y1="215.02" y2="280.00" /><line x1="174.71" x2="174.71" y1="119.29" y2="280.00" /><line x1="205.88" x2="205.88" y1="222.01" y2="280.00" /><line x1="237.06" x2="237.06" y1="262.10" y2="280.00" /><line x1="268.24" x2="268.24" y1="220.06" y2="280.00" /><line x1="299.41" x2="299.41" y1="149.77" y2="280.00" /><line x1="330.59" x2="330.59" y1="25.59" y2="280.00" /><line x1="361.76" x2="361.76" y1="177.97" y2="280.00" /><line x1="392.94" x2="392.94" y1="271.21" y2="280.00" /><line x1="424.12" x2="424.12" y1="130.87" y2="280.00" /><line x1="455.29" x2="455.29" y1="21.36" y2="280.00" /><line x1="486.47" x2="486.47" y1="230.05" y2="280.00" /><line x1="517.65" x2="517.65" y1="220.36" y2="280.00" /><line x1="548.82" x2="548.82" y1="140.13" y2="280.00" /></g><g fill="none" stroke-width="5px" stroke="#f0a"><line x1="87.18" x2="87.18" y1="90.50" y2="280.00" /><line x1="118.35" x2="118.35" y1="131.65" y2="280.00" /><line x1="149.53" x2="149.53" y1="120.62" y2="280.00" /><line x1="180.71" x2="180.71" y1="91.51" y2="280.00" /><line x1="211.88" x2="211.88" y1="138.91" y2="280.00" /><line x1="243.06" x2="243.06" y1="133.75" y2="280.00" /><line x1="274.24" x2="274.24" y1="241.12" y2="280.00" /><line x1="305.41" x2="305.41" y1="191.01" y2="280.00" /><line x1="336.59" x2="336.59" y1="212.54" y2="280.00" /><line x1="367.76" x2="367.76" y1="81.16" y2="280.00" /><line x1="398.94" x2="398.94" y1="189.78" y2="280.00" /><line x1="430.12" x2="430.12" y1="208.60" y2="280.00" /><line x1="461.29" x2="461.29" y1="208.30" y2="280.00" /><line x1="492.47" x2="492.47" y1="258.92" y2="280.00" /><line x1="523.65" x2="523.65" y1="41.91" y2="280.00" /><line x1="554.82" x2="554.82" y1="75.46" y2="280.00" /></g><g stroke="black"><line x1="50.00" x2="50.00" y1="280.00" y2="290.00" /><line x1="81.18" x2="81.18" y1="280.00" y2="290.00" /><line x1="112.35" x2="112.35" y1="280.00" y2="290.00" /><line x1="143.53" x2="143.53" y1="280.00" y2="290.00" /><line x1="174.71" x2="174.71" y1="280.00" y2="290.00" /><line x1="205.88" x2="205.88" y1="280.00" y2="290.00" /><line x1="237.06" x2="237.06" y1="280.00" y2="290.00" /><line x1="268.24" x2="268.24" y1="280.00" y2="290.00" /><line x1="299.41" x2="299.41" y1="280.00" y2="290.00" /><line x1="330.59" x2="330.59" y1="280.00" y2="290.00" /><line x1="361.76" x2="361.76" y1="280.00" y2="290.00" /><line x1="392.94" x2="392.94" y1="280.00" y2="290.00" /><line x1="424.12" x2="424.12" y1="280.00" y2="290.00" /><line x1="455.29" x2="455.29" y1="280.00" y2="290.00" /><line x1="486.47" x2="486.47" y1="280.00" y2="290.00" /><line x1="517.65" x2="517.65" y1="280.00" y2="290.00" /><line x1="548.82" x2="548.82" y1="280.00" y2="290.00" /><line x1="580.00" x2="580.00" y1="280.00" y2="290.00" /><g fill="black" font-family="Arial" font-size="10" stroke="none" text-anchor="middle"><text x="50.00" y="300.00">1999</text><text x="81.18" y="300.00">2000</text><text x="112.35" y="300.00">2001</text><text x="143.53" y="300.00">2002</text><text x="174.71" y="300.00">2003</text><text x="205.88" y="300.00">2004</text><text x="237.06" y="300.00">2005</text><text x="268.24" y="300.00">2006</text><text x="299.41" y="300.00">2007</text><text x="330.59" y="300.00">2008</text><text x="361.76" y="300.00">2009</text><text x="392.94" y="300.00">2010</text><text x="424.12" y="300.00">2011</text><text x="455.29" y="300.00">2012</text><text x="486.47" y="300.00">2013</text><text x="517.65" y="300.00">2014</text><text x="548.82" y="300.00">2015</text><text x="580.00" y="300.00">2016</text></g><line x1="50.00" x2="580.00" y1="280.00" y2="280.00" /></g><g stroke="black"><line x1="50.00" x2="40.00" y1="280.00" y2="280.00" /><line x1="50.00" x2="40.00" y1="254.00" y2="254.00" /><line x1="50.00" x2="40.00" y1="228.00" y2="228.00" /><line x1="50.00" x2="40.00" y1="202.00" y2="202.00" /><line x1="50.00" x2="40.00" y1="176.00" y2="176.00" /><line x1="50.00" x2="40.00" y1="150.00" y2="150.00" /><line x1="50.00" x2="40.00" y1="124.00" y2="124.00" /><line x1="50.00" x2="40.00" y1="98.00" y2="98.00" /><line x1="50.00" x2="40.00" y1="72.00" y2="72.00" /><line x1="50.00" x2="40.00" y1="46.00" y2="46.00" /><line x1="50.00" x2="40.00" y1="20.00" y2="20.00" /><line x1="50.00" x2="45.00" y1="267.00" y2="267.00" /><line x1="50.00" x2="45.00" y1="241.00" y2="241.00" /><line x1="50.00" x2="45.00" y1="215.00" y2="215.00" /><line x1="50.00" x2="45.00" y1="189.00" y2="189.00" /><line x1="50.00" x2="45.00" y1="163.00" y2="163.00" /><line x1="50.00" x2="45.00" y1="137.00" y2="137.00" /><line x1="50.00" x2="45.00" y1="111.00" y2="111.00" /><line x1="50.00" x2="45.00" y1="85.00" y2="85.00" /><line x1="50.00" x2="45.00" y1="59.00" y2="59.00" /><line x1="50.00" x2="45.00" y1="33.00" y2="33.00" /><g fill="black" font-family="Arial" font-size="10" stroke="none" text-anchor="end"><text x="35.00" y="280.00">0.00</text><text x="35.00" y="254.00">10.00</text><text x="35.00" y="228.00">20.00</text><text x="35.00" y="202.00">30.00</text><text x="35.00" y="176.00">40.00</text><text x="35.00" y="150.00">50.00</text><text x="35.00" y="124.00">60.00</text><text x="35.00" y="98.00">70.00</text><text x="35.00" y="72.00">80.00</text><text x="35.00" y="46.00">90.00</text><text x="35.00" y="20.00">100.00</text></g><line x1="50.00" x2="50.00" y1="280.00" y2="20.00" /></g></g></svg>
