<?xml version="1.0"?>
<svg height="300" version="1.1" width="600" xmlns:xlink="http://www.w3.org/1999/xlink" xmlns="http://www.w3.org/2000/svg"><g><g><polygon fill="#310769" points="50.00,280.00 60.00,280.00 60.00,254.00 50.00,254.00" /><polygon fill="#5f004a" points="60.00,280.00 70.00,280.00 70.00,254.00 60.00,254.00" /><polygon fill="#920d2f" points="70.00,280.00 80.00,280.00 80.00,254.00 70.00,254.00" /><polygon fill="#c83216" points="80.00,280.00 90.00,280.00 90.00,254.00 80.00,254.00" /><polygon fill="#e85a09" points="90.00,280.00 100.00,280.00 100.00,254.00 90.00,254.00" /><polygon fill="#f16d05" points="100.00,280.00 110.00,280.00 110.00,254.00 100.00,254.00" /><polygon fill="#e85a09" points="110.00,280.00 120.00,280.00 120.00,254.00 110.00,254.00" /><polygon fill="#c83216" points="120.00,280.00 130.00,280.00 130.00,254.00 120.00,254.00" /><polygon fill="#920d2f" points="130.00,280.00 140.00,280.00 140.00,254.00 130.00,254.00" /><polygon fill="#5f004a" points="140.00,280.00 150.00,280.00 150.00,254.00 140.00,254.00" /><polygon fill="#310769" points="150.00,280.00 160.00,280.00 160.00,254.00 150.00,254.00" /><polygon fill="#121e85" points="160.00,280.00 170.00,280.00 170.00,254.00 160.00,254.00" /><polygon fill="#004ca9" points="170.00,280.00 180.00,280.00 180.00,254.00 170.00,254.00" /><polygon fill="#0885c9" points="180.00,280.00 190.00,280.00 190.00,254.00 180.00,254.00" /><polygon fill="#1fb1de" points="190.00,280.00 200.00,280.00 200.00,254.00 190.00,254.00" /><polygon fill="#2dc2e6" points="200.00,280.00 210.00,280.00 210.00,254.00 200.00,254.00" /><polygon fill="#1fb1de" points="210.00,280.00 220.00,280.00 220.00,254.00 210.00,254.00" /><polygon fill="#0885c9" points="220.00,280.00 230.00,280.00 230.00,254.00 220.00,254.00" /><polygon fill="#004ca9" points="230.00,280.00 240.00,280.00 240.00,254.00 230.00,254.00" /><polygon fill="#121e85" points="240.00,280.00 250.00,280.00 250.00,254.00 240.00,254.00" /><polygon fill="#310769" points="250.00,280.00 260.00,280.00 260.00,254.00 250.00,254.00" /><polygon fill="#5f004a" points="260.00,280.00 270.00,280.00 270.00,254.00 260.00,254.00" /><polygon fill="#920d2f" points="270.00,280.00 280.00,280.00 280.00,254.00 270.00,254.00" /><polygon fill="#c83216" points="280.00,280.00 290.00,280.00 290.00,254.00 280.00,254.00" /><polygon fill="#e85a09" points="290.00,280.00 300.00,280.00 300.00,254.00 290.00,254.00" /><polygon fill="#f16d05" points="300.00,280.00 310.00,280.00 310.00,254.00 300.00,254.00" /><polygon fill="#e85a09" points="310.00,280.00 320.00,280.00 320.00,254.00 310.00,254.00" /><polygon fill="#c83216" points="320.00,280.00 330.00,280.00 330.00,254.00 320.00,254.00" /><polygon fill="#920d2f" points="330.00,280.00 340.00,280.00 340.00,254.00 330.00,254.00" /><polygon fill="#5f004a" points="340.00,280.00 350.00,280.00 350.00,254.00 340.00,254.00" /><polygon fill="#310769" points="350.00,280.00 360.00,280.00 360.00,254.00 350.00,254.00" /><polygon fill="#121e85" points="360.00,280.00 370.00,280.00 370.00,254.00 360.00,254.00" /><polygon fill="#033b9d" points="370.00,280.00 380.00,280.00 380.00,254.00 370.00,254.00" /><polygon fill="#0052ad" points="380.00,280.00 390.00,280.00 390.00,254.00 380.00,254.00" /><polygon fill="#005fb4" points="390.00,280.00 400.00,280.00 400.00,254.00 390.00,254.00" /><polygon fill="#0052ad" points="400.00,280.00 410.00,280.00 410.00,254.00 400.00,254.00" /><polygon fill="#033b9d" points="410.00,280.00 420.00,280.00 420.00,254.00 410.00,254.00" /><polygon fill="#0f2289" points="420.00,280.00 430.00,280.00 430.00,254.00 420.00,254.00" /><polygon fill="#220f75" points="430.00,280.00 440.00,280.00 440.00,254.00 430.00,254.00" /><polygon fill="#310769" points="440.00,280.00 450.00,280.00 450.00,254.00 440.00,254.00" /><polygon fill="#310769" points="450.00,280.00 460.00,280.00 460.00,254.00 450.00,254.00" /><polygon fill="#310769" points="460.00,280.00 470.00,280.00 470.00,254.00 460.00,254.00" /><polygon fill="#310769" points="470.00,280.00 480.00,280.00 480.00,254.00 470.00,254.00" /><polygon fill="#310769" points="480.00,280.00 490.00,280.00 490.00,254.00 480.00,254.00" /><polygon fill="#310769" points="490.00,280.00 500.00,280.00 500.00,254.00 490.00,254.00" /><polygon fill="#310769" points="500.00,280.00 510.00,280.00 510.00,254.00 500.00,254.00" /><polygon fill="#310769" points="510.00,280.00 520.00,280.00 520.00,254.00 510.00,254.00" /><polygon fill="#310769" points="520.00,280.00 530.00,280.00 530.00,254.00 520.00,254.00" /><polygon fill="#310769" points="530.00,280.00 540.00,280.00 540.00,254.00 530.00,254.00" /><polygon fill="#310769" points="540.00,280.00 550.00,280.00 550.00,254.00 540.00,254.00" /><polygon fill="#0146a5" points="50.00,254.00 60.00,254.00 60.00,228.00 50.00,228.00" /><polygon fill="#0f2289" points="60.00,254.00 70.00,254.00 70.00,228.00 60.00,228.00" /><polygon fill="#3b0361" points="70.00,254.00 80.00,254.00 80.00,228.00 70.00,228.00" /><polygon fill="#78043c" points="80.00,254.00 90.00,254.00 90.00,228.00 80.00,228.00" /><polygon fill="#b7231d" points="90.00,254.00 100.00,254.00 100.00,228.00 90.00,228.00" /><polygon fill="#d74210" points="100.00,254.00 110.00,254.00 110.00,228.00 100.00,228.00" /><polygon fill="#db480e" points="110.00,254.00 120.00,254.00 120.00,228.00 110.00,228.00" /><polygon fill="#cd3714" points="120.00,254.00 130.00,254.00 130.00,228.00 120.00,228.00" /><polygon fill="#a51726" points="130.00,254.00 140.00,254.00 140.00,228.00 130.00,228.00" /><polygon fill="#78043c" points="140.00,254.00 150.00,254.00 150.00,228.00 140.00,228.00" /><polygon fill="#4c0055" points="150.00,254.00 160.00,254.00 160.00,228.00 150.00,228.00" /><polygon fill="#2c0a6d" points="160.00,254.00 170.00,254.00 170.00,228.00 160.00,228.00" /><polygon fill="#0a2c91" points="170.00,254.00 180.00,254.00 180.00,228.00 170.00,228.00" /><polygon fill="#0065b8" points="180.00,254.00 190.00,254.00 190.00,228.00 180.00,228.00" /><polygon fill="#1098d2" points="190.00,254.00 200.00,254.00 200.00,228.00 190.00,228.00" /><polygon fill="#23b7e1" points="200.00,254.00 210.00,254.00 210.00,228.00 200.00,228.00" /><polygon fill="#28bde3" points="210.00,254.00 220.00,254.00 220.00,228.00 210.00,228.00" /><polygon fill="#17a5d8" points="220.00,254.00 230.00,254.00 230.00,228.00 220.00,228.00" /><polygon fill="#067fc6" points="230.00,254.00 240.00,254.00 240.00,228.00 230.00,228.00" /><polygon fill="#0052ad" points="240.00,254.00 250.00,254.00 250.00,228.00 240.00,228.00" /><polygon fill="#0a2c91" points="250.00,254.00 260.00,254.00 260.00,228.00 250.00,228.00" /><polygon fill="#220f75" points="260.00,254.00 270.00,254.00 270.00,228.00 260.00,228.00" /><polygon fill="#460159" points="270.00,254.00 280.00,254.00 280.00,228.00 270.00,228.00" /><polygon fill="#78043c" points="280.00,254.00 290.00,254.00 290.00,228.00 280.00,228.00" /><polygon fill="#98102c" points="290.00,254.00 300.00,254.00 300.00,228.00 290.00,228.00" /><polygon fill="#98102c" points="300.00,254.00 310.00,254.00 310.00,228.00 300.00,228.00" /><polygon fill="#7f0638" points="310.00,254.00 320.00,254.00 320.00,228.00 310.00,228.00" /><polygon fill="#4c0055" points="320.00,254.00 330.00,254.00 330.00,228.00 320.00,228.00" /><polygon fill="#1e1279" points="330.00,254.00 340.00,254.00 340.00,228.00 330.00,228.00" /><polygon fill="#033b9d" points="340.00,254.00 350.00,254.00 350.00,228.00 340.00,228.00" /><polygon fill="#016bbb" points="350.00,254.00 360.00,254.00 360.00,228.00 350.00,228.00" /><polygon fill="#0d92cf" points="360.00,254.00 370.00,254.00 370.00,228.00 360.00,228.00" /><polygon fill="#23b7e1" points="370.00,254.00 380.00,254.00 380.00,228.00 370.00,228.00" /><polygon fill="#32c8e8" points="380.00,254.00 390.00,254.00 390.00,228.00 380.00,228.00" /><polygon fill="#2dc2e6" points="390.00,254.00 400.00,254.00 400.00,228.00 390.00,228.00" /><polygon fill="#1babdb" points="400.00,254.00 410.00,254.00 410.00,228.00 400.00,228.00" /><polygon fill="#0885c9" points="410.00,254.00 420.00,254.00 420.00,228.00 410.00,228.00" /><polygon fill="#0058b0" points="420.00,254.00 430.00,254.00 430.00,228.00 420.00,228.00" /><polygon fill="#033b9d" points="430.00,254.00 440.00,254.00 440.00,228.00 430.00,228.00" /><polygon fill="#0a2c91" points="440.00,254.00 450.00,254.00 450.00,228.00 440.00,228.00" /><polygon fill="#0a2c91" points="450.00,254.00 460.00,254.00 460.00,228.00 450.00,228.00" /><polygon fill="#0a2c91" points="460.00,254.00 470.00,254.00 470.00,228.00 460.00,228.00" /><polygon fill="#0a2c91" points="470.00,254.00 480.00,254.00 480.00,228.00 470.00,228.00" /><polygon fill="#121e85" points="480.00,254.00 490.00,254.00 490.00,228.00 480.00,228.00" /><polygon fill="#270c71" points="490.00,254.00 500.00,254.00 500.00,228.00 490.00,228.00" /><polygon fill="#460159" points="500.00,254.00 510.00,254.00 510.00,228.00 500.00,228.00" /><polygon fill="#6b0143" points="510.00,254.00 520.00,254.00 520.00,228.00 510.00,228.00" /><polygon fill="#8c0a32" points="520.00,254.00 530.00,254.00 530.00,228.00 520.00,228.00" /><polygon fill="#a51726" points="530.00,254.00 540.00,254.00 540.00,228.00 530.00,228.00" /><polygon fill="#b11f20" points="540.00,254.00 550.00,254.00 550.00,228.00 540.00,228.00" /><polygon fill="#0052ad" points="50.00,228.00 60.00,228.00 60.00,202.00 50.00,202.00" /><polygon fill="#0a2c91" points="60.00,228.00 70.00,228.00 70.00,202.00 60.00,202.00" /><polygon fill="#2c0a6d" points="70.00,228.00 80.00,228.00 80.00,202.00 70.00,202.00" /><polygon fill="#6b0143" points="80.00,228.00 90.00,228.00 90.00,202.00 80.00,202.00" /><polygon fill="#a51726" points="90.00,228.00 100.00,228.00 100.00,202.00 90.00,202.00" /><polygon fill="#cd3714" points="100.00,228.00 110.00,228.00 110.00,202.00 100.00,202.00" /><polygon fill="#db480e" points="110.00,228.00 120.00,228.00 120.00,202.00 110.00,202.00" /><polygon fill="#d74210" points="120.00,228.00 130.00,228.00 130.00,202.00 120.00,202.00" /><polygon fill="#c83216" points="130.00,228.00 140.00,228.00 140.00,202.00 130.00,202.00" /><polygon fill="#b11f20" points="140.00,228.00 150.00,228.00 150.00,202.00 140.00,202.00" /><polygon fill="#98102c" points="150.00,228.00 160.00,228.00 160.00,202.00 150.00,202.00" /><polygon fill="#850835" points="160.00,228.00 170.00,228.00 170.00,202.00 160.00,202.00" /><polygon fill="#5f004a" points="170.00,228.00 180.00,228.00 180.00,202.00 170.00,202.00" /><polygon fill="#3b0361" points="180.00,228.00 190.00,228.00 190.00,202.00 180.00,202.00" /><polygon fill="#1e1279" points="190.00,228.00 200.00,228.00 200.00,202.00 190.00,202.00" /><polygon fill="#0c278d" points="200.00,228.00 210.00,228.00 210.00,202.00 200.00,202.00" /><polygon fill="#0a2c91" points="210.00,228.00 220.00,228.00 220.00,202.00 210.00,202.00" /><polygon fill="#0a2c91" points="220.00,228.00 230.00,228.00 230.00,202.00 220.00,202.00" /><polygon fill="#121e85" points="230.00,228.00 240.00,228.00 240.00,202.00 230.00,202.00" /><polygon fill="#220f75" points="240.00,228.00 250.00,228.00 250.00,202.00 240.00,202.00" /><polygon fill="#310769" points="250.00,228.00 260.00,228.00 260.00,202.00 250.00,202.00" /><polygon fill="#460159" points="260.00,228.00 270.00,228.00 270.00,202.00 260.00,202.00" /><polygon fill="#5f004a" points="270.00,228.00 280.00,228.00 280.00,202.00 270.00,202.00" /><polygon fill="#72023f" points="280.00,228.00 290.00,228.00 290.00,202.00 280.00,202.00" /><polygon fill="#78043c" points="290.00,228.00 300.00,228.00 300.00,202.00 290.00,202.00" /><polygon fill="#650046" points="300.00,228.00 310.00,228.00 310.00,202.00 300.00,202.00" /><polygon fill="#3b0361" points="310.00,228.00 320.00,228.00 320.00,202.00 310.00,202.00" /><polygon fill="#0f2289" points="320.00,228.00 330.00,228.00 330.00,202.00 320.00,202.00" /><polygon fill="#0058b0" points="330.00,228.00 340.00,228.00 340.00,202.00 330.00,202.00" /><polygon fill="#0d92cf" points="340.00,228.00 350.00,228.00 350.00,202.00 340.00,202.00" /><polygon fill="#2dc2e6" points="350.00,228.00 360.00,228.00 360.00,202.00 350.00,202.00" /><polygon fill="#4ee0f2" points="360.00,228.00 370.00,228.00 370.00,202.00 360.00,202.00" /><polygon fill="#60ebf7" points="370.00,228.00 380.00,228.00 380.00,202.00 370.00,202.00" /><polygon fill="#54e4f4" points="380.00,228.00 390.00,228.00 390.00,202.00 380.00,202.00" /><polygon fill="#32c8e8" points="390.00,228.00 400.00,228.00 400.00,202.00 390.00,202.00" /><polygon fill="#0a8ccc" points="400.00,228.00 410.00,228.00 410.00,202.00 400.00,202.00" /><polygon fill="#0146a5" points="410.00,228.00 420.00,228.00 420.00,202.00 410.00,202.00" /><polygon fill="#1a167d" points="420.00,228.00 430.00,228.00 430.00,202.00 420.00,202.00" /><polygon fill="#360565" points="430.00,228.00 440.00,228.00 440.00,202.00 430.00,202.00" /><polygon fill="#41025d" points="440.00,228.00 450.00,228.00 450.00,202.00 440.00,202.00" /><polygon fill="#310769" points="450.00,228.00 460.00,228.00 460.00,202.00 450.00,202.00" /><polygon fill="#220f75" points="460.00,228.00 470.00,228.00 470.00,202.00 460.00,202.00" /><polygon fill="#1e1279" points="470.00,228.00 480.00,228.00 480.00,202.00 470.00,202.00" /><polygon fill="#220f75" points="480.00,228.00 490.00,228.00 490.00,202.00 480.00,202.00" /><polygon fill="#3b0361" points="490.00,228.00 500.00,228.00 500.00,202.00 490.00,202.00" /><polygon fill="#650046" points="500.00,228.00 510.00,228.00 510.00,202.00 500.00,202.00" /><polygon fill="#98102c" points="510.00,228.00 520.00,228.00 520.00,202.00 510.00,202.00" /><polygon fill="#c83216" points="520.00,228.00 530.00,228.00 530.00,202.00 520.00,202.00" /><polygon fill="#e4540a" points="530.00,228.00 540.00,228.00 540.00,202.00 530.00,202.00" /><polygon fill="#ee6606" points="540.00,228.00 550.00,228.00 550.00,202.00 540.00,202.00" /><polygon fill="#1a167d" points="50.00,202.00 60.00,202.00 60.00,176.00 50.00,176.00" /><polygon fill="#3b0361" points="60.00,202.00 70.00,202.00 70.00,176.00 60.00,176.00" /><polygon fill="#650046" points="70.00,202.00 80.00,202.00 80.00,176.00 70.00,176.00" /><polygon fill="#920d2f" points="80.00,202.00 90.00,202.00 90.00,176.00 80.00,176.00" /><polygon fill="#b7231d" points="90.00,202.00 100.00,202.00 100.00,176.00 90.00,176.00" /><polygon fill="#c22d18" points="100.00,202.00 110.00,202.00 110.00,176.00 100.00,176.00" /><polygon fill="#c22d18" points="110.00,202.00 120.00,202.00 120.00,176.00 110.00,176.00" /><polygon fill="#b7231d" points="120.00,202.00 130.00,202.00 130.00,176.00 120.00,176.00" /><polygon fill="#a51726" points="130.00,202.00 140.00,202.00 140.00,176.00 130.00,176.00" /><polygon fill="#98102c" points="140.00,202.00 150.00,202.00 150.00,176.00 140.00,176.00" /><polygon fill="#920d2f" points="150.00,202.00 160.00,202.00 160.00,176.00 150.00,176.00" /><polygon fill="#8c0a32" points="160.00,202.00 170.00,202.00 170.00,176.00 160.00,176.00" /><polygon fill="#850835" points="170.00,202.00 180.00,202.00 180.00,176.00 170.00,176.00" /><polygon fill="#78043c" points="180.00,202.00 190.00,202.00 190.00,176.00 180.00,176.00" /><polygon fill="#72023f" points="190.00,202.00 200.00,202.00 200.00,176.00 190.00,176.00" /><polygon fill="#650046" points="200.00,202.00 210.00,202.00 210.00,176.00 200.00,176.00" /><polygon fill="#650046" points="210.00,202.00 220.00,202.00 220.00,176.00 210.00,176.00" /><polygon fill="#650046" points="220.00,202.00 230.00,202.00 230.00,176.00 220.00,176.00" /><polygon fill="#650046" points="230.00,202.00 240.00,202.00 240.00,176.00 230.00,176.00" /><polygon fill="#6b0143" points="240.00,202.00 250.00,202.00 250.00,176.00 240.00,176.00" /><polygon fill="#6b0143" points="250.00,202.00 260.00,202.00 260.00,176.00 250.00,176.00" /><polygon fill="#72023f" points="260.00,202.00 270.00,202.00 270.00,176.00 260.00,176.00" /><polygon fill="#7f0638" points="270.00,202.00 280.00,202.00 280.00,176.00 270.00,176.00" /><polygon fill="#8c0a32" points="280.00,202.00 290.00,202.00 290.00,176.00 280.00,176.00" /><polygon fill="#920d2f" points="290.00,202.00 300.00,202.00 300.00,176.00 290.00,176.00" /><polygon fill="#850835" points="300.00,202.00 310.00,202.00 310.00,176.00 300.00,176.00" /><polygon fill="#650046" points="310.00,202.00 320.00,202.00 320.00,176.00 310.00,176.00" /><polygon fill="#3b0361" points="320.00,202.00 330.00,202.00 330.00,176.00 320.00,176.00" /><polygon fill="#161a81" points="330.00,202.00 340.00,202.00 340.00,176.00 330.00,176.00" /><polygon fill="#0241a1" points="340.00,202.00 350.00,202.00 350.00,176.00 340.00,176.00" /><polygon fill="#016bbb" points="350.00,202.00 360.00,202.00 360.00,176.00 350.00,176.00" /><polygon fill="#0d92cf" points="360.00,202.00 370.00,202.00 370.00,176.00 360.00,176.00" /><polygon fill="#139fd6" points="370.00,202.00 380.00,202.00 380.00,176.00 370.00,176.00" /><polygon fill="#0a8ccc" points="380.00,202.00 390.00,202.00 390.00,176.00 380.00,176.00" /><polygon fill="#0058b0" points="390.00,202.00 400.00,202.00 400.00,176.00 390.00,176.00" /><polygon fill="#121e85" points="400.00,202.00 410.00,202.00 410.00,176.00 400.00,176.00" /><polygon fill="#460159" points="410.00,202.00 420.00,202.00 420.00,176.00 410.00,176.00" /><polygon fill="#7f0638" points="420.00,202.00 430.00,202.00 430.00,176.00 420.00,176.00" /><polygon fill="#98102c" points="430.00,202.00 440.00,202.00 440.00,176.00 430.00,176.00" /><polygon fill="#920d2f" points="440.00,202.00 450.00,202.00 450.00,176.00 440.00,176.00" /><polygon fill="#6b0143" points="450.00,202.00 460.00,202.00 460.00,176.00 450.00,176.00" /><polygon fill="#460159" points="460.00,202.00 470.00,202.00 470.00,176.00 460.00,176.00" /><polygon fill="#2c0a6d" points="470.00,202.00 480.00,202.00 480.00,176.00 470.00,176.00" /><polygon fill="#1e1279" points="480.00,202.00 490.00,202.00 490.00,176.00 480.00,176.00" /><polygon fill="#220f75" points="490.00,202.00 500.00,202.00 500.00,176.00 490.00,176.00" /><polygon fill="#310769" points="500.00,202.00 510.00,202.00 510.00,176.00 500.00,176.00" /><polygon fill="#520051" points="510.00,202.00 520.00,202.00 520.00,176.00 510.00,176.00" /><polygon fill="#78043c" points="520.00,202.00 530.00,202.00 530.00,176.00 520.00,176.00" /><polygon fill="#9f1328" points="530.00,202.00 540.00,202.00 540.00,176.00 530.00,176.00" /><polygon fill="#ab1b23" points="540.00,202.00 550.00,202.00 550.00,176.00 540.00,176.00" /><polygon fill="#310769" points="50.00,176.00 60.00,176.00 60.00,150.00 50.00,150.00" /><polygon fill="#58004e" points="60.00,176.00 70.00,176.00 70.00,150.00 60.00,150.00" /><polygon fill="#7f0638" points="70.00,176.00 80.00,176.00 80.00,150.00 70.00,150.00" /><polygon fill="#98102c" points="80.00,176.00 90.00,176.00 90.00,150.00 80.00,150.00" /><polygon fill="#a51726" points="90.00,176.00 100.00,176.00 100.00,150.00 90.00,150.00" /><polygon fill="#98102c" points="100.00,176.00 110.00,176.00 110.00,150.00 100.00,150.00" /><polygon fill="#7f0638" points="110.00,176.00 120.00,176.00 120.00,150.00 110.00,150.00" /><polygon fill="#5f004a" points="120.00,176.00 130.00,176.00 130.00,150.00 120.00,150.00" /><polygon fill="#41025d" points="130.00,176.00 140.00,176.00 140.00,150.00 130.00,150.00" /><polygon fill="#360565" points="140.00,176.00 150.00,176.00 150.00,150.00 140.00,150.00" /><polygon fill="#310769" points="150.00,176.00 160.00,176.00 160.00,150.00 150.00,150.00" /><polygon fill="#310769" points="160.00,176.00 170.00,176.00 170.00,150.00 160.00,150.00" /><polygon fill="#310769" points="170.00,176.00 180.00,176.00 180.00,150.00 170.00,150.00" /><polygon fill="#310769" points="180.00,176.00 190.00,176.00 190.00,150.00 180.00,150.00" /><polygon fill="#310769" points="190.00,176.00 200.00,176.00 200.00,150.00 190.00,150.00" /><polygon fill="#310769" points="200.00,176.00 210.00,176.00 210.00,150.00 200.00,150.00" /><polygon fill="#310769" points="210.00,176.00 220.00,176.00 220.00,150.00 210.00,150.00" /><polygon fill="#310769" points="220.00,176.00 230.00,176.00 230.00,150.00 220.00,150.00" /><polygon fill="#310769" points="230.00,176.00 240.00,176.00 240.00,150.00 230.00,150.00" /><polygon fill="#310769" points="240.00,176.00 250.00,176.00 250.00,150.00 240.00,150.00" /><polygon fill="#310769" points="250.00,176.00 260.00,176.00 260.00,150.00 250.00,150.00" /><polygon fill="#360565" points="260.00,176.00 270.00,176.00 270.00,150.00 260.00,150.00" /><polygon fill="#41025d" points="270.00,176.00 280.00,176.00 280.00,150.00 270.00,150.00" /><polygon fill="#5f004a" points="280.00,176.00 290.00,176.00 290.00,150.00 280.00,150.00" /><polygon fill="#7f0638" points="290.00,176.00 300.00,176.00 300.00,150.00 290.00,150.00" /><polygon fill="#98102c" points="300.00,176.00 310.00,176.00 310.00,150.00 300.00,150.00" /><polygon fill="#a51726" points="310.00,176.00 320.00,176.00 320.00,150.00 310.00,150.00" /><polygon fill="#98102c" points="320.00,176.00 330.00,176.00 330.00,150.00 320.00,150.00" /><polygon fill="#7f0638" points="330.00,176.00 340.00,176.00 340.00,150.00 330.00,150.00" /><polygon fill="#58004e" points="340.00,176.00 350.00,176.00 350.00,150.00 340.00,150.00" /><polygon fill="#310769" points="350.00,176.00 360.00,176.00 360.00,150.00 350.00,150.00" /><polygon fill="#161a81" points="360.00,176.00 370.00,176.00 370.00,150.00 360.00,150.00" /><polygon fill="#0a2c91" points="370.00,176.00 380.00,176.00 380.00,150.00 370.00,150.00" /><polygon fill="#0c278d" points="380.00,176.00 390.00,176.00 390.00,150.00 380.00,150.00" /><polygon fill="#161a81" points="390.00,176.00 400.00,176.00 400.00,150.00 390.00,150.00" /><polygon fill="#310769" points="400.00,176.00 410.00,176.00 410.00,150.00 400.00,150.00" /><polygon fill="#520051" points="410.00,176.00 420.00,176.00 420.00,150.00 410.00,150.00" /><polygon fill="#6b0143" points="420.00,176.00 430.00,176.00 430.00,150.00 420.00,150.00" /><polygon fill="#6b0143" points="430.00,176.00 440.00,176.00 440.00,150.00 430.00,150.00" /><polygon fill="#520051" points="440.00,176.00 450.00,176.00 450.00,150.00 440.00,150.00" /><polygon fill="#310769" points="450.00,176.00 460.00,176.00 460.00,150.00 450.00,150.00" /><polygon fill="#121e85" points="460.00,176.00 470.00,176.00 470.00,150.00 460.00,150.00" /><polygon fill="#033b9d" points="470.00,176.00 480.00,176.00 480.00,150.00 470.00,150.00" /><polygon fill="#0052ad" points="480.00,176.00 490.00,176.00 490.00,150.00 480.00,150.00" /><polygon fill="#005fb4" points="490.00,176.00 500.00,176.00 500.00,150.00 490.00,150.00" /><polygon fill="#0052ad" points="500.00,176.00 510.00,176.00 510.00,150.00 500.00,150.00" /><polygon fill="#033b9d" points="510.00,176.00 520.00,176.00 520.00,150.00 510.00,150.00" /><polygon fill="#0f2289" points="520.00,176.00 530.00,176.00 530.00,150.00 520.00,150.00" /><polygon fill="#220f75" points="530.00,176.00 540.00,176.00 540.00,150.00 530.00,150.00" /><polygon fill="#310769" points="540.00,176.00 550.00,176.00 550.00,150.00 540.00,150.00" /><polygon fill="#1a167d" points="50.00,150.00 60.00,150.00 60.00,124.00 50.00,124.00" /><polygon fill="#3b0361" points="60.00,150.00 70.00,150.00 70.00,124.00 60.00,124.00" /><polygon fill="#5f004a" points="70.00,150.00 80.00,150.00 80.00,124.00 70.00,124.00" /><polygon fill="#72023f" points="80.00,150.00 90.00,150.00 90.00,124.00 80.00,124.00" /><polygon fill="#78043c" points="90.00,150.00 100.00,150.00 100.00,124.00 90.00,124.00" /><polygon fill="#650046" points="100.00,150.00 110.00,150.00 110.00,124.00 100.00,124.00" /><polygon fill="#41025d" points="110.00,150.00 120.00,150.00 120.00,124.00 110.00,124.00" /><polygon fill="#1e1279" points="120.00,150.00 130.00,150.00 130.00,124.00 120.00,124.00" /><polygon fill="#0a2c91" points="130.00,150.00 140.00,150.00 140.00,124.00 130.00,124.00" /><polygon fill="#0241a1" points="140.00,150.00 150.00,150.00 150.00,124.00 140.00,124.00" /><polygon fill="#0146a5" points="150.00,150.00 160.00,150.00 160.00,124.00 150.00,124.00" /><polygon fill="#004ca9" points="160.00,150.00 170.00,150.00 170.00,124.00 160.00,124.00" /><polygon fill="#0052ad" points="170.00,150.00 180.00,150.00 180.00,124.00 170.00,124.00" /><polygon fill="#0058b0" points="180.00,150.00 190.00,150.00 190.00,124.00 180.00,124.00" /><polygon fill="#005fb4" points="190.00,150.00 200.00,150.00 200.00,124.00 190.00,124.00" /><polygon fill="#0065b8" points="200.00,150.00 210.00,150.00 210.00,124.00 200.00,124.00" /><polygon fill="#0065b8" points="210.00,150.00 220.00,150.00 220.00,124.00 210.00,124.00" /><polygon fill="#016bbb" points="220.00,150.00 230.00,150.00 230.00,124.00 220.00,124.00" /><polygon fill="#016bbb" points="230.00,150.00 240.00,150.00 240.00,124.00 230.00,124.00" /><polygon fill="#016bbb" points="240.00,150.00 250.00,150.00 250.00,124.00 240.00,124.00" /><polygon fill="#016bbb" points="250.00,150.00 260.00,150.00 260.00,124.00 250.00,124.00" /><polygon fill="#0065b8" points="260.00,150.00 270.00,150.00 270.00,124.00 260.00,124.00" /><polygon fill="#004ca9" points="270.00,150.00 280.00,150.00 280.00,124.00 270.00,124.00" /><polygon fill="#0c278d" points="280.00,150.00 290.00,150.00 290.00,124.00 280.00,124.00" /><polygon fill="#360565" points="290.00,150.00 300.00,150.00 300.00,124.00 290.00,124.00" /><polygon fill="#6b0143" points="300.00,150.00 310.00,150.00 310.00,124.00 300.00,124.00" /><polygon fill="#98102c" points="310.00,150.00 320.00,150.00 320.00,124.00 310.00,124.00" /><polygon fill="#b11f20" points="320.00,150.00 330.00,150.00 330.00,124.00 320.00,124.00" /><polygon fill="#ab1b23" points="330.00,150.00 340.00,150.00 340.00,124.00 330.00,124.00" /><polygon fill="#920d2f" points="340.00,150.00 350.00,150.00 350.00,124.00 340.00,124.00" /><polygon fill="#6b0143" points="350.00,150.00 360.00,150.00 360.00,124.00 350.00,124.00" /><polygon fill="#460159" points="360.00,150.00 370.00,150.00 370.00,124.00 360.00,124.00" /><polygon fill="#310769" points="370.00,150.00 380.00,150.00 380.00,124.00 370.00,124.00" /><polygon fill="#270c71" points="380.00,150.00 390.00,150.00 390.00,124.00 380.00,124.00" /><polygon fill="#220f75" points="390.00,150.00 400.00,150.00 400.00,124.00 390.00,124.00" /><polygon fill="#220f75" points="400.00,150.00 410.00,150.00 410.00,124.00 400.00,124.00" /><polygon fill="#1e1279" points="410.00,150.00 420.00,150.00 420.00,124.00 410.00,124.00" /><polygon fill="#1a167d" points="420.00,150.00 430.00,150.00 430.00,124.00 420.00,124.00" /><polygon fill="#0c278d" points="430.00,150.00 440.00,150.00 440.00,124.00 430.00,124.00" /><polygon fill="#0241a1" points="440.00,150.00 450.00,150.00 450.00,124.00 440.00,124.00" /><polygon fill="#016bbb" points="450.00,150.00 460.00,150.00 460.00,124.00 450.00,124.00" /><polygon fill="#1098d2" points="460.00,150.00 470.00,150.00 470.00,124.00 460.00,124.00" /><polygon fill="#28bde3" points="470.00,150.00 480.00,150.00 480.00,124.00 470.00,124.00" /><polygon fill="#3cd2ec" points="480.00,150.00 490.00,150.00 490.00,124.00 480.00,124.00" /><polygon fill="#42d7ee" points="490.00,150.00 500.00,150.00 500.00,124.00 490.00,124.00" /><polygon fill="#37cdea" points="500.00,150.00 510.00,150.00 510.00,124.00 500.00,124.00" /><polygon fill="#1fb1de" points="510.00,150.00 520.00,150.00 520.00,124.00 510.00,124.00" /><polygon fill="#0a8ccc" points="520.00,150.00 530.00,150.00 530.00,124.00 520.00,124.00" /><polygon fill="#0065b8" points="530.00,150.00 540.00,150.00 540.00,124.00 530.00,124.00" /><polygon fill="#0052ad" points="540.00,150.00 550.00,150.00 550.00,124.00 540.00,124.00" /><polygon fill="#0052ad" points="50.00,124.00 60.00,124.00 60.00,98.00 50.00,98.00" /><polygon fill="#0a2c91" points="60.00,124.00 70.00,124.00 70.00,98.00 60.00,98.00" /><polygon fill="#220f75" points="70.00,124.00 80.00,124.00 80.00,98.00 70.00,98.00" /><polygon fill="#460159" points="80.00,124.00 90.00,124.00 90.00,98.00 80.00,98.00" /><polygon fill="#5f004a" points="90.00,124.00 100.00,124.00 100.00,98.00 90.00,98.00" /><polygon fill="#650046" points="100.00,124.00 110.00,124.00 110.00,98.00 100.00,98.00" /><polygon fill="#4c0055" points="110.00,124.00 120.00,124.00 120.00,98.00 110.00,98.00" /><polygon fill="#2c0a6d" points="120.00,124.00 130.00,124.00 130.00,98.00 120.00,98.00" /><polygon fill="#121e85" points="130.00,124.00 140.00,124.00 140.00,98.00 130.00,98.00" /><polygon fill="#033b9d" points="140.00,124.00 150.00,124.00 150.00,98.00 140.00,98.00" /><polygon fill="#0052ad" points="150.00,124.00 160.00,124.00 160.00,98.00 150.00,98.00" /><polygon fill="#016bbb" points="160.00,124.00 170.00,124.00 170.00,98.00 160.00,98.00" /><polygon fill="#0885c9" points="170.00,124.00 180.00,124.00 180.00,98.00 170.00,98.00" /><polygon fill="#139fd6" points="180.00,124.00 190.00,124.00 190.00,98.00 180.00,98.00" /><polygon fill="#1fb1de" points="190.00,124.00 200.00,124.00 200.00,98.00 190.00,98.00" /><polygon fill="#2dc2e6" points="200.00,124.00 210.00,124.00 210.00,98.00 200.00,98.00" /><polygon fill="#32c8e8" points="210.00,124.00 220.00,124.00 220.00,98.00 210.00,98.00" /><polygon fill="#32c8e8" points="220.00,124.00 230.00,124.00 230.00,98.00 220.00,98.00" /><polygon fill="#2dc2e6" points="230.00,124.00 240.00,124.00 240.00,98.00 230.00,98.00" /><polygon fill="#2dc2e6" points="240.00,124.00 250.00,124.00 250.00,98.00 240.00,98.00" /><polygon fill="#2dc2e6" points="250.00,124.00 260.00,124.00 260.00,98.00 250.00,98.00" /><polygon fill="#28bde3" points="260.00,124.00 270.00,124.00 270.00,98.00 260.00,98.00" /><polygon fill="#1babdb" points="270.00,124.00 280.00,124.00 280.00,98.00 270.00,98.00" /><polygon fill="#0885c9" points="280.00,124.00 290.00,124.00 290.00,98.00 280.00,98.00" /><polygon fill="#0052ad" points="290.00,124.00 300.00,124.00 300.00,98.00 290.00,98.00" /><polygon fill="#0c278d" points="300.00,124.00 310.00,124.00 310.00,98.00 300.00,98.00" /><polygon fill="#2c0a6d" points="310.00,124.00 320.00,124.00 320.00,98.00 310.00,98.00" /><polygon fill="#41025d" points="320.00,124.00 330.00,124.00 330.00,98.00 320.00,98.00" /><polygon fill="#4c0055" points="330.00,124.00 340.00,124.00 340.00,98.00 330.00,98.00" /><polygon fill="#41025d" points="340.00,124.00 350.00,124.00 350.00,98.00 340.00,98.00" /><polygon fill="#310769" points="350.00,124.00 360.00,124.00 360.00,98.00 350.00,98.00" /><polygon fill="#220f75" points="360.00,124.00 370.00,124.00 370.00,98.00 360.00,98.00" /><polygon fill="#1a167d" points="370.00,124.00 380.00,124.00 380.00,98.00 370.00,98.00" /><polygon fill="#161a81" points="380.00,124.00 390.00,124.00 390.00,98.00 380.00,98.00" /><polygon fill="#121e85" points="390.00,124.00 400.00,124.00 400.00,98.00 390.00,98.00" /><polygon fill="#0c278d" points="400.00,124.00 410.00,124.00 410.00,98.00 400.00,98.00" /><polygon fill="#073195" points="410.00,124.00 420.00,124.00 420.00,98.00 410.00,98.00" /><polygon fill="#0146a5" points="420.00,124.00 430.00,124.00 430.00,98.00 420.00,98.00" /><polygon fill="#016bbb" points="430.00,124.00 440.00,124.00 440.00,98.00 430.00,98.00" /><polygon fill="#1098d2" points="440.00,124.00 450.00,124.00 450.00,98.00 440.00,98.00" /><polygon fill="#2dc2e6" points="450.00,124.00 460.00,124.00 460.00,98.00 450.00,98.00" /><polygon fill="#4ee0f2" points="460.00,124.00 470.00,124.00 470.00,98.00 460.00,98.00" /><polygon fill="#7af7fb" points="470.00,124.00 480.00,124.00 480.00,98.00 470.00,98.00" /><polygon fill="#9afefe" points="480.00,124.00 490.00,124.00 490.00,98.00 480.00,98.00" /><polygon fill="#a6ffff" points="490.00,124.00 500.00,124.00 500.00,98.00 490.00,98.00" /><polygon fill="#94fdfe" points="500.00,124.00 510.00,124.00 510.00,98.00 500.00,98.00" /><polygon fill="#66eef8" points="510.00,124.00 520.00,124.00 520.00,98.00 510.00,98.00" /><polygon fill="#37cdea" points="520.00,124.00 530.00,124.00 530.00,98.00 520.00,98.00" /><polygon fill="#1098d2" points="530.00,124.00 540.00,124.00 540.00,98.00 530.00,98.00" /><polygon fill="#016bbb" points="540.00,124.00 550.00,124.00 550.00,98.00 540.00,98.00" /><polygon fill="#0146a5" points="50.00,98.00 60.00,98.00 60.00,72.00 50.00,72.00" /><polygon fill="#0f2289" points="60.00,98.00 70.00,98.00 70.00,72.00 60.00,72.00" /><polygon fill="#360565" points="70.00,98.00 80.00,98.00 80.00,72.00 70.00,72.00" /><polygon fill="#72023f" points="80.00,98.00 90.00,98.00 90.00,72.00 80.00,72.00" /><polygon fill="#a51726" points="90.00,98.00 100.00,98.00 100.00,72.00 90.00,72.00" /><polygon fill="#b7231d" points="100.00,98.00 110.00,98.00 110.00,72.00 100.00,72.00" /><polygon fill="#b7231d" points="110.00,98.00 120.00,98.00 120.00,72.00 110.00,72.00" /><polygon fill="#98102c" points="120.00,98.00 130.00,98.00 130.00,72.00 120.00,72.00" /><polygon fill="#650046" points="130.00,98.00 140.00,98.00 140.00,72.00 130.00,72.00" /><polygon fill="#360565" points="140.00,98.00 150.00,98.00 150.00,72.00 140.00,72.00" /><polygon fill="#1a167d" points="150.00,98.00 160.00,98.00 160.00,72.00 150.00,72.00" /><polygon fill="#053699" points="160.00,98.00 170.00,98.00 170.00,72.00 160.00,72.00" /><polygon fill="#0058b0" points="170.00,98.00 180.00,98.00 180.00,72.00 170.00,72.00" /><polygon fill="#0478c2" points="180.00,98.00 190.00,98.00 190.00,72.00 180.00,72.00" /><polygon fill="#0d92cf" points="190.00,98.00 200.00,98.00 200.00,72.00 190.00,72.00" /><polygon fill="#139fd6" points="200.00,98.00 210.00,98.00 210.00,72.00 200.00,72.00" /><polygon fill="#1098d2" points="210.00,98.00 220.00,98.00 220.00,72.00 210.00,72.00" /><polygon fill="#0885c9" points="220.00,98.00 230.00,98.00 230.00,72.00 220.00,72.00" /><polygon fill="#0478c2" points="230.00,98.00 240.00,98.00 240.00,72.00 230.00,72.00" /><polygon fill="#016bbb" points="240.00,98.00 250.00,98.00 250.00,72.00 240.00,72.00" /><polygon fill="#016bbb" points="250.00,98.00 260.00,98.00 260.00,72.00 250.00,72.00" /><polygon fill="#016bbb" points="260.00,98.00 270.00,98.00 270.00,72.00 260.00,72.00" /><polygon fill="#0065b8" points="270.00,98.00 280.00,98.00 280.00,72.00 270.00,72.00" /><polygon fill="#0058b0" points="280.00,98.00 290.00,98.00 290.00,72.00 280.00,72.00" /><polygon fill="#004ca9" points="290.00,98.00 300.00,98.00 300.00,72.00 290.00,72.00" /><polygon fill="#0241a1" points="300.00,98.00 310.00,98.00 310.00,72.00 300.00,72.00" /><polygon fill="#073195" points="310.00,98.00 320.00,98.00 320.00,72.00 310.00,72.00" /><polygon fill="#0a2c91" points="320.00,98.00 330.00,98.00 330.00,72.00 320.00,72.00" /><polygon fill="#0c278d" points="330.00,98.00 340.00,98.00 340.00,72.00 330.00,72.00" /><polygon fill="#0c278d" points="340.00,98.00 350.00,98.00 350.00,72.00 340.00,72.00" /><polygon fill="#0a2c91" points="350.00,98.00 360.00,98.00 360.00,72.00 350.00,72.00" /><polygon fill="#0a2c91" points="360.00,98.00 370.00,98.00 370.00,72.00 360.00,72.00" /><polygon fill="#0c278d" points="370.00,98.00 380.00,98.00 380.00,72.00 370.00,72.00" /><polygon fill="#161a81" points="380.00,98.00 390.00,98.00 390.00,72.00 380.00,72.00" /><polygon fill="#270c71" points="390.00,98.00 400.00,98.00 400.00,72.00 390.00,72.00" /><polygon fill="#310769" points="400.00,98.00 410.00,98.00 410.00,72.00 400.00,72.00" /><polygon fill="#310769" points="410.00,98.00 420.00,98.00 420.00,72.00 410.00,72.00" /><polygon fill="#270c71" points="420.00,98.00 430.00,98.00 430.00,72.00 420.00,72.00" /><polygon fill="#121e85" points="430.00,98.00 440.00,98.00 440.00,72.00 430.00,72.00" /><polygon fill="#0241a1" points="440.00,98.00 450.00,98.00 450.00,72.00 440.00,72.00" /><polygon fill="#016bbb" points="450.00,98.00 460.00,98.00 460.00,72.00 450.00,72.00" /><polygon fill="#1098d2" points="460.00,98.00 470.00,98.00 470.00,72.00 460.00,72.00" /><polygon fill="#32c8e8" points="470.00,98.00 480.00,98.00 480.00,72.00 470.00,72.00" /><polygon fill="#5ae8f5" points="480.00,98.00 490.00,98.00 490.00,72.00 480.00,72.00" /><polygon fill="#73f4fa" points="490.00,98.00 500.00,98.00 500.00,72.00 490.00,72.00" /><polygon fill="#6df1f9" points="500.00,98.00 510.00,98.00 510.00,72.00 500.00,72.00" /><polygon fill="#48dbf0" points="510.00,98.00 520.00,98.00 520.00,72.00 510.00,72.00" /><polygon fill="#1babdb" points="520.00,98.00 530.00,98.00 530.00,72.00 520.00,72.00" /><polygon fill="#016bbb" points="530.00,98.00 540.00,98.00 540.00,72.00 530.00,72.00" /><polygon fill="#053699" points="540.00,98.00 550.00,98.00 550.00,72.00 540.00,72.00" /><polygon fill="#310769" points="50.00,72.00 60.00,72.00 60.00,46.00 50.00,46.00" /><polygon fill="#5f004a" points="60.00,72.00 70.00,72.00 70.00,46.00 60.00,46.00" /><polygon fill="#920d2f" points="70.00,72.00 80.00,72.00 80.00,46.00 70.00,46.00" /><polygon fill="#c83216" points="80.00,72.00 90.00,72.00 90.00,46.00 80.00,46.00" /><polygon fill="#e85a09" points="90.00,72.00 100.00,72.00 100.00,46.00 90.00,46.00" /><polygon fill="#f16d05" points="100.00,72.00 110.00,72.00 110.00,46.00 100.00,46.00" /><polygon fill="#e85a09" points="110.00,72.00 120.00,72.00 120.00,46.00 110.00,46.00" /><polygon fill="#c83216" points="120.00,72.00 130.00,72.00 130.00,46.00 120.00,46.00" /><polygon fill="#920d2f" points="130.00,72.00 140.00,72.00 140.00,46.00 130.00,46.00" /><polygon fill="#5f004a" points="140.00,72.00 150.00,72.00 150.00,46.00 140.00,46.00" /><polygon fill="#310769" points="150.00,72.00 160.00,72.00 160.00,46.00 150.00,46.00" /><polygon fill="#121e85" points="160.00,72.00 170.00,72.00 170.00,46.00 160.00,46.00" /><polygon fill="#033b9d" points="170.00,72.00 180.00,72.00 180.00,46.00 170.00,46.00" /><polygon fill="#0052ad" points="180.00,72.00 190.00,72.00 190.00,46.00 180.00,46.00" /><polygon fill="#005fb4" points="190.00,72.00 200.00,72.00 200.00,46.00 190.00,46.00" /><polygon fill="#0052ad" points="200.00,72.00 210.00,72.00 210.00,46.00 200.00,46.00" /><polygon fill="#033b9d" points="210.00,72.00 220.00,72.00 220.00,46.00 210.00,46.00" /><polygon fill="#0f2289" points="220.00,72.00 230.00,72.00 230.00,46.00 220.00,46.00" /><polygon fill="#220f75" points="230.00,72.00 240.00,72.00 240.00,46.00 230.00,46.00" /><polygon fill="#310769" points="240.00,72.00 250.00,72.00 250.00,46.00 240.00,46.00" /><polygon fill="#310769" points="250.00,72.00 260.00,72.00 260.00,46.00 250.00,46.00" /><polygon fill="#310769" points="260.00,72.00 270.00,72.00 270.00,46.00 260.00,46.00" /><polygon fill="#310769" points="270.00,72.00 280.00,72.00 280.00,46.00 270.00,46.00" /><polygon fill="#310769" points="280.00,72.00 290.00,72.00 290.00,46.00 280.00,46.00" /><polygon fill="#310769" points="290.00,72.00 300.00,72.00 300.00,46.00 290.00,46.00" /><polygon fill="#310769" points="300.00,72.00 310.00,72.00 310.00,46.00 300.00,46.00" /><polygon fill="#310769" points="310.00,72.00 320.00,72.00 320.00,46.00 310.00,46.00" /><polygon fill="#310769" points="320.00,72.00 330.00,72.00 330.00,46.00 320.00,46.00" /><polygon fill="#310769" points="330.00,72.00 340.00,72.00 340.00,46.00 330.00,46.00" /><polygon fill="#310769" points="340.00,72.00 350.00,72.00 350.00,46.00 340.00,46.00" /><polygon fill="#310769" points="350.00,72.00 360.00,72.00 360.00,46.00 350.00,46.00" /><polygon fill="#360565" points="360.00,72.00 370.00,72.00 370.00,46.00 360.00,46.00" /><polygon fill="#41025d" points="370.00,72.00 380.00,72.00 380.00,46.00 370.00,46.00" /><polygon fill="#5f004a" points="380.00,72.00 390.00,72.00 390.00,46.00 380.00,46.00" /><polygon fill="#7f0638" points="390.00,72.00 400.00,72.00 400.00,46.00 390.00,46.00" /><polygon fill="#98102c" points="400.00,72.00 410.00,72.00 410.00,46.00 400.00,46.00" /><polygon fill="#a51726" points="410.00,72.00 420.00,72.00 420.00,46.00 410.00,46.00" /><polygon fill="#98102c" points="420.00,72.00 430.00,72.00 430.00,46.00 420.00,46.00" /><polygon fill="#7f0638" points="430.00,72.00 440.00,72.00 440.00,46.00 430.00,46.00" /><polygon fill="#58004e" points="440.00,72.00 450.00,72.00 450.00,46.00 440.00,46.00" /><polygon fill="#310769" points="450.00,72.00 460.00,72.00 460.00,46.00 450.00,46.00" /><polygon fill="#121e85" points="460.00,72.00 470.00,72.00 470.00,46.00 460.00,46.00" /><polygon fill="#004ca9" points="470.00,72.00 480.00,72.00 480.00,46.00 470.00,46.00" /><polygon fill="#0885c9" points="480.00,72.00 490.00,72.00 490.00,46.00 480.00,46.00" /><polygon fill="#1fb1de" points="490.00,72.00 500.00,72.00 500.00,46.00 490.00,46.00" /><polygon fill="#2dc2e6" points="500.00,72.00 510.00,72.00 510.00,46.00 500.00,46.00" /><polygon fill="#1fb1de" points="510.00,72.00 520.00,72.00 520.00,46.00 510.00,46.00" /><polygon fill="#0885c9" points="520.00,72.00 530.00,72.00 530.00,46.00 520.00,46.00" /><polygon fill="#004ca9" points="530.00,72.00 540.00,72.00 540.00,46.00 530.00,46.00" /><polygon fill="#121e85" points="540.00,72.00 550.00,72.00 550.00,46.00 540.00,46.00" /><polygon fill="#b11f20" points="50.00,46.00 60.00,46.00 60.00,20.00 50.00,20.00" /><polygon fill="#d74210" points="60.00,46.00 70.00,46.00 70.00,20.00 60.00,20.00" /><polygon fill="#f16d05" points="70.00,46.00 80.00,46.00 80.00,20.00 70.00,20.00" /><polygon fill="#fd9400" points="80.00,46.00 90.00,46.00 90.00,20.00 80.00,20.00" /><polygon fill="#ffa600" points="90.00,46.00 100.00,46.00 100.00,20.00 90.00,20.00" /><polygon fill="#fea000" points="100.00,46.00 110.00,46.00 110.00,20.00 100.00,20.00" /><polygon fill="#f77a03" points="110.00,46.00 120.00,46.00 120.00,20.00 110.00,20.00" /><polygon fill="#d74210" points="120.00,46.00 130.00,46.00 130.00,20.00 120.00,20.00" /><polygon fill="#98102c" points="130.00,46.00 140.00,46.00 140.00,20.00 130.00,20.00" /><polygon fill="#5f004a" points="140.00,46.00 150.00,46.00 150.00,20.00 140.00,20.00" /><polygon fill="#310769" points="150.00,46.00 160.00,46.00 160.00,20.00 150.00,20.00" /><polygon fill="#121e85" points="160.00,46.00 170.00,46.00 170.00,20.00 160.00,20.00" /><polygon fill="#053699" points="170.00,46.00 180.00,46.00 180.00,20.00 170.00,20.00" /><polygon fill="#0241a1" points="180.00,46.00 190.00,46.00 190.00,20.00 180.00,20.00" /><polygon fill="#053699" points="190.00,46.00 200.00,46.00 200.00,20.00 190.00,20.00" /><polygon fill="#0f2289" points="200.00,46.00 210.00,46.00 210.00,20.00 200.00,20.00" /><polygon fill="#2c0a6d" points="210.00,46.00 220.00,46.00 220.00,20.00 210.00,20.00" /><polygon fill="#58004e" points="220.00,46.00 230.00,46.00 230.00,20.00 220.00,20.00" /><polygon fill="#7f0638" points="230.00,46.00 240.00,46.00 240.00,20.00 230.00,20.00" /><polygon fill="#920d2f" points="240.00,46.00 250.00,46.00 250.00,20.00 240.00,20.00" /><polygon fill="#920d2f" points="250.00,46.00 260.00,46.00 260.00,20.00 250.00,20.00" /><polygon fill="#8c0a32" points="260.00,46.00 270.00,46.00 270.00,20.00 260.00,20.00" /><polygon fill="#850835" points="270.00,46.00 280.00,46.00 280.00,20.00 270.00,20.00" /><polygon fill="#7f0638" points="280.00,46.00 290.00,46.00 290.00,20.00 280.00,20.00" /><polygon fill="#78043c" points="290.00,46.00 300.00,46.00 300.00,20.00 290.00,20.00" /><polygon fill="#72023f" points="300.00,46.00 310.00,46.00 310.00,20.00 300.00,20.00" /><polygon fill="#72023f" points="310.00,46.00 320.00,46.00 320.00,20.00 310.00,20.00" /><polygon fill="#6b0143" points="320.00,46.00 330.00,46.00 330.00,20.00 320.00,20.00" /><polygon fill="#6b0143" points="330.00,46.00 340.00,46.00 340.00,20.00 330.00,20.00" /><polygon fill="#6b0143" points="340.00,46.00 350.00,46.00 350.00,20.00 340.00,20.00" /><polygon fill="#6b0143" points="350.00,46.00 360.00,46.00 360.00,20.00 350.00,20.00" /><polygon fill="#72023f" points="360.00,46.00 370.00,46.00 370.00,20.00 360.00,20.00" /><polygon fill="#850835" points="370.00,46.00 380.00,46.00 380.00,20.00 370.00,20.00" /><polygon fill="#a51726" points="380.00,46.00 390.00,46.00 390.00,20.00 380.00,20.00" /><polygon fill="#c83216" points="390.00,46.00 400.00,46.00 400.00,20.00 390.00,20.00" /><polygon fill="#e04e0c" points="400.00,46.00 410.00,46.00 410.00,20.00 400.00,20.00" /><polygon fill="#eb6007" points="410.00,46.00 420.00,46.00 420.00,20.00 410.00,20.00" /><polygon fill="#e85a09" points="420.00,46.00 430.00,46.00 430.00,20.00 420.00,20.00" /><polygon fill="#d74210" points="430.00,46.00 440.00,46.00 440.00,20.00 430.00,20.00" /><polygon fill="#b7231d" points="440.00,46.00 450.00,46.00 450.00,20.00 440.00,20.00" /><polygon fill="#920d2f" points="450.00,46.00 460.00,46.00 460.00,20.00 450.00,20.00" /><polygon fill="#5f004a" points="460.00,46.00 470.00,46.00 470.00,20.00 460.00,20.00" /><polygon fill="#2c0a6d" points="470.00,46.00 480.00,46.00 480.00,20.00 470.00,20.00" /><polygon fill="#073195" points="480.00,46.00 490.00,46.00 490.00,20.00 480.00,20.00" /><polygon fill="#0065b8" points="490.00,46.00 500.00,46.00 500.00,20.00 490.00,20.00" /><polygon fill="#067fc6" points="500.00,46.00 510.00,46.00 510.00,20.00 500.00,20.00" /><polygon fill="#0478c2" points="510.00,46.00 520.00,46.00 520.00,20.00 510.00,20.00" /><polygon fill="#0058b0" points="520.00,46.00 530.00,46.00 530.00,20.00 520.00,20.00" /><polygon fill="#0a2c91" points="530.00,46.00 540.00,46.00 540.00,20.00 530.00,20.00" /><polygon fill="#270c71" points="540.00,46.00 550.00,46.00 550.00,20.00 540.00,20.00" /></g><g stroke="black"><line x1="50.00" x2="50.00" y1="280.00" y2="290.00" /><line x1="150.00" x2="150.00" y1="280.00" y2="290.00" /><line x1="250.00" x2="250.00" y1="280.00" y2="290.00" /><line x1="350.00" x2="350.00" y1="280.00" y2="290.00" /><line x1="450.00" x2="450.00" y1="280.00" y2="290.00" /><line x1="550.00" x2="550.00" y1="280.00" y2="290.00" /><line x1="100.00" x2="100.00" y1="280.00" y2="285.00" /><line x1="200.00" x2="200.00" y1="280.00" y2="285.00" /><line x1="300.00" x2="300.00" y1="280.00" y2="285.00" /><line x1="400.00" x2="400.00" y1="280.00" y2="285.00" /><line x1="500.00" x2="500.00" y1="280.00" y2="285.00" /><g fill="black" font-family="Arial" font-size="10" stroke="none" text-anchor="middle"><text x="50.00" y="300.00">0.00</text><text x="150.00" y="300.00">10.00</text><text x="250.00" y="300.00">20.00</text><text x="350.00" y="300.00">30.00</text><text x="450.00" y="300.00">40.00</text><text x="550.00" y="300.00">50.00</text></g><line x1="50.00" x2="550.00" y1="280.00" y2="280.00" /></g><g stroke="black"><line x1="50.00" x2="40.00" y1="280.00" y2="280.00" /><line x1="50.00" x2="40.00" y1="254.00" y2="254.00" /><line x1="50.00" x2="40.00" y1="228.00" y2="228.00" /><line x1="50.00" x2="40.00" y1="202.00" y2="202.00" /><line x1="50.00" x2="40.00" y1="176.00" y2="176.00" /><line x1="50.00" x2="40.00" y1="150.00" y2="150.00" /><line x1="50.00" x2="40.00" y1="124.00" y2="124.00" /><line x1="50.00" x2="40.00" y1="98.00" y2="98.00" /><line x1="50.00" x2="40.00" y1="72.00" y2="72.00" /><line x1="50.00" x2="40.00" y1="46.00" y2="46.00" /><line x1="50.00" x2="40.00" y1="20.00" y2="20.00" /><g fill="black" font-family="Arial" font-size="10" stroke="none" text-anchor="end"><text x="35.00" y="280.00">0.00</text><text x="35.00" y="254.00">1.00</text><text x="35.00" y="228.00">2.00</text><text x="35.00" y="202.00">3.00</text><text x="35.00" y="176.00">4.00</text><text x="35.00" y="150.00">5.00</text><text x="35.00" y="124.00">6.00</text><text x="35.00" y="98.00">7.00</text><text x="35.00" y="72.00">8.00</text><text x="35.00" y="46.00">9.00</text><text x="35.00" y="20.00">10.00</text></g><line x1="50.00" x2="50.00" y1="280.00" y2="20.00" /></g></g></svg>