<?xml version="1.0"?>
<svg height="300" version="1.1" width="600" xmlns:xlink="http://www.w3.org/1999/xlink" xmlns="http://www.w3.org/2000/svg"><g><g><polygon fill="#009cff" points="50.00,280.00 60.00,280.00 60.00,254.00 50.00,254.00" /><polygon fill="#1047ff" points="60.00,280.00 70.00,280.00 70.00,254.00 60.00,254.00" /><polygon fill="#5c00ff" points="70.00,280.00 80.00,280.00 80.00,254.00 70.00,254.00" /><polygon fill="#bc00ea" points="80.00,280.00 90.00,280.00 90.00,254.00 80.00,254.00" /><polygon fill="#fa00a7" points="90.00,280.00 100.00,280.00 100.00,254.00 90.00,254.00" /><polygon fill="#ff0087" points="100.00,280.00 110.00,280.00 110.00,254.00 100.00,254.00" /><polygon fill="#fa00a7" points="110.00,280.00 120.00,280.00 120.00,254.00 110.00,254.00" /><polygon fill="#bc00ea" points="120.00,280.00 130.00,280.00 130.00,254.00 120.00,254.00" /><polygon fill="#5c00ff" points="130.00,280.00 140.00,280.00 140.00,254.00 130.00,254.00" /><polygon fill="#1047ff" points="140.00,280.00 150.00,280.00 150.00,254.00 140.00,254.00" /><polygon fill="#009cff" points="150.00,280.00 160.00,280.00 160.00,254.00 150.00,254.00" /><polygon fill="#00e1c6" points="160.00,280.00 170.00,280.00 170.00,254.00 160.00,254.00" /><polygon fill="#00ff67" points="170.00,280.00 180.00,280.00 180.00,254.00 170.00,254.00" /><polygon fill="#47ff10" points="180.00,280.00 190.00,280.00 190.00,254.00 180.00,254.00" /><polygon fill="#92ff00" points="190.00,280.00 200.00,280.00 200.00,254.00 190.00,254.00" /><polygon fill="#b1f200" points="200.00,280.00 210.00,280.00 210.00,254.00 200.00,254.00" /><polygon fill="#92ff00" points="210.00,280.00 220.00,280.00 220.00,254.00 210.00,254.00" /><polygon fill="#47ff10" points="220.00,280.00 230.00,280.00 230.00,254.00 220.00,254.00" /><polygon fill="#00ff67" points="230.00,280.00 240.00,280.00 240.00,254.00 230.00,254.00" /><polygon fill="#00e1c6" points="240.00,280.00 250.00,280.00 250.00,254.00 240.00,254.00" /><polygon fill="#009cff" points="250.00,280.00 260.00,280.00 260.00,254.00 250.00,254.00" /><polygon fill="#1047ff" points="260.00,280.00 270.00,280.00 270.00,254.00 260.00,254.00" /><polygon fill="#5c00ff" points="270.00,280.00 280.00,280.00 280.00,254.00 270.00,254.00" /><polygon fill="#bc00ea" points="280.00,280.00 290.00,280.00 290.00,254.00 280.00,254.00" /><polygon fill="#fa00a7" points="290.00,280.00 300.00,280.00 300.00,254.00 290.00,254.00" /><polygon fill="#ff0087" points="300.00,280.00 310.00,280.00 310.00,254.00 300.00,254.00" /><polygon fill="#fa00a7" points="310.00,280.00 320.00,280.00 320.00,254.00 310.00,254.00" /><polygon fill="#bc00ea" points="320.00,280.00 330.00,280.00 330.00,254.00 320.00,254.00" /><polygon fill="#5c00ff" points="330.00,280.00 340.00,280.00 340.00,254.00 330.00,254.00" /><polygon fill="#1047ff" points="340.00,280.00 350.00,280.00 350.00,254.00 340.00,254.00" /><polygon fill="#009cff" points="350.00,280.00 360.00,280.00 360.00,254.00 350.00,254.00" /><polygon fill="#00e1c6" points="360.00,280.00 370.00,280.00 370.00,254.00 360.00,254.00" /><polygon fill="#00ff87" points="370.00,280.00 380.00,280.00 380.00,254.00 370.00,254.00" /><polygon fill="#00ff5c" points="380.00,280.00 390.00,280.00 390.00,254.00 380.00,254.00" /><polygon fill="#10ff48" points="390.00,280.00 400.00,280.00 400.00,254.00 390.00,254.00" /><polygon fill="#00ff5c" points="400.00,280.00 410.00,280.00 410.00,254.00 400.00,254.00" /><polygon fill="#00ff87" points="410.00,280.00 420.00,280.00 420.00,254.00 410.00,254.00" /><polygon fill="#00eabc" points="420.00,280.00 430.00,280.00 430.00,254.00 420.00,254.00" /><polygon fill="#00bcea" points="430.00,280.00 440.00,280.00 440.00,254.00 430.00,254.00" /><polygon fill="#009cff" points="440.00,280.00 450.00,280.00 450.00,254.00 440.00,254.00" /><polygon fill="#009cff" points="450.00,280.00 460.00,280.00 460.00,254.00 450.00,254.00" /><polygon fill="#009cff" points="460.00,280.00 470.00,280.00 470.00,254.00 460.00,254.00" /><polygon fill="#009cff" points="470.00,280.00 480.00,280.00 480.00,254.00 470.00,254.00" /><polygon fill="#009cff" points="480.00,280.00 490.00,280.00 490.00,254.00 480.00,254.00" /><polygon fill="#009cff" points="490.00,280.00 500.00,280.00 500.00,254.00 490.00,254.00" /><polygon fill="#009cff" points="500.00,280.00 510.00,280.00 510.00,254.00 500.00,254.00" /><polygon fill="#009cff" points="510.00,280.00 520.00,280.00 520.00,254.00 510.00,254.00" /><polygon fill="#009cff" points="520.00,280.00 530.00,280.00 530.00,254.00 520.00,254.00" /><polygon fill="#009cff" points="530.00,280.00 540.00,280.00 540.00,254.00 530.00,254.00" /><polygon fill="#009cff" points="540.00,280.00 550.00,280.00 550.00,254.00 540.00,254.00" /><polygon fill="#00ff72" points="50.00,254.00 60.00,254.00 60.00,228.00 50.00,228.00" /><polygon fill="#00eabc" points="60.00,254.00 70.00,254.00 70.00,228.00 60.00,228.00" /><polygon fill="#0087ff" points="70.00,254.00 80.00,254.00 80.00,228.00 70.00,228.00" /><polygon fill="#3421ff" points="80.00,254.00 90.00,254.00 90.00,228.00 80.00,228.00" /><polygon fill="#9c00ff" points="90.00,254.00 100.00,254.00 100.00,228.00 90.00,228.00" /><polygon fill="#d900cf" points="100.00,254.00 110.00,254.00 110.00,228.00 100.00,228.00" /><polygon fill="#e200c5" points="110.00,254.00 120.00,254.00 120.00,228.00 110.00,228.00" /><polygon fill="#c600e1" points="120.00,254.00 130.00,254.00 130.00,228.00 120.00,228.00" /><polygon fill="#7c00ff" points="130.00,254.00 140.00,254.00 140.00,228.00 130.00,228.00" /><polygon fill="#3421ff" points="140.00,254.00 150.00,254.00 150.00,228.00 140.00,228.00" /><polygon fill="#0067ff" points="150.00,254.00 160.00,254.00 160.00,228.00 150.00,228.00" /><polygon fill="#00a7fa" points="160.00,254.00 170.00,254.00 170.00,228.00 160.00,228.00" /><polygon fill="#00faa7" points="170.00,254.00 180.00,254.00 180.00,228.00 170.00,228.00" /><polygon fill="#18ff3d" points="180.00,254.00 190.00,254.00 190.00,228.00 180.00,228.00" /><polygon fill="#67ff00" points="190.00,254.00 200.00,254.00 200.00,228.00 190.00,228.00" /><polygon fill="#9cff00" points="200.00,254.00 210.00,254.00 210.00,228.00 200.00,228.00" /><polygon fill="#a7fa00" points="210.00,254.00 220.00,254.00 220.00,228.00 210.00,228.00" /><polygon fill="#7cff00" points="220.00,254.00 230.00,254.00 230.00,228.00 220.00,228.00" /><polygon fill="#3dff18" points="230.00,254.00 240.00,254.00 240.00,228.00 230.00,228.00" /><polygon fill="#00ff5c" points="240.00,254.00 250.00,254.00 250.00,228.00 240.00,228.00" /><polygon fill="#00faa7" points="250.00,254.00 260.00,254.00 260.00,228.00 250.00,228.00" /><polygon fill="#00bcea" points="260.00,254.00 270.00,254.00 270.00,228.00 260.00,228.00" /><polygon fill="#0072ff" points="270.00,254.00 280.00,254.00 280.00,228.00 270.00,228.00" /><polygon fill="#3421ff" points="280.00,254.00 290.00,254.00 290.00,228.00 280.00,228.00" /><polygon fill="#6700ff" points="290.00,254.00 300.00,254.00 300.00,228.00 290.00,228.00" /><polygon fill="#6700ff" points="300.00,254.00 310.00,254.00 310.00,228.00 300.00,228.00" /><polygon fill="#3d18ff" points="310.00,254.00 320.00,254.00 320.00,228.00 310.00,228.00" /><polygon fill="#0067ff" points="320.00,254.00 330.00,254.00 330.00,228.00 320.00,228.00" /><polygon fill="#00c6e2" points="330.00,254.00 340.00,254.00 340.00,228.00 330.00,228.00" /><polygon fill="#00ff87" points="340.00,254.00 350.00,254.00 350.00,228.00 340.00,228.00" /><polygon fill="#21ff34" points="350.00,254.00 360.00,254.00 360.00,228.00 350.00,228.00" /><polygon fill="#5cff00" points="360.00,254.00 370.00,254.00 370.00,228.00 360.00,228.00" /><polygon fill="#9cff00" points="370.00,254.00 380.00,254.00 380.00,228.00 370.00,228.00" /><polygon fill="#bcea00" points="380.00,254.00 390.00,254.00 390.00,228.00 380.00,228.00" /><polygon fill="#b1f200" points="390.00,254.00 400.00,254.00 400.00,228.00 390.00,228.00" /><polygon fill="#87ff00" points="400.00,254.00 410.00,254.00 410.00,228.00 400.00,228.00" /><polygon fill="#47ff10" points="410.00,254.00 420.00,254.00 420.00,228.00 410.00,228.00" /><polygon fill="#08ff52" points="420.00,254.00 430.00,254.00 430.00,228.00 420.00,228.00" /><polygon fill="#00ff87" points="430.00,254.00 440.00,254.00 440.00,228.00 430.00,228.00" /><polygon fill="#00faa7" points="440.00,254.00 450.00,254.00 450.00,228.00 440.00,228.00" /><polygon fill="#00faa7" points="450.00,254.00 460.00,254.00 460.00,228.00 450.00,228.00" /><polygon fill="#00faa7" points="460.00,254.00 470.00,254.00 470.00,228.00 460.00,228.00" /><polygon fill="#00faa7" points="470.00,254.00 480.00,254.00 480.00,228.00 470.00,228.00" /><polygon fill="#00e1c6" points="480.00,254.00 490.00,254.00 490.00,228.00 480.00,228.00" /><polygon fill="#00b1f2" points="490.00,254.00 500.00,254.00 500.00,228.00 490.00,228.00" /><polygon fill="#0072ff" points="500.00,254.00 510.00,254.00 510.00,228.00 500.00,228.00" /><polygon fill="#2134ff" points="510.00,254.00 520.00,254.00 520.00,228.00 510.00,228.00" /><polygon fill="#5208ff" points="520.00,254.00 530.00,254.00 530.00,228.00 520.00,228.00" /><polygon fill="#7c00ff" points="530.00,254.00 540.00,254.00 540.00,228.00 530.00,228.00" /><polygon fill="#9200ff" points="540.00,254.00 550.00,254.00 550.00,228.00 540.00,228.00" /><polygon fill="#00ff5c" points="50.00,228.00 60.00,228.00 60.00,202.00 50.00,202.00" /><polygon fill="#00faa7" points="60.00,228.00 70.00,228.00 70.00,202.00 60.00,202.00" /><polygon fill="#00a7fa" points="70.00,228.00 80.00,228.00 80.00,202.00 70.00,202.00" /><polygon fill="#2134ff" points="80.00,228.00 90.00,228.00 90.00,202.00 80.00,202.00" /><polygon fill="#7c00ff" points="90.00,228.00 100.00,228.00 100.00,202.00 90.00,202.00" /><polygon fill="#c600e1" points="100.00,228.00 110.00,228.00 110.00,202.00 100.00,202.00" /><polygon fill="#e200c5" points="110.00,228.00 120.00,228.00 120.00,202.00 110.00,202.00" /><polygon fill="#d900cf" points="120.00,228.00 130.00,228.00 130.00,202.00 120.00,202.00" /><polygon fill="#bc00ea" points="130.00,228.00 140.00,228.00 140.00,202.00 130.00,202.00" /><polygon fill="#9200ff" points="140.00,228.00 150.00,228.00 150.00,202.00 140.00,202.00" /><polygon fill="#6700ff" points="150.00,228.00 160.00,228.00 160.00,202.00 150.00,202.00" /><polygon fill="#4710ff" points="160.00,228.00 170.00,228.00 170.00,202.00 160.00,202.00" /><polygon fill="#1047ff" points="170.00,228.00 180.00,228.00 180.00,202.00 170.00,202.00" /><polygon fill="#0087ff" points="180.00,228.00 190.00,228.00 190.00,202.00 180.00,202.00" /><polygon fill="#00c6e2" points="190.00,228.00 200.00,228.00 200.00,202.00 190.00,202.00" /><polygon fill="#00f2b1" points="200.00,228.00 210.00,228.00 210.00,202.00 200.00,202.00" /><polygon fill="#00faa7" points="210.00,228.00 220.00,228.00 220.00,202.00 210.00,202.00" /><polygon fill="#00faa7" points="220.00,228.00 230.00,228.00 230.00,202.00 220.00,202.00" /><polygon fill="#00e1c6" points="230.00,228.00 240.00,228.00 240.00,202.00 230.00,202.00" /><polygon fill="#00bcea" points="240.00,228.00 250.00,228.00 250.00,202.00 240.00,202.00" /><polygon fill="#009cff" points="250.00,228.00 260.00,228.00 260.00,202.00 250.00,202.00" /><polygon fill="#0072ff" points="260.00,228.00 270.00,228.00 270.00,202.00 260.00,202.00" /><polygon fill="#1047ff" points="270.00,228.00 280.00,228.00 280.00,202.00 270.00,202.00" /><polygon fill="#2a2aff" points="280.00,228.00 290.00,228.00 290.00,202.00 280.00,202.00" /><polygon fill="#3421ff" points="290.00,228.00 300.00,228.00 300.00,202.00 290.00,202.00" /><polygon fill="#183dff" points="300.00,228.00 310.00,228.00 310.00,202.00 300.00,202.00" /><polygon fill="#0087ff" points="310.00,228.00 320.00,228.00 320.00,202.00 310.00,202.00" /><polygon fill="#00eabc" points="320.00,228.00 330.00,228.00 330.00,202.00 320.00,202.00" /><polygon fill="#08ff52" points="330.00,228.00 340.00,228.00 340.00,202.00 330.00,202.00" /><polygon fill="#5cff00" points="340.00,228.00 350.00,228.00 350.00,202.00 340.00,202.00" /><polygon fill="#b1f200" points="350.00,228.00 360.00,228.00 360.00,202.00 350.00,202.00" /><polygon fill="#eabc00" points="360.00,228.00 370.00,228.00 370.00,202.00 360.00,202.00" /><polygon fill="#ff9d00" points="370.00,228.00 380.00,228.00 380.00,202.00 370.00,202.00" /><polygon fill="#f2b100" points="380.00,228.00 390.00,228.00 390.00,202.00 380.00,202.00" /><polygon fill="#bcea00" points="390.00,228.00 400.00,228.00 400.00,202.00 390.00,202.00" /><polygon fill="#52ff08" points="400.00,228.00 410.00,228.00 410.00,202.00 400.00,202.00" /><polygon fill="#00ff72" points="410.00,228.00 420.00,228.00 420.00,202.00 410.00,202.00" /><polygon fill="#00cfd9" points="420.00,228.00 430.00,228.00 430.00,202.00 420.00,202.00" /><polygon fill="#0092ff" points="430.00,228.00 440.00,228.00 440.00,202.00 430.00,202.00" /><polygon fill="#007cff" points="440.00,228.00 450.00,228.00 450.00,202.00 440.00,202.00" /><polygon fill="#009cff" points="450.00,228.00 460.00,228.00 460.00,202.00 450.00,202.00" /><polygon fill="#00bcea" points="460.00,228.00 470.00,228.00 470.00,202.00 460.00,202.00" /><polygon fill="#00c6e2" points="470.00,228.00 480.00,228.00 480.00,202.00 470.00,202.00" /><polygon fill="#00bcea" points="480.00,228.00 490.00,228.00 490.00,202.00 480.00,202.00" /><polygon fill="#0087ff" points="490.00,228.00 500.00,228.00 500.00,202.00 490.00,202.00" /><polygon fill="#183dff" points="500.00,228.00 510.00,228.00 510.00,202.00 500.00,202.00" /><polygon fill="#6700ff" points="510.00,228.00 520.00,228.00 520.00,202.00 510.00,202.00" /><polygon fill="#bc00ea" points="520.00,228.00 530.00,228.00 530.00,202.00 520.00,202.00" /><polygon fill="#f200b1" points="530.00,228.00 540.00,228.00 540.00,202.00 530.00,202.00" /><polygon fill="#ff0092" points="540.00,228.00 550.00,228.00 550.00,202.00 540.00,202.00" /><polygon fill="#00cfd9" points="50.00,202.00 60.00,202.00 60.00,176.00 50.00,176.00" /><polygon fill="#0087ff" points="60.00,202.00 70.00,202.00 70.00,176.00 60.00,176.00" /><polygon fill="#183dff" points="70.00,202.00 80.00,202.00 80.00,176.00 70.00,176.00" /><polygon fill="#5c00ff" points="80.00,202.00 90.00,202.00 90.00,176.00 80.00,176.00" /><polygon fill="#9c00ff" points="90.00,202.00 100.00,202.00 100.00,176.00 90.00,176.00" /><polygon fill="#b100f2" points="100.00,202.00 110.00,202.00 110.00,176.00 100.00,176.00" /><polygon fill="#b100f2" points="110.00,202.00 120.00,202.00 120.00,176.00 110.00,176.00" /><polygon fill="#9c00ff" points="120.00,202.00 130.00,202.00 130.00,176.00 120.00,176.00" /><polygon fill="#7c00ff" points="130.00,202.00 140.00,202.00 140.00,176.00 130.00,176.00" /><polygon fill="#6700ff" points="140.00,202.00 150.00,202.00 150.00,176.00 140.00,176.00" /><polygon fill="#5c00ff" points="150.00,202.00 160.00,202.00 160.00,176.00 150.00,176.00" /><polygon fill="#5208ff" points="160.00,202.00 170.00,202.00 170.00,176.00 160.00,176.00" /><polygon fill="#4710ff" points="170.00,202.00 180.00,202.00 180.00,176.00 170.00,176.00" /><polygon fill="#3421ff" points="180.00,202.00 190.00,202.00 190.00,176.00 180.00,176.00" /><polygon fill="#2a2aff" points="190.00,202.00 200.00,202.00 200.00,176.00 190.00,176.00" /><polygon fill="#183dff" points="200.00,202.00 210.00,202.00 210.00,176.00 200.00,176.00" /><polygon fill="#183dff" points="210.00,202.00 220.00,202.00 220.00,176.00 210.00,176.00" /><polygon fill="#183dff" points="220.00,202.00 230.00,202.00 230.00,176.00 220.00,176.00" /><polygon fill="#183dff" points="230.00,202.00 240.00,202.00 240.00,176.00 230.00,176.00" /><polygon fill="#2134ff" points="240.00,202.00 250.00,202.00 250.00,176.00 240.00,176.00" /><polygon fill="#2134ff" points="250.00,202.00 260.00,202.00 260.00,176.00 250.00,176.00" /><polygon fill="#2a2aff" points="260.00,202.00 270.00,202.00 270.00,176.00 260.00,176.00" /><polygon fill="#3d18ff" points="270.00,202.00 280.00,202.00 280.00,176.00 270.00,176.00" /><polygon fill="#5208ff" points="280.00,202.00 290.00,202.00 290.00,176.00 280.00,176.00" /><polygon fill="#5c00ff" points="290.00,202.00 300.00,202.00 300.00,176.00 290.00,176.00" /><polygon fill="#4710ff" points="300.00,202.00 310.00,202.00 310.00,176.00 300.00,176.00" /><polygon fill="#183dff" points="310.00,202.00 320.00,202.00 320.00,176.00 310.00,176.00" /><polygon fill="#0087ff" points="320.00,202.00 330.00,202.00 330.00,176.00 320.00,176.00" /><polygon fill="#00d9cf" points="330.00,202.00 340.00,202.00 340.00,176.00 330.00,176.00" /><polygon fill="#00ff7c" points="340.00,202.00 350.00,202.00 350.00,176.00 340.00,176.00" /><polygon fill="#21ff34" points="350.00,202.00 360.00,202.00 360.00,176.00 350.00,176.00" /><polygon fill="#5cff00" points="360.00,202.00 370.00,202.00 370.00,176.00 360.00,176.00" /><polygon fill="#72ff00" points="370.00,202.00 380.00,202.00 380.00,176.00 370.00,176.00" /><polygon fill="#52ff08" points="380.00,202.00 390.00,202.00 390.00,176.00 380.00,176.00" /><polygon fill="#08ff52" points="390.00,202.00 400.00,202.00 400.00,176.00 390.00,176.00" /><polygon fill="#00e1c6" points="400.00,202.00 410.00,202.00 410.00,176.00 400.00,176.00" /><polygon fill="#0072ff" points="410.00,202.00 420.00,202.00 420.00,176.00 410.00,176.00" /><polygon fill="#3d18ff" points="420.00,202.00 430.00,202.00 430.00,176.00 420.00,176.00" /><polygon fill="#6700ff" points="430.00,202.00 440.00,202.00 440.00,176.00 430.00,176.00" /><polygon fill="#5c00ff" points="440.00,202.00 450.00,202.00 450.00,176.00 440.00,176.00" /><polygon fill="#2134ff" points="450.00,202.00 460.00,202.00 460.00,176.00 450.00,176.00" /><polygon fill="#0072ff" points="460.00,202.00 470.00,202.00 470.00,176.00 460.00,176.00" /><polygon fill="#00a7fa" points="470.00,202.00 480.00,202.00 480.00,176.00 470.00,176.00" /><polygon fill="#00c6e2" points="480.00,202.00 490.00,202.00 490.00,176.00 480.00,176.00" /><polygon fill="#00bcea" points="490.00,202.00 500.00,202.00 500.00,176.00 490.00,176.00" /><polygon fill="#009cff" points="500.00,202.00 510.00,202.00 510.00,176.00 500.00,176.00" /><polygon fill="#005cff" points="510.00,202.00 520.00,202.00 520.00,176.00 510.00,176.00" /><polygon fill="#3421ff" points="520.00,202.00 530.00,202.00 530.00,176.00 520.00,176.00" /><polygon fill="#7200ff" points="530.00,202.00 540.00,202.00 540.00,176.00 530.00,176.00" /><polygon fill="#8700ff" points="540.00,202.00 550.00,202.00 550.00,176.00 540.00,176.00" /><polygon fill="#009cff" points="50.00,176.00 60.00,176.00 60.00,150.00 50.00,150.00" /><polygon fill="#0852ff" points="60.00,176.00 70.00,176.00 70.00,150.00 60.00,150.00" /><polygon fill="#3d18ff" points="70.00,176.00 80.00,176.00 80.00,150.00 70.00,150.00" /><polygon fill="#6700ff" points="80.00,176.00 90.00,176.00 90.00,150.00 80.00,150.00" /><polygon fill="#7c00ff" points="90.00,176.00 100.00,176.00 100.00,150.00 90.00,150.00" /><polygon fill="#6700ff" points="100.00,176.00 110.00,176.00 110.00,150.00 100.00,150.00" /><polygon fill="#3d18ff" points="110.00,176.00 120.00,176.00 120.00,150.00 110.00,150.00" /><polygon fill="#1047ff" points="120.00,176.00 130.00,176.00 130.00,150.00 120.00,150.00" /><polygon fill="#007cff" points="130.00,176.00 140.00,176.00 140.00,150.00 130.00,150.00" /><polygon fill="#0092ff" points="140.00,176.00 150.00,176.00 150.00,150.00 140.00,150.00" /><polygon fill="#009cff" points="150.00,176.00 160.00,176.00 160.00,150.00 150.00,150.00" /><polygon fill="#009cff" points="160.00,176.00 170.00,176.00 170.00,150.00 160.00,150.00" /><polygon fill="#009cff" points="170.00,176.00 180.00,176.00 180.00,150.00 170.00,150.00" /><polygon fill="#009cff" points="180.00,176.00 190.00,176.00 190.00,150.00 180.00,150.00" /><polygon fill="#009cff" points="190.00,176.00 200.00,176.00 200.00,150.00 190.00,150.00" /><polygon fill="#009cff" points="200.00,176.00 210.00,176.00 210.00,150.00 200.00,150.00" /><polygon fill="#009cff" points="210.00,176.00 220.00,176.00 220.00,150.00 210.00,150.00" /><polygon fill="#009cff" points="220.00,176.00 230.00,176.00 230.00,150.00 220.00,150.00" /><polygon fill="#009cff" points="230.00,176.00 240.00,176.00 240.00,150.00 230.00,150.00" /><polygon fill="#009cff" points="240.00,176.00 250.00,176.00 250.00,150.00 240.00,150.00" /><polygon fill="#009cff" points="250.00,176.00 260.00,176.00 260.00,150.00 250.00,150.00" /><polygon fill="#0092ff" points="260.00,176.00 270.00,176.00 270.00,150.00 260.00,150.00" /><polygon fill="#007cff" points="270.00,176.00 280.00,176.00 280.00,150.00 270.00,150.00" /><polygon fill="#1047ff" points="280.00,176.00 290.00,176.00 290.00,150.00 280.00,150.00" /><polygon fill="#3d18ff" points="290.00,176.00 300.00,176.00 300.00,150.00 290.00,150.00" /><polygon fill="#6700ff" points="300.00,176.00 310.00,176.00 310.00,150.00 300.00,150.00" /><polygon fill="#7c00ff" points="310.00,176.00 320.00,176.00 320.00,150.00 310.00,150.00" /><polygon fill="#6700ff" points="320.00,176.00 330.00,176.00 330.00,150.00 320.00,150.00" /><polygon fill="#3d18ff" points="330.00,176.00 340.00,176.00 340.00,150.00 330.00,150.00" /><polygon fill="#0852ff" points="340.00,176.00 350.00,176.00 350.00,150.00 340.00,150.00" /><polygon fill="#009cff" points="350.00,176.00 360.00,176.00 360.00,150.00 350.00,150.00" /><polygon fill="#00d9cf" points="360.00,176.00 370.00,176.00 370.00,150.00 360.00,150.00" /><polygon fill="#00faa7" points="370.00,176.00 380.00,176.00 380.00,150.00 370.00,150.00" /><polygon fill="#00f2b1" points="380.00,176.00 390.00,176.00 390.00,150.00 380.00,150.00" /><polygon fill="#00d9cf" points="390.00,176.00 400.00,176.00 400.00,150.00 390.00,150.00" /><polygon fill="#009cff" points="400.00,176.00 410.00,176.00 410.00,150.00 400.00,150.00" /><polygon fill="#005cff" points="410.00,176.00 420.00,176.00 420.00,150.00 410.00,150.00" /><polygon fill="#2134ff" points="420.00,176.00 430.00,176.00 430.00,150.00 420.00,150.00" /><polygon fill="#2134ff" points="430.00,176.00 440.00,176.00 440.00,150.00 430.00,150.00" /><polygon fill="#005cff" points="440.00,176.00 450.00,176.00 450.00,150.00 440.00,150.00" /><polygon fill="#009cff" points="450.00,176.00 460.00,176.00 460.00,150.00 450.00,150.00" /><polygon fill="#00e1c6" points="460.00,176.00 470.00,176.00 470.00,150.00 460.00,150.00" /><polygon fill="#00ff87" points="470.00,176.00 480.00,176.00 480.00,150.00 470.00,150.00" /><polygon fill="#00ff5c" points="480.00,176.00 490.00,176.00 490.00,150.00 480.00,150.00" /><polygon fill="#10ff48" points="490.00,176.00 500.00,176.00 500.00,150.00 490.00,150.00" /><polygon fill="#00ff5c" points="500.00,176.00 510.00,176.00 510.00,150.00 500.00,150.00" /><polygon fill="#00ff87" points="510.00,176.00 520.00,176.00 520.00,150.00 510.00,150.00" /><polygon fill="#00eabc" points="520.00,176.00 530.00,176.00 530.00,150.00 520.00,150.00" /><polygon fill="#00bcea" points="530.00,176.00 540.00,176.00 540.00,150.00 530.00,150.00" /><polygon fill="#009cff" points="540.00,176.00 550.00,176.00 550.00,150.00 540.00,150.00" /><polygon fill="#00cfd9" points="50.00,150.00 60.00,150.00 60.00,124.00 50.00,124.00" /><polygon fill="#0087ff" points="60.00,150.00 70.00,150.00 70.00,124.00 60.00,124.00" /><polygon fill="#1047ff" points="70.00,150.00 80.00,150.00 80.00,124.00 70.00,124.00" /><polygon fill="#2a2aff" points="80.00,150.00 90.00,150.00 90.00,124.00 80.00,124.00" /><polygon fill="#3421ff" points="90.00,150.00 100.00,150.00 100.00,124.00 90.00,124.00" /><polygon fill="#183dff" points="100.00,150.00 110.00,150.00 110.00,124.00 100.00,124.00" /><polygon fill="#007cff" points="110.00,150.00 120.00,150.00 120.00,124.00 110.00,124.00" /><polygon fill="#00c6e2" points="120.00,150.00 130.00,150.00 130.00,124.00 120.00,124.00" /><polygon fill="#00faa7" points="130.00,150.00 140.00,150.00 140.00,124.00 130.00,124.00" /><polygon fill="#00ff7c" points="140.00,150.00 150.00,150.00 150.00,124.00 140.00,124.00" /><polygon fill="#00ff72" points="150.00,150.00 160.00,150.00 160.00,124.00 150.00,124.00" /><polygon fill="#00ff67" points="160.00,150.00 170.00,150.00 170.00,124.00 160.00,124.00" /><polygon fill="#00ff5c" points="170.00,150.00 180.00,150.00 180.00,124.00 170.00,124.00" /><polygon fill="#08ff52" points="180.00,150.00 190.00,150.00 190.00,124.00 180.00,124.00" /><polygon fill="#10ff48" points="190.00,150.00 200.00,150.00 200.00,124.00 190.00,124.00" /><polygon fill="#18ff3d" points="200.00,150.00 210.00,150.00 210.00,124.00 200.00,124.00" /><polygon fill="#18ff3d" points="210.00,150.00 220.00,150.00 220.00,124.00 210.00,124.00" /><polygon fill="#21ff34" points="220.00,150.00 230.00,150.00 230.00,124.00 220.00,124.00" /><polygon fill="#21ff34" points="230.00,150.00 240.00,150.00 240.00,124.00 230.00,124.00" /><polygon fill="#21ff34" points="240.00,150.00 250.00,150.00 250.00,124.00 240.00,124.00" /><polygon fill="#21ff34" points="250.00,150.00 260.00,150.00 260.00,124.00 250.00,124.00" /><polygon fill="#18ff3d" points="260.00,150.00 270.00,150.00 270.00,124.00 260.00,124.00" /><polygon fill="#00ff67" points="270.00,150.00 280.00,150.00 280.00,124.00 270.00,124.00" /><polygon fill="#00f2b1" points="280.00,150.00 290.00,150.00 290.00,124.00 280.00,124.00" /><polygon fill="#0092ff" points="290.00,150.00 300.00,150.00 300.00,124.00 290.00,124.00" /><polygon fill="#2134ff" points="300.00,150.00 310.00,150.00 310.00,124.00 300.00,124.00" /><polygon fill="#6700ff" points="310.00,150.00 320.00,150.00 320.00,124.00 310.00,124.00" /><polygon fill="#9200ff" points="320.00,150.00 330.00,150.00 330.00,124.00 320.00,124.00" /><polygon fill="#8700ff" points="330.00,150.00 340.00,150.00 340.00,124.00 330.00,124.00" /><polygon fill="#5c00ff" points="340.00,150.00 350.00,150.00 350.00,124.00 340.00,124.00" /><polygon fill="#2134ff" points="350.00,150.00 360.00,150.00 360.00,124.00 350.00,124.00" /><polygon fill="#0072ff" points="360.00,150.00 370.00,150.00 370.00,124.00 360.00,124.00" /><polygon fill="#009cff" points="370.00,150.00 380.00,150.00 380.00,124.00 370.00,124.00" /><polygon fill="#00b1f2" points="380.00,150.00 390.00,150.00 390.00,124.00 380.00,124.00" /><polygon fill="#00bcea" points="390.00,150.00 400.00,150.00 400.00,124.00 390.00,124.00" /><polygon fill="#00bcea" points="400.00,150.00 410.00,150.00 410.00,124.00 400.00,124.00" /><polygon fill="#00c6e2" points="410.00,150.00 420.00,150.00 420.00,124.00 410.00,124.00" /><polygon fill="#00cfd9" points="420.00,150.00 430.00,150.00 430.00,124.00 420.00,124.00" /><polygon fill="#00f2b1" points="430.00,150.00 440.00,150.00 440.00,124.00 430.00,124.00" /><polygon fill="#00ff7c" points="440.00,150.00 450.00,150.00 450.00,124.00 440.00,124.00" /><polygon fill="#21ff34" points="450.00,150.00 460.00,150.00 460.00,124.00 450.00,124.00" /><polygon fill="#67ff00" points="460.00,150.00 470.00,150.00 470.00,124.00 460.00,124.00" /><polygon fill="#a7fa00" points="470.00,150.00 480.00,150.00 480.00,124.00 470.00,124.00" /><polygon fill="#cfd900" points="480.00,150.00 490.00,150.00 490.00,124.00 480.00,124.00" /><polygon fill="#d9cf00" points="490.00,150.00 500.00,150.00 500.00,124.00 490.00,124.00" /><polygon fill="#c6e200" points="500.00,150.00 510.00,150.00 510.00,124.00 500.00,124.00" /><polygon fill="#92ff00" points="510.00,150.00 520.00,150.00 520.00,124.00 510.00,124.00" /><polygon fill="#52ff08" points="520.00,150.00 530.00,150.00 530.00,124.00 520.00,124.00" /><polygon fill="#18ff3d" points="530.00,150.00 540.00,150.00 540.00,124.00 530.00,124.00" /><polygon fill="#00ff5c" points="540.00,150.00 550.00,150.00 550.00,124.00 540.00,124.00" /><polygon fill="#00ff5c" points="50.00,124.00 60.00,124.00 60.00,98.00 50.00,98.00" /><polygon fill="#00faa7" points="60.00,124.00 70.00,124.00 70.00,98.00 60.00,98.00" /><polygon fill="#00bcea" points="70.00,124.00 80.00,124.00 80.00,98.00 70.00,98.00" /><polygon fill="#0072ff" points="80.00,124.00 90.00,124.00 90.00,98.00 80.00,98.00" /><polygon fill="#1047ff" points="90.00,124.00 100.00,124.00 100.00,98.00 90.00,98.00" /><polygon fill="#183dff" points="100.00,124.00 110.00,124.00 110.00,98.00 100.00,98.00" /><polygon fill="#0067ff" points="110.00,124.00 120.00,124.00 120.00,98.00 110.00,98.00" /><polygon fill="#00a7fa" points="120.00,124.00 130.00,124.00 130.00,98.00 120.00,98.00" /><polygon fill="#00e1c6" points="130.00,124.00 140.00,124.00 140.00,98.00 130.00,98.00" /><polygon fill="#00ff87" points="140.00,124.00 150.00,124.00 150.00,98.00 140.00,98.00" /><polygon fill="#00ff5c" points="150.00,124.00 160.00,124.00 160.00,98.00 150.00,98.00" /><polygon fill="#21ff34" points="160.00,124.00 170.00,124.00 170.00,98.00 160.00,98.00" /><polygon fill="#47ff10" points="170.00,124.00 180.00,124.00 180.00,98.00 170.00,98.00" /><polygon fill="#72ff00" points="180.00,124.00 190.00,124.00 190.00,98.00 180.00,98.00" /><polygon fill="#92ff00" points="190.00,124.00 200.00,124.00 200.00,98.00 190.00,98.00" /><polygon fill="#b1f200" points="200.00,124.00 210.00,124.00 210.00,98.00 200.00,98.00" /><polygon fill="#bcea00" points="210.00,124.00 220.00,124.00 220.00,98.00 210.00,98.00" /><polygon fill="#bcea00" points="220.00,124.00 230.00,124.00 230.00,98.00 220.00,98.00" /><polygon fill="#b1f200" points="230.00,124.00 240.00,124.00 240.00,98.00 230.00,98.00" /><polygon fill="#b1f200" points="240.00,124.00 250.00,124.00 250.00,98.00 240.00,98.00" /><polygon fill="#b1f200" points="250.00,124.00 260.00,124.00 260.00,98.00 250.00,98.00" /><polygon fill="#a7fa00" points="260.00,124.00 270.00,124.00 270.00,98.00 260.00,98.00" /><polygon fill="#87ff00" points="270.00,124.00 280.00,124.00 280.00,98.00 270.00,98.00" /><polygon fill="#47ff10" points="280.00,124.00 290.00,124.00 290.00,98.00 280.00,98.00" /><polygon fill="#00ff5c" points="290.00,124.00 300.00,124.00 300.00,98.00 290.00,98.00" /><polygon fill="#00f2b1" points="300.00,124.00 310.00,124.00 310.00,98.00 300.00,98.00" /><polygon fill="#00a7fa" points="310.00,124.00 320.00,124.00 320.00,98.00 310.00,98.00" /><polygon fill="#007cff" points="320.00,124.00 330.00,124.00 330.00,98.00 320.00,98.00" /><polygon fill="#0067ff" points="330.00,124.00 340.00,124.00 340.00,98.00 330.00,98.00" /><polygon fill="#007cff" points="340.00,124.00 350.00,124.00 350.00,98.00 340.00,98.00" /><polygon fill="#009cff" points="350.00,124.00 360.00,124.00 360.00,98.00 350.00,98.00" /><polygon fill="#00bcea" points="360.00,124.00 370.00,124.00 370.00,98.00 360.00,98.00" /><polygon fill="#00cfd9" points="370.00,124.00 380.00,124.00 380.00,98.00 370.00,98.00" /><polygon fill="#00d9cf" points="380.00,124.00 390.00,124.00 390.00,98.00 380.00,98.00" /><polygon fill="#00e1c6" points="390.00,124.00 400.00,124.00 400.00,98.00 390.00,98.00" /><polygon fill="#00f2b1" points="400.00,124.00 410.00,124.00 410.00,98.00 400.00,98.00" /><polygon fill="#00ff9d" points="410.00,124.00 420.00,124.00 420.00,98.00 410.00,98.00" /><polygon fill="#00ff72" points="420.00,124.00 430.00,124.00 430.00,98.00 420.00,98.00" /><polygon fill="#21ff34" points="430.00,124.00 440.00,124.00 440.00,98.00 430.00,98.00" /><polygon fill="#67ff00" points="440.00,124.00 450.00,124.00 450.00,98.00 440.00,98.00" /><polygon fill="#b1f200" points="450.00,124.00 460.00,124.00 460.00,98.00 450.00,98.00" /><polygon fill="#eabc00" points="460.00,124.00 470.00,124.00 470.00,98.00 460.00,98.00" /><polygon fill="#ff7200" points="470.00,124.00 480.00,124.00 480.00,98.00 470.00,98.00" /><polygon fill="#ff3d18" points="480.00,124.00 490.00,124.00 490.00,98.00 480.00,98.00" /><polygon fill="#ff2a2a" points="490.00,124.00 500.00,124.00 500.00,98.00 490.00,98.00" /><polygon fill="#ff4710" points="500.00,124.00 510.00,124.00 510.00,98.00 500.00,98.00" /><polygon fill="#ff9200" points="510.00,124.00 520.00,124.00 520.00,98.00 510.00,98.00" /><polygon fill="#c6e200" points="520.00,124.00 530.00,124.00 530.00,98.00 520.00,98.00" /><polygon fill="#67ff00" points="530.00,124.00 540.00,124.00 540.00,98.00 530.00,98.00" /><polygon fill="#21ff34" points="540.00,124.00 550.00,124.00 550.00,98.00 540.00,98.00" /><polygon fill="#00ff72" points="50.00,98.00 60.00,98.00 60.00,72.00 50.00,72.00" /><polygon fill="#00eabc" points="60.00,98.00 70.00,98.00 70.00,72.00 60.00,72.00" /><polygon fill="#0092ff" points="70.00,98.00 80.00,98.00 80.00,72.00 70.00,72.00" /><polygon fill="#2a2aff" points="80.00,98.00 90.00,98.00 90.00,72.00 80.00,72.00" /><polygon fill="#7c00ff" points="90.00,98.00 100.00,98.00 100.00,72.00 90.00,72.00" /><polygon fill="#9c00ff" points="100.00,98.00 110.00,98.00 110.00,72.00 100.00,72.00" /><polygon fill="#9c00ff" points="110.00,98.00 120.00,98.00 120.00,72.00 110.00,72.00" /><polygon fill="#6700ff" points="120.00,98.00 130.00,98.00 130.00,72.00 120.00,72.00" /><polygon fill="#183dff" points="130.00,98.00 140.00,98.00 140.00,72.00 130.00,72.00" /><polygon fill="#0092ff" points="140.00,98.00 150.00,98.00 150.00,72.00 140.00,72.00" /><polygon fill="#00cfd9" points="150.00,98.00 160.00,98.00 160.00,72.00 150.00,72.00" /><polygon fill="#00ff92" points="160.00,98.00 170.00,98.00 170.00,72.00 160.00,72.00" /><polygon fill="#08ff52" points="170.00,98.00 180.00,98.00 180.00,72.00 170.00,72.00" /><polygon fill="#34ff21" points="180.00,98.00 190.00,98.00 190.00,72.00 180.00,72.00" /><polygon fill="#5cff00" points="190.00,98.00 200.00,98.00 200.00,72.00 190.00,72.00" /><polygon fill="#72ff00" points="200.00,98.00 210.00,98.00 210.00,72.00 200.00,72.00" /><polygon fill="#67ff00" points="210.00,98.00 220.00,98.00 220.00,72.00 210.00,72.00" /><polygon fill="#47ff10" points="220.00,98.00 230.00,98.00 230.00,72.00 220.00,72.00" /><polygon fill="#34ff21" points="230.00,98.00 240.00,98.00 240.00,72.00 230.00,72.00" /><polygon fill="#21ff34" points="240.00,98.00 250.00,98.00 250.00,72.00 240.00,72.00" /><polygon fill="#21ff34" points="250.00,98.00 260.00,98.00 260.00,72.00 250.00,72.00" /><polygon fill="#21ff34" points="260.00,98.00 270.00,98.00 270.00,72.00 260.00,72.00" /><polygon fill="#18ff3d" points="270.00,98.00 280.00,98.00 280.00,72.00 270.00,72.00" /><polygon fill="#08ff52" points="280.00,98.00 290.00,98.00 290.00,72.00 280.00,72.00" /><polygon fill="#00ff67" points="290.00,98.00 300.00,98.00 300.00,72.00 290.00,72.00" /><polygon fill="#00ff7c" points="300.00,98.00 310.00,98.00 310.00,72.00 300.00,72.00" /><polygon fill="#00ff9d" points="310.00,98.00 320.00,98.00 320.00,72.00 310.00,72.00" /><polygon fill="#00faa7" points="320.00,98.00 330.00,98.00 330.00,72.00 320.00,72.00" /><polygon fill="#00f2b1" points="330.00,98.00 340.00,98.00 340.00,72.00 330.00,72.00" /><polygon fill="#00f2b1" points="340.00,98.00 350.00,98.00 350.00,72.00 340.00,72.00" /><polygon fill="#00faa7" points="350.00,98.00 360.00,98.00 360.00,72.00 350.00,72.00" /><polygon fill="#00faa7" points="360.00,98.00 370.00,98.00 370.00,72.00 360.00,72.00" /><polygon fill="#00f2b1" points="370.00,98.00 380.00,98.00 380.00,72.00 370.00,72.00" /><polygon fill="#00d9cf" points="380.00,98.00 390.00,98.00 390.00,72.00 380.00,72.00" /><polygon fill="#00b1f2" points="390.00,98.00 400.00,98.00 400.00,72.00 390.00,72.00" /><polygon fill="#009cff" points="400.00,98.00 410.00,98.00 410.00,72.00 400.00,72.00" /><polygon fill="#009cff" points="410.00,98.00 420.00,98.00 420.00,72.00 410.00,72.00" /><polygon fill="#00b1f2" points="420.00,98.00 430.00,98.00 430.00,72.00 420.00,72.00" /><polygon fill="#00e1c6" points="430.00,98.00 440.00,98.00 440.00,72.00 430.00,72.00" /><polygon fill="#00ff7c" points="440.00,98.00 450.00,98.00 450.00,72.00 440.00,72.00" /><polygon fill="#21ff34" points="450.00,98.00 460.00,98.00 460.00,72.00 450.00,72.00" /><polygon fill="#67ff00" points="460.00,98.00 470.00,98.00 470.00,72.00 460.00,72.00" /><polygon fill="#bcea00" points="470.00,98.00 480.00,98.00 480.00,72.00 470.00,72.00" /><polygon fill="#faa700" points="480.00,98.00 490.00,98.00 490.00,72.00 480.00,72.00" /><polygon fill="#ff7c00" points="490.00,98.00 500.00,98.00 500.00,72.00 490.00,72.00" /><polygon fill="#ff8700" points="500.00,98.00 510.00,98.00 510.00,72.00 500.00,72.00" /><polygon fill="#e2c600" points="510.00,98.00 520.00,98.00 520.00,72.00 510.00,72.00" /><polygon fill="#87ff00" points="520.00,98.00 530.00,98.00 530.00,72.00 520.00,72.00" /><polygon fill="#21ff34" points="530.00,98.00 540.00,98.00 540.00,72.00 530.00,72.00" /><polygon fill="#00ff92" points="540.00,98.00 550.00,98.00 550.00,72.00 540.00,72.00" /><polygon fill="#009cff" points="50.00,72.00 60.00,72.00 60.00,46.00 50.00,46.00" /><polygon fill="#1047ff" points="60.00,72.00 70.00,72.00 70.00,46.00 60.00,46.00" /><polygon fill="#5c00ff" points="70.00,72.00 80.00,72.00 80.00,46.00 70.00,46.00" /><polygon fill="#bc00ea" points="80.00,72.00 90.00,72.00 90.00,46.00 80.00,46.00" /><polygon fill="#fa00a7" points="90.00,72.00 100.00,72.00 100.00,46.00 90.00,46.00" /><polygon fill="#ff0087" points="100.00,72.00 110.00,72.00 110.00,46.00 100.00,46.00" /><polygon fill="#fa00a7" points="110.00,72.00 120.00,72.00 120.00,46.00 110.00,46.00" /><polygon fill="#bc00ea" points="120.00,72.00 130.00,72.00 130.00,46.00 120.00,46.00" /><polygon fill="#5c00ff" points="130.00,72.00 140.00,72.00 140.00,46.00 130.00,46.00" /><polygon fill="#1047ff" points="140.00,72.00 150.00,72.00 150.00,46.00 140.00,46.00" /><polygon fill="#009cff" points="150.00,72.00 160.00,72.00 160.00,46.00 150.00,46.00" /><polygon fill="#00e1c6" points="160.00,72.00 170.00,72.00 170.00,46.00 160.00,46.00" /><polygon fill="#00ff87" points="170.00,72.00 180.00,72.00 180.00,46.00 170.00,46.00" /><polygon fill="#00ff5c" points="180.00,72.00 190.00,72.00 190.00,46.00 180.00,46.00" /><polygon fill="#10ff48" points="190.00,72.00 200.00,72.00 200.00,46.00 190.00,46.00" /><polygon fill="#00ff5c" points="200.00,72.00 210.00,72.00 210.00,46.00 200.00,46.00" /><polygon fill="#00ff87" points="210.00,72.00 220.00,72.00 220.00,46.00 210.00,46.00" /><polygon fill="#00eabc" points="220.00,72.00 230.00,72.00 230.00,46.00 220.00,46.00" /><polygon fill="#00bcea" points="230.00,72.00 240.00,72.00 240.00,46.00 230.00,46.00" /><polygon fill="#009cff" points="240.00,72.00 250.00,72.00 250.00,46.00 240.00,46.00" /><polygon fill="#009cff" points="250.00,72.00 260.00,72.00 260.00,46.00 250.00,46.00" /><polygon fill="#009cff" points="260.00,72.00 270.00,72.00 270.00,46.00 260.00,46.00" /><polygon fill="#009cff" points="270.00,72.00 280.00,72.00 280.00,46.00 270.00,46.00" /><polygon fill="#009cff" points="280.00,72.00 290.00,72.00 290.00,46.00 280.00,46.00" /><polygon fill="#009cff" points="290.00,72.00 300.00,72.00 300.00,46.00 290.00,46.00" /><polygon fill="#009cff" points="300.00,72.00 310.00,72.00 310.00,46.00 300.00,46.00" /><polygon fill="#009cff" points="310.00,72.00 320.00,72.00 320.00,46.00 310.00,46.00" /><polygon fill="#009cff" points="320.00,72.00 330.00,72.00 330.00,46.00 320.00,46.00" /><polygon fill="#009cff" points="330.00,72.00 340.00,72.00 340.00,46.00 330.00,46.00" /><polygon fill="#009cff" points="340.00,72.00 350.00,72.00 350.00,46.00 340.00,46.00" /><polygon fill="#009cff" points="350.00,72.00 360.00,72.00 360.00,46.00 350.00,46.00" /><polygon fill="#0092ff" points="360.00,72.00 370.00,72.00 370.00,46.00 360.00,46.00" /><polygon fill="#007cff" points="370.00,72.00 380.00,72.00 380.00,46.00 370.00,46.00" /><polygon fill="#1047ff" points="380.00,72.00 390.00,72.00 390.00,46.00 380.00,46.00" /><polygon fill="#3d18ff" points="390.00,72.00 400.00,72.00 400.00,46.00 390.00,46.00" /><polygon fill="#6700ff" points="400.00,72.00 410.00,72.00 410.00,46.00 400.00,46.00" /><polygon fill="#7c00ff" points="410.00,72.00 420.00,72.00 420.00,46.00 410.00,46.00" /><polygon fill="#6700ff" points="420.00,72.00 430.00,72.00 430.00,46.00 420.00,46.00" /><polygon fill="#3d18ff" points="430.00,72.00 440.00,72.00 440.00,46.00 430.00,46.00" /><polygon fill="#0852ff" points="440.00,72.00 450.00,72.00 450.00,46.00 440.00,46.00" /><polygon fill="#009cff" points="450.00,72.00 460.00,72.00 460.00,46.00 450.00,46.00" /><polygon fill="#00e1c6" points="460.00,72.00 470.00,72.00 470.00,46.00 460.00,46.00" /><polygon fill="#00ff67" points="470.00,72.00 480.00,72.00 480.00,46.00 470.00,46.00" /><polygon fill="#47ff10" points="480.00,72.00 490.00,72.00 490.00,46.00 480.00,46.00" /><polygon fill="#92ff00" points="490.00,72.00 500.00,72.00 500.00,46.00 490.00,46.00" /><polygon fill="#b1f200" points="500.00,72.00 510.00,72.00 510.00,46.00 500.00,46.00" /><polygon fill="#92ff00" points="510.00,72.00 520.00,72.00 520.00,46.00 510.00,46.00" /><polygon fill="#47ff10" points="520.00,72.00 530.00,72.00 530.00,46.00 520.00,46.00" /><polygon fill="#00ff67" points="530.00,72.00 540.00,72.00 540.00,46.00 530.00,46.00" /><polygon fill="#00e1c6" points="540.00,72.00 550.00,72.00 550.00,46.00 540.00,46.00" /><polygon fill="#9200ff" points="50.00,46.00 60.00,46.00 60.00,20.00 50.00,20.00" /><polygon fill="#d900cf" points="60.00,46.00 70.00,46.00 70.00,20.00 60.00,20.00" /><polygon fill="#ff0087" points="70.00,46.00 80.00,46.00 80.00,20.00 70.00,20.00" /><polygon fill="#ff1047" points="80.00,46.00 90.00,46.00 90.00,20.00 80.00,20.00" /><polygon fill="#ff2a2a" points="90.00,46.00 100.00,46.00 100.00,20.00 90.00,20.00" /><polygon fill="#ff2134" points="100.00,46.00 110.00,46.00 110.00,20.00 100.00,20.00" /><polygon fill="#ff0071" points="110.00,46.00 120.00,46.00 120.00,20.00 110.00,20.00" /><polygon fill="#d900cf" points="120.00,46.00 130.00,46.00 130.00,20.00 120.00,20.00" /><polygon fill="#6700ff" points="130.00,46.00 140.00,46.00 140.00,20.00 130.00,20.00" /><polygon fill="#1047ff" points="140.00,46.00 150.00,46.00 150.00,20.00 140.00,20.00" /><polygon fill="#009cff" points="150.00,46.00 160.00,46.00 160.00,20.00 150.00,20.00" /><polygon fill="#00e1c6" points="160.00,46.00 170.00,46.00 170.00,20.00 160.00,20.00" /><polygon fill="#00ff92" points="170.00,46.00 180.00,46.00 180.00,20.00 170.00,20.00" /><polygon fill="#00ff7c" points="180.00,46.00 190.00,46.00 190.00,20.00 180.00,20.00" /><polygon fill="#00ff92" points="190.00,46.00 200.00,46.00 200.00,20.00 190.00,20.00" /><polygon fill="#00eabc" points="200.00,46.00 210.00,46.00 210.00,20.00 200.00,20.00" /><polygon fill="#00a7fa" points="210.00,46.00 220.00,46.00 220.00,20.00 210.00,20.00" /><polygon fill="#0852ff" points="220.00,46.00 230.00,46.00 230.00,20.00 220.00,20.00" /><polygon fill="#3d18ff" points="230.00,46.00 240.00,46.00 240.00,20.00 230.00,20.00" /><polygon fill="#5c00ff" points="240.00,46.00 250.00,46.00 250.00,20.00 240.00,20.00" /><polygon fill="#5c00ff" points="250.00,46.00 260.00,46.00 260.00,20.00 250.00,20.00" /><polygon fill="#5208ff" points="260.00,46.00 270.00,46.00 270.00,20.00 260.00,20.00" /><polygon fill="#4710ff" points="270.00,46.00 280.00,46.00 280.00,20.00 270.00,20.00" /><polygon fill="#3d18ff" points="280.00,46.00 290.00,46.00 290.00,20.00 280.00,20.00" /><polygon fill="#3421ff" points="290.00,46.00 300.00,46.00 300.00,20.00 290.00,20.00" /><polygon fill="#2a2aff" points="300.00,46.00 310.00,46.00 310.00,20.00 300.00,20.00" /><polygon fill="#2a2aff" points="310.00,46.00 320.00,46.00 320.00,20.00 310.00,20.00" /><polygon fill="#2134ff" points="320.00,46.00 330.00,46.00 330.00,20.00 320.00,20.00" /><polygon fill="#2134ff" points="330.00,46.00 340.00,46.00 340.00,20.00 330.00,20.00" /><polygon fill="#2134ff" points="340.00,46.00 350.00,46.00 350.00,20.00 340.00,20.00" /><polygon fill="#2134ff" points="350.00,46.00 360.00,46.00 360.00,20.00 350.00,20.00" /><polygon fill="#2a2aff" points="360.00,46.00 370.00,46.00 370.00,20.00 360.00,20.00" /><polygon fill="#4710ff" points="370.00,46.00 380.00,46.00 380.00,20.00 370.00,20.00" /><polygon fill="#7c00ff" points="380.00,46.00 390.00,46.00 390.00,20.00 380.00,20.00" /><polygon fill="#bc00ea" points="390.00,46.00 400.00,46.00 400.00,20.00 390.00,20.00" /><polygon fill="#ea00bc" points="400.00,46.00 410.00,46.00 410.00,20.00 400.00,20.00" /><polygon fill="#ff009c" points="410.00,46.00 420.00,46.00 420.00,20.00 410.00,20.00" /><polygon fill="#fa00a7" points="420.00,46.00 430.00,46.00 430.00,20.00 420.00,20.00" /><polygon fill="#d900cf" points="430.00,46.00 440.00,46.00 440.00,20.00 430.00,20.00" /><polygon fill="#9c00ff" points="440.00,46.00 450.00,46.00 450.00,20.00 440.00,20.00" /><polygon fill="#5c00ff" points="450.00,46.00 460.00,46.00 460.00,20.00 450.00,20.00" /><polygon fill="#1047ff" points="460.00,46.00 470.00,46.00 470.00,20.00 460.00,20.00" /><polygon fill="#00a7fa" points="470.00,46.00 480.00,46.00 480.00,20.00 470.00,20.00" /><polygon fill="#00ff9d" points="480.00,46.00 490.00,46.00 490.00,20.00 480.00,20.00" /><polygon fill="#18ff3d" points="490.00,46.00 500.00,46.00 500.00,20.00 490.00,20.00" /><polygon fill="#3dff18" points="500.00,46.00 510.00,46.00 510.00,20.00 500.00,20.00" /><polygon fill="#34ff21" points="510.00,46.00 520.00,46.00 520.00,20.00 510.00,20.00" /><polygon fill="#08ff52" points="520.00,46.00 530.00,46.00 530.00,20.00 520.00,20.00" /><polygon fill="#00faa7" points="530.00,46.00 540.00,46.00 540.00,20.00 530.00,20.00" /><polygon fill="#00b1f2" points="540.00,46.00 550.00,46.00 550.00,20.00 540.00,20.00" /></g><g stroke="black"><line x1="50.00" x2="50.00" y1="280.00" y2="290.00" /><line x1="150.00" x2="150.00" y1="280.00" y2="290.00" /><line x1="250.00" x2="250.00" y1="280.00" y2="290.00" /><line x1="350.00" x2="350.00" y1="280.00" y2="290.00" /><line x1="450.00" x2="450.00" y1="280.00" y2="290.00" /><line x1="550.00" x2="550.00" y1="280.00" y2="290.00" /><line x1="100.00" x2="100.00" y1="280.00" y2="285.00" /><line x1="200.00" x2="200.00" y1="280.00" y2="285.00" /><line x1="300.00" x2="300.00" y1="280.00" y2="285.00" /><line x1="400.00" x2="400.00" y1="280.00" y2="285.00" /><line x1="500.00" x2="500.00" y1="280.00" y2="285.00" /><g fill="black" font-family="Arial" font-size="10" stroke="none" text-anchor="middle"><text x="50.00" y="300.00">0.00</text><text x="150.00" y="300.00">10.00</text><text x="250.00" y="300.00">20.00</text><text x="350.00" y="300.00">30.00</text><text x="450.00" y="300.00">40.00</text><text x="550.00" y="300.00">50.00</text></g><line x1="50.00" x2="550.00" y1="280.00" y2="280.00" /></g><g stroke="black"><line x1="50.00" x2="40.00" y1="280.00" y2="280.00" /><line x1="50.00" x2="40.00" y1="254.00" y2="254.00" /><line x1="50.00" x2="40.00" y1="228.00" y2="228.00" /><line x1="50.00" x2="40.00" y1="202.00" y2="202.00" /><line x1="50.00" x2="40.00" y1="176.00" y2="176.00" /><line x1="50.00" x2="40.00" y1="150.00" y2="150.00" /><line x1="50.00" x2="40.00" y1="124.00" y2="124.00" /><line x1="50.00" x2="40.00" y1="98.00" y2="98.00" /><line x1="50.00" x2="40.00" y1="72.00" y2="72.00" /><line x1="50.00" x2="40.00" y1="46.00" y2="46.00" /><line x1="50.00" x2="40.00" y1="20.00" y2="20.00" /><g fill="black" font-family="Arial" font-size="10" stroke="none" text-anchor="end"><text x="35.00" y="280.00">0.00</text><text x="35.00" y="254.00">1.00</text><text x="35.00" y="228.00">2.00</text><text x="35.00" y="202.00">3.00</text><text x="35.00" y="176.00">4.00</text><text x="35.00" y="150.00">5.00</text><text x="35.00" y="124.00">6.00</text><text x="35.00" y="98.00">7.00</text><text x="35.00" y="72.00">8.00</text><text x="35.00" y="46.00">9.00</text><text x="35.00" y="20.00">10.00</text></g><line x1="50.00" x2="50.00" y1="280.00" y2="20.00" /></g></g></svg>