<?xml version="1.0"?>
<svg height="300" version="1.1" width="600" xmlns:xlink="http://www.w3.org/1999/xlink" xmlns="http://www.w3.org/2000/svg"><g><g><circle cx="55.00" cy="267.00" fill="#009cff" r="5.0" /><circle cx="65.00" cy="267.00" fill="#1047ff" r="5.0" /><circle cx="75.00" cy="267.00" fill="#5c00ff" r="5.0" /><circle cx="85.00" cy="267.00" fill="#bc00ea" r="5.0" /><circle cx="95.00" cy="267.00" fill="#fa00a7" r="5.0" /><circle cx="105.00" cy="267.00" fill="#ff0087" r="5.0" /><circle cx="115.00" cy="267.00" fill="#fa00a7" r="5.0" /><circle cx="125.00" cy="267.00" fill="#bc00ea" r="5.0" /><circle cx="135.00" cy="267.00" fill="#5c00ff" r="5.0" /><circle cx="145.00" cy="267.00" fill="#1047ff" r="5.0" /><circle cx="155.00" cy="267.00" fill="#009cff" r="5.0" /><circle cx="165.00" cy="267.00" fill="#00e1c6" r="5.0" /><circle cx="175.00" cy="267.00" fill="#00ff67" r="5.0" /><circle cx="185.00" cy="267.00" fill="#47ff10" r="5.0" /><circle cx="195.00" cy="267.00" fill="#92ff00" r="5.0" /><circle cx="205.00" cy="267.00" fill="#b1f200" r="5.0" /><circle cx="215.00" cy="267.00" fill="#92ff00" r="5.0" /><circle cx="225.00" cy="267.00" fill="#47ff10" r="5.0" /><circle cx="235.00" cy="267.00" fill="#00ff67" r="5.0" /><circle cx="245.00" cy="267.00" fill="#00e1c6" r="5.0" /><circle cx="255.00" cy="267.00" fill="#009cff" r="5.0" /><circle cx="265.00" cy="267.00" fill="#1047ff" r="5.0" /><circle cx="275.00" cy="267.00" fill="#5c00ff" r="5.0" /><circle cx="285.00" cy="267.00" fill="#bc00ea" r="5.0" /><circle cx="295.00" cy="267.00" fill="#fa00a7" r="5.0" /><circle cx="305.00" cy="267.00" fill="#ff0087" r="5.0" /><circle cx="315.00" cy="267.00" fill="#fa00a7" r="5.0" /><circle cx="325.00" cy="267.00" fill="#bc00ea" r="5.0" /><circle cx="335.00" cy="267.00" fill="#5c00ff" r="5.0" /><circle cx="345.00" cy="267.00" fill="#1047ff" r="5.0" /><circle cx="355.00" cy="267.00" fill="#009cff" r="5.0" /><circle cx="365.00" cy="267.00" fill="#00e1c6" r="5.0" /><circle cx="375.00" cy="267.00" fill="#00ff87" r="5.0" /><circle cx="385.00" cy="267.00" fill="#00ff5c" r="5.0" /><circle cx="395.00" cy="267.00" fill="#10ff48" r="5.0" /><circle cx="405.00" cy="267.00" fill="#00ff5c" r="5.0" /><circle cx="415.00" cy="267.00" fill="#00ff87" r="5.0" /><circle cx="425.00" cy="267.00" fill="#00eabc" r="5.0" /><circle cx="435.00" cy="267.00" fill="#00bcea" r="5.0" /><circle cx="445.00" cy="267.00" fill="#009cff" r="5.0" /><circle cx="455.00" cy="267.00" fill="#009cff" r="5.0" /><circle cx="465.00" cy="267.00" fill="#009cff" r="5.0" /><circle cx="475.00" cy="267.00" fill="#009cff" r="5.0" /><circle cx="485.00" cy="267.00" fill="#009cff" r="5.0" /><circle cx="495.00" cy="267.00" fill="#009cff" r="5.0" /><circle cx="505.00" cy="267.00" fill="#009cff" r="5.0" /><circle cx="515.00" cy="267.00" fill="#009cff" r="5.0" /><circle cx="525.00" cy="267.00" fill="#009cff" r="5.0" /><circle cx="535.00" cy="267.00" fill="#009cff" r="5.0" /><circle cx="545.00" cy="267.00" fill="#009cff" r="5.0" /><circle cx="55.00" cy="241.00" fill="#00ff72" r="5.0" /><circle cx="65.00" cy="241.00" fill="#00eabc" r="5.0" /><circle cx="75.00" cy="241.00" fill="#0087ff" r="5.0" /><circle cx="85.00" cy="241.00" fill="#3421ff" r="5.0" /><circle cx="95.00" cy="241.00" fill="#9c00ff" r="5.0" /><circle cx="105.00" cy="241.00" fill="#d900cf" r="5.0" /><circle cx="115.00" cy="241.00" fill="#e200c5" r="5.0" /><circle cx="125.00" cy="241.00" fill="#c600e1" r="5.0" /><circle cx="135.00" cy="241.00" fill="#7c00ff" r="5.0" /><circle cx="145.00" cy="241.00" fill="#3421ff" r="5.0" /><circle cx="155.00" cy="241.00" fill="#0067ff" r="5.0" /><circle cx="165.00" cy="241.00" fill="#00a7fa" r="5.0" /><circle cx="175.00" cy="241.00" fill="#00faa7" r="5.0" /><circle cx="185.00" cy="241.00" fill="#18ff3d" r="5.0" /><circle cx="195.00" cy="241.00" fill="#67ff00" r="5.0" /><circle cx="205.00" cy="241.00" fill="#9cff00" r="5.0" /><circle cx="215.00" cy="241.00" fill="#a7fa00" r="5.0" /><circle cx="225.00" cy="241.00" fill="#7cff00" r="5.0" /><circle cx="235.00" cy="241.00" fill="#3dff18" r="5.0" /><circle cx="245.00" cy="241.00" fill="#00ff5c" r="5.0" /><circle cx="255.00" cy="241.00" fill="#00faa7" r="5.0" /><circle cx="265.00" cy="241.00" fill="#00bcea" r="5.0" /><circle cx="275.00" cy="241.00" fill="#0072ff" r="5.0" /><circle cx="285.00" cy="241.00" fill="#3421ff" r="5.0" /><circle cx="295.00" cy="241.00" fill="#6700ff" r="5.0" /><circle cx="305.00" cy="241.00" fill="#6700ff" r="5.0" /><circle cx="315.00" cy="241.00" fill="#3d18ff" r="5.0" /><circle cx="325.00" cy="241.00" fill="#0067ff" r="5.0" /><circle cx="335.00" cy="241.00" fill="#00c6e2" r="5.0" /><circle cx="345.00" cy="241.00" fill="#00ff87" r="5.0" /><circle cx="355.00" cy="241.00" fill="#21ff34" r="5.0" /><circle cx="365.00" cy="241.00" fill="#5cff00" r="5.0" /><circle cx="375.00" cy="241.00" fill="#9cff00" r="5.0" /><circle cx="385.00" cy="241.00" fill="#bcea00" r="5.0" /><circle cx="395.00" cy="241.00" fill="#b1f200" r="5.0" /><circle cx="405.00" cy="241.00" fill="#87ff00" r="5.0" /><circle cx="415.00" cy="241.00" fill="#47ff10" r="5.0" /><circle cx="425.00" cy="241.00" fill="#08ff52" r="5.0" /><circle cx="435.00" cy="241.00" fill="#00ff87" r="5.0" /><circle cx="445.00" cy="241.00" fill="#00faa7" r="5.0" /><circle cx="455.00" cy="241.00" fill="#00faa7" r="5.0" /><circle cx="465.00" cy="241.00" fill="#00faa7" r="5.0" /><circle cx="475.00" cy="241.00" fill="#00faa7" r="5.0" /><circle cx="485.00" cy="241.00" fill="#00e1c6" r="5.0" /><circle cx="495.00" cy="241.00" fill="#00b1f2" r="5.0" /><circle cx="505.00" cy="241.00" fill="#0072ff" r="5.0" /><circle cx="515.00" cy="241.00" fill="#2134ff" r="5.0" /><circle cx="525.00" cy="241.00" fill="#5208ff" r="5.0" /><circle cx="535.00" cy="241.00" fill="#7c00ff" r="5.0" /><circle cx="545.00" cy="241.00" fill="#9200ff" r="5.0" /><circle cx="55.00" cy="215.00" fill="#00ff5c" r="5.0" /><circle cx="65.00" cy="215.00" fill="#00faa7" r="5.0" /><circle cx="75.00" cy="215.00" fill="#00a7fa" r="5.0" /><circle cx="85.00" cy="215.00" fill="#2134ff" r="5.0" /><circle cx="95.00" cy="215.00" fill="#7c00ff" r="5.0" /><circle cx="105.00" cy="215.00" fill="#c600e1" r="5.0" /><circle cx="115.00" cy="215.00" fill="#e200c5" r="5.0" /><circle cx="125.00" cy="215.00" fill="#d900cf" r="5.0" /><circle cx="135.00" cy="215.00" fill="#bc00ea" r="5.0" /><circle cx="145.00" cy="215.00" fill="#9200ff" r="5.0" /><circle cx="155.00" cy="215.00" fill="#6700ff" r="5.0" /><circle cx="165.00" cy="215.00" fill="#4710ff" r="5.0" /><circle cx="175.00" cy="215.00" fill="#1047ff" r="5.0" /><circle cx="185.00" cy="215.00" fill="#0087ff" r="5.0" /><circle cx="195.00" cy="215.00" fill="#00c6e2" r="5.0" /><circle cx="205.00" cy="215.00" fill="#00f2b1" r="5.0" /><circle cx="215.00" cy="215.00" fill="#00faa7" r="5.0" /><circle cx="225.00" cy="215.00" fill="#00faa7" r="5.0" /><circle cx="235.00" cy="215.00" fill="#00e1c6" r="5.0" /><circle cx="245.00" cy="215.00" fill="#00bcea" r="5.0" /><circle cx="255.00" cy="215.00" fill="#009cff" r="5.0" /><circle cx="265.00" cy="215.00" fill="#0072ff" r="5.0" /><circle cx="275.00" cy="215.00" fill="#1047ff" r="5.0" /><circle cx="285.00" cy="215.00" fill="#2a2aff" r="5.0" /><circle cx="295.00" cy="215.00" fill="#3421ff" r="5.0" /><circle cx="305.00" cy="215.00" fill="#183dff" r="5.0" /><circle cx="315.00" cy="215.00" fill="#0087ff" r="5.0" /><circle cx="325.00" cy="215.00" fill="#00eabc" r="5.0" /><circle cx="335.00" cy="215.00" fill="#08ff52" r="5.0" /><circle cx="345.00" cy="215.00" fill="#5cff00" r="5.0" /><circle cx="355.00" cy="215.00" fill="#b1f200" r="5.0" /><circle cx="365.00" cy="215.00" fill="#eabc00" r="5.0" /><circle cx="375.00" cy="215.00" fill="#ff9d00" r="5.0" /><circle cx="385.00" cy="215.00" fill="#f2b100" r="5.0" /><circle cx="395.00" cy="215.00" fill="#bcea00" r="5.0" /><circle cx="405.00" cy="215.00" fill="#52ff08" r="5.0" /><circle cx="415.00" cy="215.00" fill="#00ff72" r="5.0" /><circle cx="425.00" cy="215.00" fill="#00cfd9" r="5.0" /><circle cx="435.00" cy="215.00" fill="#0092ff" r="5.0" /><circle cx="445.00" cy="215.00" fill="#007cff" r="5.0" /><circle cx="455.00" cy="215.00" fill="#009cff" r="5.0" /><circle cx="465.00" cy="215.00" fill="#00bcea" r="5.0" /><circle cx="475.00" cy="215.00" fill="#00c6e2" r="5.0" /><circle cx="485.00" cy="215.00" fill="#00bcea" r="5.0" /><circle cx="495.00" cy="215.00" fill="#0087ff" r="5.0" /><circle cx="505.00" cy="215.00" fill="#183dff" r="5.0" /><circle cx="515.00" cy="215.00" fill="#6700ff" r="5.0" /><circle cx="525.00" cy="215.00" fill="#bc00ea" r="5.0" /><circle cx="535.00" cy="215.00" fill="#f200b1" r="5.0" /><circle cx="545.00" cy="215.00" fill="#ff0092" r="5.0" /><circle cx="55.00" cy="189.00" fill="#00cfd9" r="5.0" /><circle cx="65.00" cy="189.00" fill="#0087ff" r="5.0" /><circle cx="75.00" cy="189.00" fill="#183dff" r="5.0" /><circle cx="85.00" cy="189.00" fill="#5c00ff" r="5.0" /><circle cx="95.00" cy="189.00" fill="#9c00ff" r="5.0" /><circle cx="105.00" cy="189.00" fill="#b100f2" r="5.0" /><circle cx="115.00" cy="189.00" fill="#b100f2" r="5.0" /><circle cx="125.00" cy="189.00" fill="#9c00ff" r="5.0" /><circle cx="135.00" cy="189.00" fill="#7c00ff" r="5.0" /><circle cx="145.00" cy="189.00" fill="#6700ff" r="5.0" /><circle cx="155.00" cy="189.00" fill="#5c00ff" r="5.0" /><circle cx="165.00" cy="189.00" fill="#5208ff" r="5.0" /><circle cx="175.00" cy="189.00" fill="#4710ff" r="5.0" /><circle cx="185.00" cy="189.00" fill="#3421ff" r="5.0" /><circle cx="195.00" cy="189.00" fill="#2a2aff" r="5.0" /><circle cx="205.00" cy="189.00" fill="#183dff" r="5.0" /><circle cx="215.00" cy="189.00" fill="#183dff" r="5.0" /><circle cx="225.00" cy="189.00" fill="#183dff" r="5.0" /><circle cx="235.00" cy="189.00" fill="#183dff" r="5.0" /><circle cx="245.00" cy="189.00" fill="#2134ff" r="5.0" /><circle cx="255.00" cy="189.00" fill="#2134ff" r="5.0" /><circle cx="265.00" cy="189.00" fill="#2a2aff" r="5.0" /><circle cx="275.00" cy="189.00" fill="#3d18ff" r="5.0" /><circle cx="285.00" cy="189.00" fill="#5208ff" r="5.0" /><circle cx="295.00" cy="189.00" fill="#5c00ff" r="5.0" /><circle cx="305.00" cy="189.00" fill="#4710ff" r="5.0" /><circle cx="315.00" cy="189.00" fill="#183dff" r="5.0" /><circle cx="325.00" cy="189.00" fill="#0087ff" r="5.0" /><circle cx="335.00" cy="189.00" fill="#00d9cf" r="5.0" /><circle cx="345.00" cy="189.00" fill="#00ff7c" r="5.0" /><circle cx="355.00" cy="189.00" fill="#21ff34" r="5.0" /><circle cx="365.00" cy="189.00" fill="#5cff00" r="5.0" /><circle cx="375.00" cy="189.00" fill="#72ff00" r="5.0" /><circle cx="385.00" cy="189.00" fill="#52ff08" r="5.0" /><circle cx="395.00" cy="189.00" fill="#08ff52" r="5.0" /><circle cx="405.00" cy="189.00" fill="#00e1c6" r="5.0" /><circle cx="415.00" cy="189.00" fill="#0072ff" r="5.0" /><circle cx="425.00" cy="189.00" fill="#3d18ff" r="5.0" /><circle cx="435.00" cy="189.00" fill="#6700ff" r="5.0" /><circle cx="445.00" cy="189.00" fill="#5c00ff" r="5.0" /><circle cx="455.00" cy="189.00" fill="#2134ff" r="5.0" /><circle cx="465.00" cy="189.00" fill="#0072ff" r="5.0" /><circle cx="475.00" cy="189.00" fill="#00a7fa" r="5.0" /><circle cx="485.00" cy="189.00" fill="#00c6e2" r="5.0" /><circle cx="495.00" cy="189.00" fill="#00bcea" r="5.0" /><circle cx="505.00" cy="189.00" fill="#009cff" r="5.0" /><circle cx="515.00" cy="189.00" fill="#005cff" r="5.0" /><circle cx="525.00" cy="189.00" fill="#3421ff" r="5.0" /><circle cx="535.00" cy="189.00" fill="#7200ff" r="5.0" /><circle cx="545.00" cy="189.00" fill="#8700ff" r="5.0" /><circle cx="55.00" cy="163.00" fill="#009cff" r="5.0" /><circle cx="65.00" cy="163.00" fill="#0852ff" r="5.0" /><circle cx="75.00" cy="163.00" fill="#3d18ff" r="5.0" /><circle cx="85.00" cy="163.00" fill="#6700ff" r="5.0" /><circle cx="95.00" cy="163.00" fill="#7c00ff" r="5.0" /><circle cx="105.00" cy="163.00" fill="#6700ff" r="5.0" /><circle cx="115.00" cy="163.00" fill="#3d18ff" r="5.0" /><circle cx="125.00" cy="163.00" fill="#1047ff" r="5.0" /><circle cx="135.00" cy="163.00" fill="#007cff" r="5.0" /><circle cx="145.00" cy="163.00" fill="#0092ff" r="5.0" /><circle cx="155.00" cy="163.00" fill="#009cff" r="5.0" /><circle cx="165.00" cy="163.00" fill="#009cff" r="5.0" /><circle cx="175.00" cy="163.00" fill="#009cff" r="5.0" /><circle cx="185.00" cy="163.00" fill="#009cff" r="5.0" /><circle cx="195.00" cy="163.00" fill="#009cff" r="5.0" /><circle cx="205.00" cy="163.00" fill="#009cff" r="5.0" /><circle cx="215.00" cy="163.00" fill="#009cff" r="5.0" /><circle cx="225.00" cy="163.00" fill="#009cff" r="5.0" /><circle cx="235.00" cy="163.00" fill="#009cff" r="5.0" /><circle cx="245.00" cy="163.00" fill="#009cff" r="5.0" /><circle cx="255.00" cy="163.00" fill="#009cff" r="5.0" /><circle cx="265.00" cy="163.00" fill="#0092ff" r="5.0" /><circle cx="275.00" cy="163.00" fill="#007cff" r="5.0" /><circle cx="285.00" cy="163.00" fill="#1047ff" r="5.0" /><circle cx="295.00" cy="163.00" fill="#3d18ff" r="5.0" /><circle cx="305.00" cy="163.00" fill="#6700ff" r="5.0" /><circle cx="315.00" cy="163.00" fill="#7c00ff" r="5.0" /><circle cx="325.00" cy="163.00" fill="#6700ff" r="5.0" /><circle cx="335.00" cy="163.00" fill="#3d18ff" r="5.0" /><circle cx="345.00" cy="163.00" fill="#0852ff" r="5.0" /><circle cx="355.00" cy="163.00" fill="#009cff" r="5.0" /><circle cx="365.00" cy="163.00" fill="#00d9cf" r="5.0" /><circle cx="375.00" cy="163.00" fill="#00faa7" r="5.0" /><circle cx="385.00" cy="163.00" fill="#00f2b1" r="5.0" /><circle cx="395.00" cy="163.00" fill="#00d9cf" r="5.0" /><circle cx="405.00" cy="163.00" fill="#009cff" r="5.0" /><circle cx="415.00" cy="163.00" fill="#005cff" r="5.0" /><circle cx="425.00" cy="163.00" fill="#2134ff" r="5.0" /><circle cx="435.00" cy="163.00" fill="#2134ff" r="5.0" /><circle cx="445.00" cy="163.00" fill="#005cff" r="5.0" /><circle cx="455.00" cy="163.00" fill="#009cff" r="5.0" /><circle cx="465.00" cy="163.00" fill="#00e1c6" r="5.0" /><circle cx="475.00" cy="163.00" fill="#00ff87" r="5.0" /><circle cx="485.00" cy="163.00" fill="#00ff5c" r="5.0" /><circle cx="495.00" cy="163.00" fill="#10ff48" r="5.0" /><circle cx="505.00" cy="163.00" fill="#00ff5c" r="5.0" /><circle cx="515.00" cy="163.00" fill="#00ff87" r="5.0" /><circle cx="525.00" cy="163.00" fill="#00eabc" r="5.0" /><circle cx="535.00" cy="163.00" fill="#00bcea" r="5.0" /><circle cx="545.00" cy="163.00" fill="#009cff" r="5.0" /><circle cx="55.00" cy="137.00" fill="#00cfd9" r="5.0" /><circle cx="65.00" cy="137.00" fill="#0087ff" r="5.0" /><circle cx="75.00" cy="137.00" fill="#1047ff" r="5.0" /><circle cx="85.00" cy="137.00" fill="#2a2aff" r="5.0" /><circle cx="95.00" cy="137.00" fill="#3421ff" r="5.0" /><circle cx="105.00" cy="137.00" fill="#183dff" r="5.0" /><circle cx="115.00" cy="137.00" fill="#007cff" r="5.0" /><circle cx="125.00" cy="137.00" fill="#00c6e2" r="5.0" /><circle cx="135.00" cy="137.00" fill="#00faa7" r="5.0" /><circle cx="145.00" cy="137.00" fill="#00ff7c" r="5.0" /><circle cx="155.00" cy="137.00" fill="#00ff72" r="5.0" /><circle cx="165.00" cy="137.00" fill="#00ff67" r="5.0" /><circle cx="175.00" cy="137.00" fill="#00ff5c" r="5.0" /><circle cx="185.00" cy="137.00" fill="#08ff52" r="5.0" /><circle cx="195.00" cy="137.00" fill="#10ff48" r="5.0" /><circle cx="205.00" cy="137.00" fill="#18ff3d" r="5.0" /><circle cx="215.00" cy="137.00" fill="#18ff3d" r="5.0" /><circle cx="225.00" cy="137.00" fill="#21ff34" r="5.0" /><circle cx="235.00" cy="137.00" fill="#21ff34" r="5.0" /><circle cx="245.00" cy="137.00" fill="#21ff34" r="5.0" /><circle cx="255.00" cy="137.00" fill="#21ff34" r="5.0" /><circle cx="265.00" cy="137.00" fill="#18ff3d" r="5.0" /><circle cx="275.00" cy="137.00" fill="#00ff67" r="5.0" /><circle cx="285.00" cy="137.00" fill="#00f2b1" r="5.0" /><circle cx="295.00" cy="137.00" fill="#0092ff" r="5.0" /><circle cx="305.00" cy="137.00" fill="#2134ff" r="5.0" /><circle cx="315.00" cy="137.00" fill="#6700ff" r="5.0" /><circle cx="325.00" cy="137.00" fill="#9200ff" r="5.0" /><circle cx="335.00" cy="137.00" fill="#8700ff" r="5.0" /><circle cx="345.00" cy="137.00" fill="#5c00ff" r="5.0" /><circle cx="355.00" cy="137.00" fill="#2134ff" r="5.0" /><circle cx="365.00" cy="137.00" fill="#0072ff" r="5.0" /><circle cx="375.00" cy="137.00" fill="#009cff" r="5.0" /><circle cx="385.00" cy="137.00" fill="#00b1f2" r="5.0" /><circle cx="395.00" cy="137.00" fill="#00bcea" r="5.0" /><circle cx="405.00" cy="137.00" fill="#00bcea" r="5.0" /><circle cx="415.00" cy="137.00" fill="#00c6e2" r="5.0" /><circle cx="425.00" cy="137.00" fill="#00cfd9" r="5.0" /><circle cx="435.00" cy="137.00" fill="#00f2b1" r="5.0" /><circle cx="445.00" cy="137.00" fill="#00ff7c" r="5.0" /><circle cx="455.00" cy="137.00" fill="#21ff34" r="5.0" /><circle cx="465.00" cy="137.00" fill="#67ff00" r="5.0" /><circle cx="475.00" cy="137.00" fill="#a7fa00" r="5.0" /><circle cx="485.00" cy="137.00" fill="#cfd900" r="5.0" /><circle cx="495.00" cy="137.00" fill="#d9cf00" r="5.0" /><circle cx="505.00" cy="137.00" fill="#c6e200" r="5.0" /><circle cx="515.00" cy="137.00" fill="#92ff00" r="5.0" /><circle cx="525.00" cy="137.00" fill="#52ff08" r="5.0" /><circle cx="535.00" cy="137.00" fill="#18ff3d" r="5.0" /><circle cx="545.00" cy="137.00" fill="#00ff5c" r="5.0" /><circle cx="55.00" cy="111.00" fill="#00ff5c" r="5.0" /><circle cx="65.00" cy="111.00" fill="#00faa7" r="5.0" /><circle cx="75.00" cy="111.00" fill="#00bcea" r="5.0" /><circle cx="85.00" cy="111.00" fill="#0072ff" r="5.0" /><circle cx="95.00" cy="111.00" fill="#1047ff" r="5.0" /><circle cx="105.00" cy="111.00" fill="#183dff" r="5.0" /><circle cx="115.00" cy="111.00" fill="#0067ff" r="5.0" /><circle cx="125.00" cy="111.00" fill="#00a7fa" r="5.0" /><circle cx="135.00" cy="111.00" fill="#00e1c6" r="5.0" /><circle cx="145.00" cy="111.00" fill="#00ff87" r="5.0" /><circle cx="155.00" cy="111.00" fill="#00ff5c" r="5.0" /><circle cx="165.00" cy="111.00" fill="#21ff34" r="5.0" /><circle cx="175.00" cy="111.00" fill="#47ff10" r="5.0" /><circle cx="185.00" cy="111.00" fill="#72ff00" r="5.0" /><circle cx="195.00" cy="111.00" fill="#92ff00" r="5.0" /><circle cx="205.00" cy="111.00" fill="#b1f200" r="5.0" /><circle cx="215.00" cy="111.00" fill="#bcea00" r="5.0" /><circle cx="225.00" cy="111.00" fill="#bcea00" r="5.0" /><circle cx="235.00" cy="111.00" fill="#b1f200" r="5.0" /><circle cx="245.00" cy="111.00" fill="#b1f200" r="5.0" /><circle cx="255.00" cy="111.00" fill="#b1f200" r="5.0" /><circle cx="265.00" cy="111.00" fill="#a7fa00" r="5.0" /><circle cx="275.00" cy="111.00" fill="#87ff00" r="5.0" /><circle cx="285.00" cy="111.00" fill="#47ff10" r="5.0" /><circle cx="295.00" cy="111.00" fill="#00ff5c" r="5.0" /><circle cx="305.00" cy="111.00" fill="#00f2b1" r="5.0" /><circle cx="315.00" cy="111.00" fill="#00a7fa" r="5.0" /><circle cx="325.00" cy="111.00" fill="#007cff" r="5.0" /><circle cx="335.00" cy="111.00" fill="#0067ff" r="5.0" /><circle cx="345.00" cy="111.00" fill="#007cff" r="5.0" /><circle cx="355.00" cy="111.00" fill="#009cff" r="5.0" /><circle cx="365.00" cy="111.00" fill="#00bcea" r="5.0" /><circle cx="375.00" cy="111.00" fill="#00cfd9" r="5.0" /><circle cx="385.00" cy="111.00" fill="#00d9cf" r="5.0" /><circle cx="395.00" cy="111.00" fill="#00e1c6" r="5.0" /><circle cx="405.00" cy="111.00" fill="#00f2b1" r="5.0" /><circle cx="415.00" cy="111.00" fill="#00ff9d" r="5.0" /><circle cx="425.00" cy="111.00" fill="#00ff72" r="5.0" /><circle cx="435.00" cy="111.00" fill="#21ff34" r="5.0" /><circle cx="445.00" cy="111.00" fill="#67ff00" r="5.0" /><circle cx="455.00" cy="111.00" fill="#b1f200" r="5.0" /><circle cx="465.00" cy="111.00" fill="#eabc00" r="5.0" /><circle cx="475.00" cy="111.00" fill="#ff7200" r="5.0" /><circle cx="485.00" cy="111.00" fill="#ff3d18" r="5.0" /><circle cx="495.00" cy="111.00" fill="#ff2a2a" r="5.0" /><circle cx="505.00" cy="111.00" fill="#ff4710" r="5.0" /><circle cx="515.00" cy="111.00" fill="#ff9200" r="5.0" /><circle cx="525.00" cy="111.00" fill="#c6e200" r="5.0" /><circle cx="535.00" cy="111.00" fill="#67ff00" r="5.0" /><circle cx="545.00" cy="111.00" fill="#21ff34" r="5.0" /><circle cx="55.00" cy="85.00" fill="#00ff72" r="5.0" /><circle cx="65.00" cy="85.00" fill="#00eabc" r="5.0" /><circle cx="75.00" cy="85.00" fill="#0092ff" r="5.0" /><circle cx="85.00" cy="85.00" fill="#2a2aff" r="5.0" /><circle cx="95.00" cy="85.00" fill="#7c00ff" r="5.0" /><circle cx="105.00" cy="85.00" fill="#9c00ff" r="5.0" /><circle cx="115.00" cy="85.00" fill="#9c00ff" r="5.0" /><circle cx="125.00" cy="85.00" fill="#6700ff" r="5.0" /><circle cx="135.00" cy="85.00" fill="#183dff" r="5.0" /><circle cx="145.00" cy="85.00" fill="#0092ff" r="5.0" /><circle cx="155.00" cy="85.00" fill="#00cfd9" r="5.0" /><circle cx="165.00" cy="85.00" fill="#00ff92" r="5.0" /><circle cx="175.00" cy="85.00" fill="#08ff52" r="5.0" /><circle cx="185.00" cy="85.00" fill="#34ff21" r="5.0" /><circle cx="195.00" cy="85.00" fill="#5cff00" r="5.0" /><circle cx="205.00" cy="85.00" fill="#72ff00" r="5.0" /><circle cx="215.00" cy="85.00" fill="#67ff00" r="5.0" /><circle cx="225.00" cy="85.00" fill="#47ff10" r="5.0" /><circle cx="235.00" cy="85.00" fill="#34ff21" r="5.0" /><circle cx="245.00" cy="85.00" fill="#21ff34" r="5.0" /><circle cx="255.00" cy="85.00" fill="#21ff34" r="5.0" /><circle cx="265.00" cy="85.00" fill="#21ff34" r="5.0" /><circle cx="275.00" cy="85.00" fill="#18ff3d" r="5.0" /><circle cx="285.00" cy="85.00" fill="#08ff52" r="5.0" /><circle cx="295.00" cy="85.00" fill="#00ff67" r="5.0" /><circle cx="305.00" cy="85.00" fill="#00ff7c" r="5.0" /><circle cx="315.00" cy="85.00" fill="#00ff9d" r="5.0" /><circle cx="325.00" cy="85.00" fill="#00faa7" r="5.0" /><circle cx="335.00" cy="85.00" fill="#00f2b1" r="5.0" /><circle cx="345.00" cy="85.00" fill="#00f2b1" r="5.0" /><circle cx="355.00" cy="85.00" fill="#00faa7" r="5.0" /><circle cx="365.00" cy="85.00" fill="#00faa7" r="5.0" /><circle cx="375.00" cy="85.00" fill="#00f2b1" r="5.0" /><circle cx="385.00" cy="85.00" fill="#00d9cf" r="5.0" /><circle cx="395.00" cy="85.00" fill="#00b1f2" r="5.0" /><circle cx="405.00" cy="85.00" fill="#009cff" r="5.0" /><circle cx="415.00" cy="85.00" fill="#009cff" r="5.0" /><circle cx="425.00" cy="85.00" fill="#00b1f2" r="5.0" /><circle cx="435.00" cy="85.00" fill="#00e1c6" r="5.0" /><circle cx="445.00" cy="85.00" fill="#00ff7c" r="5.0" /><circle cx="455.00" cy="85.00" fill="#21ff34" r="5.0" /><circle cx="465.00" cy="85.00" fill="#67ff00" r="5.0" /><circle cx="475.00" cy="85.00" fill="#bcea00" r="5.0" /><circle cx="485.00" cy="85.00" fill="#faa700" r="5.0" /><circle cx="495.00" cy="85.00" fill="#ff7c00" r="5.0" /><circle cx="505.00" cy="85.00" fill="#ff8700" r="5.0" /><circle cx="515.00" cy="85.00" fill="#e2c600" r="5.0" /><circle cx="525.00" cy="85.00" fill="#87ff00" r="5.0" /><circle cx="535.00" cy="85.00" fill="#21ff34" r="5.0" /><circle cx="545.00" cy="85.00" fill="#00ff92" r="5.0" /><circle cx="55.00" cy="59.00" fill="#009cff" r="5.0" /><circle cx="65.00" cy="59.00" fill="#1047ff" r="5.0" /><circle cx="75.00" cy="59.00" fill="#5c00ff" r="5.0" /><circle cx="85.00" cy="59.00" fill="#bc00ea" r="5.0" /><circle cx="95.00" cy="59.00" fill="#fa00a7" r="5.0" /><circle cx="105.00" cy="59.00" fill="#ff0087" r="5.0" /><circle cx="115.00" cy="59.00" fill="#fa00a7" r="5.0" /><circle cx="125.00" cy="59.00" fill="#bc00ea" r="5.0" /><circle cx="135.00" cy="59.00" fill="#5c00ff" r="5.0" /><circle cx="145.00" cy="59.00" fill="#1047ff" r="5.0" /><circle cx="155.00" cy="59.00" fill="#009cff" r="5.0" /><circle cx="165.00" cy="59.00" fill="#00e1c6" r="5.0" /><circle cx="175.00" cy="59.00" fill="#00ff87" r="5.0" /><circle cx="185.00" cy="59.00" fill="#00ff5c" r="5.0" /><circle cx="195.00" cy="59.00" fill="#10ff48" r="5.0" /><circle cx="205.00" cy="59.00" fill="#00ff5c" r="5.0" /><circle cx="215.00" cy="59.00" fill="#00ff87" r="5.0" /><circle cx="225.00" cy="59.00" fill="#00eabc" r="5.0" /><circle cx="235.00" cy="59.00" fill="#00bcea" r="5.0" /><circle cx="245.00" cy="59.00" fill="#009cff" r="5.0" /><circle cx="255.00" cy="59.00" fill="#009cff" r="5.0" /><circle cx="265.00" cy="59.00" fill="#009cff" r="5.0" /><circle cx="275.00" cy="59.00" fill="#009cff" r="5.0" /><circle cx="285.00" cy="59.00" fill="#009cff" r="5.0" /><circle cx="295.00" cy="59.00" fill="#009cff" r="5.0" /><circle cx="305.00" cy="59.00" fill="#009cff" r="5.0" /><circle cx="315.00" cy="59.00" fill="#009cff" r="5.0" /><circle cx="325.00" cy="59.00" fill="#009cff" r="5.0" /><circle cx="335.00" cy="59.00" fill="#009cff" r="5.0" /><circle cx="345.00" cy="59.00" fill="#009cff" r="5.0" /><circle cx="355.00" cy="59.00" fill="#009cff" r="5.0" /><circle cx="365.00" cy="59.00" fill="#0092ff" r="5.0" /><circle cx="375.00" cy="59.00" fill="#007cff" r="5.0" /><circle cx="385.00" cy="59.00" fill="#1047ff" r="5.0" /><circle cx="395.00" cy="59.00" fill="#3d18ff" r="5.0" /><circle cx="405.00" cy="59.00" fill="#6700ff" r="5.0" /><circle cx="415.00" cy="59.00" fill="#7c00ff" r="5.0" /><circle cx="425.00" cy="59.00" fill="#6700ff" r="5.0" /><circle cx="435.00" cy="59.00" fill="#3d18ff" r="5.0" /><circle cx="445.00" cy="59.00" fill="#0852ff" r="5.0" /><circle cx="455.00" cy="59.00" fill="#009cff" r="5.0" /><circle cx="465.00" cy="59.00" fill="#00e1c6" r="5.0" /><circle cx="475.00" cy="59.00" fill="#00ff67" r="5.0" /><circle cx="485.00" cy="59.00" fill="#47ff10" r="5.0" /><circle cx="495.00" cy="59.00" fill="#92ff00" r="5.0" /><circle cx="505.00" cy="59.00" fill="#b1f200" r="5.0" /><circle cx="515.00" cy="59.00" fill="#92ff00" r="5.0" /><circle cx="525.00" cy="59.00" fill="#47ff10" r="5.0" /><circle cx="535.00" cy="59.00" fill="#00ff67" r="5.0" /><circle cx="545.00" cy="59.00" fill="#00e1c6" r="5.0" /><circle cx="55.00" cy="33.00" fill="#9200ff" r="5.0" /><circle cx="65.00" cy="33.00" fill="#d900cf" r="5.0" /><circle cx="75.00" cy="33.00" fill="#ff0087" r="5.0" /><circle cx="85.00" cy="33.00" fill="#ff1047" r="5.0" /><circle cx="95.00" cy="33.00" fill="#ff2a2a" r="5.0" /><circle cx="105.00" cy="33.00" fill="#ff2134" r="5.0" /><circle cx="115.00" cy="33.00" fill="#ff0071" r="5.0" /><circle cx="125.00" cy="33.00" fill="#d900cf" r="5.0" /><circle cx="135.00" cy="33.00" fill="#6700ff" r="5.0" /><circle cx="145.00" cy="33.00" fill="#1047ff" r="5.0" /><circle cx="155.00" cy="33.00" fill="#009cff" r="5.0" /><circle cx="165.00" cy="33.00" fill="#00e1c6" r="5.0" /><circle cx="175.00" cy="33.00" fill="#00ff92" r="5.0" /><circle cx="185.00" cy="33.00" fill="#00ff7c" r="5.0" /><circle cx="195.00" cy="33.00" fill="#00ff92" r="5.0" /><circle cx="205.00" cy="33.00" fill="#00eabc" r="5.0" /><circle cx="215.00" cy="33.00" fill="#00a7fa" r="5.0" /><circle cx="225.00" cy="33.00" fill="#0852ff" r="5.0" /><circle cx="235.00" cy="33.00" fill="#3d18ff" r="5.0" /><circle cx="245.00" cy="33.00" fill="#5c00ff" r="5.0" /><circle cx="255.00" cy="33.00" fill="#5c00ff" r="5.0" /><circle cx="265.00" cy="33.00" fill="#5208ff" r="5.0" /><circle cx="275.00" cy="33.00" fill="#4710ff" r="5.0" /><circle cx="285.00" cy="33.00" fill="#3d18ff" r="5.0" /><circle cx="295.00" cy="33.00" fill="#3421ff" r="5.0" /><circle cx="305.00" cy="33.00" fill="#2a2aff" r="5.0" /><circle cx="315.00" cy="33.00" fill="#2a2aff" r="5.0" /><circle cx="325.00" cy="33.00" fill="#2134ff" r="5.0" /><circle cx="335.00" cy="33.00" fill="#2134ff" r="5.0" /><circle cx="345.00" cy="33.00" fill="#2134ff" r="5.0" /><circle cx="355.00" cy="33.00" fill="#2134ff" r="5.0" /><circle cx="365.00" cy="33.00" fill="#2a2aff" r="5.0" /><circle cx="375.00" cy="33.00" fill="#4710ff" r="5.0" /><circle cx="385.00" cy="33.00" fill="#7c00ff" r="5.0" /><circle cx="395.00" cy="33.00" fill="#bc00ea" r="5.0" /><circle cx="405.00" cy="33.00" fill="#ea00bc" r="5.0" /><circle cx="415.00" cy="33.00" fill="#ff009c" r="5.0" /><circle cx="425.00" cy="33.00" fill="#fa00a7" r="5.0" /><circle cx="435.00" cy="33.00" fill="#d900cf" r="5.0" /><circle cx="445.00" cy="33.00" fill="#9c00ff" r="5.0" /><circle cx="455.00" cy="33.00" fill="#5c00ff" r="5.0" /><circle cx="465.00" cy="33.00" fill="#1047ff" r="5.0" /><circle cx="475.00" cy="33.00" fill="#00a7fa" r="5.0" /><circle cx="485.00" cy="33.00" fill="#00ff9d" r="5.0" /><circle cx="495.00" cy="33.00" fill="#18ff3d" r="5.0" /><circle cx="505.00" cy="33.00" fill="#3dff18" r="5.0" /><circle cx="515.00" cy="33.00" fill="#34ff21" r="5.0" /><circle cx="525.00" cy="33.00" fill="#08ff52" r="5.0" /><circle cx="535.00" cy="33.00" fill="#00faa7" r="5.0" /><circle cx="545.00" cy="33.00" fill="#00b1f2" r="5.0" /></g><g stroke="black"><line x1="50.00" x2="50.00" y1="280.00" y2="290.00" /><line x1="150.00" x2="150.00" y1="280.00" y2="290.00" /><line x1="250.00" x2="250.00" y1="280.00" y2="290.00" /><line x1="350.00" x2="350.00" y1="280.00" y2="290.00" /><line x1="450.00" x2="450.00" y1="280.00" y2="290.00" /><line x1="550.00" x2="550.00" y1="280.00" y2="290.00" /><line x1="100.00" x2="100.00" y1="280.00" y2="285.00" /><line x1="200.00" x2="200.00" y1="280.00" y2="285.00" /><line x1="300.00" x2="300.00" y1="280.00" y2="285.00" /><line x1="400.00" x2="400.00" y1="280.00" y2="285.00" /><line x1="500.00" x2="500.00" y1="280.00" y2="285.00" /><g fill="black" font-family="Arial" font-size="10" stroke="none" text-anchor="middle"><text x="50.00" y="300.00">0.00</text><text x="150.00" y="300.00">10.00</text><text x="250.00" y="300.00">20.00</text><text x="350.00" y="300.00">30.00</text><text x="450.00" y="300.00">40.00</text><text x="550.00" y="300.00">50.00</text></g><line x1="50.00" x2="550.00" y1="280.00" y2="280.00" /></g><g stroke="black"><line x1="50.00" x2="40.00" y1="280.00" y2="280.00" /><line x1="50.00" x2="40.00" y1="254.00" y2="254.00" /><line x1="50.00" x2="40.00" y1="228.00" y2="228.00" /><line x1="50.00" x2="40.00" y1="202.00" y2="202.00" /><line x1="50.00" x2="40.00" y1="176.00" y2="176.00" /><line x1="50.00" x2="40.00" y1="150.00" y2="150.00" /><line x1="50.00" x2="40.00" y1="124.00" y2="124.00" /><line x1="50.00" x2="40.00" y1="98.00" y2="98.00" /><line x1="50.00" x2="40.00" y1="72.00" y2="72.00" /><line x1="50.00" x2="40.00" y1="46.00" y2="46.00" /><line x1="50.00" x2="40.00" y1="20.00" y2="20.00" /><g fill="black" font-family="Arial" font-size="10" stroke="none" text-anchor="end"><text x="35.00" y="280.00">0.00</text><text x="35.00" y="254.00">1.00</text><text x="35.00" y="228.00">2.00</text><text x="35.00" y="202.00">3.00</text><text x="35.00" y="176.00">4.00</text><text x="35.00" y="150.00">5.00</text><text x="35.00" y="124.00">6.00</text><text x="35.00" y="98.00">7.00</text><text x="35.00" y="72.00">8.00</text><text x="35.00" y="46.00">9.00</text><text x="35.00" y="20.00">10.00</text></g><line x1="50.00" x2="50.00" y1="280.00" y2="20.00" /></g></g></svg>