<?xml version="1.0"?>
<svg height="320" version="1.1" width="600" xmlns:xlink="http://www.w3.org/1999/xlink" xmlns="http://www.w3.org/2000/svg"><g><g><circle cx="206.20" cy="266.89" fill="#009cff" r="2.2617085899003815" /><circle cx="207.98" cy="262.22" fill="#1047ff" r="2.2617085899003553" /><circle cx="210.00" cy="257.65" fill="#5c00ff" r="2.2617085899003815" /><circle cx="212.24" cy="253.18" fill="#bc00ea" r="2.2617085899003735" /><circle cx="214.70" cy="248.83" fill="#fa00a7" r="2.26170858990037" /><circle cx="217.38" cy="244.61" fill="#ff0087" r="2.2617085899003713" /><circle cx="220.27" cy="240.53" fill="#fa00a7" r="2.2617085899003726" /><circle cx="223.36" cy="236.60" fill="#bc00ea" r="2.261708589900372" /><circle cx="226.64" cy="232.83" fill="#5c00ff" r="2.261708589900375" /><circle cx="230.11" cy="229.22" fill="#1047ff" r="2.2617085899003686" /><circle cx="233.75" cy="225.80" fill="#009cff" r="2.2617085899003735" /><circle cx="237.56" cy="222.57" fill="#00e1c6" r="2.2617085899003926" /><circle cx="241.53" cy="219.53" fill="#00ff67" r="2.261708589900351" /><circle cx="245.65" cy="216.69" fill="#47ff10" r="2.261708589900405" /><circle cx="249.91" cy="214.07" fill="#92ff00" r="2.261708589900338" /><circle cx="254.29" cy="211.66" fill="#b1f200" r="2.261708589900403" /><circle cx="258.78" cy="209.47" fill="#92ff00" r="2.2617085899003375" /><circle cx="263.38" cy="207.52" fill="#47ff10" r="2.261708589900402" /><circle cx="268.08" cy="205.79" fill="#00ff67" r="2.2617085899003677" /><circle cx="272.85" cy="204.31" fill="#00e1c6" r="2.261708589900371" /><circle cx="277.69" cy="203.07" fill="#009cff" r="2.261708589900358" /><circle cx="282.59" cy="202.07" fill="#1047ff" r="2.2617085899004037" /><circle cx="287.53" cy="201.32" fill="#5c00ff" r="2.2617085899003486" /><circle cx="292.51" cy="200.81" fill="#bc00ea" r="2.261708589900387" /><circle cx="297.50" cy="200.56" fill="#fa00a7" r="2.261708589900358" /><circle cx="302.50" cy="200.56" fill="#ff0087" r="2.261708589900387" /><circle cx="307.49" cy="200.81" fill="#fa00a7" r="2.2617085899003584" /><circle cx="312.47" cy="201.32" fill="#bc00ea" r="2.2617085899003784" /><circle cx="317.41" cy="202.07" fill="#5c00ff" r="2.2617085899003455" /><circle cx="322.31" cy="203.07" fill="#1047ff" r="2.2617085899004135" /><circle cx="327.15" cy="204.31" fill="#009cff" r="2.2617085899003433" /><circle cx="331.92" cy="205.79" fill="#00e1c6" r="2.2617085899003944" /><circle cx="336.62" cy="207.52" fill="#00ff87" r="2.2617085899003486" /><circle cx="341.22" cy="209.47" fill="#00ff5c" r="2.261708589900395" /><circle cx="345.71" cy="211.66" fill="#10ff48" r="2.261708589900346" /><circle cx="350.09" cy="214.07" fill="#00ff5c" r="2.2617085899004015" /><circle cx="354.35" cy="216.69" fill="#00ff87" r="2.261708589900334" /><circle cx="358.47" cy="219.53" fill="#00eabc" r="2.261708589900402" /><circle cx="362.44" cy="222.57" fill="#00bcea" r="2.2617085899003904" /><circle cx="366.25" cy="225.80" fill="#009cff" r="2.261708589900344" /><circle cx="369.89" cy="229.22" fill="#009cff" r="2.261708589900379" /><circle cx="373.36" cy="232.83" fill="#009cff" r="2.261708589900365" /><circle cx="376.64" cy="236.60" fill="#009cff" r="2.2617085899004015" /><circle cx="379.73" cy="240.53" fill="#009cff" r="2.2617085899003526" /><circle cx="382.62" cy="244.61" fill="#009cff" r="2.2617085899003513" /><circle cx="385.30" cy="248.83" fill="#009cff" r="2.2617085899003895" /><circle cx="387.76" cy="253.18" fill="#009cff" r="2.2617085899004055" /><circle cx="390.00" cy="257.65" fill="#009cff" r="2.2617085899003557" /><circle cx="392.02" cy="262.22" fill="#009cff" r="2.26170858990035" /><circle cx="393.80" cy="266.89" fill="#009cff" r="2.2617085899003815" /><circle cx="188.29" cy="260.57" fill="#00ff72" r="2.7391804033237865" /><circle cx="190.41" cy="255.01" fill="#00eabc" r="2.739180403323791" /><circle cx="192.81" cy="249.56" fill="#0087ff" r="2.739180403323779" /><circle cx="195.48" cy="244.24" fill="#3421ff" r="2.739180403323787" /><circle cx="198.42" cy="239.06" fill="#9c00ff" r="2.739180403323786" /><circle cx="201.61" cy="234.03" fill="#d900cf" r="2.7391804033237825" /><circle cx="205.04" cy="229.17" fill="#e200c5" r="2.7391804033237825" /><circle cx="208.72" cy="224.49" fill="#c600e1" r="2.739180403323782" /><circle cx="212.63" cy="220.00" fill="#7c00ff" r="2.7391804033237883" /><circle cx="216.76" cy="215.71" fill="#3421ff" r="2.7391804033237843" /><circle cx="221.10" cy="211.63" fill="#0067ff" r="2.7391804033237745" /><circle cx="225.64" cy="207.78" fill="#00a7fa" r="2.73918040332382" /><circle cx="230.37" cy="204.16" fill="#00faa7" r="2.739180403323757" /><circle cx="235.27" cy="200.78" fill="#18ff3d" r="2.7391804033238007" /><circle cx="240.34" cy="197.66" fill="#67ff00" r="2.739180403323761" /><circle cx="245.56" cy="194.79" fill="#9cff00" r="2.7391804033238136" /><circle cx="250.91" cy="192.19" fill="#a7fa00" r="2.7391804033237603" /><circle cx="256.39" cy="189.86" fill="#7cff00" r="2.7391804033238083" /><circle cx="261.98" cy="187.80" fill="#3dff18" r="2.7391804033237626" /><circle cx="267.67" cy="186.04" fill="#00ff5c" r="2.739180403323795" /><circle cx="273.43" cy="184.56" fill="#00faa7" r="2.739180403323761" /><circle cx="279.27" cy="183.37" fill="#00bcea" r="2.739180403323817" /><circle cx="285.15" cy="182.47" fill="#0072ff" r="2.739180403323763" /><circle cx="291.08" cy="181.87" fill="#3421ff" r="2.7391804033238163" /><circle cx="297.02" cy="181.57" fill="#6700ff" r="2.7391804033237577" /><circle cx="302.98" cy="181.57" fill="#6700ff" r="2.739180403323786" /><circle cx="308.92" cy="181.87" fill="#3d18ff" r="2.7391804033237594" /><circle cx="314.85" cy="182.47" fill="#0067ff" r="2.73918040332382" /><circle cx="320.73" cy="183.37" fill="#00c6e2" r="2.7391804033237612" /><circle cx="326.57" cy="184.56" fill="#00ff87" r="2.7391804033238163" /><circle cx="332.33" cy="186.04" fill="#21ff34" r="2.7391804033237674" /><circle cx="338.02" cy="187.80" fill="#5cff00" r="2.739180403323794" /><circle cx="343.61" cy="189.86" fill="#9cff00" r="2.73918040332375" /><circle cx="349.09" cy="192.19" fill="#bcea00" r="2.739180403323812" /><circle cx="354.44" cy="194.79" fill="#b1f200" r="2.7391804033237634" /><circle cx="359.66" cy="197.66" fill="#87ff00" r="2.7391804033237976" /><circle cx="364.73" cy="200.78" fill="#47ff10" r="2.739180403323769" /><circle cx="369.63" cy="204.16" fill="#08ff52" r="2.7391804033238047" /><circle cx="374.36" cy="207.78" fill="#00ff87" r="2.739180403323824" /><circle cx="378.90" cy="211.63" fill="#00faa7" r="2.7391804033237426" /><circle cx="383.24" cy="215.71" fill="#00faa7" r="2.7391804033237643" /><circle cx="387.37" cy="220.00" fill="#00faa7" r="2.7391804033238087" /><circle cx="391.28" cy="224.49" fill="#00faa7" r="2.7391804033238114" /><circle cx="394.96" cy="229.17" fill="#00e1c6" r="2.7391804033237546" /><circle cx="398.39" cy="234.03" fill="#00b1f2" r="2.7391804033237706" /><circle cx="401.58" cy="239.06" fill="#0072ff" r="2.739180403323798" /><circle cx="404.52" cy="244.24" fill="#2134ff" r="2.739180403323825" /><circle cx="407.19" cy="249.56" fill="#5208ff" r="2.7391804033237475" /><circle cx="409.59" cy="255.01" fill="#7c00ff" r="2.7391804033237594" /><circle cx="411.71" cy="260.57" fill="#9200ff" r="2.739180403323813" /><circle cx="170.38" cy="254.25" fill="#00ff5c" r="3.216652216747196" /><circle cx="172.84" cy="247.80" fill="#00faa7" r="3.2166522167471876" /><circle cx="175.63" cy="241.47" fill="#00a7fa" r="3.2166522167472023" /><circle cx="178.72" cy="235.30" fill="#2134ff" r="3.2166522167471943" /><circle cx="182.13" cy="229.29" fill="#7c00ff" r="3.2166522167471943" /><circle cx="185.83" cy="223.45" fill="#c600e1" r="3.216652216747194" /><circle cx="189.82" cy="217.81" fill="#e200c5" r="3.216652216747193" /><circle cx="194.09" cy="212.38" fill="#d900cf" r="3.21665221674719" /><circle cx="198.62" cy="207.17" fill="#bc00ea" r="3.2166522167472125" /><circle cx="203.42" cy="202.19" fill="#9200ff" r="3.2166522167471796" /><circle cx="208.45" cy="197.47" fill="#6700ff" r="3.216652216747204" /><circle cx="213.72" cy="193.00" fill="#4710ff" r="3.2166522167472205" /><circle cx="219.21" cy="188.80" fill="#1047ff" r="3.2166522167471707" /><circle cx="224.89" cy="184.88" fill="#0087ff" r="3.2166522167472236" /><circle cx="230.77" cy="181.25" fill="#00c6e2" r="3.216652216747169" /><circle cx="236.83" cy="177.92" fill="#00f2b1" r="3.216652216747225" /><circle cx="243.04" cy="174.90" fill="#00faa7" r="3.216652216747163" /><circle cx="249.40" cy="172.20" fill="#00faa7" r="3.2166522167472253" /><circle cx="255.88" cy="169.82" fill="#00e1c6" r="3.2166522167471667" /><circle cx="262.48" cy="167.76" fill="#00bcea" r="3.216652216747215" /><circle cx="269.17" cy="166.04" fill="#009cff" r="3.2166522167471943" /><circle cx="275.94" cy="164.67" fill="#0072ff" r="3.2166522167472" /><circle cx="282.77" cy="163.63" fill="#1047ff" r="3.2166522167471796" /><circle cx="289.65" cy="162.93" fill="#2a2aff" r="3.216652216747218" /><circle cx="296.55" cy="162.59" fill="#3421ff" r="3.2166522167471854" /><circle cx="303.45" cy="162.59" fill="#183dff" r="3.216652216747214" /><circle cx="310.35" cy="162.93" fill="#0087ff" r="3.216652216747161" /><circle cx="317.23" cy="163.63" fill="#00eabc" r="3.216652216747236" /><circle cx="324.06" cy="164.67" fill="#08ff52" r="3.2166522167471725" /><circle cx="330.83" cy="166.04" fill="#5cff00" r="3.2166522167472222" /><circle cx="337.52" cy="167.76" fill="#b1f200" r="3.2166522167471605" /><circle cx="344.12" cy="169.82" fill="#eabc00" r="3.2166522167472205" /><circle cx="350.60" cy="172.20" fill="#ff9d00" r="3.2166522167471676" /><circle cx="356.96" cy="174.90" fill="#f2b100" r="3.2166522167472205" /><circle cx="363.17" cy="177.92" fill="#bcea00" r="3.2166522167471614" /><circle cx="369.23" cy="181.25" fill="#52ff08" r="3.216652216747247" /><circle cx="375.11" cy="184.88" fill="#00ff72" r="3.216652216747157" /><circle cx="380.79" cy="188.80" fill="#00cfd9" r="3.2166522167472302" /><circle cx="386.28" cy="193.00" fill="#0092ff" r="3.2166522167472182" /><circle cx="391.55" cy="197.47" fill="#007cff" r="3.216652216747174" /><circle cx="396.58" cy="202.19" fill="#009cff" r="3.2166522167471694" /><circle cx="401.38" cy="207.17" fill="#00bcea" r="3.216652216747233" /><circle cx="405.91" cy="212.38" fill="#00c6e2" r="3.2166522167472102" /><circle cx="410.18" cy="217.81" fill="#00bcea" r="3.216652216747173" /><circle cx="414.17" cy="223.45" fill="#0087ff" r="3.216652216747174" /><circle cx="417.87" cy="229.29" fill="#183dff" r="3.2166522167472067" /><circle cx="421.28" cy="235.30" fill="#6700ff" r="3.216652216747233" /><circle cx="424.37" cy="241.47" fill="#bc00ea" r="3.2166522167471645" /><circle cx="427.16" cy="247.80" fill="#f200b1" r="3.216652216747169" /><circle cx="429.62" cy="254.25" fill="#ff0092" r="3.216652216747241" /><circle cx="152.47" cy="247.93" fill="#00cfd9" r="3.694124030170601" /><circle cx="155.27" cy="240.58" fill="#0087ff" r="3.69412403017061" /><circle cx="158.44" cy="233.39" fill="#183dff" r="3.6941240301706197" /><circle cx="161.97" cy="226.36" fill="#5c00ff" r="3.6941240301705953" /><circle cx="165.84" cy="219.52" fill="#9c00ff" r="3.6941240301706104" /><circle cx="170.05" cy="212.88" fill="#b100f2" r="3.694124030170605" /><circle cx="174.59" cy="206.46" fill="#b100f2" r="3.6941240301706033" /><circle cx="179.45" cy="200.27" fill="#9c00ff" r="3.69412403017062" /><circle cx="184.62" cy="194.34" fill="#7c00ff" r="3.6941240301706064" /><circle cx="190.07" cy="188.68" fill="#6700ff" r="3.6941240301705953" /><circle cx="195.80" cy="183.30" fill="#5c00ff" r="3.694124030170622" /><circle cx="201.80" cy="178.21" fill="#5208ff" r="3.6941240301706317" /><circle cx="208.04" cy="173.43" fill="#4710ff" r="3.6941240301705847" /><circle cx="214.52" cy="168.97" fill="#3421ff" r="3.6941240301706317" /><circle cx="221.21" cy="164.84" fill="#2a2aff" r="3.6941240301705744" /><circle cx="228.10" cy="161.05" fill="#183dff" r="3.694124030170648" /><circle cx="235.17" cy="157.61" fill="#183dff" r="3.694124030170573" /><circle cx="242.41" cy="154.54" fill="#183dff" r="3.694124030170635" /><circle cx="249.79" cy="151.83" fill="#183dff" r="3.694124030170593" /><circle cx="257.30" cy="149.49" fill="#2134ff" r="3.6941240301706393" /><circle cx="264.91" cy="147.53" fill="#2134ff" r="3.694124030170569" /><circle cx="272.62" cy="145.96" fill="#2a2aff" r="3.6941240301706415" /><circle cx="280.39" cy="144.78" fill="#3d18ff" r="3.6941240301705642" /><circle cx="288.22" cy="143.99" fill="#5208ff" r="3.6941240301706477" /><circle cx="296.07" cy="143.60" fill="#5c00ff" r="3.6941240301705855" /><circle cx="303.93" cy="143.60" fill="#4710ff" r="3.694124030170614" /><circle cx="311.78" cy="143.99" fill="#183dff" r="3.694124030170591" /><circle cx="319.61" cy="144.78" fill="#0087ff" r="3.694124030170649" /><circle cx="327.38" cy="145.96" fill="#00d9cf" r="3.6941240301705576" /><circle cx="335.09" cy="147.53" fill="#00ff7c" r="3.694124030170652" /><circle cx="342.70" cy="149.49" fill="#21ff34" r="3.6941240301705576" /><circle cx="350.21" cy="151.83" fill="#5cff00" r="3.6941240301706517" /><circle cx="357.59" cy="154.54" fill="#72ff00" r="3.69412403017059" /><circle cx="364.83" cy="157.61" fill="#52ff08" r="3.6941240301706437" /><circle cx="371.90" cy="161.05" fill="#08ff52" r="3.6941240301705722" /><circle cx="378.79" cy="164.84" fill="#00e1c6" r="3.6941240301706184" /><circle cx="385.48" cy="168.97" fill="#0072ff" r="3.694124030170592" /><circle cx="391.96" cy="173.43" fill="#3d18ff" r="3.694124030170624" /><circle cx="398.20" cy="178.21" fill="#6700ff" r="3.6941240301706606" /><circle cx="404.20" cy="183.30" fill="#5c00ff" r="3.6941240301705824" /><circle cx="409.93" cy="188.68" fill="#2134ff" r="3.6941240301705753" /><circle cx="415.38" cy="194.34" fill="#0072ff" r="3.694124030170617" /><circle cx="420.55" cy="200.27" fill="#00a7fa" r="3.694124030170642" /><circle cx="425.41" cy="206.46" fill="#00c6e2" r="3.69412403017058" /><circle cx="429.95" cy="212.88" fill="#00bcea" r="3.6941240301705656" /><circle cx="434.16" cy="219.52" fill="#009cff" r="3.6941240301706566" /><circle cx="438.03" cy="226.36" fill="#005cff" r="3.6941240301706397" /><circle cx="441.56" cy="233.39" fill="#3421ff" r="3.694124030170569" /><circle cx="444.73" cy="240.58" fill="#7200ff" r="3.694124030170589" /><circle cx="447.53" cy="247.93" fill="#8700ff" r="3.6941240301706366" /><circle cx="134.56" cy="241.61" fill="#009cff" r="4.171595843594033" /><circle cx="137.70" cy="233.37" fill="#0852ff" r="4.171595843594025" /><circle cx="141.25" cy="225.30" fill="#3d18ff" r="4.1715958435940115" /><circle cx="145.21" cy="217.42" fill="#6700ff" r="4.171595843594015" /><circle cx="149.55" cy="209.74" fill="#7c00ff" r="4.1715958435940195" /><circle cx="154.28" cy="202.30" fill="#6700ff" r="4.171595843594024" /><circle cx="159.37" cy="195.10" fill="#3d18ff" r="4.171595843594013" /><circle cx="164.82" cy="188.17" fill="#1047ff" r="4.1715958435940195" /><circle cx="170.61" cy="181.52" fill="#007cff" r="4.171595843594021" /><circle cx="176.72" cy="175.16" fill="#0092ff" r="4.171595843594021" /><circle cx="183.15" cy="169.13" fill="#009cff" r="4.171595843594023" /><circle cx="189.87" cy="163.42" fill="#009cff" r="4.1715958435940586" /><circle cx="196.88" cy="158.06" fill="#009cff" r="4.1715958435939875" /><circle cx="204.14" cy="153.06" fill="#009cff" r="4.1715958435940586" /><circle cx="211.64" cy="148.43" fill="#009cff" r="4.171595843593965" /><circle cx="219.37" cy="144.18" fill="#009cff" r="4.171595843594066" /><circle cx="227.30" cy="140.33" fill="#009cff" r="4.171595843593983" /><circle cx="235.41" cy="136.88" fill="#009cff" r="4.171595843594058" /><circle cx="243.69" cy="133.84" fill="#009cff" r="4.171595843593984" /><circle cx="252.11" cy="131.22" fill="#009cff" r="4.171595843594063" /><circle cx="260.65" cy="129.02" fill="#009cff" r="4.1715958435939715" /><circle cx="269.29" cy="127.26" fill="#0092ff" r="4.171595843594055" /><circle cx="278.01" cy="125.94" fill="#007cff" r="4.171595843593979" /><circle cx="286.78" cy="125.05" fill="#1047ff" r="4.171595843594077" /><circle cx="295.59" cy="124.61" fill="#3d18ff" r="4.171595843593956" /><circle cx="304.41" cy="124.61" fill="#6700ff" r="4.17159584359407" /><circle cx="313.22" cy="125.05" fill="#7c00ff" r="4.171595843593992" /><circle cx="321.99" cy="125.94" fill="#6700ff" r="4.171595843594037" /><circle cx="330.71" cy="127.26" fill="#3d18ff" r="4.171595843593996" /><circle cx="339.35" cy="129.02" fill="#0852ff" r="4.171595843594058" /><circle cx="347.89" cy="131.22" fill="#009cff" r="4.171595843593978" /><circle cx="356.31" cy="133.84" fill="#00d9cf" r="4.1715958435940514" /><circle cx="364.59" cy="136.88" fill="#00faa7" r="4.171595843593987" /><circle cx="372.70" cy="140.33" fill="#00f2b1" r="4.171595843594072" /><circle cx="380.63" cy="144.18" fill="#00d9cf" r="4.171595843593977" /><circle cx="388.36" cy="148.43" fill="#009cff" r="4.17159584359406" /><circle cx="395.86" cy="153.06" fill="#005cff" r="4.171595843593988" /><circle cx="403.12" cy="158.06" fill="#2134ff" r="4.171595843594027" /><circle cx="410.13" cy="163.42" fill="#2134ff" r="4.171595843594067" /><circle cx="416.85" cy="169.13" fill="#005cff" r="4.171595843593983" /><circle cx="423.28" cy="175.16" fill="#009cff" r="4.171595843593981" /><circle cx="429.39" cy="181.52" fill="#00e1c6" r="4.1715958435940514" /><circle cx="435.18" cy="188.17" fill="#00ff87" r="4.171595843594059" /><circle cx="440.63" cy="195.10" fill="#00ff5c" r="4.171595843593982" /><circle cx="445.72" cy="202.30" fill="#10ff48" r="4.171595843593985" /><circle cx="450.45" cy="209.74" fill="#00ff5c" r="4.171595843594065" /><circle cx="454.79" cy="217.42" fill="#00ff87" r="4.171595843594046" /><circle cx="458.75" cy="225.30" fill="#00eabc" r="4.171595843593986" /><circle cx="462.30" cy="233.37" fill="#00bcea" r="4.171595843593986" /><circle cx="465.44" cy="241.61" fill="#009cff" r="4.171595843594055" /><circle cx="116.65" cy="235.29" fill="#00cfd9" r="4.649067657017429" /><circle cx="120.13" cy="226.16" fill="#0087ff" r="4.649067657017435" /><circle cx="124.07" cy="217.21" fill="#1047ff" r="4.6490676570174285" /><circle cx="128.45" cy="208.48" fill="#2a2aff" r="4.649067657017436" /><circle cx="133.26" cy="199.97" fill="#3421ff" r="4.649067657017428" /><circle cx="138.50" cy="191.72" fill="#183dff" r="4.649067657017424" /><circle cx="144.14" cy="183.74" fill="#007cff" r="4.649067657017444" /><circle cx="150.18" cy="176.06" fill="#00c6e2" r="4.649067657017429" /><circle cx="156.60" cy="168.69" fill="#00faa7" r="4.649067657017436" /><circle cx="163.38" cy="161.65" fill="#00ff7c" r="4.649067657017427" /><circle cx="170.50" cy="154.96" fill="#00ff72" r="4.649067657017443" /><circle cx="177.95" cy="148.64" fill="#00ff67" r="4.649067657017479" /><circle cx="185.71" cy="142.70" fill="#00ff5c" r="4.6490676570173814" /><circle cx="193.76" cy="137.15" fill="#08ff52" r="4.649067657017474" /><circle cx="202.08" cy="132.02" fill="#10ff48" r="4.649067657017381" /><circle cx="210.64" cy="127.31" fill="#18ff3d" r="4.6490676570174765" /><circle cx="219.43" cy="123.04" fill="#18ff3d" r="4.649067657017386" /><circle cx="228.42" cy="119.22" fill="#21ff34" r="4.64906765701748" /><circle cx="237.60" cy="115.85" fill="#21ff34" r="4.649067657017383" /><circle cx="246.93" cy="112.94" fill="#21ff34" r="4.649067657017488" /><circle cx="256.39" cy="110.51" fill="#21ff34" r="4.649067657017375" /><circle cx="265.97" cy="108.56" fill="#18ff3d" r="4.649067657017496" /><circle cx="275.63" cy="107.09" fill="#00ff67" r="4.649067657017364" /><circle cx="285.35" cy="106.11" fill="#00f2b1" r="4.649067657017479" /><circle cx="295.11" cy="105.62" fill="#0092ff" r="4.649067657017384" /><circle cx="304.89" cy="105.62" fill="#2134ff" r="4.649067657017498" /><circle cx="314.65" cy="106.11" fill="#6700ff" r="4.649067657017366" /><circle cx="324.37" cy="107.09" fill="#9200ff" r="4.649067657017478" /><circle cx="334.03" cy="108.56" fill="#8700ff" r="4.64906765701741" /><circle cx="343.61" cy="110.51" fill="#5c00ff" r="4.6490676570174605" /><circle cx="353.07" cy="112.94" fill="#2134ff" r="4.649067657017398" /><circle cx="362.40" cy="115.85" fill="#0072ff" r="4.64906765701746" /><circle cx="371.58" cy="119.22" fill="#009cff" r="4.649067657017377" /><circle cx="380.57" cy="123.04" fill="#00b1f2" r="4.649067657017501" /><circle cx="389.36" cy="127.31" fill="#00bcea" r="4.6490676570173814" /><circle cx="397.92" cy="132.02" fill="#00bcea" r="4.649067657017471" /><circle cx="406.24" cy="137.15" fill="#00c6e2" r="4.649067657017391" /><circle cx="414.29" cy="142.70" fill="#00cfd9" r="4.649067657017476" /><circle cx="422.05" cy="148.64" fill="#00f2b1" r="4.649067657017479" /><circle cx="429.50" cy="154.96" fill="#00ff7c" r="4.6490676570173814" /><circle cx="436.62" cy="161.65" fill="#21ff34" r="4.649067657017376" /><circle cx="443.40" cy="168.69" fill="#67ff00" r="4.6490676570174845" /><circle cx="449.82" cy="176.06" fill="#a7fa00" r="4.64906765701748" /><circle cx="455.86" cy="183.74" fill="#cfd900" r="4.6490676570174" /><circle cx="461.50" cy="191.72" fill="#d9cf00" r="4.649067657017376" /><circle cx="466.74" cy="199.97" fill="#c6e200" r="4.649067657017474" /><circle cx="471.55" cy="208.48" fill="#92ff00" r="4.64906765701748" /><circle cx="475.93" cy="217.21" fill="#52ff08" r="4.649067657017378" /><circle cx="479.87" cy="226.16" fill="#18ff3d" r="4.649067657017408" /><circle cx="483.35" cy="235.29" fill="#00ff5c" r="4.649067657017469" /><circle cx="98.74" cy="228.97" fill="#00ff5c" r="5.126539470440848" /><circle cx="102.56" cy="218.94" fill="#00faa7" r="5.126539470440844" /><circle cx="106.88" cy="209.12" fill="#00bcea" r="5.126539470440839" /><circle cx="111.69" cy="199.54" fill="#0072ff" r="5.126539470440837" /><circle cx="116.98" cy="190.20" fill="#1047ff" r="5.126539470440855" /><circle cx="122.72" cy="181.14" fill="#183dff" r="5.126539470440831" /><circle cx="128.92" cy="172.39" fill="#0067ff" r="5.126539470440833" /><circle cx="135.55" cy="163.95" fill="#00a7fa" r="5.126539470440859" /><circle cx="142.59" cy="155.86" fill="#00e1c6" r="5.126539470440849" /><circle cx="150.03" cy="148.14" fill="#00ff87" r="5.126539470440842" /><circle cx="157.85" cy="140.79" fill="#00ff5c" r="5.126539470440843" /><circle cx="166.03" cy="133.85" fill="#21ff34" r="5.126539470440889" /><circle cx="174.55" cy="127.33" fill="#47ff10" r="5.126539470440796" /><circle cx="183.38" cy="121.24" fill="#72ff00" r="5.12653947044089" /><circle cx="192.51" cy="115.61" fill="#92ff00" r="5.126539470440804" /><circle cx="201.91" cy="110.44" fill="#b1f200" r="5.126539470440887" /><circle cx="211.56" cy="105.75" fill="#bcea00" r="5.126539470440809" /><circle cx="221.43" cy="101.56" fill="#bcea00" r="5.126539470440876" /><circle cx="231.50" cy="97.86" fill="#b1f200" r="5.126539470440797" /><circle cx="241.74" cy="94.67" fill="#b1f200" r="5.126539470440894" /><circle cx="252.13" cy="92.00" fill="#b1f200" r="5.126539470440808" /><circle cx="262.64" cy="89.86" fill="#a7fa00" r="5.126539470440879" /><circle cx="273.25" cy="88.25" fill="#87ff00" r="5.126539470440808" /><circle cx="283.92" cy="87.17" fill="#47ff10" r="5.126539470440881" /><circle cx="294.64" cy="86.63" fill="#00ff5c" r="5.126539470440783" /><circle cx="305.36" cy="86.63" fill="#00f2b1" r="5.126539470440897" /><circle cx="316.08" cy="87.17" fill="#00a7fa" r="5.126539470440797" /><circle cx="326.75" cy="88.25" fill="#007cff" r="5.126539470440893" /><circle cx="337.36" cy="89.86" fill="#0067ff" r="5.126539470440796" /><circle cx="347.87" cy="92.00" fill="#007cff" r="5.126539470440894" /><circle cx="358.26" cy="94.67" fill="#009cff" r="5.126539470440791" /><circle cx="368.50" cy="97.86" fill="#00bcea" r="5.126539470440886" /><circle cx="378.57" cy="101.56" fill="#00cfd9" r="5.126539470440799" /><circle cx="388.44" cy="105.75" fill="#00d9cf" r="5.126539470440904" /><circle cx="398.09" cy="110.44" fill="#00e1c6" r="5.126539470440785" /><circle cx="407.49" cy="115.61" fill="#00f2b1" r="5.126539470440881" /><circle cx="416.62" cy="121.24" fill="#00ff9d" r="5.126539470440811" /><circle cx="425.45" cy="127.33" fill="#00ff72" r="5.1265394704408855" /><circle cx="433.97" cy="133.85" fill="#21ff34" r="5.1265394704408775" /><circle cx="442.15" cy="140.79" fill="#67ff00" r="5.126539470440813" /><circle cx="449.97" cy="148.14" fill="#b1f200" r="5.126539470440812" /><circle cx="457.41" cy="155.86" fill="#eabc00" r="5.126539470440879" /><circle cx="464.45" cy="163.95" fill="#ff7200" r="5.12653947044089" /><circle cx="471.08" cy="172.39" fill="#ff3d18" r="5.126539470440785" /><circle cx="477.28" cy="181.14" fill="#ff2a2a" r="5.126539470440799" /><circle cx="483.02" cy="190.20" fill="#ff4710" r="5.126539470440894" /><circle cx="488.31" cy="199.54" fill="#ff9200" r="5.126539470440874" /><circle cx="493.12" cy="209.12" fill="#c6e200" r="5.126539470440807" /><circle cx="497.44" cy="218.94" fill="#67ff00" r="5.126539470440805" /><circle cx="501.26" cy="228.97" fill="#21ff34" r="5.126539470440897" /><circle cx="80.82" cy="222.64" fill="#00ff72" r="5.604011283864257" /><circle cx="84.99" cy="211.73" fill="#00eabc" r="5.604011283864254" /><circle cx="89.69" cy="201.04" fill="#0092ff" r="5.604011283864276" /><circle cx="94.93" cy="190.60" fill="#2a2aff" r="5.604011283864237" /><circle cx="100.69" cy="180.43" fill="#7c00ff" r="5.604011283864252" /><circle cx="106.95" cy="170.57" fill="#9c00ff" r="5.604011283864266" /><circle cx="113.69" cy="161.03" fill="#9c00ff" r="5.604011283864252" /><circle cx="120.91" cy="151.85" fill="#6700ff" r="5.604011283864247" /><circle cx="128.58" cy="143.03" fill="#183dff" r="5.6040112838642635" /><circle cx="136.69" cy="134.62" fill="#0092ff" r="5.6040112838642475" /><circle cx="145.20" cy="126.62" fill="#00cfd9" r="5.604011283864263" /><circle cx="154.11" cy="119.06" fill="#00ff92" r="5.604011283864309" /><circle cx="163.38" cy="111.96" fill="#08ff52" r="5.604011283864209" /><circle cx="173.00" cy="105.34" fill="#34ff21" r="5.604011283864304" /><circle cx="182.94" cy="99.20" fill="#5cff00" r="5.604011283864202" /><circle cx="193.18" cy="93.57" fill="#72ff00" r="5.604011283864304" /><circle cx="203.69" cy="88.47" fill="#67ff00" r="5.604011283864212" /><circle cx="214.44" cy="83.90" fill="#47ff10" r="5.604011283864307" /><circle cx="225.40" cy="79.87" fill="#34ff21" r="5.6040112838642" /><circle cx="236.56" cy="76.40" fill="#21ff34" r="5.604011283864305" /><circle cx="247.87" cy="73.49" fill="#21ff34" r="5.60401128386421" /><circle cx="259.32" cy="71.16" fill="#21ff34" r="5.604011283864293" /><circle cx="270.87" cy="69.41" fill="#18ff3d" r="5.604011283864221" /><circle cx="282.49" cy="68.23" fill="#08ff52" r="5.604011283864282" /><circle cx="294.16" cy="67.65" fill="#00ff67" r="5.604011283864212" /><circle cx="305.84" cy="67.65" fill="#00ff7c" r="5.604011283864326" /><circle cx="317.51" cy="68.23" fill="#00ff9d" r="5.604011283864198" /><circle cx="329.13" cy="69.41" fill="#00faa7" r="5.604011283864307" /><circle cx="340.68" cy="71.16" fill="#00f2b1" r="5.604011283864207" /><circle cx="352.13" cy="73.49" fill="#00f2b1" r="5.604011283864296" /><circle cx="363.44" cy="76.40" fill="#00faa7" r="5.6040112838642155" /><circle cx="374.60" cy="79.87" fill="#00faa7" r="5.604011283864286" /><circle cx="385.56" cy="83.90" fill="#00f2b1" r="5.604011283864223" /><circle cx="396.31" cy="88.47" fill="#00d9cf" r="5.604011283864307" /><circle cx="406.82" cy="93.57" fill="#00b1f2" r="5.604011283864196" /><circle cx="417.06" cy="99.20" fill="#009cff" r="5.60401128386431" /><circle cx="427.00" cy="105.34" fill="#009cff" r="5.604011283864214" /><circle cx="436.62" cy="111.96" fill="#00b1f2" r="5.60401128386428" /><circle cx="445.89" cy="119.06" fill="#00e1c6" r="5.604011283864329" /><circle cx="454.80" cy="126.62" fill="#00ff7c" r="5.604011283864191" /><circle cx="463.31" cy="134.62" fill="#21ff34" r="5.604011283864217" /><circle cx="471.42" cy="143.03" fill="#67ff00" r="5.604011283864304" /><circle cx="479.09" cy="151.85" fill="#bcea00" r="5.604011283864307" /><circle cx="486.31" cy="161.03" fill="#faa700" r="5.6040112838641924" /><circle cx="493.05" cy="170.57" fill="#ff7c00" r="5.604011283864215" /><circle cx="499.31" cy="180.43" fill="#ff8700" r="5.6040112838643035" /><circle cx="505.07" cy="190.60" fill="#e2c600" r="5.604011283864308" /><circle cx="510.31" cy="201.04" fill="#87ff00" r="5.604011283864212" /><circle cx="515.01" cy="211.73" fill="#21ff34" r="5.604011283864203" /><circle cx="519.18" cy="222.64" fill="#00ff92" r="5.604011283864293" /><circle cx="62.91" cy="216.32" fill="#009cff" r="6.0814830972876806" /><circle cx="67.42" cy="204.52" fill="#1047ff" r="6.081483097287663" /><circle cx="72.51" cy="192.95" fill="#5c00ff" r="6.081483097287667" /><circle cx="78.17" cy="181.66" fill="#bc00ea" r="6.0814830972876575" /><circle cx="84.40" cy="170.66" fill="#fa00a7" r="6.0814830972876734" /><circle cx="91.17" cy="159.99" fill="#ff0087" r="6.081483097287661" /><circle cx="98.47" cy="149.67" fill="#fa00a7" r="6.0814830972876734" /><circle cx="106.28" cy="139.74" fill="#bc00ea" r="6.081483097287657" /><circle cx="114.57" cy="130.21" fill="#5c00ff" r="6.081483097287678" /><circle cx="123.34" cy="121.11" fill="#1047ff" r="6.081483097287663" /><circle cx="132.55" cy="112.46" fill="#009cff" r="6.081483097287672" /><circle cx="142.19" cy="104.28" fill="#00e1c6" r="6.081483097287719" /><circle cx="152.22" cy="96.60" fill="#00ff87" r="6.081483097287624" /><circle cx="162.63" cy="89.43" fill="#00ff5c" r="6.0814830972877125" /><circle cx="173.38" cy="82.79" fill="#10ff48" r="6.081483097287605" /><circle cx="184.45" cy="76.70" fill="#00ff5c" r="6.081483097287728" /><circle cx="195.82" cy="71.18" fill="#00ff87" r="6.081483097287622" /><circle cx="207.45" cy="66.24" fill="#00eabc" r="6.081483097287721" /><circle cx="219.31" cy="61.88" fill="#00bcea" r="6.081483097287601" /><circle cx="231.37" cy="58.13" fill="#009cff" r="6.081483097287729" /><circle cx="243.61" cy="54.98" fill="#009cff" r="6.081483097287614" /><circle cx="256.00" cy="52.46" fill="#009cff" r="6.081483097287735" /><circle cx="268.49" cy="50.56" fill="#009cff" r="6.081483097287607" /><circle cx="281.06" cy="49.29" fill="#009cff" r="6.0814830972877125" /><circle cx="293.68" cy="48.66" fill="#009cff" r="6.081483097287611" /><circle cx="306.32" cy="48.66" fill="#009cff" r="6.081483097287725" /><circle cx="318.94" cy="49.29" fill="#009cff" r="6.081483097287627" /><circle cx="331.51" cy="50.56" fill="#009cff" r="6.081483097287721" /><circle cx="344.00" cy="52.46" fill="#009cff" r="6.081483097287592" /><circle cx="356.39" cy="54.98" fill="#009cff" r="6.081483097287728" /><circle cx="368.63" cy="58.13" fill="#009cff" r="6.081483097287612" /><circle cx="380.69" cy="61.88" fill="#0092ff" r="6.081483097287717" /><circle cx="392.55" cy="66.24" fill="#007cff" r="6.081483097287618" /><circle cx="404.18" cy="71.18" fill="#1047ff" r="6.081483097287724" /><circle cx="415.55" cy="76.70" fill="#3d18ff" r="6.081483097287608" /><circle cx="426.62" cy="82.79" fill="#6700ff" r="6.08148309728772" /><circle cx="437.37" cy="89.43" fill="#7c00ff" r="6.081483097287618" /><circle cx="447.78" cy="96.60" fill="#6700ff" r="6.0814830972877285" /><circle cx="457.81" cy="104.28" fill="#3d18ff" r="6.081483097287728" /><circle cx="467.45" cy="112.46" fill="#0852ff" r="6.081483097287601" /><circle cx="476.66" cy="121.11" fill="#009cff" r="6.081483097287612" /><circle cx="485.43" cy="130.21" fill="#00e1c6" r="6.081483097287718" /><circle cx="493.72" cy="139.74" fill="#00ff67" r="6.081483097287735" /><circle cx="501.53" cy="149.67" fill="#47ff10" r="6.081483097287605" /><circle cx="508.83" cy="159.99" fill="#92ff00" r="6.081483097287622" /><circle cx="515.60" cy="170.66" fill="#b1f200" r="6.081483097287712" /><circle cx="521.83" cy="181.66" fill="#92ff00" r="6.081483097287714" /><circle cx="527.49" cy="192.95" fill="#47ff10" r="6.081483097287627" /><circle cx="532.58" cy="204.52" fill="#00ff67" r="6.081483097287615" /><circle cx="537.09" cy="216.32" fill="#00e1c6" r="6.081483097287721" /><circle cx="45.00" cy="210.00" fill="#9200ff" r="6.558954910711073" /><circle cx="49.85" cy="197.30" fill="#d900cf" r="6.5589549107110905" /><circle cx="55.32" cy="184.86" fill="#ff0087" r="6.558954910711072" /><circle cx="61.42" cy="172.71" fill="#ff1047" r="6.5589549107110905" /><circle cx="68.11" cy="160.89" fill="#ff2a2a" r="6.558954910711069" /><circle cx="75.39" cy="149.41" fill="#ff2134" r="6.558954910711073" /><circle cx="83.24" cy="138.32" fill="#ff0071" r="6.558954910711083" /><circle cx="91.64" cy="127.63" fill="#d900cf" r="6.558954910711075" /><circle cx="100.57" cy="117.38" fill="#6700ff" r="6.558954910711091" /><circle cx="109.99" cy="107.59" fill="#1047ff" r="6.558954910711068" /><circle cx="119.90" cy="98.29" fill="#009cff" r="6.558954910711081" /><circle cx="130.26" cy="89.49" fill="#00e1c6" r="6.558954910711148" /><circle cx="141.05" cy="81.23" fill="#00ff92" r="6.558954910711018" /><circle cx="152.25" cy="73.52" fill="#00ff7c" r="6.55895491071114" /><circle cx="163.81" cy="66.38" fill="#00ff92" r="6.558954910711016" /><circle cx="175.72" cy="59.83" fill="#00eabc" r="6.5589549107111385" /><circle cx="187.95" cy="53.89" fill="#00a7fa" r="6.558954910711032" /><circle cx="200.45" cy="48.57" fill="#0852ff" r="6.5589549107111305" /><circle cx="213.21" cy="43.89" fill="#3d18ff" r="6.5589549107110265" /><circle cx="226.19" cy="39.85" fill="#5c00ff" r="6.5589549107111225" /><circle cx="239.35" cy="36.47" fill="#5c00ff" r="6.558954910711033" /><circle cx="252.67" cy="33.76" fill="#5208ff" r="6.558954910711134" /><circle cx="266.11" cy="31.72" fill="#4710ff" r="6.558954910711019" /><circle cx="279.63" cy="30.35" fill="#3d18ff" r="6.558954910711143" /><circle cx="293.20" cy="29.67" fill="#3421ff" r="6.5589549107110106" /><circle cx="306.80" cy="29.67" fill="#2a2aff" r="6.558954910711153" /><circle cx="320.37" cy="30.35" fill="#2a2aff" r="6.558954910711002" /><circle cx="333.89" cy="31.72" fill="#2134ff" r="6.558954910711136" /><circle cx="347.33" cy="33.76" fill="#2134ff" r="6.558954910711031" /><circle cx="360.65" cy="36.47" fill="#2134ff" r="6.558954910711133" /><circle cx="373.81" cy="39.85" fill="#2134ff" r="6.558954910711033" /><circle cx="386.79" cy="43.89" fill="#2a2aff" r="6.558954910711144" /><circle cx="399.55" cy="48.57" fill="#4710ff" r="6.558954910711015" /><circle cx="412.05" cy="53.89" fill="#7c00ff" r="6.558954910711127" /><circle cx="424.28" cy="59.83" fill="#bc00ea" r="6.558954910711011" /><circle cx="436.19" cy="66.38" fill="#ea00bc" r="6.558954910711154" /><circle cx="447.75" cy="73.52" fill="#ff009c" r="6.558954910711014" /><circle cx="458.95" cy="81.23" fill="#fa00a7" r="6.558954910711139" /><circle cx="469.74" cy="89.49" fill="#d900cf" r="6.558954910711148" /><circle cx="480.10" cy="98.29" fill="#9c00ff" r="6.55895491071102" /><circle cx="490.01" cy="107.59" fill="#5c00ff" r="6.558954910711008" /><circle cx="499.43" cy="117.38" fill="#1047ff" r="6.558954910711142" /><circle cx="508.36" cy="127.63" fill="#00a7fa" r="6.558954910711155" /><circle cx="516.76" cy="138.32" fill="#00ff9d" r="6.5589549107109955" /><circle cx="524.61" cy="149.41" fill="#18ff3d" r="6.558954910711029" /><circle cx="531.89" cy="160.89" fill="#3dff18" r="6.558954910711133" /><circle cx="538.58" cy="172.71" fill="#34ff21" r="6.558954910711147" /><circle cx="544.68" cy="184.86" fill="#08ff52" r="6.558954910711034" /><circle cx="550.15" cy="197.30" fill="#00faa7" r="6.558954910710998" /><circle cx="555.00" cy="210.00" fill="#00b1f2" r="6.558954910711148" /></g><g stroke="black"><line x1="33.70" x2="24.19" y1="213.48" y2="210.39" /><line x1="108.33" x2="101.48" y1="95.89" y2="88.60" /><line x1="230.37" x2="227.88" y1="28.80" y2="19.11" /><line x1="369.63" x2="372.12" y1="28.80" y2="19.11" /><line x1="491.67" x2="498.52" y1="95.89" y2="88.60" /><line x1="566.30" x2="575.81" y1="213.48" y2="210.39" /><line x1="63.59" x2="59.37" y1="149.97" y2="147.29" /><line x1="165.11" x2="162.70" y1="54.63" y2="50.25" /><line x1="300.00" x2="300.00" y1="20.00" y2="15.00" /><line x1="434.89" x2="437.30" y1="54.63" y2="50.25" /><line x1="536.41" x2="540.63" y1="149.97" y2="147.29" /><g fill="black" font-family="Arial" font-size="10" stroke="none" text-anchor="middle"><text stroke="none" x="14.68" y="207.29">0.00</text><text stroke="none" x="94.64" y="81.31">10.00</text><text stroke="none" x="225.39" y="9.43">20.00</text><text stroke="none" x="374.61" y="9.43">30.00</text><text stroke="none" x="505.36" y="81.31">40.00</text><text stroke="none" x="585.32" y="207.29">50.00</text></g><path d="M33.70,213.48 A280.00,280.00 0.00 0 1 566.30,213.48 " fill="none" /></g><g stroke="black"><line x1="214.40" x2="211.31" y1="272.19" y2="281.70" /><line x1="124.05" x2="120.96" y1="242.83" y2="252.34" /><line x1="33.70" x2="30.61" y1="213.48" y2="222.99" /><g fill="black" font-family="Arial" font-size="10" stroke="none" text-anchor="middle"><text stroke="none" x="208.22" y="291.21">0.00</text><text stroke="none" x="117.87" y="261.85">5.00</text><text stroke="none" x="27.52" y="232.50">10.00</text></g><line x1="214.40" x2="33.70" y1="272.19" y2="213.48" /></g></g></svg>