<?xml version="1.0"?>
<svg height="320" version="1.1" width="600" xmlns:xlink="http://www.w3.org/1999/xlink" xmlns="http://www.w3.org/2000/svg"><g><g fill="none" stroke-dasharray="1 1" stroke="#caa"><line x1="244.57" x2="41.31" y1="287.04" y2="202.85" /><line x1="246.54" x2="50.52" y1="282.76" y2="182.88" /><line x1="248.84" x2="61.26" y1="278.65" y2="163.70" /><line x1="251.46" x2="73.48" y1="274.73" y2="145.42" /><line x1="254.38" x2="87.09" y1="271.03" y2="128.15" /><line x1="257.57" x2="102.01" y1="267.57" y2="112.01" /><line x1="261.03" x2="118.15" y1="264.38" y2="97.09" /><line x1="264.73" x2="135.42" y1="261.46" y2="83.48" /><line x1="268.65" x2="153.70" y1="258.84" y2="71.26" /><line x1="272.76" x2="172.88" y1="256.54" y2="60.52" /><line x1="277.04" x2="192.85" y1="254.57" y2="51.31" /><line x1="281.46" x2="213.48" y1="252.94" y2="43.70" /><line x1="285.99" x2="234.64" y1="251.66" y2="37.74" /><line x1="290.61" x2="256.20" y1="250.74" y2="33.45" /><line x1="295.29" x2="278.03" y1="250.18" y2="30.86" /><line x1="300.00" x2="300.00" y1="250.00" y2="30.00" /><line x1="304.71" x2="321.97" y1="250.18" y2="30.86" /><line x1="309.39" x2="343.80" y1="250.74" y2="33.45" /><line x1="314.01" x2="365.36" y1="251.66" y2="37.74" /><line x1="318.54" x2="386.52" y1="252.94" y2="43.70" /><line x1="322.96" x2="407.15" y1="254.57" y2="51.31" /><line x1="327.24" x2="427.12" y1="256.54" y2="60.52" /><line x1="331.35" x2="446.30" y1="258.84" y2="71.26" /><line x1="335.27" x2="464.58" y1="261.46" y2="83.48" /><line x1="338.97" x2="481.85" y1="264.38" y2="97.09" /><line x1="342.43" x2="497.99" y1="267.57" y2="112.01" /><line x1="345.62" x2="512.91" y1="271.03" y2="128.15" /><line x1="348.54" x2="526.52" y1="274.73" y2="145.42" /><line x1="351.16" x2="538.74" y1="278.65" y2="163.70" /><line x1="353.46" x2="549.48" y1="282.76" y2="182.88" /><line x1="355.43" x2="558.69" y1="287.04" y2="202.85" /><line x1="242.94" x2="33.70" y1="291.46" y2="223.48" /><line x1="264.73" x2="135.42" y1="261.46" y2="83.48" /><line x1="300.00" x2="300.00" y1="250.00" y2="30.00" /><line x1="335.27" x2="464.58" y1="261.46" y2="83.48" /><line x1="357.06" x2="566.30" y1="291.46" y2="223.48" /><path d="M216.78,282.96 A87.50,87.50 0.00 0 1 383.22,282.96 " fill="none" /><path d="M164.47,265.97 A142.50,142.50 0.00 0 1 435.53,265.97 " fill="none" /><path d="M112.17,248.97 A197.50,197.50 0.00 0 1 487.83,248.97 " fill="none" /><path d="M59.86,231.97 A252.50,252.50 0.00 0 1 540.14,231.97 " fill="none" /><path d="M242.94,291.46 A60.00,60.00 0.00 0 1 357.06,291.46 " fill="none" /><path d="M190.63,274.46 A115.00,115.00 0.00 0 1 409.37,274.46 " fill="none" /><path d="M138.32,257.47 A170.00,170.00 0.00 0 1 461.68,257.47 " fill="none" /><path d="M86.01,240.47 A225.00,225.00 0.00 0 1 513.99,240.47 " fill="none" /><path d="M33.70,223.48 A280.00,280.00 0.00 0 1 566.30,223.48 " fill="none" /></g><polyline fill="none" points="138.32,257.47 137.40,254.90 137.12,252.51 140.30,251.37 145.98,251.25 149.91,250.57 148.31,247.72 141.43,242.56 133.87,236.87 131.45,233.26 137.23,233.41 149.35,236.78 162.02,240.79 168.83,242.12 166.22,238.63 155.33,230.46 141.25,220.11 130.56,211.22 128.34,207.02 136.17,208.89 151.69,215.88 169.81,225.06 184.74,232.72 192.01,235.62 189.81,232.04 179.22,222.25 163.67,208.31 147.65,193.35 135.48,180.72 130.18,173.07 133.01,171.85 143.32,177.03 159.03,187.28 177.22,200.37 194.80,213.67 209.15,224.68 218.42,231.44 221.79,232.77 219.39,228.37 212.13,218.76 201.44,205.04 188.97,188.75 176.39,171.55 165.12,155.06 156.28,140.65 150.56,129.36 148.29,121.85 149.43,118.39 153.69,118.91 160.56,123.07 169.45,130.31 179.69,139.95 190.67,151.28 201.82,163.56 212.67,176.14 222.84,188.42 232.07,199.93 240.19,210.30 247.11,219.27 252.82,226.67 257.36,232.44 260.82,236.57 263.33,239.13 265.00,240.23 265.98,239.99 266.39,238.58 266.38,236.17 266.06,232.90 265.53,228.96 264.89,224.49 264.22,219.62 263.57,214.49 263.00,209.21 262.54,203.87 262.24,198.56 262.09,193.34 262.13,188.26 262.35,183.38 262.76,178.73 263.35,174.34 264.11,170.22 265.04,166.38 266.13,162.84 267.37,159.60 268.74,156.65 270.24,153.99 271.84,151.61 273.54,149.50 275.33,147.65 277.19,146.05 279.12,144.68 281.09,143.53 283.11,142.58 285.17,141.82 287.25,141.21 289.35,140.76 291.47,140.43 293.60,140.21 295.73,140.08 297.86,140.02 300.00,140.00 302.14,140.01 304.27,140.03 306.41,140.03 308.55,140.00 310.70,139.91 312.86,139.75 315.04,139.50 317.24,139.13 319.46,138.64 321.73,138.00 324.04,137.19 326.41,136.21 328.84,135.03 331.35,133.64 333.95,132.04 336.65,130.20 339.45,128.13 342.39,125.82 345.45,123.26 348.66,120.46 352.03,117.43 355.56,114.18 359.26,110.72 363.12,107.08 367.16,103.31 371.36,99.43 375.70,95.51 380.18,91.62 384.75,87.83 389.38,84.25 394.02,80.99 398.60,78.16 403.05,75.91 407.27,74.40 411.16,73.78 414.59,74.21 417.45,75.87 419.58,78.90 420.86,83.45 421.16,89.62 420.34,97.47 418.34,107.00 415.10,118.14 410.63,130.73 405.03,144.51 398.44,159.10 391.16,174.04 383.54,188.72 376.06,202.49 369.29,214.63 363.85,224.40 360.39,231.13 359.51,234.27 361.70,233.47 367.28,228.67 376.28,220.12 388.36,208.49 402.83,194.83 418.59,180.49 434.18,167.11 447.98,156.34 458.30,149.70 463.71,148.33 463.32,152.72 456.99,162.57 445.56,176.71 430.84,193.18 415.48,209.48 402.55,222.97 394.98,231.42 394.86,233.51 402.81,229.21 417.61,219.95 436.20,208.41 454.29,197.90 467.36,191.59 472.02,191.51 467.14,197.94 454.57,209.16 438.76,221.94 425.51,232.55 419.90,238.07 424.29,237.55 437.11,232.36 453.27,225.74 466.20,221.33 470.79,221.62 465.93,226.76 455.15,234.60 444.87,241.83 440.88,245.86 445.05,246.15 454.31,244.37 462.83,243.15 466.03,244.26 463.65,247.57 459.47,251.45 457.74,254.33 459.42,255.98 461.68,257.47" stroke="#0af" /><g stroke="black"><line x1="33.70" x2="24.19" y1="223.48" y2="220.39" /><line x1="135.42" x2="129.54" y1="83.48" y2="75.39" /><line x1="300.00" x2="300.00" y1="30.00" y2="20.00" /><line x1="464.58" x2="470.46" y1="83.48" y2="75.39" /><line x1="566.30" x2="575.81" y1="223.48" y2="220.39" /><line x1="41.31" x2="36.69" y1="202.85" y2="200.94" /><line x1="50.52" x2="46.06" y1="182.88" y2="180.61" /><line x1="61.26" x2="57.00" y1="163.70" y2="161.09" /><line x1="73.48" x2="69.43" y1="145.42" y2="142.48" /><line x1="87.09" x2="83.28" y1="128.15" y2="124.91" /><line x1="102.01" x2="98.47" y1="112.01" y2="108.47" /><line x1="118.15" x2="114.91" y1="97.09" y2="93.28" /><line x1="135.42" x2="132.48" y1="83.48" y2="79.43" /><line x1="153.70" x2="151.09" y1="71.26" y2="67.00" /><line x1="172.88" x2="170.61" y1="60.52" y2="56.06" /><line x1="192.85" x2="190.94" y1="51.31" y2="46.69" /><line x1="213.48" x2="211.93" y1="43.70" y2="38.95" /><line x1="234.64" x2="233.47" y1="37.74" y2="32.87" /><line x1="256.20" x2="255.42" y1="33.45" y2="28.51" /><line x1="278.03" x2="277.64" y1="30.86" y2="25.88" /><line x1="300.00" x2="300.00" y1="30.00" y2="25.00" /><line x1="321.97" x2="322.36" y1="30.86" y2="25.88" /><line x1="343.80" x2="344.58" y1="33.45" y2="28.51" /><line x1="365.36" x2="366.53" y1="37.74" y2="32.87" /><line x1="386.52" x2="388.07" y1="43.70" y2="38.95" /><line x1="407.15" x2="409.06" y1="51.31" y2="46.69" /><line x1="427.12" x2="429.39" y1="60.52" y2="56.06" /><line x1="446.30" x2="448.91" y1="71.26" y2="67.00" /><line x1="464.58" x2="467.52" y1="83.48" y2="79.43" /><line x1="481.85" x2="485.09" y1="97.09" y2="93.28" /><line x1="497.99" x2="501.53" y1="112.01" y2="108.47" /><line x1="512.91" x2="516.72" y1="128.15" y2="124.91" /><line x1="526.52" x2="530.57" y1="145.42" y2="142.48" /><line x1="538.74" x2="543.00" y1="163.70" y2="161.09" /><line x1="549.48" x2="553.94" y1="182.88" y2="180.61" /><line x1="558.69" x2="563.31" y1="202.85" y2="200.94" /><g fill="black" font-family="Arial" font-size="10" stroke="none" text-anchor="middle"><text stroke="none" x="14.68" y="217.29">-3.14</text><text stroke="none" x="123.66" y="67.29">-1.57</text><text stroke="none" x="300.00" y="10.00">0.00</text><text stroke="none" x="476.34" y="67.29">1.57</text><text stroke="none" x="585.32" y="217.29">3.14</text></g><path d="M33.70,223.48 A280.00,280.00 0.00 0 1 566.30,223.48 " fill="none" /></g><g stroke="black"><line x1="242.94" x2="239.85" y1="291.46" y2="300.97" /><line x1="190.63" x2="187.54" y1="274.46" y2="283.97" /><line x1="138.32" x2="135.23" y1="257.47" y2="266.98" /><line x1="86.01" x2="82.92" y1="240.47" y2="249.98" /><line x1="33.70" x2="30.61" y1="223.48" y2="232.99" /><line x1="216.78" x2="215.24" y1="282.96" y2="287.72" /><line x1="164.47" x2="162.93" y1="265.97" y2="270.72" /><line x1="112.17" x2="110.62" y1="248.97" y2="253.72" /><line x1="59.86" x2="58.31" y1="231.97" y2="236.73" /><g fill="black" font-family="Arial" font-size="10" stroke="none" text-anchor="middle"><text stroke="none" x="236.76" y="310.48">-1.00</text><text stroke="none" x="184.45" y="293.48">-0.50</text><text stroke="none" x="132.14" y="276.49">0.00</text><text stroke="none" x="79.83" y="259.49">0.50</text><text stroke="none" x="27.52" y="242.50">1.00</text></g><line x1="242.94" x2="33.70" y1="291.46" y2="223.48" /></g></g></svg>