<?xml version="1.0"?>
<svg height="320" version="1.1" width="600" xmlns:xlink="http://www.w3.org/1999/xlink" xmlns="http://www.w3.org/2000/svg"><g><g stroke-dasharray="1 1" stroke="#caa"><line x1="50.00" x2="50.00" y1="250.00" y2="20.00" /><line x1="182.50" x2="182.50" y1="250.00" y2="20.00" /><line x1="315.00" x2="315.00" y1="250.00" y2="20.00" /><line x1="447.50" x2="447.50" y1="250.00" y2="20.00" /><line x1="580.00" x2="580.00" y1="250.00" y2="20.00" /><line x1="50.00" x2="580.00" y1="238.50" y2="238.50" /><line x1="50.00" x2="580.00" y1="215.50" y2="215.50" /><line x1="50.00" x2="580.00" y1="192.50" y2="192.50" /><line x1="50.00" x2="580.00" y1="181.00" y2="181.00" /><line x1="50.00" x2="580.00" y1="169.50" y2="169.50" /><line x1="50.00" x2="580.00" y1="158.00" y2="158.00" /><line x1="50.00" x2="580.00" y1="146.50" y2="146.50" /><line x1="50.00" x2="580.00" y1="135.00" y2="135.00" /><line x1="50.00" x2="580.00" y1="123.50" y2="123.50" /><line x1="50.00" x2="580.00" y1="112.00" y2="112.00" /><line x1="50.00" x2="580.00" y1="100.50" y2="100.50" /><line x1="50.00" x2="580.00" y1="89.00" y2="89.00" /><line x1="50.00" x2="580.00" y1="77.50" y2="77.50" /><line x1="50.00" x2="580.00" y1="66.00" y2="66.00" /><line x1="50.00" x2="580.00" y1="54.50" y2="54.50" /><line x1="50.00" x2="580.00" y1="43.00" y2="43.00" /><line x1="50.00" x2="580.00" y1="31.50" y2="31.50" /><line x1="50.00" x2="580.00" y1="20.00" y2="20.00" /><line x1="50.00" x2="580.00" y1="250.00" y2="250.00" /><line x1="50.00" x2="580.00" y1="227.00" y2="227.00" /><line x1="50.00" x2="580.00" y1="204.00" y2="204.00" /><line x1="50.00" x2="580.00" y1="181.00" y2="181.00" /><line x1="50.00" x2="580.00" y1="158.00" y2="158.00" /><line x1="50.00" x2="580.00" y1="135.00" y2="135.00" /><line x1="50.00" x2="580.00" y1="112.00" y2="112.00" /><line x1="50.00" x2="580.00" y1="89.00" y2="89.00" /><line x1="50.00" x2="580.00" y1="66.00" y2="66.00" /><line x1="50.00" x2="580.00" y1="43.00" y2="43.00" /><line x1="50.00" x2="580.00" y1="20.00" y2="20.00" /></g><polyline fill="none" points="50.00,135.00 52.65,133.25 55.30,132.15 57.95,134.87 60.60,140.39 63.25,143.96 65.90,141.29 68.55,132.58 71.20,122.96 73.85,119.11 76.50,124.66 79.15,137.62 81.80,151.35 84.45,158.32 87.10,154.21 89.75,140.13 92.40,122.00 95.05,107.68 97.70,103.45 100.35,111.46 103.00,129.08 105.65,150.21 108.30,167.65 110.95,175.64 113.60,171.61 116.25,156.65 118.90,134.91 121.55,112.13 124.20,93.97 126.85,84.67 129.50,86.15 132.15,97.89 134.80,117.33 137.45,140.65 140.10,163.61 142.75,182.43 145.40,194.32 148.05,197.82 150.70,192.80 153.35,180.30 156.00,162.20 158.65,140.85 161.30,118.69 163.95,97.97 166.60,80.51 169.25,67.63 171.90,60.05 174.55,57.96 177.20,61.12 179.85,68.92 182.50,80.52 185.15,94.95 187.80,111.23 190.45,128.41 193.10,145.63 195.75,162.19 198.40,177.51 201.05,191.18 203.70,202.93 206.35,212.61 209.00,220.19 211.65,225.72 214.30,229.30 216.95,231.12 219.60,231.35 222.25,230.21 224.90,227.91 227.55,224.66 230.20,220.66 232.85,216.09 235.50,211.11 238.15,205.86 240.80,200.48 243.45,195.07 246.10,189.71 248.75,184.48 251.40,179.44 254.05,174.63 256.70,170.08 259.35,165.81 262.00,161.85 264.65,158.20 267.30,154.86 269.95,151.83 272.60,149.11 275.25,146.68 277.90,144.54 280.55,142.67 283.20,141.05 285.85,139.67 288.50,138.52 291.15,137.57 293.80,136.81 296.45,136.22 299.10,135.77 301.75,135.44 304.40,135.23 307.05,135.10 309.70,135.03 312.35,135.00 315.00,135.00 317.65,135.00 320.30,134.97 322.95,134.90 325.60,134.77 328.25,134.56 330.90,134.23 333.55,133.78 336.20,133.19 338.85,132.43 341.50,131.48 344.15,130.33 346.80,128.95 349.45,127.33 352.10,125.46 354.75,123.32 357.40,120.89 360.05,118.17 362.70,115.14 365.35,111.80 368.00,108.15 370.65,104.19 373.30,99.92 375.95,95.37 378.60,90.56 381.25,85.52 383.90,80.29 386.55,74.93 389.20,69.52 391.85,64.14 394.50,58.89 397.15,53.91 399.80,49.34 402.45,45.34 405.10,42.09 407.75,39.79 410.40,38.65 413.05,38.88 415.70,40.70 418.35,44.28 421.00,49.81 423.65,57.39 426.30,67.07 428.95,78.82 431.60,92.49 434.25,107.81 436.90,124.37 439.55,141.59 442.20,158.77 444.85,175.05 447.50,189.48 450.15,201.08 452.80,208.88 455.45,212.04 458.10,209.95 460.75,202.37 463.40,189.49 466.05,172.03 468.70,151.31 471.35,129.15 474.00,107.80 476.65,89.70 479.30,77.20 481.95,72.18 484.60,75.68 487.25,87.57 489.90,106.39 492.55,129.35 495.20,152.67 497.85,172.11 500.50,183.85 503.15,185.33 505.80,176.03 508.45,157.87 511.10,135.09 513.75,113.35 516.40,98.39 519.05,94.36 521.70,102.35 524.35,119.79 527.00,140.92 529.65,158.54 532.30,166.55 534.95,162.32 537.60,148.00 540.25,129.87 542.90,115.79 545.55,111.68 548.20,118.65 550.85,132.38 553.50,145.34 556.15,150.89 558.80,147.04 561.45,137.42 564.10,128.71 566.75,126.04 569.40,129.61 572.05,135.13 574.70,137.85 577.35,136.75 580.00,135.00" stroke="#0af" /><g stroke="black"><line x1="50.00" x2="50.00" y1="250.00" y2="260.00" /><line x1="182.50" x2="182.50" y1="250.00" y2="260.00" /><line x1="315.00" x2="315.00" y1="250.00" y2="260.00" /><line x1="447.50" x2="447.50" y1="250.00" y2="260.00" /><line x1="580.00" x2="580.00" y1="250.00" y2="260.00" /><line x1="116.25" x2="116.25" y1="250.00" y2="255.00" /><line x1="248.75" x2="248.75" y1="250.00" y2="255.00" /><line x1="381.25" x2="381.25" y1="250.00" y2="255.00" /><line x1="513.75" x2="513.75" y1="250.00" y2="255.00" /><g fill="black" font-family="Arial" font-size="10" stroke="none" text-anchor="middle"><text x="50.00" y="270.00">-3.14</text><text x="182.50" y="270.00">-1.57</text><text x="315.00" y="270.00">0.00</text><text x="447.50" y="270.00">1.57</text><text x="580.00" y="270.00">3.14</text></g><line x1="50.00" x2="580.00" y1="250.00" y2="250.00" /></g><g stroke="black"><line x1="50.00" x2="40.00" y1="250.00" y2="250.00" /><line x1="50.00" x2="40.00" y1="227.00" y2="227.00" /><line x1="50.00" x2="40.00" y1="204.00" y2="204.00" /><line x1="50.00" x2="40.00" y1="181.00" y2="181.00" /><line x1="50.00" x2="40.00" y1="158.00" y2="158.00" /><line x1="50.00" x2="40.00" y1="135.00" y2="135.00" /><line x1="50.00" x2="40.00" y1="112.00" y2="112.00" /><line x1="50.00" x2="40.00" y1="89.00" y2="89.00" /><line x1="50.00" x2="40.00" y1="66.00" y2="66.00" /><line x1="50.00" x2="40.00" y1="43.00" y2="43.00" /><line x1="50.00" x2="40.00" y1="20.00" y2="20.00" /><line x1="50.00" x2="45.00" y1="238.50" y2="238.50" /><line x1="50.00" x2="45.00" y1="215.50" y2="215.50" /><line x1="50.00" x2="45.00" y1="192.50" y2="192.50" /><line x1="50.00" x2="45.00" y1="181.00" y2="181.00" /><line x1="50.00" x2="45.00" y1="169.50" y2="169.50" /><line x1="50.00" x2="45.00" y1="158.00" y2="158.00" /><line x1="50.00" x2="45.00" y1="146.50" y2="146.50" /><line x1="50.00" x2="45.00" y1="135.00" y2="135.00" /><line x1="50.00" x2="45.00" y1="123.50" y2="123.50" /><line x1="50.00" x2="45.00" y1="112.00" y2="112.00" /><line x1="50.00" x2="45.00" y1="100.50" y2="100.50" /><line x1="50.00" x2="45.00" y1="89.00" y2="89.00" /><line x1="50.00" x2="45.00" y1="77.50" y2="77.50" /><line x1="50.00" x2="45.00" y1="66.00" y2="66.00" /><line x1="50.00" x2="45.00" y1="54.50" y2="54.50" /><line x1="50.00" x2="45.00" y1="43.00" y2="43.00" /><line x1="50.00" x2="45.00" y1="31.50" y2="31.50" /><line x1="50.00" x2="45.00" y1="20.00" y2="20.00" /><g fill="black" font-family="Arial" font-size="10" stroke="none" text-anchor="end"><text x="35.00" y="250.00">-1.00</text><text x="35.00" y="227.00">-0.80</text><text x="35.00" y="204.00">-0.60</text><text x="35.00" y="181.00">-0.40</text><text x="35.00" y="158.00">-0.20</text><text x="35.00" y="135.00">-0.00</text><text x="35.00" y="112.00">0.20</text><text x="35.00" y="89.00">0.40</text><text x="35.00" y="66.00">0.60</text><text x="35.00" y="43.00">0.80</text><text x="35.00" y="20.00">1.00</text></g><line x1="50.00" x2="50.00" y1="250.00" y2="20.00" /></g></g></svg>