<?xml version="1.0"?>
<svg height="600" version="1.1" width="600" xmlns:xlink="http://www.w3.org/1999/xlink" xmlns="http://www.w3.org/2000/svg"><g><g fill="none" stroke-dasharray="1 1" stroke="#caa"><line x1="300.00" x2="560.00" y1="300.00" y2="300.00" /><line x1="300.00" x2="430.00" y1="300.00" y2="525.17" /><line x1="300.00" x2="170.00" y1="300.00" y2="525.17" /><line x1="300.00" x2="40.00" y1="300.00" y2="300.00" /><line x1="300.00" x2="170.00" y1="300.00" y2="74.83" /><line x1="300.00" x2="430.00" y1="300.00" y2="74.83" /><circle cx="300.00" cy="300.00" fill="none" r="24.76190476190476" /><circle cx="300.00" cy="300.00" fill="none" r="49.52380952380952" /><circle cx="300.00" cy="300.00" fill="none" r="74.28571428571429" /><circle cx="300.00" cy="300.00" fill="none" r="99.04761904761904" /><circle cx="300.00" cy="300.00" fill="none" r="148.57142857142856" /><circle cx="300.00" cy="300.00" fill="none" r="173.33333333333331" /><circle cx="300.00" cy="300.00" fill="none" r="198.09523809523807" /><circle cx="300.00" cy="300.00" fill="none" r="222.8571428571428" /><circle cx="300.00" cy="300.00" fill="none" r="247.61904761904756" /><circle cx="300.00" cy="300.00" fill="none" r="0.0" /><circle cx="300.00" cy="300.00" fill="none" r="123.8095238095238" /><circle cx="300.00" cy="300.00" fill="none" r="247.6190476190476" /></g><polygon fill="rgba(0,168,255,0.33)" points="522.86,300.00 341.23,371.41 176.19,514.44 101.90,300.00 207.14,139.17 324.76,257.11" /><polygon fill="rgba(255,127,0,0.33)" points="423.81,300.00 324.76,342.89 200.95,471.56 101.90,300.00 238.10,192.78 411.43,107.00" /><polygon fill="rgba(255,0,204,0.33)" points="448.57,300.00 330.95,353.61 213.33,450.11 250.48,300.00 200.95,128.44 386.67,149.89" /><g stroke="black"><line x1="560.00" x2="570.00" y1="300.00" y2="300.00" /><line x1="430.00" x2="435.00" y1="525.17" y2="533.83" /><line x1="170.00" x2="165.00" y1="525.17" y2="533.83" /><line x1="40.00" x2="30.00" y1="300.00" y2="300.00" /><line x1="170.00" x2="165.00" y1="74.83" y2="66.17" /><line x1="430.00" x2="435.00" y1="74.83" y2="66.17" /><g fill="black" font-family="Arial" font-size="10" stroke="none" text-anchor="middle"><text stroke="none" x="580.00" y="300.00">C1</text><text stroke="none" x="440.00" y="542.49">C2</text><text stroke="none" x="160.00" y="542.49">C3</text><text stroke="none" x="20.00" y="300.00">C4</text><text stroke="none" x="160.00" y="57.51">C5</text><text stroke="none" x="440.00" y="57.51">C6</text></g><circle cx="300.00" cy="300.00" fill="none" r="260" /></g><g stroke="black"><line x1="300.00" x2="310.00" y1="300.00" y2="300.00" /><line x1="300.00" x2="310.00" y1="423.81" y2="423.81" /><line x1="300.00" x2="310.00" y1="547.62" y2="547.62" /><line x1="300.00" x2="305.00" y1="324.76" y2="324.76" /><line x1="300.00" x2="305.00" y1="349.52" y2="349.52" /><line x1="300.00" x2="305.00" y1="374.29" y2="374.29" /><line x1="300.00" x2="305.00" y1="399.05" y2="399.05" /><line x1="300.00" x2="305.00" y1="448.57" y2="448.57" /><line x1="300.00" x2="305.00" y1="473.33" y2="473.33" /><line x1="300.00" x2="305.00" y1="498.10" y2="498.10" /><line x1="300.00" x2="305.00" y1="522.86" y2="522.86" /><line x1="300.00" x2="305.00" y1="547.62" y2="547.62" /><g fill="black" font-family="Arial" font-size="10" stroke="none" text-anchor="start"><text stroke="none" x="320.00" y="300.00">0%</text><text stroke="none" x="320.00" y="423.81">50%</text><text stroke="none" x="320.00" y="547.62">100%</text></g><line x1="300.00" x2="300.00" y1="300.00" y2="560.00" /></g></g></svg>