<?xml version="1.0"?>
<svg height="600" version="1.1" width="600" xmlns:xlink="http://www.w3.org/1999/xlink" xmlns="http://www.w3.org/2000/svg"><g><g stroke-dasharray="1 1" stroke="#ccc"><line x1="300.00" x2="560.00" y1="300.00" y2="300.00" /><line x1="300.00" x2="430.00" y1="300.00" y2="525.17" /><line x1="300.00" x2="170.00" y1="300.00" y2="525.17" /><line x1="300.00" x2="40.00" y1="300.00" y2="300.00" /><line x1="300.00" x2="170.00" y1="300.00" y2="74.83" /><line x1="300.00" x2="430.00" y1="300.00" y2="74.83" /><circle cx="300.00" cy="300.00" fill="none" r="24.76190476190476" /><circle cx="300.00" cy="300.00" fill="none" r="49.52380952380952" /><circle cx="300.00" cy="300.00" fill="none" r="74.28571428571429" /><circle cx="300.00" cy="300.00" fill="none" r="99.04761904761904" /><circle cx="300.00" cy="300.00" fill="none" r="148.57142857142856" /><circle cx="300.00" cy="300.00" fill="none" r="173.33333333333331" /><circle cx="300.00" cy="300.00" fill="none" r="198.09523809523807" /><circle cx="300.00" cy="300.00" fill="none" r="222.8571428571428" /><circle cx="300.00" cy="300.00" fill="none" r="247.61904761904756" /><circle cx="300.00" cy="300.00" fill="none" r="0.0" /><circle cx="300.00" cy="300.00" fill="none" r="123.8095238095238" /><circle cx="300.00" cy="300.00" fill="none" r="247.6190476190476" /></g><path d="M488.20,300.00 L404.81,481.53 L227.77,425.10 L81.12,300.00 L177.61,88.02 L366.27,185.21 ZM430.00,300.00 L351.04,388.41 L265.63,359.52 L223.72,300.00 L238.08,192.76 L338.28,233.70 Z" fill-rule="evenodd" fill="rgba(0,168,255,0.33)" /><path d="M435.80,300.00 L366.32,414.88 L226.10,428.00 L107.49,300.00 L181.58,94.89 L387.21,148.94 ZM340.50,300.00 L319.46,333.71 L249.52,387.43 L188.82,300.00 L216.35,155.11 L346.42,219.59 Z" fill-rule="evenodd" fill="rgba(255,127,0,0.33)" /><path d="M451.38,300.00 L388.19,452.75 L238.02,407.35 L105.40,300.00 L216.92,156.11 L411.23,107.35 ZM347.40,300.00 L352.31,390.60 L271.94,348.61 L243.19,300.00 L245.42,205.47 L363.52,189.98 Z" fill-rule="evenodd" fill="rgba(255,0,204,0.33)" /><g stroke="black"><line x1="560.00" x2="570.00" y1="300.00" y2="300.00" /><line x1="430.00" x2="435.00" y1="525.17" y2="533.83" /><line x1="170.00" x2="165.00" y1="525.17" y2="533.83" /><line x1="40.00" x2="30.00" y1="300.00" y2="300.00" /><line x1="170.00" x2="165.00" y1="74.83" y2="66.17" /><line x1="430.00" x2="435.00" y1="74.83" y2="66.17" /><g fill="black" font-family="Arial" font-size="10" stroke="none" text-anchor="middle"><text stroke="none" x="580.00" y="300.00">C1</text><text stroke="none" x="440.00" y="542.49">C2</text><text stroke="none" x="160.00" y="542.49">C3</text><text stroke="none" x="20.00" y="300.00">C4</text><text stroke="none" x="160.00" y="57.51">C5</text><text stroke="none" x="440.00" y="57.51">C6</text></g><circle cx="300.00" cy="300.00" fill="none" r="260" /></g><g stroke="black"><line x1="300.00" x2="310.00" y1="300.00" y2="300.00" /><line x1="300.00" x2="310.00" y1="423.81" y2="423.81" /><line x1="300.00" x2="310.00" y1="547.62" y2="547.62" /><line x1="300.00" x2="305.00" y1="324.76" y2="324.76" /><line x1="300.00" x2="305.00" y1="349.52" y2="349.52" /><line x1="300.00" x2="305.00" y1="374.29" y2="374.29" /><line x1="300.00" x2="305.00" y1="399.05" y2="399.05" /><line x1="300.00" x2="305.00" y1="448.57" y2="448.57" /><line x1="300.00" x2="305.00" y1="473.33" y2="473.33" /><line x1="300.00" x2="305.00" y1="498.10" y2="498.10" /><line x1="300.00" x2="305.00" y1="522.86" y2="522.86" /><line x1="300.00" x2="305.00" y1="547.62" y2="547.62" /><g fill="black" font-family="Arial" font-size="10" stroke="none" text-anchor="start"><text stroke="none" x="320.00" y="300.00">0%</text><text stroke="none" x="320.00" y="423.81">50%</text><text stroke="none" x="320.00" y="547.62">100%</text></g><line x1="300.00" x2="300.00" y1="300.00" y2="560.00" /></g></g></svg>