<?xml version="1.0"?>
<svg height="600" version="1.1" width="600" xmlns:xlink="http://www.w3.org/1999/xlink" xmlns="http://www.w3.org/2000/svg"><g><g stroke-dasharray="1 1" stroke="#caa"><line x1="120.58" x2="120.58" y1="550.00" y2="20.00" /><line x1="161.86" x2="161.86" y1="550.00" y2="20.00" /><line x1="191.16" x2="191.16" y1="550.00" y2="20.00" /><line x1="213.88" x2="213.88" y1="550.00" y2="20.00" /><line x1="232.44" x2="232.44" y1="550.00" y2="20.00" /><line x1="248.14" x2="248.14" y1="550.00" y2="20.00" /><line x1="261.74" x2="261.74" y1="550.00" y2="20.00" /><line x1="273.73" x2="273.73" y1="550.00" y2="20.00" /><line x1="355.04" x2="355.04" y1="550.00" y2="20.00" /><line x1="396.32" x2="396.32" y1="550.00" y2="20.00" /><line x1="425.61" x2="425.61" y1="550.00" y2="20.00" /><line x1="448.34" x2="448.34" y1="550.00" y2="20.00" /><line x1="466.90" x2="466.90" y1="550.00" y2="20.00" /><line x1="482.60" x2="482.60" y1="550.00" y2="20.00" /><line x1="496.19" x2="496.19" y1="550.00" y2="20.00" /><line x1="508.19" x2="508.19" y1="550.00" y2="20.00" /><line x1="589.49" x2="589.49" y1="550.00" y2="20.00" /><line x1="50.00" x2="50.00" y1="550.00" y2="20.00" /><line x1="284.46" x2="284.46" y1="550.00" y2="20.00" /><line x1="518.91" x2="518.91" y1="550.00" y2="20.00" /><line x1="50.00" x2="590.00" y1="496.89" y2="496.89" /><line x1="50.00" x2="590.00" y1="465.83" y2="465.83" /><line x1="50.00" x2="590.00" y1="443.79" y2="443.79" /><line x1="50.00" x2="590.00" y1="426.69" y2="426.69" /><line x1="50.00" x2="590.00" y1="412.72" y2="412.72" /><line x1="50.00" x2="590.00" y1="400.91" y2="400.91" /><line x1="50.00" x2="590.00" y1="390.68" y2="390.68" /><line x1="50.00" x2="590.00" y1="381.66" y2="381.66" /><line x1="50.00" x2="590.00" y1="320.48" y2="320.48" /><line x1="50.00" x2="590.00" y1="289.42" y2="289.42" /><line x1="50.00" x2="590.00" y1="267.38" y2="267.38" /><line x1="50.00" x2="590.00" y1="250.28" y2="250.28" /><line x1="50.00" x2="590.00" y1="236.31" y2="236.31" /><line x1="50.00" x2="590.00" y1="224.50" y2="224.50" /><line x1="50.00" x2="590.00" y1="214.27" y2="214.27" /><line x1="50.00" x2="590.00" y1="205.25" y2="205.25" /><line x1="50.00" x2="590.00" y1="144.07" y2="144.07" /><line x1="50.00" x2="590.00" y1="113.00" y2="113.00" /><line x1="50.00" x2="590.00" y1="90.96" y2="90.96" /><line x1="50.00" x2="590.00" y1="73.87" y2="73.87" /><line x1="50.00" x2="590.00" y1="59.90" y2="59.90" /><line x1="50.00" x2="590.00" y1="48.09" y2="48.09" /><line x1="50.00" x2="590.00" y1="37.86" y2="37.86" /><line x1="50.00" x2="590.00" y1="28.83" y2="28.83" /><line x1="50.00" x2="590.00" y1="550.00" y2="550.00" /><line x1="50.00" x2="590.00" y1="373.59" y2="373.59" /><line x1="50.00" x2="590.00" y1="197.17" y2="197.17" /><line x1="50.00" x2="590.00" y1="20.76" y2="20.76" /></g><g fill="#0af" stroke="none"><circle cx="120.58" cy="347.03" r="3" /><circle cx="191.16" cy="320.48" r="3" /><circle cx="232.44" cy="304.95" r="3" /><circle cx="261.74" cy="293.93" r="3" /><circle cx="284.46" cy="285.38" r="3" /><circle cx="303.02" cy="278.40" r="3" /><circle cx="318.72" cy="272.49" r="3" /><circle cx="332.31" cy="267.38" r="3" /><circle cx="344.31" cy="262.86" r="3" /><circle cx="355.04" cy="258.83" r="3" /><circle cx="364.74" cy="255.18" r="3" /><circle cx="373.60" cy="251.84" r="3" /><circle cx="381.75" cy="248.78" r="3" /><circle cx="389.30" cy="245.94" r="3" /><circle cx="396.32" cy="243.30" r="3" /><circle cx="402.89" cy="240.82" r="3" /><circle cx="409.07" cy="238.50" r="3" /><circle cx="414.89" cy="236.31" r="3" /><circle cx="420.39" cy="234.24" r="3" /><circle cx="425.61" cy="232.28" r="3" /><circle cx="430.58" cy="230.41" r="3" /><circle cx="435.32" cy="228.62" r="3" /><circle cx="439.84" cy="226.92" r="3" /><circle cx="444.18" cy="225.29" r="3" /><circle cx="448.34" cy="223.73" r="3" /><circle cx="452.33" cy="222.23" r="3" /><circle cx="456.17" cy="220.78" r="3" /><circle cx="459.87" cy="219.39" r="3" /><circle cx="463.45" cy="218.04" r="3" /><circle cx="466.90" cy="216.74" r="3" /><circle cx="470.24" cy="215.49" r="3" /><circle cx="473.47" cy="214.27" r="3" /><circle cx="476.60" cy="213.09" r="3" /><circle cx="479.64" cy="211.95" r="3" /><circle cx="482.60" cy="210.84" r="3" /><circle cx="485.46" cy="209.76" r="3" /><circle cx="488.25" cy="208.71" r="3" /><circle cx="490.97" cy="207.69" r="3" /><circle cx="493.61" cy="206.69" r="3" /><circle cx="496.19" cy="205.72" r="3" /><circle cx="498.71" cy="204.78" r="3" /><circle cx="501.16" cy="203.85" r="3" /><circle cx="503.56" cy="202.95" r="3" /><circle cx="505.90" cy="202.07" r="3" /><circle cx="508.19" cy="201.21" r="3" /><circle cx="510.42" cy="200.37" r="3" /><circle cx="512.61" cy="199.55" r="3" /><circle cx="514.76" cy="198.74" r="3" /><circle cx="516.86" cy="197.95" r="3" /><circle cx="518.91" cy="197.17" r="3" /><circle cx="520.93" cy="196.42" r="3" /><circle cx="522.91" cy="195.67" r="3" /><circle cx="524.85" cy="194.94" r="3" /><circle cx="526.75" cy="194.23" r="3" /><circle cx="528.62" cy="193.52" r="3" /><circle cx="530.45" cy="192.83" r="3" /><circle cx="532.26" cy="192.16" r="3" /><circle cx="534.03" cy="191.49" r="3" /><circle cx="535.77" cy="190.83" r="3" /><circle cx="537.48" cy="190.19" r="3" /><circle cx="539.16" cy="189.56" r="3" /><circle cx="540.82" cy="188.93" r="3" /><circle cx="542.45" cy="188.32" r="3" /><circle cx="544.05" cy="187.72" r="3" /><circle cx="545.63" cy="187.12" r="3" /><circle cx="547.18" cy="186.54" r="3" /><circle cx="548.71" cy="185.96" r="3" /><circle cx="550.22" cy="185.40" r="3" /><circle cx="551.71" cy="184.84" r="3" /><circle cx="553.17" cy="184.29" r="3" /><circle cx="554.62" cy="183.74" r="3" /><circle cx="556.04" cy="183.21" r="3" /><circle cx="557.45" cy="182.68" r="3" /><circle cx="558.83" cy="182.16" r="3" /><circle cx="560.20" cy="181.64" r="3" /><circle cx="561.55" cy="181.14" r="3" /><circle cx="562.88" cy="180.63" r="3" /><circle cx="564.19" cy="180.14" r="3" /><circle cx="565.49" cy="179.65" r="3" /><circle cx="566.77" cy="179.17" r="3" /><circle cx="568.04" cy="178.69" r="3" /><circle cx="569.29" cy="178.22" r="3" /><circle cx="570.52" cy="177.76" r="3" /><circle cx="571.74" cy="177.30" r="3" /><circle cx="572.94" cy="176.85" r="3" /><circle cx="574.13" cy="176.40" r="3" /><circle cx="575.31" cy="175.96" r="3" /><circle cx="576.48" cy="175.52" r="3" /><circle cx="577.63" cy="175.09" r="3" /><circle cx="578.76" cy="174.66" r="3" /><circle cx="579.89" cy="174.23" r="3" /><circle cx="581.00" cy="173.82" r="3" /><circle cx="582.10" cy="173.40" r="3" /><circle cx="583.19" cy="172.99" r="3" /><circle cx="584.27" cy="172.59" r="3" /><circle cx="585.34" cy="172.19" r="3" /><circle cx="586.39" cy="171.79" r="3" /><circle cx="587.44" cy="171.40" r="3" /><circle cx="588.47" cy="171.01" r="3" /></g><g fill="none" stroke="#f60"><polygon points="117.58,399.39 123.58,399.39 120.58,404.58" /><polygon points="188.16,262.76 194.16,262.76 191.16,267.95" /><polygon points="229.44,234.99 235.44,234.99 232.44,240.19" /><polygon points="258.74,319.72 264.74,319.72 261.74,324.91" /><polygon points="281.46,202.15 287.46,202.15 284.46,207.35" /><polygon points="300.02,226.80 306.02,226.80 303.02,231.99" /><polygon points="315.72,173.58 321.72,173.58 318.72,178.78" /><polygon points="329.31,315.75 335.31,315.75 332.31,320.94" /><polygon points="341.31,178.38 347.31,178.38 344.31,183.57" /><polygon points="352.04,275.63 358.04,275.63 355.04,280.83" /><polygon points="361.74,182.42 367.74,182.42 364.74,187.62" /><polygon points="370.60,153.48 376.60,153.48 373.60,158.68" /><polygon points="378.75,144.66 384.75,144.66 381.75,149.85" /><polygon points="386.30,115.71 392.30,115.71 389.30,120.90" /><polygon points="393.32,128.59 399.32,128.59 396.32,133.78" /><polygon points="399.89,119.29 405.89,119.29 402.89,124.49" /><polygon points="406.07,182.57 412.07,182.57 409.07,187.77" /><polygon points="411.89,140.12 417.89,140.12 414.89,145.31" /><polygon points="417.39,334.76 423.39,334.76 420.39,339.96" /><polygon points="422.61,102.90 428.61,102.90 425.61,108.10" /><polygon points="427.58,96.06 433.58,96.06 430.58,101.25" /><polygon points="432.32,150.72 438.32,150.72 435.32,155.91" /><polygon points="436.84,81.84 442.84,81.84 439.84,87.03" /><polygon points="441.18,73.82 447.18,73.82 444.18,79.02" /><polygon points="445.34,75.99 451.34,75.99 448.34,81.18" /><polygon points="449.33,149.92 455.33,149.92 452.33,155.11" /><polygon points="453.17,185.42 459.17,185.42 456.17,190.62" /><polygon points="456.87,122.75 462.87,122.75 459.87,127.94" /><polygon points="460.45,162.45 466.45,162.45 463.45,167.64" /><polygon points="463.90,115.72 469.90,115.72 466.90,120.92" /><polygon points="467.24,95.91 473.24,95.91 470.24,101.11" /><polygon points="470.47,67.31 476.47,67.31 473.47,72.50" /><polygon points="473.60,170.10 479.60,170.10 476.60,175.30" /><polygon points="476.64,138.48 482.64,138.48 479.64,143.68" /><polygon points="479.60,88.16 485.60,88.16 482.60,93.36" /><polygon points="482.46,75.53 488.46,75.53 485.46,80.73" /><polygon points="485.25,78.29 491.25,78.29 488.25,83.49" /><polygon points="487.97,64.42 493.97,64.42 490.97,69.61" /><polygon points="490.61,122.31 496.61,122.31 493.61,127.51" /><polygon points="493.19,166.17 499.19,166.17 496.19,171.36" /><polygon points="495.71,69.91 501.71,69.91 498.71,75.10" /><polygon points="498.16,36.02 504.16,36.02 501.16,41.21" /><polygon points="500.56,129.09 506.56,129.09 503.56,134.28" /><polygon points="502.90,93.29 508.90,93.29 505.90,98.49" /><polygon points="505.19,32.55 511.19,32.55 508.19,37.75" /><polygon points="507.42,23.62 513.42,23.62 510.42,28.82" /><polygon points="509.61,67.36 515.61,67.36 512.61,72.55" /><polygon points="511.76,91.72 517.76,91.72 514.76,96.91" /><polygon points="513.86,68.13 519.86,68.13 516.86,73.33" /><polygon points="515.91,71.68 521.91,71.68 518.91,76.87" /><polygon points="517.93,56.25 523.93,56.25 520.93,61.44" /><polygon points="519.91,193.51 525.91,193.51 522.91,198.70" /><polygon points="521.85,37.02 527.85,37.02 524.85,42.21" /><polygon points="523.75,22.02 529.75,22.02 526.75,27.22" /><polygon points="525.62,22.14 531.62,22.14 528.62,27.34" /><polygon points="527.45,55.33 533.45,55.33 530.45,60.52" /><polygon points="529.26,136.39 535.26,136.39 532.26,141.59" /><polygon points="531.03,55.40 537.03,55.40 534.03,60.60" /><polygon points="532.77,42.66 538.77,42.66 535.77,47.86" /><polygon points="534.48,161.70 540.48,161.70 537.48,166.90" /><polygon points="536.16,46.42 542.16,46.42 539.16,51.61" /><polygon points="541.05,38.20 547.05,38.20 544.05,43.39" /><polygon points="542.63,72.53 548.63,72.53 545.63,77.73" /><polygon points="545.71,108.81 551.71,108.81 548.71,114.01" /><polygon points="548.71,42.24 554.71,42.24 551.71,47.44" /><polygon points="557.20,71.54 563.20,71.54 560.20,76.73" /><polygon points="558.55,35.12 564.55,35.12 561.55,40.32" /><polygon points="561.19,15.81 567.19,15.81 564.19,21.01" /><polygon points="566.29,44.31 572.29,44.31 569.29,49.51" /><polygon points="567.52,35.90 573.52,35.90 570.52,41.10" /><polygon points="568.74,45.02 574.74,45.02 571.74,50.22" /><polygon points="571.13,15.76 577.13,15.76 574.13,20.96" /><polygon points="573.48,95.89 579.48,95.89 576.48,101.08" /><polygon points="574.63,391.50 580.63,391.50 577.63,396.70" /><polygon points="578.00,23.53 584.00,23.53 581.00,28.73" /><polygon points="583.39,92.86 589.39,92.86 586.39,98.06" /></g><g stroke="black"><line x1="50.00" x2="50.00" y1="550.00" y2="560.00" /><line x1="284.46" x2="284.46" y1="550.00" y2="560.00" /><line x1="518.91" x2="518.91" y1="550.00" y2="560.00" /><line x1="120.58" x2="120.58" y1="550.00" y2="555.00" /><line x1="161.86" x2="161.86" y1="550.00" y2="555.00" /><line x1="191.16" x2="191.16" y1="550.00" y2="555.00" /><line x1="213.88" x2="213.88" y1="550.00" y2="555.00" /><line x1="232.44" x2="232.44" y1="550.00" y2="555.00" /><line x1="248.14" x2="248.14" y1="550.00" y2="555.00" /><line x1="261.74" x2="261.74" y1="550.00" y2="555.00" /><line x1="273.73" x2="273.73" y1="550.00" y2="555.00" /><line x1="355.04" x2="355.04" y1="550.00" y2="555.00" /><line x1="396.32" x2="396.32" y1="550.00" y2="555.00" /><line x1="425.61" x2="425.61" y1="550.00" y2="555.00" /><line x1="448.34" x2="448.34" y1="550.00" y2="555.00" /><line x1="466.90" x2="466.90" y1="550.00" y2="555.00" /><line x1="482.60" x2="482.60" y1="550.00" y2="555.00" /><line x1="496.19" x2="496.19" y1="550.00" y2="555.00" /><line x1="508.19" x2="508.19" y1="550.00" y2="555.00" /><line x1="589.49" x2="589.49" y1="550.00" y2="555.00" /><g fill="black" font-family="Arial" font-size="10" stroke="none" text-anchor="middle"><text x="50.00" y="570.00">1.00</text><text x="284.46" y="570.00">10.00</text><text x="518.91" y="570.00">100.00</text></g><line x1="50.00" x2="590.00" y1="550.00" y2="550.00" /></g><g stroke="black"><line x1="50.00" x2="40.00" y1="550.00" y2="550.00" /><line x1="50.00" x2="40.00" y1="373.59" y2="373.59" /><line x1="50.00" x2="40.00" y1="197.17" y2="197.17" /><line x1="50.00" x2="40.00" y1="20.76" y2="20.76" /><line x1="50.00" x2="45.00" y1="496.89" y2="496.89" /><line x1="50.00" x2="45.00" y1="465.83" y2="465.83" /><line x1="50.00" x2="45.00" y1="443.79" y2="443.79" /><line x1="50.00" x2="45.00" y1="426.69" y2="426.69" /><line x1="50.00" x2="45.00" y1="412.72" y2="412.72" /><line x1="50.00" x2="45.00" y1="400.91" y2="400.91" /><line x1="50.00" x2="45.00" y1="390.68" y2="390.68" /><line x1="50.00" x2="45.00" y1="381.66" y2="381.66" /><line x1="50.00" x2="45.00" y1="320.48" y2="320.48" /><line x1="50.00" x2="45.00" y1="289.42" y2="289.42" /><line x1="50.00" x2="45.00" y1="267.38" y2="267.38" /><line x1="50.00" x2="45.00" y1="250.28" y2="250.28" /><line x1="50.00" x2="45.00" y1="236.31" y2="236.31" /><line x1="50.00" x2="45.00" y1="224.50" y2="224.50" /><line x1="50.00" x2="45.00" y1="214.27" y2="214.27" /><line x1="50.00" x2="45.00" y1="205.25" y2="205.25" /><line x1="50.00" x2="45.00" y1="144.07" y2="144.07" /><line x1="50.00" x2="45.00" y1="113.00" y2="113.00" /><line x1="50.00" x2="45.00" y1="90.96" y2="90.96" /><line x1="50.00" x2="45.00" y1="73.87" y2="73.87" /><line x1="50.00" x2="45.00" y1="59.90" y2="59.90" /><line x1="50.00" x2="45.00" y1="48.09" y2="48.09" /><line x1="50.00" x2="45.00" y1="37.86" y2="37.86" /><line x1="50.00" x2="45.00" y1="28.83" y2="28.83" /><g fill="black" font-family="Arial" font-size="10" stroke="none" text-anchor="end"><text x="35.00" y="550.00">0.10</text><text x="35.00" y="373.59">1.00</text><text x="35.00" y="197.17">10.00</text><text x="35.00" y="20.76">100.00</text></g><line x1="50.00" x2="50.00" y1="550.00" y2="20.00" /></g></g></svg>