<?xml version="1.0"?>
<svg height="600" version="1.1" width="600" xmlns:xlink="http://www.w3.org/1999/xlink" xmlns="http://www.w3.org/2000/svg"><g><g stroke-dasharray="1 1" stroke="#caa"><line x1="120.58" x2="120.58" y1="550.00" y2="20.00" /><line x1="161.86" x2="161.86" y1="550.00" y2="20.00" /><line x1="191.16" x2="191.16" y1="550.00" y2="20.00" /><line x1="213.88" x2="213.88" y1="550.00" y2="20.00" /><line x1="232.44" x2="232.44" y1="550.00" y2="20.00" /><line x1="248.14" x2="248.14" y1="550.00" y2="20.00" /><line x1="261.74" x2="261.74" y1="550.00" y2="20.00" /><line x1="273.73" x2="273.73" y1="550.00" y2="20.00" /><line x1="355.04" x2="355.04" y1="550.00" y2="20.00" /><line x1="396.32" x2="396.32" y1="550.00" y2="20.00" /><line x1="425.61" x2="425.61" y1="550.00" y2="20.00" /><line x1="448.34" x2="448.34" y1="550.00" y2="20.00" /><line x1="466.90" x2="466.90" y1="550.00" y2="20.00" /><line x1="482.60" x2="482.60" y1="550.00" y2="20.00" /><line x1="496.19" x2="496.19" y1="550.00" y2="20.00" /><line x1="508.19" x2="508.19" y1="550.00" y2="20.00" /><line x1="589.49" x2="589.49" y1="550.00" y2="20.00" /><line x1="50.00" x2="50.00" y1="550.00" y2="20.00" /><line x1="284.46" x2="284.46" y1="550.00" y2="20.00" /><line x1="518.91" x2="518.91" y1="550.00" y2="20.00" /><line x1="50.00" x2="590.00" y1="524.00" y2="524.00" /><line x1="50.00" x2="590.00" y1="470.95" y2="470.95" /><line x1="50.00" x2="590.00" y1="417.90" y2="417.90" /><line x1="50.00" x2="590.00" y1="364.84" y2="364.84" /><line x1="50.00" x2="590.00" y1="311.79" y2="311.79" /><line x1="50.00" x2="590.00" y1="258.74" y2="258.74" /><line x1="50.00" x2="590.00" y1="205.69" y2="205.69" /><line x1="50.00" x2="590.00" y1="152.63" y2="152.63" /><line x1="50.00" x2="590.00" y1="99.58" y2="99.58" /><line x1="50.00" x2="590.00" y1="46.53" y2="46.53" /><line x1="50.00" x2="590.00" y1="497.48" y2="497.48" /><line x1="50.00" x2="590.00" y1="444.42" y2="444.42" /><line x1="50.00" x2="590.00" y1="391.37" y2="391.37" /><line x1="50.00" x2="590.00" y1="338.32" y2="338.32" /><line x1="50.00" x2="590.00" y1="285.27" y2="285.27" /><line x1="50.00" x2="590.00" y1="232.21" y2="232.21" /><line x1="50.00" x2="590.00" y1="179.16" y2="179.16" /><line x1="50.00" x2="590.00" y1="126.11" y2="126.11" /><line x1="50.00" x2="590.00" y1="73.05" y2="73.05" /><line x1="50.00" x2="590.00" y1="20.00" y2="20.00" /></g><g fill="#0af" stroke="none"><circle cx="120.58" cy="543.03" r="3" /><circle cx="191.16" cy="539.92" r="3" /><circle cx="232.44" cy="537.54" r="3" /><circle cx="261.74" cy="535.52" r="3" /><circle cx="284.46" cy="533.75" r="3" /><circle cx="303.02" cy="532.15" r="3" /><circle cx="318.72" cy="530.68" r="3" /><circle cx="332.31" cy="529.31" r="3" /><circle cx="344.31" cy="528.02" r="3" /><circle cx="355.04" cy="526.80" r="3" /><circle cx="364.74" cy="525.65" r="3" /><circle cx="373.60" cy="524.54" r="3" /><circle cx="381.75" cy="523.48" r="3" /><circle cx="389.30" cy="522.46" r="3" /><circle cx="396.32" cy="521.47" r="3" /><circle cx="402.89" cy="520.52" r="3" /><circle cx="409.07" cy="519.60" r="3" /><circle cx="414.89" cy="518.70" r="3" /><circle cx="420.39" cy="517.83" r="3" /><circle cx="425.61" cy="516.98" r="3" /><circle cx="430.58" cy="516.15" r="3" /><circle cx="435.32" cy="515.34" r="3" /><circle cx="439.84" cy="514.55" r="3" /><circle cx="444.18" cy="513.77" r="3" /><circle cx="448.34" cy="513.02" r="3" /><circle cx="452.33" cy="512.27" r="3" /><circle cx="456.17" cy="511.54" r="3" /><circle cx="459.87" cy="510.83" r="3" /><circle cx="463.45" cy="510.13" r="3" /><circle cx="466.90" cy="509.44" r="3" /><circle cx="470.24" cy="508.76" r="3" /><circle cx="473.47" cy="508.09" r="3" /><circle cx="476.60" cy="507.43" r="3" /><circle cx="479.64" cy="506.78" r="3" /><circle cx="482.60" cy="506.14" r="3" /><circle cx="485.46" cy="505.51" r="3" /><circle cx="488.25" cy="504.89" r="3" /><circle cx="490.97" cy="504.28" r="3" /><circle cx="493.61" cy="503.68" r="3" /><circle cx="496.19" cy="503.08" r="3" /><circle cx="498.71" cy="502.49" r="3" /><circle cx="501.16" cy="501.91" r="3" /><circle cx="503.56" cy="501.33" r="3" /><circle cx="505.90" cy="500.76" r="3" /><circle cx="508.19" cy="500.20" r="3" /><circle cx="510.42" cy="499.64" r="3" /><circle cx="512.61" cy="499.09" r="3" /><circle cx="514.76" cy="498.55" r="3" /><circle cx="516.86" cy="498.01" r="3" /><circle cx="518.91" cy="497.48" r="3" /><circle cx="520.93" cy="496.95" r="3" /><circle cx="522.91" cy="496.43" r="3" /><circle cx="524.85" cy="495.91" r="3" /><circle cx="526.75" cy="495.40" r="3" /><circle cx="528.62" cy="494.89" r="3" /><circle cx="530.45" cy="494.38" r="3" /><circle cx="532.26" cy="493.89" r="3" /><circle cx="534.03" cy="493.39" r="3" /><circle cx="535.77" cy="492.90" r="3" /><circle cx="537.48" cy="492.41" r="3" /><circle cx="539.16" cy="491.93" r="3" /><circle cx="540.82" cy="491.45" r="3" /><circle cx="542.45" cy="490.98" r="3" /><circle cx="544.05" cy="490.51" r="3" /><circle cx="545.63" cy="490.04" r="3" /><circle cx="547.18" cy="489.58" r="3" /><circle cx="548.71" cy="489.12" r="3" /><circle cx="550.22" cy="488.66" r="3" /><circle cx="551.71" cy="488.21" r="3" /><circle cx="553.17" cy="487.76" r="3" /><circle cx="554.62" cy="487.31" r="3" /><circle cx="556.04" cy="486.87" r="3" /><circle cx="557.45" cy="486.43" r="3" /><circle cx="558.83" cy="485.99" r="3" /><circle cx="560.20" cy="485.55" r="3" /><circle cx="561.55" cy="485.12" r="3" /><circle cx="562.88" cy="484.69" r="3" /><circle cx="564.19" cy="484.27" r="3" /><circle cx="565.49" cy="483.84" r="3" /><circle cx="566.77" cy="483.42" r="3" /><circle cx="568.04" cy="483.01" r="3" /><circle cx="569.29" cy="482.59" r="3" /><circle cx="570.52" cy="482.18" r="3" /><circle cx="571.74" cy="481.77" r="3" /><circle cx="572.94" cy="481.36" r="3" /><circle cx="574.13" cy="480.95" r="3" /><circle cx="575.31" cy="480.55" r="3" /><circle cx="576.48" cy="480.15" r="3" /><circle cx="577.63" cy="479.75" r="3" /><circle cx="578.76" cy="479.35" r="3" /><circle cx="579.89" cy="478.96" r="3" /><circle cx="581.00" cy="478.57" r="3" /><circle cx="582.10" cy="478.18" r="3" /><circle cx="583.19" cy="477.79" r="3" /><circle cx="584.27" cy="477.40" r="3" /><circle cx="585.34" cy="477.02" r="3" /><circle cx="586.39" cy="476.64" r="3" /><circle cx="587.44" cy="476.26" r="3" /><circle cx="588.47" cy="475.88" r="3" /></g><g fill="none" stroke="#f60"><polygon points="117.58,541.79 123.58,541.79 120.58,546.99" /><polygon points="188.16,524.27 194.16,524.27 191.16,529.47" /><polygon points="229.44,515.07 235.44,515.07 232.44,520.27" /><polygon points="258.74,535.32 264.74,535.32 261.74,540.52" /><polygon points="281.46,498.88 287.46,498.88 284.46,504.07" /><polygon points="300.02,511.66 306.02,511.66 303.02,516.85" /><polygon points="315.72,477.88 321.72,477.88 318.72,483.08" /><polygon points="329.31,534.79 335.31,534.79 332.31,539.98" /><polygon points="341.31,481.97 347.31,481.97 344.31,487.17" /><polygon points="352.04,527.53 358.04,527.53 355.04,532.73" /><polygon points="361.74,485.23 367.74,485.23 364.74,490.43" /><polygon points="370.60,457.65 376.60,457.65 373.60,462.85" /><polygon points="378.75,446.94 384.75,446.94 381.75,452.14" /><polygon points="386.30,401.76 392.30,401.76 389.30,406.96" /><polygon points="393.32,423.98 399.32,423.98 396.32,429.18" /><polygon points="399.89,408.33 405.89,408.33 402.89,413.52" /><polygon points="406.07,485.35 412.07,485.35 409.07,490.55" /><polygon points="411.89,440.94 417.89,440.94 414.89,446.13" /><polygon points="417.39,537.11 423.39,537.11 420.39,542.30" /><polygon points="422.61,375.64 428.61,375.64 425.61,380.84" /><polygon points="427.58,359.79 433.58,359.79 430.58,364.99" /><polygon points="432.32,454.43 438.32,454.43 435.32,459.62" /><polygon points="436.84,321.95 442.84,321.95 439.84,327.15" /><polygon points="441.18,297.32 447.18,297.32 444.18,302.51" /><polygon points="445.34,304.22 451.34,304.22 448.34,309.42" /><polygon points="449.33,453.47 455.33,453.47 452.33,458.67" /><polygon points="453.17,487.54 459.17,487.54 456.17,492.74" /><polygon points="456.87,414.37 462.87,414.37 459.87,419.57" /><polygon points="460.45,467.33 466.45,467.33 463.45,472.53" /><polygon points="463.90,401.79 469.90,401.79 466.90,406.99" /><polygon points="467.24,359.44 473.24,359.44 470.24,364.63" /><polygon points="470.47,275.30 476.47,275.30 473.47,280.49" /><polygon points="473.60,474.75 479.60,474.75 476.60,479.94" /><polygon points="476.64,438.68 482.64,438.68 479.64,443.88" /><polygon points="479.60,339.65 485.60,339.65 482.60,344.85" /><polygon points="482.46,302.79 488.46,302.79 485.46,307.98" /><polygon points="485.25,311.37 491.25,311.37 488.25,316.56" /><polygon points="487.97,264.92 493.97,264.92 490.97,270.11" /><polygon points="490.61,413.63 496.61,413.63 493.61,418.82" /><polygon points="493.19,471.03 499.19,471.03 496.19,476.22" /><polygon points="495.71,284.31 501.71,284.31 498.71,289.51" /><polygon points="498.16,139.09 504.16,139.09 501.16,144.29" /><polygon points="500.56,424.77 506.56,424.77 503.56,429.96" /><polygon points="502.90,352.97 508.90,352.97 505.90,358.16" /><polygon points="505.19,120.31 511.19,120.31 508.19,125.51" /><polygon points="507.42,67.76 513.42,67.76 510.42,72.96" /><polygon points="509.61,275.48 515.61,275.48 512.61,280.68" /><polygon points="511.76,348.97 517.76,348.97 514.76,354.17" /><polygon points="513.86,278.19 519.86,278.19 516.86,283.38" /><polygon points="515.91,290.27 521.91,290.27 518.91,295.46" /><polygon points="517.93,233.37 523.93,233.37 520.93,238.57" /><polygon points="519.91,493.33 525.91,493.33 522.91,498.53" /><polygon points="521.85,144.37 527.85,144.37 524.85,149.56" /><polygon points="523.75,57.68 529.75,57.68 526.75,62.87" /><polygon points="525.62,58.45 531.62,58.45 528.62,63.65" /><polygon points="527.45,229.59 533.45,229.59 530.45,234.79" /><polygon points="529.26,435.74 535.26,435.74 532.26,440.93" /><polygon points="531.03,229.92 537.03,229.92 534.03,235.11" /><polygon points="532.77,172.84 538.77,172.84 535.77,178.03" /><polygon points="534.48,466.57 540.48,466.57 537.48,471.77" /><polygon points="536.16,190.65 542.16,190.65 539.16,195.85" /><polygon points="541.05,150.50 547.05,150.50 544.05,155.69" /><polygon points="542.63,293.10 548.63,293.10 545.63,298.29" /><polygon points="545.71,388.24 551.71,388.24 548.71,393.44" /><polygon points="548.71,170.79 554.71,170.79 551.71,175.99" /><polygon points="557.20,289.81 563.20,289.81 560.20,295.01" /><polygon points="558.55,134.33 564.55,134.33 561.55,139.52" /><polygon points="561.19,16.50 567.19,16.50 564.19,21.70" /><polygon points="566.29,180.79 572.29,180.79 569.29,185.99" /><polygon points="567.52,138.49 573.52,138.49 570.52,143.69" /><polygon points="568.74,184.15 574.74,184.15 571.74,189.35" /><polygon points="571.13,16.14 577.13,16.14 574.13,21.34" /><polygon points="573.48,359.38 579.48,359.38 576.48,364.57" /><polygon points="574.63,541.41 580.63,541.41 577.63,546.61" /><polygon points="578.00,67.18 584.00,67.18 581.00,72.37" /><polygon points="583.39,351.89 589.39,351.89 586.39,357.08" /></g><g stroke="black"><line x1="50.00" x2="50.00" y1="550.00" y2="560.00" /><line x1="284.46" x2="284.46" y1="550.00" y2="560.00" /><line x1="518.91" x2="518.91" y1="550.00" y2="560.00" /><line x1="120.58" x2="120.58" y1="550.00" y2="555.00" /><line x1="161.86" x2="161.86" y1="550.00" y2="555.00" /><line x1="191.16" x2="191.16" y1="550.00" y2="555.00" /><line x1="213.88" x2="213.88" y1="550.00" y2="555.00" /><line x1="232.44" x2="232.44" y1="550.00" y2="555.00" /><line x1="248.14" x2="248.14" y1="550.00" y2="555.00" /><line x1="261.74" x2="261.74" y1="550.00" y2="555.00" /><line x1="273.73" x2="273.73" y1="550.00" y2="555.00" /><line x1="355.04" x2="355.04" y1="550.00" y2="555.00" /><line x1="396.32" x2="396.32" y1="550.00" y2="555.00" /><line x1="425.61" x2="425.61" y1="550.00" y2="555.00" /><line x1="448.34" x2="448.34" y1="550.00" y2="555.00" /><line x1="466.90" x2="466.90" y1="550.00" y2="555.00" /><line x1="482.60" x2="482.60" y1="550.00" y2="555.00" /><line x1="496.19" x2="496.19" y1="550.00" y2="555.00" /><line x1="508.19" x2="508.19" y1="550.00" y2="555.00" /><line x1="589.49" x2="589.49" y1="550.00" y2="555.00" /><g fill="black" font-family="Arial" font-size="10" stroke="none" text-anchor="middle"><text x="50.00" y="570.00">1.00</text><text x="284.46" y="570.00">10.00</text><text x="518.91" y="570.00">100.00</text></g><line x1="50.00" x2="590.00" y1="550.00" y2="550.00" /></g><g stroke="black"><line x1="50.00" x2="40.00" y1="497.48" y2="497.48" /><line x1="50.00" x2="40.00" y1="444.42" y2="444.42" /><line x1="50.00" x2="40.00" y1="391.37" y2="391.37" /><line x1="50.00" x2="40.00" y1="338.32" y2="338.32" /><line x1="50.00" x2="40.00" y1="285.27" y2="285.27" /><line x1="50.00" x2="40.00" y1="232.21" y2="232.21" /><line x1="50.00" x2="40.00" y1="179.16" y2="179.16" /><line x1="50.00" x2="40.00" y1="126.11" y2="126.11" /><line x1="50.00" x2="40.00" y1="73.05" y2="73.05" /><line x1="50.00" x2="40.00" y1="20.00" y2="20.00" /><line x1="50.00" x2="45.00" y1="524.00" y2="524.00" /><line x1="50.00" x2="45.00" y1="470.95" y2="470.95" /><line x1="50.00" x2="45.00" y1="417.90" y2="417.90" /><line x1="50.00" x2="45.00" y1="364.84" y2="364.84" /><line x1="50.00" x2="45.00" y1="311.79" y2="311.79" /><line x1="50.00" x2="45.00" y1="258.74" y2="258.74" /><line x1="50.00" x2="45.00" y1="205.69" y2="205.69" /><line x1="50.00" x2="45.00" y1="152.63" y2="152.63" /><line x1="50.00" x2="45.00" y1="99.58" y2="99.58" /><line x1="50.00" x2="45.00" y1="46.53" y2="46.53" /><g fill="black" font-family="Arial" font-size="10" stroke="none" text-anchor="end"><text x="35.00" y="497.48">10.00</text><text x="35.00" y="444.42">20.00</text><text x="35.00" y="391.37">30.00</text><text x="35.00" y="338.32">40.00</text><text x="35.00" y="285.27">50.00</text><text x="35.00" y="232.21">60.00</text><text x="35.00" y="179.16">70.00</text><text x="35.00" y="126.11">80.00</text><text x="35.00" y="73.05">90.00</text><text x="35.00" y="20.00">100.00</text></g><line x1="50.00" x2="50.00" y1="550.00" y2="20.00" /></g></g></svg>