<?xml version="1.0"?>
<svg height="200" version="1.1" width="960" xmlns:xlink="http://www.w3.org/1999/xlink" xmlns="http://www.w3.org/2000/svg"><defs><linearGradient id="project"><stop offset="0%" stop-color="#00aaff" /><stop offset="100%" stop-color="#a8e2ff" /></linearGradient><linearGradient id="oss"><stop offset="0%" stop-color="#6633ff" /><stop offset="100%" stop-color="#e4dbff" /></linearGradient><linearGradient id="workshop"><stop offset="0%" stop-color="#99ff00" /><stop offset="100%" stop-color="#dcffa8" /></linearGradient><linearGradient id="talk"><stop offset="0%" stop-color="#ff99ff" /><stop offset="100%" stop-color="#ffffff" /></linearGradient></defs><g><g stroke-dasharray="1 1" stroke="#ccc"><line x1="10.27" x2="10.27" y1="10.00" y2="160.00" /><line x1="26.77" x2="26.77" y1="10.00" y2="160.00" /><line x1="43.27" x2="43.27" y1="10.00" y2="160.00" /><line x1="59.77" x2="59.77" y1="10.00" y2="160.00" /><line x1="92.77" x2="92.77" y1="10.00" y2="160.00" /><line x1="109.27" x2="109.27" y1="10.00" y2="160.00" /><line x1="125.77" x2="125.77" y1="10.00" y2="160.00" /><line x1="142.27" x2="142.27" y1="10.00" y2="160.00" /><line x1="158.77" x2="158.77" y1="10.00" y2="160.00" /><line x1="175.27" x2="175.27" y1="10.00" y2="160.00" /><line x1="191.77" x2="191.77" y1="10.00" y2="160.00" /><line x1="208.27" x2="208.27" y1="10.00" y2="160.00" /><line x1="224.77" x2="224.77" y1="10.00" y2="160.00" /><line x1="241.27" x2="241.27" y1="10.00" y2="160.00" /><line x1="257.77" x2="257.77" y1="10.00" y2="160.00" /><line x1="290.77" x2="290.77" y1="10.00" y2="160.00" /><line x1="307.27" x2="307.27" y1="10.00" y2="160.00" /><line x1="323.77" x2="323.77" y1="10.00" y2="160.00" /><line x1="340.27" x2="340.27" y1="10.00" y2="160.00" /><line x1="356.77" x2="356.77" y1="10.00" y2="160.00" /><line x1="373.27" x2="373.27" y1="10.00" y2="160.00" /><line x1="389.77" x2="389.77" y1="10.00" y2="160.00" /><line x1="406.27" x2="406.27" y1="10.00" y2="160.00" /><line x1="422.77" x2="422.77" y1="10.00" y2="160.00" /><line x1="439.27" x2="439.27" y1="10.00" y2="160.00" /><line x1="455.77" x2="455.77" y1="10.00" y2="160.00" /><line x1="488.78" x2="488.78" y1="10.00" y2="160.00" /><line x1="505.28" x2="505.28" y1="10.00" y2="160.00" /><line x1="521.78" x2="521.78" y1="10.00" y2="160.00" /><line x1="538.28" x2="538.28" y1="10.00" y2="160.00" /><line x1="554.78" x2="554.78" y1="10.00" y2="160.00" /><line x1="571.28" x2="571.28" y1="10.00" y2="160.00" /><line x1="587.78" x2="587.78" y1="10.00" y2="160.00" /><line x1="604.28" x2="604.28" y1="10.00" y2="160.00" /><line x1="620.78" x2="620.78" y1="10.00" y2="160.00" /><line x1="637.28" x2="637.28" y1="10.00" y2="160.00" /><line x1="653.78" x2="653.78" y1="10.00" y2="160.00" /><line x1="686.78" x2="686.78" y1="10.00" y2="160.00" /><line x1="703.28" x2="703.28" y1="10.00" y2="160.00" /><line x1="719.78" x2="719.78" y1="10.00" y2="160.00" /><line x1="736.28" x2="736.28" y1="10.00" y2="160.00" /><line x1="752.78" x2="752.78" y1="10.00" y2="160.00" /><line x1="769.28" x2="769.28" y1="10.00" y2="160.00" /><line x1="785.78" x2="785.78" y1="10.00" y2="160.00" /><line x1="802.28" x2="802.28" y1="10.00" y2="160.00" /><line x1="818.78" x2="818.78" y1="10.00" y2="160.00" /><line x1="835.28" x2="835.28" y1="10.00" y2="160.00" /><line x1="851.78" x2="851.78" y1="10.00" y2="160.00" /><line x1="884.78" x2="884.78" y1="10.00" y2="160.00" /><line x1="901.28" x2="901.28" y1="10.00" y2="160.00" /><line x1="917.78" x2="917.78" y1="10.00" y2="160.00" /><line x1="934.28" x2="934.28" y1="10.00" y2="160.00" /><line x1="76.27" x2="76.27" y1="10.00" y2="160.00" /><line x1="274.27" x2="274.27" y1="10.00" y2="160.00" /><line x1="472.28" x2="472.28" y1="10.00" y2="160.00" /><line x1="670.28" x2="670.28" y1="10.00" y2="160.00" /><line x1="868.28" x2="868.28" y1="10.00" y2="160.00" /></g><g fill="white" font-family="Arial" font-size="10" stroke="none"><g><rect fill="url(#oss)" height="14" rx="7" ry="7" width="558.2676" x="3.00" y="3.00" /><text x="10.00" y="13.00">toxiclibs</text></g><g><rect fill="url(#project)" height="14" rx="7" ry="7" width="63.873127" x="563.53" y="3.00" /><text x="570.53" y="13.00">ODI</text></g><g><rect fill="url(#project)" height="14" rx="7" ry="7" width="145.7301" x="646.47" y="3.00" /><text x="653.47" y="13.00">Co(De)Factory</text></g><g><rect fill="url(#oss)" height="14" rx="7" ry="7" width="161.99307" x="795.01" y="3.00" /><text x="802.01" y="13.00">thi.ng/color</text></g><g><rect fill="url(#project)" height="14" rx="7" ry="7" width="63.331028" x="3.00" y="19.67" /><text x="10.00" y="29.67">Engine26</text></g><g><rect fill="url(#workshop)" height="14" rx="7" ry="7" width="45.983852" x="69.14" y="19.67" /><text x="76.14" y="29.67">V&amp;A</text></g><g><rect fill="url(#workshop)" height="14" rx="7" ry="7" width="14" x="117.93" y="19.67" /></g><g><rect fill="url(#project)" height="14" rx="7" ry="7" width="312.15454" x="134.19" y="19.67" /><text x="141.19" y="29.67">Chrome WebLab</text></g><g><rect fill="url(#oss)" height="14" rx="7" ry="7" width="508.39447" x="448.61" y="19.67" /><text x="455.61" y="29.67">thi.ng/trio</text></g><g><rect fill="url(#workshop)" height="14" rx="7" ry="7" width="14" x="19.26" y="36.33" /></g><g><rect fill="url(#workshop)" height="14" rx="7" ry="7" width="14" x="36.07" y="36.33" /></g><g><rect fill="url(#project)" height="14" rx="7" ry="7" width="95.85698" x="52.33" y="36.33" /><text x="59.33" y="46.33">V&amp;A Ornamental</text></g><g><rect fill="url(#oss)" height="14" rx="7" ry="7" width="772.93884" x="184.06" y="36.33" /><text x="191.06" y="46.33">thi.ng/geom</text></g><g><rect fill="url(#workshop)" height="14" rx="7" ry="7" width="14" x="316.33" y="53.00" /></g><g><rect fill="url(#project)" height="14" rx="7" ry="7" width="195.06113" x="349.40" y="53.00" /><text x="356.40" y="63.00">LCOM</text></g><g><rect fill="url(#talk)" height="14" rx="7" ry="7" width="14" x="547.27" y="53.00" /></g><g><rect fill="url(#oss)" height="14" rx="7" ry="7" width="343.5963" x="613.40" y="53.00" /><text x="620.40" y="63.00">thi.ng/luxor</text></g><g><rect fill="url(#talk)" height="14" rx="7" ry="7" width="14" x="316.33" y="69.67" /></g><g><rect fill="url(#oss)" height="14" rx="7" ry="7" width="145.7301" x="415.54" y="69.67" /><text x="422.54" y="79.67">thi.ng/simplecl</text></g><g><rect fill="url(#oss)" height="14" rx="7" ry="7" width="261.73932" x="613.40" y="69.67" /><text x="620.40" y="79.67">thi.ng/tweeny</text></g><g><rect fill="url(#workshop)" height="14" rx="7" ry="7" width="14" x="909.93" y="69.67" /></g><g><rect fill="url(#oss)" height="14" rx="7" ry="7" width="30.805075" x="926.19" y="69.67" /></g><g><rect fill="url(#oss)" height="14" rx="7" ry="7" width="80.6782" x="415.54" y="86.33" /><text x="422.54" y="96.33">thi.ng/structgen</text></g><g><rect fill="url(#workshop)" height="14" rx="7" ry="7" width="14" x="497.39" y="86.33" /></g><g><rect fill="url(#workshop)" height="14" rx="7" ry="7" width="14" x="514.20" y="86.33" /></g><g><rect fill="url(#talk)" height="14" rx="7" ry="7" width="14" x="680.08" y="86.33" /></g><g><rect fill="url(#oss)" height="14" rx="7" ry="7" width="261.73932" x="695.26" y="86.33" /><text x="702.26" y="96.33">thi.ng/morphogen</text></g><g><rect fill="url(#workshop)" height="14" rx="7" ry="7" width="14" x="432.34" y="103.00" /></g><g><rect fill="url(#oss)" height="14" rx="7" ry="7" width="62.24683" x="482.22" y="103.00" /><text x="489.22" y="113.00">thi.ng/raymarchcl</text></g><g><rect fill="url(#workshop)" height="14" rx="7" ry="7" width="14" x="712.07" y="103.00" /></g><g><rect fill="url(#oss)" height="14" rx="7" ry="7" width="228.67128" x="728.33" y="103.00" /><text x="735.33" y="113.00">thi.ng/validate</text></g><g><rect fill="url(#talk)" height="14" rx="7" ry="7" width="14" x="497.39" y="119.67" /></g><g><rect fill="url(#talk)" height="14" rx="7" ry="7" width="14" x="712.07" y="119.67" /></g><g><rect fill="url(#workshop)" height="14" rx="7" ry="7" width="14" x="745.13" y="119.67" /></g><g><rect fill="url(#talk)" height="14" rx="7" ry="7" width="14" x="795.01" y="119.67" /></g><g><rect fill="url(#workshop)" height="14" rx="7" ry="7" width="14" x="844.34" y="119.67" /></g><g><rect fill="url(#talk)" height="14" rx="7" ry="7" width="14" x="909.93" y="119.67" /></g><g><rect fill="url(#talk)" height="14" rx="7" ry="7" width="14" x="795.01" y="136.33" /></g></g><g stroke="black"><line x1="76.27" x2="76.27" y1="160.00" y2="170.00" /><line x1="274.27" x2="274.27" y1="160.00" y2="170.00" /><line x1="472.28" x2="472.28" y1="160.00" y2="170.00" /><line x1="670.28" x2="670.28" y1="160.00" y2="170.00" /><line x1="868.28" x2="868.28" y1="160.00" y2="170.00" /><line x1="10.27" x2="10.27" y1="160.00" y2="165.00" /><line x1="26.77" x2="26.77" y1="160.00" y2="165.00" /><line x1="43.27" x2="43.27" y1="160.00" y2="165.00" /><line x1="59.77" x2="59.77" y1="160.00" y2="165.00" /><line x1="92.77" x2="92.77" y1="160.00" y2="165.00" /><line x1="109.27" x2="109.27" y1="160.00" y2="165.00" /><line x1="125.77" x2="125.77" y1="160.00" y2="165.00" /><line x1="142.27" x2="142.27" y1="160.00" y2="165.00" /><line x1="158.77" x2="158.77" y1="160.00" y2="165.00" /><line x1="175.27" x2="175.27" y1="160.00" y2="165.00" /><line x1="191.77" x2="191.77" y1="160.00" y2="165.00" /><line x1="208.27" x2="208.27" y1="160.00" y2="165.00" /><line x1="224.77" x2="224.77" y1="160.00" y2="165.00" /><line x1="241.27" x2="241.27" y1="160.00" y2="165.00" /><line x1="257.77" x2="257.77" y1="160.00" y2="165.00" /><line x1="290.77" x2="290.77" y1="160.00" y2="165.00" /><line x1="307.27" x2="307.27" y1="160.00" y2="165.00" /><line x1="323.77" x2="323.77" y1="160.00" y2="165.00" /><line x1="340.27" x2="340.27" y1="160.00" y2="165.00" /><line x1="356.77" x2="356.77" y1="160.00" y2="165.00" /><line x1="373.27" x2="373.27" y1="160.00" y2="165.00" /><line x1="389.77" x2="389.77" y1="160.00" y2="165.00" /><line x1="406.27" x2="406.27" y1="160.00" y2="165.00" /><line x1="422.77" x2="422.77" y1="160.00" y2="165.00" /><line x1="439.27" x2="439.27" y1="160.00" y2="165.00" /><line x1="455.77" x2="455.77" y1="160.00" y2="165.00" /><line x1="488.78" x2="488.78" y1="160.00" y2="165.00" /><line x1="505.28" x2="505.28" y1="160.00" y2="165.00" /><line x1="521.78" x2="521.78" y1="160.00" y2="165.00" /><line x1="538.28" x2="538.28" y1="160.00" y2="165.00" /><line x1="554.78" x2="554.78" y1="160.00" y2="165.00" /><line x1="571.28" x2="571.28" y1="160.00" y2="165.00" /><line x1="587.78" x2="587.78" y1="160.00" y2="165.00" /><line x1="604.28" x2="604.28" y1="160.00" y2="165.00" /><line x1="620.78" x2="620.78" y1="160.00" y2="165.00" /><line x1="637.28" x2="637.28" y1="160.00" y2="165.00" /><line x1="653.78" x2="653.78" y1="160.00" y2="165.00" /><line x1="686.78" x2="686.78" y1="160.00" y2="165.00" /><line x1="703.28" x2="703.28" y1="160.00" y2="165.00" /><line x1="719.78" x2="719.78" y1="160.00" y2="165.00" /><line x1="736.28" x2="736.28" y1="160.00" y2="165.00" /><line x1="752.78" x2="752.78" y1="160.00" y2="165.00" /><line x1="769.28" x2="769.28" y1="160.00" y2="165.00" /><line x1="785.78" x2="785.78" y1="160.00" y2="165.00" /><line x1="802.28" x2="802.28" y1="160.00" y2="165.00" /><line x1="818.78" x2="818.78" y1="160.00" y2="165.00" /><line x1="835.28" x2="835.28" y1="160.00" y2="165.00" /><line x1="851.78" x2="851.78" y1="160.00" y2="165.00" /><line x1="884.78" x2="884.78" y1="160.00" y2="165.00" /><line x1="901.28" x2="901.28" y1="160.00" y2="165.00" /><line x1="917.78" x2="917.78" y1="160.00" y2="165.00" /><line x1="934.28" x2="934.28" y1="160.00" y2="165.00" /><g fill="black" font-family="Arial" font-size="10" stroke="none" text-anchor="middle"><text x="76.27" y="180.00">2011</text><text x="274.27" y="180.00">2012</text><text x="472.28" y="180.00">2013</text><text x="670.28" y="180.00">2014</text><text x="868.28" y="180.00">2015</text></g><line x1="10.00" x2="950.00" y1="160.00" y2="160.00" /></g></g></svg>