<svg width="200" height="200" stroke="#f04" fill="none" xmlns="http://www.w3.org/2000/svg"><circle cx="200.00" cy="200.00" r="3.00"/><circle cx="190.00" cy="200.00" r="3.00"/><circle cx="180.00" cy="200.00" r="3.00"/><circle cx="170.00" cy="200.00" r="3.00"/><circle cx="160.00" cy="200.00" r="3.00"/><circle cx="150.00" cy="200.00" r="3.00"/><circle cx="140.00" cy="200.00" r="3.00"/><circle cx="130.00" cy="200.00" r="3.00"/><circle cx="120.00" cy="200.00" r="3.00"/><circle cx="110.00" cy="200.00" r="3.00"/><circle cx="100.00" cy="200.00" r="3.00"/><circle cx="90.00" cy="200.00" r="3.00"/><circle cx="80.00" cy="200.00" r="3.00"/><circle cx="70.00" cy="200.00" r="3.00"/><circle cx="60.00" cy="200.00" r="3.00"/><circle cx="50.00" cy="200.00" r="3.00"/><circle cx="40.00" cy="200.00" r="3.00"/><circle cx="30.00" cy="200.00" r="3.00"/><circle cx="20.00" cy="200.00" r="3.00"/><circle cx="10.00" cy="200.00" r="3.00"/><circle cx="0.00" cy="200.00" r="3.00"/><circle cx="190.00" cy="190.00" r="3.00"/><circle cx="180.00" cy="190.00" r="3.00"/><circle cx="170.00" cy="190.00" r="3.00"/><circle cx="160.00" cy="190.00" r="3.00"/><circle cx="150.00" cy="190.00" r="3.00"/><circle cx="140.00" cy="190.00" r="3.00"/><circle cx="130.00" cy="190.00" r="3.00"/><circle cx="120.00" cy="190.00" r="3.00"/><circle cx="110.00" cy="190.00" r="3.00"/><circle cx="100.00" cy="190.00" r="3.00"/><circle cx="90.00" cy="190.00" r="3.00"/><circle cx="80.00" cy="190.00" r="3.00"/><circle cx="70.00" cy="190.00" r="3.00"/><circle cx="60.00" cy="190.00" r="3.00"/><circle cx="50.00" cy="190.00" r="3.00"/><circle cx="40.00" cy="190.00" r="3.00"/><circle cx="30.00" cy="190.00" r="3.00"/><circle cx="20.00" cy="190.00" r="3.00"/><circle cx="10.00" cy="190.00" r="3.00"/><circle cx="0.00" cy="190.00" r="3.00"/><circle cx="180.00" cy="180.00" r="3.00"/><circle cx="170.00" cy="180.00" r="3.00"/><circle cx="160.00" cy="180.00" r="3.00"/><circle cx="150.00" cy="180.00" r="3.00"/><circle cx="140.00" cy="180.00" r="3.00"/><circle cx="130.00" cy="180.00" r="3.00"/><circle cx="120.00" cy="180.00" r="3.00"/><circle cx="110.00" cy="180.00" r="3.00"/><circle cx="100.00" cy="180.00" r="3.00"/><circle cx="90.00" cy="180.00" r="3.00"/><circle cx="80.00" cy="180.00" r="3.00"/><circle cx="70.00" cy="180.00" r="3.00"/><circle cx="60.00" cy="180.00" r="3.00"/><circle cx="50.00" cy="180.00" r="3.00"/><circle cx="40.00" cy="180.00" r="3.00"/><circle cx="30.00" cy="180.00" r="3.00"/><circle cx="20.00" cy="180.00" r="3.00"/><circle cx="10.00" cy="180.00" r="3.00"/><circle cx="0.00" cy="180.00" r="3.00"/><circle cx="170.00" cy="170.00" r="3.00"/><circle cx="160.00" cy="170.00" r="3.00"/><circle cx="150.00" cy="170.00" r="3.00"/><circle cx="140.00" cy="170.00" r="3.00"/><circle cx="130.00" cy="170.00" r="3.00"/><circle cx="120.00" cy="170.00" r="3.00"/><circle cx="110.00" cy="170.00" r="3.00"/><circle cx="100.00" cy="170.00" r="3.00"/><circle cx="90.00" cy="170.00" r="3.00"/><circle cx="80.00" cy="170.00" r="3.00"/><circle cx="70.00" cy="170.00" r="3.00"/><circle cx="60.00" cy="170.00" r="3.00"/><circle cx="50.00" cy="170.00" r="3.00"/><circle cx="40.00" cy="170.00" r="3.00"/><circle cx="30.00" cy="170.00" r="3.00"/><circle cx="20.00" cy="170.00" r="3.00"/><circle cx="10.00" cy="170.00" r="3.00"/><circle cx="0.00" cy="170.00" r="3.00"/><circle cx="160.00" cy="160.00" r="3.00"/><circle cx="150.00" cy="160.00" r="3.00"/><circle cx="140.00" cy="160.00" r="3.00"/><circle cx="130.00" cy="160.00" r="3.00"/><circle cx="120.00" cy="160.00" r="3.00"/><circle cx="110.00" cy="160.00" r="3.00"/><circle cx="100.00" cy="160.00" r="3.00"/><circle cx="90.00" cy="160.00" r="3.00"/><circle cx="80.00" cy="160.00" r="3.00"/><circle cx="70.00" cy="160.00" r="3.00"/><circle cx="60.00" cy="160.00" r="3.00"/><circle cx="50.00" cy="160.00" r="3.00"/><circle cx="40.00" cy="160.00" r="3.00"/><circle cx="30.00" cy="160.00" r="3.00"/><circle cx="20.00" cy="160.00" r="3.00"/><circle cx="10.00" cy="160.00" r="3.00"/><circle cx="0.00" cy="160.00" r="3.00"/><circle cx="150.00" cy="150.00" r="3.00"/><circle cx="140.00" cy="150.00" r="3.00"/><circle cx="130.00" cy="150.00" r="3.00"/><circle cx="120.00" cy="150.00" r="3.00"/><circle cx="110.00" cy="150.00" r="3.00"/><circle cx="100.00" cy="150.00" r="3.00"/><circle cx="90.00" cy="150.00" r="3.00"/><circle cx="80.00" cy="150.00" r="3.00"/><circle cx="70.00" cy="150.00" r="3.00"/><circle cx="60.00" cy="150.00" r="3.00"/><circle cx="50.00" cy="150.00" r="3.00"/><circle cx="40.00" cy="150.00" r="3.00"/><circle cx="30.00" cy="150.00" r="3.00"/><circle cx="20.00" cy="150.00" r="3.00"/><circle cx="10.00" cy="150.00" r="3.00"/><circle cx="0.00" cy="150.00" r="3.00"/><circle cx="140.00" cy="140.00" r="3.00"/><circle cx="130.00" cy="140.00" r="3.00"/><circle cx="120.00" cy="140.00" r="3.00"/><circle cx="110.00" cy="140.00" r="3.00"/><circle cx="100.00" cy="140.00" r="3.00"/><circle cx="90.00" cy="140.00" r="3.00"/><circle cx="80.00" cy="140.00" r="3.00"/><circle cx="70.00" cy="140.00" r="3.00"/><circle cx="60.00" cy="140.00" r="3.00"/><circle cx="50.00" cy="140.00" r="3.00"/><circle cx="40.00" cy="140.00" r="3.00"/><circle cx="30.00" cy="140.00" r="3.00"/><circle cx="20.00" cy="140.00" r="3.00"/><circle cx="10.00" cy="140.00" r="3.00"/><circle cx="0.00" cy="140.00" r="3.00"/><circle cx="130.00" cy="130.00" r="3.00"/><circle cx="120.00" cy="130.00" r="3.00"/><circle cx="110.00" cy="130.00" r="3.00"/><circle cx="100.00" cy="130.00" r="3.00"/><circle cx="90.00" cy="130.00" r="3.00"/><circle cx="80.00" cy="130.00" r="3.00"/><circle cx="70.00" cy="130.00" r="3.00"/><circle cx="60.00" cy="130.00" r="3.00"/><circle cx="50.00" cy="130.00" r="3.00"/><circle cx="40.00" cy="130.00" r="3.00"/><circle cx="30.00" cy="130.00" r="3.00"/><circle cx="20.00" cy="130.00" r="3.00"/><circle cx="10.00" cy="130.00" r="3.00"/><circle cx="0.00" cy="130.00" r="3.00"/><circle cx="120.00" cy="120.00" r="3.00"/><circle cx="110.00" cy="120.00" r="3.00"/><circle cx="100.00" cy="120.00" r="3.00"/><circle cx="90.00" cy="120.00" r="3.00"/><circle cx="80.00" cy="120.00" r="3.00"/><circle cx="70.00" cy="120.00" r="3.00"/><circle cx="60.00" cy="120.00" r="3.00"/><circle cx="50.00" cy="120.00" r="3.00"/><circle cx="40.00" cy="120.00" r="3.00"/><circle cx="30.00" cy="120.00" r="3.00"/><circle cx="20.00" cy="120.00" r="3.00"/><circle cx="10.00" cy="120.00" r="3.00"/><circle cx="0.00" cy="120.00" r="3.00"/><circle cx="110.00" cy="110.00" r="3.00"/><circle cx="100.00" cy="110.00" r="3.00"/><circle cx="90.00" cy="110.00" r="3.00"/><circle cx="80.00" cy="110.00" r="3.00"/><circle cx="70.00" cy="110.00" r="3.00"/><circle cx="60.00" cy="110.00" r="3.00"/><circle cx="50.00" cy="110.00" r="3.00"/><circle cx="40.00" cy="110.00" r="3.00"/><circle cx="30.00" cy="110.00" r="3.00"/><circle cx="20.00" cy="110.00" r="3.00"/><circle cx="10.00" cy="110.00" r="3.00"/><circle cx="0.00" cy="110.00" r="3.00"/><circle cx="100.00" cy="100.00" r="3.00"/><circle cx="90.00" cy="100.00" r="3.00"/><circle cx="80.00" cy="100.00" r="3.00"/><circle cx="70.00" cy="100.00" r="3.00"/><circle cx="60.00" cy="100.00" r="3.00"/><circle cx="50.00" cy="100.00" r="3.00"/><circle cx="40.00" cy="100.00" r="3.00"/><circle cx="30.00" cy="100.00" r="3.00"/><circle cx="20.00" cy="100.00" r="3.00"/><circle cx="10.00" cy="100.00" r="3.00"/><circle cx="0.00" cy="100.00" r="3.00"/><circle cx="90.00" cy="90.00" r="3.00"/><circle cx="80.00" cy="90.00" r="3.00"/><circle cx="70.00" cy="90.00" r="3.00"/><circle cx="60.00" cy="90.00" r="3.00"/><circle cx="50.00" cy="90.00" r="3.00"/><circle cx="40.00" cy="90.00" r="3.00"/><circle cx="30.00" cy="90.00" r="3.00"/><circle cx="20.00" cy="90.00" r="3.00"/><circle cx="10.00" cy="90.00" r="3.00"/><circle cx="0.00" cy="90.00" r="3.00"/><circle cx="80.00" cy="80.00" r="3.00"/><circle cx="70.00" cy="80.00" r="3.00"/><circle cx="60.00" cy="80.00" r="3.00"/><circle cx="50.00" cy="80.00" r="3.00"/><circle cx="40.00" cy="80.00" r="3.00"/><circle cx="30.00" cy="80.00" r="3.00"/><circle cx="20.00" cy="80.00" r="3.00"/><circle cx="10.00" cy="80.00" r="3.00"/><circle cx="0.00" cy="80.00" r="3.00"/><circle cx="70.00" cy="70.00" r="3.00"/><circle cx="60.00" cy="70.00" r="3.00"/><circle cx="50.00" cy="70.00" r="3.00"/><circle cx="40.00" cy="70.00" r="3.00"/><circle cx="30.00" cy="70.00" r="3.00"/><circle cx="20.00" cy="70.00" r="3.00"/><circle cx="10.00" cy="70.00" r="3.00"/><circle cx="0.00" cy="70.00" r="3.00"/><circle cx="60.00" cy="60.00" r="3.00"/><circle cx="50.00" cy="60.00" r="3.00"/><circle cx="40.00" cy="60.00" r="3.00"/><circle cx="30.00" cy="60.00" r="3.00"/><circle cx="20.00" cy="60.00" r="3.00"/><circle cx="10.00" cy="60.00" r="3.00"/><circle cx="0.00" cy="60.00" r="3.00"/><circle cx="50.00" cy="50.00" r="3.00"/><circle cx="40.00" cy="50.00" r="3.00"/><circle cx="30.00" cy="50.00" r="3.00"/><circle cx="20.00" cy="50.00" r="3.00"/><circle cx="10.00" cy="50.00" r="3.00"/><circle cx="0.00" cy="50.00" r="3.00"/><circle cx="40.00" cy="40.00" r="3.00"/><circle cx="30.00" cy="40.00" r="3.00"/><circle cx="20.00" cy="40.00" r="3.00"/><circle cx="10.00" cy="40.00" r="3.00"/><circle cx="0.00" cy="40.00" r="3.00"/><circle cx="30.00" cy="30.00" r="3.00"/><circle cx="20.00" cy="30.00" r="3.00"/><circle cx="10.00" cy="30.00" r="3.00"/><circle cx="0.00" cy="30.00" r="3.00"/><circle cx="20.00" cy="20.00" r="3.00"/><circle cx="10.00" cy="20.00" r="3.00"/><circle cx="0.00" cy="20.00" r="3.00"/><circle cx="10.00" cy="10.00" r="3.00"/><circle cx="0.00" cy="10.00" r="3.00"/><circle cx="0.00" cy="0.00" r="3.00"/><line x1="200.00" y1="0.00" x2="200.00" y2="100.00"/><line x1="0.00" y1="200.00" x2="100.00" y2="200.00"/><line x1="190.00" y1="0.00" x2="190.00" y2="100.00"/><line x1="0.00" y1="190.00" x2="100.00" y2="190.00"/><line x1="180.00" y1="0.00" x2="180.00" y2="100.00"/><line x1="0.00" y1="180.00" x2="100.00" y2="180.00"/><line x1="170.00" y1="0.00" x2="170.00" y2="100.00"/><line x1="0.00" y1="170.00" x2="100.00" y2="170.00"/><line x1="160.00" y1="0.00" x2="160.00" y2="100.00"/><line x1="0.00" y1="160.00" x2="100.00" y2="160.00"/><line x1="150.00" y1="0.00" x2="150.00" y2="100.00"/><line x1="0.00" y1="150.00" x2="100.00" y2="150.00"/><line x1="140.00" y1="0.00" x2="140.00" y2="100.00"/><line x1="0.00" y1="140.00" x2="100.00" y2="140.00"/><line x1="130.00" y1="0.00" x2="130.00" y2="100.00"/><line x1="0.00" y1="130.00" x2="100.00" y2="130.00"/><line x1="120.00" y1="0.00" x2="120.00" y2="100.00"/><line x1="0.00" y1="120.00" x2="100.00" y2="120.00"/><line x1="110.00" y1="0.00" x2="110.00" y2="100.00"/><line x1="0.00" y1="110.00" x2="100.00" y2="110.00"/><line x1="100.00" y1="0.00" x2="100.00" y2="100.00"/><line x1="0.00" y1="100.00" x2="100.00" y2="100.00"/><line x1="90.00" y1="0.00" x2="90.00" y2="100.00"/><line x1="0.00" y1="90.00" x2="100.00" y2="90.00"/><line x1="80.00" y1="0.00" x2="80.00" y2="100.00"/><line x1="0.00" y1="80.00" x2="100.00" y2="80.00"/><line x1="70.00" y1="0.00" x2="70.00" y2="100.00"/><line x1="0.00" y1="70.00" x2="100.00" y2="70.00"/><line x1="60.00" y1="0.00" x2="60.00" y2="100.00"/><line x1="0.00" y1="60.00" x2="100.00" y2="60.00"/><line x1="50.00" y1="0.00" x2="50.00" y2="100.00"/><line x1="0.00" y1="50.00" x2="100.00" y2="50.00"/><line x1="40.00" y1="0.00" x2="40.00" y2="100.00"/><line x1="0.00" y1="40.00" x2="100.00" y2="40.00"/><line x1="30.00" y1="0.00" x2="30.00" y2="100.00"/><line x1="0.00" y1="30.00" x2="100.00" y2="30.00"/><line x1="20.00" y1="0.00" x2="20.00" y2="100.00"/><line x1="0.00" y1="20.00" x2="100.00" y2="20.00"/><line x1="10.00" y1="0.00" x2="10.00" y2="100.00"/><line x1="0.00" y1="10.00" x2="100.00" y2="10.00"/><line x1="0.00" y1="0.00" x2="0.00" y2="100.00"/><line x1="0.00" y1="0.00" x2="100.00" y2="0.00"/></svg>