<svg version="1.1" xmlns="http://www.w3.org/2000/svg" xmlns:xlink="http://www.w3.org/1999/xlink" width="200" height="200" stroke="#f04" fill="none"><circle cx="200" cy="200" r="3"/><circle cx="190" cy="200" r="3"/><circle cx="180" cy="200" r="3"/><circle cx="170" cy="200" r="3"/><circle cx="160" cy="200" r="3"/><circle cx="150" cy="200" r="3"/><circle cx="140" cy="200" r="3"/><circle cx="130" cy="200" r="3"/><circle cx="120" cy="200" r="3"/><circle cx="110" cy="200" r="3"/><circle cx="100" cy="200" r="3"/><circle cx="90" cy="200" r="3"/><circle cx="80" cy="200" r="3"/><circle cx="70" cy="200" r="3"/><circle cx="60" cy="200" r="3"/><circle cx="50" cy="200" r="3"/><circle cx="40" cy="200" r="3"/><circle cx="30" cy="200" r="3"/><circle cx="20" cy="200" r="3"/><circle cx="10" cy="200" r="3"/><circle cx="0" cy="200" r="3"/><circle cx="190" cy="190" r="3"/><circle cx="180" cy="190" r="3"/><circle cx="170" cy="190" r="3"/><circle cx="160" cy="190" r="3"/><circle cx="150" cy="190" r="3"/><circle cx="140" cy="190" r="3"/><circle cx="130" cy="190" r="3"/><circle cx="120" cy="190" r="3"/><circle cx="110" cy="190" r="3"/><circle cx="100" cy="190" r="3"/><circle cx="90" cy="190" r="3"/><circle cx="80" cy="190" r="3"/><circle cx="70" cy="190" r="3"/><circle cx="60" cy="190" r="3"/><circle cx="50" cy="190" r="3"/><circle cx="40" cy="190" r="3"/><circle cx="30" cy="190" r="3"/><circle cx="20" cy="190" r="3"/><circle cx="10" cy="190" r="3"/><circle cx="0" cy="190" r="3"/><circle cx="180" cy="180" r="3"/><circle cx="170" cy="180" r="3"/><circle cx="160" cy="180" r="3"/><circle cx="150" cy="180" r="3"/><circle cx="140" cy="180" r="3"/><circle cx="130" cy="180" r="3"/><circle cx="120" cy="180" r="3"/><circle cx="110" cy="180" r="3"/><circle cx="100" cy="180" r="3"/><circle cx="90" cy="180" r="3"/><circle cx="80" cy="180" r="3"/><circle cx="70" cy="180" r="3"/><circle cx="60" cy="180" r="3"/><circle cx="50" cy="180" r="3"/><circle cx="40" cy="180" r="3"/><circle cx="30" cy="180" r="3"/><circle cx="20" cy="180" r="3"/><circle cx="10" cy="180" r="3"/><circle cx="0" cy="180" r="3"/><circle cx="170" cy="170" r="3"/><circle cx="160" cy="170" r="3"/><circle cx="150" cy="170" r="3"/><circle cx="140" cy="170" r="3"/><circle cx="130" cy="170" r="3"/><circle cx="120" cy="170" r="3"/><circle cx="110" cy="170" r="3"/><circle cx="100" cy="170" r="3"/><circle cx="90" cy="170" r="3"/><circle cx="80" cy="170" r="3"/><circle cx="70" cy="170" r="3"/><circle cx="60" cy="170" r="3"/><circle cx="50" cy="170" r="3"/><circle cx="40" cy="170" r="3"/><circle cx="30" cy="170" r="3"/><circle cx="20" cy="170" r="3"/><circle cx="10" cy="170" r="3"/><circle cx="0" cy="170" r="3"/><circle cx="160" cy="160" r="3"/><circle cx="150" cy="160" r="3"/><circle cx="140" cy="160" r="3"/><circle cx="130" cy="160" r="3"/><circle cx="120" cy="160" r="3"/><circle cx="110" cy="160" r="3"/><circle cx="100" cy="160" r="3"/><circle cx="90" cy="160" r="3"/><circle cx="80" cy="160" r="3"/><circle cx="70" cy="160" r="3"/><circle cx="60" cy="160" r="3"/><circle cx="50" cy="160" r="3"/><circle cx="40" cy="160" r="3"/><circle cx="30" cy="160" r="3"/><circle cx="20" cy="160" r="3"/><circle cx="10" cy="160" r="3"/><circle cx="0" cy="160" r="3"/><circle cx="150" cy="150" r="3"/><circle cx="140" cy="150" r="3"/><circle cx="130" cy="150" r="3"/><circle cx="120" cy="150" r="3"/><circle cx="110" cy="150" r="3"/><circle cx="100" cy="150" r="3"/><circle cx="90" cy="150" r="3"/><circle cx="80" cy="150" r="3"/><circle cx="70" cy="150" r="3"/><circle cx="60" cy="150" r="3"/><circle cx="50" cy="150" r="3"/><circle cx="40" cy="150" r="3"/><circle cx="30" cy="150" r="3"/><circle cx="20" cy="150" r="3"/><circle cx="10" cy="150" r="3"/><circle cx="0" cy="150" r="3"/><circle cx="140" cy="140" r="3"/><circle cx="130" cy="140" r="3"/><circle cx="120" cy="140" r="3"/><circle cx="110" cy="140" r="3"/><circle cx="100" cy="140" r="3"/><circle cx="90" cy="140" r="3"/><circle cx="80" cy="140" r="3"/><circle cx="70" cy="140" r="3"/><circle cx="60" cy="140" r="3"/><circle cx="50" cy="140" r="3"/><circle cx="40" cy="140" r="3"/><circle cx="30" cy="140" r="3"/><circle cx="20" cy="140" r="3"/><circle cx="10" cy="140" r="3"/><circle cx="0" cy="140" r="3"/><circle cx="130" cy="130" r="3"/><circle cx="120" cy="130" r="3"/><circle cx="110" cy="130" r="3"/><circle cx="100" cy="130" r="3"/><circle cx="90" cy="130" r="3"/><circle cx="80" cy="130" r="3"/><circle cx="70" cy="130" r="3"/><circle cx="60" cy="130" r="3"/><circle cx="50" cy="130" r="3"/><circle cx="40" cy="130" r="3"/><circle cx="30" cy="130" r="3"/><circle cx="20" cy="130" r="3"/><circle cx="10" cy="130" r="3"/><circle cx="0" cy="130" r="3"/><circle cx="120" cy="120" r="3"/><circle cx="110" cy="120" r="3"/><circle cx="100" cy="120" r="3"/><circle cx="90" cy="120" r="3"/><circle cx="80" cy="120" r="3"/><circle cx="70" cy="120" r="3"/><circle cx="60" cy="120" r="3"/><circle cx="50" cy="120" r="3"/><circle cx="40" cy="120" r="3"/><circle cx="30" cy="120" r="3"/><circle cx="20" cy="120" r="3"/><circle cx="10" cy="120" r="3"/><circle cx="0" cy="120" r="3"/><circle cx="110" cy="110" r="3"/><circle cx="100" cy="110" r="3"/><circle cx="90" cy="110" r="3"/><circle cx="80" cy="110" r="3"/><circle cx="70" cy="110" r="3"/><circle cx="60" cy="110" r="3"/><circle cx="50" cy="110" r="3"/><circle cx="40" cy="110" r="3"/><circle cx="30" cy="110" r="3"/><circle cx="20" cy="110" r="3"/><circle cx="10" cy="110" r="3"/><circle cx="0" cy="110" r="3"/><circle cx="100" cy="100" r="3"/><circle cx="90" cy="100" r="3"/><circle cx="80" cy="100" r="3"/><circle cx="70" cy="100" r="3"/><circle cx="60" cy="100" r="3"/><circle cx="50" cy="100" r="3"/><circle cx="40" cy="100" r="3"/><circle cx="30" cy="100" r="3"/><circle cx="20" cy="100" r="3"/><circle cx="10" cy="100" r="3"/><circle cx="0" cy="100" r="3"/><circle cx="90" cy="90" r="3"/><circle cx="80" cy="90" r="3"/><circle cx="70" cy="90" r="3"/><circle cx="60" cy="90" r="3"/><circle cx="50" cy="90" r="3"/><circle cx="40" cy="90" r="3"/><circle cx="30" cy="90" r="3"/><circle cx="20" cy="90" r="3"/><circle cx="10" cy="90" r="3"/><circle cx="0" cy="90" r="3"/><circle cx="80" cy="80" r="3"/><circle cx="70" cy="80" r="3"/><circle cx="60" cy="80" r="3"/><circle cx="50" cy="80" r="3"/><circle cx="40" cy="80" r="3"/><circle cx="30" cy="80" r="3"/><circle cx="20" cy="80" r="3"/><circle cx="10" cy="80" r="3"/><circle cx="0" cy="80" r="3"/><circle cx="70" cy="70" r="3"/><circle cx="60" cy="70" r="3"/><circle cx="50" cy="70" r="3"/><circle cx="40" cy="70" r="3"/><circle cx="30" cy="70" r="3"/><circle cx="20" cy="70" r="3"/><circle cx="10" cy="70" r="3"/><circle cx="0" cy="70" r="3"/><circle cx="60" cy="60" r="3"/><circle cx="50" cy="60" r="3"/><circle cx="40" cy="60" r="3"/><circle cx="30" cy="60" r="3"/><circle cx="20" cy="60" r="3"/><circle cx="10" cy="60" r="3"/><circle cx="0" cy="60" r="3"/><circle cx="50" cy="50" r="3"/><circle cx="40" cy="50" r="3"/><circle cx="30" cy="50" r="3"/><circle cx="20" cy="50" r="3"/><circle cx="10" cy="50" r="3"/><circle cx="0" cy="50" r="3"/><circle cx="40" cy="40" r="3"/><circle cx="30" cy="40" r="3"/><circle cx="20" cy="40" r="3"/><circle cx="10" cy="40" r="3"/><circle cx="0" cy="40" r="3"/><circle cx="30" cy="30" r="3"/><circle cx="20" cy="30" r="3"/><circle cx="10" cy="30" r="3"/><circle cx="0" cy="30" r="3"/><circle cx="20" cy="20" r="3"/><circle cx="10" cy="20" r="3"/><circle cx="0" cy="20" r="3"/><circle cx="10" cy="10" r="3"/><circle cx="0" cy="10" r="3"/><circle cx="0" cy="0" r="3"/><line x1="200" y1="0" x2="200" y2="100"/><line x1="0" y1="200" x2="100" y2="200"/><line x1="190" y1="0" x2="190" y2="100"/><line x1="0" y1="190" x2="100" y2="190"/><line x1="180" y1="0" x2="180" y2="100"/><line x1="0" y1="180" x2="100" y2="180"/><line x1="170" y1="0" x2="170" y2="100"/><line x1="0" y1="170" x2="100" y2="170"/><line x1="160" y1="0" x2="160" y2="100"/><line x1="0" y1="160" x2="100" y2="160"/><line x1="150" y1="0" x2="150" y2="100"/><line x1="0" y1="150" x2="100" y2="150"/><line x1="140" y1="0" x2="140" y2="100"/><line x1="0" y1="140" x2="100" y2="140"/><line x1="130" y1="0" x2="130" y2="100"/><line x1="0" y1="130" x2="100" y2="130"/><line x1="120" y1="0" x2="120" y2="100"/><line x1="0" y1="120" x2="100" y2="120"/><line x1="110" y1="0" x2="110" y2="100"/><line x1="0" y1="110" x2="100" y2="110"/><line x1="100" y1="0" x2="100" y2="100"/><line x1="0" y1="100" x2="100" y2="100"/><line x1="90" y1="0" x2="90" y2="100"/><line x1="0" y1="90" x2="100" y2="90"/><line x1="80" y1="0" x2="80" y2="100"/><line x1="0" y1="80" x2="100" y2="80"/><line x1="70" y1="0" x2="70" y2="100"/><line x1="0" y1="70" x2="100" y2="70"/><line x1="60" y1="0" x2="60" y2="100"/><line x1="0" y1="60" x2="100" y2="60"/><line x1="50" y1="0" x2="50" y2="100"/><line x1="0" y1="50" x2="100" y2="50"/><line x1="40" y1="0" x2="40" y2="100"/><line x1="0" y1="40" x2="100" y2="40"/><line x1="30" y1="0" x2="30" y2="100"/><line x1="0" y1="30" x2="100" y2="30"/><line x1="20" y1="0" x2="20" y2="100"/><line x1="0" y1="20" x2="100" y2="20"/><line x1="10" y1="0" x2="10" y2="100"/><line x1="0" y1="10" x2="100" y2="10"/><line x1="0" y1="0" x2="0" y2="100"/><line x1="0" y1="0" x2="100" y2="0"/></svg>