<svg version="1.1" xmlns="http://www.w3.org/2000/svg" xmlns:xlink="http://www.w3.org/1999/xlink" width="500" height="50"><g><rect fill="#ff3a00" x="0" y="0" width="5" height="50"/><rect fill="#ff4500" x="5" y="0" width="5" height="50"/><rect fill="#ff4f00" x="10" y="0" width="5" height="50"/><rect fill="#ff5800" x="15" y="0" width="5" height="50"/><rect fill="#ff6000" x="20" y="0" width="5" height="50"/><rect fill="#ff6700" x="25" y="0" width="5" height="50"/><rect fill="#ff6e00" x="30" y="0" width="5" height="50"/><rect fill="#ff7400" x="35" y="0" width="5" height="50"/><rect fill="#ff7a00" x="40" y="0" width="5" height="50"/><rect fill="#ff8000" x="45" y="0" width="5" height="50"/><rect fill="#ff8500" x="50" y="0" width="5" height="50"/><rect fill="#ff8a00" x="55" y="0" width="5" height="50"/><rect fill="#ff8f1d" x="60" y="0" width="5" height="50"/><rect fill="#ff9327" x="65" y="0" width="5" height="50"/><rect fill="#ff9831" x="70" y="0" width="5" height="50"/><rect fill="#ff9c39" x="75" y="0" width="5" height="50"/><rect fill="#ffa042" x="80" y="0" width="5" height="50"/><rect fill="#ffa349" x="85" y="0" width="5" height="50"/><rect fill="#ffa751" x="90" y="0" width="5" height="50"/><rect fill="#ffaa58" x="95" y="0" width="5" height="50"/><rect fill="#ffae5e" x="100" y="0" width="5" height="50"/><rect fill="#ffb165" x="105" y="0" width="5" height="50"/><rect fill="#ffb46b" x="110" y="0" width="5" height="50"/><rect fill="#ffb771" x="115" y="0" width="5" height="50"/><rect fill="#ffba77" x="120" y="0" width="5" height="50"/><rect fill="#ffbc7c" x="125" y="0" width="5" height="50"/><rect fill="#ffbf81" x="130" y="0" width="5" height="50"/><rect fill="#ffc186" x="135" y="0" width="5" height="50"/><rect fill="#ffc48b" x="140" y="0" width="5" height="50"/><rect fill="#ffc690" x="145" y="0" width="5" height="50"/><rect fill="#ffc995" x="150" y="0" width="5" height="50"/><rect fill="#ffcb99" x="155" y="0" width="5" height="50"/><rect fill="#ffcd9e" x="160" y="0" width="5" height="50"/><rect fill="#ffcfa2" x="165" y="0" width="5" height="50"/><rect fill="#ffd1a6" x="170" y="0" width="5" height="50"/><rect fill="#ffd3aa" x="175" y="0" width="5" height="50"/><rect fill="#ffd5ae" x="180" y="0" width="5" height="50"/><rect fill="#ffd7b2" x="185" y="0" width="5" height="50"/><rect fill="#ffd9b6" x="190" y="0" width="5" height="50"/><rect fill="#ffdbba" x="195" y="0" width="5" height="50"/><rect fill="#ffddbe" x="200" y="0" width="5" height="50"/><rect fill="#ffdec1" x="205" y="0" width="5" height="50"/><rect fill="#ffe0c5" x="210" y="0" width="5" height="50"/><rect fill="#ffe2c8" x="215" y="0" width="5" height="50"/><rect fill="#ffe3cc" x="220" y="0" width="5" height="50"/><rect fill="#ffe5cf" x="225" y="0" width="5" height="50"/><rect fill="#ffe6d2" x="230" y="0" width="5" height="50"/><rect fill="#ffe8d5" x="235" y="0" width="5" height="50"/><rect fill="#ffe9d9" x="240" y="0" width="5" height="50"/><rect fill="#ffebdc" x="245" y="0" width="5" height="50"/><rect fill="#ffecdf" x="250" y="0" width="5" height="50"/><rect fill="#ffede2" x="255" y="0" width="5" height="50"/><rect fill="#ffefe5" x="260" y="0" width="5" height="50"/><rect fill="#fff0e8" x="265" y="0" width="5" height="50"/><rect fill="#fff1eb" x="270" y="0" width="5" height="50"/><rect fill="#fff2ee" x="275" y="0" width="5" height="50"/><rect fill="#fff4f0" x="280" y="0" width="5" height="50"/><rect fill="#fff5f3" x="285" y="0" width="5" height="50"/><rect fill="#fff6f6" x="290" y="0" width="5" height="50"/><rect fill="#fff7f9" x="295" y="0" width="5" height="50"/><rect fill="#fff8fb" x="300" y="0" width="5" height="50"/><rect fill="#fff9fe" x="305" y="0" width="5" height="50"/><rect fill="#fffbff" x="310" y="0" width="5" height="50"/><rect fill="#fef8ff" x="315" y="0" width="5" height="50"/><rect fill="#fbf6ff" x="320" y="0" width="5" height="50"/><rect fill="#f9f5ff" x="325" y="0" width="5" height="50"/><rect fill="#f6f4ff" x="330" y="0" width="5" height="50"/><rect fill="#f4f3ff" x="335" y="0" width="5" height="50"/><rect fill="#f2f1ff" x="340" y="0" width="5" height="50"/><rect fill="#f0f0ff" x="345" y="0" width="5" height="50"/><rect fill="#eeefff" x="350" y="0" width="5" height="50"/><rect fill="#eceeff" x="355" y="0" width="5" height="50"/><rect fill="#eaedff" x="360" y="0" width="5" height="50"/><rect fill="#e8ecff" x="365" y="0" width="5" height="50"/><rect fill="#e7ebff" x="370" y="0" width="5" height="50"/><rect fill="#e5ebff" x="375" y="0" width="5" height="50"/><rect fill="#e4eaff" x="380" y="0" width="5" height="50"/><rect fill="#e2e9ff" x="385" y="0" width="5" height="50"/><rect fill="#e1e8ff" x="390" y="0" width="5" height="50"/><rect fill="#e0e7ff" x="395" y="0" width="5" height="50"/><rect fill="#dee7ff" x="400" y="0" width="5" height="50"/><rect fill="#dde6ff" x="405" y="0" width="5" height="50"/><rect fill="#dce5ff" x="410" y="0" width="5" height="50"/><rect fill="#dbe5ff" x="415" y="0" width="5" height="50"/><rect fill="#dae4ff" x="420" y="0" width="5" height="50"/><rect fill="#d9e3ff" x="425" y="0" width="5" height="50"/><rect fill="#d8e3ff" x="430" y="0" width="5" height="50"/><rect fill="#d7e2ff" x="435" y="0" width="5" height="50"/><rect fill="#d6e2ff" x="440" y="0" width="5" height="50"/><rect fill="#d5e1ff" x="445" y="0" width="5" height="50"/><rect fill="#d4e0ff" x="450" y="0" width="5" height="50"/><rect fill="#d3e0ff" x="455" y="0" width="5" height="50"/><rect fill="#d2dfff" x="460" y="0" width="5" height="50"/><rect fill="#d1dfff" x="465" y="0" width="5" height="50"/><rect fill="#d0deff" x="470" y="0" width="5" height="50"/><rect fill="#d0deff" x="475" y="0" width="5" height="50"/><rect fill="#cfddff" x="480" y="0" width="5" height="50"/><rect fill="#ceddff" x="485" y="0" width="5" height="50"/><rect fill="#cddcff" x="490" y="0" width="5" height="50"/><rect fill="#cddcff" x="495" y="0" width="5" height="50"/></g></svg>