<svg version="1.1" xmlns="http://www.w3.org/2000/svg" xmlns:xlink="http://www.w3.org/1999/xlink" width="500" height="50"><g><rect fill="#ff79cb" x="0" y="0" width="5" height="50"/><rect fill="#ff79c1" x="5" y="0" width="5" height="50"/><rect fill="#ff7ab8" x="10" y="0" width="5" height="50"/><rect fill="#ff7baf" x="15" y="0" width="5" height="50"/><rect fill="#ff7ca6" x="20" y="0" width="5" height="50"/><rect fill="#ff7e9d" x="25" y="0" width="5" height="50"/><rect fill="#ff8094" x="30" y="0" width="5" height="50"/><rect fill="#ff838c" x="35" y="0" width="5" height="50"/><rect fill="#ff8683" x="40" y="0" width="5" height="50"/><rect fill="#ff897b" x="45" y="0" width="5" height="50"/><rect fill="#ff8d72" x="50" y="0" width="5" height="50"/><rect fill="#ff916a" x="55" y="0" width="5" height="50"/><rect fill="#ff9562" x="60" y="0" width="5" height="50"/><rect fill="#ff985b" x="65" y="0" width="5" height="50"/><rect fill="#ff9c53" x="70" y="0" width="5" height="50"/><rect fill="#ffa04b" x="75" y="0" width="5" height="50"/><rect fill="#ffa444" x="80" y="0" width="5" height="50"/><rect fill="#ffa83c" x="85" y="0" width="5" height="50"/><rect fill="#ffac35" x="90" y="0" width="5" height="50"/><rect fill="#ffb02d" x="95" y="0" width="5" height="50"/><rect fill="#ffb426" x="100" y="0" width="5" height="50"/><rect fill="#ffb81e" x="105" y="0" width="5" height="50"/><rect fill="#f8bb16" x="110" y="0" width="5" height="50"/><rect fill="#f1bf0e" x="115" y="0" width="5" height="50"/><rect fill="#e9c205" x="120" y="0" width="5" height="50"/><rect fill="#e0c500" x="125" y="0" width="5" height="50"/><rect fill="#d8c800" x="130" y="0" width="5" height="50"/><rect fill="#cfcb00" x="135" y="0" width="5" height="50"/><rect fill="#c6ce04" x="140" y="0" width="5" height="50"/><rect fill="#bdd00d" x="145" y="0" width="5" height="50"/><rect fill="#b4d316" x="150" y="0" width="5" height="50"/><rect fill="#aad51e" x="155" y="0" width="5" height="50"/><rect fill="#a0d727" x="160" y="0" width="5" height="50"/><rect fill="#95d92f" x="165" y="0" width="5" height="50"/><rect fill="#8adb37" x="170" y="0" width="5" height="50"/><rect fill="#7edd3f" x="175" y="0" width="5" height="50"/><rect fill="#71de48" x="180" y="0" width="5" height="50"/><rect fill="#63e050" x="185" y="0" width="5" height="50"/><rect fill="#53e159" x="190" y="0" width="5" height="50"/><rect fill="#3fe361" x="195" y="0" width="5" height="50"/><rect fill="#1fe46a" x="200" y="0" width="5" height="50"/><rect fill="#00e573" x="205" y="0" width="5" height="50"/><rect fill="#00e67c" x="210" y="0" width="5" height="50"/><rect fill="#00e786" x="215" y="0" width="5" height="50"/><rect fill="#00e78f" x="220" y="0" width="5" height="50"/><rect fill="#00e898" x="225" y="0" width="5" height="50"/><rect fill="#00e9a2" x="230" y="0" width="5" height="50"/><rect fill="#00e9ab" x="235" y="0" width="5" height="50"/><rect fill="#00e9b5" x="240" y="0" width="5" height="50"/><rect fill="#00eabf" x="245" y="0" width="5" height="50"/><rect fill="#00eac8" x="250" y="0" width="5" height="50"/><rect fill="#00ead2" x="255" y="0" width="5" height="50"/><rect fill="#00eadb" x="260" y="0" width="5" height="50"/><rect fill="#00eae5" x="265" y="0" width="5" height="50"/><rect fill="#00eaee" x="270" y="0" width="5" height="50"/><rect fill="#00e9f7" x="275" y="0" width="5" height="50"/><rect fill="#00e9ff" x="280" y="0" width="5" height="50"/><rect fill="#00e8ff" x="285" y="0" width="5" height="50"/><rect fill="#00e8ff" x="290" y="0" width="5" height="50"/><rect fill="#00e7ff" x="295" y="0" width="5" height="50"/><rect fill="#00e6ff" x="300" y="0" width="5" height="50"/><rect fill="#00e5ff" x="305" y="0" width="5" height="50"/><rect fill="#00e4ff" x="310" y="0" width="5" height="50"/><rect fill="#00e3ff" x="315" y="0" width="5" height="50"/><rect fill="#00e2ff" x="320" y="0" width="5" height="50"/><rect fill="#00e0ff" x="325" y="0" width="5" height="50"/><rect fill="#00dfff" x="330" y="0" width="5" height="50"/><rect fill="#00dcff" x="335" y="0" width="5" height="50"/><rect fill="#00daff" x="340" y="0" width="5" height="50"/><rect fill="#00d7ff" x="345" y="0" width="5" height="50"/><rect fill="#00d5ff" x="350" y="0" width="5" height="50"/><rect fill="#00d2ff" x="355" y="0" width="5" height="50"/><rect fill="#48d0ff" x="360" y="0" width="5" height="50"/><rect fill="#66cdff" x="365" y="0" width="5" height="50"/><rect fill="#7bcbff" x="370" y="0" width="5" height="50"/><rect fill="#8dc8ff" x="375" y="0" width="5" height="50"/><rect fill="#9bc6ff" x="380" y="0" width="5" height="50"/><rect fill="#a8c4ff" x="385" y="0" width="5" height="50"/><rect fill="#b2c2ff" x="390" y="0" width="5" height="50"/><rect fill="#bcc0ff" x="395" y="0" width="5" height="50"/><rect fill="#c4beff" x="400" y="0" width="5" height="50"/><rect fill="#cbbdff" x="405" y="0" width="5" height="50"/><rect fill="#d0bcff" x="410" y="0" width="5" height="50"/><rect fill="#d5bbff" x="415" y="0" width="5" height="50"/><rect fill="#d9bafe" x="420" y="0" width="5" height="50"/><rect fill="#dcbaf8" x="425" y="0" width="5" height="50"/><rect fill="#dfb9f2" x="430" y="0" width="5" height="50"/><rect fill="#e0b9ec" x="435" y="0" width="5" height="50"/><rect fill="#e1bae7" x="440" y="0" width="5" height="50"/><rect fill="#e1bae2" x="445" y="0" width="5" height="50"/><rect fill="#e1bbdd" x="450" y="0" width="5" height="50"/><rect fill="#e0bcd9" x="455" y="0" width="5" height="50"/><rect fill="#debdd5" x="460" y="0" width="5" height="50"/><rect fill="#dcbed1" x="465" y="0" width="5" height="50"/><rect fill="#dabfce" x="470" y="0" width="5" height="50"/><rect fill="#d6c1cb" x="475" y="0" width="5" height="50"/><rect fill="#d3c2c9" x="480" y="0" width="5" height="50"/><rect fill="#cfc3c8" x="485" y="0" width="5" height="50"/><rect fill="#cbc5c7" x="490" y="0" width="5" height="50"/><rect fill="#c6c6c6" x="495" y="0" width="5" height="50"/></g></svg>