<svg version="1.1" xmlns="http://www.w3.org/2000/svg" xmlns:xlink="http://www.w3.org/1999/xlink" width="500" height="50"><g><rect fill="#ffc8d8" x="0" y="0" width="5" height="50"/><rect fill="#c6949f" x="5" y="0" width="5" height="50"/><rect fill="#cf96a2" x="10" y="0" width="5" height="50"/><rect fill="#c48390" x="15" y="0" width="5" height="50"/><rect fill="#ffcbcb" x="20" y="0" width="5" height="50"/><rect fill="#d59998" x="25" y="0" width="5" height="50"/><rect fill="#ffc9c7" x="30" y="0" width="5" height="50"/><rect fill="#edb4b2" x="35" y="0" width="5" height="50"/><rect fill="#ffc6bd" x="40" y="0" width="5" height="50"/><rect fill="#d9a398" x="45" y="0" width="5" height="50"/><rect fill="#c29185" x="50" y="0" width="5" height="50"/><rect fill="#cc9d8f" x="55" y="0" width="5" height="50"/><rect fill="#e8a895" x="60" y="0" width="5" height="50"/><rect fill="#fcc7ae" x="65" y="0" width="5" height="50"/><rect fill="#ba9782" x="70" y="0" width="5" height="50"/><rect fill="#f5ccaa" x="75" y="0" width="5" height="50"/><rect fill="#cba37c" x="80" y="0" width="5" height="50"/><rect fill="#fad7b5" x="85" y="0" width="5" height="50"/><rect fill="#ab9464" x="90" y="0" width="5" height="50"/><rect fill="#d6c399" x="95" y="0" width="5" height="50"/><rect fill="#d7c391" x="100" y="0" width="5" height="50"/><rect fill="#bbaf87" x="105" y="0" width="5" height="50"/><rect fill="#d1c79a" x="110" y="0" width="5" height="50"/><rect fill="#cac59e" x="115" y="0" width="5" height="50"/><rect fill="#cfca9f" x="120" y="0" width="5" height="50"/><rect fill="#bdbc8a" x="125" y="0" width="5" height="50"/><rect fill="#b1b182" x="130" y="0" width="5" height="50"/><rect fill="#b6b88d" x="135" y="0" width="5" height="50"/><rect fill="#9ca17a" x="140" y="0" width="5" height="50"/><rect fill="#8c976e" x="145" y="0" width="5" height="50"/><rect fill="#bdcc9f" x="150" y="0" width="5" height="50"/><rect fill="#a8be88" x="155" y="0" width="5" height="50"/><rect fill="#93a87f" x="160" y="0" width="5" height="50"/><rect fill="#a2bf8e" x="165" y="0" width="5" height="50"/><rect fill="#94b386" x="170" y="0" width="5" height="50"/><rect fill="#afcea1" x="175" y="0" width="5" height="50"/><rect fill="#91aa87" x="180" y="0" width="5" height="50"/><rect fill="#7fa375" x="185" y="0" width="5" height="50"/><rect fill="#b8e2b9" x="190" y="0" width="5" height="50"/><rect fill="#8bbb8e" x="195" y="0" width="5" height="50"/><rect fill="#94b898" x="200" y="0" width="5" height="50"/><rect fill="#90bc97" x="205" y="0" width="5" height="50"/><rect fill="#72a87e" x="210" y="0" width="5" height="50"/><rect fill="#b4e0c0" x="215" y="0" width="5" height="50"/><rect fill="#afdebf" x="220" y="0" width="5" height="50"/><rect fill="#8cccab" x="225" y="0" width="5" height="50"/><rect fill="#65a58c" x="230" y="0" width="5" height="50"/><rect fill="#9ddcc8" x="235" y="0" width="5" height="50"/><rect fill="#9de8d1" x="240" y="0" width="5" height="50"/><rect fill="#62ab98" x="245" y="0" width="5" height="50"/><rect fill="#b3eadb" x="250" y="0" width="5" height="50"/><rect fill="#79c1b2" x="255" y="0" width="5" height="50"/><rect fill="#89d2d3" x="260" y="0" width="5" height="50"/><rect fill="#9feef0" x="265" y="0" width="5" height="50"/><rect fill="#7fc1c5" x="270" y="0" width="5" height="50"/><rect fill="#9fd8dd" x="275" y="0" width="5" height="50"/><rect fill="#559ea8" x="280" y="0" width="5" height="50"/><rect fill="#65b9c8" x="285" y="0" width="5" height="50"/><rect fill="#82cfdd" x="290" y="0" width="5" height="50"/><rect fill="#97e8f8" x="295" y="0" width="5" height="50"/><rect fill="#89d1e1" x="300" y="0" width="5" height="50"/><rect fill="#59acbe" x="305" y="0" width="5" height="50"/><rect fill="#7ebbcd" x="310" y="0" width="5" height="50"/><rect fill="#9bdffb" x="315" y="0" width="5" height="50"/><rect fill="#9bd7f6" x="320" y="0" width="5" height="50"/><rect fill="#b2e7ff" x="325" y="0" width="5" height="50"/><rect fill="#70a0bd" x="330" y="0" width="5" height="50"/><rect fill="#81b7df" x="335" y="0" width="5" height="50"/><rect fill="#b3d8f7" x="340" y="0" width="5" height="50"/><rect fill="#97b7da" x="345" y="0" width="5" height="50"/><rect fill="#93b6de" x="350" y="0" width="5" height="50"/><rect fill="#7ea7d3" x="355" y="0" width="5" height="50"/><rect fill="#a8c6f2" x="360" y="0" width="5" height="50"/><rect fill="#beddff" x="365" y="0" width="5" height="50"/><rect fill="#9fb6e4" x="370" y="0" width="5" height="50"/><rect fill="#b1cbfe" x="375" y="0" width="5" height="50"/><rect fill="#ddddff" x="380" y="0" width="5" height="50"/><rect fill="#9a9bc5" x="385" y="0" width="5" height="50"/><rect fill="#d1ceff" x="390" y="0" width="5" height="50"/><rect fill="#cfc9f1" x="395" y="0" width="5" height="50"/><rect fill="#c9c1f6" x="400" y="0" width="5" height="50"/><rect fill="#beaeda" x="405" y="0" width="5" height="50"/><rect fill="#c2adde" x="410" y="0" width="5" height="50"/><rect fill="#ad94c5" x="415" y="0" width="5" height="50"/><rect fill="#b99ccb" x="420" y="0" width="5" height="50"/><rect fill="#c1a3d5" x="425" y="0" width="5" height="50"/><rect fill="#d0aee3" x="430" y="0" width="5" height="50"/><rect fill="#dbb6df" x="435" y="0" width="5" height="50"/><rect fill="#caa2c9" x="440" y="0" width="5" height="50"/><rect fill="#d2abcf" x="445" y="0" width="5" height="50"/><rect fill="#efbee8" x="450" y="0" width="5" height="50"/><rect fill="#ffcef9" x="455" y="0" width="5" height="50"/><rect fill="#fbc3e2" x="460" y="0" width="5" height="50"/><rect fill="#cfa2bb" x="465" y="0" width="5" height="50"/><rect fill="#ffceec" x="470" y="0" width="5" height="50"/><rect fill="#d393b0" x="475" y="0" width="5" height="50"/><rect fill="#ffc5e3" x="480" y="0" width="5" height="50"/><rect fill="#b78497" x="485" y="0" width="5" height="50"/><rect fill="#e5a9be" x="490" y="0" width="5" height="50"/><rect fill="#f7b2c7" x="495" y="0" width="5" height="50"/></g></svg>