<svg version="1.1" xmlns="http://www.w3.org/2000/svg" xmlns:xlink="http://www.w3.org/1999/xlink" width="500" height="50"><g><rect fill="#ff71ca" x="0" y="0" width="5" height="50"/><rect fill="#ff0080" x="5" y="0" width="5" height="50"/><rect fill="#ff5ca8" x="10" y="0" width="5" height="50"/><rect fill="#e40047" x="15" y="0" width="5" height="50"/><rect fill="#ff95bb" x="20" y="0" width="5" height="50"/><rect fill="#dd0043" x="25" y="0" width="5" height="50"/><rect fill="#ff6e96" x="30" y="0" width="5" height="50"/><rect fill="#ff3960" x="35" y="0" width="5" height="50"/><rect fill="#ff969c" x="40" y="0" width="5" height="50"/><rect fill="#ff8b8c" x="45" y="0" width="5" height="50"/><rect fill="#ff4130" x="50" y="0" width="5" height="50"/><rect fill="#da1d0a" x="55" y="0" width="5" height="50"/><rect fill="#d84700" x="60" y="0" width="5" height="50"/><rect fill="#dc4300" x="65" y="0" width="5" height="50"/><rect fill="#d65f00" x="70" y="0" width="5" height="50"/><rect fill="#ffa831" x="75" y="0" width="5" height="50"/><rect fill="#9c4300" x="80" y="0" width="5" height="50"/><rect fill="#e78600" x="85" y="0" width="5" height="50"/><rect fill="#ffd223" x="90" y="0" width="5" height="50"/><rect fill="#ed9500" x="95" y="0" width="5" height="50"/><rect fill="#d39a00" x="100" y="0" width="5" height="50"/><rect fill="#fdc900" x="105" y="0" width="5" height="50"/><rect fill="#957900" x="110" y="0" width="5" height="50"/><rect fill="#b9b100" x="115" y="0" width="5" height="50"/><rect fill="#717400" x="120" y="0" width="5" height="50"/><rect fill="#677e00" x="125" y="0" width="5" height="50"/><rect fill="#899f00" x="130" y="0" width="5" height="50"/><rect fill="#4e7000" x="135" y="0" width="5" height="50"/><rect fill="#dcff29" x="140" y="0" width="5" height="50"/><rect fill="#518b00" x="145" y="0" width="5" height="50"/><rect fill="#86c200" x="150" y="0" width="5" height="50"/><rect fill="#8be50f" x="155" y="0" width="5" height="50"/><rect fill="#1e7f00" x="160" y="0" width="5" height="50"/><rect fill="#b2ff5b" x="165" y="0" width="5" height="50"/><rect fill="#69d400" x="170" y="0" width="5" height="50"/><rect fill="#9afa47" x="175" y="0" width="5" height="50"/><rect fill="#22df52" x="180" y="0" width="5" height="50"/><rect fill="#00fd6c" x="185" y="0" width="5" height="50"/><rect fill="#007d00" x="190" y="0" width="5" height="50"/><rect fill="#00ffaa" x="195" y="0" width="5" height="50"/><rect fill="#00c85f" x="200" y="0" width="5" height="50"/><rect fill="#00c363" x="205" y="0" width="5" height="50"/><rect fill="#00b75a" x="210" y="0" width="5" height="50"/><rect fill="#00dca0" x="215" y="0" width="5" height="50"/><rect fill="#00e2a6" x="220" y="0" width="5" height="50"/><rect fill="#00cc96" x="225" y="0" width="5" height="50"/><rect fill="#00c4a8" x="230" y="0" width="5" height="50"/><rect fill="#008d7a" x="235" y="0" width="5" height="50"/><rect fill="#009f8f" x="240" y="0" width="5" height="50"/><rect fill="#00878e" x="245" y="0" width="5" height="50"/><rect fill="#00dce2" x="250" y="0" width="5" height="50"/><rect fill="#00ffff" x="255" y="0" width="5" height="50"/><rect fill="#00afc3" x="260" y="0" width="5" height="50"/><rect fill="#00a7c3" x="265" y="0" width="5" height="50"/><rect fill="#009abd" x="270" y="0" width="5" height="50"/><rect fill="#00f9ff" x="275" y="0" width="5" height="50"/><rect fill="#0080b9" x="280" y="0" width="5" height="50"/><rect fill="#00ffff" x="285" y="0" width="5" height="50"/><rect fill="#009de8" x="290" y="0" width="5" height="50"/><rect fill="#00a5ff" x="295" y="0" width="5" height="50"/><rect fill="#0092f7" x="300" y="0" width="5" height="50"/><rect fill="#0099ff" x="305" y="0" width="5" height="50"/><rect fill="#00ffff" x="310" y="0" width="5" height="50"/><rect fill="#00a9ff" x="315" y="0" width="5" height="50"/><rect fill="#00f4ff" x="320" y="0" width="5" height="50"/><rect fill="#00a2ff" x="325" y="0" width="5" height="50"/><rect fill="#007fff" x="330" y="0" width="5" height="50"/><rect fill="#00d5ff" x="335" y="0" width="5" height="50"/><rect fill="#00ffff" x="340" y="0" width="5" height="50"/><rect fill="#0098ff" x="345" y="0" width="5" height="50"/><rect fill="#aafbff" x="350" y="0" width="5" height="50"/><rect fill="#0060f8" x="355" y="0" width="5" height="50"/><rect fill="#0072ff" x="360" y="0" width="5" height="50"/><rect fill="#cfd1ff" x="365" y="0" width="5" height="50"/><rect fill="#707dff" x="370" y="0" width="5" height="50"/><rect fill="#5f53f1" x="375" y="0" width="5" height="50"/><rect fill="#d4aeff" x="380" y="0" width="5" height="50"/><rect fill="#8f53f8" x="385" y="0" width="5" height="50"/><rect fill="#e99aff" x="390" y="0" width="5" height="50"/><rect fill="#ffcbff" x="395" y="0" width="5" height="50"/><rect fill="#ba4eeb" x="400" y="0" width="5" height="50"/><rect fill="#ff81ff" x="405" y="0" width="5" height="50"/><rect fill="#ff9eff" x="410" y="0" width="5" height="50"/><rect fill="#ff96ff" x="415" y="0" width="5" height="50"/><rect fill="#eb64ff" x="420" y="0" width="5" height="50"/><rect fill="#ff7cff" x="425" y="0" width="5" height="50"/><rect fill="#ff96ff" x="430" y="0" width="5" height="50"/><rect fill="#ff70ff" x="435" y="0" width="5" height="50"/><rect fill="#bf13bd" x="440" y="0" width="5" height="50"/><rect fill="#d82dd5" x="445" y="0" width="5" height="50"/><rect fill="#ff69fd" x="450" y="0" width="5" height="50"/><rect fill="#ff6bff" x="455" y="0" width="5" height="50"/><rect fill="#ff0dbb" x="460" y="0" width="5" height="50"/><rect fill="#ff6ff8" x="465" y="0" width="5" height="50"/><rect fill="#ff81ff" x="470" y="0" width="5" height="50"/><rect fill="#ff4bd6" x="475" y="0" width="5" height="50"/><rect fill="#ff9cff" x="480" y="0" width="5" height="50"/><rect fill="#dc007e" x="485" y="0" width="5" height="50"/><rect fill="#ff009b" x="490" y="0" width="5" height="50"/><rect fill="#ff20a3" x="495" y="0" width="5" height="50"/></g></svg>