<svg version="1.1" xmlns="http://www.w3.org/2000/svg" xmlns:xlink="http://www.w3.org/1999/xlink" width="500" height="50"><g><rect fill="#7d4453" x="0" y="0" width="5" height="50"/><rect fill="#8b515d" x="5" y="0" width="5" height="50"/><rect fill="#b96b79" x="10" y="0" width="5" height="50"/><rect fill="#b8727a" x="15" y="0" width="5" height="50"/><rect fill="#9e5751" x="20" y="0" width="5" height="50"/><rect fill="#d79785" x="25" y="0" width="5" height="50"/><rect fill="#976254" x="30" y="0" width="5" height="50"/><rect fill="#95604f" x="35" y="0" width="5" height="50"/><rect fill="#be7e68" x="40" y="0" width="5" height="50"/><rect fill="#aa7b65" x="45" y="0" width="5" height="50"/><rect fill="#764933" x="50" y="0" width="5" height="50"/><rect fill="#a37b60" x="55" y="0" width="5" height="50"/><rect fill="#6c492d" x="60" y="0" width="5" height="50"/><rect fill="#b1895f" x="65" y="0" width="5" height="50"/><rect fill="#7b5a30" x="70" y="0" width="5" height="50"/><rect fill="#a68459" x="75" y="0" width="5" height="50"/><rect fill="#ab8b5f" x="80" y="0" width="5" height="50"/><rect fill="#664a1f" x="85" y="0" width="5" height="50"/><rect fill="#8e7145" x="90" y="0" width="5" height="50"/><rect fill="#957b44" x="95" y="0" width="5" height="50"/><rect fill="#6f5a22" x="100" y="0" width="5" height="50"/><rect fill="#5f5629" x="105" y="0" width="5" height="50"/><rect fill="#b4aa7a" x="110" y="0" width="5" height="50"/><rect fill="#8c8354" x="115" y="0" width="5" height="50"/><rect fill="#665e28" x="120" y="0" width="5" height="50"/><rect fill="#7a7749" x="125" y="0" width="5" height="50"/><rect fill="#aaa76b" x="130" y="0" width="5" height="50"/><rect fill="#a0a16f" x="135" y="0" width="5" height="50"/><rect fill="#525824" x="140" y="0" width="5" height="50"/><rect fill="#8f9860" x="145" y="0" width="5" height="50"/><rect fill="#828a5b" x="150" y="0" width="5" height="50"/><rect fill="#6b763f" x="155" y="0" width="5" height="50"/><rect fill="#5a6833" x="160" y="0" width="5" height="50"/><rect fill="#51682b" x="165" y="0" width="5" height="50"/><rect fill="#5e7549" x="170" y="0" width="5" height="50"/><rect fill="#88a073" x="175" y="0" width="5" height="50"/><rect fill="#668158" x="180" y="0" width="5" height="50"/><rect fill="#39572b" x="185" y="0" width="5" height="50"/><rect fill="#5d9164" x="190" y="0" width="5" height="50"/><rect fill="#73ac7d" x="195" y="0" width="5" height="50"/><rect fill="#0c542e" x="200" y="0" width="5" height="50"/><rect fill="#396d4c" x="205" y="0" width="5" height="50"/><rect fill="#528a67" x="210" y="0" width="5" height="50"/><rect fill="#53936c" x="215" y="0" width="5" height="50"/><rect fill="#1d6e49" x="220" y="0" width="5" height="50"/><rect fill="#64a081" x="225" y="0" width="5" height="50"/><rect fill="#429572" x="230" y="0" width="5" height="50"/><rect fill="#2e7e5f" x="235" y="0" width="5" height="50"/><rect fill="#005a40" x="240" y="0" width="5" height="50"/><rect fill="#3a9583" x="245" y="0" width="5" height="50"/><rect fill="#6cb4a6" x="250" y="0" width="5" height="50"/><rect fill="#137165" x="255" y="0" width="5" height="50"/><rect fill="#1d7674" x="260" y="0" width="5" height="50"/><rect fill="#007173" x="265" y="0" width="5" height="50"/><rect fill="#005d64" x="270" y="0" width="5" height="50"/><rect fill="#005769" x="275" y="0" width="5" height="50"/><rect fill="#00536a" x="280" y="0" width="5" height="50"/><rect fill="#53abce" x="285" y="0" width="5" height="50"/><rect fill="#155b74" x="290" y="0" width="5" height="50"/><rect fill="#6399b7" x="295" y="0" width="5" height="50"/><rect fill="#006288" x="300" y="0" width="5" height="50"/><rect fill="#599abe" x="305" y="0" width="5" height="50"/><rect fill="#548cb1" x="310" y="0" width="5" height="50"/><rect fill="#0b4f74" x="315" y="0" width="5" height="50"/><rect fill="#4d85b0" x="320" y="0" width="5" height="50"/><rect fill="#658cb1" x="325" y="0" width="5" height="50"/><rect fill="#004e7b" x="330" y="0" width="5" height="50"/><rect fill="#7597c4" x="335" y="0" width="5" height="50"/><rect fill="#2a4d7c" x="340" y="0" width="5" height="50"/><rect fill="#7d95c4" x="345" y="0" width="5" height="50"/><rect fill="#7e90bc" x="350" y="0" width="5" height="50"/><rect fill="#3f4a74" x="355" y="0" width="5" height="50"/><rect fill="#9197cb" x="360" y="0" width="5" height="50"/><rect fill="#7678a5" x="365" y="0" width="5" height="50"/><rect fill="#9d9ddc" x="370" y="0" width="5" height="50"/><rect fill="#ada3d8" x="375" y="0" width="5" height="50"/><rect fill="#8576ae" x="380" y="0" width="5" height="50"/><rect fill="#8374aa" x="385" y="0" width="5" height="50"/><rect fill="#7d699d" x="390" y="0" width="5" height="50"/><rect fill="#6d5089" x="395" y="0" width="5" height="50"/><rect fill="#a386bd" x="400" y="0" width="5" height="50"/><rect fill="#8f6d9b" x="405" y="0" width="5" height="50"/><rect fill="#815a89" x="410" y="0" width="5" height="50"/><rect fill="#8b6a92" x="415" y="0" width="5" height="50"/><rect fill="#926e97" x="420" y="0" width="5" height="50"/><rect fill="#a67fab" x="425" y="0" width="5" height="50"/><rect fill="#b583ba" x="430" y="0" width="5" height="50"/><rect fill="#864f81" x="435" y="0" width="5" height="50"/><rect fill="#703c6a" x="440" y="0" width="5" height="50"/><rect fill="#7a4a70" x="445" y="0" width="5" height="50"/><rect fill="#78466b" x="450" y="0" width="5" height="50"/><rect fill="#a87492" x="455" y="0" width="5" height="50"/><rect fill="#895371" x="460" y="0" width="5" height="50"/><rect fill="#d290b4" x="465" y="0" width="5" height="50"/><rect fill="#804663" x="470" y="0" width="5" height="50"/><rect fill="#9f5d7c" x="475" y="0" width="5" height="50"/><rect fill="#7e3d5a" x="480" y="0" width="5" height="50"/><rect fill="#864862" x="485" y="0" width="5" height="50"/><rect fill="#784459" x="490" y="0" width="5" height="50"/><rect fill="#cd7f99" x="495" y="0" width="5" height="50"/></g></svg>