<svg version="1.1" xmlns="http://www.w3.org/2000/svg" xmlns:xlink="http://www.w3.org/1999/xlink" width="500" height="50"><g><rect fill="#f4dee3" x="0" y="0" width="5" height="50"/><rect fill="#ffe9f0" x="5" y="0" width="5" height="50"/><rect fill="#ffd8e0" x="10" y="0" width="5" height="50"/><rect fill="#ffedf1" x="15" y="0" width="5" height="50"/><rect fill="#fff1f2" x="20" y="0" width="5" height="50"/><rect fill="#fff6f7" x="25" y="0" width="5" height="50"/><rect fill="#fbe9e9" x="30" y="0" width="5" height="50"/><rect fill="#ffede7" x="35" y="0" width="5" height="50"/><rect fill="#fdddd1" x="40" y="0" width="5" height="50"/><rect fill="#fff4ec" x="45" y="0" width="5" height="50"/><rect fill="#fae0d1" x="50" y="0" width="5" height="50"/><rect fill="#fef3ec" x="55" y="0" width="5" height="50"/><rect fill="#fffbef" x="60" y="0" width="5" height="50"/><rect fill="#fff3dc" x="65" y="0" width="5" height="50"/><rect fill="#fff5e8" x="70" y="0" width="5" height="50"/><rect fill="#ffeee0" x="75" y="0" width="5" height="50"/><rect fill="#fff3e3" x="80" y="0" width="5" height="50"/><rect fill="#feefe2" x="85" y="0" width="5" height="50"/><rect fill="#fff3e3" x="90" y="0" width="5" height="50"/><rect fill="#fff1dc" x="95" y="0" width="5" height="50"/><rect fill="#ffead1" x="100" y="0" width="5" height="50"/><rect fill="#fff7de" x="105" y="0" width="5" height="50"/><rect fill="#feefdd" x="110" y="0" width="5" height="50"/><rect fill="#fffae9" x="115" y="0" width="5" height="50"/><rect fill="#f5eadb" x="120" y="0" width="5" height="50"/><rect fill="#f4e7cf" x="125" y="0" width="5" height="50"/><rect fill="#f2e3c8" x="130" y="0" width="5" height="50"/><rect fill="#f4edd4" x="135" y="0" width="5" height="50"/><rect fill="#fbf6e3" x="140" y="0" width="5" height="50"/><rect fill="#f6f1da" x="145" y="0" width="5" height="50"/><rect fill="#e7e3d1" x="150" y="0" width="5" height="50"/><rect fill="#e7e4be" x="155" y="0" width="5" height="50"/><rect fill="#ebebdc" x="160" y="0" width="5" height="50"/><rect fill="#e7e7dd" x="165" y="0" width="5" height="50"/><rect fill="#eaefc8" x="170" y="0" width="5" height="50"/><rect fill="#e9f5d4" x="175" y="0" width="5" height="50"/><rect fill="#ecfcd9" x="180" y="0" width="5" height="50"/><rect fill="#edf8e1" x="185" y="0" width="5" height="50"/><rect fill="#efffe5" x="190" y="0" width="5" height="50"/><rect fill="#e7ffea" x="195" y="0" width="5" height="50"/><rect fill="#e1fcea" x="200" y="0" width="5" height="50"/><rect fill="#deeee4" x="205" y="0" width="5" height="50"/><rect fill="#d1ebdc" x="210" y="0" width="5" height="50"/><rect fill="#edfdf5" x="215" y="0" width="5" height="50"/><rect fill="#dff1e8" x="220" y="0" width="5" height="50"/><rect fill="#caede0" x="225" y="0" width="5" height="50"/><rect fill="#f1fffc" x="230" y="0" width="5" height="50"/><rect fill="#d7fff8" x="235" y="0" width="5" height="50"/><rect fill="#ddf8f2" x="240" y="0" width="5" height="50"/><rect fill="#e5f7f3" x="245" y="0" width="5" height="50"/><rect fill="#d3fcf6" x="250" y="0" width="5" height="50"/><rect fill="#d8f1ee" x="255" y="0" width="5" height="50"/><rect fill="#d2faf5" x="260" y="0" width="5" height="50"/><rect fill="#daffff" x="265" y="0" width="5" height="50"/><rect fill="#d2feff" x="270" y="0" width="5" height="50"/><rect fill="#c5ebf2" x="275" y="0" width="5" height="50"/><rect fill="#d3f9ff" x="280" y="0" width="5" height="50"/><rect fill="#b9edf9" x="285" y="0" width="5" height="50"/><rect fill="#c5eefb" x="290" y="0" width="5" height="50"/><rect fill="#e8ffff" x="295" y="0" width="5" height="50"/><rect fill="#cbf6ff" x="300" y="0" width="5" height="50"/><rect fill="#ddf5ff" x="305" y="0" width="5" height="50"/><rect fill="#d6fcff" x="310" y="0" width="5" height="50"/><rect fill="#e8ffff" x="315" y="0" width="5" height="50"/><rect fill="#d1f0ff" x="320" y="0" width="5" height="50"/><rect fill="#ddffff" x="325" y="0" width="5" height="50"/><rect fill="#daf9ff" x="330" y="0" width="5" height="50"/><rect fill="#d6f2ff" x="335" y="0" width="5" height="50"/><rect fill="#e7f9ff" x="340" y="0" width="5" height="50"/><rect fill="#e0f2ff" x="345" y="0" width="5" height="50"/><rect fill="#d1e5ff" x="350" y="0" width="5" height="50"/><rect fill="#e7f8ff" x="355" y="0" width="5" height="50"/><rect fill="#f1ffff" x="360" y="0" width="5" height="50"/><rect fill="#e4efff" x="365" y="0" width="5" height="50"/><rect fill="#ebf7ff" x="370" y="0" width="5" height="50"/><rect fill="#dfe7fe" x="375" y="0" width="5" height="50"/><rect fill="#eaf0ff" x="380" y="0" width="5" height="50"/><rect fill="#eff8ff" x="385" y="0" width="5" height="50"/><rect fill="#f4faff" x="390" y="0" width="5" height="50"/><rect fill="#ebeeff" x="395" y="0" width="5" height="50"/><rect fill="#ebf1ff" x="400" y="0" width="5" height="50"/><rect fill="#e6e9ff" x="405" y="0" width="5" height="50"/><rect fill="#e6e6fc" x="410" y="0" width="5" height="50"/><rect fill="#e2e3ff" x="415" y="0" width="5" height="50"/><rect fill="#f4f1ff" x="420" y="0" width="5" height="50"/><rect fill="#eeeafd" x="425" y="0" width="5" height="50"/><rect fill="#f6f4ff" x="430" y="0" width="5" height="50"/><rect fill="#fbf0ff" x="435" y="0" width="5" height="50"/><rect fill="#ebdeff" x="440" y="0" width="5" height="50"/><rect fill="#fff4ff" x="445" y="0" width="5" height="50"/><rect fill="#fff1ff" x="450" y="0" width="5" height="50"/><rect fill="#fdf3ff" x="455" y="0" width="5" height="50"/><rect fill="#fff4ff" x="460" y="0" width="5" height="50"/><rect fill="#fff7ff" x="465" y="0" width="5" height="50"/><rect fill="#fff1ff" x="470" y="0" width="5" height="50"/><rect fill="#ffeaff" x="475" y="0" width="5" height="50"/><rect fill="#f3e2ec" x="480" y="0" width="5" height="50"/><rect fill="#f5dee8" x="485" y="0" width="5" height="50"/><rect fill="#fff2fc" x="490" y="0" width="5" height="50"/><rect fill="#fadee6" x="495" y="0" width="5" height="50"/></g></svg>