<svg version="1.1" xmlns="http://www.w3.org/2000/svg" xmlns:xlink="http://www.w3.org/1999/xlink" width="500" height="50"><g><rect fill="#89b496" x="0" y="0" width="5" height="50"/><rect fill="#b5a784" x="5" y="0" width="5" height="50"/><rect fill="#90b5ac" x="10" y="0" width="5" height="50"/><rect fill="#8bb6a3" x="15" y="0" width="5" height="50"/><rect fill="#96b7ae" x="20" y="0" width="5" height="50"/><rect fill="#b8b497" x="25" y="0" width="5" height="50"/><rect fill="#b89e84" x="30" y="0" width="5" height="50"/><rect fill="#89b997" x="35" y="0" width="5" height="50"/><rect fill="#baa691" x="40" y="0" width="5" height="50"/><rect fill="#bbb094" x="45" y="0" width="5" height="50"/><rect fill="#87bb96" x="50" y="0" width="5" height="50"/><rect fill="#92bba8" x="55" y="0" width="5" height="50"/><rect fill="#84bc94" x="60" y="0" width="5" height="50"/><rect fill="#bcb997" x="65" y="0" width="5" height="50"/><rect fill="#8cc0b0" x="70" y="0" width="5" height="50"/><rect fill="#8bc099" x="75" y="0" width="5" height="50"/><rect fill="#c1c09f" x="80" y="0" width="5" height="50"/><rect fill="#9bc1aa" x="85" y="0" width="5" height="50"/><rect fill="#c1b497" x="90" y="0" width="5" height="50"/><rect fill="#92c3a8" x="95" y="0" width="5" height="50"/><rect fill="#a3c4ac" x="100" y="0" width="5" height="50"/><rect fill="#c4bf8c" x="105" y="0" width="5" height="50"/><rect fill="#c6c0a1" x="110" y="0" width="5" height="50"/><rect fill="#a1c6ad" x="115" y="0" width="5" height="50"/><rect fill="#c9b19f" x="120" y="0" width="5" height="50"/><rect fill="#aac9c0" x="125" y="0" width="5" height="50"/><rect fill="#cabfa6" x="130" y="0" width="5" height="50"/><rect fill="#a4cab4" x="135" y="0" width="5" height="50"/><rect fill="#9fccbe" x="140" y="0" width="5" height="50"/><rect fill="#92cd9e" x="145" y="0" width="5" height="50"/><rect fill="#ceb9a9" x="150" y="0" width="5" height="50"/><rect fill="#cfbc96" x="155" y="0" width="5" height="50"/><rect fill="#99d0b2" x="160" y="0" width="5" height="50"/><rect fill="#d0c397" x="165" y="0" width="5" height="50"/><rect fill="#d2caa8" x="170" y="0" width="5" height="50"/><rect fill="#acd3bf" x="175" y="0" width="5" height="50"/><rect fill="#aed3ba" x="180" y="0" width="5" height="50"/><rect fill="#d3c6b1" x="185" y="0" width="5" height="50"/><rect fill="#d3cda7" x="190" y="0" width="5" height="50"/><rect fill="#d3c9b2" x="195" y="0" width="5" height="50"/><rect fill="#a0d4b9" x="200" y="0" width="5" height="50"/><rect fill="#a8d5cb" x="205" y="0" width="5" height="50"/><rect fill="#9bd6c7" x="210" y="0" width="5" height="50"/><rect fill="#b5d8c9" x="215" y="0" width="5" height="50"/><rect fill="#d8cca8" x="220" y="0" width="5" height="50"/><rect fill="#d9c9ac" x="225" y="0" width="5" height="50"/><rect fill="#a7dab7" x="230" y="0" width="5" height="50"/><rect fill="#9fdbb8" x="235" y="0" width="5" height="50"/><rect fill="#dcc4a5" x="240" y="0" width="5" height="50"/><rect fill="#ddd6ae" x="245" y="0" width="5" height="50"/><rect fill="#a3ddb7" x="250" y="0" width="5" height="50"/><rect fill="#9fddad" x="255" y="0" width="5" height="50"/><rect fill="#b1dec9" x="260" y="0" width="5" height="50"/><rect fill="#b3e0d5" x="265" y="0" width="5" height="50"/><rect fill="#e0cfb3" x="270" y="0" width="5" height="50"/><rect fill="#b2e2ca" x="275" y="0" width="5" height="50"/><rect fill="#e3e0bc" x="280" y="0" width="5" height="50"/><rect fill="#ade3d4" x="285" y="0" width="5" height="50"/><rect fill="#e4d8c0" x="290" y="0" width="5" height="50"/><rect fill="#e4d8a7" x="295" y="0" width="5" height="50"/><rect fill="#bce4d7" x="300" y="0" width="5" height="50"/><rect fill="#c0e5d1" x="305" y="0" width="5" height="50"/><rect fill="#e5e2ba" x="310" y="0" width="5" height="50"/><rect fill="#e6e3b9" x="315" y="0" width="5" height="50"/><rect fill="#c2e6d6" x="320" y="0" width="5" height="50"/><rect fill="#bde7c9" x="325" y="0" width="5" height="50"/><rect fill="#e7e8ad" x="330" y="0" width="5" height="50"/><rect fill="#bfe9cb" x="335" y="0" width="5" height="50"/><rect fill="#c7eace" x="340" y="0" width="5" height="50"/><rect fill="#c5ebde" x="345" y="0" width="5" height="50"/><rect fill="#b5ecc0" x="350" y="0" width="5" height="50"/><rect fill="#aeecdf" x="355" y="0" width="5" height="50"/><rect fill="#beeecf" x="360" y="0" width="5" height="50"/><rect fill="#eee2ca" x="365" y="0" width="5" height="50"/><rect fill="#c2eed8" x="370" y="0" width="5" height="50"/><rect fill="#c2efe1" x="375" y="0" width="5" height="50"/><rect fill="#efd8b5" x="380" y="0" width="5" height="50"/><rect fill="#cdf2e5" x="385" y="0" width="5" height="50"/><rect fill="#f2e9ba" x="390" y="0" width="5" height="50"/><rect fill="#f3dfb2" x="395" y="0" width="5" height="50"/><rect fill="#f4dbb7" x="400" y="0" width="5" height="50"/><rect fill="#f5edad" x="405" y="0" width="5" height="50"/><rect fill="#c3f5e8" x="410" y="0" width="5" height="50"/><rect fill="#f5e2b1" x="415" y="0" width="5" height="50"/><rect fill="#cff5e2" x="420" y="0" width="5" height="50"/><rect fill="#f6dec8" x="425" y="0" width="5" height="50"/><rect fill="#f8d0b3" x="430" y="0" width="5" height="50"/><rect fill="#c8f9e1" x="435" y="0" width="5" height="50"/><rect fill="#cdf9e3" x="440" y="0" width="5" height="50"/><rect fill="#f9e3c9" x="445" y="0" width="5" height="50"/><rect fill="#fafbb9" x="450" y="0" width="5" height="50"/><rect fill="#fbe6bd" x="455" y="0" width="5" height="50"/><rect fill="#fbf1c3" x="460" y="0" width="5" height="50"/><rect fill="#fcfcca" x="465" y="0" width="5" height="50"/><rect fill="#fde6cf" x="470" y="0" width="5" height="50"/><rect fill="#fdefc7" x="475" y="0" width="5" height="50"/><rect fill="#c2fedb" x="480" y="0" width="5" height="50"/><rect fill="#fee0b2" x="485" y="0" width="5" height="50"/><rect fill="#fef0cb" x="490" y="0" width="5" height="50"/><rect fill="#fff1ca" x="495" y="0" width="5" height="50"/></g></svg>