<svg version="1.1" xmlns="http://www.w3.org/2000/svg" xmlns:xlink="http://www.w3.org/1999/xlink" width="500" height="50"><g><rect fill="#016a16" x="0" y="0" width="5" height="50"/><rect fill="#08d037" x="5" y="0" width="5" height="50"/><rect fill="#048722" x="10" y="0" width="5" height="50"/><rect fill="#07ae2f" x="15" y="0" width="5" height="50"/><rect fill="#059728" x="20" y="0" width="5" height="50"/><rect fill="#097022" x="25" y="0" width="5" height="50"/><rect fill="#03f53f" x="30" y="0" width="5" height="50"/><rect fill="#0f9731" x="35" y="0" width="5" height="50"/><rect fill="#07ca3a" x="40" y="0" width="5" height="50"/><rect fill="#0ca134" x="45" y="0" width="5" height="50"/><rect fill="#07e843" x="50" y="0" width="5" height="50"/><rect fill="#08902e" x="55" y="0" width="5" height="50"/><rect fill="#05a531" x="60" y="0" width="5" height="50"/><rect fill="#12d147" x="65" y="0" width="5" height="50"/><rect fill="#01bb35" x="70" y="0" width="5" height="50"/><rect fill="#0fe24a" x="75" y="0" width="5" height="50"/><rect fill="#04ea47" x="80" y="0" width="5" height="50"/><rect fill="#0cd246" x="85" y="0" width="5" height="50"/><rect fill="#18fe5c" x="90" y="0" width="5" height="50"/><rect fill="#0aa73a" x="95" y="0" width="5" height="50"/><rect fill="#06f44e" x="100" y="0" width="5" height="50"/><rect fill="#0fc949" x="105" y="0" width="5" height="50"/><rect fill="#0fbf48" x="110" y="0" width="5" height="50"/><rect fill="#0c8a35" x="115" y="0" width="5" height="50"/><rect fill="#0dc64a" x="120" y="0" width="5" height="50"/><rect fill="#038930" x="125" y="0" width="5" height="50"/><rect fill="#0a672a" x="130" y="0" width="5" height="50"/><rect fill="#0dd854" x="135" y="0" width="5" height="50"/><rect fill="#03b645" x="140" y="0" width="5" height="50"/><rect fill="#0b7f36" x="145" y="0" width="5" height="50"/><rect fill="#069039" x="150" y="0" width="5" height="50"/><rect fill="#05af45" x="155" y="0" width="5" height="50"/><rect fill="#0c8e3d" x="160" y="0" width="5" height="50"/><rect fill="#0c9b42" x="165" y="0" width="5" height="50"/><rect fill="#10a44a" x="170" y="0" width="5" height="50"/><rect fill="#05ef63" x="175" y="0" width="5" height="50"/><rect fill="#057c35" x="180" y="0" width="5" height="50"/><rect fill="#048f3d" x="185" y="0" width="5" height="50"/><rect fill="#01a947" x="190" y="0" width="5" height="50"/><rect fill="#00f368" x="195" y="0" width="5" height="50"/><rect fill="#0fd365" x="200" y="0" width="5" height="50"/><rect fill="#14ca64" x="205" y="0" width="5" height="50"/><rect fill="#0eea6f" x="210" y="0" width="5" height="50"/><rect fill="#18f27b" x="215" y="0" width="5" height="50"/><rect fill="#068d45" x="220" y="0" width="5" height="50"/><rect fill="#06fd7a" x="225" y="0" width="5" height="50"/><rect fill="#02f775" x="230" y="0" width="5" height="50"/><rect fill="#03cc62" x="235" y="0" width="5" height="50"/><rect fill="#018a42" x="240" y="0" width="5" height="50"/><rect fill="#097d42" x="245" y="0" width="5" height="50"/><rect fill="#0e9a55" x="250" y="0" width="5" height="50"/><rect fill="#06fa82" x="255" y="0" width="5" height="50"/><rect fill="#01fa82" x="260" y="0" width="5" height="50"/><rect fill="#019b51" x="265" y="0" width="5" height="50"/><rect fill="#077741" x="270" y="0" width="5" height="50"/><rect fill="#02f17f" x="275" y="0" width="5" height="50"/><rect fill="#03f07f" x="280" y="0" width="5" height="50"/><rect fill="#03e77e" x="285" y="0" width="5" height="50"/><rect fill="#05dc7a" x="290" y="0" width="5" height="50"/><rect fill="#03ba6c" x="295" y="0" width="5" height="50"/><rect fill="#0c7f4f" x="300" y="0" width="5" height="50"/><rect fill="#11bb78" x="305" y="0" width="5" height="50"/><rect fill="#00b46d" x="310" y="0" width="5" height="50"/><rect fill="#07d785" x="315" y="0" width="5" height="50"/><rect fill="#10f89e" x="320" y="0" width="5" height="50"/><rect fill="#02e28c" x="325" y="0" width="5" height="50"/><rect fill="#018e58" x="330" y="0" width="5" height="50"/><rect fill="#069f66" x="335" y="0" width="5" height="50"/><rect fill="#0ede90" x="340" y="0" width="5" height="50"/><rect fill="#08784e" x="345" y="0" width="5" height="50"/><rect fill="#089160" x="350" y="0" width="5" height="50"/><rect fill="#0ea871" x="355" y="0" width="5" height="50"/><rect fill="#05d48c" x="360" y="0" width="5" height="50"/><rect fill="#09a871" x="365" y="0" width="5" height="50"/><rect fill="#05865a" x="370" y="0" width="5" height="50"/><rect fill="#027750" x="375" y="0" width="5" height="50"/><rect fill="#03d58f" x="380" y="0" width="5" height="50"/><rect fill="#12db99" x="385" y="0" width="5" height="50"/><rect fill="#10ce90" x="390" y="0" width="5" height="50"/><rect fill="#07996a" x="395" y="0" width="5" height="50"/><rect fill="#0ef1a9" x="400" y="0" width="5" height="50"/><rect fill="#00e39d" x="405" y="0" width="5" height="50"/><rect fill="#0ff0ac" x="410" y="0" width="5" height="50"/><rect fill="#12d099" x="415" y="0" width="5" height="50"/><rect fill="#0b8260" x="420" y="0" width="5" height="50"/><rect fill="#05956c" x="425" y="0" width="5" height="50"/><rect fill="#09f8b5" x="430" y="0" width="5" height="50"/><rect fill="#11f7b8" x="435" y="0" width="5" height="50"/><rect fill="#11af84" x="440" y="0" width="5" height="50"/><rect fill="#0a8161" x="445" y="0" width="5" height="50"/><rect fill="#05bf8f" x="450" y="0" width="5" height="50"/><rect fill="#11d9a7" x="455" y="0" width="5" height="50"/><rect fill="#03ce9c" x="460" y="0" width="5" height="50"/><rect fill="#0c9775" x="465" y="0" width="5" height="50"/><rect fill="#08be93" x="470" y="0" width="5" height="50"/><rect fill="#0d9e7c" x="475" y="0" width="5" height="50"/><rect fill="#09e2b1" x="480" y="0" width="5" height="50"/><rect fill="#12dbb1" x="485" y="0" width="5" height="50"/><rect fill="#0a6b57" x="490" y="0" width="5" height="50"/><rect fill="#11deb4" x="495" y="0" width="5" height="50"/></g></svg>