<svg version="1.1" xmlns="http://www.w3.org/2000/svg" xmlns:xlink="http://www.w3.org/1999/xlink" width="500" height="50"><g><rect fill="#b4eabf" x="0" y="0" width="5" height="50"/><rect fill="#93c39d" x="5" y="0" width="5" height="50"/><rect fill="#c2e9ca" x="10" y="0" width="5" height="50"/><rect fill="#c0e6c8" x="15" y="0" width="5" height="50"/><rect fill="#8cb695" x="20" y="0" width="5" height="50"/><rect fill="#d5fcde" x="25" y="0" width="5" height="50"/><rect fill="#a7d8b3" x="30" y="0" width="5" height="50"/><rect fill="#bbffcb" x="35" y="0" width="5" height="50"/><rect fill="#95d5a4" x="40" y="0" width="5" height="50"/><rect fill="#c0f9ce" x="45" y="0" width="5" height="50"/><rect fill="#95bc9f" x="50" y="0" width="5" height="50"/><rect fill="#b9e9c5" x="55" y="0" width="5" height="50"/><rect fill="#a1c8ac" x="60" y="0" width="5" height="50"/><rect fill="#b6eac4" x="65" y="0" width="5" height="50"/><rect fill="#c8f1d4" x="70" y="0" width="5" height="50"/><rect fill="#b7fdcb" x="75" y="0" width="5" height="50"/><rect fill="#a6d9b5" x="80" y="0" width="5" height="50"/><rect fill="#b7edc8" x="85" y="0" width="5" height="50"/><rect fill="#c0eece" x="90" y="0" width="5" height="50"/><rect fill="#87ba99" x="95" y="0" width="5" height="50"/><rect fill="#aaccb6" x="100" y="0" width="5" height="50"/><rect fill="#8eb39b" x="105" y="0" width="5" height="50"/><rect fill="#95b9a2" x="110" y="0" width="5" height="50"/><rect fill="#aff0c7" x="115" y="0" width="5" height="50"/><rect fill="#8eb79d" x="120" y="0" width="5" height="50"/><rect fill="#97d5ae" x="125" y="0" width="5" height="50"/><rect fill="#9cc1aa" x="130" y="0" width="5" height="50"/><rect fill="#9cbfa9" x="135" y="0" width="5" height="50"/><rect fill="#a6d1b6" x="140" y="0" width="5" height="50"/><rect fill="#c2f4d5" x="145" y="0" width="5" height="50"/><rect fill="#91b9a0" x="150" y="0" width="5" height="50"/><rect fill="#c2f5d6" x="155" y="0" width="5" height="50"/><rect fill="#9ebaa9" x="160" y="0" width="5" height="50"/><rect fill="#b8dcc6" x="165" y="0" width="5" height="50"/><rect fill="#9bcfaf" x="170" y="0" width="5" height="50"/><rect fill="#bae3ca" x="175" y="0" width="5" height="50"/><rect fill="#c5ecd5" x="180" y="0" width="5" height="50"/><rect fill="#a3ccb4" x="185" y="0" width="5" height="50"/><rect fill="#c9f2da" x="190" y="0" width="5" height="50"/><rect fill="#a8e3c1" x="195" y="0" width="5" height="50"/><rect fill="#b0d5c0" x="200" y="0" width="5" height="50"/><rect fill="#89bd9f" x="205" y="0" width="5" height="50"/><rect fill="#ade8c6" x="210" y="0" width="5" height="50"/><rect fill="#bbf2d3" x="215" y="0" width="5" height="50"/><rect fill="#b5e6cb" x="220" y="0" width="5" height="50"/><rect fill="#c5f2d8" x="225" y="0" width="5" height="50"/><rect fill="#96b8a6" x="230" y="0" width="5" height="50"/><rect fill="#c4edd7" x="235" y="0" width="5" height="50"/><rect fill="#d0f9e3" x="240" y="0" width="5" height="50"/><rect fill="#98bca9" x="245" y="0" width="5" height="50"/><rect fill="#b9deca" x="250" y="0" width="5" height="50"/><rect fill="#84ba9e" x="255" y="0" width="5" height="50"/><rect fill="#aedac4" x="260" y="0" width="5" height="50"/><rect fill="#a5d8be" x="265" y="0" width="5" height="50"/><rect fill="#92cdb0" x="270" y="0" width="5" height="50"/><rect fill="#c1e8d5" x="275" y="0" width="5" height="50"/><rect fill="#a1dfc1" x="280" y="0" width="5" height="50"/><rect fill="#c8ecdb" x="285" y="0" width="5" height="50"/><rect fill="#99d2b6" x="290" y="0" width="5" height="50"/><rect fill="#88bea4" x="295" y="0" width="5" height="50"/><rect fill="#9fbdaf" x="300" y="0" width="5" height="50"/><rect fill="#9cdbbe" x="305" y="0" width="5" height="50"/><rect fill="#b4fddb" x="310" y="0" width="5" height="50"/><rect fill="#7db39a" x="315" y="0" width="5" height="50"/><rect fill="#a6ddc3" x="320" y="0" width="5" height="50"/><rect fill="#92b6a6" x="325" y="0" width="5" height="50"/><rect fill="#99beae" x="330" y="0" width="5" height="50"/><rect fill="#89b4a1" x="335" y="0" width="5" height="50"/><rect fill="#91b9a8" x="340" y="0" width="5" height="50"/><rect fill="#9fc2b4" x="345" y="0" width="5" height="50"/><rect fill="#8abca8" x="350" y="0" width="5" height="50"/><rect fill="#b3fde0" x="355" y="0" width="5" height="50"/><rect fill="#93c3b0" x="360" y="0" width="5" height="50"/><rect fill="#b2dccc" x="365" y="0" width="5" height="50"/><rect fill="#96d3bd" x="370" y="0" width="5" height="50"/><rect fill="#b7dfd1" x="375" y="0" width="5" height="50"/><rect fill="#98bfb1" x="380" y="0" width="5" height="50"/><rect fill="#b5ebda" x="385" y="0" width="5" height="50"/><rect fill="#a6cabf" x="390" y="0" width="5" height="50"/><rect fill="#b3efdd" x="395" y="0" width="5" height="50"/><rect fill="#cdfbed" x="400" y="0" width="5" height="50"/><rect fill="#99d4c2" x="405" y="0" width="5" height="50"/><rect fill="#91baae" x="410" y="0" width="5" height="50"/><rect fill="#89baac" x="415" y="0" width="5" height="50"/><rect fill="#8bb5a9" x="420" y="0" width="5" height="50"/><rect fill="#afddd0" x="425" y="0" width="5" height="50"/><rect fill="#bef0e3" x="430" y="0" width="5" height="50"/><rect fill="#bdffee" x="435" y="0" width="5" height="50"/><rect fill="#d0f7ed" x="440" y="0" width="5" height="50"/><rect fill="#b3e0d4" x="445" y="0" width="5" height="50"/><rect fill="#abd8cc" x="450" y="0" width="5" height="50"/><rect fill="#b2dbd1" x="455" y="0" width="5" height="50"/><rect fill="#c7eee4" x="460" y="0" width="5" height="50"/><rect fill="#98cabd" x="465" y="0" width="5" height="50"/><rect fill="#b4f6e6" x="470" y="0" width="5" height="50"/><rect fill="#aef2e2" x="475" y="0" width="5" height="50"/><rect fill="#b7f8e9" x="480" y="0" width="5" height="50"/><rect fill="#acccc5" x="485" y="0" width="5" height="50"/><rect fill="#aef8e9" x="490" y="0" width="5" height="50"/><rect fill="#d0fcf3" x="495" y="0" width="5" height="50"/></g></svg>