<svg version="1.1" xmlns="http://www.w3.org/2000/svg" xmlns:xlink="http://www.w3.org/1999/xlink" width="500" height="50"><g><rect fill="#d7e6dd" x="0" y="0" width="5" height="50"/><rect fill="#e6dfd0" x="5" y="0" width="5" height="50"/><rect fill="#d4e7e2" x="10" y="0" width="5" height="50"/><rect fill="#d9e7de" x="15" y="0" width="5" height="50"/><rect fill="#e8e1c1" x="20" y="0" width="5" height="50"/><rect fill="#e8e2bc" x="25" y="0" width="5" height="50"/><rect fill="#dbe8de" x="30" y="0" width="5" height="50"/><rect fill="#e8d7c9" x="35" y="0" width="5" height="50"/><rect fill="#c6e8dd" x="40" y="0" width="5" height="50"/><rect fill="#e8e5d9" x="45" y="0" width="5" height="50"/><rect fill="#bee8da" x="50" y="0" width="5" height="50"/><rect fill="#e8ddbd" x="55" y="0" width="5" height="50"/><rect fill="#e9e7cf" x="60" y="0" width="5" height="50"/><rect fill="#e9ded4" x="65" y="0" width="5" height="50"/><rect fill="#c1e9c9" x="70" y="0" width="5" height="50"/><rect fill="#e9e7da" x="75" y="0" width="5" height="50"/><rect fill="#eadfd4" x="80" y="0" width="5" height="50"/><rect fill="#eadece" x="85" y="0" width="5" height="50"/><rect fill="#ead8ca" x="90" y="0" width="5" height="50"/><rect fill="#c4eada" x="95" y="0" width="5" height="50"/><rect fill="#c2eadb" x="100" y="0" width="5" height="50"/><rect fill="#eae9db" x="105" y="0" width="5" height="50"/><rect fill="#deeae4" x="110" y="0" width="5" height="50"/><rect fill="#eae1c6" x="115" y="0" width="5" height="50"/><rect fill="#eae2d3" x="120" y="0" width="5" height="50"/><rect fill="#ebe2bf" x="125" y="0" width="5" height="50"/><rect fill="#ebe2d5" x="130" y="0" width="5" height="50"/><rect fill="#ccebdf" x="135" y="0" width="5" height="50"/><rect fill="#ece6c3" x="140" y="0" width="5" height="50"/><rect fill="#c3ecd6" x="145" y="0" width="5" height="50"/><rect fill="#ece7de" x="150" y="0" width="5" height="50"/><rect fill="#eddbc6" x="155" y="0" width="5" height="50"/><rect fill="#c8eee2" x="160" y="0" width="5" height="50"/><rect fill="#eedacc" x="165" y="0" width="5" height="50"/><rect fill="#eeedc1" x="170" y="0" width="5" height="50"/><rect fill="#e0eee7" x="175" y="0" width="5" height="50"/><rect fill="#efe7dd" x="180" y="0" width="5" height="50"/><rect fill="#c0efce" x="185" y="0" width="5" height="50"/><rect fill="#d4efdf" x="190" y="0" width="5" height="50"/><rect fill="#efe5ca" x="195" y="0" width="5" height="50"/><rect fill="#cef0d7" x="200" y="0" width="5" height="50"/><rect fill="#d6f0dc" x="205" y="0" width="5" height="50"/><rect fill="#f0e0c6" x="210" y="0" width="5" height="50"/><rect fill="#c2f0d1" x="215" y="0" width="5" height="50"/><rect fill="#f1ddc1" x="220" y="0" width="5" height="50"/><rect fill="#d5f1df" x="225" y="0" width="5" height="50"/><rect fill="#cdf1e3" x="230" y="0" width="5" height="50"/><rect fill="#f1edce" x="235" y="0" width="5" height="50"/><rect fill="#f1e7d0" x="240" y="0" width="5" height="50"/><rect fill="#f1e8df" x="245" y="0" width="5" height="50"/><rect fill="#d5f1e4" x="250" y="0" width="5" height="50"/><rect fill="#c5f2dc" x="255" y="0" width="5" height="50"/><rect fill="#e0f2e8" x="260" y="0" width="5" height="50"/><rect fill="#cdf3dd" x="265" y="0" width="5" height="50"/><rect fill="#c3f3d9" x="270" y="0" width="5" height="50"/><rect fill="#c8f3d6" x="275" y="0" width="5" height="50"/><rect fill="#caf3d5" x="280" y="0" width="5" height="50"/><rect fill="#caf4e3" x="285" y="0" width="5" height="50"/><rect fill="#f4e8c9" x="290" y="0" width="5" height="50"/><rect fill="#cdf4e2" x="295" y="0" width="5" height="50"/><rect fill="#f5ede2" x="300" y="0" width="5" height="50"/><rect fill="#f6e6d1" x="305" y="0" width="5" height="50"/><rect fill="#f6ebd8" x="310" y="0" width="5" height="50"/><rect fill="#ccf6ea" x="315" y="0" width="5" height="50"/><rect fill="#cff6db" x="320" y="0" width="5" height="50"/><rect fill="#d9f6ec" x="325" y="0" width="5" height="50"/><rect fill="#f6f3dd" x="330" y="0" width="5" height="50"/><rect fill="#cdf7e7" x="335" y="0" width="5" height="50"/><rect fill="#c7f7d7" x="340" y="0" width="5" height="50"/><rect fill="#f7f2e1" x="345" y="0" width="5" height="50"/><rect fill="#e6f7eb" x="350" y="0" width="5" height="50"/><rect fill="#f7ecd3" x="355" y="0" width="5" height="50"/><rect fill="#d1f7e7" x="360" y="0" width="5" height="50"/><rect fill="#f7f4e6" x="365" y="0" width="5" height="50"/><rect fill="#f8f3d5" x="370" y="0" width="5" height="50"/><rect fill="#ebf8f2" x="375" y="0" width="5" height="50"/><rect fill="#dbf8e1" x="380" y="0" width="5" height="50"/><rect fill="#e1f8e7" x="385" y="0" width="5" height="50"/><rect fill="#cff8db" x="390" y="0" width="5" height="50"/><rect fill="#daf9e9" x="395" y="0" width="5" height="50"/><rect fill="#f9e2d0" x="400" y="0" width="5" height="50"/><rect fill="#f9f4cd" x="405" y="0" width="5" height="50"/><rect fill="#d2f9e7" x="410" y="0" width="5" height="50"/><rect fill="#ccfaee" x="415" y="0" width="5" height="50"/><rect fill="#faf2e0" x="420" y="0" width="5" height="50"/><rect fill="#faf1e9" x="425" y="0" width="5" height="50"/><rect fill="#faf6d7" x="430" y="0" width="5" height="50"/><rect fill="#faede3" x="435" y="0" width="5" height="50"/><rect fill="#fbe9d0" x="440" y="0" width="5" height="50"/><rect fill="#defbe6" x="445" y="0" width="5" height="50"/><rect fill="#dbfbe5" x="450" y="0" width="5" height="50"/><rect fill="#d0fbe8" x="455" y="0" width="5" height="50"/><rect fill="#fce4d2" x="460" y="0" width="5" height="50"/><rect fill="#d4fdf4" x="465" y="0" width="5" height="50"/><rect fill="#fde8cd" x="470" y="0" width="5" height="50"/><rect fill="#d8fdf3" x="475" y="0" width="5" height="50"/><rect fill="#d3fedf" x="480" y="0" width="5" height="50"/><rect fill="#cffeed" x="485" y="0" width="5" height="50"/><rect fill="#fef8cd" x="490" y="0" width="5" height="50"/><rect fill="#fffbdf" x="495" y="0" width="5" height="50"/></g></svg>