<svg version="1.1" xmlns="http://www.w3.org/2000/svg" xmlns:xlink="http://www.w3.org/1999/xlink" width="500" height="50"><g><rect fill="#ff0062" x="0" y="0" width="5" height="50"/><rect fill="#ffda0b" x="5" y="0" width="5" height="50"/><rect fill="#00fcf4" x="10" y="0" width="5" height="50"/><rect fill="#ffa600" x="15" y="0" width="5" height="50"/><rect fill="#00d5d1" x="20" y="0" width="5" height="50"/><rect fill="#d4d4d4" x="25" y="0" width="5" height="50"/><rect fill="#d5cc00" x="30" y="0" width="5" height="50"/><rect fill="#e3ab00" x="35" y="0" width="5" height="50"/><rect fill="#bbbbbb" x="40" y="0" width="5" height="50"/><rect fill="#a1a1a1" x="45" y="0" width="5" height="50"/><rect fill="#ff0092" x="50" y="0" width="5" height="50"/><rect fill="#e6005c" x="55" y="0" width="5" height="50"/><rect fill="#a17e00" x="60" y="0" width="5" height="50"/><rect fill="#da0064" x="65" y="0" width="5" height="50"/><rect fill="#dddddd" x="70" y="0" width="5" height="50"/><rect fill="#b4a500" x="75" y="0" width="5" height="50"/><rect fill="#c2c2c2" x="80" y="0" width="5" height="50"/><rect fill="#1b1b1b" x="85" y="0" width="5" height="50"/><rect fill="#00dbc3" x="90" y="0" width="5" height="50"/><rect fill="#878787" x="95" y="0" width="5" height="50"/><rect fill="#f2f2f2" x="100" y="0" width="5" height="50"/><rect fill="#2b2b2b" x="105" y="0" width="5" height="50"/><rect fill="#ffa7d4" x="110" y="0" width="5" height="50"/><rect fill="#6b6b6b" x="115" y="0" width="5" height="50"/><rect fill="#cecece" x="120" y="0" width="5" height="50"/><rect fill="#ff9cb1" x="125" y="0" width="5" height="50"/><rect fill="#ff6381" x="130" y="0" width="5" height="50"/><rect fill="#00fff9" x="135" y="0" width="5" height="50"/><rect fill="#00c891" x="140" y="0" width="5" height="50"/><rect fill="#d4d4d4" x="145" y="0" width="5" height="50"/><rect fill="#3c3c3c" x="150" y="0" width="5" height="50"/><rect fill="#ffb500" x="155" y="0" width="5" height="50"/><rect fill="#606060" x="160" y="0" width="5" height="50"/><rect fill="#e6e6e6" x="165" y="0" width="5" height="50"/><rect fill="#ededed" x="170" y="0" width="5" height="50"/><rect fill="#4a4a4a" x="175" y="0" width="5" height="50"/><rect fill="#eaeaea" x="180" y="0" width="5" height="50"/><rect fill="#484848" x="185" y="0" width="5" height="50"/><rect fill="#007b56" x="190" y="0" width="5" height="50"/><rect fill="#333333" x="195" y="0" width="5" height="50"/><rect fill="#946000" x="200" y="0" width="5" height="50"/><rect fill="#414141" x="205" y="0" width="5" height="50"/><rect fill="#00cbae" x="210" y="0" width="5" height="50"/><rect fill="#e1e1e1" x="215" y="0" width="5" height="50"/><rect fill="#00ffff" x="220" y="0" width="5" height="50"/><rect fill="#ffda34" x="225" y="0" width="5" height="50"/><rect fill="#a59800" x="230" y="0" width="5" height="50"/><rect fill="#955400" x="235" y="0" width="5" height="50"/><rect fill="#ffd251" x="240" y="0" width="5" height="50"/><rect fill="#929292" x="245" y="0" width="5" height="50"/><rect fill="#ffd32c" x="250" y="0" width="5" height="50"/><rect fill="#00ffff" x="255" y="0" width="5" height="50"/><rect fill="#ff7dea" x="260" y="0" width="5" height="50"/><rect fill="#b1b1b1" x="265" y="0" width="5" height="50"/><rect fill="#979797" x="270" y="0" width="5" height="50"/><rect fill="#00ffff" x="275" y="0" width="5" height="50"/><rect fill="#ff66b2" x="280" y="0" width="5" height="50"/><rect fill="#d5a700" x="285" y="0" width="5" height="50"/><rect fill="#e7e7e7" x="290" y="0" width="5" height="50"/><rect fill="#00b5a2" x="295" y="0" width="5" height="50"/><rect fill="#181818" x="300" y="0" width="5" height="50"/><rect fill="#00fcc6" x="305" y="0" width="5" height="50"/><rect fill="#404040" x="310" y="0" width="5" height="50"/><rect fill="#00deab" x="315" y="0" width="5" height="50"/><rect fill="#ff4999" x="320" y="0" width="5" height="50"/><rect fill="#050505" x="325" y="0" width="5" height="50"/><rect fill="#ff6c9a" x="330" y="0" width="5" height="50"/><rect fill="#3b3b3b" x="335" y="0" width="5" height="50"/><rect fill="#ff0074" x="340" y="0" width="5" height="50"/><rect fill="#272727" x="345" y="0" width="5" height="50"/><rect fill="#ff75de" x="350" y="0" width="5" height="50"/><rect fill="#a5a5a5" x="355" y="0" width="5" height="50"/><rect fill="#00afc9" x="360" y="0" width="5" height="50"/><rect fill="#3c3c3c" x="365" y="0" width="5" height="50"/><rect fill="#b84d00" x="370" y="0" width="5" height="50"/><rect fill="#ff61ac" x="375" y="0" width="5" height="50"/><rect fill="#00ffff" x="380" y="0" width="5" height="50"/><rect fill="#242424" x="385" y="0" width="5" height="50"/><rect fill="#ff9c00" x="390" y="0" width="5" height="50"/><rect fill="#444444" x="395" y="0" width="5" height="50"/><rect fill="#00b4ad" x="400" y="0" width="5" height="50"/><rect fill="#ff9dff" x="405" y="0" width="5" height="50"/><rect fill="#ffd425" x="410" y="0" width="5" height="50"/><rect fill="#00fff8" x="415" y="0" width="5" height="50"/><rect fill="#ffbb1a" x="420" y="0" width="5" height="50"/><rect fill="#343434" x="425" y="0" width="5" height="50"/><rect fill="#ff1193" x="430" y="0" width="5" height="50"/><rect fill="#00e3ce" x="435" y="0" width="5" height="50"/><rect fill="#9d9d9d" x="440" y="0" width="5" height="50"/><rect fill="#ff5693" x="445" y="0" width="5" height="50"/><rect fill="#5b5b5b" x="450" y="0" width="5" height="50"/><rect fill="#7d7d7d" x="455" y="0" width="5" height="50"/><rect fill="#00ffff" x="460" y="0" width="5" height="50"/><rect fill="#ff4a83" x="465" y="0" width="5" height="50"/><rect fill="#bebebe" x="470" y="0" width="5" height="50"/><rect fill="#ff2f5c" x="475" y="0" width="5" height="50"/><rect fill="#b28500" x="480" y="0" width="5" height="50"/><rect fill="#707070" x="485" y="0" width="5" height="50"/><rect fill="#00ffd7" x="490" y="0" width="5" height="50"/><rect fill="#898989" x="495" y="0" width="5" height="50"/></g></svg>