<svg version="1.1" xmlns="http://www.w3.org/2000/svg" xmlns:xlink="http://www.w3.org/1999/xlink" width="500" height="50"><g><rect fill="#076742" x="0" y="0" width="5" height="50"/><rect fill="#695b05" x="5" y="0" width="5" height="50"/><rect fill="#693902" x="10" y="0" width="5" height="50"/><rect fill="#026a18" x="15" y="0" width="5" height="50"/><rect fill="#6d5500" x="20" y="0" width="5" height="50"/><rect fill="#086e56" x="25" y="0" width="5" height="50"/><rect fill="#6f4503" x="30" y="0" width="5" height="50"/><rect fill="#705008" x="35" y="0" width="5" height="50"/><rect fill="#713d0b" x="40" y="0" width="5" height="50"/><rect fill="#0b7352" x="45" y="0" width="5" height="50"/><rect fill="#01733c" x="50" y="0" width="5" height="50"/><rect fill="#0b7343" x="55" y="0" width="5" height="50"/><rect fill="#745901" x="60" y="0" width="5" height="50"/><rect fill="#754805" x="65" y="0" width="5" height="50"/><rect fill="#067552" x="70" y="0" width="5" height="50"/><rect fill="#79540a" x="75" y="0" width="5" height="50"/><rect fill="#795508" x="80" y="0" width="5" height="50"/><rect fill="#0c7a42" x="85" y="0" width="5" height="50"/><rect fill="#097b54" x="90" y="0" width="5" height="50"/><rect fill="#7c5209" x="95" y="0" width="5" height="50"/><rect fill="#0c7d22" x="100" y="0" width="5" height="50"/><rect fill="#7f6206" x="105" y="0" width="5" height="50"/><rect fill="#0a823b" x="110" y="0" width="5" height="50"/><rect fill="#0d8245" x="115" y="0" width="5" height="50"/><rect fill="#846807" x="120" y="0" width="5" height="50"/><rect fill="#058647" x="125" y="0" width="5" height="50"/><rect fill="#873d00" x="130" y="0" width="5" height="50"/><rect fill="#01875e" x="135" y="0" width="5" height="50"/><rect fill="#885502" x="140" y="0" width="5" height="50"/><rect fill="#0b8825" x="145" y="0" width="5" height="50"/><rect fill="#898105" x="150" y="0" width="5" height="50"/><rect fill="#89580e" x="155" y="0" width="5" height="50"/><rect fill="#8a4b0a" x="160" y="0" width="5" height="50"/><rect fill="#8b540e" x="165" y="0" width="5" height="50"/><rect fill="#0c8c6b" x="170" y="0" width="5" height="50"/><rect fill="#8d4809" x="175" y="0" width="5" height="50"/><rect fill="#0d904a" x="180" y="0" width="5" height="50"/><rect fill="#069166" x="185" y="0" width="5" height="50"/><rect fill="#916108" x="190" y="0" width="5" height="50"/><rect fill="#0a916b" x="195" y="0" width="5" height="50"/><rect fill="#947f0e" x="200" y="0" width="5" height="50"/><rect fill="#949606" x="205" y="0" width="5" height="50"/><rect fill="#978b09" x="210" y="0" width="5" height="50"/><rect fill="#99860f" x="215" y="0" width="5" height="50"/><rect fill="#079a6e" x="220" y="0" width="5" height="50"/><rect fill="#0d9c53" x="225" y="0" width="5" height="50"/><rect fill="#9e8206" x="230" y="0" width="5" height="50"/><rect fill="#9f8b0c" x="235" y="0" width="5" height="50"/><rect fill="#02a277" x="240" y="0" width="5" height="50"/><rect fill="#a36f0c" x="245" y="0" width="5" height="50"/><rect fill="#09a343" x="250" y="0" width="5" height="50"/><rect fill="#a77d0e" x="255" y="0" width="5" height="50"/><rect fill="#05a971" x="260" y="0" width="5" height="50"/><rect fill="#a97210" x="265" y="0" width="5" height="50"/><rect fill="#06a94a" x="270" y="0" width="5" height="50"/><rect fill="#ac7007" x="275" y="0" width="5" height="50"/><rect fill="#ad660a" x="280" y="0" width="5" height="50"/><rect fill="#11ae79" x="285" y="0" width="5" height="50"/><rect fill="#b08b0a" x="290" y="0" width="5" height="50"/><rect fill="#04b33b" x="295" y="0" width="5" height="50"/><rect fill="#b4960e" x="300" y="0" width="5" height="50"/><rect fill="#00b545" x="305" y="0" width="5" height="50"/><rect fill="#10b53c" x="310" y="0" width="5" height="50"/><rect fill="#b99c0c" x="315" y="0" width="5" height="50"/><rect fill="#ba5101" x="320" y="0" width="5" height="50"/><rect fill="#07bd82" x="325" y="0" width="5" height="50"/><rect fill="#05bd39" x="330" y="0" width="5" height="50"/><rect fill="#bfb603" x="335" y="0" width="5" height="50"/><rect fill="#c07b0a" x="340" y="0" width="5" height="50"/><rect fill="#05c390" x="345" y="0" width="5" height="50"/><rect fill="#11c58b" x="350" y="0" width="5" height="50"/><rect fill="#c68f02" x="355" y="0" width="5" height="50"/><rect fill="#04c679" x="360" y="0" width="5" height="50"/><rect fill="#cdca10" x="365" y="0" width="5" height="50"/><rect fill="#06cf5c" x="370" y="0" width="5" height="50"/><rect fill="#d0a211" x="375" y="0" width="5" height="50"/><rect fill="#11d3a4" x="380" y="0" width="5" height="50"/><rect fill="#03d4a7" x="385" y="0" width="5" height="50"/><rect fill="#d6b512" x="390" y="0" width="5" height="50"/><rect fill="#00d761" x="395" y="0" width="5" height="50"/><rect fill="#03d93b" x="400" y="0" width="5" height="50"/><rect fill="#e0c306" x="405" y="0" width="5" height="50"/><rect fill="#e4ad0a" x="410" y="0" width="5" height="50"/><rect fill="#e59f09" x="415" y="0" width="5" height="50"/><rect fill="#e88708" x="420" y="0" width="5" height="50"/><rect fill="#eae309" x="425" y="0" width="5" height="50"/><rect fill="#07eb95" x="430" y="0" width="5" height="50"/><rect fill="#ecaf0f" x="435" y="0" width="5" height="50"/><rect fill="#17ed7c" x="440" y="0" width="5" height="50"/><rect fill="#0cef5c" x="445" y="0" width="5" height="50"/><rect fill="#f0a20f" x="450" y="0" width="5" height="50"/><rect fill="#f07c16" x="455" y="0" width="5" height="50"/><rect fill="#15f177" x="460" y="0" width="5" height="50"/><rect fill="#f6cf09" x="465" y="0" width="5" height="50"/><rect fill="#0df63d" x="470" y="0" width="5" height="50"/><rect fill="#f8c70e" x="475" y="0" width="5" height="50"/><rect fill="#00fc7a" x="480" y="0" width="5" height="50"/><rect fill="#fc840b" x="485" y="0" width="5" height="50"/><rect fill="#fd8d03" x="490" y="0" width="5" height="50"/><rect fill="#fff404" x="495" y="0" width="5" height="50"/></g></svg>