<svg version="1.1" xmlns="http://www.w3.org/2000/svg" xmlns:xlink="http://www.w3.org/1999/xlink" width="500" height="50"><g><rect fill="#65986f" x="0" y="0" width="5" height="50"/><rect fill="#7baa85" x="5" y="0" width="5" height="50"/><rect fill="#719e7a" x="10" y="0" width="5" height="50"/><rect fill="#4f7156" x="15" y="0" width="5" height="50"/><rect fill="#62906c" x="20" y="0" width="5" height="50"/><rect fill="#3f5744" x="25" y="0" width="5" height="50"/><rect fill="#6b9f77" x="30" y="0" width="5" height="50"/><rect fill="#496751" x="35" y="0" width="5" height="50"/><rect fill="#4a6550" x="40" y="0" width="5" height="50"/><rect fill="#3b5742" x="45" y="0" width="5" height="50"/><rect fill="#567a5f" x="50" y="0" width="5" height="50"/><rect fill="#3f5946" x="55" y="0" width="5" height="50"/><rect fill="#649070" x="60" y="0" width="5" height="50"/><rect fill="#5c8467" x="65" y="0" width="5" height="50"/><rect fill="#739d7f" x="70" y="0" width="5" height="50"/><rect fill="#658b70" x="75" y="0" width="5" height="50"/><rect fill="#668970" x="80" y="0" width="5" height="50"/><rect fill="#3c5945" x="85" y="0" width="5" height="50"/><rect fill="#354f3d" x="90" y="0" width="5" height="50"/><rect fill="#48604f" x="95" y="0" width="5" height="50"/><rect fill="#324d3a" x="100" y="0" width="5" height="50"/><rect fill="#77a385" x="105" y="0" width="5" height="50"/><rect fill="#5d7e67" x="110" y="0" width="5" height="50"/><rect fill="#496652" x="115" y="0" width="5" height="50"/><rect fill="#46614e" x="120" y="0" width="5" height="50"/><rect fill="#558263" x="125" y="0" width="5" height="50"/><rect fill="#4f705a" x="130" y="0" width="5" height="50"/><rect fill="#51765d" x="135" y="0" width="5" height="50"/><rect fill="#7ea98d" x="140" y="0" width="5" height="50"/><rect fill="#77a386" x="145" y="0" width="5" height="50"/><rect fill="#496d56" x="150" y="0" width="5" height="50"/><rect fill="#4b6b56" x="155" y="0" width="5" height="50"/><rect fill="#598268" x="160" y="0" width="5" height="50"/><rect fill="#70ac86" x="165" y="0" width="5" height="50"/><rect fill="#334d3d" x="170" y="0" width="5" height="50"/><rect fill="#537862" x="175" y="0" width="5" height="50"/><rect fill="#40634e" x="180" y="0" width="5" height="50"/><rect fill="#7da78e" x="185" y="0" width="5" height="50"/><rect fill="#52715f" x="190" y="0" width="5" height="50"/><rect fill="#5d8c71" x="195" y="0" width="5" height="50"/><rect fill="#435b4d" x="200" y="0" width="5" height="50"/><rect fill="#344d3f" x="205" y="0" width="5" height="50"/><rect fill="#426451" x="210" y="0" width="5" height="50"/><rect fill="#355142" x="215" y="0" width="5" height="50"/><rect fill="#385646" x="220" y="0" width="5" height="50"/><rect fill="#496c5a" x="225" y="0" width="5" height="50"/><rect fill="#75ac90" x="230" y="0" width="5" height="50"/><rect fill="#6c9a82" x="235" y="0" width="5" height="50"/><rect fill="#5e806f" x="240" y="0" width="5" height="50"/><rect fill="#76af92" x="245" y="0" width="5" height="50"/><rect fill="#3e5d4e" x="250" y="0" width="5" height="50"/><rect fill="#628976" x="255" y="0" width="5" height="50"/><rect fill="#678b7a" x="260" y="0" width="5" height="50"/><rect fill="#83b09b" x="265" y="0" width="5" height="50"/><rect fill="#4c6f5e" x="270" y="0" width="5" height="50"/><rect fill="#426153" x="275" y="0" width="5" height="50"/><rect fill="#608373" x="280" y="0" width="5" height="50"/><rect fill="#4e6d5f" x="285" y="0" width="5" height="50"/><rect fill="#4b695b" x="290" y="0" width="5" height="50"/><rect fill="#66927e" x="295" y="0" width="5" height="50"/><rect fill="#56796a" x="300" y="0" width="5" height="50"/><rect fill="#557c6b" x="305" y="0" width="5" height="50"/><rect fill="#375146" x="310" y="0" width="5" height="50"/><rect fill="#6a9482" x="315" y="0" width="5" height="50"/><rect fill="#496258" x="320" y="0" width="5" height="50"/><rect fill="#3a4d45" x="325" y="0" width="5" height="50"/><rect fill="#638779" x="330" y="0" width="5" height="50"/><rect fill="#69a08a" x="335" y="0" width="5" height="50"/><rect fill="#76af98" x="340" y="0" width="5" height="50"/><rect fill="#608174" x="345" y="0" width="5" height="50"/><rect fill="#416154" x="350" y="0" width="5" height="50"/><rect fill="#7dad9b" x="355" y="0" width="5" height="50"/><rect fill="#517366" x="360" y="0" width="5" height="50"/><rect fill="#619582" x="365" y="0" width="5" height="50"/><rect fill="#374e45" x="370" y="0" width="5" height="50"/><rect fill="#7aa394" x="375" y="0" width="5" height="50"/><rect fill="#5e8779" x="380" y="0" width="5" height="50"/><rect fill="#84b2a2" x="385" y="0" width="5" height="50"/><rect fill="#364d45" x="390" y="0" width="5" height="50"/><rect fill="#4a655c" x="395" y="0" width="5" height="50"/><rect fill="#3c514a" x="400" y="0" width="5" height="50"/><rect fill="#445b54" x="405" y="0" width="5" height="50"/><rect fill="#79b19f" x="410" y="0" width="5" height="50"/><rect fill="#739a8e" x="415" y="0" width="5" height="50"/><rect fill="#6a9185" x="420" y="0" width="5" height="50"/><rect fill="#4b7266" x="425" y="0" width="5" height="50"/><rect fill="#364f48" x="430" y="0" width="5" height="50"/><rect fill="#6a8e83" x="435" y="0" width="5" height="50"/><rect fill="#568377" x="440" y="0" width="5" height="50"/><rect fill="#739e93" x="445" y="0" width="5" height="50"/><rect fill="#6a9c8f" x="450" y="0" width="5" height="50"/><rect fill="#77a498" x="455" y="0" width="5" height="50"/><rect fill="#7eb0a3" x="460" y="0" width="5" height="50"/><rect fill="#406159" x="465" y="0" width="5" height="50"/><rect fill="#4a6a62" x="470" y="0" width="5" height="50"/><rect fill="#4d6d65" x="475" y="0" width="5" height="50"/><rect fill="#3f5c55" x="480" y="0" width="5" height="50"/><rect fill="#6b9c90" x="485" y="0" width="5" height="50"/><rect fill="#6e9a90" x="490" y="0" width="5" height="50"/><rect fill="#56756e" x="495" y="0" width="5" height="50"/></g></svg>