<svg version="1.1" xmlns="http://www.w3.org/2000/svg" xmlns:xlink="http://www.w3.org/1999/xlink" width="500" height="50"><g><rect fill="#330302" x="0" y="0" width="5" height="50"/><rect fill="#3c0d06" x="5" y="0" width="5" height="50"/><rect fill="#602e08" x="10" y="0" width="5" height="50"/><rect fill="#442b0a" x="15" y="0" width="5" height="50"/><rect fill="#5d4219" x="20" y="0" width="5" height="50"/><rect fill="#583806" x="25" y="0" width="5" height="50"/><rect fill="#503c16" x="30" y="0" width="5" height="50"/><rect fill="#45390f" x="35" y="0" width="5" height="50"/><rect fill="#2e2400" x="40" y="0" width="5" height="50"/><rect fill="#61560f" x="45" y="0" width="5" height="50"/><rect fill="#373706" x="50" y="0" width="5" height="50"/><rect fill="#585b07" x="55" y="0" width="5" height="50"/><rect fill="#4a5013" x="60" y="0" width="5" height="50"/><rect fill="#40470a" x="65" y="0" width="5" height="50"/><rect fill="#3d440c" x="70" y="0" width="5" height="50"/><rect fill="#526211" x="75" y="0" width="5" height="50"/><rect fill="#25390c" x="80" y="0" width="5" height="50"/><rect fill="#1b290a" x="85" y="0" width="5" height="50"/><rect fill="#2a3f11" x="90" y="0" width="5" height="50"/><rect fill="#386110" x="95" y="0" width="5" height="50"/><rect fill="#2b4b0d" x="100" y="0" width="5" height="50"/><rect fill="#193207" x="105" y="0" width="5" height="50"/><rect fill="#112f01" x="110" y="0" width="5" height="50"/><rect fill="#285d0c" x="115" y="0" width="5" height="50"/><rect fill="#1e5409" x="120" y="0" width="5" height="50"/><rect fill="#19530b" x="125" y="0" width="5" height="50"/><rect fill="#132e0e" x="130" y="0" width="5" height="50"/><rect fill="#15630b" x="135" y="0" width="5" height="50"/><rect fill="#075b03" x="140" y="0" width="5" height="50"/><rect fill="#0b450e" x="145" y="0" width="5" height="50"/><rect fill="#104c17" x="150" y="0" width="5" height="50"/><rect fill="#103d16" x="155" y="0" width="5" height="50"/><rect fill="#0d611a" x="160" y="0" width="5" height="50"/><rect fill="#186224" x="165" y="0" width="5" height="50"/><rect fill="#06270c" x="170" y="0" width="5" height="50"/><rect fill="#07280f" x="175" y="0" width="5" height="50"/><rect fill="#1a5f30" x="180" y="0" width="5" height="50"/><rect fill="#07411a" x="185" y="0" width="5" height="50"/><rect fill="#105b2a" x="190" y="0" width="5" height="50"/><rect fill="#175631" x="195" y="0" width="5" height="50"/><rect fill="#0c633d" x="200" y="0" width="5" height="50"/><rect fill="#0f3d2a" x="205" y="0" width="5" height="50"/><rect fill="#0a5c3d" x="210" y="0" width="5" height="50"/><rect fill="#0a4733" x="215" y="0" width="5" height="50"/><rect fill="#082a23" x="220" y="0" width="5" height="50"/><rect fill="#092827" x="225" y="0" width="5" height="50"/><rect fill="#033836" x="230" y="0" width="5" height="50"/><rect fill="#082e2f" x="235" y="0" width="5" height="50"/><rect fill="#045a5d" x="240" y="0" width="5" height="50"/><rect fill="#043739" x="245" y="0" width="5" height="50"/><rect fill="#012529" x="250" y="0" width="5" height="50"/><rect fill="#074a53" x="255" y="0" width="5" height="50"/><rect fill="#155465" x="260" y="0" width="5" height="50"/><rect fill="#0d2d3b" x="265" y="0" width="5" height="50"/><rect fill="#164156" x="270" y="0" width="5" height="50"/><rect fill="#113042" x="275" y="0" width="5" height="50"/><rect fill="#021a2b" x="280" y="0" width="5" height="50"/><rect fill="#051727" x="285" y="0" width="5" height="50"/><rect fill="#132f4f" x="290" y="0" width="5" height="50"/><rect fill="#0a2340" x="295" y="0" width="5" height="50"/><rect fill="#09254a" x="300" y="0" width="5" height="50"/><rect fill="#12233b" x="305" y="0" width="5" height="50"/><rect fill="#05152d" x="310" y="0" width="5" height="50"/><rect fill="#06122a" x="315" y="0" width="5" height="50"/><rect fill="#010e29" x="320" y="0" width="5" height="50"/><rect fill="#08183f" x="325" y="0" width="5" height="50"/><rect fill="#131f4c" x="330" y="0" width="5" height="50"/><rect fill="#020b33" x="335" y="0" width="5" height="50"/><rect fill="#010055" x="340" y="0" width="5" height="50"/><rect fill="#09002a" x="345" y="0" width="5" height="50"/><rect fill="#2a1464" x="350" y="0" width="5" height="50"/><rect fill="#2e165b" x="355" y="0" width="5" height="50"/><rect fill="#1a0540" x="360" y="0" width="5" height="50"/><rect fill="#13002d" x="365" y="0" width="5" height="50"/><rect fill="#371654" x="370" y="0" width="5" height="50"/><rect fill="#220b34" x="375" y="0" width="5" height="50"/><rect fill="#360347" x="380" y="0" width="5" height="50"/><rect fill="#430b53" x="385" y="0" width="5" height="50"/><rect fill="#2b0835" x="390" y="0" width="5" height="50"/><rect fill="#570c62" x="395" y="0" width="5" height="50"/><rect fill="#310036" x="400" y="0" width="5" height="50"/><rect fill="#300733" x="405" y="0" width="5" height="50"/><rect fill="#5f1765" x="410" y="0" width="5" height="50"/><rect fill="#300a33" x="415" y="0" width="5" height="50"/><rect fill="#361038" x="420" y="0" width="5" height="50"/><rect fill="#531053" x="425" y="0" width="5" height="50"/><rect fill="#50034f" x="430" y="0" width="5" height="50"/><rect fill="#320d2f" x="435" y="0" width="5" height="50"/><rect fill="#3f093b" x="440" y="0" width="5" height="50"/><rect fill="#5a014e" x="445" y="0" width="5" height="50"/><rect fill="#430138" x="450" y="0" width="5" height="50"/><rect fill="#401037" x="455" y="0" width="5" height="50"/><rect fill="#610e48" x="460" y="0" width="5" height="50"/><rect fill="#5a053e" x="465" y="0" width="5" height="50"/><rect fill="#461031" x="470" y="0" width="5" height="50"/><rect fill="#470a2c" x="475" y="0" width="5" height="50"/><rect fill="#4f0e20" x="480" y="0" width="5" height="50"/><rect fill="#5d0e1e" x="485" y="0" width="5" height="50"/><rect fill="#43080c" x="490" y="0" width="5" height="50"/><rect fill="#391010" x="495" y="0" width="5" height="50"/></g></svg>