<svg version="1.1" xmlns="http://www.w3.org/2000/svg" xmlns:xlink="http://www.w3.org/1999/xlink" width="500" height="50"><g><rect fill="#43dd62" x="0" y="0" width="5" height="50"/><rect fill="#6bf989" x="5" y="0" width="5" height="50"/><rect fill="#43e667" x="10" y="0" width="5" height="50"/><rect fill="#39f663" x="15" y="0" width="5" height="50"/><rect fill="#69f187" x="20" y="0" width="5" height="50"/><rect fill="#61e881" x="25" y="0" width="5" height="50"/><rect fill="#8defa5" x="30" y="0" width="5" height="50"/><rect fill="#2fe65d" x="35" y="0" width="5" height="50"/><rect fill="#5aeb7f" x="40" y="0" width="5" height="50"/><rect fill="#3fcc64" x="45" y="0" width="5" height="50"/><rect fill="#43eb6e" x="50" y="0" width="5" height="50"/><rect fill="#54d074" x="55" y="0" width="5" height="50"/><rect fill="#36fd6b" x="60" y="0" width="5" height="50"/><rect fill="#71f494" x="65" y="0" width="5" height="50"/><rect fill="#85f4a3" x="70" y="0" width="5" height="50"/><rect fill="#4cf57b" x="75" y="0" width="5" height="50"/><rect fill="#4edd7a" x="80" y="0" width="5" height="50"/><rect fill="#6bcd89" x="85" y="0" width="5" height="50"/><rect fill="#65da8b" x="90" y="0" width="5" height="50"/><rect fill="#7cf8a5" x="95" y="0" width="5" height="50"/><rect fill="#3feb78" x="100" y="0" width="5" height="50"/><rect fill="#41d974" x="105" y="0" width="5" height="50"/><rect fill="#69dc8f" x="110" y="0" width="5" height="50"/><rect fill="#8ff2b1" x="115" y="0" width="5" height="50"/><rect fill="#7bd398" x="120" y="0" width="5" height="50"/><rect fill="#4df686" x="125" y="0" width="5" height="50"/><rect fill="#8ef1b0" x="130" y="0" width="5" height="50"/><rect fill="#72de98" x="135" y="0" width="5" height="50"/><rect fill="#3ed476" x="140" y="0" width="5" height="50"/><rect fill="#45d27a" x="145" y="0" width="5" height="50"/><rect fill="#73cd95" x="150" y="0" width="5" height="50"/><rect fill="#5be18d" x="155" y="0" width="5" height="50"/><rect fill="#73eba1" x="160" y="0" width="5" height="50"/><rect fill="#81e0a6" x="165" y="0" width="5" height="50"/><rect fill="#62d28e" x="170" y="0" width="5" height="50"/><rect fill="#4cf990" x="175" y="0" width="5" height="50"/><rect fill="#58d78b" x="180" y="0" width="5" height="50"/><rect fill="#3bda7c" x="185" y="0" width="5" height="50"/><rect fill="#6afea7" x="190" y="0" width="5" height="50"/><rect fill="#52ed92" x="195" y="0" width="5" height="50"/><rect fill="#5dd58f" x="200" y="0" width="5" height="50"/><rect fill="#4acf83" x="205" y="0" width="5" height="50"/><rect fill="#80dfaa" x="210" y="0" width="5" height="50"/><rect fill="#2dd678" x="215" y="0" width="5" height="50"/><rect fill="#6ee6a5" x="220" y="0" width="5" height="50"/><rect fill="#71d7a1" x="225" y="0" width="5" height="50"/><rect fill="#59d796" x="230" y="0" width="5" height="50"/><rect fill="#8ef4c0" x="235" y="0" width="5" height="50"/><rect fill="#79f8b9" x="240" y="0" width="5" height="50"/><rect fill="#58d095" x="245" y="0" width="5" height="50"/><rect fill="#32ee91" x="250" y="0" width="5" height="50"/><rect fill="#3edd90" x="255" y="0" width="5" height="50"/><rect fill="#54e9a2" x="260" y="0" width="5" height="50"/><rect fill="#61e8a8" x="265" y="0" width="5" height="50"/><rect fill="#59d097" x="270" y="0" width="5" height="50"/><rect fill="#3ce092" x="275" y="0" width="5" height="50"/><rect fill="#6bcd9f" x="280" y="0" width="5" height="50"/><rect fill="#77d9ab" x="285" y="0" width="5" height="50"/><rect fill="#58eea7" x="290" y="0" width="5" height="50"/><rect fill="#4acd90" x="295" y="0" width="5" height="50"/><rect fill="#7ce4b4" x="300" y="0" width="5" height="50"/><rect fill="#61fdb7" x="305" y="0" width="5" height="50"/><rect fill="#40dc98" x="310" y="0" width="5" height="50"/><rect fill="#4df3ad" x="315" y="0" width="5" height="50"/><rect fill="#3bf1a5" x="320" y="0" width="5" height="50"/><rect fill="#62e6af" x="325" y="0" width="5" height="50"/><rect fill="#56ecaf" x="330" y="0" width="5" height="50"/><rect fill="#83ddb8" x="335" y="0" width="5" height="50"/><rect fill="#46d99e" x="340" y="0" width="5" height="50"/><rect fill="#4dd29d" x="345" y="0" width="5" height="50"/><rect fill="#80e3bd" x="350" y="0" width="5" height="50"/><rect fill="#35cd94" x="355" y="0" width="5" height="50"/><rect fill="#43d9a1" x="360" y="0" width="5" height="50"/><rect fill="#78eec2" x="365" y="0" width="5" height="50"/><rect fill="#77fbca" x="370" y="0" width="5" height="50"/><rect fill="#33d79b" x="375" y="0" width="5" height="50"/><rect fill="#37d199" x="380" y="0" width="5" height="50"/><rect fill="#66ebbb" x="385" y="0" width="5" height="50"/><rect fill="#44d6a1" x="390" y="0" width="5" height="50"/><rect fill="#73d4b1" x="395" y="0" width="5" height="50"/><rect fill="#7ddcba" x="400" y="0" width="5" height="50"/><rect fill="#32f4b0" x="405" y="0" width="5" height="50"/><rect fill="#56f2bc" x="410" y="0" width="5" height="50"/><rect fill="#42ecb1" x="415" y="0" width="5" height="50"/><rect fill="#41d5a3" x="420" y="0" width="5" height="50"/><rect fill="#76d9b8" x="425" y="0" width="5" height="50"/><rect fill="#5adfb4" x="430" y="0" width="5" height="50"/><rect fill="#7de9c7" x="435" y="0" width="5" height="50"/><rect fill="#6bebc4" x="440" y="0" width="5" height="50"/><rect fill="#2fdeae" x="445" y="0" width="5" height="50"/><rect fill="#53f8cf" x="450" y="0" width="5" height="50"/><rect fill="#66e4c6" x="455" y="0" width="5" height="50"/><rect fill="#2fe9bd" x="460" y="0" width="5" height="50"/><rect fill="#76f6d9" x="465" y="0" width="5" height="50"/><rect fill="#5ce3c4" x="470" y="0" width="5" height="50"/><rect fill="#60cfb6" x="475" y="0" width="5" height="50"/><rect fill="#7af2d7" x="480" y="0" width="5" height="50"/><rect fill="#4de7c4" x="485" y="0" width="5" height="50"/><rect fill="#65f2d4" x="490" y="0" width="5" height="50"/><rect fill="#30dfbb" x="495" y="0" width="5" height="50"/></g></svg>