<svg version="1.1" xmlns="http://www.w3.org/2000/svg" xmlns:xlink="http://www.w3.org/1999/xlink" width="500" height="50"><g><rect fill="#cdfbd6" x="0" y="0" width="5" height="50"/><rect fill="#dcfce3" x="5" y="0" width="5" height="50"/><rect fill="#d7eedc" x="10" y="0" width="5" height="50"/><rect fill="#d8f4de" x="15" y="0" width="5" height="50"/><rect fill="#cdedd4" x="20" y="0" width="5" height="50"/><rect fill="#d5f9de" x="25" y="0" width="5" height="50"/><rect fill="#caeed3" x="30" y="0" width="5" height="50"/><rect fill="#c8e7d0" x="35" y="0" width="5" height="50"/><rect fill="#c5e6cd" x="40" y="0" width="5" height="50"/><rect fill="#d1f3d9" x="45" y="0" width="5" height="50"/><rect fill="#d0fcdb" x="50" y="0" width="5" height="50"/><rect fill="#bfe7c9" x="55" y="0" width="5" height="50"/><rect fill="#e0f1e4" x="60" y="0" width="5" height="50"/><rect fill="#d8fae1" x="65" y="0" width="5" height="50"/><rect fill="#d4eedb" x="70" y="0" width="5" height="50"/><rect fill="#c5efd1" x="75" y="0" width="5" height="50"/><rect fill="#cefedc" x="80" y="0" width="5" height="50"/><rect fill="#e2faea" x="85" y="0" width="5" height="50"/><rect fill="#d8ffe5" x="90" y="0" width="5" height="50"/><rect fill="#e3f0e7" x="95" y="0" width="5" height="50"/><rect fill="#e3ffed" x="100" y="0" width="5" height="50"/><rect fill="#d5ffe4" x="105" y="0" width="5" height="50"/><rect fill="#eaf9ef" x="110" y="0" width="5" height="50"/><rect fill="#d5fde4" x="115" y="0" width="5" height="50"/><rect fill="#d6f4e1" x="120" y="0" width="5" height="50"/><rect fill="#daebe1" x="125" y="0" width="5" height="50"/><rect fill="#d7fbe5" x="130" y="0" width="5" height="50"/><rect fill="#cff7df" x="135" y="0" width="5" height="50"/><rect fill="#caf8dc" x="140" y="0" width="5" height="50"/><rect fill="#ebfbf1" x="145" y="0" width="5" height="50"/><rect fill="#cafadd" x="150" y="0" width="5" height="50"/><rect fill="#d3ebdc" x="155" y="0" width="5" height="50"/><rect fill="#d3f1e0" x="160" y="0" width="5" height="50"/><rect fill="#c5e8d3" x="165" y="0" width="5" height="50"/><rect fill="#e6f5ec" x="170" y="0" width="5" height="50"/><rect fill="#c5f2d8" x="175" y="0" width="5" height="50"/><rect fill="#e9fbf1" x="180" y="0" width="5" height="50"/><rect fill="#d3f1e0" x="185" y="0" width="5" height="50"/><rect fill="#d3f0e0" x="190" y="0" width="5" height="50"/><rect fill="#d1ffe7" x="195" y="0" width="5" height="50"/><rect fill="#d5f3e3" x="200" y="0" width="5" height="50"/><rect fill="#cbf9e1" x="205" y="0" width="5" height="50"/><rect fill="#cef8e2" x="210" y="0" width="5" height="50"/><rect fill="#deeee5" x="215" y="0" width="5" height="50"/><rect fill="#ccf4df" x="220" y="0" width="5" height="50"/><rect fill="#d3f7e5" x="225" y="0" width="5" height="50"/><rect fill="#cdf6e1" x="230" y="0" width="5" height="50"/><rect fill="#daf0e5" x="235" y="0" width="5" height="50"/><rect fill="#beead4" x="240" y="0" width="5" height="50"/><rect fill="#d6f7e7" x="245" y="0" width="5" height="50"/><rect fill="#e1fdef" x="250" y="0" width="5" height="50"/><rect fill="#e0faed" x="255" y="0" width="5" height="50"/><rect fill="#e4f1eb" x="260" y="0" width="5" height="50"/><rect fill="#d3e6dd" x="265" y="0" width="5" height="50"/><rect fill="#dbf0e6" x="270" y="0" width="5" height="50"/><rect fill="#ebfbf4" x="275" y="0" width="5" height="50"/><rect fill="#c7ecda" x="280" y="0" width="5" height="50"/><rect fill="#d9ebe3" x="285" y="0" width="5" height="50"/><rect fill="#d6f1e5" x="290" y="0" width="5" height="50"/><rect fill="#bee9d6" x="295" y="0" width="5" height="50"/><rect fill="#e6f6ef" x="300" y="0" width="5" height="50"/><rect fill="#caedde" x="305" y="0" width="5" height="50"/><rect fill="#e0ede7" x="310" y="0" width="5" height="50"/><rect fill="#dafaec" x="315" y="0" width="5" height="50"/><rect fill="#d8f0e5" x="320" y="0" width="5" height="50"/><rect fill="#d0e9df" x="325" y="0" width="5" height="50"/><rect fill="#e2fcf1" x="330" y="0" width="5" height="50"/><rect fill="#d4eae1" x="335" y="0" width="5" height="50"/><rect fill="#dcf8ed" x="340" y="0" width="5" height="50"/><rect fill="#e0f5ed" x="345" y="0" width="5" height="50"/><rect fill="#bfeedc" x="350" y="0" width="5" height="50"/><rect fill="#defbf0" x="355" y="0" width="5" height="50"/><rect fill="#e8f5f0" x="360" y="0" width="5" height="50"/><rect fill="#cdfdeb" x="365" y="0" width="5" height="50"/><rect fill="#d7fcee" x="370" y="0" width="5" height="50"/><rect fill="#d4e7e1" x="375" y="0" width="5" height="50"/><rect fill="#c5efe0" x="380" y="0" width="5" height="50"/><rect fill="#e6fcf4" x="385" y="0" width="5" height="50"/><rect fill="#e6f8f2" x="390" y="0" width="5" height="50"/><rect fill="#edfbf6" x="395" y="0" width="5" height="50"/><rect fill="#e3f8f1" x="400" y="0" width="5" height="50"/><rect fill="#d0e8e0" x="405" y="0" width="5" height="50"/><rect fill="#cee9e1" x="410" y="0" width="5" height="50"/><rect fill="#ceefe4" x="415" y="0" width="5" height="50"/><rect fill="#e1f0eb" x="420" y="0" width="5" height="50"/><rect fill="#cfefe5" x="425" y="0" width="5" height="50"/><rect fill="#bde9dc" x="430" y="0" width="5" height="50"/><rect fill="#bfebde" x="435" y="0" width="5" height="50"/><rect fill="#d3ede5" x="440" y="0" width="5" height="50"/><rect fill="#c9f1e5" x="445" y="0" width="5" height="50"/><rect fill="#e4fbf5" x="450" y="0" width="5" height="50"/><rect fill="#dff0ec" x="455" y="0" width="5" height="50"/><rect fill="#e5f3ef" x="460" y="0" width="5" height="50"/><rect fill="#cef5ec" x="465" y="0" width="5" height="50"/><rect fill="#ecfcf8" x="470" y="0" width="5" height="50"/><rect fill="#caf5eb" x="475" y="0" width="5" height="50"/><rect fill="#cfece5" x="480" y="0" width="5" height="50"/><rect fill="#e6fef9" x="485" y="0" width="5" height="50"/><rect fill="#dff2ee" x="490" y="0" width="5" height="50"/><rect fill="#cbf7ee" x="495" y="0" width="5" height="50"/></g></svg>