<svg version="1.1" xmlns="http://www.w3.org/2000/svg" xmlns:xlink="http://www.w3.org/1999/xlink" width="500" height="50"><g><rect fill="#ede24f" x="0" y="0" width="5" height="50"/><rect fill="#ffd652" x="5" y="0" width="5" height="50"/><rect fill="#ffb85a" x="10" y="0" width="5" height="50"/><rect fill="#eaba49" x="15" y="0" width="5" height="50"/><rect fill="#ffc441" x="20" y="0" width="5" height="50"/><rect fill="#efd022" x="25" y="0" width="5" height="50"/><rect fill="#ffa948" x="30" y="0" width="5" height="50"/><rect fill="#c9b200" x="35" y="0" width="5" height="50"/><rect fill="#cdb300" x="40" y="0" width="5" height="50"/><rect fill="#fd951d" x="45" y="0" width="5" height="50"/><rect fill="#b4a000" x="50" y="0" width="5" height="50"/><rect fill="#a8a000" x="55" y="0" width="5" height="50"/><rect fill="#aa9400" x="60" y="0" width="5" height="50"/><rect fill="#be7d00" x="65" y="0" width="5" height="50"/><rect fill="#a87800" x="70" y="0" width="5" height="50"/><rect fill="#9f7800" x="75" y="0" width="5" height="50"/><rect fill="#a66500" x="80" y="0" width="5" height="50"/><rect fill="#a25d00" x="85" y="0" width="5" height="50"/><rect fill="#9f5d00" x="90" y="0" width="5" height="50"/><rect fill="#926900" x="95" y="0" width="5" height="50"/><rect fill="#9b5500" x="100" y="0" width="5" height="50"/><rect fill="#736700" x="105" y="0" width="5" height="50"/><rect fill="#00fff1" x="110" y="0" width="5" height="50"/><rect fill="#00ffc1" x="115" y="0" width="5" height="50"/><rect fill="#00f0f2" x="120" y="0" width="5" height="50"/><rect fill="#00f8ff" x="125" y="0" width="5" height="50"/><rect fill="#00dcb1" x="130" y="0" width="5" height="50"/><rect fill="#00e8b3" x="135" y="0" width="5" height="50"/><rect fill="#00f7d9" x="140" y="0" width="5" height="50"/><rect fill="#00cab1" x="145" y="0" width="5" height="50"/><rect fill="#00d3e9" x="150" y="0" width="5" height="50"/><rect fill="#00cfca" x="155" y="0" width="5" height="50"/><rect fill="#00d0d4" x="160" y="0" width="5" height="50"/><rect fill="#00ae8a" x="165" y="0" width="5" height="50"/><rect fill="#00bdac" x="170" y="0" width="5" height="50"/><rect fill="#00acaf" x="175" y="0" width="5" height="50"/><rect fill="#009d84" x="180" y="0" width="5" height="50"/><rect fill="#00a094" x="185" y="0" width="5" height="50"/><rect fill="#0094a2" x="190" y="0" width="5" height="50"/><rect fill="#008984" x="195" y="0" width="5" height="50"/><rect fill="#008d72" x="200" y="0" width="5" height="50"/><rect fill="#007e4c" x="205" y="0" width="5" height="50"/><rect fill="#00817f" x="210" y="0" width="5" height="50"/><rect fill="#007c4c" x="215" y="0" width="5" height="50"/><rect fill="#ffa6de" x="220" y="0" width="5" height="50"/><rect fill="#ff8bc2" x="225" y="0" width="5" height="50"/><rect fill="#ff84c2" x="230" y="0" width="5" height="50"/><rect fill="#ff84b9" x="235" y="0" width="5" height="50"/><rect fill="#ff7ab3" x="240" y="0" width="5" height="50"/><rect fill="#ff74c1" x="245" y="0" width="5" height="50"/><rect fill="#ff737d" x="250" y="0" width="5" height="50"/><rect fill="#ff737c" x="255" y="0" width="5" height="50"/><rect fill="#ff467c" x="260" y="0" width="5" height="50"/><rect fill="#ff37b3" x="265" y="0" width="5" height="50"/><rect fill="#f05662" x="270" y="0" width="5" height="50"/><rect fill="#ed3565" x="275" y="0" width="5" height="50"/><rect fill="#f7226e" x="280" y="0" width="5" height="50"/><rect fill="#fa008f" x="285" y="0" width="5" height="50"/><rect fill="#ee1a7a" x="290" y="0" width="5" height="50"/><rect fill="#ee004e" x="295" y="0" width="5" height="50"/><rect fill="#db006a" x="300" y="0" width="5" height="50"/><rect fill="#c50072" x="305" y="0" width="5" height="50"/><rect fill="#b82b3e" x="310" y="0" width="5" height="50"/><rect fill="#c10074" x="315" y="0" width="5" height="50"/><rect fill="#cd006f" x="320" y="0" width="5" height="50"/><rect fill="#d10070" x="325" y="0" width="5" height="50"/><rect fill="#414141" x="330" y="0" width="5" height="50"/><rect fill="#404040" x="335" y="0" width="5" height="50"/><rect fill="#404040" x="340" y="0" width="5" height="50"/><rect fill="#3c3c3c" x="345" y="0" width="5" height="50"/><rect fill="#3c3c3c" x="350" y="0" width="5" height="50"/><rect fill="#3c3c3c" x="355" y="0" width="5" height="50"/><rect fill="#3a3a3a" x="360" y="0" width="5" height="50"/><rect fill="#363636" x="365" y="0" width="5" height="50"/><rect fill="#353535" x="370" y="0" width="5" height="50"/><rect fill="#313131" x="375" y="0" width="5" height="50"/><rect fill="#313131" x="380" y="0" width="5" height="50"/><rect fill="#f8f8f8" x="385" y="0" width="5" height="50"/><rect fill="#eaeaea" x="390" y="0" width="5" height="50"/><rect fill="#eaeaea" x="395" y="0" width="5" height="50"/><rect fill="#d6d6d6" x="400" y="0" width="5" height="50"/><rect fill="#d1d1d1" x="405" y="0" width="5" height="50"/><rect fill="#c9c9c9" x="410" y="0" width="5" height="50"/><rect fill="#3e3e3e" x="415" y="0" width="5" height="50"/><rect fill="#3b3b3b" x="420" y="0" width="5" height="50"/><rect fill="#3a3a3a" x="425" y="0" width="5" height="50"/><rect fill="#373737" x="430" y="0" width="5" height="50"/><rect fill="#343434" x="435" y="0" width="5" height="50"/><rect fill="#fefefe" x="440" y="0" width="5" height="50"/><rect fill="#f8f8f8" x="445" y="0" width="5" height="50"/><rect fill="#f6f6f6" x="450" y="0" width="5" height="50"/><rect fill="#f2f2f2" x="455" y="0" width="5" height="50"/><rect fill="#f1f1f1" x="460" y="0" width="5" height="50"/><rect fill="#ececec" x="465" y="0" width="5" height="50"/><rect fill="#e3e3e3" x="470" y="0" width="5" height="50"/><rect fill="#d8d8d8" x="475" y="0" width="5" height="50"/><rect fill="#d7d7d7" x="480" y="0" width="5" height="50"/><rect fill="#d4d4d4" x="485" y="0" width="5" height="50"/><rect fill="#d4d4d4" x="490" y="0" width="5" height="50"/></g></svg>