<svg version="1.1" xmlns="http://www.w3.org/2000/svg" xmlns:xlink="http://www.w3.org/1999/xlink" width="500" height="50"><g><rect fill="#ffcd4a" x="0" y="0" width="5" height="50"/><rect fill="#ffd12f" x="5" y="0" width="5" height="50"/><rect fill="#ffdd43" x="10" y="0" width="5" height="50"/><rect fill="#ffd436" x="15" y="0" width="5" height="50"/><rect fill="#ffe400" x="20" y="0" width="5" height="50"/><rect fill="#e9d100" x="25" y="0" width="5" height="50"/><rect fill="#ffaf1f" x="30" y="0" width="5" height="50"/><rect fill="#ddcb00" x="35" y="0" width="5" height="50"/><rect fill="#deba00" x="40" y="0" width="5" height="50"/><rect fill="#fdaf00" x="45" y="0" width="5" height="50"/><rect fill="#c89f00" x="50" y="0" width="5" height="50"/><rect fill="#db8400" x="55" y="0" width="5" height="50"/><rect fill="#b19500" x="60" y="0" width="5" height="50"/><rect fill="#d17400" x="65" y="0" width="5" height="50"/><rect fill="#d56800" x="70" y="0" width="5" height="50"/><rect fill="#aa6800" x="75" y="0" width="5" height="50"/><rect fill="#8b7400" x="80" y="0" width="5" height="50"/><rect fill="#a26500" x="85" y="0" width="5" height="50"/><rect fill="#b65200" x="90" y="0" width="5" height="50"/><rect fill="#797200" x="95" y="0" width="5" height="50"/><rect fill="#866500" x="100" y="0" width="5" height="50"/><rect fill="#855d00" x="105" y="0" width="5" height="50"/><rect fill="#00ffff" x="110" y="0" width="5" height="50"/><rect fill="#00ffe6" x="115" y="0" width="5" height="50"/><rect fill="#00fdbc" x="120" y="0" width="5" height="50"/><rect fill="#00f2fd" x="125" y="0" width="5" height="50"/><rect fill="#00f6c7" x="130" y="0" width="5" height="50"/><rect fill="#00e5b5" x="135" y="0" width="5" height="50"/><rect fill="#00ebb8" x="140" y="0" width="5" height="50"/><rect fill="#00d0b5" x="145" y="0" width="5" height="50"/><rect fill="#00bed9" x="150" y="0" width="5" height="50"/><rect fill="#00bcbd" x="155" y="0" width="5" height="50"/><rect fill="#00bcc4" x="160" y="0" width="5" height="50"/><rect fill="#00a787" x="165" y="0" width="5" height="50"/><rect fill="#00a584" x="170" y="0" width="5" height="50"/><rect fill="#009c74" x="175" y="0" width="5" height="50"/><rect fill="#00979d" x="180" y="0" width="5" height="50"/><rect fill="#009861" x="185" y="0" width="5" height="50"/><rect fill="#009160" x="190" y="0" width="5" height="50"/><rect fill="#0090a8" x="195" y="0" width="5" height="50"/><rect fill="#008057" x="200" y="0" width="5" height="50"/><rect fill="#007d50" x="205" y="0" width="5" height="50"/><rect fill="#007a4a" x="210" y="0" width="5" height="50"/><rect fill="#007c4e" x="215" y="0" width="5" height="50"/><rect fill="#ffaee3" x="220" y="0" width="5" height="50"/><rect fill="#ff9ec4" x="225" y="0" width="5" height="50"/><rect fill="#ff8fc5" x="230" y="0" width="5" height="50"/><rect fill="#ff91a1" x="235" y="0" width="5" height="50"/><rect fill="#ff89bc" x="240" y="0" width="5" height="50"/><rect fill="#ff87c2" x="245" y="0" width="5" height="50"/><rect fill="#ff7dd5" x="250" y="0" width="5" height="50"/><rect fill="#ff6fee" x="255" y="0" width="5" height="50"/><rect fill="#ff6ca0" x="260" y="0" width="5" height="50"/><rect fill="#ff68ab" x="265" y="0" width="5" height="50"/><rect fill="#ff60ac" x="270" y="0" width="5" height="50"/><rect fill="#ff5f8d" x="275" y="0" width="5" height="50"/><rect fill="#ff57c0" x="280" y="0" width="5" height="50"/><rect fill="#ff1ea4" x="285" y="0" width="5" height="50"/><rect fill="#ff0396" x="290" y="0" width="5" height="50"/><rect fill="#ff0897" x="295" y="0" width="5" height="50"/><rect fill="#ff005f" x="300" y="0" width="5" height="50"/><rect fill="#f30084" x="305" y="0" width="5" height="50"/><rect fill="#f5005a" x="310" y="0" width="5" height="50"/><rect fill="#f2005d" x="315" y="0" width="5" height="50"/><rect fill="#ee005a" x="320" y="0" width="5" height="50"/><rect fill="#e10053" x="325" y="0" width="5" height="50"/><rect fill="#ececec" x="330" y="0" width="5" height="50"/><rect fill="#dedede" x="335" y="0" width="5" height="50"/><rect fill="#c5c5c5" x="340" y="0" width="5" height="50"/><rect fill="#b1b1b1" x="345" y="0" width="5" height="50"/><rect fill="#a8a8a8" x="350" y="0" width="5" height="50"/><rect fill="#848484" x="355" y="0" width="5" height="50"/><rect fill="#777777" x="360" y="0" width="5" height="50"/><rect fill="#5e5e5e" x="365" y="0" width="5" height="50"/><rect fill="#535353" x="370" y="0" width="5" height="50"/><rect fill="#202020" x="375" y="0" width="5" height="50"/><rect fill="#1d1d1d" x="380" y="0" width="5" height="50"/><rect fill="#b7b7b7" x="385" y="0" width="5" height="50"/><rect fill="#787878" x="390" y="0" width="5" height="50"/><rect fill="#696969" x="395" y="0" width="5" height="50"/><rect fill="#595959" x="400" y="0" width="5" height="50"/><rect fill="#4a4a4a" x="405" y="0" width="5" height="50"/><rect fill="#464646" x="410" y="0" width="5" height="50"/><rect fill="#2e2e2e" x="415" y="0" width="5" height="50"/><rect fill="#2b2b2b" x="420" y="0" width="5" height="50"/><rect fill="#2a2a2a" x="425" y="0" width="5" height="50"/><rect fill="#252525" x="430" y="0" width="5" height="50"/><rect fill="#202020" x="435" y="0" width="5" height="50"/><rect fill="#d1d1d1" x="440" y="0" width="5" height="50"/><rect fill="#c7c7c7" x="445" y="0" width="5" height="50"/><rect fill="#8c8c8c" x="450" y="0" width="5" height="50"/><rect fill="#6b6b6b" x="455" y="0" width="5" height="50"/><rect fill="#606060" x="460" y="0" width="5" height="50"/><rect fill="#585858" x="465" y="0" width="5" height="50"/><rect fill="#3f3f3f" x="470" y="0" width="5" height="50"/><rect fill="#343434" x="475" y="0" width="5" height="50"/><rect fill="#202020" x="480" y="0" width="5" height="50"/><rect fill="#151515" x="485" y="0" width="5" height="50"/><rect fill="#111111" x="490" y="0" width="5" height="50"/></g></svg>