<svg version="1.1" xmlns="http://www.w3.org/2000/svg" xmlns:xlink="http://www.w3.org/1999/xlink" width="500" height="50"><g><rect fill="#922a23" x="0" y="0" width="5" height="50"/><rect fill="#6f2215" x="5" y="0" width="5" height="50"/><rect fill="#88391e" x="10" y="0" width="5" height="50"/><rect fill="#713816" x="15" y="0" width="5" height="50"/><rect fill="#6b4529" x="20" y="0" width="5" height="50"/><rect fill="#965d24" x="25" y="0" width="5" height="50"/><rect fill="#c47c26" x="30" y="0" width="5" height="50"/><rect fill="#d0923a" x="35" y="0" width="5" height="50"/><rect fill="#b47a24" x="40" y="0" width="5" height="50"/><rect fill="#d4982b" x="45" y="0" width="5" height="50"/><rect fill="#6f5619" x="50" y="0" width="5" height="50"/><rect fill="#827210" x="55" y="0" width="5" height="50"/><rect fill="#d6d32e" x="60" y="0" width="5" height="50"/><rect fill="#92993d" x="65" y="0" width="5" height="50"/><rect fill="#a9b935" x="70" y="0" width="5" height="50"/><rect fill="#b0c53a" x="75" y="0" width="5" height="50"/><rect fill="#c6e426" x="80" y="0" width="5" height="50"/><rect fill="#738223" x="85" y="0" width="5" height="50"/><rect fill="#576b0f" x="90" y="0" width="5" height="50"/><rect fill="#5a6d1e" x="95" y="0" width="5" height="50"/><rect fill="#596c2a" x="100" y="0" width="5" height="50"/><rect fill="#50790c" x="105" y="0" width="5" height="50"/><rect fill="#89d016" x="110" y="0" width="5" height="50"/><rect fill="#76a52e" x="115" y="0" width="5" height="50"/><rect fill="#94dd25" x="120" y="0" width="5" height="50"/><rect fill="#72ab36" x="125" y="0" width="5" height="50"/><rect fill="#5b9024" x="130" y="0" width="5" height="50"/><rect fill="#469113" x="135" y="0" width="5" height="50"/><rect fill="#70d74b" x="140" y="0" width="5" height="50"/><rect fill="#20660b" x="145" y="0" width="5" height="50"/><rect fill="#54a642" x="150" y="0" width="5" height="50"/><rect fill="#4bb537" x="155" y="0" width="5" height="50"/><rect fill="#1d6e15" x="160" y="0" width="5" height="50"/><rect fill="#23df17" x="165" y="0" width="5" height="50"/><rect fill="#32a236" x="170" y="0" width="5" height="50"/><rect fill="#2ac631" x="175" y="0" width="5" height="50"/><rect fill="#27d03a" x="180" y="0" width="5" height="50"/><rect fill="#239738" x="185" y="0" width="5" height="50"/><rect fill="#11a343" x="190" y="0" width="5" height="50"/><rect fill="#2eb05d" x="195" y="0" width="5" height="50"/><rect fill="#24bd6a" x="200" y="0" width="5" height="50"/><rect fill="#1fb067" x="205" y="0" width="5" height="50"/><rect fill="#52e3a4" x="210" y="0" width="5" height="50"/><rect fill="#3aa276" x="215" y="0" width="5" height="50"/><rect fill="#327f6b" x="220" y="0" width="5" height="50"/><rect fill="#25dbad" x="225" y="0" width="5" height="50"/><rect fill="#42ac9e" x="230" y="0" width="5" height="50"/><rect fill="#1c8c7e" x="235" y="0" width="5" height="50"/><rect fill="#1297a7" x="240" y="0" width="5" height="50"/><rect fill="#248999" x="245" y="0" width="5" height="50"/><rect fill="#1e697d" x="250" y="0" width="5" height="50"/><rect fill="#26a1ca" x="255" y="0" width="5" height="50"/><rect fill="#2696bc" x="260" y="0" width="5" height="50"/><rect fill="#1f576f" x="265" y="0" width="5" height="50"/><rect fill="#3e99c2" x="270" y="0" width="5" height="50"/><rect fill="#114c6a" x="275" y="0" width="5" height="50"/><rect fill="#15508b" x="280" y="0" width="5" height="50"/><rect fill="#2e4c7e" x="285" y="0" width="5" height="50"/><rect fill="#2a3d71" x="290" y="0" width="5" height="50"/><rect fill="#1f3ac6" x="295" y="0" width="5" height="50"/><rect fill="#343fcc" x="300" y="0" width="5" height="50"/><rect fill="#353888" x="305" y="0" width="5" height="50"/><rect fill="#3732e4" x="310" y="0" width="5" height="50"/><rect fill="#2513a8" x="315" y="0" width="5" height="50"/><rect fill="#4a369e" x="320" y="0" width="5" height="50"/><rect fill="#371a97" x="325" y="0" width="5" height="50"/><rect fill="#5034ab" x="330" y="0" width="5" height="50"/><rect fill="#422f76" x="335" y="0" width="5" height="50"/><rect fill="#351e6a" x="340" y="0" width="5" height="50"/><rect fill="#764cd4" x="345" y="0" width="5" height="50"/><rect fill="#321274" x="350" y="0" width="5" height="50"/><rect fill="#482194" x="355" y="0" width="5" height="50"/><rect fill="#471f80" x="360" y="0" width="5" height="50"/><rect fill="#4c297d" x="365" y="0" width="5" height="50"/><rect fill="#572b7a" x="370" y="0" width="5" height="50"/><rect fill="#c81dc4" x="375" y="0" width="5" height="50"/><rect fill="#ab1aa0" x="380" y="0" width="5" height="50"/><rect fill="#c81fbc" x="385" y="0" width="5" height="50"/><rect fill="#6f1965" x="390" y="0" width="5" height="50"/><rect fill="#aa2c91" x="395" y="0" width="5" height="50"/><rect fill="#e42fbc" x="400" y="0" width="5" height="50"/><rect fill="#cd35a8" x="405" y="0" width="5" height="50"/><rect fill="#952571" x="410" y="0" width="5" height="50"/><rect fill="#a91b7b" x="415" y="0" width="5" height="50"/><rect fill="#a03f7f" x="420" y="0" width="5" height="50"/><rect fill="#be358e" x="425" y="0" width="5" height="50"/><rect fill="#da2b9c" x="430" y="0" width="5" height="50"/><rect fill="#85215b" x="435" y="0" width="5" height="50"/><rect fill="#c1146b" x="440" y="0" width="5" height="50"/><rect fill="#aa2354" x="445" y="0" width="5" height="50"/><rect fill="#cf3a70" x="450" y="0" width="5" height="50"/><rect fill="#8a2646" x="455" y="0" width="5" height="50"/><rect fill="#cf365f" x="460" y="0" width="5" height="50"/><rect fill="#ab1d3a" x="465" y="0" width="5" height="50"/><rect fill="#953044" x="470" y="0" width="5" height="50"/><rect fill="#cd183a" x="475" y="0" width="5" height="50"/><rect fill="#e52d46" x="480" y="0" width="5" height="50"/><rect fill="#991322" x="485" y="0" width="5" height="50"/><rect fill="#711620" x="490" y="0" width="5" height="50"/><rect fill="#c83338" x="495" y="0" width="5" height="50"/></g></svg>