<svg version="1.1" xmlns="http://www.w3.org/2000/svg" xmlns:xlink="http://www.w3.org/1999/xlink" width="500" height="50"><g><rect fill="#f3dfb2" x="0" y="0" width="5" height="50"/><rect fill="#e0d2aa" x="5" y="0" width="5" height="50"/><rect fill="#ecceaf" x="10" y="0" width="5" height="50"/><rect fill="#eddbac" x="15" y="0" width="5" height="50"/><rect fill="#e6cca7" x="20" y="0" width="5" height="50"/><rect fill="#e2dba5" x="25" y="0" width="5" height="50"/><rect fill="#e9d7a3" x="30" y="0" width="5" height="50"/><rect fill="#ffd7af" x="35" y="0" width="5" height="50"/><rect fill="#e0d59d" x="40" y="0" width="5" height="50"/><rect fill="#edc6a7" x="45" y="0" width="5" height="50"/><rect fill="#d3b994" x="50" y="0" width="5" height="50"/><rect fill="#d6b28d" x="55" y="0" width="5" height="50"/><rect fill="#cbab8c" x="60" y="0" width="5" height="50"/><rect fill="#ccab8a" x="65" y="0" width="5" height="50"/><rect fill="#cdaa84" x="70" y="0" width="5" height="50"/><rect fill="#bdab7f" x="75" y="0" width="5" height="50"/><rect fill="#b6a97f" x="80" y="0" width="5" height="50"/><rect fill="#a49874" x="85" y="0" width="5" height="50"/><rect fill="#a8a06c" x="90" y="0" width="5" height="50"/><rect fill="#a59469" x="95" y="0" width="5" height="50"/><rect fill="#ac8e6b" x="100" y="0" width="5" height="50"/><rect fill="#b38a64" x="105" y="0" width="5" height="50"/><rect fill="#ace6d9" x="110" y="0" width="5" height="50"/><rect fill="#9dd6cd" x="115" y="0" width="5" height="50"/><rect fill="#93ccc6" x="120" y="0" width="5" height="50"/><rect fill="#98e4c9" x="125" y="0" width="5" height="50"/><rect fill="#92cab5" x="130" y="0" width="5" height="50"/><rect fill="#8dc7b3" x="135" y="0" width="5" height="50"/><rect fill="#85ccb8" x="140" y="0" width="5" height="50"/><rect fill="#7ec4bc" x="145" y="0" width="5" height="50"/><rect fill="#85c1ad" x="150" y="0" width="5" height="50"/><rect fill="#79c3b3" x="155" y="0" width="5" height="50"/><rect fill="#71b5b6" x="160" y="0" width="5" height="50"/><rect fill="#6bbdbc" x="165" y="0" width="5" height="50"/><rect fill="#6da9ab" x="170" y="0" width="5" height="50"/><rect fill="#6ab2a6" x="175" y="0" width="5" height="50"/><rect fill="#6aad9f" x="180" y="0" width="5" height="50"/><rect fill="#70a894" x="185" y="0" width="5" height="50"/><rect fill="#67a69f" x="190" y="0" width="5" height="50"/><rect fill="#58a8a9" x="195" y="0" width="5" height="50"/><rect fill="#649d95" x="200" y="0" width="5" height="50"/><rect fill="#5ba291" x="205" y="0" width="5" height="50"/><rect fill="#4ea1a0" x="210" y="0" width="5" height="50"/><rect fill="#5a9f8f" x="215" y="0" width="5" height="50"/><rect fill="#ffd0e4" x="220" y="0" width="5" height="50"/><rect fill="#ffcdd2" x="225" y="0" width="5" height="50"/><rect fill="#efbcca" x="230" y="0" width="5" height="50"/><rect fill="#ffcbd9" x="235" y="0" width="5" height="50"/><rect fill="#e9b2be" x="240" y="0" width="5" height="50"/><rect fill="#fcb8c4" x="245" y="0" width="5" height="50"/><rect fill="#ffbbc1" x="250" y="0" width="5" height="50"/><rect fill="#e6adab" x="255" y="0" width="5" height="50"/><rect fill="#e29da5" x="260" y="0" width="5" height="50"/><rect fill="#d298a4" x="265" y="0" width="5" height="50"/><rect fill="#d698a0" x="270" y="0" width="5" height="50"/><rect fill="#c79397" x="275" y="0" width="5" height="50"/><rect fill="#ca92a9" x="280" y="0" width="5" height="50"/><rect fill="#c58e9a" x="285" y="0" width="5" height="50"/><rect fill="#b9888f" x="290" y="0" width="5" height="50"/><rect fill="#ce8a88" x="295" y="0" width="5" height="50"/><rect fill="#cd898b" x="300" y="0" width="5" height="50"/><rect fill="#c3888c" x="305" y="0" width="5" height="50"/><rect fill="#b88592" x="310" y="0" width="5" height="50"/><rect fill="#bb859a" x="315" y="0" width="5" height="50"/><rect fill="#b48489" x="320" y="0" width="5" height="50"/><rect fill="#b9838e" x="325" y="0" width="5" height="50"/><rect fill="#222222" x="330" y="0" width="5" height="50"/><rect fill="#1f1f1f" x="335" y="0" width="5" height="50"/><rect fill="#1e1e1e" x="340" y="0" width="5" height="50"/><rect fill="#1e1e1e" x="345" y="0" width="5" height="50"/><rect fill="#1a1a1a" x="350" y="0" width="5" height="50"/><rect fill="#171717" x="355" y="0" width="5" height="50"/><rect fill="#171717" x="360" y="0" width="5" height="50"/><rect fill="#161616" x="365" y="0" width="5" height="50"/><rect fill="#161616" x="370" y="0" width="5" height="50"/><rect fill="#151515" x="375" y="0" width="5" height="50"/><rect fill="#121212" x="380" y="0" width="5" height="50"/><rect fill="#dadada" x="385" y="0" width="5" height="50"/><rect fill="#cfcfcf" x="390" y="0" width="5" height="50"/><rect fill="#c7c7c7" x="395" y="0" width="5" height="50"/><rect fill="#bcbcbc" x="400" y="0" width="5" height="50"/><rect fill="#bababa" x="405" y="0" width="5" height="50"/><rect fill="#b5b5b5" x="410" y="0" width="5" height="50"/><rect fill="#212121" x="415" y="0" width="5" height="50"/><rect fill="#1f1f1f" x="420" y="0" width="5" height="50"/><rect fill="#1c1c1c" x="425" y="0" width="5" height="50"/><rect fill="#1c1c1c" x="430" y="0" width="5" height="50"/><rect fill="#151515" x="435" y="0" width="5" height="50"/><rect fill="#cdcdcd" x="440" y="0" width="5" height="50"/><rect fill="#c4c4c4" x="445" y="0" width="5" height="50"/><rect fill="#c3c3c3" x="450" y="0" width="5" height="50"/><rect fill="#bbbbbb" x="455" y="0" width="5" height="50"/><rect fill="#bababa" x="460" y="0" width="5" height="50"/><rect fill="#afafaf" x="465" y="0" width="5" height="50"/><rect fill="#a3a3a3" x="470" y="0" width="5" height="50"/><rect fill="#a1a1a1" x="475" y="0" width="5" height="50"/><rect fill="#9b9b9b" x="480" y="0" width="5" height="50"/><rect fill="#989898" x="485" y="0" width="5" height="50"/><rect fill="#969696" x="490" y="0" width="5" height="50"/></g></svg>