<svg version="1.1" xmlns="http://www.w3.org/2000/svg" xmlns:xlink="http://www.w3.org/1999/xlink" width="500" height="50"><g><rect fill="#e8d8d8" x="0" y="0" width="5" height="50"/><rect fill="#f9cfcc" x="5" y="0" width="5" height="50"/><rect fill="#fcdeda" x="10" y="0" width="5" height="50"/><rect fill="#f3deda" x="15" y="0" width="5" height="50"/><rect fill="#f4dcd8" x="20" y="0" width="5" height="50"/><rect fill="#f8dcd4" x="25" y="0" width="5" height="50"/><rect fill="#feefe3" x="30" y="0" width="5" height="50"/><rect fill="#f2eadf" x="35" y="0" width="5" height="50"/><rect fill="#f8e4c7" x="40" y="0" width="5" height="50"/><rect fill="#f8e9cd" x="45" y="0" width="5" height="50"/><rect fill="#f3ecdf" x="50" y="0" width="5" height="50"/><rect fill="#f9edd6" x="55" y="0" width="5" height="50"/><rect fill="#f7efdd" x="60" y="0" width="5" height="50"/><rect fill="#ece8de" x="65" y="0" width="5" height="50"/><rect fill="#ece9d2" x="70" y="0" width="5" height="50"/><rect fill="#e9e8db" x="75" y="0" width="5" height="50"/><rect fill="#f2f2dd" x="80" y="0" width="5" height="50"/><rect fill="#fdfccf" x="85" y="0" width="5" height="50"/><rect fill="#e8e8db" x="90" y="0" width="5" height="50"/><rect fill="#e7e7c3" x="95" y="0" width="5" height="50"/><rect fill="#e6e9cf" x="100" y="0" width="5" height="50"/><rect fill="#e9f2cf" x="105" y="0" width="5" height="50"/><rect fill="#e6edd4" x="110" y="0" width="5" height="50"/><rect fill="#f4f9ea" x="115" y="0" width="5" height="50"/><rect fill="#edf9dd" x="120" y="0" width="5" height="50"/><rect fill="#eaf4e0" x="125" y="0" width="5" height="50"/><rect fill="#e8f5e0" x="130" y="0" width="5" height="50"/><rect fill="#d4f3c6" x="135" y="0" width="5" height="50"/><rect fill="#cfedc2" x="140" y="0" width="5" height="50"/><rect fill="#ecfbe7" x="145" y="0" width="5" height="50"/><rect fill="#e5f4e3" x="150" y="0" width="5" height="50"/><rect fill="#c2e9c0" x="155" y="0" width="5" height="50"/><rect fill="#d5f8d5" x="160" y="0" width="5" height="50"/><rect fill="#c0ebc5" x="165" y="0" width="5" height="50"/><rect fill="#cef1d2" x="170" y="0" width="5" height="50"/><rect fill="#d9e6dc" x="175" y="0" width="5" height="50"/><rect fill="#c6ebd0" x="180" y="0" width="5" height="50"/><rect fill="#e2f5e7" x="185" y="0" width="5" height="50"/><rect fill="#e6f5ea" x="190" y="0" width="5" height="50"/><rect fill="#e8f6ed" x="195" y="0" width="5" height="50"/><rect fill="#e5fcee" x="200" y="0" width="5" height="50"/><rect fill="#cefee3" x="205" y="0" width="5" height="50"/><rect fill="#c2f1d8" x="210" y="0" width="5" height="50"/><rect fill="#dbf6e7" x="215" y="0" width="5" height="50"/><rect fill="#d9fbea" x="220" y="0" width="5" height="50"/><rect fill="#d7feeb" x="225" y="0" width="5" height="50"/><rect fill="#bbe7d3" x="230" y="0" width="5" height="50"/><rect fill="#e5fcf2" x="235" y="0" width="5" height="50"/><rect fill="#d9f1e7" x="240" y="0" width="5" height="50"/><rect fill="#d3f8e9" x="245" y="0" width="5" height="50"/><rect fill="#ebfdf7" x="250" y="0" width="5" height="50"/><rect fill="#d5eae3" x="255" y="0" width="5" height="50"/><rect fill="#d6fdf1" x="260" y="0" width="5" height="50"/><rect fill="#e1f5f2" x="265" y="0" width="5" height="50"/><rect fill="#c1ebe9" x="270" y="0" width="5" height="50"/><rect fill="#e0f7f8" x="275" y="0" width="5" height="50"/><rect fill="#c4e3e9" x="280" y="0" width="5" height="50"/><rect fill="#d6f0fd" x="285" y="0" width="5" height="50"/><rect fill="#d8e6ed" x="290" y="0" width="5" height="50"/><rect fill="#c9e1ef" x="295" y="0" width="5" height="50"/><rect fill="#e3ebf1" x="300" y="0" width="5" height="50"/><rect fill="#dae3ea" x="305" y="0" width="5" height="50"/><rect fill="#c5d6ea" x="310" y="0" width="5" height="50"/><rect fill="#c9d7f3" x="315" y="0" width="5" height="50"/><rect fill="#eaeffc" x="320" y="0" width="5" height="50"/><rect fill="#ced7ee" x="325" y="0" width="5" height="50"/><rect fill="#cedafc" x="330" y="0" width="5" height="50"/><rect fill="#d3daf8" x="335" y="0" width="5" height="50"/><rect fill="#e0e3fd" x="340" y="0" width="5" height="50"/><rect fill="#d7d9fd" x="345" y="0" width="5" height="50"/><rect fill="#cfd2fe" x="350" y="0" width="5" height="50"/><rect fill="#d3d3e7" x="355" y="0" width="5" height="50"/><rect fill="#e0dbf0" x="360" y="0" width="5" height="50"/><rect fill="#e1d6fc" x="365" y="0" width="5" height="50"/><rect fill="#dbccf6" x="370" y="0" width="5" height="50"/><rect fill="#d3c1f0" x="375" y="0" width="5" height="50"/><rect fill="#e6d9f8" x="380" y="0" width="5" height="50"/><rect fill="#e5cdff" x="385" y="0" width="5" height="50"/><rect fill="#d5c0ea" x="390" y="0" width="5" height="50"/><rect fill="#efdefd" x="395" y="0" width="5" height="50"/><rect fill="#e0cdef" x="400" y="0" width="5" height="50"/><rect fill="#e9e2ef" x="405" y="0" width="5" height="50"/><rect fill="#ebcdf8" x="410" y="0" width="5" height="50"/><rect fill="#eec3e8" x="415" y="0" width="5" height="50"/><rect fill="#e7c3dd" x="420" y="0" width="5" height="50"/><rect fill="#eed4e6" x="425" y="0" width="5" height="50"/><rect fill="#eedce8" x="430" y="0" width="5" height="50"/><rect fill="#f8e4f0" x="435" y="0" width="5" height="50"/><rect fill="#f7eaf2" x="440" y="0" width="5" height="50"/><rect fill="#f5dfec" x="445" y="0" width="5" height="50"/><rect fill="#f3dae6" x="450" y="0" width="5" height="50"/><rect fill="#e6d8de" x="455" y="0" width="5" height="50"/><rect fill="#ecbdcf" x="460" y="0" width="5" height="50"/><rect fill="#f9d6e3" x="465" y="0" width="5" height="50"/><rect fill="#f6d7df" x="470" y="0" width="5" height="50"/><rect fill="#f0c5ce" x="475" y="0" width="5" height="50"/><rect fill="#fad8db" x="480" y="0" width="5" height="50"/><rect fill="#fad0d4" x="485" y="0" width="5" height="50"/><rect fill="#fac8cd" x="490" y="0" width="5" height="50"/><rect fill="#e7d8d9" x="495" y="0" width="5" height="50"/></g></svg>