<svg version="1.1" xmlns="http://www.w3.org/2000/svg" xmlns:xlink="http://www.w3.org/1999/xlink" width="500" height="50"><g><rect fill="#ffd438" x="0" y="0" width="5" height="50"/><rect fill="#ffe143" x="5" y="0" width="5" height="50"/><rect fill="#ffd724" x="10" y="0" width="5" height="50"/><rect fill="#fee300" x="15" y="0" width="5" height="50"/><rect fill="#ffe422" x="20" y="0" width="5" height="50"/><rect fill="#ffd400" x="25" y="0" width="5" height="50"/><rect fill="#ffc800" x="30" y="0" width="5" height="50"/><rect fill="#ffb228" x="35" y="0" width="5" height="50"/><rect fill="#ffcb00" x="40" y="0" width="5" height="50"/><rect fill="#ffb914" x="45" y="0" width="5" height="50"/><rect fill="#ffb200" x="50" y="0" width="5" height="50"/><rect fill="#f8c400" x="55" y="0" width="5" height="50"/><rect fill="#5c4e00" x="60" y="0" width="5" height="50"/><rect fill="#763700" x="65" y="0" width="5" height="50"/><rect fill="#7f2700" x="70" y="0" width="5" height="50"/><rect fill="#7e2600" x="75" y="0" width="5" height="50"/><rect fill="#653300" x="80" y="0" width="5" height="50"/><rect fill="#6b2500" x="85" y="0" width="5" height="50"/><rect fill="#443c00" x="90" y="0" width="5" height="50"/><rect fill="#642600" x="95" y="0" width="5" height="50"/><rect fill="#6f1800" x="100" y="0" width="5" height="50"/><rect fill="#5f1c00" x="105" y="0" width="5" height="50"/><rect fill="#00ffe6" x="110" y="0" width="5" height="50"/><rect fill="#00ffee" x="115" y="0" width="5" height="50"/><rect fill="#00ffff" x="120" y="0" width="5" height="50"/><rect fill="#00ffc4" x="125" y="0" width="5" height="50"/><rect fill="#00ffff" x="130" y="0" width="5" height="50"/><rect fill="#00ffff" x="135" y="0" width="5" height="50"/><rect fill="#00ffe4" x="140" y="0" width="5" height="50"/><rect fill="#00fffc" x="145" y="0" width="5" height="50"/><rect fill="#00ffff" x="150" y="0" width="5" height="50"/><rect fill="#00ffb8" x="155" y="0" width="5" height="50"/><rect fill="#00fff3" x="160" y="0" width="5" height="50"/><rect fill="#00ffee" x="165" y="0" width="5" height="50"/><rect fill="#006783" x="170" y="0" width="5" height="50"/><rect fill="#00644e" x="175" y="0" width="5" height="50"/><rect fill="#006553" x="180" y="0" width="5" height="50"/><rect fill="#00637d" x="185" y="0" width="5" height="50"/><rect fill="#006038" x="190" y="0" width="5" height="50"/><rect fill="#00605b" x="195" y="0" width="5" height="50"/><rect fill="#005434" x="200" y="0" width="5" height="50"/><rect fill="#00524a" x="205" y="0" width="5" height="50"/><rect fill="#004f21" x="210" y="0" width="5" height="50"/><rect fill="#00492e" x="215" y="0" width="5" height="50"/><rect fill="#ff9eff" x="220" y="0" width="5" height="50"/><rect fill="#ff9fff" x="225" y="0" width="5" height="50"/><rect fill="#ffa1ff" x="230" y="0" width="5" height="50"/><rect fill="#ff90bd" x="235" y="0" width="5" height="50"/><rect fill="#ff8cbf" x="240" y="0" width="5" height="50"/><rect fill="#ff9ad5" x="245" y="0" width="5" height="50"/><rect fill="#ff91d7" x="250" y="0" width="5" height="50"/><rect fill="#ff7ac6" x="255" y="0" width="5" height="50"/><rect fill="#ff739f" x="260" y="0" width="5" height="50"/><rect fill="#ff62ba" x="265" y="0" width="5" height="50"/><rect fill="#ff61a0" x="270" y="0" width="5" height="50"/><rect fill="#be0065" x="275" y="0" width="5" height="50"/><rect fill="#be005f" x="280" y="0" width="5" height="50"/><rect fill="#c20031" x="285" y="0" width="5" height="50"/><rect fill="#c20046" x="290" y="0" width="5" height="50"/><rect fill="#b50013" x="295" y="0" width="5" height="50"/><rect fill="#bc003b" x="300" y="0" width="5" height="50"/><rect fill="#af0014" x="305" y="0" width="5" height="50"/><rect fill="#a30045" x="310" y="0" width="5" height="50"/><rect fill="#a2000a" x="315" y="0" width="5" height="50"/><rect fill="#9d002a" x="320" y="0" width="5" height="50"/><rect fill="#96004a" x="325" y="0" width="5" height="50"/><rect fill="#c7c7c7" x="330" y="0" width="5" height="50"/><rect fill="#c7c7c7" x="335" y="0" width="5" height="50"/><rect fill="#b6b6b6" x="340" y="0" width="5" height="50"/><rect fill="#b6b6b6" x="345" y="0" width="5" height="50"/><rect fill="#b4b4b4" x="350" y="0" width="5" height="50"/><rect fill="#9a9a9a" x="355" y="0" width="5" height="50"/><rect fill="#858585" x="360" y="0" width="5" height="50"/><rect fill="#787878" x="365" y="0" width="5" height="50"/><rect fill="#656565" x="370" y="0" width="5" height="50"/><rect fill="#292929" x="375" y="0" width="5" height="50"/><rect fill="#1a1a1a" x="380" y="0" width="5" height="50"/><rect fill="#f2f2f2" x="385" y="0" width="5" height="50"/><rect fill="#e2e2e2" x="390" y="0" width="5" height="50"/><rect fill="#aeaeae" x="395" y="0" width="5" height="50"/><rect fill="#7b7b7b" x="400" y="0" width="5" height="50"/><rect fill="#7a7a7a" x="405" y="0" width="5" height="50"/><rect fill="#494949" x="410" y="0" width="5" height="50"/><rect fill="#474747" x="415" y="0" width="5" height="50"/><rect fill="#343434" x="420" y="0" width="5" height="50"/><rect fill="#282828" x="425" y="0" width="5" height="50"/><rect fill="#262626" x="430" y="0" width="5" height="50"/><rect fill="#161616" x="435" y="0" width="5" height="50"/><rect fill="#e2e2e2" x="440" y="0" width="5" height="50"/><rect fill="#b2b2b2" x="445" y="0" width="5" height="50"/><rect fill="#959595" x="450" y="0" width="5" height="50"/><rect fill="#868686" x="455" y="0" width="5" height="50"/><rect fill="#7a7a7a" x="460" y="0" width="5" height="50"/><rect fill="#767676" x="465" y="0" width="5" height="50"/><rect fill="#535353" x="470" y="0" width="5" height="50"/><rect fill="#3f3f3f" x="475" y="0" width="5" height="50"/><rect fill="#2c2c2c" x="480" y="0" width="5" height="50"/><rect fill="#212121" x="485" y="0" width="5" height="50"/><rect fill="#141414" x="490" y="0" width="5" height="50"/></g></svg>