<svg version="1.1" xmlns="http://www.w3.org/2000/svg" xmlns:xlink="http://www.w3.org/1999/xlink" width="500" height="50"><g><rect fill="#fffb56" x="0" y="0" width="5" height="50"/><rect fill="#ffcf64" x="5" y="0" width="5" height="50"/><rect fill="#ffeb4b" x="10" y="0" width="5" height="50"/><rect fill="#fff842" x="15" y="0" width="5" height="50"/><rect fill="#fffa45" x="20" y="0" width="5" height="50"/><rect fill="#fff94a" x="25" y="0" width="5" height="50"/><rect fill="#faf232" x="30" y="0" width="5" height="50"/><rect fill="#ffc049" x="35" y="0" width="5" height="50"/><rect fill="#ffc252" x="40" y="0" width="5" height="50"/><rect fill="#ffc439" x="45" y="0" width="5" height="50"/><rect fill="#ffce44" x="50" y="0" width="5" height="50"/><rect fill="#ffdd45" x="55" y="0" width="5" height="50"/><rect fill="#ffda34" x="60" y="0" width="5" height="50"/><rect fill="#ffea19" x="65" y="0" width="5" height="50"/><rect fill="#ffe600" x="70" y="0" width="5" height="50"/><rect fill="#ffe634" x="75" y="0" width="5" height="50"/><rect fill="#f6e500" x="80" y="0" width="5" height="50"/><rect fill="#ffc330" x="85" y="0" width="5" height="50"/><rect fill="#ffbc22" x="90" y="0" width="5" height="50"/><rect fill="#efd200" x="95" y="0" width="5" height="50"/><rect fill="#ffc10e" x="100" y="0" width="5" height="50"/><rect fill="#e5c500" x="105" y="0" width="5" height="50"/><rect fill="#00ffff" x="110" y="0" width="5" height="50"/><rect fill="#00fffc" x="115" y="0" width="5" height="50"/><rect fill="#00ffff" x="120" y="0" width="5" height="50"/><rect fill="#00ffff" x="125" y="0" width="5" height="50"/><rect fill="#00ffe1" x="130" y="0" width="5" height="50"/><rect fill="#00ffff" x="135" y="0" width="5" height="50"/><rect fill="#00fff7" x="140" y="0" width="5" height="50"/><rect fill="#00ffec" x="145" y="0" width="5" height="50"/><rect fill="#00ffd9" x="150" y="0" width="5" height="50"/><rect fill="#00fff8" x="155" y="0" width="5" height="50"/><rect fill="#00fff7" x="160" y="0" width="5" height="50"/><rect fill="#00ffff" x="165" y="0" width="5" height="50"/><rect fill="#00ffc3" x="170" y="0" width="5" height="50"/><rect fill="#00ffcc" x="175" y="0" width="5" height="50"/><rect fill="#00f4ce" x="180" y="0" width="5" height="50"/><rect fill="#00ffe4" x="185" y="0" width="5" height="50"/><rect fill="#00ffdc" x="190" y="0" width="5" height="50"/><rect fill="#00eaa8" x="195" y="0" width="5" height="50"/><rect fill="#00eea7" x="200" y="0" width="5" height="50"/><rect fill="#00fab1" x="205" y="0" width="5" height="50"/><rect fill="#00f5bd" x="210" y="0" width="5" height="50"/><rect fill="#00f1fe" x="215" y="0" width="5" height="50"/><rect fill="#ffb5d3" x="220" y="0" width="5" height="50"/><rect fill="#ffc0c2" x="225" y="0" width="5" height="50"/><rect fill="#ffb8d0" x="230" y="0" width="5" height="50"/><rect fill="#ffa1df" x="235" y="0" width="5" height="50"/><rect fill="#ffb1c8" x="240" y="0" width="5" height="50"/><rect fill="#ff9ca6" x="245" y="0" width="5" height="50"/><rect fill="#ff9caf" x="250" y="0" width="5" height="50"/><rect fill="#ff9fba" x="255" y="0" width="5" height="50"/><rect fill="#ffafb3" x="260" y="0" width="5" height="50"/><rect fill="#ffa0fe" x="265" y="0" width="5" height="50"/><rect fill="#ff8eab" x="270" y="0" width="5" height="50"/><rect fill="#ff8adf" x="275" y="0" width="5" height="50"/><rect fill="#ff8be9" x="280" y="0" width="5" height="50"/><rect fill="#ff8feb" x="285" y="0" width="5" height="50"/><rect fill="#ff85c9" x="290" y="0" width="5" height="50"/><rect fill="#ff81d5" x="295" y="0" width="5" height="50"/><rect fill="#ff8694" x="300" y="0" width="5" height="50"/><rect fill="#ff8492" x="305" y="0" width="5" height="50"/><rect fill="#ff78e4" x="310" y="0" width="5" height="50"/><rect fill="#ff78ce" x="315" y="0" width="5" height="50"/><rect fill="#ff6ed1" x="320" y="0" width="5" height="50"/><rect fill="#ff6ea7" x="325" y="0" width="5" height="50"/><rect fill="#c7c7c7" x="330" y="0" width="5" height="50"/><rect fill="#989898" x="335" y="0" width="5" height="50"/><rect fill="#8f8f8f" x="340" y="0" width="5" height="50"/><rect fill="#747474" x="345" y="0" width="5" height="50"/><rect fill="#707070" x="350" y="0" width="5" height="50"/><rect fill="#6a6a6a" x="355" y="0" width="5" height="50"/><rect fill="#636363" x="360" y="0" width="5" height="50"/><rect fill="#484848" x="365" y="0" width="5" height="50"/><rect fill="#333333" x="370" y="0" width="5" height="50"/><rect fill="#2b2b2b" x="375" y="0" width="5" height="50"/><rect fill="#0a0a0a" x="380" y="0" width="5" height="50"/><rect fill="#f0f0f0" x="385" y="0" width="5" height="50"/><rect fill="#bbbbbb" x="390" y="0" width="5" height="50"/><rect fill="#a0a0a0" x="395" y="0" width="5" height="50"/><rect fill="#9f9f9f" x="400" y="0" width="5" height="50"/><rect fill="#7f7f7f" x="405" y="0" width="5" height="50"/><rect fill="#707070" x="410" y="0" width="5" height="50"/><rect fill="#6e6e6e" x="415" y="0" width="5" height="50"/><rect fill="#656565" x="420" y="0" width="5" height="50"/><rect fill="#5a5a5a" x="425" y="0" width="5" height="50"/><rect fill="#424242" x="430" y="0" width="5" height="50"/><rect fill="#2e2e2e" x="435" y="0" width="5" height="50"/><rect fill="#fefefe" x="440" y="0" width="5" height="50"/><rect fill="#f2f2f2" x="445" y="0" width="5" height="50"/><rect fill="#dedede" x="450" y="0" width="5" height="50"/><rect fill="#dbdbdb" x="455" y="0" width="5" height="50"/><rect fill="#ababab" x="460" y="0" width="5" height="50"/><rect fill="#8e8e8e" x="465" y="0" width="5" height="50"/><rect fill="#787878" x="470" y="0" width="5" height="50"/><rect fill="#5d5d5d" x="475" y="0" width="5" height="50"/><rect fill="#5d5d5d" x="480" y="0" width="5" height="50"/><rect fill="#5c5c5c" x="485" y="0" width="5" height="50"/><rect fill="#3c3c3c" x="490" y="0" width="5" height="50"/></g></svg>