<svg version="1.1" xmlns="http://www.w3.org/2000/svg" xmlns:xlink="http://www.w3.org/1999/xlink" width="500" height="50"><g><rect fill="#663d16" x="0" y="0" width="5" height="50"/><rect fill="#696226" x="5" y="0" width="5" height="50"/><rect fill="#69672a" x="10" y="0" width="5" height="50"/><rect fill="#6b5e1c" x="15" y="0" width="5" height="50"/><rect fill="#246b48" x="20" y="0" width="5" height="50"/><rect fill="#6e3a0e" x="25" y="0" width="5" height="50"/><rect fill="#717117" x="30" y="0" width="5" height="50"/><rect fill="#14725d" x="35" y="0" width="5" height="50"/><rect fill="#177343" x="40" y="0" width="5" height="50"/><rect fill="#754620" x="45" y="0" width="5" height="50"/><rect fill="#787018" x="50" y="0" width="5" height="50"/><rect fill="#794214" x="55" y="0" width="5" height="50"/><rect fill="#19793a" x="60" y="0" width="5" height="50"/><rect fill="#2c7a5f" x="65" y="0" width="5" height="50"/><rect fill="#267c4a" x="70" y="0" width="5" height="50"/><rect fill="#7d5f2b" x="75" y="0" width="5" height="50"/><rect fill="#7e5114" x="80" y="0" width="5" height="50"/><rect fill="#7e7d15" x="85" y="0" width="5" height="50"/><rect fill="#207f63" x="90" y="0" width="5" height="50"/><rect fill="#25824e" x="95" y="0" width="5" height="50"/><rect fill="#178334" x="100" y="0" width="5" height="50"/><rect fill="#83741d" x="105" y="0" width="5" height="50"/><rect fill="#188638" x="110" y="0" width="5" height="50"/><rect fill="#866313" x="115" y="0" width="5" height="50"/><rect fill="#86542a" x="120" y="0" width="5" height="50"/><rect fill="#876221" x="125" y="0" width="5" height="50"/><rect fill="#19886c" x="130" y="0" width="5" height="50"/><rect fill="#8b6116" x="135" y="0" width="5" height="50"/><rect fill="#8b8a21" x="140" y="0" width="5" height="50"/><rect fill="#916d2e" x="145" y="0" width="5" height="50"/><rect fill="#129234" x="150" y="0" width="5" height="50"/><rect fill="#229371" x="155" y="0" width="5" height="50"/><rect fill="#1d9377" x="160" y="0" width="5" height="50"/><rect fill="#1b9451" x="165" y="0" width="5" height="50"/><rect fill="#10953f" x="170" y="0" width="5" height="50"/><rect fill="#399576" x="175" y="0" width="5" height="50"/><rect fill="#169832" x="180" y="0" width="5" height="50"/><rect fill="#989821" x="185" y="0" width="5" height="50"/><rect fill="#1a9b61" x="190" y="0" width="5" height="50"/><rect fill="#149c67" x="195" y="0" width="5" height="50"/><rect fill="#129d70" x="200" y="0" width="5" height="50"/><rect fill="#9e5710" x="205" y="0" width="5" height="50"/><rect fill="#209f4b" x="210" y="0" width="5" height="50"/><rect fill="#a09119" x="215" y="0" width="5" height="50"/><rect fill="#a08f21" x="220" y="0" width="5" height="50"/><rect fill="#a09d39" x="225" y="0" width="5" height="50"/><rect fill="#a2531b" x="230" y="0" width="5" height="50"/><rect fill="#a36d3f" x="235" y="0" width="5" height="50"/><rect fill="#16a433" x="240" y="0" width="5" height="50"/><rect fill="#2aa55c" x="245" y="0" width="5" height="50"/><rect fill="#ac7e19" x="250" y="0" width="5" height="50"/><rect fill="#30ad8a" x="255" y="0" width="5" height="50"/><rect fill="#21ad40" x="260" y="0" width="5" height="50"/><rect fill="#ae9e34" x="265" y="0" width="5" height="50"/><rect fill="#3ab084" x="270" y="0" width="5" height="50"/><rect fill="#b19f42" x="275" y="0" width="5" height="50"/><rect fill="#b18316" x="280" y="0" width="5" height="50"/><rect fill="#b29342" x="285" y="0" width="5" height="50"/><rect fill="#18b458" x="290" y="0" width="5" height="50"/><rect fill="#b58e18" x="295" y="0" width="5" height="50"/><rect fill="#18b579" x="300" y="0" width="5" height="50"/><rect fill="#19b65f" x="305" y="0" width="5" height="50"/><rect fill="#2bb664" x="310" y="0" width="5" height="50"/><rect fill="#b77644" x="315" y="0" width="5" height="50"/><rect fill="#b9ab1d" x="320" y="0" width="5" height="50"/><rect fill="#1fba4b" x="325" y="0" width="5" height="50"/><rect fill="#ba7e1d" x="330" y="0" width="5" height="50"/><rect fill="#bb9439" x="335" y="0" width="5" height="50"/><rect fill="#24bb70" x="340" y="0" width="5" height="50"/><rect fill="#bc7b4b" x="345" y="0" width="5" height="50"/><rect fill="#bd7122" x="350" y="0" width="5" height="50"/><rect fill="#48c088" x="355" y="0" width="5" height="50"/><rect fill="#27c061" x="360" y="0" width="5" height="50"/><rect fill="#1bc092" x="365" y="0" width="5" height="50"/><rect fill="#c2984b" x="370" y="0" width="5" height="50"/><rect fill="#1dc47d" x="375" y="0" width="5" height="50"/><rect fill="#3bc58b" x="380" y="0" width="5" height="50"/><rect fill="#2dc672" x="385" y="0" width="5" height="50"/><rect fill="#38c86e" x="390" y="0" width="5" height="50"/><rect fill="#ca7c33" x="395" y="0" width="5" height="50"/><rect fill="#3aca88" x="400" y="0" width="5" height="50"/><rect fill="#ccb931" x="405" y="0" width="5" height="50"/><rect fill="#2dcfad" x="410" y="0" width="5" height="50"/><rect fill="#38cf6f" x="415" y="0" width="5" height="50"/><rect fill="#d06e1a" x="420" y="0" width="5" height="50"/><rect fill="#45d27b" x="425" y="0" width="5" height="50"/><rect fill="#3ad26b" x="430" y="0" width="5" height="50"/><rect fill="#d39550" x="435" y="0" width="5" height="50"/><rect fill="#d4822c" x="440" y="0" width="5" height="50"/><rect fill="#d88e2e" x="445" y="0" width="5" height="50"/><rect fill="#db8e3d" x="450" y="0" width="5" height="50"/><rect fill="#51dd7c" x="455" y="0" width="5" height="50"/><rect fill="#57debe" x="460" y="0" width="5" height="50"/><rect fill="#dfc02a" x="465" y="0" width="5" height="50"/><rect fill="#4fe188" x="470" y="0" width="5" height="50"/><rect fill="#56e3b7" x="475" y="0" width="5" height="50"/><rect fill="#3de38f" x="480" y="0" width="5" height="50"/><rect fill="#e3b730" x="485" y="0" width="5" height="50"/><rect fill="#3de3bb" x="490" y="0" width="5" height="50"/><rect fill="#32e475" x="495" y="0" width="5" height="50"/></g></svg>