<svg version="1.1" xmlns="http://www.w3.org/2000/svg" xmlns:xlink="http://www.w3.org/1999/xlink" width="500" height="50"><g><rect fill="#ae7373" x="0" y="0" width="5" height="50"/><rect fill="#e4e4e4" x="5" y="0" width="5" height="50"/><rect fill="#7d5d3d" x="10" y="0" width="5" height="50"/><rect fill="#3c3c3c" x="15" y="0" width="5" height="50"/><rect fill="#b0a063" x="20" y="0" width="5" height="50"/><rect fill="#4cafa1" x="25" y="0" width="5" height="50"/><rect fill="#359d96" x="30" y="0" width="5" height="50"/><rect fill="#464646" x="35" y="0" width="5" height="50"/><rect fill="#f4f4f4" x="40" y="0" width="5" height="50"/><rect fill="#8f7550" x="45" y="0" width="5" height="50"/><rect fill="#eeeeee" x="50" y="0" width="5" height="50"/><rect fill="#297c6e" x="55" y="0" width="5" height="50"/><rect fill="#a3657d" x="60" y="0" width="5" height="50"/><rect fill="#404040" x="65" y="0" width="5" height="50"/><rect fill="#117c63" x="70" y="0" width="5" height="50"/><rect fill="#4b4b4b" x="75" y="0" width="5" height="50"/><rect fill="#aea26d" x="80" y="0" width="5" height="50"/><rect fill="#7a3d48" x="85" y="0" width="5" height="50"/><rect fill="#3e3e3e" x="90" y="0" width="5" height="50"/><rect fill="#5c5c5c" x="95" y="0" width="5" height="50"/><rect fill="#e0969c" x="100" y="0" width="5" height="50"/><rect fill="#b0a369" x="105" y="0" width="5" height="50"/><rect fill="#434343" x="110" y="0" width="5" height="50"/><rect fill="#00706e" x="115" y="0" width="5" height="50"/><rect fill="#8b5069" x="120" y="0" width="5" height="50"/><rect fill="#a2744c" x="125" y="0" width="5" height="50"/><rect fill="#414141" x="130" y="0" width="5" height="50"/><rect fill="#555555" x="135" y="0" width="5" height="50"/><rect fill="#62b7a7" x="140" y="0" width="5" height="50"/><rect fill="#a46062" x="145" y="0" width="5" height="50"/><rect fill="#515151" x="150" y="0" width="5" height="50"/><rect fill="#505050" x="155" y="0" width="5" height="50"/><rect fill="#565656" x="160" y="0" width="5" height="50"/><rect fill="#967955" x="165" y="0" width="5" height="50"/><rect fill="#3b3b3b" x="170" y="0" width="5" height="50"/><rect fill="#2a6e5b" x="175" y="0" width="5" height="50"/><rect fill="#005a57" x="180" y="0" width="5" height="50"/><rect fill="#4c4c4c" x="185" y="0" width="5" height="50"/><rect fill="#3d3d3d" x="190" y="0" width="5" height="50"/><rect fill="#5c441f" x="195" y="0" width="5" height="50"/><rect fill="#a28158" x="200" y="0" width="5" height="50"/><rect fill="#886d3d" x="205" y="0" width="5" height="50"/><rect fill="#57b09e" x="210" y="0" width="5" height="50"/><rect fill="#a6647a" x="215" y="0" width="5" height="50"/><rect fill="#399297" x="220" y="0" width="5" height="50"/><rect fill="#5a5a5a" x="225" y="0" width="5" height="50"/><rect fill="#505050" x="230" y="0" width="5" height="50"/><rect fill="#509b85" x="235" y="0" width="5" height="50"/><rect fill="#61b9a7" x="240" y="0" width="5" height="50"/><rect fill="#776d39" x="245" y="0" width="5" height="50"/><rect fill="#db8da7" x="250" y="0" width="5" height="50"/><rect fill="#af6079" x="255" y="0" width="5" height="50"/><rect fill="#005d57" x="260" y="0" width="5" height="50"/><rect fill="#087272" x="265" y="0" width="5" height="50"/><rect fill="#98506a" x="270" y="0" width="5" height="50"/><rect fill="#d586a9" x="275" y="0" width="5" height="50"/><rect fill="#404040" x="280" y="0" width="5" height="50"/><rect fill="#ebebeb" x="285" y="0" width="5" height="50"/><rect fill="#f7f7f7" x="290" y="0" width="5" height="50"/><rect fill="#cf7f92" x="295" y="0" width="5" height="50"/><rect fill="#585858" x="300" y="0" width="5" height="50"/><rect fill="#f8f8f8" x="305" y="0" width="5" height="50"/><rect fill="#404040" x="310" y="0" width="5" height="50"/><rect fill="#c3848f" x="315" y="0" width="5" height="50"/><rect fill="#e6e6e6" x="320" y="0" width="5" height="50"/><rect fill="#f4f4f4" x="325" y="0" width="5" height="50"/><rect fill="#b87b80" x="330" y="0" width="5" height="50"/><rect fill="#6eb8b1" x="335" y="0" width="5" height="50"/><rect fill="#fbfbfb" x="340" y="0" width="5" height="50"/><rect fill="#005853" x="345" y="0" width="5" height="50"/><rect fill="#005957" x="350" y="0" width="5" height="50"/><rect fill="#298174" x="355" y="0" width="5" height="50"/><rect fill="#377a69" x="360" y="0" width="5" height="50"/><rect fill="#846b3b" x="365" y="0" width="5" height="50"/><rect fill="#555555" x="370" y="0" width="5" height="50"/><rect fill="#b4748a" x="375" y="0" width="5" height="50"/><rect fill="#7f3b58" x="380" y="0" width="5" height="50"/><rect fill="#f3f3f3" x="385" y="0" width="5" height="50"/><rect fill="#4ea29c" x="390" y="0" width="5" height="50"/><rect fill="#ebebeb" x="395" y="0" width="5" height="50"/><rect fill="#5b5b5b" x="400" y="0" width="5" height="50"/><rect fill="#c6758f" x="405" y="0" width="5" height="50"/><rect fill="#5a5a5a" x="410" y="0" width="5" height="50"/><rect fill="#43a493" x="415" y="0" width="5" height="50"/><rect fill="#494949" x="420" y="0" width="5" height="50"/><rect fill="#645e32" x="425" y="0" width="5" height="50"/><rect fill="#555555" x="430" y="0" width="5" height="50"/><rect fill="#f9f9f9" x="435" y="0" width="5" height="50"/><rect fill="#545454" x="440" y="0" width="5" height="50"/><rect fill="#4d4d4d" x="445" y="0" width="5" height="50"/><rect fill="#ba8094" x="450" y="0" width="5" height="50"/><rect fill="#00645f" x="455" y="0" width="5" height="50"/><rect fill="#559982" x="460" y="0" width="5" height="50"/><rect fill="#a27e58" x="465" y="0" width="5" height="50"/><rect fill="#5f4320" x="470" y="0" width="5" height="50"/><rect fill="#005f63" x="475" y="0" width="5" height="50"/><rect fill="#474747" x="480" y="0" width="5" height="50"/><rect fill="#e6e6e6" x="485" y="0" width="5" height="50"/><rect fill="#d191a4" x="490" y="0" width="5" height="50"/><rect fill="#539d89" x="495" y="0" width="5" height="50"/></g></svg>