<svg version="1.1" xmlns="http://www.w3.org/2000/svg" xmlns:xlink="http://www.w3.org/1999/xlink" width="500" height="50"><g><rect fill="#ffedc0" x="0" y="0" width="5" height="50"/><rect fill="#ffdfa8" x="5" y="0" width="5" height="50"/><rect fill="#ffefaf" x="10" y="0" width="5" height="50"/><rect fill="#fff7b0" x="15" y="0" width="5" height="50"/><rect fill="#ffe7ac" x="20" y="0" width="5" height="50"/><rect fill="#fdeba5" x="25" y="0" width="5" height="50"/><rect fill="#fff3ab" x="30" y="0" width="5" height="50"/><rect fill="#ffffb1" x="35" y="0" width="5" height="50"/><rect fill="#fff2b1" x="40" y="0" width="5" height="50"/><rect fill="#ffdf9b" x="45" y="0" width="5" height="50"/><rect fill="#fff0a8" x="50" y="0" width="5" height="50"/><rect fill="#ffe594" x="55" y="0" width="5" height="50"/><rect fill="#ffebab" x="60" y="0" width="5" height="50"/><rect fill="#ffec92" x="65" y="0" width="5" height="50"/><rect fill="#ffeea9" x="70" y="0" width="5" height="50"/><rect fill="#fff899" x="75" y="0" width="5" height="50"/><rect fill="#ffe38b" x="80" y="0" width="5" height="50"/><rect fill="#fff293" x="85" y="0" width="5" height="50"/><rect fill="#ffed87" x="90" y="0" width="5" height="50"/><rect fill="#ffe77c" x="95" y="0" width="5" height="50"/><rect fill="#ffd48a" x="100" y="0" width="5" height="50"/><rect fill="#fff97e" x="105" y="0" width="5" height="50"/><rect fill="#a6ffff" x="110" y="0" width="5" height="50"/><rect fill="#a7ffff" x="115" y="0" width="5" height="50"/><rect fill="#acfff8" x="120" y="0" width="5" height="50"/><rect fill="#affff6" x="125" y="0" width="5" height="50"/><rect fill="#9ffff7" x="130" y="0" width="5" height="50"/><rect fill="#97ffff" x="135" y="0" width="5" height="50"/><rect fill="#90fffe" x="140" y="0" width="5" height="50"/><rect fill="#8afef9" x="145" y="0" width="5" height="50"/><rect fill="#9dffde" x="150" y="0" width="5" height="50"/><rect fill="#94ffe8" x="155" y="0" width="5" height="50"/><rect fill="#72ffff" x="160" y="0" width="5" height="50"/><rect fill="#90ffe2" x="165" y="0" width="5" height="50"/><rect fill="#73ffff" x="170" y="0" width="5" height="50"/><rect fill="#88ffe7" x="175" y="0" width="5" height="50"/><rect fill="#6efff7" x="180" y="0" width="5" height="50"/><rect fill="#77ffde" x="185" y="0" width="5" height="50"/><rect fill="#5afafb" x="190" y="0" width="5" height="50"/><rect fill="#19ffff" x="195" y="0" width="5" height="50"/><rect fill="#48fff3" x="200" y="0" width="5" height="50"/><rect fill="#00ffee" x="205" y="0" width="5" height="50"/><rect fill="#00ffff" x="210" y="0" width="5" height="50"/><rect fill="#00fff3" x="215" y="0" width="5" height="50"/><rect fill="#ffd1cd" x="220" y="0" width="5" height="50"/><rect fill="#ffe7ff" x="225" y="0" width="5" height="50"/><rect fill="#ffdafe" x="230" y="0" width="5" height="50"/><rect fill="#ffdfed" x="235" y="0" width="5" height="50"/><rect fill="#ffcee9" x="240" y="0" width="5" height="50"/><rect fill="#ffd7fc" x="245" y="0" width="5" height="50"/><rect fill="#ffcce0" x="250" y="0" width="5" height="50"/><rect fill="#ffc5d1" x="255" y="0" width="5" height="50"/><rect fill="#ffd5ec" x="260" y="0" width="5" height="50"/><rect fill="#ffd3d5" x="265" y="0" width="5" height="50"/><rect fill="#ffc0c1" x="270" y="0" width="5" height="50"/><rect fill="#ffc7ff" x="275" y="0" width="5" height="50"/><rect fill="#ffbffe" x="280" y="0" width="5" height="50"/><rect fill="#ffb7cf" x="285" y="0" width="5" height="50"/><rect fill="#ffc8f4" x="290" y="0" width="5" height="50"/><rect fill="#ffb6bc" x="295" y="0" width="5" height="50"/><rect fill="#ffc3fe" x="300" y="0" width="5" height="50"/><rect fill="#ffbdf5" x="305" y="0" width="5" height="50"/><rect fill="#ffb8f2" x="310" y="0" width="5" height="50"/><rect fill="#ffbdce" x="315" y="0" width="5" height="50"/><rect fill="#ffb5cc" x="320" y="0" width="5" height="50"/><rect fill="#ffacc8" x="325" y="0" width="5" height="50"/><rect fill="#767676" x="330" y="0" width="5" height="50"/><rect fill="#747474" x="335" y="0" width="5" height="50"/><rect fill="#747474" x="340" y="0" width="5" height="50"/><rect fill="#6e6e6e" x="345" y="0" width="5" height="50"/><rect fill="#6d6d6d" x="350" y="0" width="5" height="50"/><rect fill="#6a6a6a" x="355" y="0" width="5" height="50"/><rect fill="#696969" x="360" y="0" width="5" height="50"/><rect fill="#656565" x="365" y="0" width="5" height="50"/><rect fill="#5c5c5c" x="370" y="0" width="5" height="50"/><rect fill="#585858" x="375" y="0" width="5" height="50"/><rect fill="#555555" x="380" y="0" width="5" height="50"/><rect fill="#d8d8d8" x="385" y="0" width="5" height="50"/><rect fill="#d2d2d2" x="390" y="0" width="5" height="50"/><rect fill="#cacaca" x="395" y="0" width="5" height="50"/><rect fill="#b9b9b9" x="400" y="0" width="5" height="50"/><rect fill="#a7a7a7" x="405" y="0" width="5" height="50"/><rect fill="#9f9f9f" x="410" y="0" width="5" height="50"/><rect fill="#9a9a9a" x="415" y="0" width="5" height="50"/><rect fill="#6f6f6f" x="420" y="0" width="5" height="50"/><rect fill="#686868" x="425" y="0" width="5" height="50"/><rect fill="#656565" x="430" y="0" width="5" height="50"/><rect fill="#646464" x="435" y="0" width="5" height="50"/><rect fill="#fbfbfb" x="440" y="0" width="5" height="50"/><rect fill="#f4f4f4" x="445" y="0" width="5" height="50"/><rect fill="#f3f3f3" x="450" y="0" width="5" height="50"/><rect fill="#e8e8e8" x="455" y="0" width="5" height="50"/><rect fill="#bbbbbb" x="460" y="0" width="5" height="50"/><rect fill="#b2b2b2" x="465" y="0" width="5" height="50"/><rect fill="#b1b1b1" x="470" y="0" width="5" height="50"/><rect fill="#b0b0b0" x="475" y="0" width="5" height="50"/><rect fill="#a6a6a6" x="480" y="0" width="5" height="50"/><rect fill="#a0a0a0" x="485" y="0" width="5" height="50"/><rect fill="#969696" x="490" y="0" width="5" height="50"/></g></svg>