<svg version="1.1" xmlns="http://www.w3.org/2000/svg" xmlns:xlink="http://www.w3.org/1999/xlink" width="500" height="50"><g><rect fill="#ffeeb5" x="0" y="0" width="5" height="50"/><rect fill="#ffda8f" x="5" y="0" width="5" height="50"/><rect fill="#f4da8b" x="10" y="0" width="5" height="50"/><rect fill="#ffe49e" x="15" y="0" width="5" height="50"/><rect fill="#ffda88" x="20" y="0" width="5" height="50"/><rect fill="#ffd683" x="25" y="0" width="5" height="50"/><rect fill="#f9d07a" x="30" y="0" width="5" height="50"/><rect fill="#ffc980" x="35" y="0" width="5" height="50"/><rect fill="#ffe580" x="40" y="0" width="5" height="50"/><rect fill="#fff171" x="45" y="0" width="5" height="50"/><rect fill="#ffef77" x="50" y="0" width="5" height="50"/><rect fill="#fed65f" x="55" y="0" width="5" height="50"/><rect fill="#ffea65" x="60" y="0" width="5" height="50"/><rect fill="#ffde5c" x="65" y="0" width="5" height="50"/><rect fill="#fff065" x="70" y="0" width="5" height="50"/><rect fill="#dfd053" x="75" y="0" width="5" height="50"/><rect fill="#f0c059" x="80" y="0" width="5" height="50"/><rect fill="#ffc851" x="85" y="0" width="5" height="50"/><rect fill="#ffc757" x="90" y="0" width="5" height="50"/><rect fill="#ffc951" x="95" y="0" width="5" height="50"/><rect fill="#f4c635" x="100" y="0" width="5" height="50"/><rect fill="#f9c038" x="105" y="0" width="5" height="50"/><rect fill="#9cfff4" x="110" y="0" width="5" height="50"/><rect fill="#88ffff" x="115" y="0" width="5" height="50"/><rect fill="#82fbd3" x="120" y="0" width="5" height="50"/><rect fill="#57fffa" x="125" y="0" width="5" height="50"/><rect fill="#3affff" x="130" y="0" width="5" height="50"/><rect fill="#00fffb" x="135" y="0" width="5" height="50"/><rect fill="#00ffff" x="140" y="0" width="5" height="50"/><rect fill="#00ffff" x="145" y="0" width="5" height="50"/><rect fill="#00f5ff" x="150" y="0" width="5" height="50"/><rect fill="#5ce8c0" x="155" y="0" width="5" height="50"/><rect fill="#43e6d8" x="160" y="0" width="5" height="50"/><rect fill="#00ffff" x="165" y="0" width="5" height="50"/><rect fill="#00ffe7" x="170" y="0" width="5" height="50"/><rect fill="#00fff8" x="175" y="0" width="5" height="50"/><rect fill="#00ffe8" x="180" y="0" width="5" height="50"/><rect fill="#00f8ff" x="185" y="0" width="5" height="50"/><rect fill="#00ffff" x="190" y="0" width="5" height="50"/><rect fill="#00f5d8" x="195" y="0" width="5" height="50"/><rect fill="#00ffff" x="200" y="0" width="5" height="50"/><rect fill="#00f7ff" x="205" y="0" width="5" height="50"/><rect fill="#00ffe8" x="210" y="0" width="5" height="50"/><rect fill="#00eaf0" x="215" y="0" width="5" height="50"/><rect fill="#ffdcdb" x="220" y="0" width="5" height="50"/><rect fill="#ffcccf" x="225" y="0" width="5" height="50"/><rect fill="#ffc8d7" x="230" y="0" width="5" height="50"/><rect fill="#ffd8e1" x="235" y="0" width="5" height="50"/><rect fill="#ffc9ee" x="240" y="0" width="5" height="50"/><rect fill="#ffbac4" x="245" y="0" width="5" height="50"/><rect fill="#ffc5c6" x="250" y="0" width="5" height="50"/><rect fill="#ffb8e3" x="255" y="0" width="5" height="50"/><rect fill="#ffafb8" x="260" y="0" width="5" height="50"/><rect fill="#ffc4d4" x="265" y="0" width="5" height="50"/><rect fill="#ffb8e9" x="270" y="0" width="5" height="50"/><rect fill="#ffa7d4" x="275" y="0" width="5" height="50"/><rect fill="#ffbbdc" x="280" y="0" width="5" height="50"/><rect fill="#ffbec1" x="285" y="0" width="5" height="50"/><rect fill="#ffbfe5" x="290" y="0" width="5" height="50"/><rect fill="#ffa4a6" x="295" y="0" width="5" height="50"/><rect fill="#ff9db3" x="300" y="0" width="5" height="50"/><rect fill="#ffa9aa" x="305" y="0" width="5" height="50"/><rect fill="#ff95e1" x="310" y="0" width="5" height="50"/><rect fill="#ff96a9" x="315" y="0" width="5" height="50"/><rect fill="#ff8fb7" x="320" y="0" width="5" height="50"/><rect fill="#ff9497" x="325" y="0" width="5" height="50"/><rect fill="#454545" x="330" y="0" width="5" height="50"/><rect fill="#424242" x="335" y="0" width="5" height="50"/><rect fill="#404040" x="340" y="0" width="5" height="50"/><rect fill="#3f3f3f" x="345" y="0" width="5" height="50"/><rect fill="#3b3b3b" x="350" y="0" width="5" height="50"/><rect fill="#333333" x="355" y="0" width="5" height="50"/><rect fill="#272727" x="360" y="0" width="5" height="50"/><rect fill="#222222" x="365" y="0" width="5" height="50"/><rect fill="#181818" x="370" y="0" width="5" height="50"/><rect fill="#171717" x="375" y="0" width="5" height="50"/><rect fill="#111111" x="380" y="0" width="5" height="50"/><rect fill="#fbfbfb" x="385" y="0" width="5" height="50"/><rect fill="#f7f7f7" x="390" y="0" width="5" height="50"/><rect fill="#f6f6f6" x="395" y="0" width="5" height="50"/><rect fill="#f4f4f4" x="400" y="0" width="5" height="50"/><rect fill="#dddddd" x="405" y="0" width="5" height="50"/><rect fill="#2f2f2f" x="410" y="0" width="5" height="50"/><rect fill="#2b2b2b" x="415" y="0" width="5" height="50"/><rect fill="#272727" x="420" y="0" width="5" height="50"/><rect fill="#262626" x="425" y="0" width="5" height="50"/><rect fill="#191919" x="430" y="0" width="5" height="50"/><rect fill="#191919" x="435" y="0" width="5" height="50"/><rect fill="#ececec" x="440" y="0" width="5" height="50"/><rect fill="#ececec" x="445" y="0" width="5" height="50"/><rect fill="#ebebeb" x="450" y="0" width="5" height="50"/><rect fill="#e8e8e8" x="455" y="0" width="5" height="50"/><rect fill="#e6e6e6" x="460" y="0" width="5" height="50"/><rect fill="#e5e5e5" x="465" y="0" width="5" height="50"/><rect fill="#e2e2e2" x="470" y="0" width="5" height="50"/><rect fill="#e1e1e1" x="475" y="0" width="5" height="50"/><rect fill="#e0e0e0" x="480" y="0" width="5" height="50"/><rect fill="#dfdfdf" x="485" y="0" width="5" height="50"/><rect fill="#d5d5d5" x="490" y="0" width="5" height="50"/></g></svg>