<svg version="1.1" xmlns="http://www.w3.org/2000/svg" xmlns:xlink="http://www.w3.org/1999/xlink" width="500" height="50"><g><rect fill="#d1b2a6" x="0" y="0" width="5" height="50"/><rect fill="#b89a8e" x="5" y="0" width="5" height="50"/><rect fill="#dab19e" x="10" y="0" width="5" height="50"/><rect fill="#bca496" x="15" y="0" width="5" height="50"/><rect fill="#b19788" x="20" y="0" width="5" height="50"/><rect fill="#b59a81" x="25" y="0" width="5" height="50"/><rect fill="#e4cfb4" x="30" y="0" width="5" height="50"/><rect fill="#a99778" x="35" y="0" width="5" height="50"/><rect fill="#baa884" x="40" y="0" width="5" height="50"/><rect fill="#e4d9ae" x="45" y="0" width="5" height="50"/><rect fill="#cfc8a0" x="50" y="0" width="5" height="50"/><rect fill="#e4e1ae" x="55" y="0" width="5" height="50"/><rect fill="#a9a883" x="60" y="0" width="5" height="50"/><rect fill="#bebd94" x="65" y="0" width="5" height="50"/><rect fill="#b1b37d" x="70" y="0" width="5" height="50"/><rect fill="#cfd49d" x="75" y="0" width="5" height="50"/><rect fill="#a3ad89" x="80" y="0" width="5" height="50"/><rect fill="#949d7d" x="85" y="0" width="5" height="50"/><rect fill="#afbf8b" x="90" y="0" width="5" height="50"/><rect fill="#d1e3ab" x="95" y="0" width="5" height="50"/><rect fill="#a0ae87" x="100" y="0" width="5" height="50"/><rect fill="#bad092" x="105" y="0" width="5" height="50"/><rect fill="#abc187" x="110" y="0" width="5" height="50"/><rect fill="#c1d3a8" x="115" y="0" width="5" height="50"/><rect fill="#9dae88" x="120" y="0" width="5" height="50"/><rect fill="#bfe0a3" x="125" y="0" width="5" height="50"/><rect fill="#a9c297" x="130" y="0" width="5" height="50"/><rect fill="#b5dca3" x="135" y="0" width="5" height="50"/><rect fill="#b9daad" x="140" y="0" width="5" height="50"/><rect fill="#8aac7e" x="145" y="0" width="5" height="50"/><rect fill="#9ac48c" x="150" y="0" width="5" height="50"/><rect fill="#92c58a" x="155" y="0" width="5" height="50"/><rect fill="#9bc498" x="160" y="0" width="5" height="50"/><rect fill="#90b58e" x="165" y="0" width="5" height="50"/><rect fill="#80b089" x="170" y="0" width="5" height="50"/><rect fill="#a7d7b2" x="175" y="0" width="5" height="50"/><rect fill="#9cc9aa" x="180" y="0" width="5" height="50"/><rect fill="#99ceaa" x="185" y="0" width="5" height="50"/><rect fill="#8ab397" x="190" y="0" width="5" height="50"/><rect fill="#84aa93" x="195" y="0" width="5" height="50"/><rect fill="#90bca3" x="200" y="0" width="5" height="50"/><rect fill="#93b9a4" x="205" y="0" width="5" height="50"/><rect fill="#79ac9a" x="210" y="0" width="5" height="50"/><rect fill="#a8d2c6" x="215" y="0" width="5" height="50"/><rect fill="#7fb0a5" x="220" y="0" width="5" height="50"/><rect fill="#769c98" x="225" y="0" width="5" height="50"/><rect fill="#99cbc6" x="230" y="0" width="5" height="50"/><rect fill="#8cc4c3" x="235" y="0" width="5" height="50"/><rect fill="#9bd9d9" x="240" y="0" width="5" height="50"/><rect fill="#7ea1a2" x="245" y="0" width="5" height="50"/><rect fill="#8db4b7" x="250" y="0" width="5" height="50"/><rect fill="#97bcc2" x="255" y="0" width="5" height="50"/><rect fill="#80a1a9" x="260" y="0" width="5" height="50"/><rect fill="#779299" x="265" y="0" width="5" height="50"/><rect fill="#86a1a8" x="270" y="0" width="5" height="50"/><rect fill="#a7d1e5" x="275" y="0" width="5" height="50"/><rect fill="#7d9dae" x="280" y="0" width="5" height="50"/><rect fill="#7c9cad" x="285" y="0" width="5" height="50"/><rect fill="#7d9bad" x="290" y="0" width="5" height="50"/><rect fill="#90b4ce" x="295" y="0" width="5" height="50"/><rect fill="#8da1b3" x="300" y="0" width="5" height="50"/><rect fill="#8f9eb3" x="305" y="0" width="5" height="50"/><rect fill="#778aa6" x="310" y="0" width="5" height="50"/><rect fill="#a5bde3" x="315" y="0" width="5" height="50"/><rect fill="#7682a4" x="320" y="0" width="5" height="50"/><rect fill="#8a94b9" x="325" y="0" width="5" height="50"/><rect fill="#a3add4" x="330" y="0" width="5" height="50"/><rect fill="#8a93b9" x="335" y="0" width="5" height="50"/><rect fill="#7178a0" x="340" y="0" width="5" height="50"/><rect fill="#9294c7" x="345" y="0" width="5" height="50"/><rect fill="#8c8cbb" x="350" y="0" width="5" height="50"/><rect fill="#7f7ca9" x="355" y="0" width="5" height="50"/><rect fill="#9188ae" x="360" y="0" width="5" height="50"/><rect fill="#9384bc" x="365" y="0" width="5" height="50"/><rect fill="#ac9dd5" x="370" y="0" width="5" height="50"/><rect fill="#c1a9dd" x="375" y="0" width="5" height="50"/><rect fill="#bc9cdb" x="380" y="0" width="5" height="50"/><rect fill="#9b80b1" x="385" y="0" width="5" height="50"/><rect fill="#9679a7" x="390" y="0" width="5" height="50"/><rect fill="#b494c0" x="395" y="0" width="5" height="50"/><rect fill="#d9a2e5" x="400" y="0" width="5" height="50"/><rect fill="#d2a2d9" x="405" y="0" width="5" height="50"/><rect fill="#d4a2da" x="410" y="0" width="5" height="50"/><rect fill="#a478a7" x="415" y="0" width="5" height="50"/><rect fill="#d496d2" x="420" y="0" width="5" height="50"/><rect fill="#bc91b9" x="425" y="0" width="5" height="50"/><rect fill="#e5a6da" x="430" y="0" width="5" height="50"/><rect fill="#a37a9a" x="435" y="0" width="5" height="50"/><rect fill="#dda0c9" x="440" y="0" width="5" height="50"/><rect fill="#e0a2be" x="445" y="0" width="5" height="50"/><rect fill="#a3798b" x="450" y="0" width="5" height="50"/><rect fill="#dea1b9" x="455" y="0" width="5" height="50"/><rect fill="#c993a6" x="460" y="0" width="5" height="50"/><rect fill="#b98e99" x="465" y="0" width="5" height="50"/><rect fill="#a77e88" x="470" y="0" width="5" height="50"/><rect fill="#d1a4ad" x="475" y="0" width="5" height="50"/><rect fill="#c88e97" x="480" y="0" width="5" height="50"/><rect fill="#a97c81" x="485" y="0" width="5" height="50"/><rect fill="#e3a9ae" x="490" y="0" width="5" height="50"/><rect fill="#e5a1a3" x="495" y="0" width="5" height="50"/></g></svg>