<svg version="1.1" xmlns="http://www.w3.org/2000/svg" xmlns:xlink="http://www.w3.org/1999/xlink" width="500" height="50"><g><rect fill="#fa0703" x="0" y="0" width="5" height="50"/><rect fill="#ce180c" x="5" y="0" width="5" height="50"/><rect fill="#560d08" x="10" y="0" width="5" height="50"/><rect fill="#580903" x="15" y="0" width="5" height="50"/><rect fill="#360902" x="20" y="0" width="5" height="50"/><rect fill="#cc2e14" x="25" y="0" width="5" height="50"/><rect fill="#f83918" x="30" y="0" width="5" height="50"/><rect fill="#4b1101" x="35" y="0" width="5" height="50"/><rect fill="#421706" x="40" y="0" width="5" height="50"/><rect fill="#e74e0f" x="45" y="0" width="5" height="50"/><rect fill="#3e1401" x="50" y="0" width="5" height="50"/><rect fill="#3e1805" x="55" y="0" width="5" height="50"/><rect fill="#dd5d15" x="60" y="0" width="5" height="50"/><rect fill="#e06301" x="65" y="0" width="5" height="50"/><rect fill="#4f2503" x="70" y="0" width="5" height="50"/><rect fill="#e17613" x="75" y="0" width="5" height="50"/><rect fill="#dd780b" x="80" y="0" width="5" height="50"/><rect fill="#d97e0c" x="85" y="0" width="5" height="50"/><rect fill="#3e2904" x="90" y="0" width="5" height="50"/><rect fill="#462e02" x="95" y="0" width="5" height="50"/><rect fill="#523903" x="100" y="0" width="5" height="50"/><rect fill="#dd9804" x="105" y="0" width="5" height="50"/><rect fill="#e2ab12" x="110" y="0" width="5" height="50"/><rect fill="#382d05" x="115" y="0" width="5" height="50"/><rect fill="#d4c008" x="120" y="0" width="5" height="50"/><rect fill="#514b08" x="125" y="0" width="5" height="50"/><rect fill="#504c07" x="130" y="0" width="5" height="50"/><rect fill="#595600" x="135" y="0" width="5" height="50"/><rect fill="#334002" x="140" y="0" width="5" height="50"/><rect fill="#2a3505" x="145" y="0" width="5" height="50"/><rect fill="#97d212" x="150" y="0" width="5" height="50"/><rect fill="#2a3e06" x="155" y="0" width="5" height="50"/><rect fill="#9af60c" x="160" y="0" width="5" height="50"/><rect fill="#8ee908" x="165" y="0" width="5" height="50"/><rect fill="#305902" x="170" y="0" width="5" height="50"/><rect fill="#76dd07" x="175" y="0" width="5" height="50"/><rect fill="#2c5608" x="180" y="0" width="5" height="50"/><rect fill="#163701" x="185" y="0" width="5" height="50"/><rect fill="#61ee0b" x="190" y="0" width="5" height="50"/><rect fill="#133a05" x="195" y="0" width="5" height="50"/><rect fill="#154505" x="200" y="0" width="5" height="50"/><rect fill="#1cd402" x="205" y="0" width="5" height="50"/><rect fill="#19d20f" x="210" y="0" width="5" height="50"/><rect fill="#033e01" x="215" y="0" width="5" height="50"/><rect fill="#013e03" x="220" y="0" width="5" height="50"/><rect fill="#01e119" x="225" y="0" width="5" height="50"/><rect fill="#07e361" x="230" y="0" width="5" height="50"/><rect fill="#064320" x="235" y="0" width="5" height="50"/><rect fill="#07da74" x="240" y="0" width="5" height="50"/><rect fill="#064327" x="245" y="0" width="5" height="50"/><rect fill="#02452d" x="250" y="0" width="5" height="50"/><rect fill="#09d58d" x="255" y="0" width="5" height="50"/><rect fill="#053828" x="260" y="0" width="5" height="50"/><rect fill="#013d2e" x="265" y="0" width="5" height="50"/><rect fill="#045748" x="270" y="0" width="5" height="50"/><rect fill="#033d3a" x="275" y="0" width="5" height="50"/><rect fill="#044340" x="280" y="0" width="5" height="50"/><rect fill="#069bd0" x="285" y="0" width="5" height="50"/><rect fill="#053d58" x="290" y="0" width="5" height="50"/><rect fill="#022233" x="295" y="0" width="5" height="50"/><rect fill="#0689e8" x="300" y="0" width="5" height="50"/><rect fill="#062e4b" x="305" y="0" width="5" height="50"/><rect fill="#026ffc" x="310" y="0" width="5" height="50"/><rect fill="#051d58" x="315" y="0" width="5" height="50"/><rect fill="#051348" x="320" y="0" width="5" height="50"/><rect fill="#042dce" x="325" y="0" width="5" height="50"/><rect fill="#070e56" x="330" y="0" width="5" height="50"/><rect fill="#0c053b" x="335" y="0" width="5" height="50"/><rect fill="#370ef9" x="340" y="0" width="5" height="50"/><rect fill="#0d013c" x="345" y="0" width="5" height="50"/><rect fill="#4512ee" x="350" y="0" width="5" height="50"/><rect fill="#180650" x="355" y="0" width="5" height="50"/><rect fill="#470ee6" x="360" y="0" width="5" height="50"/><rect fill="#580efc" x="365" y="0" width="5" height="50"/><rect fill="#6b14ef" x="370" y="0" width="5" height="50"/><rect fill="#29014a" x="375" y="0" width="5" height="50"/><rect fill="#7b06d5" x="380" y="0" width="5" height="50"/><rect fill="#8c03f4" x="385" y="0" width="5" height="50"/><rect fill="#2d024c" x="390" y="0" width="5" height="50"/><rect fill="#8802cd" x="395" y="0" width="5" height="50"/><rect fill="#3a0449" x="400" y="0" width="5" height="50"/><rect fill="#510853" x="405" y="0" width="5" height="50"/><rect fill="#380136" x="410" y="0" width="5" height="50"/><rect fill="#f20db4" x="415" y="0" width="5" height="50"/><rect fill="#43032e" x="420" y="0" width="5" height="50"/><rect fill="#fc17a8" x="425" y="0" width="5" height="50"/><rect fill="#340321" x="430" y="0" width="5" height="50"/><rect fill="#ee0584" x="435" y="0" width="5" height="50"/><rect fill="#dc116c" x="440" y="0" width="5" height="50"/><rect fill="#500220" x="445" y="0" width="5" height="50"/><rect fill="#4e031f" x="450" y="0" width="5" height="50"/><rect fill="#ed0f59" x="455" y="0" width="5" height="50"/><rect fill="#53031c" x="460" y="0" width="5" height="50"/><rect fill="#ef064a" x="465" y="0" width="5" height="50"/><rect fill="#d10840" x="470" y="0" width="5" height="50"/><rect fill="#f2023f" x="475" y="0" width="5" height="50"/><rect fill="#35050f" x="480" y="0" width="5" height="50"/><rect fill="#35020a" x="485" y="0" width="5" height="50"/><rect fill="#3a0509" x="490" y="0" width="5" height="50"/><rect fill="#d40e10" x="495" y="0" width="5" height="50"/></g></svg>