<svg version="1.1" xmlns="http://www.w3.org/2000/svg" xmlns:xlink="http://www.w3.org/1999/xlink" width="500" height="50"><g><rect fill="#f00500" x="0" y="0" width="5" height="50"/><rect fill="#e80d03" x="5" y="0" width="5" height="50"/><rect fill="#eb2413" x="10" y="0" width="5" height="50"/><rect fill="#f11d06" x="15" y="0" width="5" height="50"/><rect fill="#fe2107" x="20" y="0" width="5" height="50"/><rect fill="#d12408" x="25" y="0" width="5" height="50"/><rect fill="#711c05" x="30" y="0" width="5" height="50"/><rect fill="#671d02" x="35" y="0" width="5" height="50"/><rect fill="#cc4310" x="40" y="0" width="5" height="50"/><rect fill="#7d430b" x="45" y="0" width="5" height="50"/><rect fill="#be6c12" x="50" y="0" width="5" height="50"/><rect fill="#feea08" x="55" y="0" width="5" height="50"/><rect fill="#898606" x="60" y="0" width="5" height="50"/><rect fill="#f4ef0c" x="65" y="0" width="5" height="50"/><rect fill="#d7df14" x="70" y="0" width="5" height="50"/><rect fill="#89a006" x="75" y="0" width="5" height="50"/><rect fill="#c4fa0e" x="80" y="0" width="5" height="50"/><rect fill="#668308" x="85" y="0" width="5" height="50"/><rect fill="#7ca507" x="90" y="0" width="5" height="50"/><rect fill="#397a09" x="95" y="0" width="5" height="50"/><rect fill="#46a208" x="100" y="0" width="5" height="50"/><rect fill="#289702" x="105" y="0" width="5" height="50"/><rect fill="#3fd013" x="110" y="0" width="5" height="50"/><rect fill="#1d6b06" x="115" y="0" width="5" height="50"/><rect fill="#21be0e" x="120" y="0" width="5" height="50"/><rect fill="#1d980e" x="125" y="0" width="5" height="50"/><rect fill="#038a08" x="130" y="0" width="5" height="50"/><rect fill="#01970a" x="135" y="0" width="5" height="50"/><rect fill="#0adc1e" x="140" y="0" width="5" height="50"/><rect fill="#0cb922" x="145" y="0" width="5" height="50"/><rect fill="#10f54c" x="150" y="0" width="5" height="50"/><rect fill="#048126" x="155" y="0" width="5" height="50"/><rect fill="#09d54f" x="160" y="0" width="5" height="50"/><rect fill="#01aa3c" x="165" y="0" width="5" height="50"/><rect fill="#01ad3f" x="170" y="0" width="5" height="50"/><rect fill="#05b94b" x="175" y="0" width="5" height="50"/><rect fill="#02d056" x="180" y="0" width="5" height="50"/><rect fill="#05a648" x="185" y="0" width="5" height="50"/><rect fill="#019847" x="190" y="0" width="5" height="50"/><rect fill="#07d46a" x="195" y="0" width="5" height="50"/><rect fill="#09b963" x="200" y="0" width="5" height="50"/><rect fill="#09c76d" x="205" y="0" width="5" height="50"/><rect fill="#0c7e51" x="210" y="0" width="5" height="50"/><rect fill="#0c835c" x="215" y="0" width="5" height="50"/><rect fill="#0cbf93" x="220" y="0" width="5" height="50"/><rect fill="#039473" x="225" y="0" width="5" height="50"/><rect fill="#08745b" x="230" y="0" width="5" height="50"/><rect fill="#13edda" x="235" y="0" width="5" height="50"/><rect fill="#06cec4" x="240" y="0" width="5" height="50"/><rect fill="#068792" x="245" y="0" width="5" height="50"/><rect fill="#0c93a5" x="250" y="0" width="5" height="50"/><rect fill="#047c94" x="255" y="0" width="5" height="50"/><rect fill="#04cdfa" x="260" y="0" width="5" height="50"/><rect fill="#0782a1" x="265" y="0" width="5" height="50"/><rect fill="#0a82a5" x="270" y="0" width="5" height="50"/><rect fill="#0cb5f9" x="275" y="0" width="5" height="50"/><rect fill="#0a4f6c" x="280" y="0" width="5" height="50"/><rect fill="#0d8cd0" x="285" y="0" width="5" height="50"/><rect fill="#05578d" x="290" y="0" width="5" height="50"/><rect fill="#034981" x="295" y="0" width="5" height="50"/><rect fill="#0b4787" x="300" y="0" width="5" height="50"/><rect fill="#1660df" x="305" y="0" width="5" height="50"/><rect fill="#0335d6" x="310" y="0" width="5" height="50"/><rect fill="#093dee" x="315" y="0" width="5" height="50"/><rect fill="#0928d5" x="320" y="0" width="5" height="50"/><rect fill="#0112c0" x="325" y="0" width="5" height="50"/><rect fill="#081299" x="330" y="0" width="5" height="50"/><rect fill="#070fcf" x="335" y="0" width="5" height="50"/><rect fill="#0b0388" x="340" y="0" width="5" height="50"/><rect fill="#1903d7" x="345" y="0" width="5" height="50"/><rect fill="#1301a4" x="350" y="0" width="5" height="50"/><rect fill="#3207bc" x="355" y="0" width="5" height="50"/><rect fill="#7d03f3" x="360" y="0" width="5" height="50"/><rect fill="#690ec1" x="365" y="0" width="5" height="50"/><rect fill="#9616f7" x="370" y="0" width="5" height="50"/><rect fill="#7602c2" x="375" y="0" width="5" height="50"/><rect fill="#530686" x="380" y="0" width="5" height="50"/><rect fill="#9e02fd" x="385" y="0" width="5" height="50"/><rect fill="#4d0773" x="390" y="0" width="5" height="50"/><rect fill="#7b0aaf" x="395" y="0" width="5" height="50"/><rect fill="#670390" x="400" y="0" width="5" height="50"/><rect fill="#a911d9" x="405" y="0" width="5" height="50"/><rect fill="#b500dd" x="410" y="0" width="5" height="50"/><rect fill="#d406fa" x="415" y="0" width="5" height="50"/><rect fill="#900fa5" x="420" y="0" width="5" height="50"/><rect fill="#a402bb" x="425" y="0" width="5" height="50"/><rect fill="#de0dfa" x="430" y="0" width="5" height="50"/><rect fill="#7a0d88" x="435" y="0" width="5" height="50"/><rect fill="#7f048d" x="440" y="0" width="5" height="50"/><rect fill="#fd12fd" x="445" y="0" width="5" height="50"/><rect fill="#d813d7" x="450" y="0" width="5" height="50"/><rect fill="#6e0962" x="455" y="0" width="5" height="50"/><rect fill="#da0a96" x="460" y="0" width="5" height="50"/><rect fill="#de1486" x="465" y="0" width="5" height="50"/><rect fill="#be0453" x="470" y="0" width="5" height="50"/><rect fill="#7c0331" x="475" y="0" width="5" height="50"/><rect fill="#8a0b2f" x="480" y="0" width="5" height="50"/><rect fill="#690914" x="485" y="0" width="5" height="50"/><rect fill="#e40919" x="490" y="0" width="5" height="50"/><rect fill="#db1415" x="495" y="0" width="5" height="50"/></g></svg>