<svg version="1.1" xmlns="http://www.w3.org/2000/svg" xmlns:xlink="http://www.w3.org/1999/xlink" width="500" height="50"><g><rect fill="#ff82e5" x="0" y="0" width="5" height="50"/><rect fill="#c3004d" x="5" y="0" width="5" height="50"/><rect fill="#c3003c" x="10" y="0" width="5" height="50"/><rect fill="#ffa2b4" x="15" y="0" width="5" height="50"/><rect fill="#950001" x="20" y="0" width="5" height="50"/><rect fill="#c00017" x="25" y="0" width="5" height="50"/><rect fill="#ff8a8d" x="30" y="0" width="5" height="50"/><rect fill="#ffb291" x="35" y="0" width="5" height="50"/><rect fill="#b20000" x="40" y="0" width="5" height="50"/><rect fill="#880000" x="45" y="0" width="5" height="50"/><rect fill="#890000" x="50" y="0" width="5" height="50"/><rect fill="#900000" x="55" y="0" width="5" height="50"/><rect fill="#980000" x="60" y="0" width="5" height="50"/><rect fill="#ffd160" x="65" y="0" width="5" height="50"/><rect fill="#ffd457" x="70" y="0" width="5" height="50"/><rect fill="#ffd24b" x="75" y="0" width="5" height="50"/><rect fill="#ffb00e" x="80" y="0" width="5" height="50"/><rect fill="#8b3200" x="85" y="0" width="5" height="50"/><rect fill="#ffdb2e" x="90" y="0" width="5" height="50"/><rect fill="#7a2a00" x="95" y="0" width="5" height="50"/><rect fill="#ffb700" x="100" y="0" width="5" height="50"/><rect fill="#682900" x="105" y="0" width="5" height="50"/><rect fill="#ffd100" x="110" y="0" width="5" height="50"/><rect fill="#ffdd00" x="115" y="0" width="5" height="50"/><rect fill="#f4d300" x="120" y="0" width="5" height="50"/><rect fill="#d7d000" x="125" y="0" width="5" height="50"/><rect fill="#4e5300" x="130" y="0" width="5" height="50"/><rect fill="#def000" x="135" y="0" width="5" height="50"/><rect fill="#e7f91b" x="140" y="0" width="5" height="50"/><rect fill="#305600" x="145" y="0" width="5" height="50"/><rect fill="#264c00" x="150" y="0" width="5" height="50"/><rect fill="#234a00" x="155" y="0" width="5" height="50"/><rect fill="#005300" x="160" y="0" width="5" height="50"/><rect fill="#003e00" x="165" y="0" width="5" height="50"/><rect fill="#c6ff36" x="170" y="0" width="5" height="50"/><rect fill="#adfe32" x="175" y="0" width="5" height="50"/><rect fill="#9fff40" x="180" y="0" width="5" height="50"/><rect fill="#003f00" x="185" y="0" width="5" height="50"/><rect fill="#72e500" x="190" y="0" width="5" height="50"/><rect fill="#005a00" x="195" y="0" width="5" height="50"/><rect fill="#76ff76" x="200" y="0" width="5" height="50"/><rect fill="#005b00" x="205" y="0" width="5" height="50"/><rect fill="#006800" x="210" y="0" width="5" height="50"/><rect fill="#00fb71" x="215" y="0" width="5" height="50"/><rect fill="#00ffa2" x="220" y="0" width="5" height="50"/><rect fill="#00ee7d" x="225" y="0" width="5" height="50"/><rect fill="#006722" x="230" y="0" width="5" height="50"/><rect fill="#005019" x="235" y="0" width="5" height="50"/><rect fill="#00ffc5" x="240" y="0" width="5" height="50"/><rect fill="#005729" x="245" y="0" width="5" height="50"/><rect fill="#00ffdb" x="250" y="0" width="5" height="50"/><rect fill="#00f4be" x="255" y="0" width="5" height="50"/><rect fill="#00f0c7" x="260" y="0" width="5" height="50"/><rect fill="#006855" x="265" y="0" width="5" height="50"/><rect fill="#006d7b" x="270" y="0" width="5" height="50"/><rect fill="#005d72" x="275" y="0" width="5" height="50"/><rect fill="#005f79" x="280" y="0" width="5" height="50"/><rect fill="#00ffff" x="285" y="0" width="5" height="50"/><rect fill="#00f9ff" x="290" y="0" width="5" height="50"/><rect fill="#00ffff" x="295" y="0" width="5" height="50"/><rect fill="#005c83" x="300" y="0" width="5" height="50"/><rect fill="#00ffff" x="305" y="0" width="5" height="50"/><rect fill="#00ffff" x="310" y="0" width="5" height="50"/><rect fill="#00ffff" x="315" y="0" width="5" height="50"/><rect fill="#00f6ff" x="320" y="0" width="5" height="50"/><rect fill="#006abc" x="325" y="0" width="5" height="50"/><rect fill="#00faff" x="330" y="0" width="5" height="50"/><rect fill="#00ecff" x="335" y="0" width="5" height="50"/><rect fill="#0051bf" x="340" y="0" width="5" height="50"/><rect fill="#005dd1" x="345" y="0" width="5" height="50"/><rect fill="#00e0ff" x="350" y="0" width="5" height="50"/><rect fill="#00f7ff" x="355" y="0" width="5" height="50"/><rect fill="#00e8ff" x="360" y="0" width="5" height="50"/><rect fill="#00f8ff" x="365" y="0" width="5" height="50"/><rect fill="#00ffff" x="370" y="0" width="5" height="50"/><rect fill="#005bde" x="375" y="0" width="5" height="50"/><rect fill="#005ae2" x="380" y="0" width="5" height="50"/><rect fill="#004ad6" x="385" y="0" width="5" height="50"/><rect fill="#40f1ff" x="390" y="0" width="5" height="50"/><rect fill="#78ffff" x="395" y="0" width="5" height="50"/><rect fill="#9ff4ff" x="400" y="0" width="5" height="50"/><rect fill="#0041e2" x="405" y="0" width="5" height="50"/><rect fill="#002bcc" x="410" y="0" width="5" height="50"/><rect fill="#c3baff" x="415" y="0" width="5" height="50"/><rect fill="#ecc8ff" x="420" y="0" width="5" height="50"/><rect fill="#3222cf" x="425" y="0" width="5" height="50"/><rect fill="#ffb6ff" x="430" y="0" width="5" height="50"/><rect fill="#ff9eff" x="435" y="0" width="5" height="50"/><rect fill="#ffbbff" x="440" y="0" width="5" height="50"/><rect fill="#ffb0ff" x="445" y="0" width="5" height="50"/><rect fill="#9000b0" x="450" y="0" width="5" height="50"/><rect fill="#ffa7ff" x="455" y="0" width="5" height="50"/><rect fill="#ffb2ff" x="460" y="0" width="5" height="50"/><rect fill="#860095" x="465" y="0" width="5" height="50"/><rect fill="#ff91ff" x="470" y="0" width="5" height="50"/><rect fill="#9c007e" x="475" y="0" width="5" height="50"/><rect fill="#ff76ff" x="480" y="0" width="5" height="50"/><rect fill="#aa0076" x="485" y="0" width="5" height="50"/><rect fill="#ff72ee" x="490" y="0" width="5" height="50"/><rect fill="#ff9cff" x="495" y="0" width="5" height="50"/></g></svg>