<svg version="1.1" xmlns="http://www.w3.org/2000/svg" xmlns:xlink="http://www.w3.org/1999/xlink" width="500" height="50"><g><rect fill="#ffb8f5" x="0" y="0" width="5" height="50"/><rect fill="#ffc9f3" x="5" y="0" width="5" height="50"/><rect fill="#ffbfe8" x="10" y="0" width="5" height="50"/><rect fill="#ffcce6" x="15" y="0" width="5" height="50"/><rect fill="#ffd4ce" x="20" y="0" width="5" height="50"/><rect fill="#ffbfb5" x="25" y="0" width="5" height="50"/><rect fill="#ffcab3" x="30" y="0" width="5" height="50"/><rect fill="#ffdcc6" x="35" y="0" width="5" height="50"/><rect fill="#ffccb4" x="40" y="0" width="5" height="50"/><rect fill="#ffd8b5" x="45" y="0" width="5" height="50"/><rect fill="#ffd1a1" x="50" y="0" width="5" height="50"/><rect fill="#ffd5a1" x="55" y="0" width="5" height="50"/><rect fill="#ffd8ae" x="60" y="0" width="5" height="50"/><rect fill="#ffde9d" x="65" y="0" width="5" height="50"/><rect fill="#ffe3ad" x="70" y="0" width="5" height="50"/><rect fill="#ffe289" x="75" y="0" width="5" height="50"/><rect fill="#ffed98" x="80" y="0" width="5" height="50"/><rect fill="#fff1ab" x="85" y="0" width="5" height="50"/><rect fill="#fff2ac" x="90" y="0" width="5" height="50"/><rect fill="#ffe799" x="95" y="0" width="5" height="50"/><rect fill="#ffe7a8" x="100" y="0" width="5" height="50"/><rect fill="#ffefa9" x="105" y="0" width="5" height="50"/><rect fill="#ffe894" x="110" y="0" width="5" height="50"/><rect fill="#f9e7ab" x="115" y="0" width="5" height="50"/><rect fill="#fffe9a" x="120" y="0" width="5" height="50"/><rect fill="#ffffa8" x="125" y="0" width="5" height="50"/><rect fill="#fff99f" x="130" y="0" width="5" height="50"/><rect fill="#e2ee61" x="135" y="0" width="5" height="50"/><rect fill="#f6ff8b" x="140" y="0" width="5" height="50"/><rect fill="#e1ff91" x="145" y="0" width="5" height="50"/><rect fill="#c8ff8c" x="150" y="0" width="5" height="50"/><rect fill="#baffa7" x="155" y="0" width="5" height="50"/><rect fill="#a6ffa8" x="160" y="0" width="5" height="50"/><rect fill="#d2ffd2" x="165" y="0" width="5" height="50"/><rect fill="#96ffa5" x="170" y="0" width="5" height="50"/><rect fill="#acffc2" x="175" y="0" width="5" height="50"/><rect fill="#c6ffd4" x="180" y="0" width="5" height="50"/><rect fill="#00ffec" x="185" y="0" width="5" height="50"/><rect fill="#6fffff" x="190" y="0" width="5" height="50"/><rect fill="#00ffff" x="195" y="0" width="5" height="50"/><rect fill="#60ffff" x="200" y="0" width="5" height="50"/><rect fill="#00ffff" x="205" y="0" width="5" height="50"/><rect fill="#00ffff" x="210" y="0" width="5" height="50"/><rect fill="#7affff" x="215" y="0" width="5" height="50"/><rect fill="#00ffff" x="220" y="0" width="5" height="50"/><rect fill="#77faff" x="225" y="0" width="5" height="50"/><rect fill="#25ffff" x="230" y="0" width="5" height="50"/><rect fill="#77ffff" x="235" y="0" width="5" height="50"/><rect fill="#21ffff" x="240" y="0" width="5" height="50"/><rect fill="#00ffff" x="245" y="0" width="5" height="50"/><rect fill="#5effff" x="250" y="0" width="5" height="50"/><rect fill="#90ffff" x="255" y="0" width="5" height="50"/><rect fill="#9dffff" x="260" y="0" width="5" height="50"/><rect fill="#5dffff" x="265" y="0" width="5" height="50"/><rect fill="#00feff" x="270" y="0" width="5" height="50"/><rect fill="#00ffff" x="275" y="0" width="5" height="50"/><rect fill="#5fffff" x="280" y="0" width="5" height="50"/><rect fill="#adffff" x="285" y="0" width="5" height="50"/><rect fill="#a5ffff" x="290" y="0" width="5" height="50"/><rect fill="#34ffff" x="295" y="0" width="5" height="50"/><rect fill="#88ffff" x="300" y="0" width="5" height="50"/><rect fill="#7efaff" x="305" y="0" width="5" height="50"/><rect fill="#7bffff" x="310" y="0" width="5" height="50"/><rect fill="#6ef2ff" x="315" y="0" width="5" height="50"/><rect fill="#93eeff" x="320" y="0" width="5" height="50"/><rect fill="#61ffff" x="325" y="0" width="5" height="50"/><rect fill="#76f9ff" x="330" y="0" width="5" height="50"/><rect fill="#8ff5ff" x="335" y="0" width="5" height="50"/><rect fill="#2bf7ff" x="340" y="0" width="5" height="50"/><rect fill="#44ffff" x="345" y="0" width="5" height="50"/><rect fill="#b8ebff" x="350" y="0" width="5" height="50"/><rect fill="#7dffff" x="355" y="0" width="5" height="50"/><rect fill="#86ffff" x="360" y="0" width="5" height="50"/><rect fill="#6aeeff" x="365" y="0" width="5" height="50"/><rect fill="#acffff" x="370" y="0" width="5" height="50"/><rect fill="#b2f9ff" x="375" y="0" width="5" height="50"/><rect fill="#cceaff" x="380" y="0" width="5" height="50"/><rect fill="#b9efff" x="385" y="0" width="5" height="50"/><rect fill="#dfebff" x="390" y="0" width="5" height="50"/><rect fill="#d0f6ff" x="395" y="0" width="5" height="50"/><rect fill="#c3dfff" x="400" y="0" width="5" height="50"/><rect fill="#d5deff" x="405" y="0" width="5" height="50"/><rect fill="#e5dfff" x="410" y="0" width="5" height="50"/><rect fill="#fbefff" x="415" y="0" width="5" height="50"/><rect fill="#eadfff" x="420" y="0" width="5" height="50"/><rect fill="#f5dbff" x="425" y="0" width="5" height="50"/><rect fill="#efd3ff" x="430" y="0" width="5" height="50"/><rect fill="#ffe7ff" x="435" y="0" width="5" height="50"/><rect fill="#ffdcff" x="440" y="0" width="5" height="50"/><rect fill="#ffe8ff" x="445" y="0" width="5" height="50"/><rect fill="#ffdeff" x="450" y="0" width="5" height="50"/><rect fill="#ffefff" x="455" y="0" width="5" height="50"/><rect fill="#ffd9ff" x="460" y="0" width="5" height="50"/><rect fill="#ffceff" x="465" y="0" width="5" height="50"/><rect fill="#ffcaff" x="470" y="0" width="5" height="50"/><rect fill="#ffc8ff" x="475" y="0" width="5" height="50"/><rect fill="#ffcbff" x="480" y="0" width="5" height="50"/><rect fill="#ffddff" x="485" y="0" width="5" height="50"/><rect fill="#ffdbff" x="490" y="0" width="5" height="50"/><rect fill="#ffd8fa" x="495" y="0" width="5" height="50"/></g></svg>