<svg version="1.1" xmlns="http://www.w3.org/2000/svg" xmlns:xlink="http://www.w3.org/1999/xlink" width="500" height="50"><g><rect fill="#e7a153" x="0" y="0" width="5" height="50"/><rect fill="#4de7c5" x="5" y="0" width="5" height="50"/><rect fill="#e6e778" x="10" y="0" width="5" height="50"/><rect fill="#e7e680" x="15" y="0" width="5" height="50"/><rect fill="#e8e6a1" x="20" y="0" width="5" height="50"/><rect fill="#99e8be" x="25" y="0" width="5" height="50"/><rect fill="#53e8a2" x="30" y="0" width="5" height="50"/><rect fill="#82e8b9" x="35" y="0" width="5" height="50"/><rect fill="#54e8af" x="40" y="0" width="5" height="50"/><rect fill="#93e8b2" x="45" y="0" width="5" height="50"/><rect fill="#e9c388" x="50" y="0" width="5" height="50"/><rect fill="#e9a855" x="55" y="0" width="5" height="50"/><rect fill="#94e9bd" x="60" y="0" width="5" height="50"/><rect fill="#e9e087" x="65" y="0" width="5" height="50"/><rect fill="#e9d49d" x="70" y="0" width="5" height="50"/><rect fill="#e9cc65" x="75" y="0" width="5" height="50"/><rect fill="#e9a752" x="80" y="0" width="5" height="50"/><rect fill="#7feaaa" x="85" y="0" width="5" height="50"/><rect fill="#ead771" x="90" y="0" width="5" height="50"/><rect fill="#eae24a" x="95" y="0" width="5" height="50"/><rect fill="#96ebb9" x="100" y="0" width="5" height="50"/><rect fill="#ebda9a" x="105" y="0" width="5" height="50"/><rect fill="#ecda9a" x="110" y="0" width="5" height="50"/><rect fill="#9fecd0" x="115" y="0" width="5" height="50"/><rect fill="#8decc6" x="120" y="0" width="5" height="50"/><rect fill="#49ecc8" x="125" y="0" width="5" height="50"/><rect fill="#ecd554" x="130" y="0" width="5" height="50"/><rect fill="#eccc87" x="135" y="0" width="5" height="50"/><rect fill="#63edcb" x="140" y="0" width="5" height="50"/><rect fill="#7ced9f" x="145" y="0" width="5" height="50"/><rect fill="#57edcb" x="150" y="0" width="5" height="50"/><rect fill="#edc59a" x="155" y="0" width="5" height="50"/><rect fill="#edda85" x="160" y="0" width="5" height="50"/><rect fill="#edd288" x="165" y="0" width="5" height="50"/><rect fill="#63ee96" x="170" y="0" width="5" height="50"/><rect fill="#89eeb6" x="175" y="0" width="5" height="50"/><rect fill="#efd8a2" x="180" y="0" width="5" height="50"/><rect fill="#efdc7f" x="185" y="0" width="5" height="50"/><rect fill="#efca67" x="190" y="0" width="5" height="50"/><rect fill="#66f0a7" x="195" y="0" width="5" height="50"/><rect fill="#7df0c4" x="200" y="0" width="5" height="50"/><rect fill="#81f0d7" x="205" y="0" width="5" height="50"/><rect fill="#f0e79e" x="210" y="0" width="5" height="50"/><rect fill="#f0d676" x="215" y="0" width="5" height="50"/><rect fill="#49f1a5" x="220" y="0" width="5" height="50"/><rect fill="#9cf1b2" x="225" y="0" width="5" height="50"/><rect fill="#53f1a5" x="230" y="0" width="5" height="50"/><rect fill="#f1db55" x="235" y="0" width="5" height="50"/><rect fill="#9cf2ba" x="240" y="0" width="5" height="50"/><rect fill="#a1f3ce" x="245" y="0" width="5" height="50"/><rect fill="#83f3c5" x="250" y="0" width="5" height="50"/><rect fill="#f3c482" x="255" y="0" width="5" height="50"/><rect fill="#f4d381" x="260" y="0" width="5" height="50"/><rect fill="#89f4b5" x="265" y="0" width="5" height="50"/><rect fill="#f4cb91" x="270" y="0" width="5" height="50"/><rect fill="#9cf4cd" x="275" y="0" width="5" height="50"/><rect fill="#a2f4b7" x="280" y="0" width="5" height="50"/><rect fill="#51f578" x="285" y="0" width="5" height="50"/><rect fill="#92f5be" x="290" y="0" width="5" height="50"/><rect fill="#f5cd62" x="295" y="0" width="5" height="50"/><rect fill="#52f6a2" x="300" y="0" width="5" height="50"/><rect fill="#84f6a7" x="305" y="0" width="5" height="50"/><rect fill="#f6e7a1" x="310" y="0" width="5" height="50"/><rect fill="#f6eb58" x="315" y="0" width="5" height="50"/><rect fill="#f6ca81" x="320" y="0" width="5" height="50"/><rect fill="#70f7b6" x="325" y="0" width="5" height="50"/><rect fill="#aaf7c8" x="330" y="0" width="5" height="50"/><rect fill="#85f89d" x="335" y="0" width="5" height="50"/><rect fill="#64f884" x="340" y="0" width="5" height="50"/><rect fill="#81f8ac" x="345" y="0" width="5" height="50"/><rect fill="#f8b673" x="350" y="0" width="5" height="50"/><rect fill="#f8f6a0" x="355" y="0" width="5" height="50"/><rect fill="#f8e9a0" x="360" y="0" width="5" height="50"/><rect fill="#64f8b1" x="365" y="0" width="5" height="50"/><rect fill="#f8eda8" x="370" y="0" width="5" height="50"/><rect fill="#f8b782" x="375" y="0" width="5" height="50"/><rect fill="#88f8a8" x="380" y="0" width="5" height="50"/><rect fill="#7ef9c2" x="385" y="0" width="5" height="50"/><rect fill="#f9a96f" x="390" y="0" width="5" height="50"/><rect fill="#abfae5" x="395" y="0" width="5" height="50"/><rect fill="#6efab6" x="400" y="0" width="5" height="50"/><rect fill="#fbde8b" x="405" y="0" width="5" height="50"/><rect fill="#4bfbc9" x="410" y="0" width="5" height="50"/><rect fill="#8efbb2" x="415" y="0" width="5" height="50"/><rect fill="#71fbac" x="420" y="0" width="5" height="50"/><rect fill="#fbb654" x="425" y="0" width="5" height="50"/><rect fill="#5afbce" x="430" y="0" width="5" height="50"/><rect fill="#7afbbe" x="435" y="0" width="5" height="50"/><rect fill="#a6fcda" x="440" y="0" width="5" height="50"/><rect fill="#fcdf5b" x="445" y="0" width="5" height="50"/><rect fill="#fcf461" x="450" y="0" width="5" height="50"/><rect fill="#9afce7" x="455" y="0" width="5" height="50"/><rect fill="#fcde9a" x="460" y="0" width="5" height="50"/><rect fill="#68fdc9" x="465" y="0" width="5" height="50"/><rect fill="#fec99e" x="470" y="0" width="5" height="50"/><rect fill="#fefd5b" x="475" y="0" width="5" height="50"/><rect fill="#a2ffe9" x="480" y="0" width="5" height="50"/><rect fill="#fff887" x="485" y="0" width="5" height="50"/><rect fill="#a3ffc5" x="490" y="0" width="5" height="50"/><rect fill="#8effab" x="495" y="0" width="5" height="50"/></g></svg>