<svg version="1.1" xmlns="http://www.w3.org/2000/svg" xmlns:xlink="http://www.w3.org/1999/xlink" width="500" height="50"><g><rect fill="#f0c404" x="0" y="0" width="5" height="50"/><rect fill="#00dee4" x="5" y="0" width="5" height="50"/><rect fill="#00f1b5" x="10" y="0" width="5" height="50"/><rect fill="#00f9df" x="15" y="0" width="5" height="50"/><rect fill="#ff7c89" x="20" y="0" width="5" height="50"/><rect fill="#ff82b1" x="25" y="0" width="5" height="50"/><rect fill="#f2f2f2" x="30" y="0" width="5" height="50"/><rect fill="#383838" x="35" y="0" width="5" height="50"/><rect fill="#ff4aa3" x="40" y="0" width="5" height="50"/><rect fill="#00fabe" x="45" y="0" width="5" height="50"/><rect fill="#00c9d8" x="50" y="0" width="5" height="50"/><rect fill="#fcfcfc" x="55" y="0" width="5" height="50"/><rect fill="#00e0c3" x="60" y="0" width="5" height="50"/><rect fill="#ff9c10" x="65" y="0" width="5" height="50"/><rect fill="#00fff0" x="70" y="0" width="5" height="50"/><rect fill="#313131" x="75" y="0" width="5" height="50"/><rect fill="#00e8c5" x="80" y="0" width="5" height="50"/><rect fill="#a88900" x="85" y="0" width="5" height="50"/><rect fill="#ff6181" x="90" y="0" width="5" height="50"/><rect fill="#ff908e" x="95" y="0" width="5" height="50"/><rect fill="#ff53a6" x="100" y="0" width="5" height="50"/><rect fill="#d1be3f" x="105" y="0" width="5" height="50"/><rect fill="#ff96c4" x="110" y="0" width="5" height="50"/><rect fill="#e2e2e2" x="115" y="0" width="5" height="50"/><rect fill="#f3cc36" x="120" y="0" width="5" height="50"/><rect fill="#00d7a7" x="125" y="0" width="5" height="50"/><rect fill="#cfa800" x="130" y="0" width="5" height="50"/><rect fill="#f6f6f6" x="135" y="0" width="5" height="50"/><rect fill="#be9100" x="140" y="0" width="5" height="50"/><rect fill="#e0e0e0" x="145" y="0" width="5" height="50"/><rect fill="#464646" x="150" y="0" width="5" height="50"/><rect fill="#323232" x="155" y="0" width="5" height="50"/><rect fill="#008454" x="160" y="0" width="5" height="50"/><rect fill="#00fde2" x="165" y="0" width="5" height="50"/><rect fill="#ff93ca" x="170" y="0" width="5" height="50"/><rect fill="#444444" x="175" y="0" width="5" height="50"/><rect fill="#414141" x="180" y="0" width="5" height="50"/><rect fill="#323232" x="185" y="0" width="5" height="50"/><rect fill="#f6f6f6" x="190" y="0" width="5" height="50"/><rect fill="#de9118" x="195" y="0" width="5" height="50"/><rect fill="#00b494" x="200" y="0" width="5" height="50"/><rect fill="#3c3c3c" x="205" y="0" width="5" height="50"/><rect fill="#bc5f00" x="210" y="0" width="5" height="50"/><rect fill="#00ffff" x="215" y="0" width="5" height="50"/><rect fill="#ce9c00" x="220" y="0" width="5" height="50"/><rect fill="#424242" x="225" y="0" width="5" height="50"/><rect fill="#dddddd" x="230" y="0" width="5" height="50"/><rect fill="#434343" x="235" y="0" width="5" height="50"/><rect fill="#464646" x="240" y="0" width="5" height="50"/><rect fill="#f7f7f7" x="245" y="0" width="5" height="50"/><rect fill="#dbdbdb" x="250" y="0" width="5" height="50"/><rect fill="#00ce9b" x="255" y="0" width="5" height="50"/><rect fill="#fbe000" x="260" y="0" width="5" height="50"/><rect fill="#00cfd2" x="265" y="0" width="5" height="50"/><rect fill="#f0f0f0" x="270" y="0" width="5" height="50"/><rect fill="#d4d4d4" x="275" y="0" width="5" height="50"/><rect fill="#3d3d3d" x="280" y="0" width="5" height="50"/><rect fill="#ff7fe5" x="285" y="0" width="5" height="50"/><rect fill="#ac5600" x="290" y="0" width="5" height="50"/><rect fill="#cdcdcd" x="295" y="0" width="5" height="50"/><rect fill="#fb6980" x="300" y="0" width="5" height="50"/><rect fill="#ff008f" x="305" y="0" width="5" height="50"/><rect fill="#797300" x="310" y="0" width="5" height="50"/><rect fill="#e3e3e3" x="315" y="0" width="5" height="50"/><rect fill="#f1666a" x="320" y="0" width="5" height="50"/><rect fill="#ededed" x="325" y="0" width="5" height="50"/><rect fill="#ff95b5" x="330" y="0" width="5" height="50"/><rect fill="#d7b100" x="335" y="0" width="5" height="50"/><rect fill="#d73b4c" x="340" y="0" width="5" height="50"/><rect fill="#e2e2e2" x="345" y="0" width="5" height="50"/><rect fill="#343434" x="350" y="0" width="5" height="50"/><rect fill="#f8f8f8" x="355" y="0" width="5" height="50"/><rect fill="#fdfdfd" x="360" y="0" width="5" height="50"/><rect fill="#ff808a" x="365" y="0" width="5" height="50"/><rect fill="#7b6000" x="370" y="0" width="5" height="50"/><rect fill="#00a7a4" x="375" y="0" width="5" height="50"/><rect fill="#ff6f77" x="380" y="0" width="5" height="50"/><rect fill="#fcb42a" x="385" y="0" width="5" height="50"/><rect fill="#ff608e" x="390" y="0" width="5" height="50"/><rect fill="#886d00" x="395" y="0" width="5" height="50"/><rect fill="#e9df00" x="400" y="0" width="5" height="50"/><rect fill="#f36272" x="405" y="0" width="5" height="50"/><rect fill="#878100" x="410" y="0" width="5" height="50"/><rect fill="#ff7a86" x="415" y="0" width="5" height="50"/><rect fill="#454545" x="420" y="0" width="5" height="50"/><rect fill="#ff5f6e" x="425" y="0" width="5" height="50"/><rect fill="#ff6fbd" x="430" y="0" width="5" height="50"/><rect fill="#a17400" x="435" y="0" width="5" height="50"/><rect fill="#ececec" x="440" y="0" width="5" height="50"/><rect fill="#ff4f69" x="445" y="0" width="5" height="50"/><rect fill="#db006b" x="450" y="0" width="5" height="50"/><rect fill="#b46a00" x="455" y="0" width="5" height="50"/><rect fill="#fd2d5e" x="460" y="0" width="5" height="50"/><rect fill="#e2e2e2" x="465" y="0" width="5" height="50"/><rect fill="#dbc650" x="470" y="0" width="5" height="50"/><rect fill="#ff3f5a" x="475" y="0" width="5" height="50"/><rect fill="#867900" x="480" y="0" width="5" height="50"/><rect fill="#bd9b29" x="485" y="0" width="5" height="50"/><rect fill="#fcd85e" x="490" y="0" width="5" height="50"/><rect fill="#363636" x="495" y="0" width="5" height="50"/></g></svg>