<svg version="1.1" xmlns="http://www.w3.org/2000/svg" xmlns:xlink="http://www.w3.org/1999/xlink" width="500" height="50"><g><rect fill="#023429" x="0" y="0" width="5" height="50"/><rect fill="#343104" x="5" y="0" width="5" height="50"/><rect fill="#013510" x="10" y="0" width="5" height="50"/><rect fill="#023511" x="15" y="0" width="5" height="50"/><rect fill="#043a2e" x="20" y="0" width="5" height="50"/><rect fill="#033a1d" x="25" y="0" width="5" height="50"/><rect fill="#053a1c" x="30" y="0" width="5" height="50"/><rect fill="#3c2e00" x="35" y="0" width="5" height="50"/><rect fill="#033d30" x="40" y="0" width="5" height="50"/><rect fill="#3e3c03" x="45" y="0" width="5" height="50"/><rect fill="#053e2e" x="50" y="0" width="5" height="50"/><rect fill="#003f22" x="55" y="0" width="5" height="50"/><rect fill="#06401b" x="60" y="0" width="5" height="50"/><rect fill="#422100" x="65" y="0" width="5" height="50"/><rect fill="#044225" x="70" y="0" width="5" height="50"/><rect fill="#423b02" x="75" y="0" width="5" height="50"/><rect fill="#034234" x="80" y="0" width="5" height="50"/><rect fill="#024427" x="85" y="0" width="5" height="50"/><rect fill="#044420" x="90" y="0" width="5" height="50"/><rect fill="#014532" x="95" y="0" width="5" height="50"/><rect fill="#462103" x="100" y="0" width="5" height="50"/><rect fill="#474204" x="105" y="0" width="5" height="50"/><rect fill="#473a01" x="110" y="0" width="5" height="50"/><rect fill="#474202" x="115" y="0" width="5" height="50"/><rect fill="#484203" x="120" y="0" width="5" height="50"/><rect fill="#014839" x="125" y="0" width="5" height="50"/><rect fill="#014916" x="130" y="0" width="5" height="50"/><rect fill="#4a2b06" x="135" y="0" width="5" height="50"/><rect fill="#074a3a" x="140" y="0" width="5" height="50"/><rect fill="#054a23" x="145" y="0" width="5" height="50"/><rect fill="#4b2301" x="150" y="0" width="5" height="50"/><rect fill="#4b3902" x="155" y="0" width="5" height="50"/><rect fill="#004b27" x="160" y="0" width="5" height="50"/><rect fill="#044d37" x="165" y="0" width="5" height="50"/><rect fill="#024d30" x="170" y="0" width="5" height="50"/><rect fill="#004f23" x="175" y="0" width="5" height="50"/><rect fill="#504c02" x="180" y="0" width="5" height="50"/><rect fill="#504506" x="185" y="0" width="5" height="50"/><rect fill="#035015" x="190" y="0" width="5" height="50"/><rect fill="#08521c" x="195" y="0" width="5" height="50"/><rect fill="#534204" x="200" y="0" width="5" height="50"/><rect fill="#065331" x="205" y="0" width="5" height="50"/><rect fill="#085434" x="210" y="0" width="5" height="50"/><rect fill="#055536" x="215" y="0" width="5" height="50"/><rect fill="#07553f" x="220" y="0" width="5" height="50"/><rect fill="#06552e" x="225" y="0" width="5" height="50"/><rect fill="#564205" x="230" y="0" width="5" height="50"/><rect fill="#574403" x="235" y="0" width="5" height="50"/><rect fill="#593602" x="240" y="0" width="5" height="50"/><rect fill="#025941" x="245" y="0" width="5" height="50"/><rect fill="#593c01" x="250" y="0" width="5" height="50"/><rect fill="#cc630c" x="255" y="0" width="5" height="50"/><rect fill="#00cd2c" x="260" y="0" width="5" height="50"/><rect fill="#09cf68" x="265" y="0" width="5" height="50"/><rect fill="#04d0a1" x="270" y="0" width="5" height="50"/><rect fill="#d17a14" x="275" y="0" width="5" height="50"/><rect fill="#d2d104" x="280" y="0" width="5" height="50"/><rect fill="#00d67e" x="285" y="0" width="5" height="50"/><rect fill="#13d790" x="290" y="0" width="5" height="50"/><rect fill="#d8d012" x="295" y="0" width="5" height="50"/><rect fill="#0bddab" x="300" y="0" width="5" height="50"/><rect fill="#03dd70" x="305" y="0" width="5" height="50"/><rect fill="#11dd83" x="310" y="0" width="5" height="50"/><rect fill="#03de7c" x="315" y="0" width="5" height="50"/><rect fill="#10df42" x="320" y="0" width="5" height="50"/><rect fill="#07e0b1" x="325" y="0" width="5" height="50"/><rect fill="#04e14a" x="330" y="0" width="5" height="50"/><rect fill="#e2670a" x="335" y="0" width="5" height="50"/><rect fill="#e2d100" x="340" y="0" width="5" height="50"/><rect fill="#15e268" x="345" y="0" width="5" height="50"/><rect fill="#09e3a9" x="350" y="0" width="5" height="50"/><rect fill="#16e590" x="355" y="0" width="5" height="50"/><rect fill="#e5d702" x="360" y="0" width="5" height="50"/><rect fill="#e6850a" x="365" y="0" width="5" height="50"/><rect fill="#13e66b" x="370" y="0" width="5" height="50"/><rect fill="#e76b10" x="375" y="0" width="5" height="50"/><rect fill="#05e88f" x="380" y="0" width="5" height="50"/><rect fill="#e88107" x="385" y="0" width="5" height="50"/><rect fill="#11e95f" x="390" y="0" width="5" height="50"/><rect fill="#01eca1" x="395" y="0" width="5" height="50"/><rect fill="#0beda6" x="400" y="0" width="5" height="50"/><rect fill="#03ed48" x="405" y="0" width="5" height="50"/><rect fill="#0cee75" x="410" y="0" width="5" height="50"/><rect fill="#12f097" x="415" y="0" width="5" height="50"/><rect fill="#0bf1b3" x="420" y="0" width="5" height="50"/><rect fill="#f29707" x="425" y="0" width="5" height="50"/><rect fill="#15f3c1" x="430" y="0" width="5" height="50"/><rect fill="#f5f209" x="435" y="0" width="5" height="50"/><rect fill="#f5de12" x="440" y="0" width="5" height="50"/><rect fill="#f67616" x="445" y="0" width="5" height="50"/><rect fill="#f8ec02" x="450" y="0" width="5" height="50"/><rect fill="#f8f203" x="455" y="0" width="5" height="50"/><rect fill="#f99e0e" x="460" y="0" width="5" height="50"/><rect fill="#fab90d" x="465" y="0" width="5" height="50"/><rect fill="#02fa49" x="470" y="0" width="5" height="50"/><rect fill="#fcee16" x="475" y="0" width="5" height="50"/><rect fill="#08fcb5" x="480" y="0" width="5" height="50"/><rect fill="#13fdb9" x="485" y="0" width="5" height="50"/><rect fill="#08fe52" x="490" y="0" width="5" height="50"/><rect fill="#08feba" x="495" y="0" width="5" height="50"/></g></svg>