<svg version="1.1" xmlns="http://www.w3.org/2000/svg" xmlns:xlink="http://www.w3.org/1999/xlink" width="500" height="50"><g><rect fill="#c72b66" x="0" y="0" width="5" height="50"/><rect fill="#f70057" x="5" y="0" width="5" height="50"/><rect fill="#e9355c" x="10" y="0" width="5" height="50"/><rect fill="#bf0040" x="15" y="0" width="5" height="50"/><rect fill="#ff989e" x="20" y="0" width="5" height="50"/><rect fill="#d70034" x="25" y="0" width="5" height="50"/><rect fill="#ff626f" x="30" y="0" width="5" height="50"/><rect fill="#ff7f83" x="35" y="0" width="5" height="50"/><rect fill="#d8002e" x="40" y="0" width="5" height="50"/><rect fill="#de504e" x="45" y="0" width="5" height="50"/><rect fill="#ff9a8f" x="50" y="0" width="5" height="50"/><rect fill="#ff6d6a" x="55" y="0" width="5" height="50"/><rect fill="#ff573b" x="60" y="0" width="5" height="50"/><rect fill="#c8542e" x="65" y="0" width="5" height="50"/><rect fill="#ee5e00" x="70" y="0" width="5" height="50"/><rect fill="#ff9229" x="75" y="0" width="5" height="50"/><rect fill="#c3681b" x="80" y="0" width="5" height="50"/><rect fill="#ff9731" x="85" y="0" width="5" height="50"/><rect fill="#b65f00" x="90" y="0" width="5" height="50"/><rect fill="#cc6f00" x="95" y="0" width="5" height="50"/><rect fill="#aa5900" x="100" y="0" width="5" height="50"/><rect fill="#ffcf6c" x="105" y="0" width="5" height="50"/><rect fill="#ffc74d" x="110" y="0" width="5" height="50"/><rect fill="#da9a00" x="115" y="0" width="5" height="50"/><rect fill="#dcb000" x="120" y="0" width="5" height="50"/><rect fill="#735d00" x="125" y="0" width="5" height="50"/><rect fill="#7e6c00" x="130" y="0" width="5" height="50"/><rect fill="#b2ad00" x="135" y="0" width="5" height="50"/><rect fill="#7a8200" x="140" y="0" width="5" height="50"/><rect fill="#b2ba00" x="145" y="0" width="5" height="50"/><rect fill="#999e19" x="150" y="0" width="5" height="50"/><rect fill="#646f00" x="155" y="0" width="5" height="50"/><rect fill="#506a00" x="160" y="0" width="5" height="50"/><rect fill="#b7c545" x="165" y="0" width="5" height="50"/><rect fill="#537700" x="170" y="0" width="5" height="50"/><rect fill="#8aaa00" x="175" y="0" width="5" height="50"/><rect fill="#97c42c" x="180" y="0" width="5" height="50"/><rect fill="#a7d151" x="185" y="0" width="5" height="50"/><rect fill="#559c00" x="190" y="0" width="5" height="50"/><rect fill="#84d617" x="195" y="0" width="5" height="50"/><rect fill="#53be00" x="200" y="0" width="5" height="50"/><rect fill="#006f00" x="205" y="0" width="5" height="50"/><rect fill="#9ef473" x="210" y="0" width="5" height="50"/><rect fill="#00d46a" x="215" y="0" width="5" height="50"/><rect fill="#00ec7c" x="220" y="0" width="5" height="50"/><rect fill="#00d56c" x="225" y="0" width="5" height="50"/><rect fill="#00e38b" x="230" y="0" width="5" height="50"/><rect fill="#00e89d" x="235" y="0" width="5" height="50"/><rect fill="#00bd6a" x="240" y="0" width="5" height="50"/><rect fill="#00d89c" x="245" y="0" width="5" height="50"/><rect fill="#00885c" x="250" y="0" width="5" height="50"/><rect fill="#00bc9b" x="255" y="0" width="5" height="50"/><rect fill="#00cba1" x="260" y="0" width="5" height="50"/><rect fill="#009776" x="265" y="0" width="5" height="50"/><rect fill="#00debe" x="270" y="0" width="5" height="50"/><rect fill="#007e6f" x="275" y="0" width="5" height="50"/><rect fill="#009285" x="280" y="0" width="5" height="50"/><rect fill="#00c9d1" x="285" y="0" width="5" height="50"/><rect fill="#008ea4" x="290" y="0" width="5" height="50"/><rect fill="#00bae0" x="295" y="0" width="5" height="50"/><rect fill="#00faff" x="300" y="0" width="5" height="50"/><rect fill="#00f3ff" x="305" y="0" width="5" height="50"/><rect fill="#008dda" x="310" y="0" width="5" height="50"/><rect fill="#00deff" x="315" y="0" width="5" height="50"/><rect fill="#00c8ff" x="320" y="0" width="5" height="50"/><rect fill="#007acb" x="325" y="0" width="5" height="50"/><rect fill="#00d6ff" x="330" y="0" width="5" height="50"/><rect fill="#009cf5" x="335" y="0" width="5" height="50"/><rect fill="#0097f1" x="340" y="0" width="5" height="50"/><rect fill="#00a4ff" x="345" y="0" width="5" height="50"/><rect fill="#47deff" x="350" y="0" width="5" height="50"/><rect fill="#7ddcff" x="355" y="0" width="5" height="50"/><rect fill="#00a4ff" x="360" y="0" width="5" height="50"/><rect fill="#52c6ff" x="365" y="0" width="5" height="50"/><rect fill="#5eaeff" x="370" y="0" width="5" height="50"/><rect fill="#6fd4ff" x="375" y="0" width="5" height="50"/><rect fill="#0074ff" x="380" y="0" width="5" height="50"/><rect fill="#0067d7" x="385" y="0" width="5" height="50"/><rect fill="#9dccff" x="390" y="0" width="5" height="50"/><rect fill="#4ba8ff" x="395" y="0" width="5" height="50"/><rect fill="#7e90ff" x="400" y="0" width="5" height="50"/><rect fill="#545ff4" x="405" y="0" width="5" height="50"/><rect fill="#7f60f8" x="410" y="0" width="5" height="50"/><rect fill="#7f5ed8" x="415" y="0" width="5" height="50"/><rect fill="#8c61d0" x="420" y="0" width="5" height="50"/><rect fill="#8553c1" x="425" y="0" width="5" height="50"/><rect fill="#a466eb" x="430" y="0" width="5" height="50"/><rect fill="#d284ff" x="435" y="0" width="5" height="50"/><rect fill="#a149d9" x="440" y="0" width="5" height="50"/><rect fill="#a137ca" x="445" y="0" width="5" height="50"/><rect fill="#cd4fef" x="450" y="0" width="5" height="50"/><rect fill="#ee75fd" x="455" y="0" width="5" height="50"/><rect fill="#ff57f3" x="460" y="0" width="5" height="50"/><rect fill="#d05abf" x="465" y="0" width="5" height="50"/><rect fill="#ffa5fb" x="470" y="0" width="5" height="50"/><rect fill="#ff68de" x="475" y="0" width="5" height="50"/><rect fill="#b60084" x="480" y="0" width="5" height="50"/><rect fill="#ff4dbc" x="485" y="0" width="5" height="50"/><rect fill="#ff77ef" x="490" y="0" width="5" height="50"/><rect fill="#ff7dcd" x="495" y="0" width="5" height="50"/></g></svg>