<svg version="1.1" xmlns="http://www.w3.org/2000/svg" xmlns:xlink="http://www.w3.org/1999/xlink" width="500" height="50"><g><rect fill="#ffd2d4" x="0" y="0" width="5" height="50"/><rect fill="#5c9e98" x="5" y="0" width="5" height="50"/><rect fill="#dcdcdc" x="10" y="0" width="5" height="50"/><rect fill="#ffcada" x="15" y="0" width="5" height="50"/><rect fill="#d7b589" x="20" y="0" width="5" height="50"/><rect fill="#ffc5db" x="25" y="0" width="5" height="50"/><rect fill="#dfb78b" x="30" y="0" width="5" height="50"/><rect fill="#76c5c7" x="35" y="0" width="5" height="50"/><rect fill="#dadada" x="40" y="0" width="5" height="50"/><rect fill="#a59068" x="45" y="0" width="5" height="50"/><rect fill="#bababa" x="50" y="0" width="5" height="50"/><rect fill="#9e9868" x="55" y="0" width="5" height="50"/><rect fill="#c4c4c4" x="60" y="0" width="5" height="50"/><rect fill="#dfa2a0" x="65" y="0" width="5" height="50"/><rect fill="#e6a0ad" x="70" y="0" width="5" height="50"/><rect fill="#7cccc5" x="75" y="0" width="5" height="50"/><rect fill="#d8c19c" x="80" y="0" width="5" height="50"/><rect fill="#1d1d1d" x="85" y="0" width="5" height="50"/><rect fill="#b9828a" x="90" y="0" width="5" height="50"/><rect fill="#d58fa2" x="95" y="0" width="5" height="50"/><rect fill="#c5a276" x="100" y="0" width="5" height="50"/><rect fill="#6fb7b4" x="105" y="0" width="5" height="50"/><rect fill="#f8c5d8" x="110" y="0" width="5" height="50"/><rect fill="#9be4d8" x="115" y="0" width="5" height="50"/><rect fill="#cd989b" x="120" y="0" width="5" height="50"/><rect fill="#cb919c" x="125" y="0" width="5" height="50"/><rect fill="#ffd1dd" x="130" y="0" width="5" height="50"/><rect fill="#b2a67c" x="135" y="0" width="5" height="50"/><rect fill="#a29874" x="140" y="0" width="5" height="50"/><rect fill="#e6a0b7" x="145" y="0" width="5" height="50"/><rect fill="#1c1c1c" x="150" y="0" width="5" height="50"/><rect fill="#e0a0b7" x="155" y="0" width="5" height="50"/><rect fill="#c8c19a" x="160" y="0" width="5" height="50"/><rect fill="#1c1c1c" x="165" y="0" width="5" height="50"/><rect fill="#8ae2d7" x="170" y="0" width="5" height="50"/><rect fill="#e2aaae" x="175" y="0" width="5" height="50"/><rect fill="#87c1c3" x="180" y="0" width="5" height="50"/><rect fill="#1c1c1c" x="185" y="0" width="5" height="50"/><rect fill="#8ad8bf" x="190" y="0" width="5" height="50"/><rect fill="#202020" x="195" y="0" width="5" height="50"/><rect fill="#ead69f" x="200" y="0" width="5" height="50"/><rect fill="#ac9d72" x="205" y="0" width="5" height="50"/><rect fill="#232323" x="210" y="0" width="5" height="50"/><rect fill="#ecabbd" x="215" y="0" width="5" height="50"/><rect fill="#151515" x="220" y="0" width="5" height="50"/><rect fill="#dbdbdb" x="225" y="0" width="5" height="50"/><rect fill="#202020" x="230" y="0" width="5" height="50"/><rect fill="#a2a2a2" x="235" y="0" width="5" height="50"/><rect fill="#bc8187" x="240" y="0" width="5" height="50"/><rect fill="#a4e8dd" x="245" y="0" width="5" height="50"/><rect fill="#d3c68f" x="250" y="0" width="5" height="50"/><rect fill="#a2ded5" x="255" y="0" width="5" height="50"/><rect fill="#d9b693" x="260" y="0" width="5" height="50"/><rect fill="#cbbc8b" x="265" y="0" width="5" height="50"/><rect fill="#be9b7f" x="270" y="0" width="5" height="50"/><rect fill="#f6bac8" x="275" y="0" width="5" height="50"/><rect fill="#63a69b" x="280" y="0" width="5" height="50"/><rect fill="#d1b293" x="285" y="0" width="5" height="50"/><rect fill="#ffcfd9" x="290" y="0" width="5" height="50"/><rect fill="#a49370" x="295" y="0" width="5" height="50"/><rect fill="#d6c8a3" x="300" y="0" width="5" height="50"/><rect fill="#a6a6a6" x="305" y="0" width="5" height="50"/><rect fill="#202020" x="310" y="0" width="5" height="50"/><rect fill="#73b8a3" x="315" y="0" width="5" height="50"/><rect fill="#c8c8c8" x="320" y="0" width="5" height="50"/><rect fill="#f1dfb4" x="325" y="0" width="5" height="50"/><rect fill="#202020" x="330" y="0" width="5" height="50"/><rect fill="#ce9393" x="335" y="0" width="5" height="50"/><rect fill="#62b9b4" x="340" y="0" width="5" height="50"/><rect fill="#99dadb" x="345" y="0" width="5" height="50"/><rect fill="#232323" x="350" y="0" width="5" height="50"/><rect fill="#c6a588" x="355" y="0" width="5" height="50"/><rect fill="#ceb689" x="360" y="0" width="5" height="50"/><rect fill="#141414" x="365" y="0" width="5" height="50"/><rect fill="#d79995" x="370" y="0" width="5" height="50"/><rect fill="#65b9ac" x="375" y="0" width="5" height="50"/><rect fill="#c37f97" x="380" y="0" width="5" height="50"/><rect fill="#f1d8ad" x="385" y="0" width="5" height="50"/><rect fill="#4fa69f" x="390" y="0" width="5" height="50"/><rect fill="#9b9b9b" x="395" y="0" width="5" height="50"/><rect fill="#e8a6b8" x="400" y="0" width="5" height="50"/><rect fill="#8ed0cc" x="405" y="0" width="5" height="50"/><rect fill="#bca484" x="410" y="0" width="5" height="50"/><rect fill="#c0b790" x="415" y="0" width="5" height="50"/><rect fill="#c8a07a" x="420" y="0" width="5" height="50"/><rect fill="#73adaf" x="425" y="0" width="5" height="50"/><rect fill="#d3a0a4" x="430" y="0" width="5" height="50"/><rect fill="#be8587" x="435" y="0" width="5" height="50"/><rect fill="#c8c8c8" x="440" y="0" width="5" height="50"/><rect fill="#6cb1aa" x="445" y="0" width="5" height="50"/><rect fill="#bcbcbc" x="450" y="0" width="5" height="50"/><rect fill="#e8adc4" x="455" y="0" width="5" height="50"/><rect fill="#8adfd2" x="460" y="0" width="5" height="50"/><rect fill="#b6a576" x="465" y="0" width="5" height="50"/><rect fill="#b5ae83" x="470" y="0" width="5" height="50"/><rect fill="#a0e4e0" x="475" y="0" width="5" height="50"/><rect fill="#232323" x="480" y="0" width="5" height="50"/><rect fill="#1d1d1d" x="485" y="0" width="5" height="50"/><rect fill="#e1e1e1" x="490" y="0" width="5" height="50"/><rect fill="#979797" x="495" y="0" width="5" height="50"/></g></svg>