<svg version="1.1" xmlns="http://www.w3.org/2000/svg" xmlns:xlink="http://www.w3.org/1999/xlink" width="500" height="50"><g><rect fill="#ffb6f4" x="0" y="0" width="5" height="50"/><rect fill="#81fee7" x="5" y="0" width="5" height="50"/><rect fill="#ffe4ad" x="10" y="0" width="5" height="50"/><rect fill="#757575" x="15" y="0" width="5" height="50"/><rect fill="#00ffff" x="20" y="0" width="5" height="50"/><rect fill="#5ef9ff" x="25" y="0" width="5" height="50"/><rect fill="#5e5e5e" x="30" y="0" width="5" height="50"/><rect fill="#00ffff" x="35" y="0" width="5" height="50"/><rect fill="#5f5f5f" x="40" y="0" width="5" height="50"/><rect fill="#60fff6" x="45" y="0" width="5" height="50"/><rect fill="#595959" x="50" y="0" width="5" height="50"/><rect fill="#6b6b6b" x="55" y="0" width="5" height="50"/><rect fill="#8afff7" x="60" y="0" width="5" height="50"/><rect fill="#ffbebd" x="65" y="0" width="5" height="50"/><rect fill="#ffd671" x="70" y="0" width="5" height="50"/><rect fill="#ffdde0" x="75" y="0" width="5" height="50"/><rect fill="#ebebeb" x="80" y="0" width="5" height="50"/><rect fill="#ffefb4" x="85" y="0" width="5" height="50"/><rect fill="#00ffff" x="90" y="0" width="5" height="50"/><rect fill="#ffc5d6" x="95" y="0" width="5" height="50"/><rect fill="#bdbdbd" x="100" y="0" width="5" height="50"/><rect fill="#ffe178" x="105" y="0" width="5" height="50"/><rect fill="#ffd4e8" x="110" y="0" width="5" height="50"/><rect fill="#00ffff" x="115" y="0" width="5" height="50"/><rect fill="#ffe58c" x="120" y="0" width="5" height="50"/><rect fill="#ffea92" x="125" y="0" width="5" height="50"/><rect fill="#626262" x="130" y="0" width="5" height="50"/><rect fill="#dfdfdf" x="135" y="0" width="5" height="50"/><rect fill="#ffc7ff" x="140" y="0" width="5" height="50"/><rect fill="#ffc3e0" x="145" y="0" width="5" height="50"/><rect fill="#ffbec0" x="150" y="0" width="5" height="50"/><rect fill="#a7a7a7" x="155" y="0" width="5" height="50"/><rect fill="#d2d2d2" x="160" y="0" width="5" height="50"/><rect fill="#ffe7b0" x="165" y="0" width="5" height="50"/><rect fill="#ffd8a9" x="170" y="0" width="5" height="50"/><rect fill="#5f5f5f" x="175" y="0" width="5" height="50"/><rect fill="#80fff5" x="180" y="0" width="5" height="50"/><rect fill="#feef80" x="185" y="0" width="5" height="50"/><rect fill="#7affff" x="190" y="0" width="5" height="50"/><rect fill="#616161" x="195" y="0" width="5" height="50"/><rect fill="#ffbcc9" x="200" y="0" width="5" height="50"/><rect fill="#ffeda7" x="205" y="0" width="5" height="50"/><rect fill="#fff372" x="210" y="0" width="5" height="50"/><rect fill="#949494" x="215" y="0" width="5" height="50"/><rect fill="#585858" x="220" y="0" width="5" height="50"/><rect fill="#747474" x="225" y="0" width="5" height="50"/><rect fill="#ffc3e8" x="230" y="0" width="5" height="50"/><rect fill="#6cffe6" x="235" y="0" width="5" height="50"/><rect fill="#ffc7f8" x="240" y="0" width="5" height="50"/><rect fill="#ffbffc" x="245" y="0" width="5" height="50"/><rect fill="#ffc8dd" x="250" y="0" width="5" height="50"/><rect fill="#69ffed" x="255" y="0" width="5" height="50"/><rect fill="#979797" x="260" y="0" width="5" height="50"/><rect fill="#ffc9f5" x="265" y="0" width="5" height="50"/><rect fill="#00ffd1" x="270" y="0" width="5" height="50"/><rect fill="#ffce6f" x="275" y="0" width="5" height="50"/><rect fill="#949494" x="280" y="0" width="5" height="50"/><rect fill="#00ffff" x="285" y="0" width="5" height="50"/><rect fill="#ffeca1" x="290" y="0" width="5" height="50"/><rect fill="#777777" x="295" y="0" width="5" height="50"/><rect fill="#fefefe" x="300" y="0" width="5" height="50"/><rect fill="#ffcaf1" x="305" y="0" width="5" height="50"/><rect fill="#22ffff" x="310" y="0" width="5" height="50"/><rect fill="#5bffff" x="315" y="0" width="5" height="50"/><rect fill="#616161" x="320" y="0" width="5" height="50"/><rect fill="#ffdb7d" x="325" y="0" width="5" height="50"/><rect fill="#dbdbdb" x="330" y="0" width="5" height="50"/><rect fill="#ffd3e7" x="335" y="0" width="5" height="50"/><rect fill="#c4c4c4" x="340" y="0" width="5" height="50"/><rect fill="#e3e3e3" x="345" y="0" width="5" height="50"/><rect fill="#ededed" x="350" y="0" width="5" height="50"/><rect fill="#87fffd" x="355" y="0" width="5" height="50"/><rect fill="#ffc4ce" x="360" y="0" width="5" height="50"/><rect fill="#ffeca7" x="365" y="0" width="5" height="50"/><rect fill="#f1e55e" x="370" y="0" width="5" height="50"/><rect fill="#ffdf9d" x="375" y="0" width="5" height="50"/><rect fill="#ffe881" x="380" y="0" width="5" height="50"/><rect fill="#00ffff" x="385" y="0" width="5" height="50"/><rect fill="#7bffec" x="390" y="0" width="5" height="50"/><rect fill="#ffdeec" x="395" y="0" width="5" height="50"/><rect fill="#676767" x="400" y="0" width="5" height="50"/><rect fill="#afafaf" x="405" y="0" width="5" height="50"/><rect fill="#ffec95" x="410" y="0" width="5" height="50"/><rect fill="#707070" x="415" y="0" width="5" height="50"/><rect fill="#99ffff" x="420" y="0" width="5" height="50"/><rect fill="#94fff2" x="425" y="0" width="5" height="50"/><rect fill="#ffd5f4" x="430" y="0" width="5" height="50"/><rect fill="#ffdcf5" x="435" y="0" width="5" height="50"/><rect fill="#ffb1f7" x="440" y="0" width="5" height="50"/><rect fill="#87fffb" x="445" y="0" width="5" height="50"/><rect fill="#ffe68b" x="450" y="0" width="5" height="50"/><rect fill="#70ffff" x="455" y="0" width="5" height="50"/><rect fill="#faf1a0" x="460" y="0" width="5" height="50"/><rect fill="#fffca8" x="465" y="0" width="5" height="50"/><rect fill="#676767" x="470" y="0" width="5" height="50"/><rect fill="#f6e29c" x="475" y="0" width="5" height="50"/><rect fill="#ffc4fd" x="480" y="0" width="5" height="50"/><rect fill="#595959" x="485" y="0" width="5" height="50"/><rect fill="#c7c7c7" x="490" y="0" width="5" height="50"/><rect fill="#95f7e7" x="495" y="0" width="5" height="50"/></g></svg>