<svg version="1.1" xmlns="http://www.w3.org/2000/svg" xmlns:xlink="http://www.w3.org/1999/xlink" width="500" height="50"><g><rect fill="#fff6d5" x="0" y="0" width="5" height="50"/><rect fill="#fdeecd" x="5" y="0" width="5" height="50"/><rect fill="#eadebe" x="10" y="0" width="5" height="50"/><rect fill="#fffbd8" x="15" y="0" width="5" height="50"/><rect fill="#ede1b8" x="20" y="0" width="5" height="50"/><rect fill="#e3dab3" x="25" y="0" width="5" height="50"/><rect fill="#f5d9b8" x="30" y="0" width="5" height="50"/><rect fill="#e8cdb2" x="35" y="0" width="5" height="50"/><rect fill="#dcc8ac" x="40" y="0" width="5" height="50"/><rect fill="#ffdcb8" x="45" y="0" width="5" height="50"/><rect fill="#f1d8af" x="50" y="0" width="5" height="50"/><rect fill="#e0c6a5" x="55" y="0" width="5" height="50"/><rect fill="#ffe2b0" x="60" y="0" width="5" height="50"/><rect fill="#d8cea1" x="65" y="0" width="5" height="50"/><rect fill="#c1ba9c" x="70" y="0" width="5" height="50"/><rect fill="#c4bb95" x="75" y="0" width="5" height="50"/><rect fill="#c8b197" x="80" y="0" width="5" height="50"/><rect fill="#cfb892" x="85" y="0" width="5" height="50"/><rect fill="#ddb88c" x="90" y="0" width="5" height="50"/><rect fill="#bdaf88" x="95" y="0" width="5" height="50"/><rect fill="#c3a88a" x="100" y="0" width="5" height="50"/><rect fill="#cfb181" x="105" y="0" width="5" height="50"/><rect fill="#dffff6" x="110" y="0" width="5" height="50"/><rect fill="#cffaeb" x="115" y="0" width="5" height="50"/><rect fill="#bde5d9" x="120" y="0" width="5" height="50"/><rect fill="#c1f7ed" x="125" y="0" width="5" height="50"/><rect fill="#b2e1de" x="130" y="0" width="5" height="50"/><rect fill="#d2fff8" x="135" y="0" width="5" height="50"/><rect fill="#c1f5e2" x="140" y="0" width="5" height="50"/><rect fill="#a7d3cb" x="145" y="0" width="5" height="50"/><rect fill="#b1f2e7" x="150" y="0" width="5" height="50"/><rect fill="#aef8f7" x="155" y="0" width="5" height="50"/><rect fill="#beffed" x="160" y="0" width="5" height="50"/><rect fill="#aef6e6" x="165" y="0" width="5" height="50"/><rect fill="#9fc6b8" x="170" y="0" width="5" height="50"/><rect fill="#9ed6cc" x="175" y="0" width="5" height="50"/><rect fill="#9fe5dc" x="180" y="0" width="5" height="50"/><rect fill="#a2e1d0" x="185" y="0" width="5" height="50"/><rect fill="#95e1e2" x="190" y="0" width="5" height="50"/><rect fill="#98cbc2" x="195" y="0" width="5" height="50"/><rect fill="#97d9c9" x="200" y="0" width="5" height="50"/><rect fill="#96cdbe" x="205" y="0" width="5" height="50"/><rect fill="#8dcbc1" x="210" y="0" width="5" height="50"/><rect fill="#8db8ad" x="215" y="0" width="5" height="50"/><rect fill="#fbd6e3" x="220" y="0" width="5" height="50"/><rect fill="#fed5db" x="225" y="0" width="5" height="50"/><rect fill="#ffe7ee" x="230" y="0" width="5" height="50"/><rect fill="#ffebf5" x="235" y="0" width="5" height="50"/><rect fill="#ffeafe" x="240" y="0" width="5" height="50"/><rect fill="#f3c8d7" x="245" y="0" width="5" height="50"/><rect fill="#ffe4ee" x="250" y="0" width="5" height="50"/><rect fill="#eabfbf" x="255" y="0" width="5" height="50"/><rect fill="#ffceda" x="260" y="0" width="5" height="50"/><rect fill="#ffd4d1" x="265" y="0" width="5" height="50"/><rect fill="#ffddf4" x="270" y="0" width="5" height="50"/><rect fill="#ffc8e1" x="275" y="0" width="5" height="50"/><rect fill="#ffc3d3" x="280" y="0" width="5" height="50"/><rect fill="#edb5b1" x="285" y="0" width="5" height="50"/><rect fill="#fbb7c0" x="290" y="0" width="5" height="50"/><rect fill="#ffb8b4" x="295" y="0" width="5" height="50"/><rect fill="#c8a2a0" x="300" y="0" width="5" height="50"/><rect fill="#fcb3b4" x="305" y="0" width="5" height="50"/><rect fill="#d4a1a7" x="310" y="0" width="5" height="50"/><rect fill="#e5a5b4" x="315" y="0" width="5" height="50"/><rect fill="#e2a3b9" x="320" y="0" width="5" height="50"/><rect fill="#e7a3ac" x="325" y="0" width="5" height="50"/><rect fill="#8c8c8c" x="330" y="0" width="5" height="50"/><rect fill="#8b8b8b" x="335" y="0" width="5" height="50"/><rect fill="#868686" x="340" y="0" width="5" height="50"/><rect fill="#818181" x="345" y="0" width="5" height="50"/><rect fill="#808080" x="350" y="0" width="5" height="50"/><rect fill="#7f7f7f" x="355" y="0" width="5" height="50"/><rect fill="#767676" x="360" y="0" width="5" height="50"/><rect fill="#6b6b6b" x="365" y="0" width="5" height="50"/><rect fill="#676767" x="370" y="0" width="5" height="50"/><rect fill="#666666" x="375" y="0" width="5" height="50"/><rect fill="#656565" x="380" y="0" width="5" height="50"/><rect fill="#f2f2f2" x="385" y="0" width="5" height="50"/><rect fill="#eeeeee" x="390" y="0" width="5" height="50"/><rect fill="#e8e8e8" x="395" y="0" width="5" height="50"/><rect fill="#e2e2e2" x="400" y="0" width="5" height="50"/><rect fill="#dbdbdb" x="405" y="0" width="5" height="50"/><rect fill="#d9d9d9" x="410" y="0" width="5" height="50"/><rect fill="#d2d2d2" x="415" y="0" width="5" height="50"/><rect fill="#7d7d7d" x="420" y="0" width="5" height="50"/><rect fill="#7b7b7b" x="425" y="0" width="5" height="50"/><rect fill="#696969" x="430" y="0" width="5" height="50"/><rect fill="#686868" x="435" y="0" width="5" height="50"/><rect fill="#fdfdfd" x="440" y="0" width="5" height="50"/><rect fill="#fbfbfb" x="445" y="0" width="5" height="50"/><rect fill="#f7f7f7" x="450" y="0" width="5" height="50"/><rect fill="#f6f6f6" x="455" y="0" width="5" height="50"/><rect fill="#f2f2f2" x="460" y="0" width="5" height="50"/><rect fill="#e6e6e6" x="465" y="0" width="5" height="50"/><rect fill="#dddddd" x="470" y="0" width="5" height="50"/><rect fill="#d9d9d9" x="475" y="0" width="5" height="50"/><rect fill="#d8d8d8" x="480" y="0" width="5" height="50"/><rect fill="#d2d2d2" x="485" y="0" width="5" height="50"/><rect fill="#c9c9c9" x="490" y="0" width="5" height="50"/></g></svg>