<svg version="1.1" xmlns="http://www.w3.org/2000/svg" xmlns:xlink="http://www.w3.org/1999/xlink" width="500" height="50"><g><rect fill="#ff9ccb" x="0" y="0" width="5" height="50"/><rect fill="#ffade1" x="5" y="0" width="5" height="50"/><rect fill="#ffa3d7" x="10" y="0" width="5" height="50"/><rect fill="#ffd1e4" x="15" y="0" width="5" height="50"/><rect fill="#ffc2c6" x="20" y="0" width="5" height="50"/><rect fill="#ffcad0" x="25" y="0" width="5" height="50"/><rect fill="#ffb0b0" x="30" y="0" width="5" height="50"/><rect fill="#ff947c" x="35" y="0" width="5" height="50"/><rect fill="#ffccb0" x="40" y="0" width="5" height="50"/><rect fill="#ffb58c" x="45" y="0" width="5" height="50"/><rect fill="#ffcaa3" x="50" y="0" width="5" height="50"/><rect fill="#ffca9c" x="55" y="0" width="5" height="50"/><rect fill="#ffa975" x="60" y="0" width="5" height="50"/><rect fill="#ffe0aa" x="65" y="0" width="5" height="50"/><rect fill="#ffb453" x="70" y="0" width="5" height="50"/><rect fill="#ffc86e" x="75" y="0" width="5" height="50"/><rect fill="#ffeb87" x="80" y="0" width="5" height="50"/><rect fill="#ffcc48" x="85" y="0" width="5" height="50"/><rect fill="#ffe690" x="90" y="0" width="5" height="50"/><rect fill="#e9c664" x="95" y="0" width="5" height="50"/><rect fill="#f5ee92" x="100" y="0" width="5" height="50"/><rect fill="#dbdf59" x="105" y="0" width="5" height="50"/><rect fill="#f0ff6d" x="110" y="0" width="5" height="50"/><rect fill="#faffa7" x="115" y="0" width="5" height="50"/><rect fill="#c6dd5d" x="120" y="0" width="5" height="50"/><rect fill="#d4f75c" x="125" y="0" width="5" height="50"/><rect fill="#c0e973" x="130" y="0" width="5" height="50"/><rect fill="#bbee66" x="135" y="0" width="5" height="50"/><rect fill="#c6ff79" x="140" y="0" width="5" height="50"/><rect fill="#9cd860" x="145" y="0" width="5" height="50"/><rect fill="#addb81" x="150" y="0" width="5" height="50"/><rect fill="#baed8e" x="155" y="0" width="5" height="50"/><rect fill="#deffb7" x="160" y="0" width="5" height="50"/><rect fill="#9df76a" x="165" y="0" width="5" height="50"/><rect fill="#76f169" x="170" y="0" width="5" height="50"/><rect fill="#5dff84" x="175" y="0" width="5" height="50"/><rect fill="#9bffb3" x="180" y="0" width="5" height="50"/><rect fill="#7cea94" x="185" y="0" width="5" height="50"/><rect fill="#8bffb1" x="190" y="0" width="5" height="50"/><rect fill="#94eeac" x="195" y="0" width="5" height="50"/><rect fill="#b1ffc8" x="200" y="0" width="5" height="50"/><rect fill="#00e682" x="205" y="0" width="5" height="50"/><rect fill="#00ef88" x="210" y="0" width="5" height="50"/><rect fill="#50e99d" x="215" y="0" width="5" height="50"/><rect fill="#2dffc9" x="220" y="0" width="5" height="50"/><rect fill="#6cffd4" x="225" y="0" width="5" height="50"/><rect fill="#4fdeb2" x="230" y="0" width="5" height="50"/><rect fill="#49ffdc" x="235" y="0" width="5" height="50"/><rect fill="#84f7d7" x="240" y="0" width="5" height="50"/><rect fill="#65e9ca" x="245" y="0" width="5" height="50"/><rect fill="#22ffde" x="250" y="0" width="5" height="50"/><rect fill="#36ffe2" x="255" y="0" width="5" height="50"/><rect fill="#00f0cc" x="260" y="0" width="5" height="50"/><rect fill="#00efd1" x="265" y="0" width="5" height="50"/><rect fill="#85ffff" x="270" y="0" width="5" height="50"/><rect fill="#00ebd9" x="275" y="0" width="5" height="50"/><rect fill="#35e3d9" x="280" y="0" width="5" height="50"/><rect fill="#00e2d9" x="285" y="0" width="5" height="50"/><rect fill="#84ffff" x="290" y="0" width="5" height="50"/><rect fill="#65f2eb" x="295" y="0" width="5" height="50"/><rect fill="#00f3fa" x="300" y="0" width="5" height="50"/><rect fill="#00f8fd" x="305" y="0" width="5" height="50"/><rect fill="#4af4fd" x="310" y="0" width="5" height="50"/><rect fill="#2df8ff" x="315" y="0" width="5" height="50"/><rect fill="#79ffff" x="320" y="0" width="5" height="50"/><rect fill="#00ffff" x="325" y="0" width="5" height="50"/><rect fill="#00f4ff" x="330" y="0" width="5" height="50"/><rect fill="#27ebff" x="335" y="0" width="5" height="50"/><rect fill="#65ebff" x="340" y="0" width="5" height="50"/><rect fill="#00ffff" x="345" y="0" width="5" height="50"/><rect fill="#00efff" x="350" y="0" width="5" height="50"/><rect fill="#00ffff" x="355" y="0" width="5" height="50"/><rect fill="#00f4ff" x="360" y="0" width="5" height="50"/><rect fill="#00dcff" x="365" y="0" width="5" height="50"/><rect fill="#00fcff" x="370" y="0" width="5" height="50"/><rect fill="#32e0ff" x="375" y="0" width="5" height="50"/><rect fill="#84d6ff" x="380" y="0" width="5" height="50"/><rect fill="#a9dbff" x="385" y="0" width="5" height="50"/><rect fill="#87f0ff" x="390" y="0" width="5" height="50"/><rect fill="#a9e9ff" x="395" y="0" width="5" height="50"/><rect fill="#d2f4ff" x="400" y="0" width="5" height="50"/><rect fill="#bde6ff" x="405" y="0" width="5" height="50"/><rect fill="#b2cbff" x="410" y="0" width="5" height="50"/><rect fill="#d1d8ff" x="415" y="0" width="5" height="50"/><rect fill="#c5cbff" x="420" y="0" width="5" height="50"/><rect fill="#f8f2ff" x="425" y="0" width="5" height="50"/><rect fill="#c7c1ff" x="430" y="0" width="5" height="50"/><rect fill="#cfbdff" x="435" y="0" width="5" height="50"/><rect fill="#fdd3ff" x="440" y="0" width="5" height="50"/><rect fill="#f4cfff" x="445" y="0" width="5" height="50"/><rect fill="#f8c2ff" x="450" y="0" width="5" height="50"/><rect fill="#ffb7ff" x="455" y="0" width="5" height="50"/><rect fill="#ffb7ff" x="460" y="0" width="5" height="50"/><rect fill="#ffb8ff" x="465" y="0" width="5" height="50"/><rect fill="#ffb4ff" x="470" y="0" width="5" height="50"/><rect fill="#ffc7ff" x="475" y="0" width="5" height="50"/><rect fill="#ffc1ff" x="480" y="0" width="5" height="50"/><rect fill="#ffcbff" x="485" y="0" width="5" height="50"/><rect fill="#ffb0e6" x="490" y="0" width="5" height="50"/><rect fill="#ffdcfd" x="495" y="0" width="5" height="50"/></g></svg>