<svg version="1.1" xmlns="http://www.w3.org/2000/svg" xmlns:xlink="http://www.w3.org/1999/xlink" width="500" height="50"><g><rect fill="#6d5b00" x="0" y="0" width="5" height="50"/><rect fill="#a73700" x="5" y="0" width="5" height="50"/><rect fill="#8f4a00" x="10" y="0" width="5" height="50"/><rect fill="#883f00" x="15" y="0" width="5" height="50"/><rect fill="#685000" x="20" y="0" width="5" height="50"/><rect fill="#913200" x="25" y="0" width="5" height="50"/><rect fill="#555500" x="30" y="0" width="5" height="50"/><rect fill="#7f3c00" x="35" y="0" width="5" height="50"/><rect fill="#862900" x="40" y="0" width="5" height="50"/><rect fill="#713200" x="45" y="0" width="5" height="50"/><rect fill="#7f1000" x="50" y="0" width="5" height="50"/><rect fill="#732200" x="55" y="0" width="5" height="50"/><rect fill="#6c2500" x="60" y="0" width="5" height="50"/><rect fill="#761c00" x="65" y="0" width="5" height="50"/><rect fill="#493300" x="70" y="0" width="5" height="50"/><rect fill="#523000" x="75" y="0" width="5" height="50"/><rect fill="#4b3200" x="80" y="0" width="5" height="50"/><rect fill="#422500" x="85" y="0" width="5" height="50"/><rect fill="#570d00" x="90" y="0" width="5" height="50"/><rect fill="#431f00" x="95" y="0" width="5" height="50"/><rect fill="#570400" x="100" y="0" width="5" height="50"/><rect fill="#4c1700" x="105" y="0" width="5" height="50"/><rect fill="#00746e" x="110" y="0" width="5" height="50"/><rect fill="#006f3f" x="115" y="0" width="5" height="50"/><rect fill="#006e88" x="120" y="0" width="5" height="50"/><rect fill="#006e37" x="125" y="0" width="5" height="50"/><rect fill="#00696a" x="130" y="0" width="5" height="50"/><rect fill="#00655b" x="135" y="0" width="5" height="50"/><rect fill="#006842" x="140" y="0" width="5" height="50"/><rect fill="#006270" x="145" y="0" width="5" height="50"/><rect fill="#00644d" x="150" y="0" width="5" height="50"/><rect fill="#005e60" x="155" y="0" width="5" height="50"/><rect fill="#005b56" x="160" y="0" width="5" height="50"/><rect fill="#00574d" x="165" y="0" width="5" height="50"/><rect fill="#005265" x="170" y="0" width="5" height="50"/><rect fill="#004c47" x="175" y="0" width="5" height="50"/><rect fill="#004727" x="180" y="0" width="5" height="50"/><rect fill="#004457" x="185" y="0" width="5" height="50"/><rect fill="#004434" x="190" y="0" width="5" height="50"/><rect fill="#003f3d" x="195" y="0" width="5" height="50"/><rect fill="#003d40" x="200" y="0" width="5" height="50"/><rect fill="#003b54" x="205" y="0" width="5" height="50"/><rect fill="#003e36" x="210" y="0" width="5" height="50"/><rect fill="#003d3f" x="215" y="0" width="5" height="50"/><rect fill="#d90038" x="220" y="0" width="5" height="50"/><rect fill="#cf002b" x="225" y="0" width="5" height="50"/><rect fill="#cb0033" x="230" y="0" width="5" height="50"/><rect fill="#ca0033" x="235" y="0" width="5" height="50"/><rect fill="#b60029" x="240" y="0" width="5" height="50"/><rect fill="#b10026" x="245" y="0" width="5" height="50"/><rect fill="#a90059" x="250" y="0" width="5" height="50"/><rect fill="#bf0056" x="255" y="0" width="5" height="50"/><rect fill="#b1002b" x="260" y="0" width="5" height="50"/><rect fill="#ac0051" x="265" y="0" width="5" height="50"/><rect fill="#aa0042" x="270" y="0" width="5" height="50"/><rect fill="#970039" x="275" y="0" width="5" height="50"/><rect fill="#a20036" x="280" y="0" width="5" height="50"/><rect fill="#a80044" x="285" y="0" width="5" height="50"/><rect fill="#850011" x="290" y="0" width="5" height="50"/><rect fill="#88003c" x="295" y="0" width="5" height="50"/><rect fill="#8e0031" x="300" y="0" width="5" height="50"/><rect fill="#95001f" x="305" y="0" width="5" height="50"/><rect fill="#880018" x="310" y="0" width="5" height="50"/><rect fill="#800009" x="315" y="0" width="5" height="50"/><rect fill="#86000c" x="320" y="0" width="5" height="50"/><rect fill="#84003a" x="325" y="0" width="5" height="50"/><rect fill="#555555" x="330" y="0" width="5" height="50"/><rect fill="#494949" x="335" y="0" width="5" height="50"/><rect fill="#444444" x="340" y="0" width="5" height="50"/><rect fill="#424242" x="345" y="0" width="5" height="50"/><rect fill="#363636" x="350" y="0" width="5" height="50"/><rect fill="#282828" x="355" y="0" width="5" height="50"/><rect fill="#202020" x="360" y="0" width="5" height="50"/><rect fill="#1f1f1f" x="365" y="0" width="5" height="50"/><rect fill="#1e1e1e" x="370" y="0" width="5" height="50"/><rect fill="#1e1e1e" x="375" y="0" width="5" height="50"/><rect fill="#040404" x="380" y="0" width="5" height="50"/><rect fill="#7f7f7f" x="385" y="0" width="5" height="50"/><rect fill="#7d7d7d" x="390" y="0" width="5" height="50"/><rect fill="#7a7a7a" x="395" y="0" width="5" height="50"/><rect fill="#6e6e6e" x="400" y="0" width="5" height="50"/><rect fill="#686868" x="405" y="0" width="5" height="50"/><rect fill="#656565" x="410" y="0" width="5" height="50"/><rect fill="#4e4e4e" x="415" y="0" width="5" height="50"/><rect fill="#484848" x="420" y="0" width="5" height="50"/><rect fill="#333333" x="425" y="0" width="5" height="50"/><rect fill="#0a0a0a" x="430" y="0" width="5" height="50"/><rect fill="#060606" x="435" y="0" width="5" height="50"/><rect fill="#8d8d8d" x="440" y="0" width="5" height="50"/><rect fill="#8a8a8a" x="445" y="0" width="5" height="50"/><rect fill="#838383" x="450" y="0" width="5" height="50"/><rect fill="#7e7e7e" x="455" y="0" width="5" height="50"/><rect fill="#7c7c7c" x="460" y="0" width="5" height="50"/><rect fill="#7c7c7c" x="465" y="0" width="5" height="50"/><rect fill="#7a7a7a" x="470" y="0" width="5" height="50"/><rect fill="#696969" x="475" y="0" width="5" height="50"/><rect fill="#636363" x="480" y="0" width="5" height="50"/><rect fill="#636363" x="485" y="0" width="5" height="50"/><rect fill="#636363" x="490" y="0" width="5" height="50"/></g></svg>