<svg version="1.1" xmlns="http://www.w3.org/2000/svg" xmlns:xlink="http://www.w3.org/1999/xlink" width="500" height="50"><g><rect fill="#521200" x="0" y="0" width="5" height="50"/><rect fill="#007448" x="5" y="0" width="5" height="50"/><rect fill="#bc0036" x="10" y="0" width="5" height="50"/><rect fill="#4b3700" x="15" y="0" width="5" height="50"/><rect fill="#003c18" x="20" y="0" width="5" height="50"/><rect fill="#00424b" x="25" y="0" width="5" height="50"/><rect fill="#004213" x="30" y="0" width="5" height="50"/><rect fill="#004754" x="35" y="0" width="5" height="50"/><rect fill="#005329" x="40" y="0" width="5" height="50"/><rect fill="#8d0018" x="45" y="0" width="5" height="50"/><rect fill="#6a6a6a" x="50" y="0" width="5" height="50"/><rect fill="#9e0033" x="55" y="0" width="5" height="50"/><rect fill="#484848" x="60" y="0" width="5" height="50"/><rect fill="#8d0045" x="65" y="0" width="5" height="50"/><rect fill="#c8005a" x="70" y="0" width="5" height="50"/><rect fill="#3b3b3b" x="75" y="0" width="5" height="50"/><rect fill="#004a38" x="80" y="0" width="5" height="50"/><rect fill="#5f4f00" x="85" y="0" width="5" height="50"/><rect fill="#006e60" x="90" y="0" width="5" height="50"/><rect fill="#626262" x="95" y="0" width="5" height="50"/><rect fill="#553200" x="100" y="0" width="5" height="50"/><rect fill="#92001c" x="105" y="0" width="5" height="50"/><rect fill="#7a7a7a" x="110" y="0" width="5" height="50"/><rect fill="#682700" x="115" y="0" width="5" height="50"/><rect fill="#00714b" x="120" y="0" width="5" height="50"/><rect fill="#6b6b6b" x="125" y="0" width="5" height="50"/><rect fill="#744c00" x="130" y="0" width="5" height="50"/><rect fill="#720000" x="135" y="0" width="5" height="50"/><rect fill="#7a7a7a" x="140" y="0" width="5" height="50"/><rect fill="#432400" x="145" y="0" width="5" height="50"/><rect fill="#004051" x="150" y="0" width="5" height="50"/><rect fill="#8c0040" x="155" y="0" width="5" height="50"/><rect fill="#804900" x="160" y="0" width="5" height="50"/><rect fill="#a4002b" x="165" y="0" width="5" height="50"/><rect fill="#717171" x="170" y="0" width="5" height="50"/><rect fill="#a10038" x="175" y="0" width="5" height="50"/><rect fill="#004142" x="180" y="0" width="5" height="50"/><rect fill="#7c7c7c" x="185" y="0" width="5" height="50"/><rect fill="#544c00" x="190" y="0" width="5" height="50"/><rect fill="#7c3300" x="195" y="0" width="5" height="50"/><rect fill="#00694d" x="200" y="0" width="5" height="50"/><rect fill="#ac0029" x="205" y="0" width="5" height="50"/><rect fill="#4c1a00" x="210" y="0" width="5" height="50"/><rect fill="#a5002b" x="215" y="0" width="5" height="50"/><rect fill="#212121" x="220" y="0" width="5" height="50"/><rect fill="#82003f" x="225" y="0" width="5" height="50"/><rect fill="#c30030" x="230" y="0" width="5" height="50"/><rect fill="#545454" x="235" y="0" width="5" height="50"/><rect fill="#442200" x="240" y="0" width="5" height="50"/><rect fill="#303030" x="245" y="0" width="5" height="50"/><rect fill="#7a7a7a" x="250" y="0" width="5" height="50"/><rect fill="#141414" x="255" y="0" width="5" height="50"/><rect fill="#561a00" x="260" y="0" width="5" height="50"/><rect fill="#be0024" x="265" y="0" width="5" height="50"/><rect fill="#5f5700" x="270" y="0" width="5" height="50"/><rect fill="#635f00" x="275" y="0" width="5" height="50"/><rect fill="#5f5f5f" x="280" y="0" width="5" height="50"/><rect fill="#004e6c" x="285" y="0" width="5" height="50"/><rect fill="#202020" x="290" y="0" width="5" height="50"/><rect fill="#6b6b6b" x="295" y="0" width="5" height="50"/><rect fill="#b40034" x="300" y="0" width="5" height="50"/><rect fill="#005a2e" x="305" y="0" width="5" height="50"/><rect fill="#d5006d" x="310" y="0" width="5" height="50"/><rect fill="#c20059" x="315" y="0" width="5" height="50"/><rect fill="#8a8a8a" x="320" y="0" width="5" height="50"/><rect fill="#8c8c8c" x="325" y="0" width="5" height="50"/><rect fill="#a70055" x="330" y="0" width="5" height="50"/><rect fill="#605600" x="335" y="0" width="5" height="50"/><rect fill="#030303" x="340" y="0" width="5" height="50"/><rect fill="#521100" x="345" y="0" width="5" height="50"/><rect fill="#983700" x="350" y="0" width="5" height="50"/><rect fill="#5d5b00" x="355" y="0" width="5" height="50"/><rect fill="#003f55" x="360" y="0" width="5" height="50"/><rect fill="#722a00" x="365" y="0" width="5" height="50"/><rect fill="#003e58" x="370" y="0" width="5" height="50"/><rect fill="#505050" x="375" y="0" width="5" height="50"/><rect fill="#006f4e" x="380" y="0" width="5" height="50"/><rect fill="#3b3b3b" x="385" y="0" width="5" height="50"/><rect fill="#9c0032" x="390" y="0" width="5" height="50"/><rect fill="#764e00" x="395" y="0" width="5" height="50"/><rect fill="#757575" x="400" y="0" width="5" height="50"/><rect fill="#434343" x="405" y="0" width="5" height="50"/><rect fill="#5a2b00" x="410" y="0" width="5" height="50"/><rect fill="#005033" x="415" y="0" width="5" height="50"/><rect fill="#005e49" x="420" y="0" width="5" height="50"/><rect fill="#9a0034" x="425" y="0" width="5" height="50"/><rect fill="#97000c" x="430" y="0" width="5" height="50"/><rect fill="#606060" x="435" y="0" width="5" height="50"/><rect fill="#003b26" x="440" y="0" width="5" height="50"/><rect fill="#828282" x="445" y="0" width="5" height="50"/><rect fill="#914400" x="450" y="0" width="5" height="50"/><rect fill="#777777" x="455" y="0" width="5" height="50"/><rect fill="#8e0007" x="460" y="0" width="5" height="50"/><rect fill="#830029" x="465" y="0" width="5" height="50"/><rect fill="#494949" x="470" y="0" width="5" height="50"/><rect fill="#a20030" x="475" y="0" width="5" height="50"/><rect fill="#c90054" x="480" y="0" width="5" height="50"/><rect fill="#070707" x="485" y="0" width="5" height="50"/><rect fill="#d60041" x="490" y="0" width="5" height="50"/><rect fill="#494949" x="495" y="0" width="5" height="50"/></g></svg>