<svg version="1.1" xmlns="http://www.w3.org/2000/svg" xmlns:xlink="http://www.w3.org/1999/xlink" width="500" height="50"><g><rect fill="#271403" x="0" y="0" width="5" height="50"/><rect fill="#0a271e" x="5" y="0" width="5" height="50"/><rect fill="#01281b" x="10" y="0" width="5" height="50"/><rect fill="#292102" x="15" y="0" width="5" height="50"/><rect fill="#291803" x="20" y="0" width="5" height="50"/><rect fill="#082a1f" x="25" y="0" width="5" height="50"/><rect fill="#2a220c" x="30" y="0" width="5" height="50"/><rect fill="#2b1c05" x="35" y="0" width="5" height="50"/><rect fill="#002d0d" x="40" y="0" width="5" height="50"/><rect fill="#2e210c" x="45" y="0" width="5" height="50"/><rect fill="#082e15" x="50" y="0" width="5" height="50"/><rect fill="#0b2e24" x="55" y="0" width="5" height="50"/><rect fill="#042f18" x="60" y="0" width="5" height="50"/><rect fill="#0e2f27" x="65" y="0" width="5" height="50"/><rect fill="#073019" x="70" y="0" width="5" height="50"/><rect fill="#0b3026" x="75" y="0" width="5" height="50"/><rect fill="#312804" x="80" y="0" width="5" height="50"/><rect fill="#093327" x="85" y="0" width="5" height="50"/><rect fill="#34210a" x="90" y="0" width="5" height="50"/><rect fill="#063426" x="95" y="0" width="5" height="50"/><rect fill="#0b352b" x="100" y="0" width="5" height="50"/><rect fill="#362006" x="105" y="0" width="5" height="50"/><rect fill="#0b3718" x="110" y="0" width="5" height="50"/><rect fill="#053713" x="115" y="0" width="5" height="50"/><rect fill="#083829" x="120" y="0" width="5" height="50"/><rect fill="#08382e" x="125" y="0" width="5" height="50"/><rect fill="#392a06" x="130" y="0" width="5" height="50"/><rect fill="#053a24" x="135" y="0" width="5" height="50"/><rect fill="#113a2a" x="140" y="0" width="5" height="50"/><rect fill="#043b1d" x="145" y="0" width="5" height="50"/><rect fill="#0f3b32" x="150" y="0" width="5" height="50"/><rect fill="#3b360e" x="155" y="0" width="5" height="50"/><rect fill="#3c320e" x="160" y="0" width="5" height="50"/><rect fill="#3c270a" x="165" y="0" width="5" height="50"/><rect fill="#113c27" x="170" y="0" width="5" height="50"/><rect fill="#3c3a04" x="175" y="0" width="5" height="50"/><rect fill="#093d32" x="180" y="0" width="5" height="50"/><rect fill="#063d21" x="185" y="0" width="5" height="50"/><rect fill="#123d31" x="190" y="0" width="5" height="50"/><rect fill="#0f3f2a" x="195" y="0" width="5" height="50"/><rect fill="#40370c" x="200" y="0" width="5" height="50"/><rect fill="#024022" x="205" y="0" width="5" height="50"/><rect fill="#05401c" x="210" y="0" width="5" height="50"/><rect fill="#03411c" x="215" y="0" width="5" height="50"/><rect fill="#412006" x="220" y="0" width="5" height="50"/><rect fill="#412e0a" x="225" y="0" width="5" height="50"/><rect fill="#413e03" x="230" y="0" width="5" height="50"/><rect fill="#054134" x="235" y="0" width="5" height="50"/><rect fill="#42340d" x="240" y="0" width="5" height="50"/><rect fill="#423410" x="245" y="0" width="5" height="50"/><rect fill="#02431f" x="250" y="0" width="5" height="50"/><rect fill="#433701" x="255" y="0" width="5" height="50"/><rect fill="#124527" x="260" y="0" width="5" height="50"/><rect fill="#0e4538" x="265" y="0" width="5" height="50"/><rect fill="#0e451b" x="270" y="0" width="5" height="50"/><rect fill="#12463b" x="275" y="0" width="5" height="50"/><rect fill="#46430c" x="280" y="0" width="5" height="50"/><rect fill="#004827" x="285" y="0" width="5" height="50"/><rect fill="#0e483b" x="290" y="0" width="5" height="50"/><rect fill="#0e492b" x="295" y="0" width="5" height="50"/><rect fill="#124a23" x="300" y="0" width="5" height="50"/><rect fill="#124a3d" x="305" y="0" width="5" height="50"/><rect fill="#4a3507" x="310" y="0" width="5" height="50"/><rect fill="#054a18" x="315" y="0" width="5" height="50"/><rect fill="#4c3e07" x="320" y="0" width="5" height="50"/><rect fill="#014c1c" x="325" y="0" width="5" height="50"/><rect fill="#014c27" x="330" y="0" width="5" height="50"/><rect fill="#4c380c" x="335" y="0" width="5" height="50"/><rect fill="#4d4d01" x="340" y="0" width="5" height="50"/><rect fill="#4d2f0d" x="345" y="0" width="5" height="50"/><rect fill="#0c4e3b" x="350" y="0" width="5" height="50"/><rect fill="#0e5028" x="355" y="0" width="5" height="50"/><rect fill="#503a12" x="360" y="0" width="5" height="50"/><rect fill="#085037" x="365" y="0" width="5" height="50"/><rect fill="#0c5035" x="370" y="0" width="5" height="50"/><rect fill="#0e5236" x="375" y="0" width="5" height="50"/><rect fill="#125224" x="380" y="0" width="5" height="50"/><rect fill="#533015" x="385" y="0" width="5" height="50"/><rect fill="#542906" x="390" y="0" width="5" height="50"/><rect fill="#08541a" x="395" y="0" width="5" height="50"/><rect fill="#06542a" x="400" y="0" width="5" height="50"/><rect fill="#54460d" x="405" y="0" width="5" height="50"/><rect fill="#19542b" x="410" y="0" width="5" height="50"/><rect fill="#564c04" x="415" y="0" width="5" height="50"/><rect fill="#583903" x="420" y="0" width="5" height="50"/><rect fill="#0a5c43" x="425" y="0" width="5" height="50"/><rect fill="#5d4508" x="430" y="0" width="5" height="50"/><rect fill="#1b5e2f" x="435" y="0" width="5" height="50"/><rect fill="#0e5f25" x="440" y="0" width="5" height="50"/><rect fill="#155f47" x="445" y="0" width="5" height="50"/><rect fill="#5f4e04" x="450" y="0" width="5" height="50"/><rect fill="#604f1a" x="455" y="0" width="5" height="50"/><rect fill="#146147" x="460" y="0" width="5" height="50"/><rect fill="#615616" x="465" y="0" width="5" height="50"/><rect fill="#186143" x="470" y="0" width="5" height="50"/><rect fill="#03612b" x="475" y="0" width="5" height="50"/><rect fill="#625919" x="480" y="0" width="5" height="50"/><rect fill="#096223" x="485" y="0" width="5" height="50"/><rect fill="#076347" x="490" y="0" width="5" height="50"/><rect fill="#17664f" x="495" y="0" width="5" height="50"/></g></svg>