<svg version="1.1" xmlns="http://www.w3.org/2000/svg" xmlns:xlink="http://www.w3.org/1999/xlink" width="500" height="50"><g><rect fill="#fef9ec" x="0" y="0" width="5" height="50"/><rect fill="#f2f0e2" x="5" y="0" width="5" height="50"/><rect fill="#e9e3da" x="10" y="0" width="5" height="50"/><rect fill="#ebe1d8" x="15" y="0" width="5" height="50"/><rect fill="#fff4e6" x="20" y="0" width="5" height="50"/><rect fill="#fffbe7" x="25" y="0" width="5" height="50"/><rect fill="#f6e8da" x="30" y="0" width="5" height="50"/><rect fill="#fff5e4" x="35" y="0" width="5" height="50"/><rect fill="#fdf3df" x="40" y="0" width="5" height="50"/><rect fill="#fdf2de" x="45" y="0" width="5" height="50"/><rect fill="#f4f0da" x="50" y="0" width="5" height="50"/><rect fill="#fbf2db" x="55" y="0" width="5" height="50"/><rect fill="#fcf5dd" x="60" y="0" width="5" height="50"/><rect fill="#e8e3cf" x="65" y="0" width="5" height="50"/><rect fill="#fffbe3" x="70" y="0" width="5" height="50"/><rect fill="#fffce0" x="75" y="0" width="5" height="50"/><rect fill="#fff3db" x="80" y="0" width="5" height="50"/><rect fill="#fffedd" x="85" y="0" width="5" height="50"/><rect fill="#fde5d0" x="90" y="0" width="5" height="50"/><rect fill="#fceacb" x="95" y="0" width="5" height="50"/><rect fill="#fff3d0" x="100" y="0" width="5" height="50"/><rect fill="#feddc2" x="105" y="0" width="5" height="50"/><rect fill="#eaf9f8" x="110" y="0" width="5" height="50"/><rect fill="#e6f9f6" x="115" y="0" width="5" height="50"/><rect fill="#e1f5f1" x="120" y="0" width="5" height="50"/><rect fill="#ecffff" x="125" y="0" width="5" height="50"/><rect fill="#e1f7ee" x="130" y="0" width="5" height="50"/><rect fill="#e0fdff" x="135" y="0" width="5" height="50"/><rect fill="#ddf7f3" x="140" y="0" width="5" height="50"/><rect fill="#e9fffe" x="145" y="0" width="5" height="50"/><rect fill="#e5ffff" x="150" y="0" width="5" height="50"/><rect fill="#d8f5ed" x="155" y="0" width="5" height="50"/><rect fill="#e0fff9" x="160" y="0" width="5" height="50"/><rect fill="#e5fff9" x="165" y="0" width="5" height="50"/><rect fill="#e3fff9" x="170" y="0" width="5" height="50"/><rect fill="#ddfff3" x="175" y="0" width="5" height="50"/><rect fill="#dfffff" x="180" y="0" width="5" height="50"/><rect fill="#d9feef" x="185" y="0" width="5" height="50"/><rect fill="#ccf3e9" x="190" y="0" width="5" height="50"/><rect fill="#d1f9ed" x="195" y="0" width="5" height="50"/><rect fill="#d2ffff" x="200" y="0" width="5" height="50"/><rect fill="#c8f7f0" x="205" y="0" width="5" height="50"/><rect fill="#c8fcfb" x="210" y="0" width="5" height="50"/><rect fill="#ccfffc" x="215" y="0" width="5" height="50"/><rect fill="#fff3f2" x="220" y="0" width="5" height="50"/><rect fill="#fff1f6" x="225" y="0" width="5" height="50"/><rect fill="#f6e7e8" x="230" y="0" width="5" height="50"/><rect fill="#f3e4e3" x="235" y="0" width="5" height="50"/><rect fill="#f6e4e7" x="240" y="0" width="5" height="50"/><rect fill="#f3e1e5" x="245" y="0" width="5" height="50"/><rect fill="#fff5fc" x="250" y="0" width="5" height="50"/><rect fill="#f6e1e1" x="255" y="0" width="5" height="50"/><rect fill="#ffeff7" x="260" y="0" width="5" height="50"/><rect fill="#f4dde6" x="265" y="0" width="5" height="50"/><rect fill="#fde2e9" x="270" y="0" width="5" height="50"/><rect fill="#ffe5f0" x="275" y="0" width="5" height="50"/><rect fill="#fff5f7" x="280" y="0" width="5" height="50"/><rect fill="#ffe7ec" x="285" y="0" width="5" height="50"/><rect fill="#ffdbd9" x="290" y="0" width="5" height="50"/><rect fill="#ffdfe6" x="295" y="0" width="5" height="50"/><rect fill="#ffeaeb" x="300" y="0" width="5" height="50"/><rect fill="#ffe9f5" x="305" y="0" width="5" height="50"/><rect fill="#ffd9e1" x="310" y="0" width="5" height="50"/><rect fill="#ffebed" x="315" y="0" width="5" height="50"/><rect fill="#fff0f2" x="320" y="0" width="5" height="50"/><rect fill="#ffe1e9" x="325" y="0" width="5" height="50"/><rect fill="#eeeeee" x="330" y="0" width="5" height="50"/><rect fill="#ececec" x="335" y="0" width="5" height="50"/><rect fill="#ececec" x="340" y="0" width="5" height="50"/><rect fill="#c6c6c6" x="345" y="0" width="5" height="50"/><rect fill="#c3c3c3" x="350" y="0" width="5" height="50"/><rect fill="#b3b3b3" x="355" y="0" width="5" height="50"/><rect fill="#9d9d9d" x="360" y="0" width="5" height="50"/><rect fill="#959595" x="365" y="0" width="5" height="50"/><rect fill="#8b8b8b" x="370" y="0" width="5" height="50"/><rect fill="#7f7f7f" x="375" y="0" width="5" height="50"/><rect fill="#3d3d3d" x="380" y="0" width="5" height="50"/><rect fill="#fdfdfd" x="385" y="0" width="5" height="50"/><rect fill="#f5f5f5" x="390" y="0" width="5" height="50"/><rect fill="#e0e0e0" x="395" y="0" width="5" height="50"/><rect fill="#c4c4c4" x="400" y="0" width="5" height="50"/><rect fill="#9e9e9e" x="405" y="0" width="5" height="50"/><rect fill="#9a9a9a" x="410" y="0" width="5" height="50"/><rect fill="#979797" x="415" y="0" width="5" height="50"/><rect fill="#898989" x="420" y="0" width="5" height="50"/><rect fill="#6f6f6f" x="425" y="0" width="5" height="50"/><rect fill="#353535" x="430" y="0" width="5" height="50"/><rect fill="#0a0a0a" x="435" y="0" width="5" height="50"/><rect fill="#ffffff" x="440" y="0" width="5" height="50"/><rect fill="#fdfdfd" x="445" y="0" width="5" height="50"/><rect fill="#fcfcfc" x="450" y="0" width="5" height="50"/><rect fill="#f9f9f9" x="455" y="0" width="5" height="50"/><rect fill="#f9f9f9" x="460" y="0" width="5" height="50"/><rect fill="#f8f8f8" x="465" y="0" width="5" height="50"/><rect fill="#f6f6f6" x="470" y="0" width="5" height="50"/><rect fill="#f5f5f5" x="475" y="0" width="5" height="50"/><rect fill="#f4f4f4" x="480" y="0" width="5" height="50"/><rect fill="#f2f2f2" x="485" y="0" width="5" height="50"/><rect fill="#f2f2f2" x="490" y="0" width="5" height="50"/></g></svg>