<svg version="1.1" xmlns="http://www.w3.org/2000/svg" xmlns:xlink="http://www.w3.org/1999/xlink" width="500" height="50"><g><rect fill="#015512" x="0" y="0" width="5" height="50"/><rect fill="#023e0e" x="5" y="0" width="5" height="50"/><rect fill="#02e332" x="10" y="0" width="5" height="50"/><rect fill="#13cd3b" x="15" y="0" width="5" height="50"/><rect fill="#044612" x="20" y="0" width="5" height="50"/><rect fill="#06f33a" x="25" y="0" width="5" height="50"/><rect fill="#15de42" x="30" y="0" width="5" height="50"/><rect fill="#02e335" x="35" y="0" width="5" height="50"/><rect fill="#003a0f" x="40" y="0" width="5" height="50"/><rect fill="#13d444" x="45" y="0" width="5" height="50"/><rect fill="#04fb43" x="50" y="0" width="5" height="50"/><rect fill="#00f640" x="55" y="0" width="5" height="50"/><rect fill="#064e19" x="60" y="0" width="5" height="50"/><rect fill="#07f146" x="65" y="0" width="5" height="50"/><rect fill="#003910" x="70" y="0" width="5" height="50"/><rect fill="#0fd247" x="75" y="0" width="5" height="50"/><rect fill="#0fd047" x="80" y="0" width="5" height="50"/><rect fill="#03551b" x="85" y="0" width="5" height="50"/><rect fill="#014516" x="90" y="0" width="5" height="50"/><rect fill="#074a1b" x="95" y="0" width="5" height="50"/><rect fill="#023813" x="100" y="0" width="5" height="50"/><rect fill="#03de48" x="105" y="0" width="5" height="50"/><rect fill="#08501f" x="110" y="0" width="5" height="50"/><rect fill="#15fb60" x="115" y="0" width="5" height="50"/><rect fill="#11fd5d" x="120" y="0" width="5" height="50"/><rect fill="#074f1f" x="125" y="0" width="5" height="50"/><rect fill="#043e18" x="130" y="0" width="5" height="50"/><rect fill="#044f1e" x="135" y="0" width="5" height="50"/><rect fill="#034e1e" x="140" y="0" width="5" height="50"/><rect fill="#033d18" x="145" y="0" width="5" height="50"/><rect fill="#03ed59" x="150" y="0" width="5" height="50"/><rect fill="#0bf561" x="155" y="0" width="5" height="50"/><rect fill="#033415" x="160" y="0" width="5" height="50"/><rect fill="#00d750" x="165" y="0" width="5" height="50"/><rect fill="#04f863" x="170" y="0" width="5" height="50"/><rect fill="#043e1b" x="175" y="0" width="5" height="50"/><rect fill="#064720" x="180" y="0" width="5" height="50"/><rect fill="#08e966" x="185" y="0" width="5" height="50"/><rect fill="#16f573" x="190" y="0" width="5" height="50"/><rect fill="#013618" x="195" y="0" width="5" height="50"/><rect fill="#055828" x="200" y="0" width="5" height="50"/><rect fill="#17fe7a" x="205" y="0" width="5" height="50"/><rect fill="#044a22" x="210" y="0" width="5" height="50"/><rect fill="#013618" x="215" y="0" width="5" height="50"/><rect fill="#14cf66" x="220" y="0" width="5" height="50"/><rect fill="#024520" x="225" y="0" width="5" height="50"/><rect fill="#03df65" x="230" y="0" width="5" height="50"/><rect fill="#00db68" x="235" y="0" width="5" height="50"/><rect fill="#11f67f" x="240" y="0" width="5" height="50"/><rect fill="#034c27" x="245" y="0" width="5" height="50"/><rect fill="#02361b" x="250" y="0" width="5" height="50"/><rect fill="#01e270" x="255" y="0" width="5" height="50"/><rect fill="#034825" x="260" y="0" width="5" height="50"/><rect fill="#0ccd6d" x="265" y="0" width="5" height="50"/><rect fill="#03371d" x="270" y="0" width="5" height="50"/><rect fill="#063b22" x="275" y="0" width="5" height="50"/><rect fill="#09f684" x="280" y="0" width="5" height="50"/><rect fill="#024726" x="285" y="0" width="5" height="50"/><rect fill="#13dd7e" x="290" y="0" width="5" height="50"/><rect fill="#02532e" x="295" y="0" width="5" height="50"/><rect fill="#05e581" x="300" y="0" width="5" height="50"/><rect fill="#054a2c" x="305" y="0" width="5" height="50"/><rect fill="#0ed37d" x="310" y="0" width="5" height="50"/><rect fill="#05d97e" x="315" y="0" width="5" height="50"/><rect fill="#034428" x="320" y="0" width="5" height="50"/><rect fill="#014d2d" x="325" y="0" width="5" height="50"/><rect fill="#09ee8f" x="330" y="0" width="5" height="50"/><rect fill="#09ee8f" x="335" y="0" width="5" height="50"/><rect fill="#053320" x="340" y="0" width="5" height="50"/><rect fill="#074a2f" x="345" y="0" width="5" height="50"/><rect fill="#074e31" x="350" y="0" width="5" height="50"/><rect fill="#015031" x="355" y="0" width="5" height="50"/><rect fill="#18f5a0" x="360" y="0" width="5" height="50"/><rect fill="#0cdb8c" x="365" y="0" width="5" height="50"/><rect fill="#05d889" x="370" y="0" width="5" height="50"/><rect fill="#14f8a3" x="375" y="0" width="5" height="50"/><rect fill="#013322" x="380" y="0" width="5" height="50"/><rect fill="#014d33" x="385" y="0" width="5" height="50"/><rect fill="#06553b" x="390" y="0" width="5" height="50"/><rect fill="#053726" x="395" y="0" width="5" height="50"/><rect fill="#04442f" x="400" y="0" width="5" height="50"/><rect fill="#06f8ab" x="405" y="0" width="5" height="50"/><rect fill="#15da9d" x="410" y="0" width="5" height="50"/><rect fill="#11dd9e" x="415" y="0" width="5" height="50"/><rect fill="#11f4ae" x="420" y="0" width="5" height="50"/><rect fill="#044532" x="425" y="0" width="5" height="50"/><rect fill="#074936" x="430" y="0" width="5" height="50"/><rect fill="#023b2b" x="435" y="0" width="5" height="50"/><rect fill="#04533e" x="440" y="0" width="5" height="50"/><rect fill="#14febe" x="445" y="0" width="5" height="50"/><rect fill="#0ff4b9" x="450" y="0" width="5" height="50"/><rect fill="#12f0b9" x="455" y="0" width="5" height="50"/><rect fill="#053f30" x="460" y="0" width="5" height="50"/><rect fill="#0ef6bf" x="465" y="0" width="5" height="50"/><rect fill="#04eeb7" x="470" y="0" width="5" height="50"/><rect fill="#08eab5" x="475" y="0" width="5" height="50"/><rect fill="#02503f" x="480" y="0" width="5" height="50"/><rect fill="#004f3e" x="485" y="0" width="5" height="50"/><rect fill="#015846" x="490" y="0" width="5" height="50"/><rect fill="#07f9c7" x="495" y="0" width="5" height="50"/></g></svg>