<svg version="1.1" xmlns="http://www.w3.org/2000/svg" xmlns:xlink="http://www.w3.org/1999/xlink" width="500" height="50"><g><rect fill="#808080" x="0" y="0" width="5" height="50"/><rect fill="#f9cba3" x="5" y="0" width="5" height="50"/><rect fill="#6b6b6b" x="10" y="0" width="5" height="50"/><rect fill="#d6d6d6" x="15" y="0" width="5" height="50"/><rect fill="#fad7ba" x="20" y="0" width="5" height="50"/><rect fill="#efefef" x="25" y="0" width="5" height="50"/><rect fill="#c5b081" x="30" y="0" width="5" height="50"/><rect fill="#8b8b8b" x="35" y="0" width="5" height="50"/><rect fill="#dabd91" x="40" y="0" width="5" height="50"/><rect fill="#ffe7bf" x="45" y="0" width="5" height="50"/><rect fill="#d2af90" x="50" y="0" width="5" height="50"/><rect fill="#6d6d6d" x="55" y="0" width="5" height="50"/><rect fill="#ffe5e2" x="60" y="0" width="5" height="50"/><rect fill="#7b7b7b" x="65" y="0" width="5" height="50"/><rect fill="#ffd8f0" x="70" y="0" width="5" height="50"/><rect fill="#b8f4f3" x="75" y="0" width="5" height="50"/><rect fill="#fff9c7" x="80" y="0" width="5" height="50"/><rect fill="#ffb7c8" x="85" y="0" width="5" height="50"/><rect fill="#d5adbd" x="90" y="0" width="5" height="50"/><rect fill="#dfb7c6" x="95" y="0" width="5" height="50"/><rect fill="#8fcdbe" x="100" y="0" width="5" height="50"/><rect fill="#f5deba" x="105" y="0" width="5" height="50"/><rect fill="#b0e0d1" x="110" y="0" width="5" height="50"/><rect fill="#d6bd8e" x="115" y="0" width="5" height="50"/><rect fill="#cecece" x="120" y="0" width="5" height="50"/><rect fill="#9cf4eb" x="125" y="0" width="5" height="50"/><rect fill="#e1d4b0" x="130" y="0" width="5" height="50"/><rect fill="#ffd3e8" x="135" y="0" width="5" height="50"/><rect fill="#cca47d" x="140" y="0" width="5" height="50"/><rect fill="#dea6bc" x="145" y="0" width="5" height="50"/><rect fill="#ffedc0" x="150" y="0" width="5" height="50"/><rect fill="#b9ad86" x="155" y="0" width="5" height="50"/><rect fill="#c1ffff" x="160" y="0" width="5" height="50"/><rect fill="#ffe8cf" x="165" y="0" width="5" height="50"/><rect fill="#dedede" x="170" y="0" width="5" height="50"/><rect fill="#88cbc9" x="175" y="0" width="5" height="50"/><rect fill="#e7e7e7" x="180" y="0" width="5" height="50"/><rect fill="#befcf9" x="185" y="0" width="5" height="50"/><rect fill="#6a6a6a" x="190" y="0" width="5" height="50"/><rect fill="#f9f9f9" x="195" y="0" width="5" height="50"/><rect fill="#e9bfc4" x="200" y="0" width="5" height="50"/><rect fill="#6e6e6e" x="205" y="0" width="5" height="50"/><rect fill="#d3d3d3" x="210" y="0" width="5" height="50"/><rect fill="#f3cedb" x="215" y="0" width="5" height="50"/><rect fill="#909090" x="220" y="0" width="5" height="50"/><rect fill="#baae80" x="225" y="0" width="5" height="50"/><rect fill="#fafafa" x="230" y="0" width="5" height="50"/><rect fill="#c4b888" x="235" y="0" width="5" height="50"/><rect fill="#96c8b6" x="240" y="0" width="5" height="50"/><rect fill="#bbaa78" x="245" y="0" width="5" height="50"/><rect fill="#6ac5c9" x="250" y="0" width="5" height="50"/><rect fill="#e2e2e2" x="255" y="0" width="5" height="50"/><rect fill="#5f5f5f" x="260" y="0" width="5" height="50"/><rect fill="#f8f8f8" x="265" y="0" width="5" height="50"/><rect fill="#fdd1ac" x="270" y="0" width="5" height="50"/><rect fill="#aae3de" x="275" y="0" width="5" height="50"/><rect fill="#cfb49b" x="280" y="0" width="5" height="50"/><rect fill="#ffd6df" x="285" y="0" width="5" height="50"/><rect fill="#e2e2e2" x="290" y="0" width="5" height="50"/><rect fill="#dedede" x="295" y="0" width="5" height="50"/><rect fill="#fbeac3" x="300" y="0" width="5" height="50"/><rect fill="#646464" x="305" y="0" width="5" height="50"/><rect fill="#eae0ae" x="310" y="0" width="5" height="50"/><rect fill="#686868" x="315" y="0" width="5" height="50"/><rect fill="#aaebe2" x="320" y="0" width="5" height="50"/><rect fill="#fbb0b5" x="325" y="0" width="5" height="50"/><rect fill="#fec6ce" x="330" y="0" width="5" height="50"/><rect fill="#e7bdc9" x="335" y="0" width="5" height="50"/><rect fill="#a2cfce" x="340" y="0" width="5" height="50"/><rect fill="#858585" x="345" y="0" width="5" height="50"/><rect fill="#9dc7b9" x="350" y="0" width="5" height="50"/><rect fill="#626262" x="355" y="0" width="5" height="50"/><rect fill="#e6a7b4" x="360" y="0" width="5" height="50"/><rect fill="#f4b6b7" x="365" y="0" width="5" height="50"/><rect fill="#e1c69b" x="370" y="0" width="5" height="50"/><rect fill="#ffddf0" x="375" y="0" width="5" height="50"/><rect fill="#dbdbdb" x="380" y="0" width="5" height="50"/><rect fill="#bbb580" x="385" y="0" width="5" height="50"/><rect fill="#cacaca" x="390" y="0" width="5" height="50"/><rect fill="#93e0c9" x="395" y="0" width="5" height="50"/><rect fill="#daaaae" x="400" y="0" width="5" height="50"/><rect fill="#696969" x="405" y="0" width="5" height="50"/><rect fill="#dc9fb6" x="410" y="0" width="5" height="50"/><rect fill="#e1a8b5" x="415" y="0" width="5" height="50"/><rect fill="#c4b284" x="420" y="0" width="5" height="50"/><rect fill="#a8d2c8" x="425" y="0" width="5" height="50"/><rect fill="#ffd8d7" x="430" y="0" width="5" height="50"/><rect fill="#ffc5db" x="435" y="0" width="5" height="50"/><rect fill="#ffd0dd" x="440" y="0" width="5" height="50"/><rect fill="#d4d4d4" x="445" y="0" width="5" height="50"/><rect fill="#747474" x="450" y="0" width="5" height="50"/><rect fill="#df9bb5" x="455" y="0" width="5" height="50"/><rect fill="#f0b1c2" x="460" y="0" width="5" height="50"/><rect fill="#fab7b3" x="465" y="0" width="5" height="50"/><rect fill="#868686" x="470" y="0" width="5" height="50"/><rect fill="#e6e6e6" x="475" y="0" width="5" height="50"/><rect fill="#ffd9de" x="480" y="0" width="5" height="50"/><rect fill="#d3ca9b" x="485" y="0" width="5" height="50"/><rect fill="#d9c696" x="490" y="0" width="5" height="50"/><rect fill="#cdb198" x="495" y="0" width="5" height="50"/></g></svg>