<svg width="1000" height="50"><g><rect fill="#fb87b8" x="0" y="0" width="5" height="50"/><rect fill="#f0e6cd" x="5" y="0" width="5" height="50"/><rect fill="#f2e8c4" x="10" y="0" width="5" height="50"/><rect fill="#df6a9d" x="15" y="0" width="5" height="50"/><rect fill="#e6dbb9" x="20" y="0" width="5" height="50"/><rect fill="#fbe4cd" x="25" y="0" width="5" height="50"/><rect fill="#faefe0" x="30" y="0" width="5" height="50"/><rect fill="#eee9cf" x="35" y="0" width="5" height="50"/><rect fill="#efe3ce" x="40" y="0" width="5" height="50"/><rect fill="#eee1ce" x="45" y="0" width="5" height="50"/><rect fill="#ebddbe" x="50" y="0" width="5" height="50"/><rect fill="#f25d9e" x="55" y="0" width="5" height="50"/><rect fill="#ebe4d9" x="60" y="0" width="5" height="50"/><rect fill="#5df38f" x="65" y="0" width="5" height="50"/><rect fill="#ed47ae" x="70" y="0" width="5" height="50"/><rect fill="#f1eee0" x="75" y="0" width="5" height="50"/><rect fill="#d266b2" x="80" y="0" width="5" height="50"/><rect fill="#ede0cc" x="85" y="0" width="5" height="50"/><rect fill="#f9f3e1" x="90" y="0" width="5" height="50"/><rect fill="#65f2c8" x="95" y="0" width="5" height="50"/><rect fill="#ebdfcf" x="100" y="0" width="5" height="50"/><rect fill="#a2f6b8" x="105" y="0" width="5" height="50"/><rect fill="#fcf6ea" x="110" y="0" width="5" height="50"/><rect fill="#fceee0" x="115" y="0" width="5" height="50"/><rect fill="#f7f0cf" x="120" y="0" width="5" height="50"/><rect fill="#faf1e5" x="125" y="0" width="5" height="50"/><rect fill="#f0eae2" x="130" y="0" width="5" height="50"/><rect fill="#faefe7" x="135" y="0" width="5" height="50"/><rect fill="#e7e2db" x="140" y="0" width="5" height="50"/><rect fill="#f3edcc" x="145" y="0" width="5" height="50"/><rect fill="#f7ead4" x="150" y="0" width="5" height="50"/><rect fill="#8ff4be" x="155" y="0" width="5" height="50"/><rect fill="#efeddd" x="160" y="0" width="5" height="50"/><rect fill="#f1e2ce" x="165" y="0" width="5" height="50"/><rect fill="#e9dfce" x="170" y="0" width="5" height="50"/><rect fill="#ebe5cb" x="175" y="0" width="5" height="50"/><rect fill="#ede7e1" x="180" y="0" width="5" height="50"/><rect fill="#eae8da" x="185" y="0" width="5" height="50"/><rect fill="#e8e0c7" x="190" y="0" width="5" height="50"/><rect fill="#db5b8f" x="195" y="0" width="5" height="50"/><rect fill="#f5f5d7" x="200" y="0" width="5" height="50"/><rect fill="#e6e5d2" x="205" y="0" width="5" height="50"/><rect fill="#e7e4c1" x="210" y="0" width="5" height="50"/><rect fill="#f5f1d6" x="215" y="0" width="5" height="50"/><rect fill="#fef2dd" x="220" y="0" width="5" height="50"/><rect fill="#f9f0de" x="225" y="0" width="5" height="50"/><rect fill="#fefaef" x="230" y="0" width="5" height="50"/><rect fill="#f5f0dc" x="235" y="0" width="5" height="50"/><rect fill="#eeecd2" x="240" y="0" width="5" height="50"/><rect fill="#47e685" x="245" y="0" width="5" height="50"/><rect fill="#eeedc0" x="250" y="0" width="5" height="50"/><rect fill="#f4e6d9" x="255" y="0" width="5" height="50"/><rect fill="#f7f3ea" x="260" y="0" width="5" height="50"/><rect fill="#87f4c3" x="265" y="0" width="5" height="50"/><rect fill="#f1dece" x="270" y="0" width="5" height="50"/><rect fill="#f0efe3" x="275" y="0" width="5" height="50"/><rect fill="#eee8de" x="280" y="0" width="5" height="50"/><rect fill="#f063ce" x="285" y="0" width="5" height="50"/><rect fill="#e25f9d" x="290" y="0" width="5" height="50"/><rect fill="#f691dd" x="295" y="0" width="5" height="50"/><rect fill="#efd6c1" x="300" y="0" width="5" height="50"/><rect fill="#90e7a9" x="305" y="0" width="5" height="50"/><rect fill="#e95d8f" x="310" y="0" width="5" height="50"/><rect fill="#f4f4de" x="315" y="0" width="5" height="50"/><rect fill="#e9e5d9" x="320" y="0" width="5" height="50"/><rect fill="#f1e8cb" x="325" y="0" width="5" height="50"/><rect fill="#f9f2ea" x="330" y="0" width="5" height="50"/><rect fill="#fceee1" x="335" y="0" width="5" height="50"/><rect fill="#fa7bba" x="340" y="0" width="5" height="50"/><rect fill="#e7e2d7" x="345" y="0" width="5" height="50"/><rect fill="#fcf6d4" x="350" y="0" width="5" height="50"/><rect fill="#ecd8c8" x="355" y="0" width="5" height="50"/><rect fill="#f069a4" x="360" y="0" width="5" height="50"/><rect fill="#7ce793" x="365" y="0" width="5" height="50"/><rect fill="#f2eae1" x="370" y="0" width="5" height="50"/><rect fill="#f7eeda" x="375" y="0" width="5" height="50"/><rect fill="#ebe8de" x="380" y="0" width="5" height="50"/><rect fill="#f1e8ce" x="385" y="0" width="5" height="50"/><rect fill="#efebd8" x="390" y="0" width="5" height="50"/><rect fill="#f7eccd" x="395" y="0" width="5" height="50"/><rect fill="#efdfcb" x="400" y="0" width="5" height="50"/><rect fill="#f5f3cf" x="405" y="0" width="5" height="50"/><rect fill="#fff6f0" x="410" y="0" width="5" height="50"/><rect fill="#ecddd0" x="415" y="0" width="5" height="50"/><rect fill="#f0efd5" x="420" y="0" width="5" height="50"/><rect fill="#fdf0db" x="425" y="0" width="5" height="50"/><rect fill="#ebe5c8" x="430" y="0" width="5" height="50"/><rect fill="#eadbce" x="435" y="0" width="5" height="50"/><rect fill="#e9e3d9" x="440" y="0" width="5" height="50"/><rect fill="#e65c9f" x="445" y="0" width="5" height="50"/><rect fill="#e454a2" x="450" y="0" width="5" height="50"/><rect fill="#f0eee3" x="455" y="0" width="5" height="50"/><rect fill="#e6d7c3" x="460" y="0" width="5" height="50"/><rect fill="#d468a7" x="465" y="0" width="5" height="50"/><rect fill="#efe6d7" x="470" y="0" width="5" height="50"/><rect fill="#e8e1c9" x="475" y="0" width="5" height="50"/><rect fill="#edeada" x="480" y="0" width="5" height="50"/><rect fill="#f98edb" x="485" y="0" width="5" height="50"/><rect fill="#edecd4" x="490" y="0" width="5" height="50"/><rect fill="#f5f2e6" x="495" y="0" width="5" height="50"/><rect fill="#f2e2cf" x="500" y="0" width="5" height="50"/><rect fill="#edecd5" x="505" y="0" width="5" height="50"/><rect fill="#f2f1da" x="510" y="0" width="5" height="50"/><rect fill="#eae6ce" x="515" y="0" width="5" height="50"/><rect fill="#e6e0d2" x="520" y="0" width="5" height="50"/><rect fill="#f5f3df" x="525" y="0" width="5" height="50"/><rect fill="#ebdec5" x="530" y="0" width="5" height="50"/><rect fill="#e9e6d5" x="535" y="0" width="5" height="50"/><rect fill="#ebe7dc" x="540" y="0" width="5" height="50"/><rect fill="#f7eedb" x="545" y="0" width="5" height="50"/><rect fill="#eee9e0" x="550" y="0" width="5" height="50"/><rect fill="#f1eddc" x="555" y="0" width="5" height="50"/><rect fill="#f1dac6" x="560" y="0" width="5" height="50"/><rect fill="#f3ecdc" x="565" y="0" width="5" height="50"/><rect fill="#efede1" x="570" y="0" width="5" height="50"/><rect fill="#49ed9c" x="575" y="0" width="5" height="50"/><rect fill="#ecdcca" x="580" y="0" width="5" height="50"/><rect fill="#f1e9df" x="585" y="0" width="5" height="50"/><rect fill="#fdf3dc" x="590" y="0" width="5" height="50"/><rect fill="#e9e2d2" x="595" y="0" width="5" height="50"/><rect fill="#f6f0de" x="600" y="0" width="5" height="50"/><rect fill="#edead9" x="605" y="0" width="5" height="50"/><rect fill="#4fe798" x="610" y="0" width="5" height="50"/><rect fill="#ece7dd" x="615" y="0" width="5" height="50"/><rect fill="#61e6b8" x="620" y="0" width="5" height="50"/><rect fill="#64ef82" x="625" y="0" width="5" height="50"/><rect fill="#fbfadb" x="630" y="0" width="5" height="50"/><rect fill="#e8d1c0" x="635" y="0" width="5" height="50"/><rect fill="#83febc" x="640" y="0" width="5" height="50"/><rect fill="#e6e1d5" x="645" y="0" width="5" height="50"/><rect fill="#e7d9ba" x="650" y="0" width="5" height="50"/><rect fill="#f5eec5" x="655" y="0" width="5" height="50"/><rect fill="#cf5088" x="660" y="0" width="5" height="50"/><rect fill="#f1ece4" x="665" y="0" width="5" height="50"/><rect fill="#f6f2e4" x="670" y="0" width="5" height="50"/><rect fill="#e8d5c0" x="675" y="0" width="5" height="50"/><rect fill="#fdfcd9" x="680" y="0" width="5" height="50"/><rect fill="#f8ecd3" x="685" y="0" width="5" height="50"/><rect fill="#ead1be" x="690" y="0" width="5" height="50"/><rect fill="#f5f2d4" x="695" y="0" width="5" height="50"/><rect fill="#fff6ec" x="700" y="0" width="5" height="50"/><rect fill="#d43673" x="705" y="0" width="5" height="50"/><rect fill="#efe6db" x="710" y="0" width="5" height="50"/><rect fill="#fdf5e3" x="715" y="0" width="5" height="50"/><rect fill="#fdf3eb" x="720" y="0" width="5" height="50"/><rect fill="#f1e1d5" x="725" y="0" width="5" height="50"/><rect fill="#f9f6e3" x="730" y="0" width="5" height="50"/><rect fill="#f9f4e1" x="735" y="0" width="5" height="50"/><rect fill="#eceada" x="740" y="0" width="5" height="50"/><rect fill="#f9f4df" x="745" y="0" width="5" height="50"/><rect fill="#fce9cf" x="750" y="0" width="5" height="50"/><rect fill="#eee8cc" x="755" y="0" width="5" height="50"/><rect fill="#e02d58" x="760" y="0" width="5" height="50"/><rect fill="#e8668e" x="765" y="0" width="5" height="50"/><rect fill="#e6d0c1" x="770" y="0" width="5" height="50"/><rect fill="#f5f1e5" x="775" y="0" width="5" height="50"/><rect fill="#e9e0d9" x="780" y="0" width="5" height="50"/><rect fill="#f0e1d2" x="785" y="0" width="5" height="50"/><rect fill="#fcf2d2" x="790" y="0" width="5" height="50"/><rect fill="#ebe8df" x="795" y="0" width="5" height="50"/><rect fill="#f9f8eb" x="800" y="0" width="5" height="50"/><rect fill="#f0efd0" x="805" y="0" width="5" height="50"/><rect fill="#fbe9da" x="810" y="0" width="5" height="50"/><rect fill="#89edb7" x="815" y="0" width="5" height="50"/><rect fill="#f0dec8" x="820" y="0" width="5" height="50"/><rect fill="#f3efc6" x="825" y="0" width="5" height="50"/><rect fill="#f3f0e1" x="830" y="0" width="5" height="50"/><rect fill="#e062a2" x="835" y="0" width="5" height="50"/><rect fill="#e7cebb" x="840" y="0" width="5" height="50"/><rect fill="#f6efe7" x="845" y="0" width="5" height="50"/><rect fill="#e279b0" x="850" y="0" width="5" height="50"/><rect fill="#ebe6dc" x="855" y="0" width="5" height="50"/><rect fill="#d55e7b" x="860" y="0" width="5" height="50"/><rect fill="#e6d2c3" x="865" y="0" width="5" height="50"/><rect fill="#f1e8de" x="870" y="0" width="5" height="50"/><rect fill="#e6d3c5" x="875" y="0" width="5" height="50"/><rect fill="#f5ebd4" x="880" y="0" width="5" height="50"/><rect fill="#efede2" x="885" y="0" width="5" height="50"/><rect fill="#eeecc5" x="890" y="0" width="5" height="50"/><rect fill="#f5f5cc" x="895" y="0" width="5" height="50"/><rect fill="#56f5bf" x="900" y="0" width="5" height="50"/><rect fill="#d475ba" x="905" y="0" width="5" height="50"/><rect fill="#e7ded4" x="910" y="0" width="5" height="50"/><rect fill="#eeecd1" x="915" y="0" width="5" height="50"/><rect fill="#e9dec6" x="920" y="0" width="5" height="50"/><rect fill="#f6f0cf" x="925" y="0" width="5" height="50"/><rect fill="#f0f0d7" x="930" y="0" width="5" height="50"/><rect fill="#92e9bd" x="935" y="0" width="5" height="50"/><rect fill="#f0e6d4" x="940" y="0" width="5" height="50"/><rect fill="#eee5d8" x="945" y="0" width="5" height="50"/><rect fill="#d44ba3" x="950" y="0" width="5" height="50"/><rect fill="#e7e5db" x="955" y="0" width="5" height="50"/><rect fill="#fbf9e0" x="960" y="0" width="5" height="50"/><rect fill="#fef5eb" x="965" y="0" width="5" height="50"/><rect fill="#e6e6d8" x="970" y="0" width="5" height="50"/><rect fill="#fdfcef" x="975" y="0" width="5" height="50"/><rect fill="#96eaa9" x="980" y="0" width="5" height="50"/><rect fill="#fafad8" x="985" y="0" width="5" height="50"/><rect fill="#eedac0" x="990" y="0" width="5" height="50"/><rect fill="#f5f5db" x="995" y="0" width="5" height="50"/></g></svg>