<svg version="1.1" xmlns="http://www.w3.org/2000/svg" xmlns:xlink="http://www.w3.org/1999/xlink" width="500" height="50"><g><rect fill="#99816e" x="0" y="0" width="5" height="50"/><rect fill="#7a9981" x="5" y="0" width="5" height="50"/><rect fill="#6e9a82" x="10" y="0" width="5" height="50"/><rect fill="#9b8b7c" x="15" y="0" width="5" height="50"/><rect fill="#9b8674" x="20" y="0" width="5" height="50"/><rect fill="#769c80" x="25" y="0" width="5" height="50"/><rect fill="#a0987d" x="30" y="0" width="5" height="50"/><rect fill="#a18875" x="35" y="0" width="5" height="50"/><rect fill="#a28c7c" x="40" y="0" width="5" height="50"/><rect fill="#7fa393" x="45" y="0" width="5" height="50"/><rect fill="#a4967b" x="50" y="0" width="5" height="50"/><rect fill="#76a585" x="55" y="0" width="5" height="50"/><rect fill="#82a597" x="60" y="0" width="5" height="50"/><rect fill="#7ca69a" x="65" y="0" width="5" height="50"/><rect fill="#78a697" x="70" y="0" width="5" height="50"/><rect fill="#7ca697" x="75" y="0" width="5" height="50"/><rect fill="#7da78b" x="80" y="0" width="5" height="50"/><rect fill="#82a797" x="85" y="0" width="5" height="50"/><rect fill="#a9a583" x="90" y="0" width="5" height="50"/><rect fill="#a99f7a" x="95" y="0" width="5" height="50"/><rect fill="#a9a47b" x="100" y="0" width="5" height="50"/><rect fill="#aa9687" x="105" y="0" width="5" height="50"/><rect fill="#87aa9d" x="110" y="0" width="5" height="50"/><rect fill="#84ab9a" x="115" y="0" width="5" height="50"/><rect fill="#aba67d" x="120" y="0" width="5" height="50"/><rect fill="#ada786" x="125" y="0" width="5" height="50"/><rect fill="#7baf91" x="130" y="0" width="5" height="50"/><rect fill="#7daf97" x="135" y="0" width="5" height="50"/><rect fill="#b0ac85" x="140" y="0" width="5" height="50"/><rect fill="#b1a78a" x="145" y="0" width="5" height="50"/><rect fill="#89b1a2" x="150" y="0" width="5" height="50"/><rect fill="#88b2a0" x="155" y="0" width="5" height="50"/><rect fill="#b3b087" x="160" y="0" width="5" height="50"/><rect fill="#b3a387" x="165" y="0" width="5" height="50"/><rect fill="#b39782" x="170" y="0" width="5" height="50"/><rect fill="#80b791" x="175" y="0" width="5" height="50"/><rect fill="#b7af92" x="180" y="0" width="5" height="50"/><rect fill="#b8a08c" x="185" y="0" width="5" height="50"/><rect fill="#baaf90" x="190" y="0" width="5" height="50"/><rect fill="#baae87" x="195" y="0" width="5" height="50"/><rect fill="#8cbbb0" x="200" y="0" width="5" height="50"/><rect fill="#95bca7" x="205" y="0" width="5" height="50"/><rect fill="#bcb990" x="210" y="0" width="5" height="50"/><rect fill="#bca18c" x="215" y="0" width="5" height="50"/><rect fill="#bdb693" x="220" y="0" width="5" height="50"/><rect fill="#96bfa8" x="225" y="0" width="5" height="50"/><rect fill="#bfb694" x="230" y="0" width="5" height="50"/><rect fill="#99c0a5" x="235" y="0" width="5" height="50"/><rect fill="#c0bd87" x="240" y="0" width="5" height="50"/><rect fill="#c1a68a" x="245" y="0" width="5" height="50"/><rect fill="#c1af98" x="250" y="0" width="5" height="50"/><rect fill="#9ac2b2" x="255" y="0" width="5" height="50"/><rect fill="#c2c294" x="260" y="0" width="5" height="50"/><rect fill="#8ec29c" x="265" y="0" width="5" height="50"/><rect fill="#8dc3ad" x="270" y="0" width="5" height="50"/><rect fill="#9ac5ad" x="275" y="0" width="5" height="50"/><rect fill="#c6bc8d" x="280" y="0" width="5" height="50"/><rect fill="#c6bd8b" x="285" y="0" width="5" height="50"/><rect fill="#c7bf9f" x="290" y="0" width="5" height="50"/><rect fill="#9ec8b6" x="295" y="0" width="5" height="50"/><rect fill="#8dc8a8" x="300" y="0" width="5" height="50"/><rect fill="#c8b29b" x="305" y="0" width="5" height="50"/><rect fill="#c9b38f" x="310" y="0" width="5" height="50"/><rect fill="#90caba" x="315" y="0" width="5" height="50"/><rect fill="#caae90" x="320" y="0" width="5" height="50"/><rect fill="#ccc6a2" x="325" y="0" width="5" height="50"/><rect fill="#92ccb0" x="330" y="0" width="5" height="50"/><rect fill="#91cdb7" x="335" y="0" width="5" height="50"/><rect fill="#cfcc9b" x="340" y="0" width="5" height="50"/><rect fill="#a1cfb0" x="345" y="0" width="5" height="50"/><rect fill="#98d0b1" x="350" y="0" width="5" height="50"/><rect fill="#d1c793" x="355" y="0" width="5" height="50"/><rect fill="#d3c3a7" x="360" y="0" width="5" height="50"/><rect fill="#d4c497" x="365" y="0" width="5" height="50"/><rect fill="#9ad4c5" x="370" y="0" width="5" height="50"/><rect fill="#a7d4ca" x="375" y="0" width="5" height="50"/><rect fill="#d6ba98" x="380" y="0" width="5" height="50"/><rect fill="#d7c1a8" x="385" y="0" width="5" height="50"/><rect fill="#d7cb9d" x="390" y="0" width="5" height="50"/><rect fill="#d7bca5" x="395" y="0" width="5" height="50"/><rect fill="#a3d8cb" x="400" y="0" width="5" height="50"/><rect fill="#9fd8b3" x="405" y="0" width="5" height="50"/><rect fill="#d9c89d" x="410" y="0" width="5" height="50"/><rect fill="#d9d9ad" x="415" y="0" width="5" height="50"/><rect fill="#dbc7a3" x="420" y="0" width="5" height="50"/><rect fill="#dcd1a2" x="425" y="0" width="5" height="50"/><rect fill="#aeddba" x="430" y="0" width="5" height="50"/><rect fill="#ddd0a2" x="435" y="0" width="5" height="50"/><rect fill="#9edeb8" x="440" y="0" width="5" height="50"/><rect fill="#deca9e" x="445" y="0" width="5" height="50"/><rect fill="#dfdb9d" x="450" y="0" width="5" height="50"/><rect fill="#e0dcaa" x="455" y="0" width="5" height="50"/><rect fill="#e1c8ae" x="460" y="0" width="5" height="50"/><rect fill="#b0e2d1" x="465" y="0" width="5" height="50"/><rect fill="#a1e2c3" x="470" y="0" width="5" height="50"/><rect fill="#a7e4cf" x="475" y="0" width="5" height="50"/><rect fill="#e4cdb1" x="480" y="0" width="5" height="50"/><rect fill="#ade4cd" x="485" y="0" width="5" height="50"/><rect fill="#e5cbab" x="490" y="0" width="5" height="50"/><rect fill="#e5dfae" x="495" y="0" width="5" height="50"/></g></svg>