<svg version="1.1" xmlns="http://www.w3.org/2000/svg" xmlns:xlink="http://www.w3.org/1999/xlink" width="500" height="50"><g><rect fill="#95bf9e" x="0" y="0" width="5" height="50"/><rect fill="#7ca885" x="5" y="0" width="5" height="50"/><rect fill="#abe4b7" x="10" y="0" width="5" height="50"/><rect fill="#779b7f" x="15" y="0" width="5" height="50"/><rect fill="#7eaf89" x="20" y="0" width="5" height="50"/><rect fill="#93cda0" x="25" y="0" width="5" height="50"/><rect fill="#9dcaa8" x="30" y="0" width="5" height="50"/><rect fill="#9ed2ab" x="35" y="0" width="5" height="50"/><rect fill="#789d81" x="40" y="0" width="5" height="50"/><rect fill="#92c29e" x="45" y="0" width="5" height="50"/><rect fill="#84a88d" x="50" y="0" width="5" height="50"/><rect fill="#72a17e" x="55" y="0" width="5" height="50"/><rect fill="#91cda1" x="60" y="0" width="5" height="50"/><rect fill="#96c1a3" x="65" y="0" width="5" height="50"/><rect fill="#88af94" x="70" y="0" width="5" height="50"/><rect fill="#77a885" x="75" y="0" width="5" height="50"/><rect fill="#85b894" x="80" y="0" width="5" height="50"/><rect fill="#7cad8a" x="85" y="0" width="5" height="50"/><rect fill="#71997d" x="90" y="0" width="5" height="50"/><rect fill="#97cda7" x="95" y="0" width="5" height="50"/><rect fill="#90cda3" x="100" y="0" width="5" height="50"/><rect fill="#95bca1" x="105" y="0" width="5" height="50"/><rect fill="#87bb97" x="110" y="0" width="5" height="50"/><rect fill="#7faa8d" x="115" y="0" width="5" height="50"/><rect fill="#7fa88c" x="120" y="0" width="5" height="50"/><rect fill="#80b191" x="125" y="0" width="5" height="50"/><rect fill="#92bca0" x="130" y="0" width="5" height="50"/><rect fill="#a0dab4" x="135" y="0" width="5" height="50"/><rect fill="#9ddbb4" x="140" y="0" width="5" height="50"/><rect fill="#8cb19a" x="145" y="0" width="5" height="50"/><rect fill="#88c29e" x="150" y="0" width="5" height="50"/><rect fill="#91bba1" x="155" y="0" width="5" height="50"/><rect fill="#82a48f" x="160" y="0" width="5" height="50"/><rect fill="#7b9f89" x="165" y="0" width="5" height="50"/><rect fill="#7ca78d" x="170" y="0" width="5" height="50"/><rect fill="#8dbda0" x="175" y="0" width="5" height="50"/><rect fill="#a2e2bc" x="180" y="0" width="5" height="50"/><rect fill="#75a287" x="185" y="0" width="5" height="50"/><rect fill="#a0e0ba" x="190" y="0" width="5" height="50"/><rect fill="#a7e1bf" x="195" y="0" width="5" height="50"/><rect fill="#a2dbbb" x="200" y="0" width="5" height="50"/><rect fill="#82b899" x="205" y="0" width="5" height="50"/><rect fill="#79a48c" x="210" y="0" width="5" height="50"/><rect fill="#a2e1be" x="215" y="0" width="5" height="50"/><rect fill="#79a48c" x="220" y="0" width="5" height="50"/><rect fill="#9ecbb3" x="225" y="0" width="5" height="50"/><rect fill="#89b19c" x="230" y="0" width="5" height="50"/><rect fill="#77a58d" x="235" y="0" width="5" height="50"/><rect fill="#a6e3c3" x="240" y="0" width="5" height="50"/><rect fill="#9fd6ba" x="245" y="0" width="5" height="50"/><rect fill="#9eddbe" x="250" y="0" width="5" height="50"/><rect fill="#82a795" x="255" y="0" width="5" height="50"/><rect fill="#a0c8b5" x="260" y="0" width="5" height="50"/><rect fill="#779d8b" x="265" y="0" width="5" height="50"/><rect fill="#acdbc5" x="270" y="0" width="5" height="50"/><rect fill="#a3e3c5" x="275" y="0" width="5" height="50"/><rect fill="#92bda9" x="280" y="0" width="5" height="50"/><rect fill="#7da592" x="285" y="0" width="5" height="50"/><rect fill="#97c2ae" x="290" y="0" width="5" height="50"/><rect fill="#84ac9a" x="295" y="0" width="5" height="50"/><rect fill="#92c9b0" x="300" y="0" width="5" height="50"/><rect fill="#89b8a3" x="305" y="0" width="5" height="50"/><rect fill="#92c1ad" x="310" y="0" width="5" height="50"/><rect fill="#83b8a2" x="315" y="0" width="5" height="50"/><rect fill="#a4cfbd" x="320" y="0" width="5" height="50"/><rect fill="#7fb19c" x="325" y="0" width="5" height="50"/><rect fill="#aae2cb" x="330" y="0" width="5" height="50"/><rect fill="#96bfae" x="335" y="0" width="5" height="50"/><rect fill="#94cfb7" x="340" y="0" width="5" height="50"/><rect fill="#93bead" x="345" y="0" width="5" height="50"/><rect fill="#a8e3cb" x="350" y="0" width="5" height="50"/><rect fill="#83a798" x="355" y="0" width="5" height="50"/><rect fill="#8fc5af" x="360" y="0" width="5" height="50"/><rect fill="#93cbb6" x="365" y="0" width="5" height="50"/><rect fill="#9dd3be" x="370" y="0" width="5" height="50"/><rect fill="#95c7b5" x="375" y="0" width="5" height="50"/><rect fill="#a7d4c4" x="380" y="0" width="5" height="50"/><rect fill="#9bcebc" x="385" y="0" width="5" height="50"/><rect fill="#98c7b7" x="390" y="0" width="5" height="50"/><rect fill="#b3e4d4" x="395" y="0" width="5" height="50"/><rect fill="#a7d7c8" x="400" y="0" width="5" height="50"/><rect fill="#9fc8bb" x="405" y="0" width="5" height="50"/><rect fill="#9ec7bb" x="410" y="0" width="5" height="50"/><rect fill="#87c0b0" x="415" y="0" width="5" height="50"/><rect fill="#b4e3d5" x="420" y="0" width="5" height="50"/><rect fill="#92cfbe" x="425" y="0" width="5" height="50"/><rect fill="#9fd8c8" x="430" y="0" width="5" height="50"/><rect fill="#8cc4b6" x="435" y="0" width="5" height="50"/><rect fill="#a9d5ca" x="440" y="0" width="5" height="50"/><rect fill="#96c1b6" x="445" y="0" width="5" height="50"/><rect fill="#a1d7c9" x="450" y="0" width="5" height="50"/><rect fill="#aaddd1" x="455" y="0" width="5" height="50"/><rect fill="#a1e3d4" x="460" y="0" width="5" height="50"/><rect fill="#b2e2d8" x="465" y="0" width="5" height="50"/><rect fill="#9dc7be" x="470" y="0" width="5" height="50"/><rect fill="#99d2c5" x="475" y="0" width="5" height="50"/><rect fill="#a6e5d7" x="480" y="0" width="5" height="50"/><rect fill="#a9dad0" x="485" y="0" width="5" height="50"/><rect fill="#88b3aa" x="490" y="0" width="5" height="50"/><rect fill="#96bbb4" x="495" y="0" width="5" height="50"/></g></svg>