<svg version="1.1" xmlns="http://www.w3.org/2000/svg" xmlns:xlink="http://www.w3.org/1999/xlink" width="500" height="50"><g><rect fill="#b70056" x="0" y="0" width="5" height="50"/><rect fill="#a3003c" x="5" y="0" width="5" height="50"/><rect fill="#95001b" x="10" y="0" width="5" height="50"/><rect fill="#970014" x="15" y="0" width="5" height="50"/><rect fill="#a60020" x="20" y="0" width="5" height="50"/><rect fill="#ac0005" x="25" y="0" width="5" height="50"/><rect fill="#a4001a" x="30" y="0" width="5" height="50"/><rect fill="#740000" x="35" y="0" width="5" height="50"/><rect fill="#920000" x="40" y="0" width="5" height="50"/><rect fill="#730000" x="45" y="0" width="5" height="50"/><rect fill="#770000" x="50" y="0" width="5" height="50"/><rect fill="#9d0000" x="55" y="0" width="5" height="50"/><rect fill="#9f1d00" x="60" y="0" width="5" height="50"/><rect fill="#750000" x="65" y="0" width="5" height="50"/><rect fill="#821400" x="70" y="0" width="5" height="50"/><rect fill="#6a0000" x="75" y="0" width="5" height="50"/><rect fill="#740000" x="80" y="0" width="5" height="50"/><rect fill="#912000" x="85" y="0" width="5" height="50"/><rect fill="#651a00" x="90" y="0" width="5" height="50"/><rect fill="#6d3200" x="95" y="0" width="5" height="50"/><rect fill="#864000" x="100" y="0" width="5" height="50"/><rect fill="#662900" x="105" y="0" width="5" height="50"/><rect fill="#5a3600" x="110" y="0" width="5" height="50"/><rect fill="#604b00" x="115" y="0" width="5" height="50"/><rect fill="#422d00" x="120" y="0" width="5" height="50"/><rect fill="#443400" x="125" y="0" width="5" height="50"/><rect fill="#495f00" x="130" y="0" width="5" height="50"/><rect fill="#152f00" x="135" y="0" width="5" height="50"/><rect fill="#1b4700" x="140" y="0" width="5" height="50"/><rect fill="#0f4500" x="145" y="0" width="5" height="50"/><rect fill="#003400" x="150" y="0" width="5" height="50"/><rect fill="#004100" x="155" y="0" width="5" height="50"/><rect fill="#003300" x="160" y="0" width="5" height="50"/><rect fill="#007200" x="165" y="0" width="5" height="50"/><rect fill="#003a00" x="170" y="0" width="5" height="50"/><rect fill="#005800" x="175" y="0" width="5" height="50"/><rect fill="#005300" x="180" y="0" width="5" height="50"/><rect fill="#006500" x="185" y="0" width="5" height="50"/><rect fill="#007000" x="190" y="0" width="5" height="50"/><rect fill="#003a00" x="195" y="0" width="5" height="50"/><rect fill="#006709" x="200" y="0" width="5" height="50"/><rect fill="#003f00" x="205" y="0" width="5" height="50"/><rect fill="#006021" x="210" y="0" width="5" height="50"/><rect fill="#004206" x="215" y="0" width="5" height="50"/><rect fill="#003a05" x="220" y="0" width="5" height="50"/><rect fill="#00713f" x="225" y="0" width="5" height="50"/><rect fill="#00753c" x="230" y="0" width="5" height="50"/><rect fill="#00704b" x="235" y="0" width="5" height="50"/><rect fill="#005844" x="240" y="0" width="5" height="50"/><rect fill="#00755e" x="245" y="0" width="5" height="50"/><rect fill="#007663" x="250" y="0" width="5" height="50"/><rect fill="#007166" x="255" y="0" width="5" height="50"/><rect fill="#004749" x="260" y="0" width="5" height="50"/><rect fill="#004f54" x="265" y="0" width="5" height="50"/><rect fill="#00636a" x="270" y="0" width="5" height="50"/><rect fill="#006d75" x="275" y="0" width="5" height="50"/><rect fill="#006c77" x="280" y="0" width="5" height="50"/><rect fill="#004763" x="285" y="0" width="5" height="50"/><rect fill="#00536a" x="290" y="0" width="5" height="50"/><rect fill="#006d8c" x="295" y="0" width="5" height="50"/><rect fill="#00527c" x="300" y="0" width="5" height="50"/><rect fill="#005ea5" x="305" y="0" width="5" height="50"/><rect fill="#00407d" x="310" y="0" width="5" height="50"/><rect fill="#00478f" x="315" y="0" width="5" height="50"/><rect fill="#006cb1" x="320" y="0" width="5" height="50"/><rect fill="#004698" x="325" y="0" width="5" height="50"/><rect fill="#0045a4" x="330" y="0" width="5" height="50"/><rect fill="#00368a" x="335" y="0" width="5" height="50"/><rect fill="#0048ab" x="340" y="0" width="5" height="50"/><rect fill="#006cce" x="345" y="0" width="5" height="50"/><rect fill="#005fe2" x="350" y="0" width="5" height="50"/><rect fill="#004fec" x="355" y="0" width="5" height="50"/><rect fill="#0058d3" x="360" y="0" width="5" height="50"/><rect fill="#0049be" x="365" y="0" width="5" height="50"/><rect fill="#002aba" x="370" y="0" width="5" height="50"/><rect fill="#191495" x="375" y="0" width="5" height="50"/><rect fill="#5d33b9" x="380" y="0" width="5" height="50"/><rect fill="#511092" x="385" y="0" width="5" height="50"/><rect fill="#4a0093" x="390" y="0" width="5" height="50"/><rect fill="#580082" x="395" y="0" width="5" height="50"/><rect fill="#8500b0" x="400" y="0" width="5" height="50"/><rect fill="#a000c7" x="405" y="0" width="5" height="50"/><rect fill="#5d0087" x="410" y="0" width="5" height="50"/><rect fill="#790a91" x="415" y="0" width="5" height="50"/><rect fill="#83009c" x="420" y="0" width="5" height="50"/><rect fill="#9c0fae" x="425" y="0" width="5" height="50"/><rect fill="#820082" x="430" y="0" width="5" height="50"/><rect fill="#90008f" x="435" y="0" width="5" height="50"/><rect fill="#85007d" x="440" y="0" width="5" height="50"/><rect fill="#ae00a0" x="445" y="0" width="5" height="50"/><rect fill="#8f0073" x="450" y="0" width="5" height="50"/><rect fill="#870064" x="455" y="0" width="5" height="50"/><rect fill="#ae007f" x="460" y="0" width="5" height="50"/><rect fill="#bf008b" x="465" y="0" width="5" height="50"/><rect fill="#b00069" x="470" y="0" width="5" height="50"/><rect fill="#78003b" x="475" y="0" width="5" height="50"/><rect fill="#b20057" x="480" y="0" width="5" height="50"/><rect fill="#c6006c" x="485" y="0" width="5" height="50"/><rect fill="#850032" x="490" y="0" width="5" height="50"/><rect fill="#8e0037" x="495" y="0" width="5" height="50"/></g></svg>