<svg version="1.1" xmlns="http://www.w3.org/2000/svg" xmlns:xlink="http://www.w3.org/1999/xlink" width="500" height="50"><g><rect fill="#e2a2a0" x="0" y="0" width="5" height="50"/><rect fill="#fbd4d0" x="5" y="0" width="5" height="50"/><rect fill="#e9cac5" x="10" y="0" width="5" height="50"/><rect fill="#d6b3a9" x="15" y="0" width="5" height="50"/><rect fill="#dcc3b3" x="20" y="0" width="5" height="50"/><rect fill="#d9c6b8" x="25" y="0" width="5" height="50"/><rect fill="#caaf9a" x="30" y="0" width="5" height="50"/><rect fill="#d5b79e" x="35" y="0" width="5" height="50"/><rect fill="#dabf9f" x="40" y="0" width="5" height="50"/><rect fill="#b8a383" x="45" y="0" width="5" height="50"/><rect fill="#dacc9b" x="50" y="0" width="5" height="50"/><rect fill="#bbb986" x="55" y="0" width="5" height="50"/><rect fill="#e1e0bd" x="60" y="0" width="5" height="50"/><rect fill="#d4d4b1" x="65" y="0" width="5" height="50"/><rect fill="#e0e0b3" x="70" y="0" width="5" height="50"/><rect fill="#d1d4ae" x="75" y="0" width="5" height="50"/><rect fill="#c8cca0" x="80" y="0" width="5" height="50"/><rect fill="#e5ebb0" x="85" y="0" width="5" height="50"/><rect fill="#f6fdc1" x="90" y="0" width="5" height="50"/><rect fill="#cfda99" x="95" y="0" width="5" height="50"/><rect fill="#c7cea9" x="100" y="0" width="5" height="50"/><rect fill="#d9e1b9" x="105" y="0" width="5" height="50"/><rect fill="#bacc92" x="110" y="0" width="5" height="50"/><rect fill="#c3d0a6" x="115" y="0" width="5" height="50"/><rect fill="#cddcaf" x="120" y="0" width="5" height="50"/><rect fill="#a9be91" x="125" y="0" width="5" height="50"/><rect fill="#c0dfa2" x="130" y="0" width="5" height="50"/><rect fill="#b5cf9c" x="135" y="0" width="5" height="50"/><rect fill="#d9fdbd" x="140" y="0" width="5" height="50"/><rect fill="#c6dfb8" x="145" y="0" width="5" height="50"/><rect fill="#96b78b" x="150" y="0" width="5" height="50"/><rect fill="#b0d3a5" x="155" y="0" width="5" height="50"/><rect fill="#abc6a8" x="160" y="0" width="5" height="50"/><rect fill="#bbf1bc" x="165" y="0" width="5" height="50"/><rect fill="#a0c6a4" x="170" y="0" width="5" height="50"/><rect fill="#9ebaa4" x="175" y="0" width="5" height="50"/><rect fill="#ade1b9" x="180" y="0" width="5" height="50"/><rect fill="#92cea3" x="185" y="0" width="5" height="50"/><rect fill="#add2ba" x="190" y="0" width="5" height="50"/><rect fill="#a5eac1" x="195" y="0" width="5" height="50"/><rect fill="#95cbac" x="200" y="0" width="5" height="50"/><rect fill="#c3ead8" x="205" y="0" width="5" height="50"/><rect fill="#b8f2d7" x="210" y="0" width="5" height="50"/><rect fill="#b3f2d7" x="215" y="0" width="5" height="50"/><rect fill="#b2f7ed" x="220" y="0" width="5" height="50"/><rect fill="#9dc7c3" x="225" y="0" width="5" height="50"/><rect fill="#a6c5c3" x="230" y="0" width="5" height="50"/><rect fill="#acdde4" x="235" y="0" width="5" height="50"/><rect fill="#bde3e9" x="240" y="0" width="5" height="50"/><rect fill="#c1e3ed" x="245" y="0" width="5" height="50"/><rect fill="#87b0bf" x="250" y="0" width="5" height="50"/><rect fill="#afd4e4" x="255" y="0" width="5" height="50"/><rect fill="#bfdff4" x="260" y="0" width="5" height="50"/><rect fill="#a4c8e7" x="265" y="0" width="5" height="50"/><rect fill="#adcff5" x="270" y="0" width="5" height="50"/><rect fill="#bed7f4" x="275" y="0" width="5" height="50"/><rect fill="#a0b3cc" x="280" y="0" width="5" height="50"/><rect fill="#9cb2d4" x="285" y="0" width="5" height="50"/><rect fill="#9fb6dd" x="290" y="0" width="5" height="50"/><rect fill="#b1c3eb" x="295" y="0" width="5" height="50"/><rect fill="#b2bae8" x="300" y="0" width="5" height="50"/><rect fill="#caccf8" x="305" y="0" width="5" height="50"/><rect fill="#827fb4" x="310" y="0" width="5" height="50"/><rect fill="#a49fd9" x="315" y="0" width="5" height="50"/><rect fill="#b1a6ea" x="320" y="0" width="5" height="50"/><rect fill="#ccc1fa" x="325" y="0" width="5" height="50"/><rect fill="#aba0c8" x="330" y="0" width="5" height="50"/><rect fill="#b9a3e5" x="335" y="0" width="5" height="50"/><rect fill="#c1a9e0" x="340" y="0" width="5" height="50"/><rect fill="#caafe1" x="345" y="0" width="5" height="50"/><rect fill="#b893cd" x="350" y="0" width="5" height="50"/><rect fill="#bd92ce" x="355" y="0" width="5" height="50"/><rect fill="#e3b8f2" x="360" y="0" width="5" height="50"/><rect fill="#cfadd9" x="365" y="0" width="5" height="50"/><rect fill="#c093c5" x="370" y="0" width="5" height="50"/><rect fill="#e1b5e4" x="375" y="0" width="5" height="50"/><rect fill="#e4afe5" x="380" y="0" width="5" height="50"/><rect fill="#e0a9e0" x="385" y="0" width="5" height="50"/><rect fill="#e9b5e8" x="390" y="0" width="5" height="50"/><rect fill="#e5bbe2" x="395" y="0" width="5" height="50"/><rect fill="#ca9ac6" x="400" y="0" width="5" height="50"/><rect fill="#c990c3" x="405" y="0" width="5" height="50"/><rect fill="#ddb4d8" x="410" y="0" width="5" height="50"/><rect fill="#e2b0d5" x="415" y="0" width="5" height="50"/><rect fill="#b681a8" x="420" y="0" width="5" height="50"/><rect fill="#b999b0" x="425" y="0" width="5" height="50"/><rect fill="#f3c3e0" x="430" y="0" width="5" height="50"/><rect fill="#b3829e" x="435" y="0" width="5" height="50"/><rect fill="#c39db0" x="440" y="0" width="5" height="50"/><rect fill="#ebabc6" x="445" y="0" width="5" height="50"/><rect fill="#cb99ad" x="450" y="0" width="5" height="50"/><rect fill="#ce9aa9" x="455" y="0" width="5" height="50"/><rect fill="#d099a6" x="460" y="0" width="5" height="50"/><rect fill="#e3b4ba" x="465" y="0" width="5" height="50"/><rect fill="#b58c90" x="470" y="0" width="5" height="50"/><rect fill="#eaabb1" x="475" y="0" width="5" height="50"/><rect fill="#f6bdc2" x="480" y="0" width="5" height="50"/><rect fill="#c0979a" x="485" y="0" width="5" height="50"/><rect fill="#f8cdce" x="490" y="0" width="5" height="50"/><rect fill="#d9b5b5" x="495" y="0" width="5" height="50"/></g></svg>