<svg version="1.1" xmlns="http://www.w3.org/2000/svg" xmlns:xlink="http://www.w3.org/1999/xlink" width="500" height="50"><g><rect fill="#0c4d19" x="0" y="0" width="5" height="50"/><rect fill="#0c4919" x="5" y="0" width="5" height="50"/><rect fill="#00380c" x="10" y="0" width="5" height="50"/><rect fill="#03270b" x="15" y="0" width="5" height="50"/><rect fill="#0e3a18" x="20" y="0" width="5" height="50"/><rect fill="#09521c" x="25" y="0" width="5" height="50"/><rect fill="#0e4f20" x="30" y="0" width="5" height="50"/><rect fill="#08491a" x="35" y="0" width="5" height="50"/><rect fill="#165b29" x="40" y="0" width="5" height="50"/><rect fill="#134922" x="45" y="0" width="5" height="50"/><rect fill="#093917" x="50" y="0" width="5" height="50"/><rect fill="#0e3017" x="55" y="0" width="5" height="50"/><rect fill="#043011" x="60" y="0" width="5" height="50"/><rect fill="#154a25" x="65" y="0" width="5" height="50"/><rect fill="#072c12" x="70" y="0" width="5" height="50"/><rect fill="#10411f" x="75" y="0" width="5" height="50"/><rect fill="#15652d" x="80" y="0" width="5" height="50"/><rect fill="#0c4b20" x="85" y="0" width="5" height="50"/><rect fill="#013411" x="90" y="0" width="5" height="50"/><rect fill="#0c371a" x="95" y="0" width="5" height="50"/><rect fill="#13622d" x="100" y="0" width="5" height="50"/><rect fill="#073015" x="105" y="0" width="5" height="50"/><rect fill="#05461b" x="110" y="0" width="5" height="50"/><rect fill="#01280e" x="115" y="0" width="5" height="50"/><rect fill="#12582b" x="120" y="0" width="5" height="50"/><rect fill="#012a10" x="125" y="0" width="5" height="50"/><rect fill="#0c2d18" x="130" y="0" width="5" height="50"/><rect fill="#013a17" x="135" y="0" width="5" height="50"/><rect fill="#022d13" x="140" y="0" width="5" height="50"/><rect fill="#072713" x="145" y="0" width="5" height="50"/><rect fill="#0e572b" x="150" y="0" width="5" height="50"/><rect fill="#07401d" x="155" y="0" width="5" height="50"/><rect fill="#054920" x="160" y="0" width="5" height="50"/><rect fill="#0b642f" x="165" y="0" width="5" height="50"/><rect fill="#0c301a" x="170" y="0" width="5" height="50"/><rect fill="#0c6531" x="175" y="0" width="5" height="50"/><rect fill="#0d2f1c" x="180" y="0" width="5" height="50"/><rect fill="#0f572e" x="185" y="0" width="5" height="50"/><rect fill="#085228" x="190" y="0" width="5" height="50"/><rect fill="#0c2b19" x="195" y="0" width="5" height="50"/><rect fill="#0e4024" x="200" y="0" width="5" height="50"/><rect fill="#155d35" x="205" y="0" width="5" height="50"/><rect fill="#0e522d" x="210" y="0" width="5" height="50"/><rect fill="#02401e" x="215" y="0" width="5" height="50"/><rect fill="#01381a" x="220" y="0" width="5" height="50"/><rect fill="#07301a" x="225" y="0" width="5" height="50"/><rect fill="#0b3720" x="230" y="0" width="5" height="50"/><rect fill="#0b2d1b" x="235" y="0" width="5" height="50"/><rect fill="#076032" x="240" y="0" width="5" height="50"/><rect fill="#03381e" x="245" y="0" width="5" height="50"/><rect fill="#074828" x="250" y="0" width="5" height="50"/><rect fill="#10442b" x="255" y="0" width="5" height="50"/><rect fill="#175135" x="260" y="0" width="5" height="50"/><rect fill="#103b27" x="265" y="0" width="5" height="50"/><rect fill="#093722" x="270" y="0" width="5" height="50"/><rect fill="#0a2d1d" x="275" y="0" width="5" height="50"/><rect fill="#0b3221" x="280" y="0" width="5" height="50"/><rect fill="#13613f" x="285" y="0" width="5" height="50"/><rect fill="#063320" x="290" y="0" width="5" height="50"/><rect fill="#0a603c" x="295" y="0" width="5" height="50"/><rect fill="#1a5b40" x="300" y="0" width="5" height="50"/><rect fill="#09402a" x="305" y="0" width="5" height="50"/><rect fill="#135f40" x="310" y="0" width="5" height="50"/><rect fill="#0f6141" x="315" y="0" width="5" height="50"/><rect fill="#0e422e" x="320" y="0" width="5" height="50"/><rect fill="#062f1f" x="325" y="0" width="5" height="50"/><rect fill="#065f3d" x="330" y="0" width="5" height="50"/><rect fill="#043120" x="335" y="0" width="5" height="50"/><rect fill="#004a2f" x="340" y="0" width="5" height="50"/><rect fill="#023120" x="345" y="0" width="5" height="50"/><rect fill="#004e32" x="350" y="0" width="5" height="50"/><rect fill="#0b402e" x="355" y="0" width="5" height="50"/><rect fill="#083b29" x="360" y="0" width="5" height="50"/><rect fill="#064e36" x="365" y="0" width="5" height="50"/><rect fill="#015238" x="370" y="0" width="5" height="50"/><rect fill="#023b28" x="375" y="0" width="5" height="50"/><rect fill="#0e3427" x="380" y="0" width="5" height="50"/><rect fill="#0c2c21" x="385" y="0" width="5" height="50"/><rect fill="#1a5945" x="390" y="0" width="5" height="50"/><rect fill="#124334" x="395" y="0" width="5" height="50"/><rect fill="#0e5f47" x="400" y="0" width="5" height="50"/><rect fill="#185543" x="405" y="0" width="5" height="50"/><rect fill="#0d5e46" x="410" y="0" width="5" height="50"/><rect fill="#0a5b44" x="415" y="0" width="5" height="50"/><rect fill="#08372a" x="420" y="0" width="5" height="50"/><rect fill="#055e45" x="425" y="0" width="5" height="50"/><rect fill="#026147" x="430" y="0" width="5" height="50"/><rect fill="#1a6551" x="435" y="0" width="5" height="50"/><rect fill="#145242" x="440" y="0" width="5" height="50"/><rect fill="#012b20" x="445" y="0" width="5" height="50"/><rect fill="#065642" x="450" y="0" width="5" height="50"/><rect fill="#1c6553" x="455" y="0" width="5" height="50"/><rect fill="#084d3c" x="460" y="0" width="5" height="50"/><rect fill="#062f25" x="465" y="0" width="5" height="50"/><rect fill="#136552" x="470" y="0" width="5" height="50"/><rect fill="#103a30" x="475" y="0" width="5" height="50"/><rect fill="#083d31" x="480" y="0" width="5" height="50"/><rect fill="#01614c" x="485" y="0" width="5" height="50"/><rect fill="#0e3930" x="490" y="0" width="5" height="50"/><rect fill="#062821" x="495" y="0" width="5" height="50"/></g></svg>