<svg version="1.1" xmlns="http://www.w3.org/2000/svg" xmlns:xlink="http://www.w3.org/1999/xlink" width="500" height="50"><g><rect fill="#ce5039" x="0" y="0" width="5" height="50"/><rect fill="#fd8e54" x="5" y="0" width="5" height="50"/><rect fill="#f2a06a" x="10" y="0" width="5" height="50"/><rect fill="#d37e3e" x="15" y="0" width="5" height="50"/><rect fill="#d07b37" x="20" y="0" width="5" height="50"/><rect fill="#e2984e" x="25" y="0" width="5" height="50"/><rect fill="#f4a246" x="30" y="0" width="5" height="50"/><rect fill="#e59a43" x="35" y="0" width="5" height="50"/><rect fill="#e6a556" x="40" y="0" width="5" height="50"/><rect fill="#d2a349" x="45" y="0" width="5" height="50"/><rect fill="#e9b139" x="50" y="0" width="5" height="50"/><rect fill="#f8c657" x="55" y="0" width="5" height="50"/><rect fill="#d6a434" x="60" y="0" width="5" height="50"/><rect fill="#d3c57e" x="65" y="0" width="5" height="50"/><rect fill="#ded857" x="70" y="0" width="5" height="50"/><rect fill="#dbe07b" x="75" y="0" width="5" height="50"/><rect fill="#ebf980" x="80" y="0" width="5" height="50"/><rect fill="#c4d44f" x="85" y="0" width="5" height="50"/><rect fill="#cee843" x="90" y="0" width="5" height="50"/><rect fill="#d9f579" x="95" y="0" width="5" height="50"/><rect fill="#dbff98" x="100" y="0" width="5" height="50"/><rect fill="#b2e177" x="105" y="0" width="5" height="50"/><rect fill="#a2e756" x="110" y="0" width="5" height="50"/><rect fill="#82e74e" x="115" y="0" width="5" height="50"/><rect fill="#94e470" x="120" y="0" width="5" height="50"/><rect fill="#97f36e" x="125" y="0" width="5" height="50"/><rect fill="#8bfa67" x="130" y="0" width="5" height="50"/><rect fill="#7fe469" x="135" y="0" width="5" height="50"/><rect fill="#59ed3d" x="140" y="0" width="5" height="50"/><rect fill="#56e553" x="145" y="0" width="5" height="50"/><rect fill="#51ed4f" x="150" y="0" width="5" height="50"/><rect fill="#5bd561" x="155" y="0" width="5" height="50"/><rect fill="#65e473" x="160" y="0" width="5" height="50"/><rect fill="#60e36f" x="165" y="0" width="5" height="50"/><rect fill="#51fb81" x="170" y="0" width="5" height="50"/><rect fill="#38e771" x="175" y="0" width="5" height="50"/><rect fill="#83dfa2" x="180" y="0" width="5" height="50"/><rect fill="#73fea9" x="185" y="0" width="5" height="50"/><rect fill="#37f28c" x="190" y="0" width="5" height="50"/><rect fill="#72d6c6" x="195" y="0" width="5" height="50"/><rect fill="#69f7e3" x="200" y="0" width="5" height="50"/><rect fill="#44e3d0" x="205" y="0" width="5" height="50"/><rect fill="#7cebdf" x="210" y="0" width="5" height="50"/><rect fill="#7dd3e4" x="215" y="0" width="5" height="50"/><rect fill="#7dbfd0" x="220" y="0" width="5" height="50"/><rect fill="#76c0da" x="225" y="0" width="5" height="50"/><rect fill="#68ccf9" x="230" y="0" width="5" height="50"/><rect fill="#2d96cf" x="235" y="0" width="5" height="50"/><rect fill="#77a6db" x="240" y="0" width="5" height="50"/><rect fill="#3b72cd" x="245" y="0" width="5" height="50"/><rect fill="#3c80f4" x="250" y="0" width="5" height="50"/><rect fill="#6c8ccf" x="255" y="0" width="5" height="50"/><rect fill="#5f8bea" x="260" y="0" width="5" height="50"/><rect fill="#7994d5" x="265" y="0" width="5" height="50"/><rect fill="#5075d6" x="270" y="0" width="5" height="50"/><rect fill="#3d63ce" x="275" y="0" width="5" height="50"/><rect fill="#5f79dc" x="280" y="0" width="5" height="50"/><rect fill="#4962e6" x="285" y="0" width="5" height="50"/><rect fill="#808ff2" x="290" y="0" width="5" height="50"/><rect fill="#4755e0" x="295" y="0" width="5" height="50"/><rect fill="#6d74f8" x="300" y="0" width="5" height="50"/><rect fill="#6569fb" x="305" y="0" width="5" height="50"/><rect fill="#5351f8" x="310" y="0" width="5" height="50"/><rect fill="#4335ee" x="315" y="0" width="5" height="50"/><rect fill="#483ad7" x="320" y="0" width="5" height="50"/><rect fill="#3d2ecd" x="325" y="0" width="5" height="50"/><rect fill="#6959fe" x="330" y="0" width="5" height="50"/><rect fill="#826ce1" x="335" y="0" width="5" height="50"/><rect fill="#6c4adc" x="340" y="0" width="5" height="50"/><rect fill="#774ad9" x="345" y="0" width="5" height="50"/><rect fill="#7445d1" x="350" y="0" width="5" height="50"/><rect fill="#9973e1" x="355" y="0" width="5" height="50"/><rect fill="#8e52fa" x="360" y="0" width="5" height="50"/><rect fill="#8a37fa" x="365" y="0" width="5" height="50"/><rect fill="#9f4aff" x="370" y="0" width="5" height="50"/><rect fill="#a563eb" x="375" y="0" width="5" height="50"/><rect fill="#ca94f8" x="380" y="0" width="5" height="50"/><rect fill="#9835de" x="385" y="0" width="5" height="50"/><rect fill="#c17fe8" x="390" y="0" width="5" height="50"/><rect fill="#aa44dc" x="395" y="0" width="5" height="50"/><rect fill="#cc7be7" x="400" y="0" width="5" height="50"/><rect fill="#c460e2" x="405" y="0" width="5" height="50"/><rect fill="#ee71f2" x="410" y="0" width="5" height="50"/><rect fill="#fc94fa" x="415" y="0" width="5" height="50"/><rect fill="#da45cd" x="420" y="0" width="5" height="50"/><rect fill="#f18ddc" x="425" y="0" width="5" height="50"/><rect fill="#d640a6" x="430" y="0" width="5" height="50"/><rect fill="#e046ac" x="435" y="0" width="5" height="50"/><rect fill="#ff71cd" x="440" y="0" width="5" height="50"/><rect fill="#f987cd" x="445" y="0" width="5" height="50"/><rect fill="#d14695" x="450" y="0" width="5" height="50"/><rect fill="#d55e98" x="455" y="0" width="5" height="50"/><rect fill="#d6538f" x="460" y="0" width="5" height="50"/><rect fill="#fa679c" x="465" y="0" width="5" height="50"/><rect fill="#f0578d" x="470" y="0" width="5" height="50"/><rect fill="#ec527d" x="475" y="0" width="5" height="50"/><rect fill="#f1537f" x="480" y="0" width="5" height="50"/><rect fill="#f38ea3" x="485" y="0" width="5" height="50"/><rect fill="#fe7088" x="490" y="0" width="5" height="50"/><rect fill="#f38194" x="495" y="0" width="5" height="50"/></g></svg>