<svg version="1.1" xmlns="http://www.w3.org/2000/svg" xmlns:xlink="http://www.w3.org/1999/xlink" width="500" height="50"><g><rect fill="#00ffff" x="0" y="0" width="5" height="50"/><rect fill="#414141" x="5" y="0" width="5" height="50"/><rect fill="#2e2e2e" x="10" y="0" width="5" height="50"/><rect fill="#ffc334" x="15" y="0" width="5" height="50"/><rect fill="#ff9fd3" x="20" y="0" width="5" height="50"/><rect fill="#fff826" x="25" y="0" width="5" height="50"/><rect fill="#090909" x="30" y="0" width="5" height="50"/><rect fill="#f4c700" x="35" y="0" width="5" height="50"/><rect fill="#00ffd6" x="40" y="0" width="5" height="50"/><rect fill="#ff73c0" x="45" y="0" width="5" height="50"/><rect fill="#ffd438" x="50" y="0" width="5" height="50"/><rect fill="#3e3e3e" x="55" y="0" width="5" height="50"/><rect fill="#ffb61f" x="60" y="0" width="5" height="50"/><rect fill="#fefefe" x="65" y="0" width="5" height="50"/><rect fill="#fce13f" x="70" y="0" width="5" height="50"/><rect fill="#ffa2b9" x="75" y="0" width="5" height="50"/><rect fill="#00f4ce" x="80" y="0" width="5" height="50"/><rect fill="#ebebeb" x="85" y="0" width="5" height="50"/><rect fill="#747474" x="90" y="0" width="5" height="50"/><rect fill="#00ffff" x="95" y="0" width="5" height="50"/><rect fill="#1c1c1c" x="100" y="0" width="5" height="50"/><rect fill="#00ffe9" x="105" y="0" width="5" height="50"/><rect fill="#222222" x="110" y="0" width="5" height="50"/><rect fill="#ffed2a" x="115" y="0" width="5" height="50"/><rect fill="#00ecbe" x="120" y="0" width="5" height="50"/><rect fill="#737373" x="125" y="0" width="5" height="50"/><rect fill="#ffc337" x="130" y="0" width="5" height="50"/><rect fill="#00eee8" x="135" y="0" width="5" height="50"/><rect fill="#00fbe3" x="140" y="0" width="5" height="50"/><rect fill="#b0b0b0" x="145" y="0" width="5" height="50"/><rect fill="#ff7ac8" x="150" y="0" width="5" height="50"/><rect fill="#f4f4f4" x="155" y="0" width="5" height="50"/><rect fill="#5d5d5d" x="160" y="0" width="5" height="50"/><rect fill="#484848" x="165" y="0" width="5" height="50"/><rect fill="#6f6f6f" x="170" y="0" width="5" height="50"/><rect fill="#00e9ae" x="175" y="0" width="5" height="50"/><rect fill="#00ffff" x="180" y="0" width="5" height="50"/><rect fill="#a6a6a6" x="185" y="0" width="5" height="50"/><rect fill="#00fff7" x="190" y="0" width="5" height="50"/><rect fill="#ff8c93" x="195" y="0" width="5" height="50"/><rect fill="#ffe449" x="200" y="0" width="5" height="50"/><rect fill="#ffd23d" x="205" y="0" width="5" height="50"/><rect fill="#ffd233" x="210" y="0" width="5" height="50"/><rect fill="#151515" x="215" y="0" width="5" height="50"/><rect fill="#ffbc00" x="220" y="0" width="5" height="50"/><rect fill="#868686" x="225" y="0" width="5" height="50"/><rect fill="#c4c4c4" x="230" y="0" width="5" height="50"/><rect fill="#c3c3c3" x="235" y="0" width="5" height="50"/><rect fill="#ff9acf" x="240" y="0" width="5" height="50"/><rect fill="#ffc453" x="245" y="0" width="5" height="50"/><rect fill="#00eeb1" x="250" y="0" width="5" height="50"/><rect fill="#fefefe" x="255" y="0" width="5" height="50"/><rect fill="#ffcb28" x="260" y="0" width="5" height="50"/><rect fill="#ff85c7" x="265" y="0" width="5" height="50"/><rect fill="#ffc043" x="270" y="0" width="5" height="50"/><rect fill="#c0c0c0" x="275" y="0" width="5" height="50"/><rect fill="#f8f131" x="280" y="0" width="5" height="50"/><rect fill="#ffb930" x="285" y="0" width="5" height="50"/><rect fill="#ff74e4" x="290" y="0" width="5" height="50"/><rect fill="#a6a6a6" x="295" y="0" width="5" height="50"/><rect fill="#ffd902" x="300" y="0" width="5" height="50"/><rect fill="#ffa3e3" x="305" y="0" width="5" height="50"/><rect fill="#9b9b9b" x="310" y="0" width="5" height="50"/><rect fill="#ffa3f0" x="315" y="0" width="5" height="50"/><rect fill="#efc700" x="320" y="0" width="5" height="50"/><rect fill="#181818" x="325" y="0" width="5" height="50"/><rect fill="#00ffe0" x="330" y="0" width="5" height="50"/><rect fill="#232323" x="335" y="0" width="5" height="50"/><rect fill="#ffaaef" x="340" y="0" width="5" height="50"/><rect fill="#606060" x="345" y="0" width="5" height="50"/><rect fill="#ff7fee" x="350" y="0" width="5" height="50"/><rect fill="#ffdf16" x="355" y="0" width="5" height="50"/><rect fill="#ff9ffc" x="360" y="0" width="5" height="50"/><rect fill="#ffadf8" x="365" y="0" width="5" height="50"/><rect fill="#ff97cb" x="370" y="0" width="5" height="50"/><rect fill="#00ffff" x="375" y="0" width="5" height="50"/><rect fill="#d7cf20" x="380" y="0" width="5" height="50"/><rect fill="#ffe23b" x="385" y="0" width="5" height="50"/><rect fill="#868686" x="390" y="0" width="5" height="50"/><rect fill="#ff87c7" x="395" y="0" width="5" height="50"/><rect fill="#ff7ca9" x="400" y="0" width="5" height="50"/><rect fill="#7c7c7c" x="405" y="0" width="5" height="50"/><rect fill="#00ffff" x="410" y="0" width="5" height="50"/><rect fill="#c7c7c7" x="415" y="0" width="5" height="50"/><rect fill="#393939" x="420" y="0" width="5" height="50"/><rect fill="#ffe43f" x="425" y="0" width="5" height="50"/><rect fill="#ffd85c" x="430" y="0" width="5" height="50"/><rect fill="#ffd32b" x="435" y="0" width="5" height="50"/><rect fill="#ffcb32" x="440" y="0" width="5" height="50"/><rect fill="#cecece" x="445" y="0" width="5" height="50"/><rect fill="#0c0c0c" x="450" y="0" width="5" height="50"/><rect fill="#393939" x="455" y="0" width="5" height="50"/><rect fill="#d3d3d3" x="460" y="0" width="5" height="50"/><rect fill="#00ffff" x="465" y="0" width="5" height="50"/><rect fill="#cecece" x="470" y="0" width="5" height="50"/><rect fill="#ff7fc6" x="475" y="0" width="5" height="50"/><rect fill="#00ffe1" x="480" y="0" width="5" height="50"/><rect fill="#565656" x="485" y="0" width="5" height="50"/><rect fill="#00f4df" x="490" y="0" width="5" height="50"/><rect fill="#00fcff" x="495" y="0" width="5" height="50"/></g></svg>