<svg version="1.1" xmlns="http://www.w3.org/2000/svg" xmlns:xlink="http://www.w3.org/1999/xlink" width="500" height="50"><g><rect fill="#741d00" x="0" y="0" width="5" height="50"/><rect fill="#ffe300" x="5" y="0" width="5" height="50"/><rect fill="#00635c" x="10" y="0" width="5" height="50"/><rect fill="#494949" x="15" y="0" width="5" height="50"/><rect fill="#006a58" x="20" y="0" width="5" height="50"/><rect fill="#883800" x="25" y="0" width="5" height="50"/><rect fill="#ff86b0" x="30" y="0" width="5" height="50"/><rect fill="#dcd100" x="35" y="0" width="5" height="50"/><rect fill="#ffd700" x="40" y="0" width="5" height="50"/><rect fill="#f9d800" x="45" y="0" width="5" height="50"/><rect fill="#ededed" x="50" y="0" width="5" height="50"/><rect fill="#b5b5b5" x="55" y="0" width="5" height="50"/><rect fill="#00fffe" x="60" y="0" width="5" height="50"/><rect fill="#ffe833" x="65" y="0" width="5" height="50"/><rect fill="#613f00" x="70" y="0" width="5" height="50"/><rect fill="#00ffff" x="75" y="0" width="5" height="50"/><rect fill="#f4c900" x="80" y="0" width="5" height="50"/><rect fill="#c00033" x="85" y="0" width="5" height="50"/><rect fill="#623900" x="90" y="0" width="5" height="50"/><rect fill="#9a0038" x="95" y="0" width="5" height="50"/><rect fill="#653500" x="100" y="0" width="5" height="50"/><rect fill="#ff75bf" x="105" y="0" width="5" height="50"/><rect fill="#d1d1d1" x="110" y="0" width="5" height="50"/><rect fill="#ff66c7" x="115" y="0" width="5" height="50"/><rect fill="#303030" x="120" y="0" width="5" height="50"/><rect fill="#101010" x="125" y="0" width="5" height="50"/><rect fill="#005222" x="130" y="0" width="5" height="50"/><rect fill="#005239" x="135" y="0" width="5" height="50"/><rect fill="#00ffef" x="140" y="0" width="5" height="50"/><rect fill="#b0000f" x="145" y="0" width="5" height="50"/><rect fill="#524900" x="150" y="0" width="5" height="50"/><rect fill="#00ffca" x="155" y="0" width="5" height="50"/><rect fill="#ff6be5" x="160" y="0" width="5" height="50"/><rect fill="#ff7fb5" x="165" y="0" width="5" height="50"/><rect fill="#252525" x="170" y="0" width="5" height="50"/><rect fill="#724400" x="175" y="0" width="5" height="50"/><rect fill="#cccccc" x="180" y="0" width="5" height="50"/><rect fill="#004a6e" x="185" y="0" width="5" height="50"/><rect fill="#1b1b1b" x="190" y="0" width="5" height="50"/><rect fill="#c70031" x="195" y="0" width="5" height="50"/><rect fill="#543f00" x="200" y="0" width="5" height="50"/><rect fill="#fcfcfc" x="205" y="0" width="5" height="50"/><rect fill="#313131" x="210" y="0" width="5" height="50"/><rect fill="#606060" x="215" y="0" width="5" height="50"/><rect fill="#00ffe6" x="220" y="0" width="5" height="50"/><rect fill="#060606" x="225" y="0" width="5" height="50"/><rect fill="#a9002a" x="230" y="0" width="5" height="50"/><rect fill="#a80030" x="235" y="0" width="5" height="50"/><rect fill="#ffaa01" x="240" y="0" width="5" height="50"/><rect fill="#00627c" x="245" y="0" width="5" height="50"/><rect fill="#004a32" x="250" y="0" width="5" height="50"/><rect fill="#ffc500" x="255" y="0" width="5" height="50"/><rect fill="#ffc800" x="260" y="0" width="5" height="50"/><rect fill="#fed800" x="265" y="0" width="5" height="50"/><rect fill="#ad0049" x="270" y="0" width="5" height="50"/><rect fill="#a20003" x="275" y="0" width="5" height="50"/><rect fill="#00ffff" x="280" y="0" width="5" height="50"/><rect fill="#00ffff" x="285" y="0" width="5" height="50"/><rect fill="#004d56" x="290" y="0" width="5" height="50"/><rect fill="#ffa2ff" x="295" y="0" width="5" height="50"/><rect fill="#dbdbdb" x="300" y="0" width="5" height="50"/><rect fill="#707070" x="305" y="0" width="5" height="50"/><rect fill="#ff83c7" x="310" y="0" width="5" height="50"/><rect fill="#848484" x="315" y="0" width="5" height="50"/><rect fill="#673900" x="320" y="0" width="5" height="50"/><rect fill="#00ffff" x="325" y="0" width="5" height="50"/><rect fill="#292929" x="330" y="0" width="5" height="50"/><rect fill="#ffc700" x="335" y="0" width="5" height="50"/><rect fill="#545454" x="340" y="0" width="5" height="50"/><rect fill="#a5a5a5" x="345" y="0" width="5" height="50"/><rect fill="#fee800" x="350" y="0" width="5" height="50"/><rect fill="#ff76b7" x="355" y="0" width="5" height="50"/><rect fill="#ff89ae" x="360" y="0" width="5" height="50"/><rect fill="#fbf200" x="365" y="0" width="5" height="50"/><rect fill="#8a8a8a" x="370" y="0" width="5" height="50"/><rect fill="#eeeeee" x="375" y="0" width="5" height="50"/><rect fill="#ffdb0d" x="380" y="0" width="5" height="50"/><rect fill="#5e5e5e" x="385" y="0" width="5" height="50"/><rect fill="#888888" x="390" y="0" width="5" height="50"/><rect fill="#ba004d" x="395" y="0" width="5" height="50"/><rect fill="#ff8a9e" x="400" y="0" width="5" height="50"/><rect fill="#ff90e4" x="405" y="0" width="5" height="50"/><rect fill="#ff69c0" x="410" y="0" width="5" height="50"/><rect fill="#ffbe1e" x="415" y="0" width="5" height="50"/><rect fill="#770a00" x="420" y="0" width="5" height="50"/><rect fill="#006280" x="425" y="0" width="5" height="50"/><rect fill="#191919" x="430" y="0" width="5" height="50"/><rect fill="#a20019" x="435" y="0" width="5" height="50"/><rect fill="#004e69" x="440" y="0" width="5" height="50"/><rect fill="#ffd63e" x="445" y="0" width="5" height="50"/><rect fill="#ff7ff9" x="450" y="0" width="5" height="50"/><rect fill="#727272" x="455" y="0" width="5" height="50"/><rect fill="#fff100" x="460" y="0" width="5" height="50"/><rect fill="#696969" x="465" y="0" width="5" height="50"/><rect fill="#ff98ff" x="470" y="0" width="5" height="50"/><rect fill="#00ffcd" x="475" y="0" width="5" height="50"/><rect fill="#ff9cf4" x="480" y="0" width="5" height="50"/><rect fill="#a1a1a1" x="485" y="0" width="5" height="50"/><rect fill="#00ffff" x="490" y="0" width="5" height="50"/><rect fill="#ecd600" x="495" y="0" width="5" height="50"/></g></svg>