<svg version="1.1" xmlns="http://www.w3.org/2000/svg" xmlns:xlink="http://www.w3.org/1999/xlink" width="500" height="50"><g><rect fill="#50493b" x="0" y="0" width="5" height="50"/><rect fill="#385049" x="5" y="0" width="5" height="50"/><rect fill="#504b3b" x="10" y="0" width="5" height="50"/><rect fill="#504439" x="15" y="0" width="5" height="50"/><rect fill="#524e3c" x="20" y="0" width="5" height="50"/><rect fill="#3e5343" x="25" y="0" width="5" height="50"/><rect fill="#54523a" x="30" y="0" width="5" height="50"/><rect fill="#544d39" x="35" y="0" width="5" height="50"/><rect fill="#39554c" x="40" y="0" width="5" height="50"/><rect fill="#385640" x="45" y="0" width="5" height="50"/><rect fill="#3b564f" x="50" y="0" width="5" height="50"/><rect fill="#395745" x="55" y="0" width="5" height="50"/><rect fill="#585540" x="60" y="0" width="5" height="50"/><rect fill="#594a40" x="65" y="0" width="5" height="50"/><rect fill="#3e5a47" x="70" y="0" width="5" height="50"/><rect fill="#5a4a3e" x="75" y="0" width="5" height="50"/><rect fill="#5b4e40" x="80" y="0" width="5" height="50"/><rect fill="#435d4e" x="85" y="0" width="5" height="50"/><rect fill="#5f4f43" x="90" y="0" width="5" height="50"/><rect fill="#41644f" x="95" y="0" width="5" height="50"/><rect fill="#655a45" x="100" y="0" width="5" height="50"/><rect fill="#675e43" x="105" y="0" width="5" height="50"/><rect fill="#45674d" x="110" y="0" width="5" height="50"/><rect fill="#685b4b" x="115" y="0" width="5" height="50"/><rect fill="#496860" x="120" y="0" width="5" height="50"/><rect fill="#456962" x="125" y="0" width="5" height="50"/><rect fill="#4b6b55" x="130" y="0" width="5" height="50"/><rect fill="#6b694d" x="135" y="0" width="5" height="50"/><rect fill="#4d6b5f" x="140" y="0" width="5" height="50"/><rect fill="#526d65" x="145" y="0" width="5" height="50"/><rect fill="#496e5b" x="150" y="0" width="5" height="50"/><rect fill="#52715c" x="155" y="0" width="5" height="50"/><rect fill="#716e4f" x="160" y="0" width="5" height="50"/><rect fill="#4a715c" x="165" y="0" width="5" height="50"/><rect fill="#4c7260" x="170" y="0" width="5" height="50"/><rect fill="#74634d" x="175" y="0" width="5" height="50"/><rect fill="#53746b" x="180" y="0" width="5" height="50"/><rect fill="#746855" x="185" y="0" width="5" height="50"/><rect fill="#4e755c" x="190" y="0" width="5" height="50"/><rect fill="#567568" x="195" y="0" width="5" height="50"/><rect fill="#4e7563" x="200" y="0" width="5" height="50"/><rect fill="#787359" x="205" y="0" width="5" height="50"/><rect fill="#58786d" x="210" y="0" width="5" height="50"/><rect fill="#597867" x="215" y="0" width="5" height="50"/><rect fill="#79745a" x="220" y="0" width="5" height="50"/><rect fill="#797452" x="225" y="0" width="5" height="50"/><rect fill="#58796e" x="230" y="0" width="5" height="50"/><rect fill="#7a6350" x="235" y="0" width="5" height="50"/><rect fill="#7a664f" x="240" y="0" width="5" height="50"/><rect fill="#527a6a" x="245" y="0" width="5" height="50"/><rect fill="#7e765a" x="250" y="0" width="5" height="50"/><rect fill="#7e6856" x="255" y="0" width="5" height="50"/><rect fill="#5f7f6e" x="260" y="0" width="5" height="50"/><rect fill="#5a7f78" x="265" y="0" width="5" height="50"/><rect fill="#5e847b" x="270" y="0" width="5" height="50"/><rect fill="#84815b" x="275" y="0" width="5" height="50"/><rect fill="#5d856f" x="280" y="0" width="5" height="50"/><rect fill="#638571" x="285" y="0" width="5" height="50"/><rect fill="#5a8664" x="290" y="0" width="5" height="50"/><rect fill="#5f877a" x="295" y="0" width="5" height="50"/><rect fill="#88785b" x="300" y="0" width="5" height="50"/><rect fill="#648974" x="305" y="0" width="5" height="50"/><rect fill="#64897b" x="310" y="0" width="5" height="50"/><rect fill="#898066" x="315" y="0" width="5" height="50"/><rect fill="#8a7766" x="320" y="0" width="5" height="50"/><rect fill="#8b7c62" x="325" y="0" width="5" height="50"/><rect fill="#5d8b7a" x="330" y="0" width="5" height="50"/><rect fill="#5d8c7b" x="335" y="0" width="5" height="50"/><rect fill="#8d8b63" x="340" y="0" width="5" height="50"/><rect fill="#658d72" x="345" y="0" width="5" height="50"/><rect fill="#5f907c" x="350" y="0" width="5" height="50"/><rect fill="#6a917a" x="355" y="0" width="5" height="50"/><rect fill="#62937f" x="360" y="0" width="5" height="50"/><rect fill="#6d9386" x="365" y="0" width="5" height="50"/><rect fill="#6c978b" x="370" y="0" width="5" height="50"/><rect fill="#99836b" x="375" y="0" width="5" height="50"/><rect fill="#999965" x="380" y="0" width="5" height="50"/><rect fill="#9a8772" x="385" y="0" width="5" height="50"/><rect fill="#6e9b79" x="390" y="0" width="5" height="50"/><rect fill="#9c9766" x="395" y="0" width="5" height="50"/><rect fill="#749f89" x="400" y="0" width="5" height="50"/><rect fill="#a09a75" x="405" y="0" width="5" height="50"/><rect fill="#68a087" x="410" y="0" width="5" height="50"/><rect fill="#a48b76" x="415" y="0" width="5" height="50"/><rect fill="#a5936c" x="420" y="0" width="5" height="50"/><rect fill="#72a69b" x="425" y="0" width="5" height="50"/><rect fill="#a79b7c" x="430" y="0" width="5" height="50"/><rect fill="#aa9577" x="435" y="0" width="5" height="50"/><rect fill="#aaaa76" x="440" y="0" width="5" height="50"/><rect fill="#aa9b70" x="445" y="0" width="5" height="50"/><rect fill="#ab9278" x="450" y="0" width="5" height="50"/><rect fill="#70ac8f" x="455" y="0" width="5" height="50"/><rect fill="#ac927e" x="460" y="0" width="5" height="50"/><rect fill="#ae9f81" x="465" y="0" width="5" height="50"/><rect fill="#7dae9a" x="470" y="0" width="5" height="50"/><rect fill="#b0aa7f" x="475" y="0" width="5" height="50"/><rect fill="#b0a984" x="480" y="0" width="5" height="50"/><rect fill="#7eb198" x="485" y="0" width="5" height="50"/><rect fill="#b29882" x="490" y="0" width="5" height="50"/><rect fill="#b2a777" x="495" y="0" width="5" height="50"/></g></svg>