<svg version="1.1" xmlns="http://www.w3.org/2000/svg" xmlns:xlink="http://www.w3.org/1999/xlink" width="500" height="50"><g><rect fill="#80645a" x="0" y="0" width="5" height="50"/><rect fill="#5e463e" x="5" y="0" width="5" height="50"/><rect fill="#51453c" x="10" y="0" width="5" height="50"/><rect fill="#544538" x="15" y="0" width="5" height="50"/><rect fill="#89775a" x="20" y="0" width="5" height="50"/><rect fill="#7f7156" x="25" y="0" width="5" height="50"/><rect fill="#968b6a" x="30" y="0" width="5" height="50"/><rect fill="#b0a27b" x="35" y="0" width="5" height="50"/><rect fill="#605945" x="40" y="0" width="5" height="50"/><rect fill="#a79d78" x="45" y="0" width="5" height="50"/><rect fill="#a7a07b" x="50" y="0" width="5" height="50"/><rect fill="#6f6b4d" x="55" y="0" width="5" height="50"/><rect fill="#656546" x="60" y="0" width="5" height="50"/><rect fill="#535438" x="65" y="0" width="5" height="50"/><rect fill="#666947" x="70" y="0" width="5" height="50"/><rect fill="#a8ad77" x="75" y="0" width="5" height="50"/><rect fill="#6c7b56" x="80" y="0" width="5" height="50"/><rect fill="#536543" x="85" y="0" width="5" height="50"/><rect fill="#697d58" x="90" y="0" width="5" height="50"/><rect fill="#6c8558" x="95" y="0" width="5" height="50"/><rect fill="#8cae79" x="100" y="0" width="5" height="50"/><rect fill="#68895e" x="105" y="0" width="5" height="50"/><rect fill="#597852" x="110" y="0" width="5" height="50"/><rect fill="#678860" x="115" y="0" width="5" height="50"/><rect fill="#516e4c" x="120" y="0" width="5" height="50"/><rect fill="#537852" x="125" y="0" width="5" height="50"/><rect fill="#365236" x="130" y="0" width="5" height="50"/><rect fill="#7ab27b" x="135" y="0" width="5" height="50"/><rect fill="#5c8961" x="140" y="0" width="5" height="50"/><rect fill="#394e3d" x="145" y="0" width="5" height="50"/><rect fill="#4e6a54" x="150" y="0" width="5" height="50"/><rect fill="#6ca077" x="155" y="0" width="5" height="50"/><rect fill="#6ba177" x="160" y="0" width="5" height="50"/><rect fill="#395740" x="165" y="0" width="5" height="50"/><rect fill="#649973" x="170" y="0" width="5" height="50"/><rect fill="#70a189" x="175" y="0" width="5" height="50"/><rect fill="#628876" x="180" y="0" width="5" height="50"/><rect fill="#4e6d5f" x="185" y="0" width="5" height="50"/><rect fill="#496c5d" x="190" y="0" width="5" height="50"/><rect fill="#618376" x="195" y="0" width="5" height="50"/><rect fill="#7db09e" x="200" y="0" width="5" height="50"/><rect fill="#749a8d" x="205" y="0" width="5" height="50"/><rect fill="#66978e" x="210" y="0" width="5" height="50"/><rect fill="#375353" x="215" y="0" width="5" height="50"/><rect fill="#598686" x="220" y="0" width="5" height="50"/><rect fill="#5c747b" x="225" y="0" width="5" height="50"/><rect fill="#799aa5" x="230" y="0" width="5" height="50"/><rect fill="#5f7882" x="235" y="0" width="5" height="50"/><rect fill="#39474e" x="240" y="0" width="5" height="50"/><rect fill="#648493" x="245" y="0" width="5" height="50"/><rect fill="#4d6571" x="250" y="0" width="5" height="50"/><rect fill="#5e7581" x="255" y="0" width="5" height="50"/><rect fill="#678096" x="260" y="0" width="5" height="50"/><rect fill="#53687c" x="265" y="0" width="5" height="50"/><rect fill="#7087a0" x="270" y="0" width="5" height="50"/><rect fill="#4e5b74" x="275" y="0" width="5" height="50"/><rect fill="#647698" x="280" y="0" width="5" height="50"/><rect fill="#5e6a84" x="285" y="0" width="5" height="50"/><rect fill="#5e6887" x="290" y="0" width="5" height="50"/><rect fill="#484f69" x="295" y="0" width="5" height="50"/><rect fill="#525873" x="300" y="0" width="5" height="50"/><rect fill="#4b5168" x="305" y="0" width="5" height="50"/><rect fill="#535677" x="310" y="0" width="5" height="50"/><rect fill="#606492" x="315" y="0" width="5" height="50"/><rect fill="#656897" x="320" y="0" width="5" height="50"/><rect fill="#3c3d52" x="325" y="0" width="5" height="50"/><rect fill="#5d587e" x="330" y="0" width="5" height="50"/><rect fill="#61557c" x="335" y="0" width="5" height="50"/><rect fill="#7d6e95" x="340" y="0" width="5" height="50"/><rect fill="#5a4e6f" x="345" y="0" width="5" height="50"/><rect fill="#6d5d88" x="350" y="0" width="5" height="50"/><rect fill="#69597e" x="355" y="0" width="5" height="50"/><rect fill="#42384e" x="360" y="0" width="5" height="50"/><rect fill="#604b6e" x="365" y="0" width="5" height="50"/><rect fill="#836498" x="370" y="0" width="5" height="50"/><rect fill="#624b72" x="375" y="0" width="5" height="50"/><rect fill="#826693" x="380" y="0" width="5" height="50"/><rect fill="#997ea9" x="385" y="0" width="5" height="50"/><rect fill="#785d88" x="390" y="0" width="5" height="50"/><rect fill="#493852" x="395" y="0" width="5" height="50"/><rect fill="#9e77ad" x="400" y="0" width="5" height="50"/><rect fill="#8c679a" x="405" y="0" width="5" height="50"/><rect fill="#624666" x="410" y="0" width="5" height="50"/><rect fill="#614460" x="415" y="0" width="5" height="50"/><rect fill="#583b53" x="420" y="0" width="5" height="50"/><rect fill="#654960" x="425" y="0" width="5" height="50"/><rect fill="#704b68" x="430" y="0" width="5" height="50"/><rect fill="#a2758f" x="435" y="0" width="5" height="50"/><rect fill="#a8718f" x="440" y="0" width="5" height="50"/><rect fill="#9f718a" x="445" y="0" width="5" height="50"/><rect fill="#ae829a" x="450" y="0" width="5" height="50"/><rect fill="#a77089" x="455" y="0" width="5" height="50"/><rect fill="#614852" x="460" y="0" width="5" height="50"/><rect fill="#6f4c59" x="465" y="0" width="5" height="50"/><rect fill="#724e5b" x="470" y="0" width="5" height="50"/><rect fill="#85616b" x="475" y="0" width="5" height="50"/><rect fill="#855e65" x="480" y="0" width="5" height="50"/><rect fill="#8d676d" x="485" y="0" width="5" height="50"/><rect fill="#774f52" x="490" y="0" width="5" height="50"/><rect fill="#775153" x="495" y="0" width="5" height="50"/></g></svg>