<svg version="1.1" xmlns="http://www.w3.org/2000/svg" xmlns:xlink="http://www.w3.org/1999/xlink" width="500" height="50"><g><rect fill="#00eff9" x="0" y="0" width="5" height="50"/><rect fill="#ffb3e7" x="5" y="0" width="5" height="50"/><rect fill="#202020" x="10" y="0" width="5" height="50"/><rect fill="#ffe35b" x="15" y="0" width="5" height="50"/><rect fill="#dddddd" x="20" y="0" width="5" height="50"/><rect fill="#00ffe1" x="25" y="0" width="5" height="50"/><rect fill="#f1f1f1" x="30" y="0" width="5" height="50"/><rect fill="#ffb7d7" x="35" y="0" width="5" height="50"/><rect fill="#00fef0" x="40" y="0" width="5" height="50"/><rect fill="#d3d3d3" x="45" y="0" width="5" height="50"/><rect fill="#ff9bb7" x="50" y="0" width="5" height="50"/><rect fill="#e8e8e8" x="55" y="0" width="5" height="50"/><rect fill="#ff84c2" x="60" y="0" width="5" height="50"/><rect fill="#ececec" x="65" y="0" width="5" height="50"/><rect fill="#ff929b" x="70" y="0" width="5" height="50"/><rect fill="#ffdcf6" x="75" y="0" width="5" height="50"/><rect fill="#121212" x="80" y="0" width="5" height="50"/><rect fill="#ffaecc" x="85" y="0" width="5" height="50"/><rect fill="#e9c072" x="90" y="0" width="5" height="50"/><rect fill="#e6e6e6" x="95" y="0" width="5" height="50"/><rect fill="#00ffcb" x="100" y="0" width="5" height="50"/><rect fill="#ffea88" x="105" y="0" width="5" height="50"/><rect fill="#ffbdf0" x="110" y="0" width="5" height="50"/><rect fill="#ffc34f" x="115" y="0" width="5" height="50"/><rect fill="#ffa8a8" x="120" y="0" width="5" height="50"/><rect fill="#ffb8c4" x="125" y="0" width="5" height="50"/><rect fill="#00fcff" x="130" y="0" width="5" height="50"/><rect fill="#38ffe5" x="135" y="0" width="5" height="50"/><rect fill="#00f4f4" x="140" y="0" width="5" height="50"/><rect fill="#ffa8dd" x="145" y="0" width="5" height="50"/><rect fill="#00ecd3" x="150" y="0" width="5" height="50"/><rect fill="#ffdeff" x="155" y="0" width="5" height="50"/><rect fill="#191919" x="160" y="0" width="5" height="50"/><rect fill="#292929" x="165" y="0" width="5" height="50"/><rect fill="#ffb6d2" x="170" y="0" width="5" height="50"/><rect fill="#35fff4" x="175" y="0" width="5" height="50"/><rect fill="#ffb0bf" x="180" y="0" width="5" height="50"/><rect fill="#2c2c2c" x="185" y="0" width="5" height="50"/><rect fill="#00faff" x="190" y="0" width="5" height="50"/><rect fill="#292929" x="195" y="0" width="5" height="50"/><rect fill="#1f1f1f" x="200" y="0" width="5" height="50"/><rect fill="#d2cb66" x="205" y="0" width="5" height="50"/><rect fill="#ffc4e1" x="210" y="0" width="5" height="50"/><rect fill="#ffc2db" x="215" y="0" width="5" height="50"/><rect fill="#ffc6ff" x="220" y="0" width="5" height="50"/><rect fill="#00e0d4" x="225" y="0" width="5" height="50"/><rect fill="#00fff3" x="230" y="0" width="5" height="50"/><rect fill="#3effff" x="235" y="0" width="5" height="50"/><rect fill="#ffb1c4" x="240" y="0" width="5" height="50"/><rect fill="#d8d8d8" x="245" y="0" width="5" height="50"/><rect fill="#d2d2d2" x="250" y="0" width="5" height="50"/><rect fill="#ffed9d" x="255" y="0" width="5" height="50"/><rect fill="#252525" x="260" y="0" width="5" height="50"/><rect fill="#222222" x="265" y="0" width="5" height="50"/><rect fill="#00e5d2" x="270" y="0" width="5" height="50"/><rect fill="#00f2f2" x="275" y="0" width="5" height="50"/><rect fill="#ffc966" x="280" y="0" width="5" height="50"/><rect fill="#00f5d0" x="285" y="0" width="5" height="50"/><rect fill="#e4e4e4" x="290" y="0" width="5" height="50"/><rect fill="#3e3e3e" x="295" y="0" width="5" height="50"/><rect fill="#f5d028" x="300" y="0" width="5" height="50"/><rect fill="#e2ca43" x="305" y="0" width="5" height="50"/><rect fill="#2d2d2d" x="310" y="0" width="5" height="50"/><rect fill="#282828" x="315" y="0" width="5" height="50"/><rect fill="#e6e6e6" x="320" y="0" width="5" height="50"/><rect fill="#212121" x="325" y="0" width="5" height="50"/><rect fill="#252525" x="330" y="0" width="5" height="50"/><rect fill="#fbe68c" x="335" y="0" width="5" height="50"/><rect fill="#303030" x="340" y="0" width="5" height="50"/><rect fill="#ff9a9d" x="345" y="0" width="5" height="50"/><rect fill="#00feee" x="350" y="0" width="5" height="50"/><rect fill="#ff93b9" x="355" y="0" width="5" height="50"/><rect fill="#ffa4d2" x="360" y="0" width="5" height="50"/><rect fill="#00f4dd" x="365" y="0" width="5" height="50"/><rect fill="#00ffff" x="370" y="0" width="5" height="50"/><rect fill="#121212" x="375" y="0" width="5" height="50"/><rect fill="#f2d789" x="380" y="0" width="5" height="50"/><rect fill="#ffc8e6" x="385" y="0" width="5" height="50"/><rect fill="#171717" x="390" y="0" width="5" height="50"/><rect fill="#ffcfe0" x="395" y="0" width="5" height="50"/><rect fill="#7fffe6" x="400" y="0" width="5" height="50"/><rect fill="#57f7e4" x="405" y="0" width="5" height="50"/><rect fill="#ffd86e" x="410" y="0" width="5" height="50"/><rect fill="#00ebe2" x="415" y="0" width="5" height="50"/><rect fill="#ffe2e1" x="420" y="0" width="5" height="50"/><rect fill="#1e1e1e" x="425" y="0" width="5" height="50"/><rect fill="#f8f8f8" x="430" y="0" width="5" height="50"/><rect fill="#ffd2eb" x="435" y="0" width="5" height="50"/><rect fill="#ffc1f4" x="440" y="0" width="5" height="50"/><rect fill="#44ffff" x="445" y="0" width="5" height="50"/><rect fill="#00f2dc" x="450" y="0" width="5" height="50"/><rect fill="#ff89dc" x="455" y="0" width="5" height="50"/><rect fill="#ff8f93" x="460" y="0" width="5" height="50"/><rect fill="#dddddd" x="465" y="0" width="5" height="50"/><rect fill="#dedede" x="470" y="0" width="5" height="50"/><rect fill="#fbcb78" x="475" y="0" width="5" height="50"/><rect fill="#00ffdf" x="480" y="0" width="5" height="50"/><rect fill="#cfcfcf" x="485" y="0" width="5" height="50"/><rect fill="#00fbd5" x="490" y="0" width="5" height="50"/><rect fill="#e7e7e7" x="495" y="0" width="5" height="50"/></g></svg>