<svg version="1.1" xmlns="http://www.w3.org/2000/svg" xmlns:xlink="http://www.w3.org/1999/xlink" width="500" height="50"><g><rect fill="#13cd43" x="0" y="0" width="5" height="50"/><rect fill="#08ce77" x="5" y="0" width="5" height="50"/><rect fill="#14ce4e" x="10" y="0" width="5" height="50"/><rect fill="#19cf8d" x="15" y="0" width="5" height="50"/><rect fill="#23cf7c" x="20" y="0" width="5" height="50"/><rect fill="#28cfa7" x="25" y="0" width="5" height="50"/><rect fill="#28d04e" x="30" y="0" width="5" height="50"/><rect fill="#11d052" x="35" y="0" width="5" height="50"/><rect fill="#27d177" x="40" y="0" width="5" height="50"/><rect fill="#d1b324" x="45" y="0" width="5" height="50"/><rect fill="#0fd145" x="50" y="0" width="5" height="50"/><rect fill="#0cd295" x="55" y="0" width="5" height="50"/><rect fill="#d2a202" x="60" y="0" width="5" height="50"/><rect fill="#21d355" x="65" y="0" width="5" height="50"/><rect fill="#d37b01" x="70" y="0" width="5" height="50"/><rect fill="#d39f06" x="75" y="0" width="5" height="50"/><rect fill="#09d38a" x="80" y="0" width="5" height="50"/><rect fill="#d47303" x="85" y="0" width="5" height="50"/><rect fill="#0ad47f" x="90" y="0" width="5" height="50"/><rect fill="#1fd556" x="95" y="0" width="5" height="50"/><rect fill="#d57b06" x="100" y="0" width="5" height="50"/><rect fill="#d6d71e" x="105" y="0" width="5" height="50"/><rect fill="#2ad77a" x="110" y="0" width="5" height="50"/><rect fill="#02d83e" x="115" y="0" width="5" height="50"/><rect fill="#d8c12a" x="120" y="0" width="5" height="50"/><rect fill="#10d852" x="125" y="0" width="5" height="50"/><rect fill="#d9c30c" x="130" y="0" width="5" height="50"/><rect fill="#07d992" x="135" y="0" width="5" height="50"/><rect fill="#26d9b4" x="140" y="0" width="5" height="50"/><rect fill="#01da65" x="145" y="0" width="5" height="50"/><rect fill="#1adb4e" x="150" y="0" width="5" height="50"/><rect fill="#db850d" x="155" y="0" width="5" height="50"/><rect fill="#db8d12" x="160" y="0" width="5" height="50"/><rect fill="#03dc5a" x="165" y="0" width="5" height="50"/><rect fill="#10dcab" x="170" y="0" width="5" height="50"/><rect fill="#dc7c28" x="175" y="0" width="5" height="50"/><rect fill="#19dea3" x="180" y="0" width="5" height="50"/><rect fill="#20de6e" x="185" y="0" width="5" height="50"/><rect fill="#00df94" x="190" y="0" width="5" height="50"/><rect fill="#e08c0f" x="195" y="0" width="5" height="50"/><rect fill="#16e048" x="200" y="0" width="5" height="50"/><rect fill="#29e16c" x="205" y="0" width="5" height="50"/><rect fill="#e1950f" x="210" y="0" width="5" height="50"/><rect fill="#15e16b" x="215" y="0" width="5" height="50"/><rect fill="#e27803" x="220" y="0" width="5" height="50"/><rect fill="#11e45d" x="225" y="0" width="5" height="50"/><rect fill="#28e457" x="230" y="0" width="5" height="50"/><rect fill="#e5d927" x="235" y="0" width="5" height="50"/><rect fill="#07e56c" x="240" y="0" width="5" height="50"/><rect fill="#e6cb0b" x="245" y="0" width="5" height="50"/><rect fill="#e8921f" x="250" y="0" width="5" height="50"/><rect fill="#12e872" x="255" y="0" width="5" height="50"/><rect fill="#0ae9a8" x="260" y="0" width="5" height="50"/><rect fill="#25e955" x="265" y="0" width="5" height="50"/><rect fill="#e9a612" x="270" y="0" width="5" height="50"/><rect fill="#2de988" x="275" y="0" width="5" height="50"/><rect fill="#e98919" x="280" y="0" width="5" height="50"/><rect fill="#ea8017" x="285" y="0" width="5" height="50"/><rect fill="#ea8815" x="290" y="0" width="5" height="50"/><rect fill="#14ea95" x="295" y="0" width="5" height="50"/><rect fill="#eae305" x="300" y="0" width="5" height="50"/><rect fill="#2deabc" x="305" y="0" width="5" height="50"/><rect fill="#14eb87" x="310" y="0" width="5" height="50"/><rect fill="#1feb4d" x="315" y="0" width="5" height="50"/><rect fill="#01ec30" x="320" y="0" width="5" height="50"/><rect fill="#1eee84" x="325" y="0" width="5" height="50"/><rect fill="#09ee60" x="330" y="0" width="5" height="50"/><rect fill="#ef6e13" x="335" y="0" width="5" height="50"/><rect fill="#ef7e1f" x="340" y="0" width="5" height="50"/><rect fill="#ef8b1c" x="345" y="0" width="5" height="50"/><rect fill="#efb41b" x="350" y="0" width="5" height="50"/><rect fill="#1cef7d" x="355" y="0" width="5" height="50"/><rect fill="#0cf090" x="360" y="0" width="5" height="50"/><rect fill="#f0ab14" x="365" y="0" width="5" height="50"/><rect fill="#eff116" x="370" y="0" width="5" height="50"/><rect fill="#f1de2d" x="375" y="0" width="5" height="50"/><rect fill="#1df15d" x="380" y="0" width="5" height="50"/><rect fill="#06f156" x="385" y="0" width="5" height="50"/><rect fill="#0ff266" x="390" y="0" width="5" height="50"/><rect fill="#0af3c3" x="395" y="0" width="5" height="50"/><rect fill="#29f372" x="400" y="0" width="5" height="50"/><rect fill="#f38001" x="405" y="0" width="5" height="50"/><rect fill="#2df572" x="410" y="0" width="5" height="50"/><rect fill="#f5ef1b" x="415" y="0" width="5" height="50"/><rect fill="#f5842a" x="420" y="0" width="5" height="50"/><rect fill="#f7862a" x="425" y="0" width="5" height="50"/><rect fill="#2ef7b2" x="430" y="0" width="5" height="50"/><rect fill="#faca2f" x="435" y="0" width="5" height="50"/><rect fill="#fbb31d" x="440" y="0" width="5" height="50"/><rect fill="#06fb89" x="445" y="0" width="5" height="50"/><rect fill="#fb851d" x="450" y="0" width="5" height="50"/><rect fill="#0ffcc4" x="455" y="0" width="5" height="50"/><rect fill="#fdc728" x="460" y="0" width="5" height="50"/><rect fill="#02fdad" x="465" y="0" width="5" height="50"/><rect fill="#2afe5e" x="470" y="0" width="5" height="50"/><rect fill="#13fe55" x="475" y="0" width="5" height="50"/><rect fill="#06fe4e" x="480" y="0" width="5" height="50"/><rect fill="#16fe8e" x="485" y="0" width="5" height="50"/><rect fill="#2fffa3" x="490" y="0" width="5" height="50"/><rect fill="#fff204" x="495" y="0" width="5" height="50"/></g></svg>