<svg version="1.1" xmlns="http://www.w3.org/2000/svg" xmlns:xlink="http://www.w3.org/1999/xlink" width="500" height="50"><g><rect fill="#53ef72" x="0" y="0" width="5" height="50"/><rect fill="#6af086" x="5" y="0" width="5" height="50"/><rect fill="#6af588" x="10" y="0" width="5" height="50"/><rect fill="#64f985" x="15" y="0" width="5" height="50"/><rect fill="#68f688" x="20" y="0" width="5" height="50"/><rect fill="#6af88b" x="25" y="0" width="5" height="50"/><rect fill="#a7f7ba" x="30" y="0" width="5" height="50"/><rect fill="#54f27c" x="35" y="0" width="5" height="50"/><rect fill="#78f698" x="40" y="0" width="5" height="50"/><rect fill="#65e686" x="45" y="0" width="5" height="50"/><rect fill="#6eea90" x="50" y="0" width="5" height="50"/><rect fill="#98e6ae" x="55" y="0" width="5" height="50"/><rect fill="#a8f4be" x="60" y="0" width="5" height="50"/><rect fill="#6ff095" x="65" y="0" width="5" height="50"/><rect fill="#adfcc5" x="70" y="0" width="5" height="50"/><rect fill="#4ce97d" x="75" y="0" width="5" height="50"/><rect fill="#a1fbbc" x="80" y="0" width="5" height="50"/><rect fill="#81e9a1" x="85" y="0" width="5" height="50"/><rect fill="#7bec9e" x="90" y="0" width="5" height="50"/><rect fill="#4ff884" x="95" y="0" width="5" height="50"/><rect fill="#48ee7d" x="100" y="0" width="5" height="50"/><rect fill="#8eeead" x="105" y="0" width="5" height="50"/><rect fill="#a1ecba" x="110" y="0" width="5" height="50"/><rect fill="#9eefb9" x="115" y="0" width="5" height="50"/><rect fill="#a1eaba" x="120" y="0" width="5" height="50"/><rect fill="#81f8aa" x="125" y="0" width="5" height="50"/><rect fill="#62ff9a" x="130" y="0" width="5" height="50"/><rect fill="#91e8b0" x="135" y="0" width="5" height="50"/><rect fill="#6ceb9a" x="140" y="0" width="5" height="50"/><rect fill="#86e6aa" x="145" y="0" width="5" height="50"/><rect fill="#9cfbbf" x="150" y="0" width="5" height="50"/><rect fill="#80f0aa" x="155" y="0" width="5" height="50"/><rect fill="#5cfe9a" x="160" y="0" width="5" height="50"/><rect fill="#adffcd" x="165" y="0" width="5" height="50"/><rect fill="#56f794" x="170" y="0" width="5" height="50"/><rect fill="#5dfa9a" x="175" y="0" width="5" height="50"/><rect fill="#78faac" x="180" y="0" width="5" height="50"/><rect fill="#9fe7bc" x="185" y="0" width="5" height="50"/><rect fill="#88f4b4" x="190" y="0" width="5" height="50"/><rect fill="#5cf199" x="195" y="0" width="5" height="50"/><rect fill="#7feeae" x="200" y="0" width="5" height="50"/><rect fill="#72efa7" x="205" y="0" width="5" height="50"/><rect fill="#48ed8f" x="210" y="0" width="5" height="50"/><rect fill="#a1fdc9" x="215" y="0" width="5" height="50"/><rect fill="#9ff8c6" x="220" y="0" width="5" height="50"/><rect fill="#a8f9cd" x="225" y="0" width="5" height="50"/><rect fill="#66e8a1" x="230" y="0" width="5" height="50"/><rect fill="#9df4c5" x="235" y="0" width="5" height="50"/><rect fill="#6bf8ad" x="240" y="0" width="5" height="50"/><rect fill="#82f8ba" x="245" y="0" width="5" height="50"/><rect fill="#85f2ba" x="250" y="0" width="5" height="50"/><rect fill="#9afcca" x="255" y="0" width="5" height="50"/><rect fill="#76f9b6" x="260" y="0" width="5" height="50"/><rect fill="#77f9b7" x="265" y="0" width="5" height="50"/><rect fill="#85e7b6" x="270" y="0" width="5" height="50"/><rect fill="#81efb8" x="275" y="0" width="5" height="50"/><rect fill="#a5fcd1" x="280" y="0" width="5" height="50"/><rect fill="#5de9a4" x="285" y="0" width="5" height="50"/><rect fill="#4feea2" x="290" y="0" width="5" height="50"/><rect fill="#55f7ac" x="295" y="0" width="5" height="50"/><rect fill="#8af8c6" x="300" y="0" width="5" height="50"/><rect fill="#60e9ad" x="305" y="0" width="5" height="50"/><rect fill="#79e7b7" x="310" y="0" width="5" height="50"/><rect fill="#a0f2cf" x="315" y="0" width="5" height="50"/><rect fill="#6fefba" x="320" y="0" width="5" height="50"/><rect fill="#61ffbd" x="325" y="0" width="5" height="50"/><rect fill="#72f1bc" x="330" y="0" width="5" height="50"/><rect fill="#4aeaa9" x="335" y="0" width="5" height="50"/><rect fill="#87f3c9" x="340" y="0" width="5" height="50"/><rect fill="#97eecc" x="345" y="0" width="5" height="50"/><rect fill="#68f0bc" x="350" y="0" width="5" height="50"/><rect fill="#a9fbdc" x="355" y="0" width="5" height="50"/><rect fill="#93f2ce" x="360" y="0" width="5" height="50"/><rect fill="#a0f8d7" x="365" y="0" width="5" height="50"/><rect fill="#76f2c6" x="370" y="0" width="5" height="50"/><rect fill="#94fdd8" x="375" y="0" width="5" height="50"/><rect fill="#4ff7be" x="380" y="0" width="5" height="50"/><rect fill="#73e6c0" x="385" y="0" width="5" height="50"/><rect fill="#63f1c2" x="390" y="0" width="5" height="50"/><rect fill="#79f9cf" x="395" y="0" width="5" height="50"/><rect fill="#97eacf" x="400" y="0" width="5" height="50"/><rect fill="#93ebcf" x="405" y="0" width="5" height="50"/><rect fill="#7cfcd3" x="410" y="0" width="5" height="50"/><rect fill="#60f7c7" x="415" y="0" width="5" height="50"/><rect fill="#93fddc" x="420" y="0" width="5" height="50"/><rect fill="#5ceec1" x="425" y="0" width="5" height="50"/><rect fill="#66f2c7" x="430" y="0" width="5" height="50"/><rect fill="#51e8bc" x="435" y="0" width="5" height="50"/><rect fill="#67f0ca" x="440" y="0" width="5" height="50"/><rect fill="#83efd3" x="445" y="0" width="5" height="50"/><rect fill="#68e9c8" x="450" y="0" width="5" height="50"/><rect fill="#a7f4e0" x="455" y="0" width="5" height="50"/><rect fill="#9beed9" x="460" y="0" width="5" height="50"/><rect fill="#5affd6" x="465" y="0" width="5" height="50"/><rect fill="#8ae7d2" x="470" y="0" width="5" height="50"/><rect fill="#7cfee1" x="475" y="0" width="5" height="50"/><rect fill="#70f5d7" x="480" y="0" width="5" height="50"/><rect fill="#8ff3de" x="485" y="0" width="5" height="50"/><rect fill="#7bf0d7" x="490" y="0" width="5" height="50"/><rect fill="#48efcd" x="495" y="0" width="5" height="50"/></g></svg>