<svg version="1.1" xmlns="http://www.w3.org/2000/svg" xmlns:xlink="http://www.w3.org/1999/xlink" width="500" height="50"><g><rect fill="#d89ca8" x="0" y="0" width="5" height="50"/><rect fill="#ffc4ce" x="5" y="0" width="5" height="50"/><rect fill="#ecb7bd" x="10" y="0" width="5" height="50"/><rect fill="#ffdde5" x="15" y="0" width="5" height="50"/><rect fill="#fcb5bc" x="20" y="0" width="5" height="50"/><rect fill="#ffeaef" x="25" y="0" width="5" height="50"/><rect fill="#de9996" x="30" y="0" width="5" height="50"/><rect fill="#eeb4b0" x="35" y="0" width="5" height="50"/><rect fill="#ffe1d9" x="40" y="0" width="5" height="50"/><rect fill="#fabcb1" x="45" y="0" width="5" height="50"/><rect fill="#ffc8b6" x="50" y="0" width="5" height="50"/><rect fill="#ffd8ca" x="55" y="0" width="5" height="50"/><rect fill="#ffd7be" x="60" y="0" width="5" height="50"/><rect fill="#dca68d" x="65" y="0" width="5" height="50"/><rect fill="#ffe4cb" x="70" y="0" width="5" height="50"/><rect fill="#ffefde" x="75" y="0" width="5" height="50"/><rect fill="#ffdec3" x="80" y="0" width="5" height="50"/><rect fill="#ffefc9" x="85" y="0" width="5" height="50"/><rect fill="#d4b594" x="90" y="0" width="5" height="50"/><rect fill="#dabd9a" x="95" y="0" width="5" height="50"/><rect fill="#e9cea8" x="100" y="0" width="5" height="50"/><rect fill="#f9deac" x="105" y="0" width="5" height="50"/><rect fill="#e7ddbb" x="110" y="0" width="5" height="50"/><rect fill="#dfd3a0" x="115" y="0" width="5" height="50"/><rect fill="#b0ae86" x="120" y="0" width="5" height="50"/><rect fill="#d1d0a9" x="125" y="0" width="5" height="50"/><rect fill="#b7b992" x="130" y="0" width="5" height="50"/><rect fill="#eff3c7" x="135" y="0" width="5" height="50"/><rect fill="#dde2bb" x="140" y="0" width="5" height="50"/><rect fill="#c3cfa1" x="145" y="0" width="5" height="50"/><rect fill="#afbe8a" x="150" y="0" width="5" height="50"/><rect fill="#f1ffd3" x="155" y="0" width="5" height="50"/><rect fill="#bbd1a3" x="160" y="0" width="5" height="50"/><rect fill="#bad6a6" x="165" y="0" width="5" height="50"/><rect fill="#acc49d" x="170" y="0" width="5" height="50"/><rect fill="#abcf9a" x="175" y="0" width="5" height="50"/><rect fill="#98b38f" x="180" y="0" width="5" height="50"/><rect fill="#94b98c" x="185" y="0" width="5" height="50"/><rect fill="#b2e2b4" x="190" y="0" width="5" height="50"/><rect fill="#c2f6c7" x="195" y="0" width="5" height="50"/><rect fill="#96cea2" x="200" y="0" width="5" height="50"/><rect fill="#c4fde0" x="205" y="0" width="5" height="50"/><rect fill="#c4edda" x="210" y="0" width="5" height="50"/><rect fill="#8bbda7" x="215" y="0" width="5" height="50"/><rect fill="#cafff2" x="220" y="0" width="5" height="50"/><rect fill="#7fb8a7" x="225" y="0" width="5" height="50"/><rect fill="#9febd5" x="230" y="0" width="5" height="50"/><rect fill="#9aead9" x="235" y="0" width="5" height="50"/><rect fill="#aed7ce" x="240" y="0" width="5" height="50"/><rect fill="#8dd0c2" x="245" y="0" width="5" height="50"/><rect fill="#82beb3" x="250" y="0" width="5" height="50"/><rect fill="#bcf5ed" x="255" y="0" width="5" height="50"/><rect fill="#7dcec9" x="260" y="0" width="5" height="50"/><rect fill="#82dbd9" x="265" y="0" width="5" height="50"/><rect fill="#7cb6b5" x="270" y="0" width="5" height="50"/><rect fill="#7fd9d8" x="275" y="0" width="5" height="50"/><rect fill="#86c5c5" x="280" y="0" width="5" height="50"/><rect fill="#d0ffff" x="285" y="0" width="5" height="50"/><rect fill="#8ad9df" x="290" y="0" width="5" height="50"/><rect fill="#a2e3ea" x="295" y="0" width="5" height="50"/><rect fill="#acffff" x="300" y="0" width="5" height="50"/><rect fill="#92c5cc" x="305" y="0" width="5" height="50"/><rect fill="#c2f7ff" x="310" y="0" width="5" height="50"/><rect fill="#80bac8" x="315" y="0" width="5" height="50"/><rect fill="#beeafd" x="320" y="0" width="5" height="50"/><rect fill="#a6e4ff" x="325" y="0" width="5" height="50"/><rect fill="#a7cee1" x="330" y="0" width="5" height="50"/><rect fill="#88b9d1" x="335" y="0" width="5" height="50"/><rect fill="#8ccaeb" x="340" y="0" width="5" height="50"/><rect fill="#9ac3e2" x="345" y="0" width="5" height="50"/><rect fill="#9cc3e6" x="350" y="0" width="5" height="50"/><rect fill="#90bde7" x="355" y="0" width="5" height="50"/><rect fill="#dbffff" x="360" y="0" width="5" height="50"/><rect fill="#acdbff" x="365" y="0" width="5" height="50"/><rect fill="#a6bcd9" x="370" y="0" width="5" height="50"/><rect fill="#a1b9e3" x="375" y="0" width="5" height="50"/><rect fill="#cfe4ff" x="380" y="0" width="5" height="50"/><rect fill="#c2c3e5" x="385" y="0" width="5" height="50"/><rect fill="#ebe3ff" x="390" y="0" width="5" height="50"/><rect fill="#dbd1f8" x="395" y="0" width="5" height="50"/><rect fill="#fdeeff" x="400" y="0" width="5" height="50"/><rect fill="#f8e2ff" x="405" y="0" width="5" height="50"/><rect fill="#d8c4ec" x="410" y="0" width="5" height="50"/><rect fill="#e6d0f4" x="415" y="0" width="5" height="50"/><rect fill="#fff3ff" x="420" y="0" width="5" height="50"/><rect fill="#fff7ff" x="425" y="0" width="5" height="50"/><rect fill="#c2a1cd" x="430" y="0" width="5" height="50"/><rect fill="#eed4f0" x="435" y="0" width="5" height="50"/><rect fill="#cbadc8" x="440" y="0" width="5" height="50"/><rect fill="#fff0ff" x="445" y="0" width="5" height="50"/><rect fill="#cf9cc5" x="450" y="0" width="5" height="50"/><rect fill="#d1acc7" x="455" y="0" width="5" height="50"/><rect fill="#eac4dd" x="460" y="0" width="5" height="50"/><rect fill="#ffceee" x="465" y="0" width="5" height="50"/><rect fill="#ffe1f7" x="470" y="0" width="5" height="50"/><rect fill="#d5aac1" x="475" y="0" width="5" height="50"/><rect fill="#ffddf8" x="480" y="0" width="5" height="50"/><rect fill="#e6b6cc" x="485" y="0" width="5" height="50"/><rect fill="#deb4c7" x="490" y="0" width="5" height="50"/><rect fill="#cda2b1" x="495" y="0" width="5" height="50"/></g></svg>