<svg version="1.1" xmlns="http://www.w3.org/2000/svg" xmlns:xlink="http://www.w3.org/1999/xlink" width="500" height="50"><g><rect fill="#b4aa79" x="0" y="0" width="5" height="50"/><rect fill="#cca375" x="5" y="0" width="5" height="50"/><rect fill="#cc9c72" x="10" y="0" width="5" height="50"/><rect fill="#b69867" x="15" y="0" width="5" height="50"/><rect fill="#a28f53" x="20" y="0" width="5" height="50"/><rect fill="#948351" x="25" y="0" width="5" height="50"/><rect fill="#8c804e" x="30" y="0" width="5" height="50"/><rect fill="#8a814d" x="35" y="0" width="5" height="50"/><rect fill="#897e4b" x="40" y="0" width="5" height="50"/><rect fill="#85784d" x="45" y="0" width="5" height="50"/><rect fill="#776e38" x="50" y="0" width="5" height="50"/><rect fill="#706a36" x="55" y="0" width="5" height="50"/><rect fill="#82613e" x="60" y="0" width="5" height="50"/><rect fill="#686435" x="65" y="0" width="5" height="50"/><rect fill="#6d5b2f" x="70" y="0" width="5" height="50"/><rect fill="#6f5a31" x="75" y="0" width="5" height="50"/><rect fill="#6d5d25" x="80" y="0" width="5" height="50"/><rect fill="#76552a" x="85" y="0" width="5" height="50"/><rect fill="#6c5625" x="90" y="0" width="5" height="50"/><rect fill="#605527" x="95" y="0" width="5" height="50"/><rect fill="#5e4b25" x="100" y="0" width="5" height="50"/><rect fill="#5d4722" x="105" y="0" width="5" height="50"/><rect fill="#68b6ba" x="110" y="0" width="5" height="50"/><rect fill="#59b5b6" x="115" y="0" width="5" height="50"/><rect fill="#67ae96" x="120" y="0" width="5" height="50"/><rect fill="#61ab9e" x="125" y="0" width="5" height="50"/><rect fill="#55b49a" x="130" y="0" width="5" height="50"/><rect fill="#4daeab" x="135" y="0" width="5" height="50"/><rect fill="#3ca8a6" x="140" y="0" width="5" height="50"/><rect fill="#46a790" x="145" y="0" width="5" height="50"/><rect fill="#51a28b" x="150" y="0" width="5" height="50"/><rect fill="#589a83" x="155" y="0" width="5" height="50"/><rect fill="#439f8f" x="160" y="0" width="5" height="50"/><rect fill="#419993" x="165" y="0" width="5" height="50"/><rect fill="#458a73" x="170" y="0" width="5" height="50"/><rect fill="#129087" x="175" y="0" width="5" height="50"/><rect fill="#10807a" x="180" y="0" width="5" height="50"/><rect fill="#297f6e" x="185" y="0" width="5" height="50"/><rect fill="#008271" x="190" y="0" width="5" height="50"/><rect fill="#007e78" x="195" y="0" width="5" height="50"/><rect fill="#006d70" x="200" y="0" width="5" height="50"/><rect fill="#00665f" x="205" y="0" width="5" height="50"/><rect fill="#00585b" x="210" y="0" width="5" height="50"/><rect fill="#005a4d" x="215" y="0" width="5" height="50"/><rect fill="#e19496" x="220" y="0" width="5" height="50"/><rect fill="#d19196" x="225" y="0" width="5" height="50"/><rect fill="#de92a3" x="230" y="0" width="5" height="50"/><rect fill="#dc8da3" x="235" y="0" width="5" height="50"/><rect fill="#da8da1" x="240" y="0" width="5" height="50"/><rect fill="#c88287" x="245" y="0" width="5" height="50"/><rect fill="#c67f82" x="250" y="0" width="5" height="50"/><rect fill="#c37d8a" x="255" y="0" width="5" height="50"/><rect fill="#ca7c91" x="260" y="0" width="5" height="50"/><rect fill="#ca797e" x="265" y="0" width="5" height="50"/><rect fill="#b6798d" x="270" y="0" width="5" height="50"/><rect fill="#c17593" x="275" y="0" width="5" height="50"/><rect fill="#bf7286" x="280" y="0" width="5" height="50"/><rect fill="#b7717c" x="285" y="0" width="5" height="50"/><rect fill="#a6617b" x="290" y="0" width="5" height="50"/><rect fill="#a35b70" x="295" y="0" width="5" height="50"/><rect fill="#a25963" x="300" y="0" width="5" height="50"/><rect fill="#914f6a" x="305" y="0" width="5" height="50"/><rect fill="#934851" x="310" y="0" width="5" height="50"/><rect fill="#86474a" x="315" y="0" width="5" height="50"/><rect fill="#77414e" x="320" y="0" width="5" height="50"/><rect fill="#763437" x="325" y="0" width="5" height="50"/><rect fill="#595959" x="330" y="0" width="5" height="50"/><rect fill="#585858" x="335" y="0" width="5" height="50"/><rect fill="#535353" x="340" y="0" width="5" height="50"/><rect fill="#4e4e4e" x="345" y="0" width="5" height="50"/><rect fill="#4b4b4b" x="350" y="0" width="5" height="50"/><rect fill="#4b4b4b" x="355" y="0" width="5" height="50"/><rect fill="#4a4a4a" x="360" y="0" width="5" height="50"/><rect fill="#4a4a4a" x="365" y="0" width="5" height="50"/><rect fill="#434343" x="370" y="0" width="5" height="50"/><rect fill="#424242" x="375" y="0" width="5" height="50"/><rect fill="#404040" x="380" y="0" width="5" height="50"/><rect fill="#fbfbfb" x="385" y="0" width="5" height="50"/><rect fill="#f4f4f4" x="390" y="0" width="5" height="50"/><rect fill="#e7e7e7" x="395" y="0" width="5" height="50"/><rect fill="#e7e7e7" x="400" y="0" width="5" height="50"/><rect fill="#5d5d5d" x="405" y="0" width="5" height="50"/><rect fill="#595959" x="410" y="0" width="5" height="50"/><rect fill="#515151" x="415" y="0" width="5" height="50"/><rect fill="#4e4e4e" x="420" y="0" width="5" height="50"/><rect fill="#4c4c4c" x="425" y="0" width="5" height="50"/><rect fill="#484848" x="430" y="0" width="5" height="50"/><rect fill="#3f3f3f" x="435" y="0" width="5" height="50"/><rect fill="#ffffff" x="440" y="0" width="5" height="50"/><rect fill="#fefefe" x="445" y="0" width="5" height="50"/><rect fill="#fdfdfd" x="450" y="0" width="5" height="50"/><rect fill="#fbfbfb" x="455" y="0" width="5" height="50"/><rect fill="#fafafa" x="460" y="0" width="5" height="50"/><rect fill="#f6f6f6" x="465" y="0" width="5" height="50"/><rect fill="#f4f4f4" x="470" y="0" width="5" height="50"/><rect fill="#f2f2f2" x="475" y="0" width="5" height="50"/><rect fill="#f0f0f0" x="480" y="0" width="5" height="50"/><rect fill="#ebebeb" x="485" y="0" width="5" height="50"/><rect fill="#e8e8e8" x="490" y="0" width="5" height="50"/></g></svg>