<svg version="1.1" xmlns="http://www.w3.org/2000/svg" xmlns:xlink="http://www.w3.org/1999/xlink" width="500" height="50"><g><rect fill="#ff8fec" x="0" y="0" width="5" height="50"/><rect fill="#ffb9fa" x="5" y="0" width="5" height="50"/><rect fill="#ff74cf" x="10" y="0" width="5" height="50"/><rect fill="#ff95e3" x="15" y="0" width="5" height="50"/><rect fill="#ff65b8" x="20" y="0" width="5" height="50"/><rect fill="#ff7fb7" x="25" y="0" width="5" height="50"/><rect fill="#ff9dcd" x="30" y="0" width="5" height="50"/><rect fill="#ff94cb" x="35" y="0" width="5" height="50"/><rect fill="#ffb2b0" x="40" y="0" width="5" height="50"/><rect fill="#ffc5a2" x="45" y="0" width="5" height="50"/><rect fill="#ffbf8f" x="50" y="0" width="5" height="50"/><rect fill="#ffb278" x="55" y="0" width="5" height="50"/><rect fill="#ffb05f" x="60" y="0" width="5" height="50"/><rect fill="#ffad5d" x="65" y="0" width="5" height="50"/><rect fill="#ffa64b" x="70" y="0" width="5" height="50"/><rect fill="#ffb151" x="75" y="0" width="5" height="50"/><rect fill="#ffb13e" x="80" y="0" width="5" height="50"/><rect fill="#ffc96c" x="85" y="0" width="5" height="50"/><rect fill="#ffa92c" x="90" y="0" width="5" height="50"/><rect fill="#ffc248" x="95" y="0" width="5" height="50"/><rect fill="#ffde5c" x="100" y="0" width="5" height="50"/><rect fill="#ffba05" x="105" y="0" width="5" height="50"/><rect fill="#ffe040" x="110" y="0" width="5" height="50"/><rect fill="#ffe847" x="115" y="0" width="5" height="50"/><rect fill="#ffcd27" x="120" y="0" width="5" height="50"/><rect fill="#ffca00" x="125" y="0" width="5" height="50"/><rect fill="#ffc936" x="130" y="0" width="5" height="50"/><rect fill="#ffe848" x="135" y="0" width="5" height="50"/><rect fill="#fed112" x="140" y="0" width="5" height="50"/><rect fill="#ffed43" x="145" y="0" width="5" height="50"/><rect fill="#ffe646" x="150" y="0" width="5" height="50"/><rect fill="#fffa34" x="155" y="0" width="5" height="50"/><rect fill="#fff32b" x="160" y="0" width="5" height="50"/><rect fill="#c6d000" x="165" y="0" width="5" height="50"/><rect fill="#cad500" x="170" y="0" width="5" height="50"/><rect fill="#faff35" x="175" y="0" width="5" height="50"/><rect fill="#dbf34c" x="180" y="0" width="5" height="50"/><rect fill="#c6fb00" x="185" y="0" width="5" height="50"/><rect fill="#c8f242" x="190" y="0" width="5" height="50"/><rect fill="#d6ff61" x="195" y="0" width="5" height="50"/><rect fill="#b2eb00" x="200" y="0" width="5" height="50"/><rect fill="#ccff63" x="205" y="0" width="5" height="50"/><rect fill="#b8ff4f" x="210" y="0" width="5" height="50"/><rect fill="#94f32f" x="215" y="0" width="5" height="50"/><rect fill="#94ee36" x="220" y="0" width="5" height="50"/><rect fill="#9cff49" x="225" y="0" width="5" height="50"/><rect fill="#77ed30" x="230" y="0" width="5" height="50"/><rect fill="#89ff6e" x="235" y="0" width="5" height="50"/><rect fill="#00fc7e" x="240" y="0" width="5" height="50"/><rect fill="#00fb85" x="245" y="0" width="5" height="50"/><rect fill="#30ff9e" x="250" y="0" width="5" height="50"/><rect fill="#00fb8d" x="255" y="0" width="5" height="50"/><rect fill="#3bffa3" x="260" y="0" width="5" height="50"/><rect fill="#00ffa1" x="265" y="0" width="5" height="50"/><rect fill="#00feb4" x="270" y="0" width="5" height="50"/><rect fill="#00ffcf" x="275" y="0" width="5" height="50"/><rect fill="#00ffd9" x="280" y="0" width="5" height="50"/><rect fill="#00ffd4" x="285" y="0" width="5" height="50"/><rect fill="#00fcc6" x="290" y="0" width="5" height="50"/><rect fill="#00f9d4" x="295" y="0" width="5" height="50"/><rect fill="#00ffff" x="300" y="0" width="5" height="50"/><rect fill="#00eaea" x="305" y="0" width="5" height="50"/><rect fill="#00ffff" x="310" y="0" width="5" height="50"/><rect fill="#00fdff" x="315" y="0" width="5" height="50"/><rect fill="#00ffff" x="320" y="0" width="5" height="50"/><rect fill="#00f2ff" x="325" y="0" width="5" height="50"/><rect fill="#00ffff" x="330" y="0" width="5" height="50"/><rect fill="#00ffff" x="335" y="0" width="5" height="50"/><rect fill="#00f1ff" x="340" y="0" width="5" height="50"/><rect fill="#00edff" x="345" y="0" width="5" height="50"/><rect fill="#00ffff" x="350" y="0" width="5" height="50"/><rect fill="#00ffff" x="355" y="0" width="5" height="50"/><rect fill="#00f0ff" x="360" y="0" width="5" height="50"/><rect fill="#00eeff" x="365" y="0" width="5" height="50"/><rect fill="#00dcff" x="370" y="0" width="5" height="50"/><rect fill="#00d9ff" x="375" y="0" width="5" height="50"/><rect fill="#00ffff" x="380" y="0" width="5" height="50"/><rect fill="#00ecff" x="385" y="0" width="5" height="50"/><rect fill="#00faff" x="390" y="0" width="5" height="50"/><rect fill="#87ffff" x="395" y="0" width="5" height="50"/><rect fill="#7edfff" x="400" y="0" width="5" height="50"/><rect fill="#86c6ff" x="405" y="0" width="5" height="50"/><rect fill="#bcf3ff" x="410" y="0" width="5" height="50"/><rect fill="#cae3ff" x="415" y="0" width="5" height="50"/><rect fill="#b8daff" x="420" y="0" width="5" height="50"/><rect fill="#a3c2ff" x="425" y="0" width="5" height="50"/><rect fill="#bdbfff" x="430" y="0" width="5" height="50"/><rect fill="#f3cdff" x="435" y="0" width="5" height="50"/><rect fill="#e5afff" x="440" y="0" width="5" height="50"/><rect fill="#ffdeff" x="445" y="0" width="5" height="50"/><rect fill="#e9acff" x="450" y="0" width="5" height="50"/><rect fill="#f3b1ff" x="455" y="0" width="5" height="50"/><rect fill="#ffc8ff" x="460" y="0" width="5" height="50"/><rect fill="#ffa7ff" x="465" y="0" width="5" height="50"/><rect fill="#ffb2ff" x="470" y="0" width="5" height="50"/><rect fill="#ffa4ff" x="475" y="0" width="5" height="50"/><rect fill="#ffa8ff" x="480" y="0" width="5" height="50"/><rect fill="#ffafff" x="485" y="0" width="5" height="50"/><rect fill="#ffa9ff" x="490" y="0" width="5" height="50"/><rect fill="#ff83f5" x="495" y="0" width="5" height="50"/></g></svg>