<svg version="1.1" xmlns="http://www.w3.org/2000/svg" xmlns:xlink="http://www.w3.org/1999/xlink" width="500" height="50"><g><rect fill="#01f433" x="0" y="0" width="5" height="50"/><rect fill="#0be137" x="5" y="0" width="5" height="50"/><rect fill="#09dc36" x="10" y="0" width="5" height="50"/><rect fill="#2eff5b" x="15" y="0" width="5" height="50"/><rect fill="#0ad135" x="20" y="0" width="5" height="50"/><rect fill="#2bf95a" x="25" y="0" width="5" height="50"/><rect fill="#01d734" x="30" y="0" width="5" height="50"/><rect fill="#0ad43c" x="35" y="0" width="5" height="50"/><rect fill="#24fd5b" x="40" y="0" width="5" height="50"/><rect fill="#1bef50" x="45" y="0" width="5" height="50"/><rect fill="#24ea56" x="50" y="0" width="5" height="50"/><rect fill="#25f35b" x="55" y="0" width="5" height="50"/><rect fill="#0fd845" x="60" y="0" width="5" height="50"/><rect fill="#13dc4b" x="65" y="0" width="5" height="50"/><rect fill="#04dc42" x="70" y="0" width="5" height="50"/><rect fill="#07cf41" x="75" y="0" width="5" height="50"/><rect fill="#2ce562" x="80" y="0" width="5" height="50"/><rect fill="#09d746" x="85" y="0" width="5" height="50"/><rect fill="#09e74a" x="90" y="0" width="5" height="50"/><rect fill="#1dd252" x="95" y="0" width="5" height="50"/><rect fill="#30f56c" x="100" y="0" width="5" height="50"/><rect fill="#13f358" x="105" y="0" width="5" height="50"/><rect fill="#27f467" x="110" y="0" width="5" height="50"/><rect fill="#00e749" x="115" y="0" width="5" height="50"/><rect fill="#0dec59" x="120" y="0" width="5" height="50"/><rect fill="#22e567" x="125" y="0" width="5" height="50"/><rect fill="#21ff72" x="130" y="0" width="5" height="50"/><rect fill="#21d764" x="135" y="0" width="5" height="50"/><rect fill="#1eee6c" x="140" y="0" width="5" height="50"/><rect fill="#11f065" x="145" y="0" width="5" height="50"/><rect fill="#12df61" x="150" y="0" width="5" height="50"/><rect fill="#17d462" x="155" y="0" width="5" height="50"/><rect fill="#06ec61" x="160" y="0" width="5" height="50"/><rect fill="#0dde63" x="165" y="0" width="5" height="50"/><rect fill="#0ef06b" x="170" y="0" width="5" height="50"/><rect fill="#2cf37e" x="175" y="0" width="5" height="50"/><rect fill="#03e761" x="180" y="0" width="5" height="50"/><rect fill="#08f46a" x="185" y="0" width="5" height="50"/><rect fill="#18d668" x="190" y="0" width="5" height="50"/><rect fill="#1fd46c" x="195" y="0" width="5" height="50"/><rect fill="#01da5e" x="200" y="0" width="5" height="50"/><rect fill="#0acc5e" x="205" y="0" width="5" height="50"/><rect fill="#07fe76" x="210" y="0" width="5" height="50"/><rect fill="#2bfa89" x="215" y="0" width="5" height="50"/><rect fill="#14f278" x="220" y="0" width="5" height="50"/><rect fill="#29d075" x="225" y="0" width="5" height="50"/><rect fill="#17d870" x="230" y="0" width="5" height="50"/><rect fill="#17de73" x="235" y="0" width="5" height="50"/><rect fill="#0fdd6f" x="240" y="0" width="5" height="50"/><rect fill="#17ee7c" x="245" y="0" width="5" height="50"/><rect fill="#15ea7b" x="250" y="0" width="5" height="50"/><rect fill="#16f582" x="255" y="0" width="5" height="50"/><rect fill="#0ae475" x="260" y="0" width="5" height="50"/><rect fill="#1bfd8b" x="265" y="0" width="5" height="50"/><rect fill="#02fd7e" x="270" y="0" width="5" height="50"/><rect fill="#0bde73" x="275" y="0" width="5" height="50"/><rect fill="#23e684" x="280" y="0" width="5" height="50"/><rect fill="#10d070" x="285" y="0" width="5" height="50"/><rect fill="#01f07a" x="290" y="0" width="5" height="50"/><rect fill="#21d57d" x="295" y="0" width="5" height="50"/><rect fill="#09d672" x="300" y="0" width="5" height="50"/><rect fill="#22ee8d" x="305" y="0" width="5" height="50"/><rect fill="#23db85" x="310" y="0" width="5" height="50"/><rect fill="#1fdf89" x="315" y="0" width="5" height="50"/><rect fill="#2cf098" x="320" y="0" width="5" height="50"/><rect fill="#0ee68b" x="325" y="0" width="5" height="50"/><rect fill="#24ea98" x="330" y="0" width="5" height="50"/><rect fill="#2dec9f" x="335" y="0" width="5" height="50"/><rect fill="#14fb9e" x="340" y="0" width="5" height="50"/><rect fill="#05f092" x="345" y="0" width="5" height="50"/><rect fill="#28e599" x="350" y="0" width="5" height="50"/><rect fill="#09e68e" x="355" y="0" width="5" height="50"/><rect fill="#20e295" x="360" y="0" width="5" height="50"/><rect fill="#09cc7f" x="365" y="0" width="5" height="50"/><rect fill="#1bcf89" x="370" y="0" width="5" height="50"/><rect fill="#0cce83" x="375" y="0" width="5" height="50"/><rect fill="#0ef199" x="380" y="0" width="5" height="50"/><rect fill="#0afc9f" x="385" y="0" width="5" height="50"/><rect fill="#12db90" x="390" y="0" width="5" height="50"/><rect fill="#23f1a5" x="395" y="0" width="5" height="50"/><rect fill="#0bcf87" x="400" y="0" width="5" height="50"/><rect fill="#10f9a5" x="405" y="0" width="5" height="50"/><rect fill="#10e49e" x="410" y="0" width="5" height="50"/><rect fill="#09db96" x="415" y="0" width="5" height="50"/><rect fill="#15efa9" x="420" y="0" width="5" height="50"/><rect fill="#22ebae" x="425" y="0" width="5" height="50"/><rect fill="#30fec1" x="430" y="0" width="5" height="50"/><rect fill="#21dba6" x="435" y="0" width="5" height="50"/><rect fill="#01fab7" x="440" y="0" width="5" height="50"/><rect fill="#1df1b9" x="445" y="0" width="5" height="50"/><rect fill="#02fdbb" x="450" y="0" width="5" height="50"/><rect fill="#08d09d" x="455" y="0" width="5" height="50"/><rect fill="#07eeb4" x="460" y="0" width="5" height="50"/><rect fill="#02d9a5" x="465" y="0" width="5" height="50"/><rect fill="#1adeae" x="470" y="0" width="5" height="50"/><rect fill="#25d0a7" x="475" y="0" width="5" height="50"/><rect fill="#03d8a5" x="480" y="0" width="5" height="50"/><rect fill="#02f4bd" x="485" y="0" width="5" height="50"/><rect fill="#12deb2" x="490" y="0" width="5" height="50"/><rect fill="#2bf6cb" x="495" y="0" width="5" height="50"/></g></svg>