<svg version="1.1" xmlns="http://www.w3.org/2000/svg" xmlns:xlink="http://www.w3.org/1999/xlink" width="1000" height="50"><g><rect fill="#fffbf2" x="0" y="0" width="5" height="50"/><rect fill="#fffef4" x="5" y="0" width="5" height="50"/><rect fill="#fffdf2" x="10" y="0" width="5" height="50"/><rect fill="#fffbf1" x="15" y="0" width="5" height="50"/><rect fill="#fdf4ec" x="20" y="0" width="5" height="50"/><rect fill="#fffbef" x="25" y="0" width="5" height="50"/><rect fill="#f9f0e9" x="30" y="0" width="5" height="50"/><rect fill="#fbf2e9" x="35" y="0" width="5" height="50"/><rect fill="#fffcef" x="40" y="0" width="5" height="50"/><rect fill="#f6eee5" x="45" y="0" width="5" height="50"/><rect fill="#f6f1e5" x="50" y="0" width="5" height="50"/><rect fill="#f5f0e4" x="55" y="0" width="5" height="50"/><rect fill="#f4eee3" x="60" y="0" width="5" height="50"/><rect fill="#faf1e7" x="65" y="0" width="5" height="50"/><rect fill="#fcf1e8" x="70" y="0" width="5" height="50"/><rect fill="#f9efe5" x="75" y="0" width="5" height="50"/><rect fill="#f4ebe3" x="80" y="0" width="5" height="50"/><rect fill="#f6efe2" x="85" y="0" width="5" height="50"/><rect fill="#fff5e8" x="90" y="0" width="5" height="50"/><rect fill="#f6ebe3" x="95" y="0" width="5" height="50"/><rect fill="#f7f4e4" x="100" y="0" width="5" height="50"/><rect fill="#fffded" x="105" y="0" width="5" height="50"/><rect fill="#fffcec" x="110" y="0" width="5" height="50"/><rect fill="#fff9ee" x="115" y="0" width="5" height="50"/><rect fill="#fffaeb" x="120" y="0" width="5" height="50"/><rect fill="#e8e6db" x="125" y="0" width="5" height="50"/><rect fill="#fff9ee" x="130" y="0" width="5" height="50"/><rect fill="#f6ede0" x="135" y="0" width="5" height="50"/><rect fill="#fffeed" x="140" y="0" width="5" height="50"/><rect fill="#eae6da" x="145" y="0" width="5" height="50"/><rect fill="#fff6e8" x="150" y="0" width="5" height="50"/><rect fill="#f4ebde" x="155" y="0" width="5" height="50"/><rect fill="#f1e6dc" x="160" y="0" width="5" height="50"/><rect fill="#ede3da" x="165" y="0" width="5" height="50"/><rect fill="#e9e4d8" x="170" y="0" width="5" height="50"/><rect fill="#f8efdf" x="175" y="0" width="5" height="50"/><rect fill="#faf1e0" x="180" y="0" width="5" height="50"/><rect fill="#f7ecde" x="185" y="0" width="5" height="50"/><rect fill="#faf6e3" x="190" y="0" width="5" height="50"/><rect fill="#f9ecdf" x="195" y="0" width="5" height="50"/><rect fill="#fff6e8" x="200" y="0" width="5" height="50"/><rect fill="#fbf7e3" x="205" y="0" width="5" height="50"/><rect fill="#f4ecdb" x="210" y="0" width="5" height="50"/><rect fill="#eee2d8" x="215" y="0" width="5" height="50"/><rect fill="#fff8e4" x="220" y="0" width="5" height="50"/><rect fill="#ede9d8" x="225" y="0" width="5" height="50"/><rect fill="#fff0e2" x="230" y="0" width="5" height="50"/><rect fill="#fff8e5" x="235" y="0" width="5" height="50"/><rect fill="#fdf6e1" x="240" y="0" width="5" height="50"/><rect fill="#fff2e1" x="245" y="0" width="5" height="50"/><rect fill="#f0e6d6" x="250" y="0" width="5" height="50"/><rect fill="#f9ebdb" x="255" y="0" width="5" height="50"/><rect fill="#f7ead9" x="260" y="0" width="5" height="50"/><rect fill="#f2e8d7" x="265" y="0" width="5" height="50"/><rect fill="#f8eeda" x="270" y="0" width="5" height="50"/><rect fill="#ffefdf" x="275" y="0" width="5" height="50"/><rect fill="#ede8d5" x="280" y="0" width="5" height="50"/><rect fill="#fff8e4" x="285" y="0" width="5" height="50"/><rect fill="#ece1d3" x="290" y="0" width="5" height="50"/><rect fill="#fffae3" x="295" y="0" width="5" height="50"/><rect fill="#fff5e4" x="300" y="0" width="5" height="50"/><rect fill="#eae2d2" x="305" y="0" width="5" height="50"/><rect fill="#ede8d4" x="310" y="0" width="5" height="50"/><rect fill="#fff5e0" x="315" y="0" width="5" height="50"/><rect fill="#fff9ea" x="320" y="0" width="5" height="50"/><rect fill="#f7e6d8" x="325" y="0" width="5" height="50"/><rect fill="#fffaea" x="330" y="0" width="5" height="50"/><rect fill="#f3e7d4" x="335" y="0" width="5" height="50"/><rect fill="#f4e7d5" x="340" y="0" width="5" height="50"/><rect fill="#fbeed9" x="345" y="0" width="5" height="50"/><rect fill="#fff3dd" x="350" y="0" width="5" height="50"/><rect fill="#f7ead6" x="355" y="0" width="5" height="50"/><rect fill="#f8e9d7" x="360" y="0" width="5" height="50"/><rect fill="#fff9e6" x="365" y="0" width="5" height="50"/><rect fill="#fff8e4" x="370" y="0" width="5" height="50"/><rect fill="#fff6e1" x="375" y="0" width="5" height="50"/><rect fill="#f7e6d6" x="380" y="0" width="5" height="50"/><rect fill="#f0e7d1" x="385" y="0" width="5" height="50"/><rect fill="#f7f0d7" x="390" y="0" width="5" height="50"/><rect fill="#fdeed9" x="395" y="0" width="5" height="50"/><rect fill="#fff6de" x="400" y="0" width="5" height="50"/><rect fill="#f2ebd3" x="405" y="0" width="5" height="50"/><rect fill="#fdead9" x="410" y="0" width="5" height="50"/><rect fill="#f9edd6" x="415" y="0" width="5" height="50"/><rect fill="#f9e8d5" x="420" y="0" width="5" height="50"/><rect fill="#fff2e0" x="425" y="0" width="5" height="50"/><rect fill="#fffbe5" x="430" y="0" width="5" height="50"/><rect fill="#f9e6d5" x="435" y="0" width="5" height="50"/><rect fill="#f5edd4" x="440" y="0" width="5" height="50"/><rect fill="#f5e4d2" x="445" y="0" width="5" height="50"/><rect fill="#f9ebd4" x="450" y="0" width="5" height="50"/><rect fill="#ffefd8" x="455" y="0" width="5" height="50"/><rect fill="#fff6dc" x="460" y="0" width="5" height="50"/><rect fill="#f2e3cf" x="465" y="0" width="5" height="50"/><rect fill="#fff2da" x="470" y="0" width="5" height="50"/><rect fill="#fff4e2" x="475" y="0" width="5" height="50"/><rect fill="#fffadc" x="480" y="0" width="5" height="50"/><rect fill="#ffecd9" x="485" y="0" width="5" height="50"/><rect fill="#f4e6cf" x="490" y="0" width="5" height="50"/><rect fill="#fffde0" x="495" y="0" width="5" height="50"/><rect fill="#fff1d7" x="500" y="0" width="5" height="50"/><rect fill="#f6ebd0" x="505" y="0" width="5" height="50"/><rect fill="#fff3d7" x="510" y="0" width="5" height="50"/><rect fill="#fffade" x="515" y="0" width="5" height="50"/><rect fill="#eee8cd" x="520" y="0" width="5" height="50"/><rect fill="#ffead6" x="525" y="0" width="5" height="50"/><rect fill="#f2e2cc" x="530" y="0" width="5" height="50"/><rect fill="#ece5ca" x="535" y="0" width="5" height="50"/><rect fill="#fff2de" x="540" y="0" width="5" height="50"/><rect fill="#ffeed9" x="545" y="0" width="5" height="50"/><rect fill="#fffbde" x="550" y="0" width="5" height="50"/><rect fill="#fffbdc" x="555" y="0" width="5" height="50"/><rect fill="#fffae4" x="560" y="0" width="5" height="50"/><rect fill="#f7e4cd" x="565" y="0" width="5" height="50"/><rect fill="#f0e5c9" x="570" y="0" width="5" height="50"/><rect fill="#efe8cb" x="575" y="0" width="5" height="50"/><rect fill="#fdf7d6" x="580" y="0" width="5" height="50"/><rect fill="#f5ebcd" x="585" y="0" width="5" height="50"/><rect fill="#faefd0" x="590" y="0" width="5" height="50"/><rect fill="#fff1d2" x="595" y="0" width="5" height="50"/><rect fill="#fff0d6" x="600" y="0" width="5" height="50"/><rect fill="#f8e1cd" x="605" y="0" width="5" height="50"/><rect fill="#faecce" x="610" y="0" width="5" height="50"/><rect fill="#fff0d3" x="615" y="0" width="5" height="50"/><rect fill="#f2e3c8" x="620" y="0" width="5" height="50"/><rect fill="#f5e7ca" x="625" y="0" width="5" height="50"/><rect fill="#fff7dd" x="630" y="0" width="5" height="50"/><rect fill="#f8edcd" x="635" y="0" width="5" height="50"/><rect fill="#fff9d6" x="640" y="0" width="5" height="50"/><rect fill="#fcf1d0" x="645" y="0" width="5" height="50"/><rect fill="#f0e3c6" x="650" y="0" width="5" height="50"/><rect fill="#fffbd7" x="655" y="0" width="5" height="50"/><rect fill="#fff9db" x="660" y="0" width="5" height="50"/><rect fill="#fff0d9" x="665" y="0" width="5" height="50"/><rect fill="#f1e4c6" x="670" y="0" width="5" height="50"/><rect fill="#fcf3cf" x="675" y="0" width="5" height="50"/><rect fill="#fff2d7" x="680" y="0" width="5" height="50"/><rect fill="#fdf5d0" x="685" y="0" width="5" height="50"/><rect fill="#efe3c4" x="690" y="0" width="5" height="50"/><rect fill="#f5e0c7" x="695" y="0" width="5" height="50"/><rect fill="#fdeacb" x="700" y="0" width="5" height="50"/><rect fill="#fae5c9" x="705" y="0" width="5" height="50"/><rect fill="#fffdd8" x="710" y="0" width="5" height="50"/><rect fill="#f0e0c4" x="715" y="0" width="5" height="50"/><rect fill="#f1e3c4" x="720" y="0" width="5" height="50"/><rect fill="#fffbd5" x="725" y="0" width="5" height="50"/><rect fill="#fff3d7" x="730" y="0" width="5" height="50"/><rect fill="#f5e9c6" x="735" y="0" width="5" height="50"/><rect fill="#f9dfca" x="740" y="0" width="5" height="50"/><rect fill="#fff6d3" x="745" y="0" width="5" height="50"/><rect fill="#f8dfc8" x="750" y="0" width="5" height="50"/><rect fill="#ffeccc" x="755" y="0" width="5" height="50"/><rect fill="#fff4cf" x="760" y="0" width="5" height="50"/><rect fill="#fff7d9" x="765" y="0" width="5" height="50"/><rect fill="#fff9d9" x="770" y="0" width="5" height="50"/><rect fill="#fcdfc9" x="775" y="0" width="5" height="50"/><rect fill="#f7e7c4" x="780" y="0" width="5" height="50"/><rect fill="#ffecc9" x="785" y="0" width="5" height="50"/><rect fill="#fff2d2" x="790" y="0" width="5" height="50"/><rect fill="#ffefcf" x="795" y="0" width="5" height="50"/><rect fill="#ffe7c6" x="800" y="0" width="5" height="50"/><rect fill="#fce0c6" x="805" y="0" width="5" height="50"/><rect fill="#f4e0bf" x="810" y="0" width="5" height="50"/><rect fill="#f6dfbf" x="815" y="0" width="5" height="50"/><rect fill="#aeffdd" x="820" y="0" width="5" height="50"/><rect fill="#b8ffa4" x="825" y="0" width="5" height="50"/><rect fill="#a6ffac" x="830" y="0" width="5" height="50"/><rect fill="#9dffb4" x="835" y="0" width="5" height="50"/><rect fill="#81fdbe" x="840" y="0" width="5" height="50"/><rect fill="#78ffc9" x="845" y="0" width="5" height="50"/><rect fill="#6ef9ba" x="850" y="0" width="5" height="50"/><rect fill="#90e39a" x="855" y="0" width="5" height="50"/><rect fill="#9fe685" x="860" y="0" width="5" height="50"/><rect fill="#7fef9f" x="865" y="0" width="5" height="50"/><rect fill="#55ffb6" x="870" y="0" width="5" height="50"/><rect fill="#3affc0" x="875" y="0" width="5" height="50"/><rect fill="#35f6b4" x="880" y="0" width="5" height="50"/><rect fill="#2afeb0" x="885" y="0" width="5" height="50"/><rect fill="#82ff85" x="890" y="0" width="5" height="50"/><rect fill="#00ffb5" x="895" y="0" width="5" height="50"/><rect fill="#ffa9f4" x="900" y="0" width="5" height="50"/><rect fill="#ff9ce4" x="905" y="0" width="5" height="50"/><rect fill="#ffa0ff" x="910" y="0" width="5" height="50"/><rect fill="#ff9dff" x="915" y="0" width="5" height="50"/><rect fill="#ff9df0" x="920" y="0" width="5" height="50"/><rect fill="#ff98ff" x="925" y="0" width="5" height="50"/><rect fill="#ff86d1" x="930" y="0" width="5" height="50"/><rect fill="#ff7ecd" x="935" y="0" width="5" height="50"/><rect fill="#ff8dff" x="940" y="0" width="5" height="50"/><rect fill="#ff7bfd" x="945" y="0" width="5" height="50"/><rect fill="#ff81ff" x="950" y="0" width="5" height="50"/><rect fill="#ff59de" x="955" y="0" width="5" height="50"/><rect fill="#ff4ac2" x="960" y="0" width="5" height="50"/><rect fill="#ff48b4" x="965" y="0" width="5" height="50"/><rect fill="#ff37b2" x="970" y="0" width="5" height="50"/><rect fill="#ff4ce2" x="975" y="0" width="5" height="50"/><rect fill="#f900a5" x="980" y="0" width="5" height="50"/><rect fill="#d800b4" x="985" y="0" width="5" height="50"/><rect fill="#e000ac" x="990" y="0" width="5" height="50"/><rect fill="#e30078" x="995" y="0" width="5" height="50"/></g></svg>