<svg version="1.1" xmlns="http://www.w3.org/2000/svg" xmlns:xlink="http://www.w3.org/1999/xlink" width="500" height="50"><g><rect fill="#ffdbd9" x="0" y="0" width="5" height="50"/><rect fill="#bdf2ea" x="5" y="0" width="5" height="50"/><rect fill="#ffd8e5" x="10" y="0" width="5" height="50"/><rect fill="#fbfbfb" x="15" y="0" width="5" height="50"/><rect fill="#f1f1f1" x="20" y="0" width="5" height="50"/><rect fill="#c8f3e7" x="25" y="0" width="5" height="50"/><rect fill="#fde9d8" x="30" y="0" width="5" height="50"/><rect fill="#ffe2eb" x="35" y="0" width="5" height="50"/><rect fill="#fdfdfd" x="40" y="0" width="5" height="50"/><rect fill="#f8f8f8" x="45" y="0" width="5" height="50"/><rect fill="#e2ffff" x="50" y="0" width="5" height="50"/><rect fill="#e8e3c8" x="55" y="0" width="5" height="50"/><rect fill="#fbefcd" x="60" y="0" width="5" height="50"/><rect fill="#ffecf1" x="65" y="0" width="5" height="50"/><rect fill="#efdee3" x="70" y="0" width="5" height="50"/><rect fill="#ffe3eb" x="75" y="0" width="5" height="50"/><rect fill="#1b1b1b" x="80" y="0" width="5" height="50"/><rect fill="#ffeff4" x="85" y="0" width="5" height="50"/><rect fill="#f2e1e7" x="90" y="0" width="5" height="50"/><rect fill="#f1e4ca" x="95" y="0" width="5" height="50"/><rect fill="#fce8d3" x="100" y="0" width="5" height="50"/><rect fill="#0f0f0f" x="105" y="0" width="5" height="50"/><rect fill="#ffedf6" x="110" y="0" width="5" height="50"/><rect fill="#b9edee" x="115" y="0" width="5" height="50"/><rect fill="#d6d6d6" x="120" y="0" width="5" height="50"/><rect fill="#f5f5f5" x="125" y="0" width="5" height="50"/><rect fill="#fcdfdd" x="130" y="0" width="5" height="50"/><rect fill="#e3f9f4" x="135" y="0" width="5" height="50"/><rect fill="#edeae0" x="140" y="0" width="5" height="50"/><rect fill="#bbbbbb" x="145" y="0" width="5" height="50"/><rect fill="#d0ebe9" x="150" y="0" width="5" height="50"/><rect fill="#696969" x="155" y="0" width="5" height="50"/><rect fill="#c6eceb" x="160" y="0" width="5" height="50"/><rect fill="#f1f1f1" x="165" y="0" width="5" height="50"/><rect fill="#b1b1b1" x="170" y="0" width="5" height="50"/><rect fill="#bcf2ea" x="175" y="0" width="5" height="50"/><rect fill="#494949" x="180" y="0" width="5" height="50"/><rect fill="#ffeffa" x="185" y="0" width="5" height="50"/><rect fill="#fffdf1" x="190" y="0" width="5" height="50"/><rect fill="#fff8e3" x="195" y="0" width="5" height="50"/><rect fill="#cbeced" x="200" y="0" width="5" height="50"/><rect fill="#ffeada" x="205" y="0" width="5" height="50"/><rect fill="#8f8f8f" x="210" y="0" width="5" height="50"/><rect fill="#ffdfdf" x="215" y="0" width="5" height="50"/><rect fill="#bfbfbf" x="220" y="0" width="5" height="50"/><rect fill="#f3e3c6" x="225" y="0" width="5" height="50"/><rect fill="#fefefe" x="230" y="0" width="5" height="50"/><rect fill="#f7dfc3" x="235" y="0" width="5" height="50"/><rect fill="#fde6ed" x="240" y="0" width="5" height="50"/><rect fill="#dbdbdb" x="245" y="0" width="5" height="50"/><rect fill="#f8f8f8" x="250" y="0" width="5" height="50"/><rect fill="#434343" x="255" y="0" width="5" height="50"/><rect fill="#b8b8b8" x="260" y="0" width="5" height="50"/><rect fill="#3f3f3f" x="265" y="0" width="5" height="50"/><rect fill="#c9fdeb" x="270" y="0" width="5" height="50"/><rect fill="#fdfdfd" x="275" y="0" width="5" height="50"/><rect fill="#f8e9d9" x="280" y="0" width="5" height="50"/><rect fill="#313131" x="285" y="0" width="5" height="50"/><rect fill="#ffdee4" x="290" y="0" width="5" height="50"/><rect fill="#fff8d4" x="295" y="0" width="5" height="50"/><rect fill="#fefefe" x="300" y="0" width="5" height="50"/><rect fill="#999999" x="305" y="0" width="5" height="50"/><rect fill="#ffedfa" x="310" y="0" width="5" height="50"/><rect fill="#d4ffee" x="315" y="0" width="5" height="50"/><rect fill="#434343" x="320" y="0" width="5" height="50"/><rect fill="#f8f8f8" x="325" y="0" width="5" height="50"/><rect fill="#d3fffe" x="330" y="0" width="5" height="50"/><rect fill="#fdf3e9" x="335" y="0" width="5" height="50"/><rect fill="#faf7e8" x="340" y="0" width="5" height="50"/><rect fill="#fff6dc" x="345" y="0" width="5" height="50"/><rect fill="#fff3f4" x="350" y="0" width="5" height="50"/><rect fill="#fcfcfc" x="355" y="0" width="5" height="50"/><rect fill="#fafafa" x="360" y="0" width="5" height="50"/><rect fill="#1b1b1b" x="365" y="0" width="5" height="50"/><rect fill="#ffe6f2" x="370" y="0" width="5" height="50"/><rect fill="#f3f3f3" x="375" y="0" width="5" height="50"/><rect fill="#fffce5" x="380" y="0" width="5" height="50"/><rect fill="#ffe9ed" x="385" y="0" width="5" height="50"/><rect fill="#f8f8f8" x="390" y="0" width="5" height="50"/><rect fill="#fff3d8" x="395" y="0" width="5" height="50"/><rect fill="#c3f1f3" x="400" y="0" width="5" height="50"/><rect fill="#0f0f0f" x="405" y="0" width="5" height="50"/><rect fill="#fef5e7" x="410" y="0" width="5" height="50"/><rect fill="#fff1f9" x="415" y="0" width="5" height="50"/><rect fill="#d0f9e9" x="420" y="0" width="5" height="50"/><rect fill="#faf7ed" x="425" y="0" width="5" height="50"/><rect fill="#fff3fb" x="430" y="0" width="5" height="50"/><rect fill="#fff2e0" x="435" y="0" width="5" height="50"/><rect fill="#f6f6f6" x="440" y="0" width="5" height="50"/><rect fill="#fbf1d2" x="445" y="0" width="5" height="50"/><rect fill="#d8ebe3" x="450" y="0" width="5" height="50"/><rect fill="#f1e5d1" x="455" y="0" width="5" height="50"/><rect fill="#ffd9d7" x="460" y="0" width="5" height="50"/><rect fill="#f5e9df" x="465" y="0" width="5" height="50"/><rect fill="#f6f6f6" x="470" y="0" width="5" height="50"/><rect fill="#d3ffff" x="475" y="0" width="5" height="50"/><rect fill="#434343" x="480" y="0" width="5" height="50"/><rect fill="#ffe9f9" x="485" y="0" width="5" height="50"/><rect fill="#d1ecec" x="490" y="0" width="5" height="50"/><rect fill="#f7edcc" x="495" y="0" width="5" height="50"/></g></svg>