<svg version="1.1" xmlns="http://www.w3.org/2000/svg" xmlns:xlink="http://www.w3.org/1999/xlink" width="500" height="50"><g><rect fill="#53e270" x="0" y="0" width="5" height="50"/><rect fill="#3ed25c" x="5" y="0" width="5" height="50"/><rect fill="#267536" x="10" y="0" width="5" height="50"/><rect fill="#399f50" x="15" y="0" width="5" height="50"/><rect fill="#37af52" x="20" y="0" width="5" height="50"/><rect fill="#47bd62" x="25" y="0" width="5" height="50"/><rect fill="#12882d" x="30" y="0" width="5" height="50"/><rect fill="#196b2e" x="35" y="0" width="5" height="50"/><rect fill="#3fb85e" x="40" y="0" width="5" height="50"/><rect fill="#30c657" x="45" y="0" width="5" height="50"/><rect fill="#178434" x="50" y="0" width="5" height="50"/><rect fill="#4ac56b" x="55" y="0" width="5" height="50"/><rect fill="#1a6e33" x="60" y="0" width="5" height="50"/><rect fill="#2c904a" x="65" y="0" width="5" height="50"/><rect fill="#39a45a" x="70" y="0" width="5" height="50"/><rect fill="#55d77c" x="75" y="0" width="5" height="50"/><rect fill="#19d855" x="80" y="0" width="5" height="50"/><rect fill="#1caa4b" x="85" y="0" width="5" height="50"/><rect fill="#29aa53" x="90" y="0" width="5" height="50"/><rect fill="#4ec676" x="95" y="0" width="5" height="50"/><rect fill="#1fb552" x="100" y="0" width="5" height="50"/><rect fill="#10933d" x="105" y="0" width="5" height="50"/><rect fill="#177036" x="110" y="0" width="5" height="50"/><rect fill="#21e467" x="115" y="0" width="5" height="50"/><rect fill="#109942" x="120" y="0" width="5" height="50"/><rect fill="#1e6839" x="125" y="0" width="5" height="50"/><rect fill="#33af61" x="130" y="0" width="5" height="50"/><rect fill="#27864a" x="135" y="0" width="5" height="50"/><rect fill="#35ad62" x="140" y="0" width="5" height="50"/><rect fill="#109542" x="145" y="0" width="5" height="50"/><rect fill="#35bd6a" x="150" y="0" width="5" height="50"/><rect fill="#35995c" x="155" y="0" width="5" height="50"/><rect fill="#37c26f" x="160" y="0" width="5" height="50"/><rect fill="#20c262" x="165" y="0" width="5" height="50"/><rect fill="#36905b" x="170" y="0" width="5" height="50"/><rect fill="#19c05e" x="175" y="0" width="5" height="50"/><rect fill="#28c469" x="180" y="0" width="5" height="50"/><rect fill="#22d16a" x="185" y="0" width="5" height="50"/><rect fill="#217f48" x="190" y="0" width="5" height="50"/><rect fill="#247c49" x="195" y="0" width="5" height="50"/><rect fill="#2f9059" x="200" y="0" width="5" height="50"/><rect fill="#3c9c65" x="205" y="0" width="5" height="50"/><rect fill="#43c17e" x="210" y="0" width="5" height="50"/><rect fill="#1ec36b" x="215" y="0" width="5" height="50"/><rect fill="#349a63" x="220" y="0" width="5" height="50"/><rect fill="#39a46b" x="225" y="0" width="5" height="50"/><rect fill="#31935f" x="230" y="0" width="5" height="50"/><rect fill="#137c47" x="235" y="0" width="5" height="50"/><rect fill="#4bc688" x="240" y="0" width="5" height="50"/><rect fill="#116e40" x="245" y="0" width="5" height="50"/><rect fill="#206c46" x="250" y="0" width="5" height="50"/><rect fill="#25915c" x="255" y="0" width="5" height="50"/><rect fill="#17a962" x="260" y="0" width="5" height="50"/><rect fill="#0c673b" x="265" y="0" width="5" height="50"/><rect fill="#14663f" x="270" y="0" width="5" height="50"/><rect fill="#266a4a" x="275" y="0" width="5" height="50"/><rect fill="#3dc183" x="280" y="0" width="5" height="50"/><rect fill="#1fd783" x="285" y="0" width="5" height="50"/><rect fill="#30d48a" x="290" y="0" width="5" height="50"/><rect fill="#12a764" x="295" y="0" width="5" height="50"/><rect fill="#216f4c" x="300" y="0" width="5" height="50"/><rect fill="#39e598" x="305" y="0" width="5" height="50"/><rect fill="#21e28c" x="310" y="0" width="5" height="50"/><rect fill="#4ce19f" x="315" y="0" width="5" height="50"/><rect fill="#37d690" x="320" y="0" width="5" height="50"/><rect fill="#16744c" x="325" y="0" width="5" height="50"/><rect fill="#368865" x="330" y="0" width="5" height="50"/><rect fill="#3ebb86" x="335" y="0" width="5" height="50"/><rect fill="#23a56f" x="340" y="0" width="5" height="50"/><rect fill="#1a7f55" x="345" y="0" width="5" height="50"/><rect fill="#1c714e" x="350" y="0" width="5" height="50"/><rect fill="#1e9362" x="355" y="0" width="5" height="50"/><rect fill="#16724c" x="360" y="0" width="5" height="50"/><rect fill="#3e9c77" x="365" y="0" width="5" height="50"/><rect fill="#33ca91" x="370" y="0" width="5" height="50"/><rect fill="#139c69" x="375" y="0" width="5" height="50"/><rect fill="#258a64" x="380" y="0" width="5" height="50"/><rect fill="#25db97" x="385" y="0" width="5" height="50"/><rect fill="#1aa270" x="390" y="0" width="5" height="50"/><rect fill="#23684f" x="395" y="0" width="5" height="50"/><rect fill="#4ad6a4" x="400" y="0" width="5" height="50"/><rect fill="#26d49a" x="405" y="0" width="5" height="50"/><rect fill="#188060" x="410" y="0" width="5" height="50"/><rect fill="#33ba90" x="415" y="0" width="5" height="50"/><rect fill="#126e52" x="420" y="0" width="5" height="50"/><rect fill="#18906c" x="425" y="0" width="5" height="50"/><rect fill="#349075" x="430" y="0" width="5" height="50"/><rect fill="#198d6c" x="435" y="0" width="5" height="50"/><rect fill="#28d7a7" x="440" y="0" width="5" height="50"/><rect fill="#28846a" x="445" y="0" width="5" height="50"/><rect fill="#3de5b8" x="450" y="0" width="5" height="50"/><rect fill="#27cea3" x="455" y="0" width="5" height="50"/><rect fill="#20ab87" x="460" y="0" width="5" height="50"/><rect fill="#179677" x="465" y="0" width="5" height="50"/><rect fill="#41a991" x="470" y="0" width="5" height="50"/><rect fill="#2bb898" x="475" y="0" width="5" height="50"/><rect fill="#38d6b2" x="480" y="0" width="5" height="50"/><rect fill="#3cb39a" x="485" y="0" width="5" height="50"/><rect fill="#22a98d" x="490" y="0" width="5" height="50"/><rect fill="#16aa8c" x="495" y="0" width="5" height="50"/></g></svg>