<svg version="1.1" xmlns="http://www.w3.org/2000/svg" xmlns:xlink="http://www.w3.org/1999/xlink" width="500" height="50"><g><rect fill="#fb704f" x="0" y="0" width="5" height="50"/><rect fill="#ec9476" x="5" y="0" width="5" height="50"/><rect fill="#f7b59a" x="10" y="0" width="5" height="50"/><rect fill="#ffbb86" x="15" y="0" width="5" height="50"/><rect fill="#eb9856" x="20" y="0" width="5" height="50"/><rect fill="#efc89d" x="25" y="0" width="5" height="50"/><rect fill="#f2ac5f" x="30" y="0" width="5" height="50"/><rect fill="#fbdc8d" x="35" y="0" width="5" height="50"/><rect fill="#fdd35e" x="40" y="0" width="5" height="50"/><rect fill="#ead89d" x="45" y="0" width="5" height="50"/><rect fill="#f4e68d" x="50" y="0" width="5" height="50"/><rect fill="#f5eba1" x="55" y="0" width="5" height="50"/><rect fill="#e6d650" x="60" y="0" width="5" height="50"/><rect fill="#ecfc5d" x="65" y="0" width="5" height="50"/><rect fill="#d5e847" x="70" y="0" width="5" height="50"/><rect fill="#d7f964" x="75" y="0" width="5" height="50"/><rect fill="#d5f377" x="80" y="0" width="5" height="50"/><rect fill="#d4eb91" x="85" y="0" width="5" height="50"/><rect fill="#b5ec61" x="90" y="0" width="5" height="50"/><rect fill="#bef867" x="95" y="0" width="5" height="50"/><rect fill="#d2fd9a" x="100" y="0" width="5" height="50"/><rect fill="#c4f587" x="105" y="0" width="5" height="50"/><rect fill="#a6e661" x="110" y="0" width="5" height="50"/><rect fill="#c3f69f" x="115" y="0" width="5" height="50"/><rect fill="#94f366" x="120" y="0" width="5" height="50"/><rect fill="#71f84b" x="125" y="0" width="5" height="50"/><rect fill="#acf6a0" x="130" y="0" width="5" height="50"/><rect fill="#73f75e" x="135" y="0" width="5" height="50"/><rect fill="#4aec53" x="140" y="0" width="5" height="50"/><rect fill="#9ce7aa" x="145" y="0" width="5" height="50"/><rect fill="#50f570" x="150" y="0" width="5" height="50"/><rect fill="#8bf7a4" x="155" y="0" width="5" height="50"/><rect fill="#90ffbc" x="160" y="0" width="5" height="50"/><rect fill="#7ffabf" x="165" y="0" width="5" height="50"/><rect fill="#a8ffd8" x="170" y="0" width="5" height="50"/><rect fill="#4deaa9" x="175" y="0" width="5" height="50"/><rect fill="#8feac6" x="180" y="0" width="5" height="50"/><rect fill="#53e9b1" x="185" y="0" width="5" height="50"/><rect fill="#8bfddf" x="190" y="0" width="5" height="50"/><rect fill="#b0feea" x="195" y="0" width="5" height="50"/><rect fill="#91edd9" x="200" y="0" width="5" height="50"/><rect fill="#49eccc" x="205" y="0" width="5" height="50"/><rect fill="#8bf7e9" x="210" y="0" width="5" height="50"/><rect fill="#85efe3" x="215" y="0" width="5" height="50"/><rect fill="#6bf9eb" x="220" y="0" width="5" height="50"/><rect fill="#7df6eb" x="225" y="0" width="5" height="50"/><rect fill="#82ece9" x="230" y="0" width="5" height="50"/><rect fill="#9fe6e6" x="235" y="0" width="5" height="50"/><rect fill="#5decf8" x="240" y="0" width="5" height="50"/><rect fill="#56e7f6" x="245" y="0" width="5" height="50"/><rect fill="#51deee" x="250" y="0" width="5" height="50"/><rect fill="#92dff4" x="255" y="0" width="5" height="50"/><rect fill="#72d1f1" x="260" y="0" width="5" height="50"/><rect fill="#65cbef" x="265" y="0" width="5" height="50"/><rect fill="#95ddf7" x="270" y="0" width="5" height="50"/><rect fill="#5aaff3" x="275" y="0" width="5" height="50"/><rect fill="#5686fd" x="280" y="0" width="5" height="50"/><rect fill="#8da6ec" x="285" y="0" width="5" height="50"/><rect fill="#a9befc" x="290" y="0" width="5" height="50"/><rect fill="#6c89f9" x="295" y="0" width="5" height="50"/><rect fill="#7185e8" x="300" y="0" width="5" height="50"/><rect fill="#8296fb" x="305" y="0" width="5" height="50"/><rect fill="#5167eb" x="310" y="0" width="5" height="50"/><rect fill="#9395fc" x="315" y="0" width="5" height="50"/><rect fill="#a09ee7" x="320" y="0" width="5" height="50"/><rect fill="#7667f7" x="325" y="0" width="5" height="50"/><rect fill="#968bee" x="330" y="0" width="5" height="50"/><rect fill="#a599f8" x="335" y="0" width="5" height="50"/><rect fill="#9387ea" x="340" y="0" width="5" height="50"/><rect fill="#9a7ff5" x="345" y="0" width="5" height="50"/><rect fill="#834be9" x="350" y="0" width="5" height="50"/><rect fill="#8c56e8" x="355" y="0" width="5" height="50"/><rect fill="#a067ec" x="360" y="0" width="5" height="50"/><rect fill="#c7a0f2" x="365" y="0" width="5" height="50"/><rect fill="#bf64fd" x="370" y="0" width="5" height="50"/><rect fill="#c083e7" x="375" y="0" width="5" height="50"/><rect fill="#bd53f8" x="380" y="0" width="5" height="50"/><rect fill="#dca1f7" x="385" y="0" width="5" height="50"/><rect fill="#df8dfb" x="390" y="0" width="5" height="50"/><rect fill="#d98df0" x="395" y="0" width="5" height="50"/><rect fill="#d361f5" x="400" y="0" width="5" height="50"/><rect fill="#ca5de9" x="405" y="0" width="5" height="50"/><rect fill="#e88be8" x="410" y="0" width="5" height="50"/><rect fill="#f581f4" x="415" y="0" width="5" height="50"/><rect fill="#e67ae3" x="420" y="0" width="5" height="50"/><rect fill="#ea9ae6" x="425" y="0" width="5" height="50"/><rect fill="#fe91f5" x="430" y="0" width="5" height="50"/><rect fill="#f77ceb" x="435" y="0" width="5" height="50"/><rect fill="#ff99f1" x="440" y="0" width="5" height="50"/><rect fill="#fc93e5" x="445" y="0" width="5" height="50"/><rect fill="#f5a9e1" x="450" y="0" width="5" height="50"/><rect fill="#ee5ac1" x="455" y="0" width="5" height="50"/><rect fill="#f05ba8" x="460" y="0" width="5" height="50"/><rect fill="#ef86b5" x="465" y="0" width="5" height="50"/><rect fill="#eb8ab0" x="470" y="0" width="5" height="50"/><rect fill="#ed4d81" x="475" y="0" width="5" height="50"/><rect fill="#f77695" x="480" y="0" width="5" height="50"/><rect fill="#f8a7b6" x="485" y="0" width="5" height="50"/><rect fill="#e85e75" x="490" y="0" width="5" height="50"/><rect fill="#ec677a" x="495" y="0" width="5" height="50"/></g></svg>