<svg version="1.1" xmlns="http://www.w3.org/2000/svg" xmlns:xlink="http://www.w3.org/1999/xlink" width="1000" height="50"><g><rect fill="#dd3c69" x="0" y="0" width="5" height="50"/><rect fill="#e55478" x="5" y="0" width="5" height="50"/><rect fill="#da2f7d" x="10" y="0" width="5" height="50"/><rect fill="#d9508c" x="15" y="0" width="5" height="50"/><rect fill="#f85d96" x="20" y="0" width="5" height="50"/><rect fill="#cd6a97" x="25" y="0" width="5" height="50"/><rect fill="#e76fa2" x="30" y="0" width="5" height="50"/><rect fill="#f849a3" x="35" y="0" width="5" height="50"/><rect fill="#ee3faf" x="40" y="0" width="5" height="50"/><rect fill="#f072b5" x="45" y="0" width="5" height="50"/><rect fill="#f158b6" x="50" y="0" width="5" height="50"/><rect fill="#f690cb" x="55" y="0" width="5" height="50"/><rect fill="#eb32c3" x="60" y="0" width="5" height="50"/><rect fill="#e17bcc" x="65" y="0" width="5" height="50"/><rect fill="#ebd5bf" x="70" y="0" width="5" height="50"/><rect fill="#e8d6bb" x="75" y="0" width="5" height="50"/><rect fill="#e6d1c0" x="80" y="0" width="5" height="50"/><rect fill="#ead4c1" x="85" y="0" width="5" height="50"/><rect fill="#efd9c0" x="90" y="0" width="5" height="50"/><rect fill="#efd9c2" x="95" y="0" width="5" height="50"/><rect fill="#ebd8c0" x="100" y="0" width="5" height="50"/><rect fill="#e6d5be" x="105" y="0" width="5" height="50"/><rect fill="#ebd5c4" x="110" y="0" width="5" height="50"/><rect fill="#f1dac5" x="115" y="0" width="5" height="50"/><rect fill="#f1dac5" x="120" y="0" width="5" height="50"/><rect fill="#ebdcbf" x="125" y="0" width="5" height="50"/><rect fill="#e8dbbd" x="130" y="0" width="5" height="50"/><rect fill="#ebdcc0" x="135" y="0" width="5" height="50"/><rect fill="#e9ddbd" x="140" y="0" width="5" height="50"/><rect fill="#f6ddcc" x="145" y="0" width="5" height="50"/><rect fill="#e6d9c0" x="150" y="0" width="5" height="50"/><rect fill="#eeddc6" x="155" y="0" width="5" height="50"/><rect fill="#ebd8c9" x="160" y="0" width="5" height="50"/><rect fill="#e9ddbe" x="165" y="0" width="5" height="50"/><rect fill="#e7debb" x="170" y="0" width="5" height="50"/><rect fill="#e9ddc0" x="175" y="0" width="5" height="50"/><rect fill="#e7d6c9" x="180" y="0" width="5" height="50"/><rect fill="#e8dfbc" x="185" y="0" width="5" height="50"/><rect fill="#ecddc6" x="190" y="0" width="5" height="50"/><rect fill="#fae5cc" x="195" y="0" width="5" height="50"/><rect fill="#f1e1ca" x="200" y="0" width="5" height="50"/><rect fill="#f6e7c6" x="205" y="0" width="5" height="50"/><rect fill="#e6d8c9" x="210" y="0" width="5" height="50"/><rect fill="#fde9cf" x="215" y="0" width="5" height="50"/><rect fill="#ffebcd" x="220" y="0" width="5" height="50"/><rect fill="#f3e0d1" x="225" y="0" width="5" height="50"/><rect fill="#f2e1ce" x="230" y="0" width="5" height="50"/><rect fill="#f1e8c2" x="235" y="0" width="5" height="50"/><rect fill="#f4e7c9" x="240" y="0" width="5" height="50"/><rect fill="#ecdfcc" x="245" y="0" width="5" height="50"/><rect fill="#f8e9ca" x="250" y="0" width="5" height="50"/><rect fill="#fbeace" x="255" y="0" width="5" height="50"/><rect fill="#f0e2cc" x="260" y="0" width="5" height="50"/><rect fill="#f8e8cc" x="265" y="0" width="5" height="50"/><rect fill="#ebe0c9" x="270" y="0" width="5" height="50"/><rect fill="#f2e3cf" x="275" y="0" width="5" height="50"/><rect fill="#ece6bf" x="280" y="0" width="5" height="50"/><rect fill="#fce8d3" x="285" y="0" width="5" height="50"/><rect fill="#f6eac9" x="290" y="0" width="5" height="50"/><rect fill="#e9e3c3" x="295" y="0" width="5" height="50"/><rect fill="#ece1cd" x="300" y="0" width="5" height="50"/><rect fill="#ffefcd" x="305" y="0" width="5" height="50"/><rect fill="#faead0" x="310" y="0" width="5" height="50"/><rect fill="#f9eec9" x="315" y="0" width="5" height="50"/><rect fill="#f2e9c9" x="320" y="0" width="5" height="50"/><rect fill="#e8dfca" x="325" y="0" width="5" height="50"/><rect fill="#f3e4d2" x="330" y="0" width="5" height="50"/><rect fill="#feeed0" x="335" y="0" width="5" height="50"/><rect fill="#f9ead2" x="340" y="0" width="5" height="50"/><rect fill="#fcecd1" x="345" y="0" width="5" height="50"/><rect fill="#eddfd3" x="350" y="0" width="5" height="50"/><rect fill="#ece5c8" x="355" y="0" width="5" height="50"/><rect fill="#ebe1d0" x="360" y="0" width="5" height="50"/><rect fill="#e6e5bf" x="365" y="0" width="5" height="50"/><rect fill="#f1ecc6" x="370" y="0" width="5" height="50"/><rect fill="#eae9c0" x="375" y="0" width="5" height="50"/><rect fill="#e8dfcf" x="380" y="0" width="5" height="50"/><rect fill="#e6dfcd" x="385" y="0" width="5" height="50"/><rect fill="#e9dfd3" x="390" y="0" width="5" height="50"/><rect fill="#ffeed8" x="395" y="0" width="5" height="50"/><rect fill="#faf3c8" x="400" y="0" width="5" height="50"/><rect fill="#fdf3ce" x="405" y="0" width="5" height="50"/><rect fill="#f6ebd4" x="410" y="0" width="5" height="50"/><rect fill="#fcebdb" x="415" y="0" width="5" height="50"/><rect fill="#fcecda" x="420" y="0" width="5" height="50"/><rect fill="#eee2d8" x="425" y="0" width="5" height="50"/><rect fill="#f9efd4" x="430" y="0" width="5" height="50"/><rect fill="#f9f1ce" x="435" y="0" width="5" height="50"/><rect fill="#efeec2" x="440" y="0" width="5" height="50"/><rect fill="#eeeac9" x="445" y="0" width="5" height="50"/><rect fill="#f6f0cd" x="450" y="0" width="5" height="50"/><rect fill="#f7f2c9" x="455" y="0" width="5" height="50"/><rect fill="#eee4d6" x="460" y="0" width="5" height="50"/><rect fill="#f2eccd" x="465" y="0" width="5" height="50"/><rect fill="#f1e5d9" x="470" y="0" width="5" height="50"/><rect fill="#e7e3ce" x="475" y="0" width="5" height="50"/><rect fill="#fdeddc" x="480" y="0" width="5" height="50"/><rect fill="#ebeac6" x="485" y="0" width="5" height="50"/><rect fill="#e8dfd6" x="490" y="0" width="5" height="50"/><rect fill="#f9ebdb" x="495" y="0" width="5" height="50"/><rect fill="#f2e8d7" x="500" y="0" width="5" height="50"/><rect fill="#ede9ce" x="505" y="0" width="5" height="50"/><rect fill="#efeccd" x="510" y="0" width="5" height="50"/><rect fill="#f6f3c9" x="515" y="0" width="5" height="50"/><rect fill="#f3e9d7" x="520" y="0" width="5" height="50"/><rect fill="#f0e8d6" x="525" y="0" width="5" height="50"/><rect fill="#ece8cf" x="530" y="0" width="5" height="50"/><rect fill="#f4f0cd" x="535" y="0" width="5" height="50"/><rect fill="#e8e1d5" x="540" y="0" width="5" height="50"/><rect fill="#f6eadb" x="545" y="0" width="5" height="50"/><rect fill="#eaeac8" x="550" y="0" width="5" height="50"/><rect fill="#f9f4cd" x="555" y="0" width="5" height="50"/><rect fill="#fdf1dc" x="560" y="0" width="5" height="50"/><rect fill="#f4efd2" x="565" y="0" width="5" height="50"/><rect fill="#f7eadf" x="570" y="0" width="5" height="50"/><rect fill="#f9ebe0" x="575" y="0" width="5" height="50"/><rect fill="#fbf4d5" x="580" y="0" width="5" height="50"/><rect fill="#efead7" x="585" y="0" width="5" height="50"/><rect fill="#ede8d7" x="590" y="0" width="5" height="50"/><rect fill="#e8e4d6" x="595" y="0" width="5" height="50"/><rect fill="#f4f0d6" x="600" y="0" width="5" height="50"/><rect fill="#f7ebe0" x="605" y="0" width="5" height="50"/><rect fill="#e8e3d8" x="610" y="0" width="5" height="50"/><rect fill="#fcf1e0" x="615" y="0" width="5" height="50"/><rect fill="#eee6dd" x="620" y="0" width="5" height="50"/><rect fill="#f2f1cf" x="625" y="0" width="5" height="50"/><rect fill="#fdf9d1" x="630" y="0" width="5" height="50"/><rect fill="#f7f4d5" x="635" y="0" width="5" height="50"/><rect fill="#e6e4d5" x="640" y="0" width="5" height="50"/><rect fill="#f8f1dc" x="645" y="0" width="5" height="50"/><rect fill="#f2eed9" x="650" y="0" width="5" height="50"/><rect fill="#f2f0d3" x="655" y="0" width="5" height="50"/><rect fill="#fbf0e3" x="660" y="0" width="5" height="50"/><rect fill="#efebda" x="665" y="0" width="5" height="50"/><rect fill="#fefbd3" x="670" y="0" width="5" height="50"/><rect fill="#eee6e0" x="675" y="0" width="5" height="50"/><rect fill="#ede9da" x="680" y="0" width="5" height="50"/><rect fill="#f5f5d1" x="685" y="0" width="5" height="50"/><rect fill="#f9f2de" x="690" y="0" width="5" height="50"/><rect fill="#e9e5da" x="695" y="0" width="5" height="50"/><rect fill="#f6f2dc" x="700" y="0" width="5" height="50"/><rect fill="#f8f4d9" x="705" y="0" width="5" height="50"/><rect fill="#f3f4d2" x="710" y="0" width="5" height="50"/><rect fill="#eae5de" x="715" y="0" width="5" height="50"/><rect fill="#eee8df" x="720" y="0" width="5" height="50"/><rect fill="#fdf5e1" x="725" y="0" width="5" height="50"/><rect fill="#ede8df" x="730" y="0" width="5" height="50"/><rect fill="#eae5de" x="735" y="0" width="5" height="50"/><rect fill="#faf7d9" x="740" y="0" width="5" height="50"/><rect fill="#fefada" x="745" y="0" width="5" height="50"/><rect fill="#f3f3d6" x="750" y="0" width="5" height="50"/><rect fill="#f9f0e4" x="755" y="0" width="5" height="50"/><rect fill="#f4f3d8" x="760" y="0" width="5" height="50"/><rect fill="#fdfbd7" x="765" y="0" width="5" height="50"/><rect fill="#efeae0" x="770" y="0" width="5" height="50"/><rect fill="#f2ece2" x="775" y="0" width="5" height="50"/><rect fill="#eeecdb" x="780" y="0" width="5" height="50"/><rect fill="#faf6de" x="785" y="0" width="5" height="50"/><rect fill="#f8f7d9" x="790" y="0" width="5" height="50"/><rect fill="#fff6e6" x="795" y="0" width="5" height="50"/><rect fill="#fcf9de" x="800" y="0" width="5" height="50"/><rect fill="#f3f2dd" x="805" y="0" width="5" height="50"/><rect fill="#edecde" x="810" y="0" width="5" height="50"/><rect fill="#fef8e5" x="815" y="0" width="5" height="50"/><rect fill="#faf3e8" x="820" y="0" width="5" height="50"/><rect fill="#fdf4ed" x="825" y="0" width="5" height="50"/><rect fill="#faf2eb" x="830" y="0" width="5" height="50"/><rect fill="#edece1" x="835" y="0" width="5" height="50"/><rect fill="#f2f2e0" x="840" y="0" width="5" height="50"/><rect fill="#f6f6e1" x="845" y="0" width="5" height="50"/><rect fill="#fbf6ea" x="850" y="0" width="5" height="50"/><rect fill="#f7f3e8" x="855" y="0" width="5" height="50"/><rect fill="#f5f4e4" x="860" y="0" width="5" height="50"/><rect fill="#f8f8e1" x="865" y="0" width="5" height="50"/><rect fill="#f6f6e2" x="870" y="0" width="5" height="50"/><rect fill="#fbfbe1" x="875" y="0" width="5" height="50"/><rect fill="#fefde4" x="880" y="0" width="5" height="50"/><rect fill="#f9f5ec" x="885" y="0" width="5" height="50"/><rect fill="#fdf8ee" x="890" y="0" width="5" height="50"/><rect fill="#f8f8e8" x="895" y="0" width="5" height="50"/><rect fill="#fbfaeb" x="900" y="0" width="5" height="50"/><rect fill="#fefdf1" x="905" y="0" width="5" height="50"/><rect fill="#a7faba" x="910" y="0" width="5" height="50"/><rect fill="#8be69e" x="915" y="0" width="5" height="50"/><rect fill="#a6f4cf" x="920" y="0" width="5" height="50"/><rect fill="#92f8ac" x="925" y="0" width="5" height="50"/><rect fill="#88fca5" x="930" y="0" width="5" height="50"/><rect fill="#88f8b4" x="935" y="0" width="5" height="50"/><rect fill="#89f3c7" x="940" y="0" width="5" height="50"/><rect fill="#7be9b8" x="945" y="0" width="5" height="50"/><rect fill="#74f29f" x="950" y="0" width="5" height="50"/><rect fill="#63e692" x="955" y="0" width="5" height="50"/><rect fill="#6cfda2" x="960" y="0" width="5" height="50"/><rect fill="#68eeac" x="965" y="0" width="5" height="50"/><rect fill="#78fcd7" x="970" y="0" width="5" height="50"/><rect fill="#54eb8d" x="975" y="0" width="5" height="50"/><rect fill="#55f2a4" x="980" y="0" width="5" height="50"/><rect fill="#59eebe" x="985" y="0" width="5" height="50"/><rect fill="#58ebc9" x="990" y="0" width="5" height="50"/><rect fill="#49f58f" x="995" y="0" width="5" height="50"/></g></svg>