<svg version="1.1" xmlns="http://www.w3.org/2000/svg" xmlns:xlink="http://www.w3.org/1999/xlink" width="500" height="50"><g><rect fill="#5dcc77" x="0" y="0" width="5" height="50"/><rect fill="#67cda6" x="5" y="0" width="5" height="50"/><rect fill="#cf9c60" x="10" y="0" width="5" height="50"/><rect fill="#d0a77b" x="15" y="0" width="5" height="50"/><rect fill="#78d3b4" x="20" y="0" width="5" height="50"/><rect fill="#d3c13c" x="25" y="0" width="5" height="50"/><rect fill="#d39358" x="30" y="0" width="5" height="50"/><rect fill="#d5cd7b" x="35" y="0" width="5" height="50"/><rect fill="#6bd689" x="40" y="0" width="5" height="50"/><rect fill="#7dd69c" x="45" y="0" width="5" height="50"/><rect fill="#6bd6bf" x="50" y="0" width="5" height="50"/><rect fill="#d6a47e" x="55" y="0" width="5" height="50"/><rect fill="#d7b168" x="60" y="0" width="5" height="50"/><rect fill="#61d7a7" x="65" y="0" width="5" height="50"/><rect fill="#d87d3c" x="70" y="0" width="5" height="50"/><rect fill="#d98938" x="75" y="0" width="5" height="50"/><rect fill="#60d9ac" x="80" y="0" width="5" height="50"/><rect fill="#4ed9ab" x="85" y="0" width="5" height="50"/><rect fill="#d9b671" x="90" y="0" width="5" height="50"/><rect fill="#dab252" x="95" y="0" width="5" height="50"/><rect fill="#5bda7e" x="100" y="0" width="5" height="50"/><rect fill="#49daab" x="105" y="0" width="5" height="50"/><rect fill="#5dda9a" x="110" y="0" width="5" height="50"/><rect fill="#64da8d" x="115" y="0" width="5" height="50"/><rect fill="#58dba7" x="120" y="0" width="5" height="50"/><rect fill="#dbbe67" x="125" y="0" width="5" height="50"/><rect fill="#d9db53" x="130" y="0" width="5" height="50"/><rect fill="#db8f3d" x="135" y="0" width="5" height="50"/><rect fill="#dbc965" x="140" y="0" width="5" height="50"/><rect fill="#dcc869" x="145" y="0" width="5" height="50"/><rect fill="#dd992d" x="150" y="0" width="5" height="50"/><rect fill="#dda232" x="155" y="0" width="5" height="50"/><rect fill="#ddd44e" x="160" y="0" width="5" height="50"/><rect fill="#7edebd" x="165" y="0" width="5" height="50"/><rect fill="#e08d3e" x="170" y="0" width="5" height="50"/><rect fill="#e09b5b" x="175" y="0" width="5" height="50"/><rect fill="#84e19f" x="180" y="0" width="5" height="50"/><rect fill="#36e1a0" x="185" y="0" width="5" height="50"/><rect fill="#e2a76e" x="190" y="0" width="5" height="50"/><rect fill="#67e497" x="195" y="0" width="5" height="50"/><rect fill="#e4ba7d" x="200" y="0" width="5" height="50"/><rect fill="#e4e184" x="205" y="0" width="5" height="50"/><rect fill="#72e4b5" x="210" y="0" width="5" height="50"/><rect fill="#e4b173" x="215" y="0" width="5" height="50"/><rect fill="#e4de36" x="220" y="0" width="5" height="50"/><rect fill="#e5c049" x="225" y="0" width="5" height="50"/><rect fill="#80e596" x="230" y="0" width="5" height="50"/><rect fill="#32e5b0" x="235" y="0" width="5" height="50"/><rect fill="#e5ab42" x="240" y="0" width="5" height="50"/><rect fill="#e5993d" x="245" y="0" width="5" height="50"/><rect fill="#3ae668" x="250" y="0" width="5" height="50"/><rect fill="#e6ad65" x="255" y="0" width="5" height="50"/><rect fill="#e6ae7a" x="260" y="0" width="5" height="50"/><rect fill="#7ae79d" x="265" y="0" width="5" height="50"/><rect fill="#e7ac3e" x="270" y="0" width="5" height="50"/><rect fill="#37e766" x="275" y="0" width="5" height="50"/><rect fill="#e8b788" x="280" y="0" width="5" height="50"/><rect fill="#40e886" x="285" y="0" width="5" height="50"/><rect fill="#e8e96e" x="290" y="0" width="5" height="50"/><rect fill="#e9ce8a" x="295" y="0" width="5" height="50"/><rect fill="#e9b638" x="300" y="0" width="5" height="50"/><rect fill="#e9c24e" x="305" y="0" width="5" height="50"/><rect fill="#eada63" x="310" y="0" width="5" height="50"/><rect fill="#6aebc3" x="315" y="0" width="5" height="50"/><rect fill="#ebaf5e" x="320" y="0" width="5" height="50"/><rect fill="#ecba6f" x="325" y="0" width="5" height="50"/><rect fill="#ec8f31" x="330" y="0" width="5" height="50"/><rect fill="#edd23d" x="335" y="0" width="5" height="50"/><rect fill="#3ced6e" x="340" y="0" width="5" height="50"/><rect fill="#edbe7c" x="345" y="0" width="5" height="50"/><rect fill="#eda842" x="350" y="0" width="5" height="50"/><rect fill="#46eec6" x="355" y="0" width="5" height="50"/><rect fill="#5bef93" x="360" y="0" width="5" height="50"/><rect fill="#efe73f" x="365" y="0" width="5" height="50"/><rect fill="#f0e151" x="370" y="0" width="5" height="50"/><rect fill="#f1f17a" x="375" y="0" width="5" height="50"/><rect fill="#f2f27d" x="380" y="0" width="5" height="50"/><rect fill="#39f2b4" x="385" y="0" width="5" height="50"/><rect fill="#f3bf48" x="390" y="0" width="5" height="50"/><rect fill="#6df4c2" x="395" y="0" width="5" height="50"/><rect fill="#37f464" x="400" y="0" width="5" height="50"/><rect fill="#38f460" x="405" y="0" width="5" height="50"/><rect fill="#4ef4a8" x="410" y="0" width="5" height="50"/><rect fill="#f5bb6d" x="415" y="0" width="5" height="50"/><rect fill="#f5b84c" x="420" y="0" width="5" height="50"/><rect fill="#f6e03d" x="425" y="0" width="5" height="50"/><rect fill="#37f792" x="430" y="0" width="5" height="50"/><rect fill="#f7cc41" x="435" y="0" width="5" height="50"/><rect fill="#f89037" x="440" y="0" width="5" height="50"/><rect fill="#f8c156" x="445" y="0" width="5" height="50"/><rect fill="#7ef8da" x="450" y="0" width="5" height="50"/><rect fill="#f9b23a" x="455" y="0" width="5" height="50"/><rect fill="#6ffbaf" x="460" y="0" width="5" height="50"/><rect fill="#37fb9f" x="465" y="0" width="5" height="50"/><rect fill="#fbd338" x="470" y="0" width="5" height="50"/><rect fill="#fbdd50" x="475" y="0" width="5" height="50"/><rect fill="#5bfc8f" x="480" y="0" width="5" height="50"/><rect fill="#7efca8" x="485" y="0" width="5" height="50"/><rect fill="#4bfd92" x="490" y="0" width="5" height="50"/><rect fill="#93ffb5" x="495" y="0" width="5" height="50"/></g></svg>