<svg version="1.1" xmlns="http://www.w3.org/2000/svg" xmlns:xlink="http://www.w3.org/1999/xlink" width="500" height="50"><g><rect fill="#d8120f" x="0" y="0" width="5" height="50"/><rect fill="#fb302b" x="5" y="0" width="5" height="50"/><rect fill="#f02d20" x="10" y="0" width="5" height="50"/><rect fill="#ef2a0e" x="15" y="0" width="5" height="50"/><rect fill="#ea401c" x="20" y="0" width="5" height="50"/><rect fill="#de3611" x="25" y="0" width="5" height="50"/><rect fill="#ec3d01" x="30" y="0" width="5" height="50"/><rect fill="#e85716" x="35" y="0" width="5" height="50"/><rect fill="#da6029" x="40" y="0" width="5" height="50"/><rect fill="#dd5e10" x="45" y="0" width="5" height="50"/><rect fill="#d77129" x="50" y="0" width="5" height="50"/><rect fill="#da6b08" x="55" y="0" width="5" height="50"/><rect fill="#e47301" x="60" y="0" width="5" height="50"/><rect fill="#cc8421" x="65" y="0" width="5" height="50"/><rect fill="#fab812" x="70" y="0" width="5" height="50"/><rect fill="#e7c52c" x="75" y="0" width="5" height="50"/><rect fill="#f8d00b" x="80" y="0" width="5" height="50"/><rect fill="#e3c501" x="85" y="0" width="5" height="50"/><rect fill="#fce029" x="90" y="0" width="5" height="50"/><rect fill="#e8e51c" x="95" y="0" width="5" height="50"/><rect fill="#f0ee1a" x="100" y="0" width="5" height="50"/><rect fill="#f7f608" x="105" y="0" width="5" height="50"/><rect fill="#d4d528" x="110" y="0" width="5" height="50"/><rect fill="#e6f10d" x="115" y="0" width="5" height="50"/><rect fill="#dced14" x="120" y="0" width="5" height="50"/><rect fill="#c4d70e" x="125" y="0" width="5" height="50"/><rect fill="#d8f60b" x="130" y="0" width="5" height="50"/><rect fill="#b5d21f" x="135" y="0" width="5" height="50"/><rect fill="#b7f013" x="140" y="0" width="5" height="50"/><rect fill="#b9fe02" x="145" y="0" width="5" height="50"/><rect fill="#9adb2a" x="150" y="0" width="5" height="50"/><rect fill="#a9f730" x="155" y="0" width="5" height="50"/><rect fill="#98fa1f" x="160" y="0" width="5" height="50"/><rect fill="#76ee0f" x="165" y="0" width="5" height="50"/><rect fill="#7bf616" x="170" y="0" width="5" height="50"/><rect fill="#61e906" x="175" y="0" width="5" height="50"/><rect fill="#56d40b" x="180" y="0" width="5" height="50"/><rect fill="#5cf800" x="185" y="0" width="5" height="50"/><rect fill="#6bf530" x="190" y="0" width="5" height="50"/><rect fill="#57da1e" x="195" y="0" width="5" height="50"/><rect fill="#57fe30" x="200" y="0" width="5" height="50"/><rect fill="#3fd823" x="205" y="0" width="5" height="50"/><rect fill="#44e72c" x="210" y="0" width="5" height="50"/><rect fill="#39e424" x="215" y="0" width="5" height="50"/><rect fill="#17ee20" x="220" y="0" width="5" height="50"/><rect fill="#02ef56" x="225" y="0" width="5" height="50"/><rect fill="#0ce05a" x="230" y="0" width="5" height="50"/><rect fill="#0df567" x="235" y="0" width="5" height="50"/><rect fill="#0ae57d" x="240" y="0" width="5" height="50"/><rect fill="#1ade85" x="245" y="0" width="5" height="50"/><rect fill="#20e79c" x="250" y="0" width="5" height="50"/><rect fill="#15f2ab" x="255" y="0" width="5" height="50"/><rect fill="#21cc9c" x="260" y="0" width="5" height="50"/><rect fill="#04fbbf" x="265" y="0" width="5" height="50"/><rect fill="#09dbcd" x="270" y="0" width="5" height="50"/><rect fill="#09d1d0" x="275" y="0" width="5" height="50"/><rect fill="#1cbedc" x="280" y="0" width="5" height="50"/><rect fill="#2fc2f3" x="285" y="0" width="5" height="50"/><rect fill="#09a5f5" x="290" y="0" width="5" height="50"/><rect fill="#0b96fb" x="295" y="0" width="5" height="50"/><rect fill="#278de6" x="300" y="0" width="5" height="50"/><rect fill="#2159d2" x="305" y="0" width="5" height="50"/><rect fill="#003edd" x="310" y="0" width="5" height="50"/><rect fill="#0512ff" x="315" y="0" width="5" height="50"/><rect fill="#261ee0" x="320" y="0" width="5" height="50"/><rect fill="#2217df" x="325" y="0" width="5" height="50"/><rect fill="#2003da" x="330" y="0" width="5" height="50"/><rect fill="#4014dd" x="335" y="0" width="5" height="50"/><rect fill="#5918cd" x="340" y="0" width="5" height="50"/><rect fill="#6820d0" x="345" y="0" width="5" height="50"/><rect fill="#6c17d7" x="350" y="0" width="5" height="50"/><rect fill="#7a26d4" x="355" y="0" width="5" height="50"/><rect fill="#9412e9" x="360" y="0" width="5" height="50"/><rect fill="#a20cdc" x="365" y="0" width="5" height="50"/><rect fill="#a506dc" x="370" y="0" width="5" height="50"/><rect fill="#a60ed8" x="375" y="0" width="5" height="50"/><rect fill="#b820d3" x="380" y="0" width="5" height="50"/><rect fill="#ce11ee" x="385" y="0" width="5" height="50"/><rect fill="#ba14d6" x="390" y="0" width="5" height="50"/><rect fill="#c219d7" x="395" y="0" width="5" height="50"/><rect fill="#e512de" x="400" y="0" width="5" height="50"/><rect fill="#fc1ced" x="405" y="0" width="5" height="50"/><rect fill="#f731e6" x="410" y="0" width="5" height="50"/><rect fill="#d921c4" x="415" y="0" width="5" height="50"/><rect fill="#cf0e90" x="420" y="0" width="5" height="50"/><rect fill="#ea1aa2" x="425" y="0" width="5" height="50"/><rect fill="#e2097e" x="430" y="0" width="5" height="50"/><rect fill="#ea117f" x="435" y="0" width="5" height="50"/><rect fill="#ee0578" x="440" y="0" width="5" height="50"/><rect fill="#d12571" x="445" y="0" width="5" height="50"/><rect fill="#fa257f" x="450" y="0" width="5" height="50"/><rect fill="#df1e6a" x="455" y="0" width="5" height="50"/><rect fill="#e4256f" x="460" y="0" width="5" height="50"/><rect fill="#cd0543" x="465" y="0" width="5" height="50"/><rect fill="#e20146" x="470" y="0" width="5" height="50"/><rect fill="#e42b62" x="475" y="0" width="5" height="50"/><rect fill="#ef214d" x="480" y="0" width="5" height="50"/><rect fill="#f02651" x="485" y="0" width="5" height="50"/><rect fill="#cc0427" x="490" y="0" width="5" height="50"/><rect fill="#fe1217" x="495" y="0" width="5" height="50"/></g></svg>