<svg version="1.1" xmlns="http://www.w3.org/2000/svg" xmlns:xlink="http://www.w3.org/1999/xlink" width="500" height="50"><g><rect fill="#100048" x="0" y="0" width="5" height="50"/><rect fill="#200055" x="5" y="0" width="5" height="50"/><rect fill="#2f0066" x="10" y="0" width="5" height="50"/><rect fill="#3d0079" x="15" y="0" width="5" height="50"/><rect fill="#490090" x="20" y="0" width="5" height="50"/><rect fill="#5400aa" x="25" y="0" width="5" height="50"/><rect fill="#5d00c6" x="30" y="0" width="5" height="50"/><rect fill="#6400e3" x="35" y="0" width="5" height="50"/><rect fill="#6a00ff" x="40" y="0" width="5" height="50"/><rect fill="#6f00ff" x="45" y="0" width="5" height="50"/><rect fill="#7500ff" x="50" y="0" width="5" height="50"/><rect fill="#7c00ff" x="55" y="0" width="5" height="50"/><rect fill="#8500ff" x="60" y="0" width="5" height="50"/><rect fill="#8d00ff" x="65" y="0" width="5" height="50"/><rect fill="#8c00ff" x="70" y="0" width="5" height="50"/><rect fill="#8600ff" x="75" y="0" width="5" height="50"/><rect fill="#7c00ff" x="80" y="0" width="5" height="50"/><rect fill="#6f00ff" x="85" y="0" width="5" height="50"/><rect fill="#5d00ff" x="90" y="0" width="5" height="50"/><rect fill="#4100ff" x="95" y="0" width="5" height="50"/><rect fill="#0000ff" x="100" y="0" width="5" height="50"/><rect fill="#0000ff" x="105" y="0" width="5" height="50"/><rect fill="#0000ff" x="110" y="0" width="5" height="50"/><rect fill="#0028ff" x="115" y="0" width="5" height="50"/><rect fill="#0049ff" x="120" y="0" width="5" height="50"/><rect fill="#005eff" x="125" y="0" width="5" height="50"/><rect fill="#0070f7" x="130" y="0" width="5" height="50"/><rect fill="#0080e5" x="135" y="0" width="5" height="50"/><rect fill="#008ed4" x="140" y="0" width="5" height="50"/><rect fill="#009bc3" x="145" y="0" width="5" height="50"/><rect fill="#00a7b3" x="150" y="0" width="5" height="50"/><rect fill="#00b3a4" x="155" y="0" width="5" height="50"/><rect fill="#00bf95" x="160" y="0" width="5" height="50"/><rect fill="#00cb86" x="165" y="0" width="5" height="50"/><rect fill="#00d777" x="170" y="0" width="5" height="50"/><rect fill="#00e367" x="175" y="0" width="5" height="50"/><rect fill="#00ef55" x="180" y="0" width="5" height="50"/><rect fill="#00fb40" x="185" y="0" width="5" height="50"/><rect fill="#00ff1f" x="190" y="0" width="5" height="50"/><rect fill="#00ff00" x="195" y="0" width="5" height="50"/><rect fill="#00ff00" x="200" y="0" width="5" height="50"/><rect fill="#00ff00" x="205" y="0" width="5" height="50"/><rect fill="#00ff00" x="210" y="0" width="5" height="50"/><rect fill="#00ff00" x="215" y="0" width="5" height="50"/><rect fill="#00ff00" x="220" y="0" width="5" height="50"/><rect fill="#00ff00" x="225" y="0" width="5" height="50"/><rect fill="#00ff00" x="230" y="0" width="5" height="50"/><rect fill="#00ff00" x="235" y="0" width="5" height="50"/><rect fill="#00ff00" x="240" y="0" width="5" height="50"/><rect fill="#00ff00" x="245" y="0" width="5" height="50"/><rect fill="#00ff00" x="250" y="0" width="5" height="50"/><rect fill="#30ff00" x="255" y="0" width="5" height="50"/><rect fill="#7aff00" x="260" y="0" width="5" height="50"/><rect fill="#a4ff00" x="265" y="0" width="5" height="50"/><rect fill="#c4ff00" x="270" y="0" width="5" height="50"/><rect fill="#dfff00" x="275" y="0" width="5" height="50"/><rect fill="#f6ff00" x="280" y="0" width="5" height="50"/><rect fill="#ffff00" x="285" y="0" width="5" height="50"/><rect fill="#fff600" x="290" y="0" width="5" height="50"/><rect fill="#ffeb00" x="295" y="0" width="5" height="50"/><rect fill="#ffe000" x="300" y="0" width="5" height="50"/><rect fill="#ffd300" x="305" y="0" width="5" height="50"/><rect fill="#ffc500" x="310" y="0" width="5" height="50"/><rect fill="#ffb700" x="315" y="0" width="5" height="50"/><rect fill="#ffa600" x="320" y="0" width="5" height="50"/><rect fill="#ff9400" x="325" y="0" width="5" height="50"/><rect fill="#ff8100" x="330" y="0" width="5" height="50"/><rect fill="#ff6900" x="335" y="0" width="5" height="50"/><rect fill="#ff4e00" x="340" y="0" width="5" height="50"/><rect fill="#ff2400" x="345" y="0" width="5" height="50"/><rect fill="#ff0000" x="350" y="0" width="5" height="50"/><rect fill="#ff0000" x="355" y="0" width="5" height="50"/><rect fill="#ff0000" x="360" y="0" width="5" height="50"/><rect fill="#ff0000" x="365" y="0" width="5" height="50"/><rect fill="#ff0000" x="370" y="0" width="5" height="50"/><rect fill="#ff0000" x="375" y="0" width="5" height="50"/><rect fill="#ff0000" x="380" y="0" width="5" height="50"/><rect fill="#ff0000" x="385" y="0" width="5" height="50"/><rect fill="#ff0000" x="390" y="0" width="5" height="50"/><rect fill="#ff0000" x="395" y="0" width="5" height="50"/><rect fill="#ff0000" x="400" y="0" width="5" height="50"/><rect fill="#ff0000" x="405" y="0" width="5" height="50"/><rect fill="#f60000" x="410" y="0" width="5" height="50"/><rect fill="#e60000" x="415" y="0" width="5" height="50"/><rect fill="#d60000" x="420" y="0" width="5" height="50"/><rect fill="#c70000" x="425" y="0" width="5" height="50"/><rect fill="#b70000" x="430" y="0" width="5" height="50"/><rect fill="#a80000" x="435" y="0" width="5" height="50"/><rect fill="#9a0000" x="440" y="0" width="5" height="50"/><rect fill="#8b0000" x="445" y="0" width="5" height="50"/><rect fill="#7e0000" x="450" y="0" width="5" height="50"/><rect fill="#710000" x="455" y="0" width="5" height="50"/><rect fill="#650000" x="460" y="0" width="5" height="50"/><rect fill="#590000" x="465" y="0" width="5" height="50"/><rect fill="#4e0200" x="470" y="0" width="5" height="50"/><rect fill="#440600" x="475" y="0" width="5" height="50"/><rect fill="#3b0800" x="480" y="0" width="5" height="50"/><rect fill="#320900" x="485" y="0" width="5" height="50"/><rect fill="#2a0900" x="490" y="0" width="5" height="50"/><rect fill="#230900" x="495" y="0" width="5" height="50"/></g></svg>