<svg version="1.1" xmlns="http://www.w3.org/2000/svg" xmlns:xlink="http://www.w3.org/1999/xlink" width="318" height="263.33"><g transform="translate(24 24)"><circle fill="#18132c" cx="0" cy="0" r="24"/><circle fill="#492f5e" cx="53" cy="0" r="24"/><circle fill="#775692" cx="106" cy="0" r="24"/><circle fill="#bf89bb" cx="159" cy="0" r="24"/><circle fill="#ecb1d0" cx="212" cy="0" r="24"/><circle fill="#fbd0c8" cx="265" cy="0" r="24"/></g><g transform="translate(0 53)"><rect fill="#18132c" x="0" y="0" width="102.67" height="102.67"/><circle fill="#492f5e" cx="30.80" cy="25.67" r="20.53"/><circle fill="#775692" cx="61.60" cy="46.20" r="30.80"/><circle fill="#bf89bb" cx="35.93" cy="71.87" r="25.67"/><circle fill="#ecb1d0" cx="71.87" cy="71.87" r="20.53"/><circle fill="#fbd0c8" cx="61.60" cy="51.33" r="12.83"/></g><g transform="translate(107.67 53)"><rect fill="#492f5e" x="0" y="0" width="102.67" height="102.67"/><circle fill="#775692" cx="30.80" cy="25.67" r="20.53"/><circle fill="#bf89bb" cx="61.60" cy="46.20" r="30.80"/><circle fill="#ecb1d0" cx="35.93" cy="71.87" r="25.67"/><circle fill="#fbd0c8" cx="71.87" cy="71.87" r="20.53"/><circle fill="#18132c" cx="61.60" cy="51.33" r="12.83"/></g><g transform="translate(215.33 53)"><rect fill="#775692" x="0" y="0" width="102.67" height="102.67"/><circle fill="#bf89bb" cx="30.80" cy="25.67" r="20.53"/><circle fill="#ecb1d0" cx="61.60" cy="46.20" r="30.80"/><circle fill="#fbd0c8" cx="35.93" cy="71.87" r="25.67"/><circle fill="#18132c" cx="71.87" cy="71.87" r="20.53"/><circle fill="#492f5e" cx="61.60" cy="51.33" r="12.83"/></g><g transform="translate(0 160.67)"><rect fill="#bf89bb" x="0" y="0" width="102.67" height="102.67"/><circle fill="#ecb1d0" cx="30.80" cy="25.67" r="20.53"/><circle fill="#fbd0c8" cx="61.60" cy="46.20" r="30.80"/><circle fill="#18132c" cx="35.93" cy="71.87" r="25.67"/><circle fill="#492f5e" cx="71.87" cy="71.87" r="20.53"/><circle fill="#775692" cx="61.60" cy="51.33" r="12.83"/></g><g transform="translate(107.67 160.67)"><rect fill="#ecb1d0" x="0" y="0" width="102.67" height="102.67"/><circle fill="#fbd0c8" cx="30.80" cy="25.67" r="20.53"/><circle fill="#18132c" cx="61.60" cy="46.20" r="30.80"/><circle fill="#492f5e" cx="35.93" cy="71.87" r="25.67"/><circle fill="#775692" cx="71.87" cy="71.87" r="20.53"/><circle fill="#bf89bb" cx="61.60" cy="51.33" r="12.83"/></g><g transform="translate(215.33 160.67)"><rect fill="#fbd0c8" x="0" y="0" width="102.67" height="102.67"/><circle fill="#18132c" cx="30.80" cy="25.67" r="20.53"/><circle fill="#492f5e" cx="61.60" cy="46.20" r="30.80"/><circle fill="#775692" cx="35.93" cy="71.87" r="25.67"/><circle fill="#bf89bb" cx="71.87" cy="71.87" r="20.53"/><circle fill="#ecb1d0" cx="61.60" cy="51.33" r="12.83"/></g></svg>