<svg version="1.1" xmlns="http://www.w3.org/2000/svg" xmlns:xlink="http://www.w3.org/1999/xlink" width="318" height="263.33"><g transform="translate(24 24)"><circle fill="#dbb98e" cx="0" cy="0" r="24"/><circle fill="#9e8f52" cx="53" cy="0" r="24"/><circle fill="#607630" cx="106" cy="0" r="24"/><circle fill="#2c4c1c" cx="159" cy="0" r="24"/><circle fill="#0d6176" cx="212" cy="0" r="24"/><circle fill="#589cb4" cx="265" cy="0" r="24"/></g><g transform="translate(0 53)"><rect fill="#dbb98e" x="0" y="0" width="102.67" height="102.67"/><circle fill="#9e8f52" cx="30.80" cy="25.67" r="20.53"/><circle fill="#607630" cx="61.60" cy="46.20" r="30.80"/><circle fill="#2c4c1c" cx="35.93" cy="71.87" r="25.67"/><circle fill="#0d6176" cx="71.87" cy="71.87" r="20.53"/><circle fill="#589cb4" cx="61.60" cy="51.33" r="12.83"/></g><g transform="translate(107.67 53)"><rect fill="#9e8f52" x="0" y="0" width="102.67" height="102.67"/><circle fill="#607630" cx="30.80" cy="25.67" r="20.53"/><circle fill="#2c4c1c" cx="61.60" cy="46.20" r="30.80"/><circle fill="#0d6176" cx="35.93" cy="71.87" r="25.67"/><circle fill="#589cb4" cx="71.87" cy="71.87" r="20.53"/><circle fill="#dbb98e" cx="61.60" cy="51.33" r="12.83"/></g><g transform="translate(215.33 53)"><rect fill="#607630" x="0" y="0" width="102.67" height="102.67"/><circle fill="#2c4c1c" cx="30.80" cy="25.67" r="20.53"/><circle fill="#0d6176" cx="61.60" cy="46.20" r="30.80"/><circle fill="#589cb4" cx="35.93" cy="71.87" r="25.67"/><circle fill="#dbb98e" cx="71.87" cy="71.87" r="20.53"/><circle fill="#9e8f52" cx="61.60" cy="51.33" r="12.83"/></g><g transform="translate(0 160.67)"><rect fill="#2c4c1c" x="0" y="0" width="102.67" height="102.67"/><circle fill="#0d6176" cx="30.80" cy="25.67" r="20.53"/><circle fill="#589cb4" cx="61.60" cy="46.20" r="30.80"/><circle fill="#dbb98e" cx="35.93" cy="71.87" r="25.67"/><circle fill="#9e8f52" cx="71.87" cy="71.87" r="20.53"/><circle fill="#607630" cx="61.60" cy="51.33" r="12.83"/></g><g transform="translate(107.67 160.67)"><rect fill="#0d6176" x="0" y="0" width="102.67" height="102.67"/><circle fill="#589cb4" cx="30.80" cy="25.67" r="20.53"/><circle fill="#dbb98e" cx="61.60" cy="46.20" r="30.80"/><circle fill="#9e8f52" cx="35.93" cy="71.87" r="25.67"/><circle fill="#607630" cx="71.87" cy="71.87" r="20.53"/><circle fill="#2c4c1c" cx="61.60" cy="51.33" r="12.83"/></g><g transform="translate(215.33 160.67)"><rect fill="#589cb4" x="0" y="0" width="102.67" height="102.67"/><circle fill="#dbb98e" cx="30.80" cy="25.67" r="20.53"/><circle fill="#9e8f52" cx="61.60" cy="46.20" r="30.80"/><circle fill="#607630" cx="35.93" cy="71.87" r="25.67"/><circle fill="#2c4c1c" cx="71.87" cy="71.87" r="20.53"/><circle fill="#0d6176" cx="61.60" cy="51.33" r="12.83"/></g></svg>