<svg version="1.1" xmlns="http://www.w3.org/2000/svg" xmlns:xlink="http://www.w3.org/1999/xlink" width="318" height="263.33"><g transform="translate(24 24)"><circle fill="#502527" cx="0" cy="0" r="24"/><circle fill="#366974" cx="53" cy="0" r="24"/><circle fill="#d93d0f" cx="106" cy="0" r="24"/><circle fill="#fc8b1e" cx="159" cy="0" r="24"/><circle fill="#efa481" cx="212" cy="0" r="24"/><circle fill="#f2ebe5" cx="265" cy="0" r="24"/></g><g transform="translate(0 53)"><rect fill="#502527" x="0" y="0" width="102.67" height="102.67"/><circle fill="#366974" cx="30.80" cy="25.67" r="20.53"/><circle fill="#d93d0f" cx="61.60" cy="46.20" r="30.80"/><circle fill="#fc8b1e" cx="35.93" cy="71.87" r="25.67"/><circle fill="#efa481" cx="71.87" cy="71.87" r="20.53"/><circle fill="#f2ebe5" cx="61.60" cy="51.33" r="12.83"/></g><g transform="translate(107.67 53)"><rect fill="#366974" x="0" y="0" width="102.67" height="102.67"/><circle fill="#d93d0f" cx="30.80" cy="25.67" r="20.53"/><circle fill="#fc8b1e" cx="61.60" cy="46.20" r="30.80"/><circle fill="#efa481" cx="35.93" cy="71.87" r="25.67"/><circle fill="#f2ebe5" cx="71.87" cy="71.87" r="20.53"/><circle fill="#502527" cx="61.60" cy="51.33" r="12.83"/></g><g transform="translate(215.33 53)"><rect fill="#d93d0f" x="0" y="0" width="102.67" height="102.67"/><circle fill="#fc8b1e" cx="30.80" cy="25.67" r="20.53"/><circle fill="#efa481" cx="61.60" cy="46.20" r="30.80"/><circle fill="#f2ebe5" cx="35.93" cy="71.87" r="25.67"/><circle fill="#502527" cx="71.87" cy="71.87" r="20.53"/><circle fill="#366974" cx="61.60" cy="51.33" r="12.83"/></g><g transform="translate(0 160.67)"><rect fill="#fc8b1e" x="0" y="0" width="102.67" height="102.67"/><circle fill="#efa481" cx="30.80" cy="25.67" r="20.53"/><circle fill="#f2ebe5" cx="61.60" cy="46.20" r="30.80"/><circle fill="#502527" cx="35.93" cy="71.87" r="25.67"/><circle fill="#366974" cx="71.87" cy="71.87" r="20.53"/><circle fill="#d93d0f" cx="61.60" cy="51.33" r="12.83"/></g><g transform="translate(107.67 160.67)"><rect fill="#efa481" x="0" y="0" width="102.67" height="102.67"/><circle fill="#f2ebe5" cx="30.80" cy="25.67" r="20.53"/><circle fill="#502527" cx="61.60" cy="46.20" r="30.80"/><circle fill="#366974" cx="35.93" cy="71.87" r="25.67"/><circle fill="#d93d0f" cx="71.87" cy="71.87" r="20.53"/><circle fill="#fc8b1e" cx="61.60" cy="51.33" r="12.83"/></g><g transform="translate(215.33 160.67)"><rect fill="#f2ebe5" x="0" y="0" width="102.67" height="102.67"/><circle fill="#502527" cx="30.80" cy="25.67" r="20.53"/><circle fill="#366974" cx="61.60" cy="46.20" r="30.80"/><circle fill="#d93d0f" cx="35.93" cy="71.87" r="25.67"/><circle fill="#fc8b1e" cx="71.87" cy="71.87" r="20.53"/><circle fill="#efa481" cx="61.60" cy="51.33" r="12.83"/></g></svg>