<svg version="1.1" xmlns="http://www.w3.org/2000/svg" xmlns:xlink="http://www.w3.org/1999/xlink" width="318" height="263.33"><g transform="translate(24 24)"><circle fill="#15253c" cx="0" cy="0" r="24"/><circle fill="#552f34" cx="53" cy="0" r="24"/><circle fill="#8f1f21" cx="106" cy="0" r="24"/><circle fill="#7a6574" cx="159" cy="0" r="24"/><circle fill="#b0a0b3" cx="212" cy="0" r="24"/><circle fill="#d1e6ed" cx="265" cy="0" r="24"/></g><g transform="translate(0 53)"><rect fill="#15253c" x="0" y="0" width="102.67" height="102.67"/><circle fill="#552f34" cx="30.80" cy="25.67" r="20.53"/><circle fill="#8f1f21" cx="61.60" cy="46.20" r="30.80"/><circle fill="#7a6574" cx="35.93" cy="71.87" r="25.67"/><circle fill="#b0a0b3" cx="71.87" cy="71.87" r="20.53"/><circle fill="#d1e6ed" cx="61.60" cy="51.33" r="12.83"/></g><g transform="translate(107.67 53)"><rect fill="#552f34" x="0" y="0" width="102.67" height="102.67"/><circle fill="#8f1f21" cx="30.80" cy="25.67" r="20.53"/><circle fill="#7a6574" cx="61.60" cy="46.20" r="30.80"/><circle fill="#b0a0b3" cx="35.93" cy="71.87" r="25.67"/><circle fill="#d1e6ed" cx="71.87" cy="71.87" r="20.53"/><circle fill="#15253c" cx="61.60" cy="51.33" r="12.83"/></g><g transform="translate(215.33 53)"><rect fill="#8f1f21" x="0" y="0" width="102.67" height="102.67"/><circle fill="#7a6574" cx="30.80" cy="25.67" r="20.53"/><circle fill="#b0a0b3" cx="61.60" cy="46.20" r="30.80"/><circle fill="#d1e6ed" cx="35.93" cy="71.87" r="25.67"/><circle fill="#15253c" cx="71.87" cy="71.87" r="20.53"/><circle fill="#552f34" cx="61.60" cy="51.33" r="12.83"/></g><g transform="translate(0 160.67)"><rect fill="#7a6574" x="0" y="0" width="102.67" height="102.67"/><circle fill="#b0a0b3" cx="30.80" cy="25.67" r="20.53"/><circle fill="#d1e6ed" cx="61.60" cy="46.20" r="30.80"/><circle fill="#15253c" cx="35.93" cy="71.87" r="25.67"/><circle fill="#552f34" cx="71.87" cy="71.87" r="20.53"/><circle fill="#8f1f21" cx="61.60" cy="51.33" r="12.83"/></g><g transform="translate(107.67 160.67)"><rect fill="#b0a0b3" x="0" y="0" width="102.67" height="102.67"/><circle fill="#d1e6ed" cx="30.80" cy="25.67" r="20.53"/><circle fill="#15253c" cx="61.60" cy="46.20" r="30.80"/><circle fill="#552f34" cx="35.93" cy="71.87" r="25.67"/><circle fill="#8f1f21" cx="71.87" cy="71.87" r="20.53"/><circle fill="#7a6574" cx="61.60" cy="51.33" r="12.83"/></g><g transform="translate(215.33 160.67)"><rect fill="#d1e6ed" x="0" y="0" width="102.67" height="102.67"/><circle fill="#15253c" cx="30.80" cy="25.67" r="20.53"/><circle fill="#552f34" cx="61.60" cy="46.20" r="30.80"/><circle fill="#8f1f21" cx="35.93" cy="71.87" r="25.67"/><circle fill="#7a6574" cx="71.87" cy="71.87" r="20.53"/><circle fill="#b0a0b3" cx="61.60" cy="51.33" r="12.83"/></g></svg>