<svg version="1.1" xmlns="http://www.w3.org/2000/svg" xmlns:xlink="http://www.w3.org/1999/xlink" width="318" height="263.33"><g transform="translate(24 24)"><circle fill="#60281b" cx="0" cy="0" r="24"/><circle fill="#a34236" cx="53" cy="0" r="24"/><circle fill="#f1612f" cx="106" cy="0" r="24"/><circle fill="#cb9876" cx="159" cy="0" r="24"/><circle fill="#ebd8be" cx="212" cy="0" r="24"/><circle fill="#788e26" cx="265" cy="0" r="24"/></g><g transform="translate(0 53)"><rect fill="#60281b" x="0" y="0" width="102.67" height="102.67"/><circle fill="#a34236" cx="30.80" cy="25.67" r="20.53"/><circle fill="#f1612f" cx="61.60" cy="46.20" r="30.80"/><circle fill="#cb9876" cx="35.93" cy="71.87" r="25.67"/><circle fill="#ebd8be" cx="71.87" cy="71.87" r="20.53"/><circle fill="#788e26" cx="61.60" cy="51.33" r="12.83"/></g><g transform="translate(107.67 53)"><rect fill="#a34236" x="0" y="0" width="102.67" height="102.67"/><circle fill="#f1612f" cx="30.80" cy="25.67" r="20.53"/><circle fill="#cb9876" cx="61.60" cy="46.20" r="30.80"/><circle fill="#ebd8be" cx="35.93" cy="71.87" r="25.67"/><circle fill="#788e26" cx="71.87" cy="71.87" r="20.53"/><circle fill="#60281b" cx="61.60" cy="51.33" r="12.83"/></g><g transform="translate(215.33 53)"><rect fill="#f1612f" x="0" y="0" width="102.67" height="102.67"/><circle fill="#cb9876" cx="30.80" cy="25.67" r="20.53"/><circle fill="#ebd8be" cx="61.60" cy="46.20" r="30.80"/><circle fill="#788e26" cx="35.93" cy="71.87" r="25.67"/><circle fill="#60281b" cx="71.87" cy="71.87" r="20.53"/><circle fill="#a34236" cx="61.60" cy="51.33" r="12.83"/></g><g transform="translate(0 160.67)"><rect fill="#cb9876" x="0" y="0" width="102.67" height="102.67"/><circle fill="#ebd8be" cx="30.80" cy="25.67" r="20.53"/><circle fill="#788e26" cx="61.60" cy="46.20" r="30.80"/><circle fill="#60281b" cx="35.93" cy="71.87" r="25.67"/><circle fill="#a34236" cx="71.87" cy="71.87" r="20.53"/><circle fill="#f1612f" cx="61.60" cy="51.33" r="12.83"/></g><g transform="translate(107.67 160.67)"><rect fill="#ebd8be" x="0" y="0" width="102.67" height="102.67"/><circle fill="#788e26" cx="30.80" cy="25.67" r="20.53"/><circle fill="#60281b" cx="61.60" cy="46.20" r="30.80"/><circle fill="#a34236" cx="35.93" cy="71.87" r="25.67"/><circle fill="#f1612f" cx="71.87" cy="71.87" r="20.53"/><circle fill="#cb9876" cx="61.60" cy="51.33" r="12.83"/></g><g transform="translate(215.33 160.67)"><rect fill="#788e26" x="0" y="0" width="102.67" height="102.67"/><circle fill="#60281b" cx="30.80" cy="25.67" r="20.53"/><circle fill="#a34236" cx="61.60" cy="46.20" r="30.80"/><circle fill="#f1612f" cx="35.93" cy="71.87" r="25.67"/><circle fill="#cb9876" cx="71.87" cy="71.87" r="20.53"/><circle fill="#ebd8be" cx="61.60" cy="51.33" r="12.83"/></g></svg>