<svg version="1.1" xmlns="http://www.w3.org/2000/svg" xmlns:xlink="http://www.w3.org/1999/xlink" width="318" height="263.33"><g transform="translate(24 24)"><circle fill="#401918" cx="0" cy="0" r="24"/><circle fill="#9f1d1f" cx="53" cy="0" r="24"/><circle fill="#ab6868" cx="106" cy="0" r="24"/><circle fill="#d1d3d3" cx="159" cy="0" r="24"/><circle fill="#39b7b6" cx="212" cy="0" r="24"/><circle fill="#336b6b" cx="265" cy="0" r="24"/></g><g transform="translate(0 53)"><rect fill="#401918" x="0" y="0" width="102.67" height="102.67"/><circle fill="#9f1d1f" cx="30.80" cy="25.67" r="20.53"/><circle fill="#ab6868" cx="61.60" cy="46.20" r="30.80"/><circle fill="#d1d3d3" cx="35.93" cy="71.87" r="25.67"/><circle fill="#39b7b6" cx="71.87" cy="71.87" r="20.53"/><circle fill="#336b6b" cx="61.60" cy="51.33" r="12.83"/></g><g transform="translate(107.67 53)"><rect fill="#9f1d1f" x="0" y="0" width="102.67" height="102.67"/><circle fill="#ab6868" cx="30.80" cy="25.67" r="20.53"/><circle fill="#d1d3d3" cx="61.60" cy="46.20" r="30.80"/><circle fill="#39b7b6" cx="35.93" cy="71.87" r="25.67"/><circle fill="#336b6b" cx="71.87" cy="71.87" r="20.53"/><circle fill="#401918" cx="61.60" cy="51.33" r="12.83"/></g><g transform="translate(215.33 53)"><rect fill="#ab6868" x="0" y="0" width="102.67" height="102.67"/><circle fill="#d1d3d3" cx="30.80" cy="25.67" r="20.53"/><circle fill="#39b7b6" cx="61.60" cy="46.20" r="30.80"/><circle fill="#336b6b" cx="35.93" cy="71.87" r="25.67"/><circle fill="#401918" cx="71.87" cy="71.87" r="20.53"/><circle fill="#9f1d1f" cx="61.60" cy="51.33" r="12.83"/></g><g transform="translate(0 160.67)"><rect fill="#d1d3d3" x="0" y="0" width="102.67" height="102.67"/><circle fill="#39b7b6" cx="30.80" cy="25.67" r="20.53"/><circle fill="#336b6b" cx="61.60" cy="46.20" r="30.80"/><circle fill="#401918" cx="35.93" cy="71.87" r="25.67"/><circle fill="#9f1d1f" cx="71.87" cy="71.87" r="20.53"/><circle fill="#ab6868" cx="61.60" cy="51.33" r="12.83"/></g><g transform="translate(107.67 160.67)"><rect fill="#39b7b6" x="0" y="0" width="102.67" height="102.67"/><circle fill="#336b6b" cx="30.80" cy="25.67" r="20.53"/><circle fill="#401918" cx="61.60" cy="46.20" r="30.80"/><circle fill="#9f1d1f" cx="35.93" cy="71.87" r="25.67"/><circle fill="#ab6868" cx="71.87" cy="71.87" r="20.53"/><circle fill="#d1d3d3" cx="61.60" cy="51.33" r="12.83"/></g><g transform="translate(215.33 160.67)"><rect fill="#336b6b" x="0" y="0" width="102.67" height="102.67"/><circle fill="#401918" cx="30.80" cy="25.67" r="20.53"/><circle fill="#9f1d1f" cx="61.60" cy="46.20" r="30.80"/><circle fill="#ab6868" cx="35.93" cy="71.87" r="25.67"/><circle fill="#d1d3d3" cx="71.87" cy="71.87" r="20.53"/><circle fill="#39b7b6" cx="61.60" cy="51.33" r="12.83"/></g></svg>