<svg version="1.1" xmlns="http://www.w3.org/2000/svg" xmlns:xlink="http://www.w3.org/1999/xlink" width="318" height="263.33"><g transform="translate(24 24)"><circle fill="#392325" cx="0" cy="0" r="24"/><circle fill="#504d54" cx="53" cy="0" r="24"/><circle fill="#89462c" cx="106" cy="0" r="24"/><circle fill="#da5c74" cx="159" cy="0" r="24"/><circle fill="#908a92" cx="212" cy="0" r="24"/><circle fill="#e6cbce" cx="265" cy="0" r="24"/></g><g transform="translate(0 53)"><rect fill="#392325" x="0" y="0" width="102.67" height="102.67"/><circle fill="#504d54" cx="30.80" cy="25.67" r="20.53"/><circle fill="#89462c" cx="61.60" cy="46.20" r="30.80"/><circle fill="#da5c74" cx="35.93" cy="71.87" r="25.67"/><circle fill="#908a92" cx="71.87" cy="71.87" r="20.53"/><circle fill="#e6cbce" cx="61.60" cy="51.33" r="12.83"/></g><g transform="translate(107.67 53)"><rect fill="#504d54" x="0" y="0" width="102.67" height="102.67"/><circle fill="#89462c" cx="30.80" cy="25.67" r="20.53"/><circle fill="#da5c74" cx="61.60" cy="46.20" r="30.80"/><circle fill="#908a92" cx="35.93" cy="71.87" r="25.67"/><circle fill="#e6cbce" cx="71.87" cy="71.87" r="20.53"/><circle fill="#392325" cx="61.60" cy="51.33" r="12.83"/></g><g transform="translate(215.33 53)"><rect fill="#89462c" x="0" y="0" width="102.67" height="102.67"/><circle fill="#da5c74" cx="30.80" cy="25.67" r="20.53"/><circle fill="#908a92" cx="61.60" cy="46.20" r="30.80"/><circle fill="#e6cbce" cx="35.93" cy="71.87" r="25.67"/><circle fill="#392325" cx="71.87" cy="71.87" r="20.53"/><circle fill="#504d54" cx="61.60" cy="51.33" r="12.83"/></g><g transform="translate(0 160.67)"><rect fill="#da5c74" x="0" y="0" width="102.67" height="102.67"/><circle fill="#908a92" cx="30.80" cy="25.67" r="20.53"/><circle fill="#e6cbce" cx="61.60" cy="46.20" r="30.80"/><circle fill="#392325" cx="35.93" cy="71.87" r="25.67"/><circle fill="#504d54" cx="71.87" cy="71.87" r="20.53"/><circle fill="#89462c" cx="61.60" cy="51.33" r="12.83"/></g><g transform="translate(107.67 160.67)"><rect fill="#908a92" x="0" y="0" width="102.67" height="102.67"/><circle fill="#e6cbce" cx="30.80" cy="25.67" r="20.53"/><circle fill="#392325" cx="61.60" cy="46.20" r="30.80"/><circle fill="#504d54" cx="35.93" cy="71.87" r="25.67"/><circle fill="#89462c" cx="71.87" cy="71.87" r="20.53"/><circle fill="#da5c74" cx="61.60" cy="51.33" r="12.83"/></g><g transform="translate(215.33 160.67)"><rect fill="#e6cbce" x="0" y="0" width="102.67" height="102.67"/><circle fill="#392325" cx="30.80" cy="25.67" r="20.53"/><circle fill="#504d54" cx="61.60" cy="46.20" r="30.80"/><circle fill="#89462c" cx="35.93" cy="71.87" r="25.67"/><circle fill="#da5c74" cx="71.87" cy="71.87" r="20.53"/><circle fill="#908a92" cx="61.60" cy="51.33" r="12.83"/></g></svg>