<svg version="1.1" xmlns="http://www.w3.org/2000/svg" xmlns:xlink="http://www.w3.org/1999/xlink" width="318" height="263.33"><g transform="translate(24 24)"><circle fill="#97867e" cx="0" cy="0" r="24"/><circle fill="#894e29" cx="53" cy="0" r="24"/><circle fill="#d7a31a" cx="106" cy="0" r="24"/><circle fill="#f2d95b" cx="159" cy="0" r="24"/><circle fill="#dcdedb" cx="212" cy="0" r="24"/><circle fill="#92b1cb" cx="265" cy="0" r="24"/></g><g transform="translate(0 53)"><rect fill="#97867e" x="0" y="0" width="102.67" height="102.67"/><circle fill="#894e29" cx="30.80" cy="25.67" r="20.53"/><circle fill="#d7a31a" cx="61.60" cy="46.20" r="30.80"/><circle fill="#f2d95b" cx="35.93" cy="71.87" r="25.67"/><circle fill="#dcdedb" cx="71.87" cy="71.87" r="20.53"/><circle fill="#92b1cb" cx="61.60" cy="51.33" r="12.83"/></g><g transform="translate(107.67 53)"><rect fill="#894e29" x="0" y="0" width="102.67" height="102.67"/><circle fill="#d7a31a" cx="30.80" cy="25.67" r="20.53"/><circle fill="#f2d95b" cx="61.60" cy="46.20" r="30.80"/><circle fill="#dcdedb" cx="35.93" cy="71.87" r="25.67"/><circle fill="#92b1cb" cx="71.87" cy="71.87" r="20.53"/><circle fill="#97867e" cx="61.60" cy="51.33" r="12.83"/></g><g transform="translate(215.33 53)"><rect fill="#d7a31a" x="0" y="0" width="102.67" height="102.67"/><circle fill="#f2d95b" cx="30.80" cy="25.67" r="20.53"/><circle fill="#dcdedb" cx="61.60" cy="46.20" r="30.80"/><circle fill="#92b1cb" cx="35.93" cy="71.87" r="25.67"/><circle fill="#97867e" cx="71.87" cy="71.87" r="20.53"/><circle fill="#894e29" cx="61.60" cy="51.33" r="12.83"/></g><g transform="translate(0 160.67)"><rect fill="#f2d95b" x="0" y="0" width="102.67" height="102.67"/><circle fill="#dcdedb" cx="30.80" cy="25.67" r="20.53"/><circle fill="#92b1cb" cx="61.60" cy="46.20" r="30.80"/><circle fill="#97867e" cx="35.93" cy="71.87" r="25.67"/><circle fill="#894e29" cx="71.87" cy="71.87" r="20.53"/><circle fill="#d7a31a" cx="61.60" cy="51.33" r="12.83"/></g><g transform="translate(107.67 160.67)"><rect fill="#dcdedb" x="0" y="0" width="102.67" height="102.67"/><circle fill="#92b1cb" cx="30.80" cy="25.67" r="20.53"/><circle fill="#97867e" cx="61.60" cy="46.20" r="30.80"/><circle fill="#894e29" cx="35.93" cy="71.87" r="25.67"/><circle fill="#d7a31a" cx="71.87" cy="71.87" r="20.53"/><circle fill="#f2d95b" cx="61.60" cy="51.33" r="12.83"/></g><g transform="translate(215.33 160.67)"><rect fill="#92b1cb" x="0" y="0" width="102.67" height="102.67"/><circle fill="#97867e" cx="30.80" cy="25.67" r="20.53"/><circle fill="#894e29" cx="61.60" cy="46.20" r="30.80"/><circle fill="#d7a31a" cx="35.93" cy="71.87" r="25.67"/><circle fill="#f2d95b" cx="71.87" cy="71.87" r="20.53"/><circle fill="#dcdedb" cx="61.60" cy="51.33" r="12.83"/></g></svg>