<svg version="1.1" xmlns="http://www.w3.org/2000/svg" xmlns:xlink="http://www.w3.org/1999/xlink" width="318" height="263.33"><g transform="translate(24 24)"><circle fill="#3b4227" cx="0" cy="0" r="24"/><circle fill="#255c50" cx="53" cy="0" r="24"/><circle fill="#2d7663" cx="106" cy="0" r="24"/><circle fill="#788664" cx="159" cy="0" r="24"/><circle fill="#b3ad81" cx="212" cy="0" r="24"/><circle fill="#e3d6ad" cx="265" cy="0" r="24"/></g><g transform="translate(0 53)"><rect fill="#3b4227" x="0" y="0" width="102.67" height="102.67"/><circle fill="#255c50" cx="30.80" cy="25.67" r="20.53"/><circle fill="#2d7663" cx="61.60" cy="46.20" r="30.80"/><circle fill="#788664" cx="35.93" cy="71.87" r="25.67"/><circle fill="#b3ad81" cx="71.87" cy="71.87" r="20.53"/><circle fill="#e3d6ad" cx="61.60" cy="51.33" r="12.83"/></g><g transform="translate(107.67 53)"><rect fill="#255c50" x="0" y="0" width="102.67" height="102.67"/><circle fill="#2d7663" cx="30.80" cy="25.67" r="20.53"/><circle fill="#788664" cx="61.60" cy="46.20" r="30.80"/><circle fill="#b3ad81" cx="35.93" cy="71.87" r="25.67"/><circle fill="#e3d6ad" cx="71.87" cy="71.87" r="20.53"/><circle fill="#3b4227" cx="61.60" cy="51.33" r="12.83"/></g><g transform="translate(215.33 53)"><rect fill="#2d7663" x="0" y="0" width="102.67" height="102.67"/><circle fill="#788664" cx="30.80" cy="25.67" r="20.53"/><circle fill="#b3ad81" cx="61.60" cy="46.20" r="30.80"/><circle fill="#e3d6ad" cx="35.93" cy="71.87" r="25.67"/><circle fill="#3b4227" cx="71.87" cy="71.87" r="20.53"/><circle fill="#255c50" cx="61.60" cy="51.33" r="12.83"/></g><g transform="translate(0 160.67)"><rect fill="#788664" x="0" y="0" width="102.67" height="102.67"/><circle fill="#b3ad81" cx="30.80" cy="25.67" r="20.53"/><circle fill="#e3d6ad" cx="61.60" cy="46.20" r="30.80"/><circle fill="#3b4227" cx="35.93" cy="71.87" r="25.67"/><circle fill="#255c50" cx="71.87" cy="71.87" r="20.53"/><circle fill="#2d7663" cx="61.60" cy="51.33" r="12.83"/></g><g transform="translate(107.67 160.67)"><rect fill="#b3ad81" x="0" y="0" width="102.67" height="102.67"/><circle fill="#e3d6ad" cx="30.80" cy="25.67" r="20.53"/><circle fill="#3b4227" cx="61.60" cy="46.20" r="30.80"/><circle fill="#255c50" cx="35.93" cy="71.87" r="25.67"/><circle fill="#2d7663" cx="71.87" cy="71.87" r="20.53"/><circle fill="#788664" cx="61.60" cy="51.33" r="12.83"/></g><g transform="translate(215.33 160.67)"><rect fill="#e3d6ad" x="0" y="0" width="102.67" height="102.67"/><circle fill="#3b4227" cx="30.80" cy="25.67" r="20.53"/><circle fill="#255c50" cx="61.60" cy="46.20" r="30.80"/><circle fill="#2d7663" cx="35.93" cy="71.87" r="25.67"/><circle fill="#788664" cx="71.87" cy="71.87" r="20.53"/><circle fill="#b3ad81" cx="61.60" cy="51.33" r="12.83"/></g></svg>