<svg version="1.1" xmlns="http://www.w3.org/2000/svg" xmlns:xlink="http://www.w3.org/1999/xlink" width="318" height="263.33"><g transform="translate(24 24)"><circle fill="#6f402c" cx="0" cy="0" r="24"/><circle fill="#ac3038" cx="53" cy="0" r="24"/><circle fill="#ad796b" cx="106" cy="0" r="24"/><circle fill="#c9b4a2" cx="159" cy="0" r="24"/><circle fill="#cbcbc2" cx="212" cy="0" r="24"/><circle fill="#ebe3d8" cx="265" cy="0" r="24"/></g><g transform="translate(0 53)"><rect fill="#6f402c" x="0" y="0" width="102.67" height="102.67"/><circle fill="#ac3038" cx="30.80" cy="25.67" r="20.53"/><circle fill="#ad796b" cx="61.60" cy="46.20" r="30.80"/><circle fill="#c9b4a2" cx="35.93" cy="71.87" r="25.67"/><circle fill="#cbcbc2" cx="71.87" cy="71.87" r="20.53"/><circle fill="#ebe3d8" cx="61.60" cy="51.33" r="12.83"/></g><g transform="translate(107.67 53)"><rect fill="#ac3038" x="0" y="0" width="102.67" height="102.67"/><circle fill="#ad796b" cx="30.80" cy="25.67" r="20.53"/><circle fill="#c9b4a2" cx="61.60" cy="46.20" r="30.80"/><circle fill="#cbcbc2" cx="35.93" cy="71.87" r="25.67"/><circle fill="#ebe3d8" cx="71.87" cy="71.87" r="20.53"/><circle fill="#6f402c" cx="61.60" cy="51.33" r="12.83"/></g><g transform="translate(215.33 53)"><rect fill="#ad796b" x="0" y="0" width="102.67" height="102.67"/><circle fill="#c9b4a2" cx="30.80" cy="25.67" r="20.53"/><circle fill="#cbcbc2" cx="61.60" cy="46.20" r="30.80"/><circle fill="#ebe3d8" cx="35.93" cy="71.87" r="25.67"/><circle fill="#6f402c" cx="71.87" cy="71.87" r="20.53"/><circle fill="#ac3038" cx="61.60" cy="51.33" r="12.83"/></g><g transform="translate(0 160.67)"><rect fill="#c9b4a2" x="0" y="0" width="102.67" height="102.67"/><circle fill="#cbcbc2" cx="30.80" cy="25.67" r="20.53"/><circle fill="#ebe3d8" cx="61.60" cy="46.20" r="30.80"/><circle fill="#6f402c" cx="35.93" cy="71.87" r="25.67"/><circle fill="#ac3038" cx="71.87" cy="71.87" r="20.53"/><circle fill="#ad796b" cx="61.60" cy="51.33" r="12.83"/></g><g transform="translate(107.67 160.67)"><rect fill="#cbcbc2" x="0" y="0" width="102.67" height="102.67"/><circle fill="#ebe3d8" cx="30.80" cy="25.67" r="20.53"/><circle fill="#6f402c" cx="61.60" cy="46.20" r="30.80"/><circle fill="#ac3038" cx="35.93" cy="71.87" r="25.67"/><circle fill="#ad796b" cx="71.87" cy="71.87" r="20.53"/><circle fill="#c9b4a2" cx="61.60" cy="51.33" r="12.83"/></g><g transform="translate(215.33 160.67)"><rect fill="#ebe3d8" x="0" y="0" width="102.67" height="102.67"/><circle fill="#6f402c" cx="30.80" cy="25.67" r="20.53"/><circle fill="#ac3038" cx="61.60" cy="46.20" r="30.80"/><circle fill="#ad796b" cx="35.93" cy="71.87" r="25.67"/><circle fill="#c9b4a2" cx="71.87" cy="71.87" r="20.53"/><circle fill="#cbcbc2" cx="61.60" cy="51.33" r="12.83"/></g></svg>