<svg version="1.1" xmlns="http://www.w3.org/2000/svg" xmlns:xlink="http://www.w3.org/1999/xlink" width="318" height="263.33"><g transform="translate(24 24)"><circle fill="#1b2434" cx="0" cy="0" r="24"/><circle fill="#47423d" cx="53" cy="0" r="24"/><circle fill="#6a614a" cx="106" cy="0" r="24"/><circle fill="#8b8262" cx="159" cy="0" r="24"/><circle fill="#d9d3c7" cx="212" cy="0" r="24"/><circle fill="#fae7dc" cx="265" cy="0" r="24"/></g><g transform="translate(0 53)"><rect fill="#1b2434" x="0" y="0" width="102.67" height="102.67"/><circle fill="#47423d" cx="30.80" cy="25.67" r="20.53"/><circle fill="#6a614a" cx="61.60" cy="46.20" r="30.80"/><circle fill="#8b8262" cx="35.93" cy="71.87" r="25.67"/><circle fill="#d9d3c7" cx="71.87" cy="71.87" r="20.53"/><circle fill="#fae7dc" cx="61.60" cy="51.33" r="12.83"/></g><g transform="translate(107.67 53)"><rect fill="#47423d" x="0" y="0" width="102.67" height="102.67"/><circle fill="#6a614a" cx="30.80" cy="25.67" r="20.53"/><circle fill="#8b8262" cx="61.60" cy="46.20" r="30.80"/><circle fill="#d9d3c7" cx="35.93" cy="71.87" r="25.67"/><circle fill="#fae7dc" cx="71.87" cy="71.87" r="20.53"/><circle fill="#1b2434" cx="61.60" cy="51.33" r="12.83"/></g><g transform="translate(215.33 53)"><rect fill="#6a614a" x="0" y="0" width="102.67" height="102.67"/><circle fill="#8b8262" cx="30.80" cy="25.67" r="20.53"/><circle fill="#d9d3c7" cx="61.60" cy="46.20" r="30.80"/><circle fill="#fae7dc" cx="35.93" cy="71.87" r="25.67"/><circle fill="#1b2434" cx="71.87" cy="71.87" r="20.53"/><circle fill="#47423d" cx="61.60" cy="51.33" r="12.83"/></g><g transform="translate(0 160.67)"><rect fill="#8b8262" x="0" y="0" width="102.67" height="102.67"/><circle fill="#d9d3c7" cx="30.80" cy="25.67" r="20.53"/><circle fill="#fae7dc" cx="61.60" cy="46.20" r="30.80"/><circle fill="#1b2434" cx="35.93" cy="71.87" r="25.67"/><circle fill="#47423d" cx="71.87" cy="71.87" r="20.53"/><circle fill="#6a614a" cx="61.60" cy="51.33" r="12.83"/></g><g transform="translate(107.67 160.67)"><rect fill="#d9d3c7" x="0" y="0" width="102.67" height="102.67"/><circle fill="#fae7dc" cx="30.80" cy="25.67" r="20.53"/><circle fill="#1b2434" cx="61.60" cy="46.20" r="30.80"/><circle fill="#47423d" cx="35.93" cy="71.87" r="25.67"/><circle fill="#6a614a" cx="71.87" cy="71.87" r="20.53"/><circle fill="#8b8262" cx="61.60" cy="51.33" r="12.83"/></g><g transform="translate(215.33 160.67)"><rect fill="#fae7dc" x="0" y="0" width="102.67" height="102.67"/><circle fill="#1b2434" cx="30.80" cy="25.67" r="20.53"/><circle fill="#47423d" cx="61.60" cy="46.20" r="30.80"/><circle fill="#6a614a" cx="35.93" cy="71.87" r="25.67"/><circle fill="#8b8262" cx="71.87" cy="71.87" r="20.53"/><circle fill="#d9d3c7" cx="61.60" cy="51.33" r="12.83"/></g></svg>