<svg version="1.1" xmlns="http://www.w3.org/2000/svg" xmlns:xlink="http://www.w3.org/1999/xlink" width="318" height="263.33"><g transform="translate(24 24)"><circle fill="#2f112d" cx="0" cy="0" r="24"/><circle fill="#520330" cx="53" cy="0" r="24"/><circle fill="#7f0233" cx="106" cy="0" r="24"/><circle fill="#c52b3e" cx="159" cy="0" r="24"/><circle fill="#fc714b" cx="212" cy="0" r="24"/><circle fill="#fedac0" cx="265" cy="0" r="24"/></g><g transform="translate(0 53)"><rect fill="#2f112d" x="0" y="0" width="102.67" height="102.67"/><circle fill="#520330" cx="30.80" cy="25.67" r="20.53"/><circle fill="#7f0233" cx="61.60" cy="46.20" r="30.80"/><circle fill="#c52b3e" cx="35.93" cy="71.87" r="25.67"/><circle fill="#fc714b" cx="71.87" cy="71.87" r="20.53"/><circle fill="#fedac0" cx="61.60" cy="51.33" r="12.83"/></g><g transform="translate(107.67 53)"><rect fill="#520330" x="0" y="0" width="102.67" height="102.67"/><circle fill="#7f0233" cx="30.80" cy="25.67" r="20.53"/><circle fill="#c52b3e" cx="61.60" cy="46.20" r="30.80"/><circle fill="#fc714b" cx="35.93" cy="71.87" r="25.67"/><circle fill="#fedac0" cx="71.87" cy="71.87" r="20.53"/><circle fill="#2f112d" cx="61.60" cy="51.33" r="12.83"/></g><g transform="translate(215.33 53)"><rect fill="#7f0233" x="0" y="0" width="102.67" height="102.67"/><circle fill="#c52b3e" cx="30.80" cy="25.67" r="20.53"/><circle fill="#fc714b" cx="61.60" cy="46.20" r="30.80"/><circle fill="#fedac0" cx="35.93" cy="71.87" r="25.67"/><circle fill="#2f112d" cx="71.87" cy="71.87" r="20.53"/><circle fill="#520330" cx="61.60" cy="51.33" r="12.83"/></g><g transform="translate(0 160.67)"><rect fill="#c52b3e" x="0" y="0" width="102.67" height="102.67"/><circle fill="#fc714b" cx="30.80" cy="25.67" r="20.53"/><circle fill="#fedac0" cx="61.60" cy="46.20" r="30.80"/><circle fill="#2f112d" cx="35.93" cy="71.87" r="25.67"/><circle fill="#520330" cx="71.87" cy="71.87" r="20.53"/><circle fill="#7f0233" cx="61.60" cy="51.33" r="12.83"/></g><g transform="translate(107.67 160.67)"><rect fill="#fc714b" x="0" y="0" width="102.67" height="102.67"/><circle fill="#fedac0" cx="30.80" cy="25.67" r="20.53"/><circle fill="#2f112d" cx="61.60" cy="46.20" r="30.80"/><circle fill="#520330" cx="35.93" cy="71.87" r="25.67"/><circle fill="#7f0233" cx="71.87" cy="71.87" r="20.53"/><circle fill="#c52b3e" cx="61.60" cy="51.33" r="12.83"/></g><g transform="translate(215.33 160.67)"><rect fill="#fedac0" x="0" y="0" width="102.67" height="102.67"/><circle fill="#2f112d" cx="30.80" cy="25.67" r="20.53"/><circle fill="#520330" cx="61.60" cy="46.20" r="30.80"/><circle fill="#7f0233" cx="35.93" cy="71.87" r="25.67"/><circle fill="#c52b3e" cx="71.87" cy="71.87" r="20.53"/><circle fill="#fc714b" cx="61.60" cy="51.33" r="12.83"/></g></svg>