<svg version="1.1" xmlns="http://www.w3.org/2000/svg" xmlns:xlink="http://www.w3.org/1999/xlink" width="318" height="263.33"><g transform="translate(24 24)"><circle fill="#adda3d" cx="0" cy="0" r="24"/><circle fill="#d0f4a9" cx="53" cy="0" r="24"/><circle fill="#f0f5f9" cx="106" cy="0" r="24"/><circle fill="#6db6e8" cx="159" cy="0" r="24"/><circle fill="#2296dc" cx="212" cy="0" r="24"/><circle fill="#0b73d1" cx="265" cy="0" r="24"/></g><g transform="translate(0 53)"><rect fill="#adda3d" x="0" y="0" width="102.67" height="102.67"/><circle fill="#d0f4a9" cx="30.80" cy="25.67" r="20.53"/><circle fill="#f0f5f9" cx="61.60" cy="46.20" r="30.80"/><circle fill="#6db6e8" cx="35.93" cy="71.87" r="25.67"/><circle fill="#2296dc" cx="71.87" cy="71.87" r="20.53"/><circle fill="#0b73d1" cx="61.60" cy="51.33" r="12.83"/></g><g transform="translate(107.67 53)"><rect fill="#d0f4a9" x="0" y="0" width="102.67" height="102.67"/><circle fill="#f0f5f9" cx="30.80" cy="25.67" r="20.53"/><circle fill="#6db6e8" cx="61.60" cy="46.20" r="30.80"/><circle fill="#2296dc" cx="35.93" cy="71.87" r="25.67"/><circle fill="#0b73d1" cx="71.87" cy="71.87" r="20.53"/><circle fill="#adda3d" cx="61.60" cy="51.33" r="12.83"/></g><g transform="translate(215.33 53)"><rect fill="#f0f5f9" x="0" y="0" width="102.67" height="102.67"/><circle fill="#6db6e8" cx="30.80" cy="25.67" r="20.53"/><circle fill="#2296dc" cx="61.60" cy="46.20" r="30.80"/><circle fill="#0b73d1" cx="35.93" cy="71.87" r="25.67"/><circle fill="#adda3d" cx="71.87" cy="71.87" r="20.53"/><circle fill="#d0f4a9" cx="61.60" cy="51.33" r="12.83"/></g><g transform="translate(0 160.67)"><rect fill="#6db6e8" x="0" y="0" width="102.67" height="102.67"/><circle fill="#2296dc" cx="30.80" cy="25.67" r="20.53"/><circle fill="#0b73d1" cx="61.60" cy="46.20" r="30.80"/><circle fill="#adda3d" cx="35.93" cy="71.87" r="25.67"/><circle fill="#d0f4a9" cx="71.87" cy="71.87" r="20.53"/><circle fill="#f0f5f9" cx="61.60" cy="51.33" r="12.83"/></g><g transform="translate(107.67 160.67)"><rect fill="#2296dc" x="0" y="0" width="102.67" height="102.67"/><circle fill="#0b73d1" cx="30.80" cy="25.67" r="20.53"/><circle fill="#adda3d" cx="61.60" cy="46.20" r="30.80"/><circle fill="#d0f4a9" cx="35.93" cy="71.87" r="25.67"/><circle fill="#f0f5f9" cx="71.87" cy="71.87" r="20.53"/><circle fill="#6db6e8" cx="61.60" cy="51.33" r="12.83"/></g><g transform="translate(215.33 160.67)"><rect fill="#0b73d1" x="0" y="0" width="102.67" height="102.67"/><circle fill="#adda3d" cx="30.80" cy="25.67" r="20.53"/><circle fill="#d0f4a9" cx="61.60" cy="46.20" r="30.80"/><circle fill="#f0f5f9" cx="35.93" cy="71.87" r="25.67"/><circle fill="#6db6e8" cx="71.87" cy="71.87" r="20.53"/><circle fill="#2296dc" cx="61.60" cy="51.33" r="12.83"/></g></svg>