<svg version="1.1" xmlns="http://www.w3.org/2000/svg" xmlns:xlink="http://www.w3.org/1999/xlink" width="318" height="263.33"><g transform="translate(24 24)"><circle fill="#e2361c" cx="0" cy="0" r="24"/><circle fill="#f36958" cx="53" cy="0" r="24"/><circle fill="#cdd2df" cx="106" cy="0" r="24"/><circle fill="#a6a4af" cx="159" cy="0" r="24"/><circle fill="#807377" cx="212" cy="0" r="24"/><circle fill="#41372f" cx="265" cy="0" r="24"/></g><g transform="translate(0 53)"><rect fill="#e2361c" x="0" y="0" width="102.67" height="102.67"/><circle fill="#f36958" cx="30.80" cy="25.67" r="20.53"/><circle fill="#cdd2df" cx="61.60" cy="46.20" r="30.80"/><circle fill="#a6a4af" cx="35.93" cy="71.87" r="25.67"/><circle fill="#807377" cx="71.87" cy="71.87" r="20.53"/><circle fill="#41372f" cx="61.60" cy="51.33" r="12.83"/></g><g transform="translate(107.67 53)"><rect fill="#f36958" x="0" y="0" width="102.67" height="102.67"/><circle fill="#cdd2df" cx="30.80" cy="25.67" r="20.53"/><circle fill="#a6a4af" cx="61.60" cy="46.20" r="30.80"/><circle fill="#807377" cx="35.93" cy="71.87" r="25.67"/><circle fill="#41372f" cx="71.87" cy="71.87" r="20.53"/><circle fill="#e2361c" cx="61.60" cy="51.33" r="12.83"/></g><g transform="translate(215.33 53)"><rect fill="#cdd2df" x="0" y="0" width="102.67" height="102.67"/><circle fill="#a6a4af" cx="30.80" cy="25.67" r="20.53"/><circle fill="#807377" cx="61.60" cy="46.20" r="30.80"/><circle fill="#41372f" cx="35.93" cy="71.87" r="25.67"/><circle fill="#e2361c" cx="71.87" cy="71.87" r="20.53"/><circle fill="#f36958" cx="61.60" cy="51.33" r="12.83"/></g><g transform="translate(0 160.67)"><rect fill="#a6a4af" x="0" y="0" width="102.67" height="102.67"/><circle fill="#807377" cx="30.80" cy="25.67" r="20.53"/><circle fill="#41372f" cx="61.60" cy="46.20" r="30.80"/><circle fill="#e2361c" cx="35.93" cy="71.87" r="25.67"/><circle fill="#f36958" cx="71.87" cy="71.87" r="20.53"/><circle fill="#cdd2df" cx="61.60" cy="51.33" r="12.83"/></g><g transform="translate(107.67 160.67)"><rect fill="#807377" x="0" y="0" width="102.67" height="102.67"/><circle fill="#41372f" cx="30.80" cy="25.67" r="20.53"/><circle fill="#e2361c" cx="61.60" cy="46.20" r="30.80"/><circle fill="#f36958" cx="35.93" cy="71.87" r="25.67"/><circle fill="#cdd2df" cx="71.87" cy="71.87" r="20.53"/><circle fill="#a6a4af" cx="61.60" cy="51.33" r="12.83"/></g><g transform="translate(215.33 160.67)"><rect fill="#41372f" x="0" y="0" width="102.67" height="102.67"/><circle fill="#e2361c" cx="30.80" cy="25.67" r="20.53"/><circle fill="#f36958" cx="61.60" cy="46.20" r="30.80"/><circle fill="#cdd2df" cx="35.93" cy="71.87" r="25.67"/><circle fill="#a6a4af" cx="71.87" cy="71.87" r="20.53"/><circle fill="#807377" cx="61.60" cy="51.33" r="12.83"/></g></svg>