<svg version="1.1" xmlns="http://www.w3.org/2000/svg" xmlns:xlink="http://www.w3.org/1999/xlink" width="318" height="263.33"><g transform="translate(24 24)"><circle fill="#584d36" cx="0" cy="0" r="24"/><circle fill="#978a7c" cx="53" cy="0" r="24"/><circle fill="#cfccc9" cx="106" cy="0" r="24"/><circle fill="#f8fc85" cx="159" cy="0" r="24"/><circle fill="#dfe245" cx="212" cy="0" r="24"/><circle fill="#a9a108" cx="265" cy="0" r="24"/></g><g transform="translate(0 53)"><rect fill="#584d36" x="0" y="0" width="102.67" height="102.67"/><circle fill="#978a7c" cx="30.80" cy="25.67" r="20.53"/><circle fill="#cfccc9" cx="61.60" cy="46.20" r="30.80"/><circle fill="#f8fc85" cx="35.93" cy="71.87" r="25.67"/><circle fill="#dfe245" cx="71.87" cy="71.87" r="20.53"/><circle fill="#a9a108" cx="61.60" cy="51.33" r="12.83"/></g><g transform="translate(107.67 53)"><rect fill="#978a7c" x="0" y="0" width="102.67" height="102.67"/><circle fill="#cfccc9" cx="30.80" cy="25.67" r="20.53"/><circle fill="#f8fc85" cx="61.60" cy="46.20" r="30.80"/><circle fill="#dfe245" cx="35.93" cy="71.87" r="25.67"/><circle fill="#a9a108" cx="71.87" cy="71.87" r="20.53"/><circle fill="#584d36" cx="61.60" cy="51.33" r="12.83"/></g><g transform="translate(215.33 53)"><rect fill="#cfccc9" x="0" y="0" width="102.67" height="102.67"/><circle fill="#f8fc85" cx="30.80" cy="25.67" r="20.53"/><circle fill="#dfe245" cx="61.60" cy="46.20" r="30.80"/><circle fill="#a9a108" cx="35.93" cy="71.87" r="25.67"/><circle fill="#584d36" cx="71.87" cy="71.87" r="20.53"/><circle fill="#978a7c" cx="61.60" cy="51.33" r="12.83"/></g><g transform="translate(0 160.67)"><rect fill="#f8fc85" x="0" y="0" width="102.67" height="102.67"/><circle fill="#dfe245" cx="30.80" cy="25.67" r="20.53"/><circle fill="#a9a108" cx="61.60" cy="46.20" r="30.80"/><circle fill="#584d36" cx="35.93" cy="71.87" r="25.67"/><circle fill="#978a7c" cx="71.87" cy="71.87" r="20.53"/><circle fill="#cfccc9" cx="61.60" cy="51.33" r="12.83"/></g><g transform="translate(107.67 160.67)"><rect fill="#dfe245" x="0" y="0" width="102.67" height="102.67"/><circle fill="#a9a108" cx="30.80" cy="25.67" r="20.53"/><circle fill="#584d36" cx="61.60" cy="46.20" r="30.80"/><circle fill="#978a7c" cx="35.93" cy="71.87" r="25.67"/><circle fill="#cfccc9" cx="71.87" cy="71.87" r="20.53"/><circle fill="#f8fc85" cx="61.60" cy="51.33" r="12.83"/></g><g transform="translate(215.33 160.67)"><rect fill="#a9a108" x="0" y="0" width="102.67" height="102.67"/><circle fill="#584d36" cx="30.80" cy="25.67" r="20.53"/><circle fill="#978a7c" cx="61.60" cy="46.20" r="30.80"/><circle fill="#cfccc9" cx="35.93" cy="71.87" r="25.67"/><circle fill="#f8fc85" cx="71.87" cy="71.87" r="20.53"/><circle fill="#dfe245" cx="61.60" cy="51.33" r="12.83"/></g></svg>