<svg version="1.1" xmlns="http://www.w3.org/2000/svg" xmlns:xlink="http://www.w3.org/1999/xlink" width="318" height="263.33"><g transform="translate(24 24)"><circle fill="#db4a55" cx="0" cy="0" r="24"/><circle fill="#f5c625" cx="53" cy="0" r="24"/><circle fill="#408aa3" cx="106" cy="0" r="24"/><circle fill="#b0cadb" cx="159" cy="0" r="24"/><circle fill="#163b64" cx="212" cy="0" r="24"/><circle fill="#744881" cx="265" cy="0" r="24"/></g><g transform="translate(0 53)"><rect fill="#db4a55" x="0" y="0" width="102.67" height="102.67"/><circle fill="#f5c625" cx="30.80" cy="25.67" r="20.53"/><circle fill="#408aa3" cx="61.60" cy="46.20" r="30.80"/><circle fill="#b0cadb" cx="35.93" cy="71.87" r="25.67"/><circle fill="#163b64" cx="71.87" cy="71.87" r="20.53"/><circle fill="#744881" cx="61.60" cy="51.33" r="12.83"/></g><g transform="translate(107.67 53)"><rect fill="#f5c625" x="0" y="0" width="102.67" height="102.67"/><circle fill="#408aa3" cx="30.80" cy="25.67" r="20.53"/><circle fill="#b0cadb" cx="61.60" cy="46.20" r="30.80"/><circle fill="#163b64" cx="35.93" cy="71.87" r="25.67"/><circle fill="#744881" cx="71.87" cy="71.87" r="20.53"/><circle fill="#db4a55" cx="61.60" cy="51.33" r="12.83"/></g><g transform="translate(215.33 53)"><rect fill="#408aa3" x="0" y="0" width="102.67" height="102.67"/><circle fill="#b0cadb" cx="30.80" cy="25.67" r="20.53"/><circle fill="#163b64" cx="61.60" cy="46.20" r="30.80"/><circle fill="#744881" cx="35.93" cy="71.87" r="25.67"/><circle fill="#db4a55" cx="71.87" cy="71.87" r="20.53"/><circle fill="#f5c625" cx="61.60" cy="51.33" r="12.83"/></g><g transform="translate(0 160.67)"><rect fill="#b0cadb" x="0" y="0" width="102.67" height="102.67"/><circle fill="#163b64" cx="30.80" cy="25.67" r="20.53"/><circle fill="#744881" cx="61.60" cy="46.20" r="30.80"/><circle fill="#db4a55" cx="35.93" cy="71.87" r="25.67"/><circle fill="#f5c625" cx="71.87" cy="71.87" r="20.53"/><circle fill="#408aa3" cx="61.60" cy="51.33" r="12.83"/></g><g transform="translate(107.67 160.67)"><rect fill="#163b64" x="0" y="0" width="102.67" height="102.67"/><circle fill="#744881" cx="30.80" cy="25.67" r="20.53"/><circle fill="#db4a55" cx="61.60" cy="46.20" r="30.80"/><circle fill="#f5c625" cx="35.93" cy="71.87" r="25.67"/><circle fill="#408aa3" cx="71.87" cy="71.87" r="20.53"/><circle fill="#b0cadb" cx="61.60" cy="51.33" r="12.83"/></g><g transform="translate(215.33 160.67)"><rect fill="#744881" x="0" y="0" width="102.67" height="102.67"/><circle fill="#db4a55" cx="30.80" cy="25.67" r="20.53"/><circle fill="#f5c625" cx="61.60" cy="46.20" r="30.80"/><circle fill="#408aa3" cx="35.93" cy="71.87" r="25.67"/><circle fill="#b0cadb" cx="71.87" cy="71.87" r="20.53"/><circle fill="#163b64" cx="61.60" cy="51.33" r="12.83"/></g></svg>