<svg version="1.1" xmlns="http://www.w3.org/2000/svg" xmlns:xlink="http://www.w3.org/1999/xlink" width="318" height="263.33"><g transform="translate(24 24)"><circle fill="#a7333a" cx="0" cy="0" r="24"/><circle fill="#ea723e" cx="53" cy="0" r="24"/><circle fill="#f1aa74" cx="106" cy="0" r="24"/><circle fill="#aae39b" cx="159" cy="0" r="24"/><circle fill="#5da773" cx="212" cy="0" r="24"/><circle fill="#42cfbb" cx="265" cy="0" r="24"/></g><g transform="translate(0 53)"><rect fill="#a7333a" x="0" y="0" width="102.67" height="102.67"/><circle fill="#ea723e" cx="30.80" cy="25.67" r="20.53"/><circle fill="#f1aa74" cx="61.60" cy="46.20" r="30.80"/><circle fill="#aae39b" cx="35.93" cy="71.87" r="25.67"/><circle fill="#5da773" cx="71.87" cy="71.87" r="20.53"/><circle fill="#42cfbb" cx="61.60" cy="51.33" r="12.83"/></g><g transform="translate(107.67 53)"><rect fill="#ea723e" x="0" y="0" width="102.67" height="102.67"/><circle fill="#f1aa74" cx="30.80" cy="25.67" r="20.53"/><circle fill="#aae39b" cx="61.60" cy="46.20" r="30.80"/><circle fill="#5da773" cx="35.93" cy="71.87" r="25.67"/><circle fill="#42cfbb" cx="71.87" cy="71.87" r="20.53"/><circle fill="#a7333a" cx="61.60" cy="51.33" r="12.83"/></g><g transform="translate(215.33 53)"><rect fill="#f1aa74" x="0" y="0" width="102.67" height="102.67"/><circle fill="#aae39b" cx="30.80" cy="25.67" r="20.53"/><circle fill="#5da773" cx="61.60" cy="46.20" r="30.80"/><circle fill="#42cfbb" cx="35.93" cy="71.87" r="25.67"/><circle fill="#a7333a" cx="71.87" cy="71.87" r="20.53"/><circle fill="#ea723e" cx="61.60" cy="51.33" r="12.83"/></g><g transform="translate(0 160.67)"><rect fill="#aae39b" x="0" y="0" width="102.67" height="102.67"/><circle fill="#5da773" cx="30.80" cy="25.67" r="20.53"/><circle fill="#42cfbb" cx="61.60" cy="46.20" r="30.80"/><circle fill="#a7333a" cx="35.93" cy="71.87" r="25.67"/><circle fill="#ea723e" cx="71.87" cy="71.87" r="20.53"/><circle fill="#f1aa74" cx="61.60" cy="51.33" r="12.83"/></g><g transform="translate(107.67 160.67)"><rect fill="#5da773" x="0" y="0" width="102.67" height="102.67"/><circle fill="#42cfbb" cx="30.80" cy="25.67" r="20.53"/><circle fill="#a7333a" cx="61.60" cy="46.20" r="30.80"/><circle fill="#ea723e" cx="35.93" cy="71.87" r="25.67"/><circle fill="#f1aa74" cx="71.87" cy="71.87" r="20.53"/><circle fill="#aae39b" cx="61.60" cy="51.33" r="12.83"/></g><g transform="translate(215.33 160.67)"><rect fill="#42cfbb" x="0" y="0" width="102.67" height="102.67"/><circle fill="#a7333a" cx="30.80" cy="25.67" r="20.53"/><circle fill="#ea723e" cx="61.60" cy="46.20" r="30.80"/><circle fill="#f1aa74" cx="35.93" cy="71.87" r="25.67"/><circle fill="#aae39b" cx="71.87" cy="71.87" r="20.53"/><circle fill="#5da773" cx="61.60" cy="51.33" r="12.83"/></g></svg>