<svg version="1.1" xmlns="http://www.w3.org/2000/svg" xmlns:xlink="http://www.w3.org/1999/xlink" width="318" height="263.33"><g transform="translate(24 24)"><circle fill="#e1a895" cx="0" cy="0" r="24"/><circle fill="#eb946b" cx="53" cy="0" r="24"/><circle fill="#7db5d9" cx="106" cy="0" r="24"/><circle fill="#1d4480" cx="159" cy="0" r="24"/><circle fill="#edadcb" cx="212" cy="0" r="24"/><circle fill="#a17588" cx="265" cy="0" r="24"/></g><g transform="translate(0 53)"><rect fill="#e1a895" x="0" y="0" width="102.67" height="102.67"/><circle fill="#eb946b" cx="30.80" cy="25.67" r="20.53"/><circle fill="#7db5d9" cx="61.60" cy="46.20" r="30.80"/><circle fill="#1d4480" cx="35.93" cy="71.87" r="25.67"/><circle fill="#edadcb" cx="71.87" cy="71.87" r="20.53"/><circle fill="#a17588" cx="61.60" cy="51.33" r="12.83"/></g><g transform="translate(107.67 53)"><rect fill="#eb946b" x="0" y="0" width="102.67" height="102.67"/><circle fill="#7db5d9" cx="30.80" cy="25.67" r="20.53"/><circle fill="#1d4480" cx="61.60" cy="46.20" r="30.80"/><circle fill="#edadcb" cx="35.93" cy="71.87" r="25.67"/><circle fill="#a17588" cx="71.87" cy="71.87" r="20.53"/><circle fill="#e1a895" cx="61.60" cy="51.33" r="12.83"/></g><g transform="translate(215.33 53)"><rect fill="#7db5d9" x="0" y="0" width="102.67" height="102.67"/><circle fill="#1d4480" cx="30.80" cy="25.67" r="20.53"/><circle fill="#edadcb" cx="61.60" cy="46.20" r="30.80"/><circle fill="#a17588" cx="35.93" cy="71.87" r="25.67"/><circle fill="#e1a895" cx="71.87" cy="71.87" r="20.53"/><circle fill="#eb946b" cx="61.60" cy="51.33" r="12.83"/></g><g transform="translate(0 160.67)"><rect fill="#1d4480" x="0" y="0" width="102.67" height="102.67"/><circle fill="#edadcb" cx="30.80" cy="25.67" r="20.53"/><circle fill="#a17588" cx="61.60" cy="46.20" r="30.80"/><circle fill="#e1a895" cx="35.93" cy="71.87" r="25.67"/><circle fill="#eb946b" cx="71.87" cy="71.87" r="20.53"/><circle fill="#7db5d9" cx="61.60" cy="51.33" r="12.83"/></g><g transform="translate(107.67 160.67)"><rect fill="#edadcb" x="0" y="0" width="102.67" height="102.67"/><circle fill="#a17588" cx="30.80" cy="25.67" r="20.53"/><circle fill="#e1a895" cx="61.60" cy="46.20" r="30.80"/><circle fill="#eb946b" cx="35.93" cy="71.87" r="25.67"/><circle fill="#7db5d9" cx="71.87" cy="71.87" r="20.53"/><circle fill="#1d4480" cx="61.60" cy="51.33" r="12.83"/></g><g transform="translate(215.33 160.67)"><rect fill="#a17588" x="0" y="0" width="102.67" height="102.67"/><circle fill="#e1a895" cx="30.80" cy="25.67" r="20.53"/><circle fill="#eb946b" cx="61.60" cy="46.20" r="30.80"/><circle fill="#7db5d9" cx="35.93" cy="71.87" r="25.67"/><circle fill="#1d4480" cx="71.87" cy="71.87" r="20.53"/><circle fill="#edadcb" cx="61.60" cy="51.33" r="12.83"/></g></svg>