<svg version="1.1" xmlns="http://www.w3.org/2000/svg" xmlns:xlink="http://www.w3.org/1999/xlink" width="318" height="263.33"><g transform="translate(24 24)"><circle fill="#0a122f" cx="0" cy="0" r="24"/><circle fill="#3d2233" cx="53" cy="0" r="24"/><circle fill="#73383a" cx="106" cy="0" r="24"/><circle fill="#ac5541" cx="159" cy="0" r="24"/><circle fill="#e5804f" cx="212" cy="0" r="24"/><circle fill="#f8b778" cx="265" cy="0" r="24"/></g><g transform="translate(0 53)"><rect fill="#0a122f" x="0" y="0" width="102.67" height="102.67"/><circle fill="#3d2233" cx="30.80" cy="25.67" r="20.53"/><circle fill="#73383a" cx="61.60" cy="46.20" r="30.80"/><circle fill="#ac5541" cx="35.93" cy="71.87" r="25.67"/><circle fill="#e5804f" cx="71.87" cy="71.87" r="20.53"/><circle fill="#f8b778" cx="61.60" cy="51.33" r="12.83"/></g><g transform="translate(107.67 53)"><rect fill="#3d2233" x="0" y="0" width="102.67" height="102.67"/><circle fill="#73383a" cx="30.80" cy="25.67" r="20.53"/><circle fill="#ac5541" cx="61.60" cy="46.20" r="30.80"/><circle fill="#e5804f" cx="35.93" cy="71.87" r="25.67"/><circle fill="#f8b778" cx="71.87" cy="71.87" r="20.53"/><circle fill="#0a122f" cx="61.60" cy="51.33" r="12.83"/></g><g transform="translate(215.33 53)"><rect fill="#73383a" x="0" y="0" width="102.67" height="102.67"/><circle fill="#ac5541" cx="30.80" cy="25.67" r="20.53"/><circle fill="#e5804f" cx="61.60" cy="46.20" r="30.80"/><circle fill="#f8b778" cx="35.93" cy="71.87" r="25.67"/><circle fill="#0a122f" cx="71.87" cy="71.87" r="20.53"/><circle fill="#3d2233" cx="61.60" cy="51.33" r="12.83"/></g><g transform="translate(0 160.67)"><rect fill="#ac5541" x="0" y="0" width="102.67" height="102.67"/><circle fill="#e5804f" cx="30.80" cy="25.67" r="20.53"/><circle fill="#f8b778" cx="61.60" cy="46.20" r="30.80"/><circle fill="#0a122f" cx="35.93" cy="71.87" r="25.67"/><circle fill="#3d2233" cx="71.87" cy="71.87" r="20.53"/><circle fill="#73383a" cx="61.60" cy="51.33" r="12.83"/></g><g transform="translate(107.67 160.67)"><rect fill="#e5804f" x="0" y="0" width="102.67" height="102.67"/><circle fill="#f8b778" cx="30.80" cy="25.67" r="20.53"/><circle fill="#0a122f" cx="61.60" cy="46.20" r="30.80"/><circle fill="#3d2233" cx="35.93" cy="71.87" r="25.67"/><circle fill="#73383a" cx="71.87" cy="71.87" r="20.53"/><circle fill="#ac5541" cx="61.60" cy="51.33" r="12.83"/></g><g transform="translate(215.33 160.67)"><rect fill="#f8b778" x="0" y="0" width="102.67" height="102.67"/><circle fill="#0a122f" cx="30.80" cy="25.67" r="20.53"/><circle fill="#3d2233" cx="61.60" cy="46.20" r="30.80"/><circle fill="#73383a" cx="35.93" cy="71.87" r="25.67"/><circle fill="#ac5541" cx="71.87" cy="71.87" r="20.53"/><circle fill="#e5804f" cx="61.60" cy="51.33" r="12.83"/></g></svg>