<svg version="1.1" xmlns="http://www.w3.org/2000/svg" xmlns:xlink="http://www.w3.org/1999/xlink" width="318" height="263.33"><g transform="translate(24 24)"><circle fill="#ab312c" cx="0" cy="0" r="24"/><circle fill="#d57f1c" cx="53" cy="0" r="24"/><circle fill="#f4d42b" cx="106" cy="0" r="24"/><circle fill="#3199cc" cx="159" cy="0" r="24"/><circle fill="#c4c9e0" cx="212" cy="0" r="24"/><circle fill="#1c284b" cx="265" cy="0" r="24"/></g><g transform="translate(0 53)"><rect fill="#ab312c" x="0" y="0" width="102.67" height="102.67"/><circle fill="#d57f1c" cx="30.80" cy="25.67" r="20.53"/><circle fill="#f4d42b" cx="61.60" cy="46.20" r="30.80"/><circle fill="#3199cc" cx="35.93" cy="71.87" r="25.67"/><circle fill="#c4c9e0" cx="71.87" cy="71.87" r="20.53"/><circle fill="#1c284b" cx="61.60" cy="51.33" r="12.83"/></g><g transform="translate(107.67 53)"><rect fill="#d57f1c" x="0" y="0" width="102.67" height="102.67"/><circle fill="#f4d42b" cx="30.80" cy="25.67" r="20.53"/><circle fill="#3199cc" cx="61.60" cy="46.20" r="30.80"/><circle fill="#c4c9e0" cx="35.93" cy="71.87" r="25.67"/><circle fill="#1c284b" cx="71.87" cy="71.87" r="20.53"/><circle fill="#ab312c" cx="61.60" cy="51.33" r="12.83"/></g><g transform="translate(215.33 53)"><rect fill="#f4d42b" x="0" y="0" width="102.67" height="102.67"/><circle fill="#3199cc" cx="30.80" cy="25.67" r="20.53"/><circle fill="#c4c9e0" cx="61.60" cy="46.20" r="30.80"/><circle fill="#1c284b" cx="35.93" cy="71.87" r="25.67"/><circle fill="#ab312c" cx="71.87" cy="71.87" r="20.53"/><circle fill="#d57f1c" cx="61.60" cy="51.33" r="12.83"/></g><g transform="translate(0 160.67)"><rect fill="#3199cc" x="0" y="0" width="102.67" height="102.67"/><circle fill="#c4c9e0" cx="30.80" cy="25.67" r="20.53"/><circle fill="#1c284b" cx="61.60" cy="46.20" r="30.80"/><circle fill="#ab312c" cx="35.93" cy="71.87" r="25.67"/><circle fill="#d57f1c" cx="71.87" cy="71.87" r="20.53"/><circle fill="#f4d42b" cx="61.60" cy="51.33" r="12.83"/></g><g transform="translate(107.67 160.67)"><rect fill="#c4c9e0" x="0" y="0" width="102.67" height="102.67"/><circle fill="#1c284b" cx="30.80" cy="25.67" r="20.53"/><circle fill="#ab312c" cx="61.60" cy="46.20" r="30.80"/><circle fill="#d57f1c" cx="35.93" cy="71.87" r="25.67"/><circle fill="#f4d42b" cx="71.87" cy="71.87" r="20.53"/><circle fill="#3199cc" cx="61.60" cy="51.33" r="12.83"/></g><g transform="translate(215.33 160.67)"><rect fill="#1c284b" x="0" y="0" width="102.67" height="102.67"/><circle fill="#ab312c" cx="30.80" cy="25.67" r="20.53"/><circle fill="#d57f1c" cx="61.60" cy="46.20" r="30.80"/><circle fill="#f4d42b" cx="35.93" cy="71.87" r="25.67"/><circle fill="#3199cc" cx="71.87" cy="71.87" r="20.53"/><circle fill="#c4c9e0" cx="61.60" cy="51.33" r="12.83"/></g></svg>