<svg version="1.1" xmlns="http://www.w3.org/2000/svg" xmlns:xlink="http://www.w3.org/1999/xlink" width="318" height="263.33"><g transform="translate(24 24)"><circle fill="#c2936c" cx="0" cy="0" r="24"/><circle fill="#795d45" cx="53" cy="0" r="24"/><circle fill="#463524" cx="106" cy="0" r="24"/><circle fill="#587479" cx="159" cy="0" r="24"/><circle fill="#6c848c" cx="212" cy="0" r="24"/><circle fill="#bed0de" cx="265" cy="0" r="24"/></g><g transform="translate(0 53)"><rect fill="#c2936c" x="0" y="0" width="102.67" height="102.67"/><circle fill="#795d45" cx="30.80" cy="25.67" r="20.53"/><circle fill="#463524" cx="61.60" cy="46.20" r="30.80"/><circle fill="#587479" cx="35.93" cy="71.87" r="25.67"/><circle fill="#6c848c" cx="71.87" cy="71.87" r="20.53"/><circle fill="#bed0de" cx="61.60" cy="51.33" r="12.83"/></g><g transform="translate(107.67 53)"><rect fill="#795d45" x="0" y="0" width="102.67" height="102.67"/><circle fill="#463524" cx="30.80" cy="25.67" r="20.53"/><circle fill="#587479" cx="61.60" cy="46.20" r="30.80"/><circle fill="#6c848c" cx="35.93" cy="71.87" r="25.67"/><circle fill="#bed0de" cx="71.87" cy="71.87" r="20.53"/><circle fill="#c2936c" cx="61.60" cy="51.33" r="12.83"/></g><g transform="translate(215.33 53)"><rect fill="#463524" x="0" y="0" width="102.67" height="102.67"/><circle fill="#587479" cx="30.80" cy="25.67" r="20.53"/><circle fill="#6c848c" cx="61.60" cy="46.20" r="30.80"/><circle fill="#bed0de" cx="35.93" cy="71.87" r="25.67"/><circle fill="#c2936c" cx="71.87" cy="71.87" r="20.53"/><circle fill="#795d45" cx="61.60" cy="51.33" r="12.83"/></g><g transform="translate(0 160.67)"><rect fill="#587479" x="0" y="0" width="102.67" height="102.67"/><circle fill="#6c848c" cx="30.80" cy="25.67" r="20.53"/><circle fill="#bed0de" cx="61.60" cy="46.20" r="30.80"/><circle fill="#c2936c" cx="35.93" cy="71.87" r="25.67"/><circle fill="#795d45" cx="71.87" cy="71.87" r="20.53"/><circle fill="#463524" cx="61.60" cy="51.33" r="12.83"/></g><g transform="translate(107.67 160.67)"><rect fill="#6c848c" x="0" y="0" width="102.67" height="102.67"/><circle fill="#bed0de" cx="30.80" cy="25.67" r="20.53"/><circle fill="#c2936c" cx="61.60" cy="46.20" r="30.80"/><circle fill="#795d45" cx="35.93" cy="71.87" r="25.67"/><circle fill="#463524" cx="71.87" cy="71.87" r="20.53"/><circle fill="#587479" cx="61.60" cy="51.33" r="12.83"/></g><g transform="translate(215.33 160.67)"><rect fill="#bed0de" x="0" y="0" width="102.67" height="102.67"/><circle fill="#c2936c" cx="30.80" cy="25.67" r="20.53"/><circle fill="#795d45" cx="61.60" cy="46.20" r="30.80"/><circle fill="#463524" cx="35.93" cy="71.87" r="25.67"/><circle fill="#587479" cx="71.87" cy="71.87" r="20.53"/><circle fill="#6c848c" cx="61.60" cy="51.33" r="12.83"/></g></svg>