<svg version="1.1" xmlns="http://www.w3.org/2000/svg" xmlns:xlink="http://www.w3.org/1999/xlink" width="318" height="263.33"><g transform="translate(24 24)"><circle fill="#8d4a09" cx="0" cy="0" r="24"/><circle fill="#a85f31" cx="53" cy="0" r="24"/><circle fill="#c3764a" cx="106" cy="0" r="24"/><circle fill="#c1861f" cx="159" cy="0" r="24"/><circle fill="#e6ae42" cx="212" cy="0" r="24"/><circle fill="#f9d267" cx="265" cy="0" r="24"/></g><g transform="translate(0 53)"><rect fill="#8d4a09" x="0" y="0" width="102.67" height="102.67"/><circle fill="#a85f31" cx="30.80" cy="25.67" r="20.53"/><circle fill="#c3764a" cx="61.60" cy="46.20" r="30.80"/><circle fill="#c1861f" cx="35.93" cy="71.87" r="25.67"/><circle fill="#e6ae42" cx="71.87" cy="71.87" r="20.53"/><circle fill="#f9d267" cx="61.60" cy="51.33" r="12.83"/></g><g transform="translate(107.67 53)"><rect fill="#a85f31" x="0" y="0" width="102.67" height="102.67"/><circle fill="#c3764a" cx="30.80" cy="25.67" r="20.53"/><circle fill="#c1861f" cx="61.60" cy="46.20" r="30.80"/><circle fill="#e6ae42" cx="35.93" cy="71.87" r="25.67"/><circle fill="#f9d267" cx="71.87" cy="71.87" r="20.53"/><circle fill="#8d4a09" cx="61.60" cy="51.33" r="12.83"/></g><g transform="translate(215.33 53)"><rect fill="#c3764a" x="0" y="0" width="102.67" height="102.67"/><circle fill="#c1861f" cx="30.80" cy="25.67" r="20.53"/><circle fill="#e6ae42" cx="61.60" cy="46.20" r="30.80"/><circle fill="#f9d267" cx="35.93" cy="71.87" r="25.67"/><circle fill="#8d4a09" cx="71.87" cy="71.87" r="20.53"/><circle fill="#a85f31" cx="61.60" cy="51.33" r="12.83"/></g><g transform="translate(0 160.67)"><rect fill="#c1861f" x="0" y="0" width="102.67" height="102.67"/><circle fill="#e6ae42" cx="30.80" cy="25.67" r="20.53"/><circle fill="#f9d267" cx="61.60" cy="46.20" r="30.80"/><circle fill="#8d4a09" cx="35.93" cy="71.87" r="25.67"/><circle fill="#a85f31" cx="71.87" cy="71.87" r="20.53"/><circle fill="#c3764a" cx="61.60" cy="51.33" r="12.83"/></g><g transform="translate(107.67 160.67)"><rect fill="#e6ae42" x="0" y="0" width="102.67" height="102.67"/><circle fill="#f9d267" cx="30.80" cy="25.67" r="20.53"/><circle fill="#8d4a09" cx="61.60" cy="46.20" r="30.80"/><circle fill="#a85f31" cx="35.93" cy="71.87" r="25.67"/><circle fill="#c3764a" cx="71.87" cy="71.87" r="20.53"/><circle fill="#c1861f" cx="61.60" cy="51.33" r="12.83"/></g><g transform="translate(215.33 160.67)"><rect fill="#f9d267" x="0" y="0" width="102.67" height="102.67"/><circle fill="#8d4a09" cx="30.80" cy="25.67" r="20.53"/><circle fill="#a85f31" cx="61.60" cy="46.20" r="30.80"/><circle fill="#c3764a" cx="35.93" cy="71.87" r="25.67"/><circle fill="#c1861f" cx="71.87" cy="71.87" r="20.53"/><circle fill="#e6ae42" cx="61.60" cy="51.33" r="12.83"/></g></svg>