<svg version="1.1" xmlns="http://www.w3.org/2000/svg" xmlns:xlink="http://www.w3.org/1999/xlink" width="318" height="263.33"><g transform="translate(24 24)"><circle fill="#845a14" cx="0" cy="0" r="24"/><circle fill="#b07314" cx="53" cy="0" r="24"/><circle fill="#d69527" cx="106" cy="0" r="24"/><circle fill="#f4c03b" cx="159" cy="0" r="24"/><circle fill="#758734" cx="212" cy="0" r="24"/><circle fill="#406010" cx="265" cy="0" r="24"/></g><g transform="translate(0 53)"><rect fill="#845a14" x="0" y="0" width="102.67" height="102.67"/><circle fill="#b07314" cx="30.80" cy="25.67" r="20.53"/><circle fill="#d69527" cx="61.60" cy="46.20" r="30.80"/><circle fill="#f4c03b" cx="35.93" cy="71.87" r="25.67"/><circle fill="#758734" cx="71.87" cy="71.87" r="20.53"/><circle fill="#406010" cx="61.60" cy="51.33" r="12.83"/></g><g transform="translate(107.67 53)"><rect fill="#b07314" x="0" y="0" width="102.67" height="102.67"/><circle fill="#d69527" cx="30.80" cy="25.67" r="20.53"/><circle fill="#f4c03b" cx="61.60" cy="46.20" r="30.80"/><circle fill="#758734" cx="35.93" cy="71.87" r="25.67"/><circle fill="#406010" cx="71.87" cy="71.87" r="20.53"/><circle fill="#845a14" cx="61.60" cy="51.33" r="12.83"/></g><g transform="translate(215.33 53)"><rect fill="#d69527" x="0" y="0" width="102.67" height="102.67"/><circle fill="#f4c03b" cx="30.80" cy="25.67" r="20.53"/><circle fill="#758734" cx="61.60" cy="46.20" r="30.80"/><circle fill="#406010" cx="35.93" cy="71.87" r="25.67"/><circle fill="#845a14" cx="71.87" cy="71.87" r="20.53"/><circle fill="#b07314" cx="61.60" cy="51.33" r="12.83"/></g><g transform="translate(0 160.67)"><rect fill="#f4c03b" x="0" y="0" width="102.67" height="102.67"/><circle fill="#758734" cx="30.80" cy="25.67" r="20.53"/><circle fill="#406010" cx="61.60" cy="46.20" r="30.80"/><circle fill="#845a14" cx="35.93" cy="71.87" r="25.67"/><circle fill="#b07314" cx="71.87" cy="71.87" r="20.53"/><circle fill="#d69527" cx="61.60" cy="51.33" r="12.83"/></g><g transform="translate(107.67 160.67)"><rect fill="#758734" x="0" y="0" width="102.67" height="102.67"/><circle fill="#406010" cx="30.80" cy="25.67" r="20.53"/><circle fill="#845a14" cx="61.60" cy="46.20" r="30.80"/><circle fill="#b07314" cx="35.93" cy="71.87" r="25.67"/><circle fill="#d69527" cx="71.87" cy="71.87" r="20.53"/><circle fill="#f4c03b" cx="61.60" cy="51.33" r="12.83"/></g><g transform="translate(215.33 160.67)"><rect fill="#406010" x="0" y="0" width="102.67" height="102.67"/><circle fill="#845a14" cx="30.80" cy="25.67" r="20.53"/><circle fill="#b07314" cx="61.60" cy="46.20" r="30.80"/><circle fill="#d69527" cx="35.93" cy="71.87" r="25.67"/><circle fill="#f4c03b" cx="71.87" cy="71.87" r="20.53"/><circle fill="#758734" cx="61.60" cy="51.33" r="12.83"/></g></svg>