<svg version="1.1" xmlns="http://www.w3.org/2000/svg" xmlns:xlink="http://www.w3.org/1999/xlink" width="318" height="263.33"><g transform="translate(24 24)"><circle fill="#2b340e" cx="0" cy="0" r="24"/><circle fill="#615022" cx="53" cy="0" r="24"/><circle fill="#9b6f3c" cx="106" cy="0" r="24"/><circle fill="#c49560" cx="159" cy="0" r="24"/><circle fill="#e2bb8b" cx="212" cy="0" r="24"/><circle fill="#f3dbb6" cx="265" cy="0" r="24"/></g><g transform="translate(0 53)"><rect fill="#2b340e" x="0" y="0" width="102.67" height="102.67"/><circle fill="#615022" cx="30.80" cy="25.67" r="20.53"/><circle fill="#9b6f3c" cx="61.60" cy="46.20" r="30.80"/><circle fill="#c49560" cx="35.93" cy="71.87" r="25.67"/><circle fill="#e2bb8b" cx="71.87" cy="71.87" r="20.53"/><circle fill="#f3dbb6" cx="61.60" cy="51.33" r="12.83"/></g><g transform="translate(107.67 53)"><rect fill="#615022" x="0" y="0" width="102.67" height="102.67"/><circle fill="#9b6f3c" cx="30.80" cy="25.67" r="20.53"/><circle fill="#c49560" cx="61.60" cy="46.20" r="30.80"/><circle fill="#e2bb8b" cx="35.93" cy="71.87" r="25.67"/><circle fill="#f3dbb6" cx="71.87" cy="71.87" r="20.53"/><circle fill="#2b340e" cx="61.60" cy="51.33" r="12.83"/></g><g transform="translate(215.33 53)"><rect fill="#9b6f3c" x="0" y="0" width="102.67" height="102.67"/><circle fill="#c49560" cx="30.80" cy="25.67" r="20.53"/><circle fill="#e2bb8b" cx="61.60" cy="46.20" r="30.80"/><circle fill="#f3dbb6" cx="35.93" cy="71.87" r="25.67"/><circle fill="#2b340e" cx="71.87" cy="71.87" r="20.53"/><circle fill="#615022" cx="61.60" cy="51.33" r="12.83"/></g><g transform="translate(0 160.67)"><rect fill="#c49560" x="0" y="0" width="102.67" height="102.67"/><circle fill="#e2bb8b" cx="30.80" cy="25.67" r="20.53"/><circle fill="#f3dbb6" cx="61.60" cy="46.20" r="30.80"/><circle fill="#2b340e" cx="35.93" cy="71.87" r="25.67"/><circle fill="#615022" cx="71.87" cy="71.87" r="20.53"/><circle fill="#9b6f3c" cx="61.60" cy="51.33" r="12.83"/></g><g transform="translate(107.67 160.67)"><rect fill="#e2bb8b" x="0" y="0" width="102.67" height="102.67"/><circle fill="#f3dbb6" cx="30.80" cy="25.67" r="20.53"/><circle fill="#2b340e" cx="61.60" cy="46.20" r="30.80"/><circle fill="#615022" cx="35.93" cy="71.87" r="25.67"/><circle fill="#9b6f3c" cx="71.87" cy="71.87" r="20.53"/><circle fill="#c49560" cx="61.60" cy="51.33" r="12.83"/></g><g transform="translate(215.33 160.67)"><rect fill="#f3dbb6" x="0" y="0" width="102.67" height="102.67"/><circle fill="#2b340e" cx="30.80" cy="25.67" r="20.53"/><circle fill="#615022" cx="61.60" cy="46.20" r="30.80"/><circle fill="#9b6f3c" cx="35.93" cy="71.87" r="25.67"/><circle fill="#c49560" cx="71.87" cy="71.87" r="20.53"/><circle fill="#e2bb8b" cx="61.60" cy="51.33" r="12.83"/></g></svg>