<svg version="1.1" xmlns="http://www.w3.org/2000/svg" xmlns:xlink="http://www.w3.org/1999/xlink" width="318" height="263.33"><g transform="translate(24 24)"><circle fill="#341740" cx="0" cy="0" r="24"/><circle fill="#67415f" cx="53" cy="0" r="24"/><circle fill="#a52e45" cx="106" cy="0" r="24"/><circle fill="#da3549" cx="159" cy="0" r="24"/><circle fill="#d4796c" cx="212" cy="0" r="24"/><circle fill="#ebd0b6" cx="265" cy="0" r="24"/></g><g transform="translate(0 53)"><rect fill="#341740" x="0" y="0" width="102.67" height="102.67"/><circle fill="#67415f" cx="30.80" cy="25.67" r="20.53"/><circle fill="#a52e45" cx="61.60" cy="46.20" r="30.80"/><circle fill="#da3549" cx="35.93" cy="71.87" r="25.67"/><circle fill="#d4796c" cx="71.87" cy="71.87" r="20.53"/><circle fill="#ebd0b6" cx="61.60" cy="51.33" r="12.83"/></g><g transform="translate(107.67 53)"><rect fill="#67415f" x="0" y="0" width="102.67" height="102.67"/><circle fill="#a52e45" cx="30.80" cy="25.67" r="20.53"/><circle fill="#da3549" cx="61.60" cy="46.20" r="30.80"/><circle fill="#d4796c" cx="35.93" cy="71.87" r="25.67"/><circle fill="#ebd0b6" cx="71.87" cy="71.87" r="20.53"/><circle fill="#341740" cx="61.60" cy="51.33" r="12.83"/></g><g transform="translate(215.33 53)"><rect fill="#a52e45" x="0" y="0" width="102.67" height="102.67"/><circle fill="#da3549" cx="30.80" cy="25.67" r="20.53"/><circle fill="#d4796c" cx="61.60" cy="46.20" r="30.80"/><circle fill="#ebd0b6" cx="35.93" cy="71.87" r="25.67"/><circle fill="#341740" cx="71.87" cy="71.87" r="20.53"/><circle fill="#67415f" cx="61.60" cy="51.33" r="12.83"/></g><g transform="translate(0 160.67)"><rect fill="#da3549" x="0" y="0" width="102.67" height="102.67"/><circle fill="#d4796c" cx="30.80" cy="25.67" r="20.53"/><circle fill="#ebd0b6" cx="61.60" cy="46.20" r="30.80"/><circle fill="#341740" cx="35.93" cy="71.87" r="25.67"/><circle fill="#67415f" cx="71.87" cy="71.87" r="20.53"/><circle fill="#a52e45" cx="61.60" cy="51.33" r="12.83"/></g><g transform="translate(107.67 160.67)"><rect fill="#d4796c" x="0" y="0" width="102.67" height="102.67"/><circle fill="#ebd0b6" cx="30.80" cy="25.67" r="20.53"/><circle fill="#341740" cx="61.60" cy="46.20" r="30.80"/><circle fill="#67415f" cx="35.93" cy="71.87" r="25.67"/><circle fill="#a52e45" cx="71.87" cy="71.87" r="20.53"/><circle fill="#da3549" cx="61.60" cy="51.33" r="12.83"/></g><g transform="translate(215.33 160.67)"><rect fill="#ebd0b6" x="0" y="0" width="102.67" height="102.67"/><circle fill="#341740" cx="30.80" cy="25.67" r="20.53"/><circle fill="#67415f" cx="61.60" cy="46.20" r="30.80"/><circle fill="#a52e45" cx="35.93" cy="71.87" r="25.67"/><circle fill="#da3549" cx="71.87" cy="71.87" r="20.53"/><circle fill="#d4796c" cx="61.60" cy="51.33" r="12.83"/></g></svg>