<svg version="1.1" xmlns="http://www.w3.org/2000/svg" xmlns:xlink="http://www.w3.org/1999/xlink" width="318" height="263.33"><g transform="translate(24 24)"><circle fill="#0c0b0a" cx="0" cy="0" r="24"/><circle fill="#482518" cx="53" cy="0" r="24"/><circle fill="#835132" cx="106" cy="0" r="24"/><circle fill="#a47855" cx="159" cy="0" r="24"/><circle fill="#c4a58a" cx="212" cy="0" r="24"/><circle fill="#efd0bc" cx="265" cy="0" r="24"/></g><g transform="translate(0 53)"><rect fill="#0c0b0a" x="0" y="0" width="102.67" height="102.67"/><circle fill="#482518" cx="30.80" cy="25.67" r="20.53"/><circle fill="#835132" cx="61.60" cy="46.20" r="30.80"/><circle fill="#a47855" cx="35.93" cy="71.87" r="25.67"/><circle fill="#c4a58a" cx="71.87" cy="71.87" r="20.53"/><circle fill="#efd0bc" cx="61.60" cy="51.33" r="12.83"/></g><g transform="translate(107.67 53)"><rect fill="#482518" x="0" y="0" width="102.67" height="102.67"/><circle fill="#835132" cx="30.80" cy="25.67" r="20.53"/><circle fill="#a47855" cx="61.60" cy="46.20" r="30.80"/><circle fill="#c4a58a" cx="35.93" cy="71.87" r="25.67"/><circle fill="#efd0bc" cx="71.87" cy="71.87" r="20.53"/><circle fill="#0c0b0a" cx="61.60" cy="51.33" r="12.83"/></g><g transform="translate(215.33 53)"><rect fill="#835132" x="0" y="0" width="102.67" height="102.67"/><circle fill="#a47855" cx="30.80" cy="25.67" r="20.53"/><circle fill="#c4a58a" cx="61.60" cy="46.20" r="30.80"/><circle fill="#efd0bc" cx="35.93" cy="71.87" r="25.67"/><circle fill="#0c0b0a" cx="71.87" cy="71.87" r="20.53"/><circle fill="#482518" cx="61.60" cy="51.33" r="12.83"/></g><g transform="translate(0 160.67)"><rect fill="#a47855" x="0" y="0" width="102.67" height="102.67"/><circle fill="#c4a58a" cx="30.80" cy="25.67" r="20.53"/><circle fill="#efd0bc" cx="61.60" cy="46.20" r="30.80"/><circle fill="#0c0b0a" cx="35.93" cy="71.87" r="25.67"/><circle fill="#482518" cx="71.87" cy="71.87" r="20.53"/><circle fill="#835132" cx="61.60" cy="51.33" r="12.83"/></g><g transform="translate(107.67 160.67)"><rect fill="#c4a58a" x="0" y="0" width="102.67" height="102.67"/><circle fill="#efd0bc" cx="30.80" cy="25.67" r="20.53"/><circle fill="#0c0b0a" cx="61.60" cy="46.20" r="30.80"/><circle fill="#482518" cx="35.93" cy="71.87" r="25.67"/><circle fill="#835132" cx="71.87" cy="71.87" r="20.53"/><circle fill="#a47855" cx="61.60" cy="51.33" r="12.83"/></g><g transform="translate(215.33 160.67)"><rect fill="#efd0bc" x="0" y="0" width="102.67" height="102.67"/><circle fill="#0c0b0a" cx="30.80" cy="25.67" r="20.53"/><circle fill="#482518" cx="61.60" cy="46.20" r="30.80"/><circle fill="#835132" cx="35.93" cy="71.87" r="25.67"/><circle fill="#a47855" cx="71.87" cy="71.87" r="20.53"/><circle fill="#c4a58a" cx="61.60" cy="51.33" r="12.83"/></g></svg>