<svg version="1.1" xmlns="http://www.w3.org/2000/svg" xmlns:xlink="http://www.w3.org/1999/xlink" width="318" height="263.33"><g transform="translate(24 24)"><circle fill="#291e0a" cx="0" cy="0" r="24"/><circle fill="#424127" cx="53" cy="0" r="24"/><circle fill="#565f44" cx="106" cy="0" r="24"/><circle fill="#765c2b" cx="159" cy="0" r="24"/><circle fill="#988552" cx="212" cy="0" r="24"/><circle fill="#e1c790" cx="265" cy="0" r="24"/></g><g transform="translate(0 53)"><rect fill="#291e0a" x="0" y="0" width="102.67" height="102.67"/><circle fill="#424127" cx="30.80" cy="25.67" r="20.53"/><circle fill="#565f44" cx="61.60" cy="46.20" r="30.80"/><circle fill="#765c2b" cx="35.93" cy="71.87" r="25.67"/><circle fill="#988552" cx="71.87" cy="71.87" r="20.53"/><circle fill="#e1c790" cx="61.60" cy="51.33" r="12.83"/></g><g transform="translate(107.67 53)"><rect fill="#424127" x="0" y="0" width="102.67" height="102.67"/><circle fill="#565f44" cx="30.80" cy="25.67" r="20.53"/><circle fill="#765c2b" cx="61.60" cy="46.20" r="30.80"/><circle fill="#988552" cx="35.93" cy="71.87" r="25.67"/><circle fill="#e1c790" cx="71.87" cy="71.87" r="20.53"/><circle fill="#291e0a" cx="61.60" cy="51.33" r="12.83"/></g><g transform="translate(215.33 53)"><rect fill="#565f44" x="0" y="0" width="102.67" height="102.67"/><circle fill="#765c2b" cx="30.80" cy="25.67" r="20.53"/><circle fill="#988552" cx="61.60" cy="46.20" r="30.80"/><circle fill="#e1c790" cx="35.93" cy="71.87" r="25.67"/><circle fill="#291e0a" cx="71.87" cy="71.87" r="20.53"/><circle fill="#424127" cx="61.60" cy="51.33" r="12.83"/></g><g transform="translate(0 160.67)"><rect fill="#765c2b" x="0" y="0" width="102.67" height="102.67"/><circle fill="#988552" cx="30.80" cy="25.67" r="20.53"/><circle fill="#e1c790" cx="61.60" cy="46.20" r="30.80"/><circle fill="#291e0a" cx="35.93" cy="71.87" r="25.67"/><circle fill="#424127" cx="71.87" cy="71.87" r="20.53"/><circle fill="#565f44" cx="61.60" cy="51.33" r="12.83"/></g><g transform="translate(107.67 160.67)"><rect fill="#988552" x="0" y="0" width="102.67" height="102.67"/><circle fill="#e1c790" cx="30.80" cy="25.67" r="20.53"/><circle fill="#291e0a" cx="61.60" cy="46.20" r="30.80"/><circle fill="#424127" cx="35.93" cy="71.87" r="25.67"/><circle fill="#565f44" cx="71.87" cy="71.87" r="20.53"/><circle fill="#765c2b" cx="61.60" cy="51.33" r="12.83"/></g><g transform="translate(215.33 160.67)"><rect fill="#e1c790" x="0" y="0" width="102.67" height="102.67"/><circle fill="#291e0a" cx="30.80" cy="25.67" r="20.53"/><circle fill="#424127" cx="61.60" cy="46.20" r="30.80"/><circle fill="#565f44" cx="35.93" cy="71.87" r="25.67"/><circle fill="#765c2b" cx="71.87" cy="71.87" r="20.53"/><circle fill="#988552" cx="61.60" cy="51.33" r="12.83"/></g></svg>