<svg version="1.1" xmlns="http://www.w3.org/2000/svg" xmlns:xlink="http://www.w3.org/1999/xlink" width="318" height="263.33"><g transform="translate(24 24)"><circle fill="#6b6c56" cx="0" cy="0" r="24"/><circle fill="#888c81" cx="53" cy="0" r="24"/><circle fill="#b3bab9" cx="106" cy="0" r="24"/><circle fill="#3f8aac" cx="159" cy="0" r="24"/><circle fill="#f19028" cx="212" cy="0" r="24"/><circle fill="#f6b661" cx="265" cy="0" r="24"/></g><g transform="translate(0 53)"><rect fill="#6b6c56" x="0" y="0" width="102.67" height="102.67"/><circle fill="#888c81" cx="30.80" cy="25.67" r="20.53"/><circle fill="#b3bab9" cx="61.60" cy="46.20" r="30.80"/><circle fill="#3f8aac" cx="35.93" cy="71.87" r="25.67"/><circle fill="#f19028" cx="71.87" cy="71.87" r="20.53"/><circle fill="#f6b661" cx="61.60" cy="51.33" r="12.83"/></g><g transform="translate(107.67 53)"><rect fill="#888c81" x="0" y="0" width="102.67" height="102.67"/><circle fill="#b3bab9" cx="30.80" cy="25.67" r="20.53"/><circle fill="#3f8aac" cx="61.60" cy="46.20" r="30.80"/><circle fill="#f19028" cx="35.93" cy="71.87" r="25.67"/><circle fill="#f6b661" cx="71.87" cy="71.87" r="20.53"/><circle fill="#6b6c56" cx="61.60" cy="51.33" r="12.83"/></g><g transform="translate(215.33 53)"><rect fill="#b3bab9" x="0" y="0" width="102.67" height="102.67"/><circle fill="#3f8aac" cx="30.80" cy="25.67" r="20.53"/><circle fill="#f19028" cx="61.60" cy="46.20" r="30.80"/><circle fill="#f6b661" cx="35.93" cy="71.87" r="25.67"/><circle fill="#6b6c56" cx="71.87" cy="71.87" r="20.53"/><circle fill="#888c81" cx="61.60" cy="51.33" r="12.83"/></g><g transform="translate(0 160.67)"><rect fill="#3f8aac" x="0" y="0" width="102.67" height="102.67"/><circle fill="#f19028" cx="30.80" cy="25.67" r="20.53"/><circle fill="#f6b661" cx="61.60" cy="46.20" r="30.80"/><circle fill="#6b6c56" cx="35.93" cy="71.87" r="25.67"/><circle fill="#888c81" cx="71.87" cy="71.87" r="20.53"/><circle fill="#b3bab9" cx="61.60" cy="51.33" r="12.83"/></g><g transform="translate(107.67 160.67)"><rect fill="#f19028" x="0" y="0" width="102.67" height="102.67"/><circle fill="#f6b661" cx="30.80" cy="25.67" r="20.53"/><circle fill="#6b6c56" cx="61.60" cy="46.20" r="30.80"/><circle fill="#888c81" cx="35.93" cy="71.87" r="25.67"/><circle fill="#b3bab9" cx="71.87" cy="71.87" r="20.53"/><circle fill="#3f8aac" cx="61.60" cy="51.33" r="12.83"/></g><g transform="translate(215.33 160.67)"><rect fill="#f6b661" x="0" y="0" width="102.67" height="102.67"/><circle fill="#6b6c56" cx="30.80" cy="25.67" r="20.53"/><circle fill="#888c81" cx="61.60" cy="46.20" r="30.80"/><circle fill="#b3bab9" cx="35.93" cy="71.87" r="25.67"/><circle fill="#3f8aac" cx="71.87" cy="71.87" r="20.53"/><circle fill="#f19028" cx="61.60" cy="51.33" r="12.83"/></g></svg>