<svg version="1.1" xmlns="http://www.w3.org/2000/svg" xmlns:xlink="http://www.w3.org/1999/xlink" width="318" height="263.33"><g transform="translate(24 24)"><circle fill="#372a2b" cx="0" cy="0" r="24"/><circle fill="#ca8a51" cx="53" cy="0" r="24"/><circle fill="#b8c9d0" cx="106" cy="0" r="24"/><circle fill="#7ea0c5" cx="159" cy="0" r="24"/><circle fill="#6786ac" cx="212" cy="0" r="24"/><circle fill="#555f6f" cx="265" cy="0" r="24"/></g><g transform="translate(0 53)"><rect fill="#372a2b" x="0" y="0" width="102.67" height="102.67"/><circle fill="#ca8a51" cx="30.80" cy="25.67" r="20.53"/><circle fill="#b8c9d0" cx="61.60" cy="46.20" r="30.80"/><circle fill="#7ea0c5" cx="35.93" cy="71.87" r="25.67"/><circle fill="#6786ac" cx="71.87" cy="71.87" r="20.53"/><circle fill="#555f6f" cx="61.60" cy="51.33" r="12.83"/></g><g transform="translate(107.67 53)"><rect fill="#ca8a51" x="0" y="0" width="102.67" height="102.67"/><circle fill="#b8c9d0" cx="30.80" cy="25.67" r="20.53"/><circle fill="#7ea0c5" cx="61.60" cy="46.20" r="30.80"/><circle fill="#6786ac" cx="35.93" cy="71.87" r="25.67"/><circle fill="#555f6f" cx="71.87" cy="71.87" r="20.53"/><circle fill="#372a2b" cx="61.60" cy="51.33" r="12.83"/></g><g transform="translate(215.33 53)"><rect fill="#b8c9d0" x="0" y="0" width="102.67" height="102.67"/><circle fill="#7ea0c5" cx="30.80" cy="25.67" r="20.53"/><circle fill="#6786ac" cx="61.60" cy="46.20" r="30.80"/><circle fill="#555f6f" cx="35.93" cy="71.87" r="25.67"/><circle fill="#372a2b" cx="71.87" cy="71.87" r="20.53"/><circle fill="#ca8a51" cx="61.60" cy="51.33" r="12.83"/></g><g transform="translate(0 160.67)"><rect fill="#7ea0c5" x="0" y="0" width="102.67" height="102.67"/><circle fill="#6786ac" cx="30.80" cy="25.67" r="20.53"/><circle fill="#555f6f" cx="61.60" cy="46.20" r="30.80"/><circle fill="#372a2b" cx="35.93" cy="71.87" r="25.67"/><circle fill="#ca8a51" cx="71.87" cy="71.87" r="20.53"/><circle fill="#b8c9d0" cx="61.60" cy="51.33" r="12.83"/></g><g transform="translate(107.67 160.67)"><rect fill="#6786ac" x="0" y="0" width="102.67" height="102.67"/><circle fill="#555f6f" cx="30.80" cy="25.67" r="20.53"/><circle fill="#372a2b" cx="61.60" cy="46.20" r="30.80"/><circle fill="#ca8a51" cx="35.93" cy="71.87" r="25.67"/><circle fill="#b8c9d0" cx="71.87" cy="71.87" r="20.53"/><circle fill="#7ea0c5" cx="61.60" cy="51.33" r="12.83"/></g><g transform="translate(215.33 160.67)"><rect fill="#555f6f" x="0" y="0" width="102.67" height="102.67"/><circle fill="#372a2b" cx="30.80" cy="25.67" r="20.53"/><circle fill="#ca8a51" cx="61.60" cy="46.20" r="30.80"/><circle fill="#b8c9d0" cx="35.93" cy="71.87" r="25.67"/><circle fill="#7ea0c5" cx="71.87" cy="71.87" r="20.53"/><circle fill="#6786ac" cx="61.60" cy="51.33" r="12.83"/></g></svg>