<svg version="1.1" xmlns="http://www.w3.org/2000/svg" xmlns:xlink="http://www.w3.org/1999/xlink" width="318" height="263.33333333333337"><g transform="translate(24 24)"><circle fill="#322324" cx="0" cy="0" r="24"/><circle fill="#92462f" cx="53" cy="0" r="24"/><circle fill="#c56928" cx="106" cy="0" r="24"/><circle fill="#eb5e44" cx="159" cy="0" r="24"/><circle fill="#f49669" cx="212" cy="0" r="24"/><circle fill="#f5aa2f" cx="265" cy="0" r="24"/></g><g transform="translate(0 53)"><rect fill="#322324" x="0" y="0" width="102.67" height="102.67"/><circle fill="#92462f" cx="30.80" cy="25.67" r="20.53"/><circle fill="#c56928" cx="61.60" cy="46.20" r="30.80"/><circle fill="#eb5e44" cx="35.93" cy="71.87" r="25.67"/><circle fill="#f49669" cx="71.87" cy="71.87" r="20.53"/><circle fill="#f5aa2f" cx="61.60" cy="51.33" r="12.83"/></g><g transform="translate(107.67 53)"><rect fill="#92462f" x="0" y="0" width="102.67" height="102.67"/><circle fill="#c56928" cx="30.80" cy="25.67" r="20.53"/><circle fill="#eb5e44" cx="61.60" cy="46.20" r="30.80"/><circle fill="#f49669" cx="35.93" cy="71.87" r="25.67"/><circle fill="#f5aa2f" cx="71.87" cy="71.87" r="20.53"/><circle fill="#322324" cx="61.60" cy="51.33" r="12.83"/></g><g transform="translate(215.33 53)"><rect fill="#c56928" x="0" y="0" width="102.67" height="102.67"/><circle fill="#eb5e44" cx="30.80" cy="25.67" r="20.53"/><circle fill="#f49669" cx="61.60" cy="46.20" r="30.80"/><circle fill="#f5aa2f" cx="35.93" cy="71.87" r="25.67"/><circle fill="#322324" cx="71.87" cy="71.87" r="20.53"/><circle fill="#92462f" cx="61.60" cy="51.33" r="12.83"/></g><g transform="translate(0 160.67)"><rect fill="#eb5e44" x="0" y="0" width="102.67" height="102.67"/><circle fill="#f49669" cx="30.80" cy="25.67" r="20.53"/><circle fill="#f5aa2f" cx="61.60" cy="46.20" r="30.80"/><circle fill="#322324" cx="35.93" cy="71.87" r="25.67"/><circle fill="#92462f" cx="71.87" cy="71.87" r="20.53"/><circle fill="#c56928" cx="61.60" cy="51.33" r="12.83"/></g><g transform="translate(107.67 160.67)"><rect fill="#f49669" x="0" y="0" width="102.67" height="102.67"/><circle fill="#f5aa2f" cx="30.80" cy="25.67" r="20.53"/><circle fill="#322324" cx="61.60" cy="46.20" r="30.80"/><circle fill="#92462f" cx="35.93" cy="71.87" r="25.67"/><circle fill="#c56928" cx="71.87" cy="71.87" r="20.53"/><circle fill="#eb5e44" cx="61.60" cy="51.33" r="12.83"/></g><g transform="translate(215.33 160.67)"><rect fill="#f5aa2f" x="0" y="0" width="102.67" height="102.67"/><circle fill="#322324" cx="30.80" cy="25.67" r="20.53"/><circle fill="#92462f" cx="61.60" cy="46.20" r="30.80"/><circle fill="#c56928" cx="35.93" cy="71.87" r="25.67"/><circle fill="#eb5e44" cx="71.87" cy="71.87" r="20.53"/><circle fill="#f49669" cx="61.60" cy="51.33" r="12.83"/></g></svg>