<svg version="1.1" xmlns="http://www.w3.org/2000/svg" xmlns:xlink="http://www.w3.org/1999/xlink" width="318" height="263.33"><g transform="translate(24 24)"><circle fill="#798931" cx="0" cy="0" r="24"/><circle fill="#e3cc1c" cx="53" cy="0" r="24"/><circle fill="#cac7a4" cx="106" cy="0" r="24"/><circle fill="#838da6" cx="159" cy="0" r="24"/><circle fill="#475b7a" cx="212" cy="0" r="24"/><circle fill="#1d3143" cx="265" cy="0" r="24"/></g><g transform="translate(0 53)"><rect fill="#798931" x="0" y="0" width="102.67" height="102.67"/><circle fill="#e3cc1c" cx="30.80" cy="25.67" r="20.53"/><circle fill="#cac7a4" cx="61.60" cy="46.20" r="30.80"/><circle fill="#838da6" cx="35.93" cy="71.87" r="25.67"/><circle fill="#475b7a" cx="71.87" cy="71.87" r="20.53"/><circle fill="#1d3143" cx="61.60" cy="51.33" r="12.83"/></g><g transform="translate(107.67 53)"><rect fill="#e3cc1c" x="0" y="0" width="102.67" height="102.67"/><circle fill="#cac7a4" cx="30.80" cy="25.67" r="20.53"/><circle fill="#838da6" cx="61.60" cy="46.20" r="30.80"/><circle fill="#475b7a" cx="35.93" cy="71.87" r="25.67"/><circle fill="#1d3143" cx="71.87" cy="71.87" r="20.53"/><circle fill="#798931" cx="61.60" cy="51.33" r="12.83"/></g><g transform="translate(215.33 53)"><rect fill="#cac7a4" x="0" y="0" width="102.67" height="102.67"/><circle fill="#838da6" cx="30.80" cy="25.67" r="20.53"/><circle fill="#475b7a" cx="61.60" cy="46.20" r="30.80"/><circle fill="#1d3143" cx="35.93" cy="71.87" r="25.67"/><circle fill="#798931" cx="71.87" cy="71.87" r="20.53"/><circle fill="#e3cc1c" cx="61.60" cy="51.33" r="12.83"/></g><g transform="translate(0 160.67)"><rect fill="#838da6" x="0" y="0" width="102.67" height="102.67"/><circle fill="#475b7a" cx="30.80" cy="25.67" r="20.53"/><circle fill="#1d3143" cx="61.60" cy="46.20" r="30.80"/><circle fill="#798931" cx="35.93" cy="71.87" r="25.67"/><circle fill="#e3cc1c" cx="71.87" cy="71.87" r="20.53"/><circle fill="#cac7a4" cx="61.60" cy="51.33" r="12.83"/></g><g transform="translate(107.67 160.67)"><rect fill="#475b7a" x="0" y="0" width="102.67" height="102.67"/><circle fill="#1d3143" cx="30.80" cy="25.67" r="20.53"/><circle fill="#798931" cx="61.60" cy="46.20" r="30.80"/><circle fill="#e3cc1c" cx="35.93" cy="71.87" r="25.67"/><circle fill="#cac7a4" cx="71.87" cy="71.87" r="20.53"/><circle fill="#838da6" cx="61.60" cy="51.33" r="12.83"/></g><g transform="translate(215.33 160.67)"><rect fill="#1d3143" x="0" y="0" width="102.67" height="102.67"/><circle fill="#798931" cx="30.80" cy="25.67" r="20.53"/><circle fill="#e3cc1c" cx="61.60" cy="46.20" r="30.80"/><circle fill="#cac7a4" cx="35.93" cy="71.87" r="25.67"/><circle fill="#838da6" cx="71.87" cy="71.87" r="20.53"/><circle fill="#475b7a" cx="61.60" cy="51.33" r="12.83"/></g></svg>