<svg version="1.1" xmlns="http://www.w3.org/2000/svg" xmlns:xlink="http://www.w3.org/1999/xlink" width="318" height="263.33333333333337"><g transform="translate(24 24)"><circle fill="#3f2615" cx="0" cy="0" r="24"/><circle fill="#67492d" cx="53" cy="0" r="24"/><circle fill="#b7954b" cx="106" cy="0" r="24"/><circle fill="#e0e2a1" cx="159" cy="0" r="24"/><circle fill="#2f5f4f" cx="212" cy="0" r="24"/><circle fill="#5c8c89" cx="265" cy="0" r="24"/></g><g transform="translate(0 53)"><rect fill="#3f2615" x="0" y="0" width="102.67" height="102.67"/><circle fill="#67492d" cx="30.80" cy="25.67" r="20.53"/><circle fill="#b7954b" cx="61.60" cy="46.20" r="30.80"/><circle fill="#e0e2a1" cx="35.93" cy="71.87" r="25.67"/><circle fill="#2f5f4f" cx="71.87" cy="71.87" r="20.53"/><circle fill="#5c8c89" cx="61.60" cy="51.33" r="12.83"/></g><g transform="translate(107.67 53)"><rect fill="#67492d" x="0" y="0" width="102.67" height="102.67"/><circle fill="#b7954b" cx="30.80" cy="25.67" r="20.53"/><circle fill="#e0e2a1" cx="61.60" cy="46.20" r="30.80"/><circle fill="#2f5f4f" cx="35.93" cy="71.87" r="25.67"/><circle fill="#5c8c89" cx="71.87" cy="71.87" r="20.53"/><circle fill="#3f2615" cx="61.60" cy="51.33" r="12.83"/></g><g transform="translate(215.33 53)"><rect fill="#b7954b" x="0" y="0" width="102.67" height="102.67"/><circle fill="#e0e2a1" cx="30.80" cy="25.67" r="20.53"/><circle fill="#2f5f4f" cx="61.60" cy="46.20" r="30.80"/><circle fill="#5c8c89" cx="35.93" cy="71.87" r="25.67"/><circle fill="#3f2615" cx="71.87" cy="71.87" r="20.53"/><circle fill="#67492d" cx="61.60" cy="51.33" r="12.83"/></g><g transform="translate(0 160.67)"><rect fill="#e0e2a1" x="0" y="0" width="102.67" height="102.67"/><circle fill="#2f5f4f" cx="30.80" cy="25.67" r="20.53"/><circle fill="#5c8c89" cx="61.60" cy="46.20" r="30.80"/><circle fill="#3f2615" cx="35.93" cy="71.87" r="25.67"/><circle fill="#67492d" cx="71.87" cy="71.87" r="20.53"/><circle fill="#b7954b" cx="61.60" cy="51.33" r="12.83"/></g><g transform="translate(107.67 160.67)"><rect fill="#2f5f4f" x="0" y="0" width="102.67" height="102.67"/><circle fill="#5c8c89" cx="30.80" cy="25.67" r="20.53"/><circle fill="#3f2615" cx="61.60" cy="46.20" r="30.80"/><circle fill="#67492d" cx="35.93" cy="71.87" r="25.67"/><circle fill="#b7954b" cx="71.87" cy="71.87" r="20.53"/><circle fill="#e0e2a1" cx="61.60" cy="51.33" r="12.83"/></g><g transform="translate(215.33 160.67)"><rect fill="#5c8c89" x="0" y="0" width="102.67" height="102.67"/><circle fill="#3f2615" cx="30.80" cy="25.67" r="20.53"/><circle fill="#67492d" cx="61.60" cy="46.20" r="30.80"/><circle fill="#b7954b" cx="35.93" cy="71.87" r="25.67"/><circle fill="#e0e2a1" cx="71.87" cy="71.87" r="20.53"/><circle fill="#2f5f4f" cx="61.60" cy="51.33" r="12.83"/></g></svg>