<svg version="1.1" xmlns="http://www.w3.org/2000/svg" xmlns:xlink="http://www.w3.org/1999/xlink" width="318" height="263.33333333333337"><g transform="translate(24 24)"><circle fill="#072d29" cx="0" cy="0" r="24"/><circle fill="#045049" cx="53" cy="0" r="24"/><circle fill="#077667" cx="106" cy="0" r="24"/><circle fill="#5c9d74" cx="159" cy="0" r="24"/><circle fill="#a8ce9e" cx="212" cy="0" r="24"/><circle fill="#effacd" cx="265" cy="0" r="24"/></g><g transform="translate(0 53)"><rect fill="#072d29" x="0" y="0" width="102.67" height="102.67"/><circle fill="#045049" cx="30.80" cy="25.67" r="20.53"/><circle fill="#077667" cx="61.60" cy="46.20" r="30.80"/><circle fill="#5c9d74" cx="35.93" cy="71.87" r="25.67"/><circle fill="#a8ce9e" cx="71.87" cy="71.87" r="20.53"/><circle fill="#effacd" cx="61.60" cy="51.33" r="12.83"/></g><g transform="translate(107.67 53)"><rect fill="#045049" x="0" y="0" width="102.67" height="102.67"/><circle fill="#077667" cx="30.80" cy="25.67" r="20.53"/><circle fill="#5c9d74" cx="61.60" cy="46.20" r="30.80"/><circle fill="#a8ce9e" cx="35.93" cy="71.87" r="25.67"/><circle fill="#effacd" cx="71.87" cy="71.87" r="20.53"/><circle fill="#072d29" cx="61.60" cy="51.33" r="12.83"/></g><g transform="translate(215.33 53)"><rect fill="#077667" x="0" y="0" width="102.67" height="102.67"/><circle fill="#5c9d74" cx="30.80" cy="25.67" r="20.53"/><circle fill="#a8ce9e" cx="61.60" cy="46.20" r="30.80"/><circle fill="#effacd" cx="35.93" cy="71.87" r="25.67"/><circle fill="#072d29" cx="71.87" cy="71.87" r="20.53"/><circle fill="#045049" cx="61.60" cy="51.33" r="12.83"/></g><g transform="translate(0 160.67)"><rect fill="#5c9d74" x="0" y="0" width="102.67" height="102.67"/><circle fill="#a8ce9e" cx="30.80" cy="25.67" r="20.53"/><circle fill="#effacd" cx="61.60" cy="46.20" r="30.80"/><circle fill="#072d29" cx="35.93" cy="71.87" r="25.67"/><circle fill="#045049" cx="71.87" cy="71.87" r="20.53"/><circle fill="#077667" cx="61.60" cy="51.33" r="12.83"/></g><g transform="translate(107.67 160.67)"><rect fill="#a8ce9e" x="0" y="0" width="102.67" height="102.67"/><circle fill="#effacd" cx="30.80" cy="25.67" r="20.53"/><circle fill="#072d29" cx="61.60" cy="46.20" r="30.80"/><circle fill="#045049" cx="35.93" cy="71.87" r="25.67"/><circle fill="#077667" cx="71.87" cy="71.87" r="20.53"/><circle fill="#5c9d74" cx="61.60" cy="51.33" r="12.83"/></g><g transform="translate(215.33 160.67)"><rect fill="#effacd" x="0" y="0" width="102.67" height="102.67"/><circle fill="#072d29" cx="30.80" cy="25.67" r="20.53"/><circle fill="#045049" cx="61.60" cy="46.20" r="30.80"/><circle fill="#077667" cx="35.93" cy="71.87" r="25.67"/><circle fill="#5c9d74" cx="71.87" cy="71.87" r="20.53"/><circle fill="#a8ce9e" cx="61.60" cy="51.33" r="12.83"/></g></svg>