<svg version="1.1" xmlns="http://www.w3.org/2000/svg" xmlns:xlink="http://www.w3.org/1999/xlink" width="318" height="263.33"><g transform="translate(24 24)"><circle fill="#1f4d7b" cx="0" cy="0" r="24"/><circle fill="#2f1013" cx="53" cy="0" r="24"/><circle fill="#660f09" cx="106" cy="0" r="24"/><circle fill="#a13d10" cx="159" cy="0" r="24"/><circle fill="#684640" cx="212" cy="0" r="24"/><circle fill="#b0947f" cx="265" cy="0" r="24"/></g><g transform="translate(0 53)"><rect fill="#1f4d7b" x="0" y="0" width="102.67" height="102.67"/><circle fill="#2f1013" cx="30.80" cy="25.67" r="20.53"/><circle fill="#660f09" cx="61.60" cy="46.20" r="30.80"/><circle fill="#a13d10" cx="35.93" cy="71.87" r="25.67"/><circle fill="#684640" cx="71.87" cy="71.87" r="20.53"/><circle fill="#b0947f" cx="61.60" cy="51.33" r="12.83"/></g><g transform="translate(107.67 53)"><rect fill="#2f1013" x="0" y="0" width="102.67" height="102.67"/><circle fill="#660f09" cx="30.80" cy="25.67" r="20.53"/><circle fill="#a13d10" cx="61.60" cy="46.20" r="30.80"/><circle fill="#684640" cx="35.93" cy="71.87" r="25.67"/><circle fill="#b0947f" cx="71.87" cy="71.87" r="20.53"/><circle fill="#1f4d7b" cx="61.60" cy="51.33" r="12.83"/></g><g transform="translate(215.33 53)"><rect fill="#660f09" x="0" y="0" width="102.67" height="102.67"/><circle fill="#a13d10" cx="30.80" cy="25.67" r="20.53"/><circle fill="#684640" cx="61.60" cy="46.20" r="30.80"/><circle fill="#b0947f" cx="35.93" cy="71.87" r="25.67"/><circle fill="#1f4d7b" cx="71.87" cy="71.87" r="20.53"/><circle fill="#2f1013" cx="61.60" cy="51.33" r="12.83"/></g><g transform="translate(0 160.67)"><rect fill="#a13d10" x="0" y="0" width="102.67" height="102.67"/><circle fill="#684640" cx="30.80" cy="25.67" r="20.53"/><circle fill="#b0947f" cx="61.60" cy="46.20" r="30.80"/><circle fill="#1f4d7b" cx="35.93" cy="71.87" r="25.67"/><circle fill="#2f1013" cx="71.87" cy="71.87" r="20.53"/><circle fill="#660f09" cx="61.60" cy="51.33" r="12.83"/></g><g transform="translate(107.67 160.67)"><rect fill="#684640" x="0" y="0" width="102.67" height="102.67"/><circle fill="#b0947f" cx="30.80" cy="25.67" r="20.53"/><circle fill="#1f4d7b" cx="61.60" cy="46.20" r="30.80"/><circle fill="#2f1013" cx="35.93" cy="71.87" r="25.67"/><circle fill="#660f09" cx="71.87" cy="71.87" r="20.53"/><circle fill="#a13d10" cx="61.60" cy="51.33" r="12.83"/></g><g transform="translate(215.33 160.67)"><rect fill="#b0947f" x="0" y="0" width="102.67" height="102.67"/><circle fill="#1f4d7b" cx="30.80" cy="25.67" r="20.53"/><circle fill="#2f1013" cx="61.60" cy="46.20" r="30.80"/><circle fill="#660f09" cx="35.93" cy="71.87" r="25.67"/><circle fill="#a13d10" cx="71.87" cy="71.87" r="20.53"/><circle fill="#684640" cx="61.60" cy="51.33" r="12.83"/></g></svg>