<svg version="1.1" xmlns="http://www.w3.org/2000/svg" xmlns:xlink="http://www.w3.org/1999/xlink" width="318" height="263.33"><g transform="translate(24 24)"><circle fill="#88390a" cx="0" cy="0" r="24"/><circle fill="#a9571b" cx="53" cy="0" r="24"/><circle fill="#c77932" cx="106" cy="0" r="24"/><circle fill="#bba333" cx="159" cy="0" r="24"/><circle fill="#9f8b16" cx="212" cy="0" r="24"/><circle fill="#837609" cx="265" cy="0" r="24"/></g><g transform="translate(0 53)"><rect fill="#88390a" x="0" y="0" width="102.67" height="102.67"/><circle fill="#a9571b" cx="30.80" cy="25.67" r="20.53"/><circle fill="#c77932" cx="61.60" cy="46.20" r="30.80"/><circle fill="#bba333" cx="35.93" cy="71.87" r="25.67"/><circle fill="#9f8b16" cx="71.87" cy="71.87" r="20.53"/><circle fill="#837609" cx="61.60" cy="51.33" r="12.83"/></g><g transform="translate(107.67 53)"><rect fill="#a9571b" x="0" y="0" width="102.67" height="102.67"/><circle fill="#c77932" cx="30.80" cy="25.67" r="20.53"/><circle fill="#bba333" cx="61.60" cy="46.20" r="30.80"/><circle fill="#9f8b16" cx="35.93" cy="71.87" r="25.67"/><circle fill="#837609" cx="71.87" cy="71.87" r="20.53"/><circle fill="#88390a" cx="61.60" cy="51.33" r="12.83"/></g><g transform="translate(215.33 53)"><rect fill="#c77932" x="0" y="0" width="102.67" height="102.67"/><circle fill="#bba333" cx="30.80" cy="25.67" r="20.53"/><circle fill="#9f8b16" cx="61.60" cy="46.20" r="30.80"/><circle fill="#837609" cx="35.93" cy="71.87" r="25.67"/><circle fill="#88390a" cx="71.87" cy="71.87" r="20.53"/><circle fill="#a9571b" cx="61.60" cy="51.33" r="12.83"/></g><g transform="translate(0 160.67)"><rect fill="#bba333" x="0" y="0" width="102.67" height="102.67"/><circle fill="#9f8b16" cx="30.80" cy="25.67" r="20.53"/><circle fill="#837609" cx="61.60" cy="46.20" r="30.80"/><circle fill="#88390a" cx="35.93" cy="71.87" r="25.67"/><circle fill="#a9571b" cx="71.87" cy="71.87" r="20.53"/><circle fill="#c77932" cx="61.60" cy="51.33" r="12.83"/></g><g transform="translate(107.67 160.67)"><rect fill="#9f8b16" x="0" y="0" width="102.67" height="102.67"/><circle fill="#837609" cx="30.80" cy="25.67" r="20.53"/><circle fill="#88390a" cx="61.60" cy="46.20" r="30.80"/><circle fill="#a9571b" cx="35.93" cy="71.87" r="25.67"/><circle fill="#c77932" cx="71.87" cy="71.87" r="20.53"/><circle fill="#bba333" cx="61.60" cy="51.33" r="12.83"/></g><g transform="translate(215.33 160.67)"><rect fill="#837609" x="0" y="0" width="102.67" height="102.67"/><circle fill="#88390a" cx="30.80" cy="25.67" r="20.53"/><circle fill="#a9571b" cx="61.60" cy="46.20" r="30.80"/><circle fill="#c77932" cx="35.93" cy="71.87" r="25.67"/><circle fill="#bba333" cx="71.87" cy="71.87" r="20.53"/><circle fill="#9f8b16" cx="61.60" cy="51.33" r="12.83"/></g></svg>