<svg version="1.1" xmlns="http://www.w3.org/2000/svg" xmlns:xlink="http://www.w3.org/1999/xlink" width="318" height="263.33"><g transform="translate(24 24)"><circle fill="#322930" cx="0" cy="0" r="24"/><circle fill="#0e6c9a" cx="53" cy="0" r="24"/><circle fill="#e56227" cx="106" cy="0" r="24"/><circle fill="#8998a0" cx="159" cy="0" r="24"/><circle fill="#c9d1d5" cx="212" cy="0" r="24"/><circle fill="#ebf1f5" cx="265" cy="0" r="24"/></g><g transform="translate(0 53)"><rect fill="#322930" x="0" y="0" width="102.67" height="102.67"/><circle fill="#0e6c9a" cx="30.80" cy="25.67" r="20.53"/><circle fill="#e56227" cx="61.60" cy="46.20" r="30.80"/><circle fill="#8998a0" cx="35.93" cy="71.87" r="25.67"/><circle fill="#c9d1d5" cx="71.87" cy="71.87" r="20.53"/><circle fill="#ebf1f5" cx="61.60" cy="51.33" r="12.83"/></g><g transform="translate(107.67 53)"><rect fill="#0e6c9a" x="0" y="0" width="102.67" height="102.67"/><circle fill="#e56227" cx="30.80" cy="25.67" r="20.53"/><circle fill="#8998a0" cx="61.60" cy="46.20" r="30.80"/><circle fill="#c9d1d5" cx="35.93" cy="71.87" r="25.67"/><circle fill="#ebf1f5" cx="71.87" cy="71.87" r="20.53"/><circle fill="#322930" cx="61.60" cy="51.33" r="12.83"/></g><g transform="translate(215.33 53)"><rect fill="#e56227" x="0" y="0" width="102.67" height="102.67"/><circle fill="#8998a0" cx="30.80" cy="25.67" r="20.53"/><circle fill="#c9d1d5" cx="61.60" cy="46.20" r="30.80"/><circle fill="#ebf1f5" cx="35.93" cy="71.87" r="25.67"/><circle fill="#322930" cx="71.87" cy="71.87" r="20.53"/><circle fill="#0e6c9a" cx="61.60" cy="51.33" r="12.83"/></g><g transform="translate(0 160.67)"><rect fill="#8998a0" x="0" y="0" width="102.67" height="102.67"/><circle fill="#c9d1d5" cx="30.80" cy="25.67" r="20.53"/><circle fill="#ebf1f5" cx="61.60" cy="46.20" r="30.80"/><circle fill="#322930" cx="35.93" cy="71.87" r="25.67"/><circle fill="#0e6c9a" cx="71.87" cy="71.87" r="20.53"/><circle fill="#e56227" cx="61.60" cy="51.33" r="12.83"/></g><g transform="translate(107.67 160.67)"><rect fill="#c9d1d5" x="0" y="0" width="102.67" height="102.67"/><circle fill="#ebf1f5" cx="30.80" cy="25.67" r="20.53"/><circle fill="#322930" cx="61.60" cy="46.20" r="30.80"/><circle fill="#0e6c9a" cx="35.93" cy="71.87" r="25.67"/><circle fill="#e56227" cx="71.87" cy="71.87" r="20.53"/><circle fill="#8998a0" cx="61.60" cy="51.33" r="12.83"/></g><g transform="translate(215.33 160.67)"><rect fill="#ebf1f5" x="0" y="0" width="102.67" height="102.67"/><circle fill="#322930" cx="30.80" cy="25.67" r="20.53"/><circle fill="#0e6c9a" cx="61.60" cy="46.20" r="30.80"/><circle fill="#e56227" cx="35.93" cy="71.87" r="25.67"/><circle fill="#8998a0" cx="71.87" cy="71.87" r="20.53"/><circle fill="#c9d1d5" cx="61.60" cy="51.33" r="12.83"/></g></svg>