<svg version="1.1" xmlns="http://www.w3.org/2000/svg" xmlns:xlink="http://www.w3.org/1999/xlink" width="318" height="263.33"><g transform="translate(24 24)"><circle fill="#cf4e23" cx="0" cy="0" r="24"/><circle fill="#8a6b56" cx="53" cy="0" r="24"/><circle fill="#af9682" cx="106" cy="0" r="24"/><circle fill="#dfd5bd" cx="159" cy="0" r="24"/><circle fill="#79a199" cx="212" cy="0" r="24"/><circle fill="#40555a" cx="265" cy="0" r="24"/></g><g transform="translate(0 53)"><rect fill="#cf4e23" x="0" y="0" width="102.67" height="102.67"/><circle fill="#8a6b56" cx="30.80" cy="25.67" r="20.53"/><circle fill="#af9682" cx="61.60" cy="46.20" r="30.80"/><circle fill="#dfd5bd" cx="35.93" cy="71.87" r="25.67"/><circle fill="#79a199" cx="71.87" cy="71.87" r="20.53"/><circle fill="#40555a" cx="61.60" cy="51.33" r="12.83"/></g><g transform="translate(107.67 53)"><rect fill="#8a6b56" x="0" y="0" width="102.67" height="102.67"/><circle fill="#af9682" cx="30.80" cy="25.67" r="20.53"/><circle fill="#dfd5bd" cx="61.60" cy="46.20" r="30.80"/><circle fill="#79a199" cx="35.93" cy="71.87" r="25.67"/><circle fill="#40555a" cx="71.87" cy="71.87" r="20.53"/><circle fill="#cf4e23" cx="61.60" cy="51.33" r="12.83"/></g><g transform="translate(215.33 53)"><rect fill="#af9682" x="0" y="0" width="102.67" height="102.67"/><circle fill="#dfd5bd" cx="30.80" cy="25.67" r="20.53"/><circle fill="#79a199" cx="61.60" cy="46.20" r="30.80"/><circle fill="#40555a" cx="35.93" cy="71.87" r="25.67"/><circle fill="#cf4e23" cx="71.87" cy="71.87" r="20.53"/><circle fill="#8a6b56" cx="61.60" cy="51.33" r="12.83"/></g><g transform="translate(0 160.67)"><rect fill="#dfd5bd" x="0" y="0" width="102.67" height="102.67"/><circle fill="#79a199" cx="30.80" cy="25.67" r="20.53"/><circle fill="#40555a" cx="61.60" cy="46.20" r="30.80"/><circle fill="#cf4e23" cx="35.93" cy="71.87" r="25.67"/><circle fill="#8a6b56" cx="71.87" cy="71.87" r="20.53"/><circle fill="#af9682" cx="61.60" cy="51.33" r="12.83"/></g><g transform="translate(107.67 160.67)"><rect fill="#79a199" x="0" y="0" width="102.67" height="102.67"/><circle fill="#40555a" cx="30.80" cy="25.67" r="20.53"/><circle fill="#cf4e23" cx="61.60" cy="46.20" r="30.80"/><circle fill="#8a6b56" cx="35.93" cy="71.87" r="25.67"/><circle fill="#af9682" cx="71.87" cy="71.87" r="20.53"/><circle fill="#dfd5bd" cx="61.60" cy="51.33" r="12.83"/></g><g transform="translate(215.33 160.67)"><rect fill="#40555a" x="0" y="0" width="102.67" height="102.67"/><circle fill="#cf4e23" cx="30.80" cy="25.67" r="20.53"/><circle fill="#8a6b56" cx="61.60" cy="46.20" r="30.80"/><circle fill="#af9682" cx="35.93" cy="71.87" r="25.67"/><circle fill="#dfd5bd" cx="71.87" cy="71.87" r="20.53"/><circle fill="#79a199" cx="61.60" cy="51.33" r="12.83"/></g></svg>