<svg version="1.1" xmlns="http://www.w3.org/2000/svg" xmlns:xlink="http://www.w3.org/1999/xlink" width="318" height="263.33333333333337"><g transform="translate(24 24)"><circle fill="#9f7374" cx="0" cy="0" r="24"/><circle fill="#d3ac98" cx="53" cy="0" r="24"/><circle fill="#edd2bd" cx="106" cy="0" r="24"/><circle fill="#c4ddf0" cx="159" cy="0" r="24"/><circle fill="#9aadcf" cx="212" cy="0" r="24"/><circle fill="#354372" cx="265" cy="0" r="24"/></g><g transform="translate(0 53)"><rect fill="#9f7374" x="0" y="0" width="102.67" height="102.67"/><circle fill="#d3ac98" cx="30.80" cy="25.67" r="20.53"/><circle fill="#edd2bd" cx="61.60" cy="46.20" r="30.80"/><circle fill="#c4ddf0" cx="35.93" cy="71.87" r="25.67"/><circle fill="#9aadcf" cx="71.87" cy="71.87" r="20.53"/><circle fill="#354372" cx="61.60" cy="51.33" r="12.83"/></g><g transform="translate(107.67 53)"><rect fill="#d3ac98" x="0" y="0" width="102.67" height="102.67"/><circle fill="#edd2bd" cx="30.80" cy="25.67" r="20.53"/><circle fill="#c4ddf0" cx="61.60" cy="46.20" r="30.80"/><circle fill="#9aadcf" cx="35.93" cy="71.87" r="25.67"/><circle fill="#354372" cx="71.87" cy="71.87" r="20.53"/><circle fill="#9f7374" cx="61.60" cy="51.33" r="12.83"/></g><g transform="translate(215.33 53)"><rect fill="#edd2bd" x="0" y="0" width="102.67" height="102.67"/><circle fill="#c4ddf0" cx="30.80" cy="25.67" r="20.53"/><circle fill="#9aadcf" cx="61.60" cy="46.20" r="30.80"/><circle fill="#354372" cx="35.93" cy="71.87" r="25.67"/><circle fill="#9f7374" cx="71.87" cy="71.87" r="20.53"/><circle fill="#d3ac98" cx="61.60" cy="51.33" r="12.83"/></g><g transform="translate(0 160.67)"><rect fill="#c4ddf0" x="0" y="0" width="102.67" height="102.67"/><circle fill="#9aadcf" cx="30.80" cy="25.67" r="20.53"/><circle fill="#354372" cx="61.60" cy="46.20" r="30.80"/><circle fill="#9f7374" cx="35.93" cy="71.87" r="25.67"/><circle fill="#d3ac98" cx="71.87" cy="71.87" r="20.53"/><circle fill="#edd2bd" cx="61.60" cy="51.33" r="12.83"/></g><g transform="translate(107.67 160.67)"><rect fill="#9aadcf" x="0" y="0" width="102.67" height="102.67"/><circle fill="#354372" cx="30.80" cy="25.67" r="20.53"/><circle fill="#9f7374" cx="61.60" cy="46.20" r="30.80"/><circle fill="#d3ac98" cx="35.93" cy="71.87" r="25.67"/><circle fill="#edd2bd" cx="71.87" cy="71.87" r="20.53"/><circle fill="#c4ddf0" cx="61.60" cy="51.33" r="12.83"/></g><g transform="translate(215.33 160.67)"><rect fill="#354372" x="0" y="0" width="102.67" height="102.67"/><circle fill="#9f7374" cx="30.80" cy="25.67" r="20.53"/><circle fill="#d3ac98" cx="61.60" cy="46.20" r="30.80"/><circle fill="#edd2bd" cx="35.93" cy="71.87" r="25.67"/><circle fill="#c4ddf0" cx="71.87" cy="71.87" r="20.53"/><circle fill="#9aadcf" cx="61.60" cy="51.33" r="12.83"/></g></svg>