<svg version="1.1" xmlns="http://www.w3.org/2000/svg" xmlns:xlink="http://www.w3.org/1999/xlink" width="318" height="263.33"><g transform="translate(24 24)"><circle fill="#284c5a" cx="0" cy="0" r="24"/><circle fill="#3e5c64" cx="53" cy="0" r="24"/><circle fill="#714a37" cx="106" cy="0" r="24"/><circle fill="#976950" cx="159" cy="0" r="24"/><circle fill="#a19081" cx="212" cy="0" r="24"/><circle fill="#b2aea5" cx="265" cy="0" r="24"/></g><g transform="translate(0 53)"><rect fill="#284c5a" x="0" y="0" width="102.67" height="102.67"/><circle fill="#3e5c64" cx="30.80" cy="25.67" r="20.53"/><circle fill="#714a37" cx="61.60" cy="46.20" r="30.80"/><circle fill="#976950" cx="35.93" cy="71.87" r="25.67"/><circle fill="#a19081" cx="71.87" cy="71.87" r="20.53"/><circle fill="#b2aea5" cx="61.60" cy="51.33" r="12.83"/></g><g transform="translate(107.67 53)"><rect fill="#3e5c64" x="0" y="0" width="102.67" height="102.67"/><circle fill="#714a37" cx="30.80" cy="25.67" r="20.53"/><circle fill="#976950" cx="61.60" cy="46.20" r="30.80"/><circle fill="#a19081" cx="35.93" cy="71.87" r="25.67"/><circle fill="#b2aea5" cx="71.87" cy="71.87" r="20.53"/><circle fill="#284c5a" cx="61.60" cy="51.33" r="12.83"/></g><g transform="translate(215.33 53)"><rect fill="#714a37" x="0" y="0" width="102.67" height="102.67"/><circle fill="#976950" cx="30.80" cy="25.67" r="20.53"/><circle fill="#a19081" cx="61.60" cy="46.20" r="30.80"/><circle fill="#b2aea5" cx="35.93" cy="71.87" r="25.67"/><circle fill="#284c5a" cx="71.87" cy="71.87" r="20.53"/><circle fill="#3e5c64" cx="61.60" cy="51.33" r="12.83"/></g><g transform="translate(0 160.67)"><rect fill="#976950" x="0" y="0" width="102.67" height="102.67"/><circle fill="#a19081" cx="30.80" cy="25.67" r="20.53"/><circle fill="#b2aea5" cx="61.60" cy="46.20" r="30.80"/><circle fill="#284c5a" cx="35.93" cy="71.87" r="25.67"/><circle fill="#3e5c64" cx="71.87" cy="71.87" r="20.53"/><circle fill="#714a37" cx="61.60" cy="51.33" r="12.83"/></g><g transform="translate(107.67 160.67)"><rect fill="#a19081" x="0" y="0" width="102.67" height="102.67"/><circle fill="#b2aea5" cx="30.80" cy="25.67" r="20.53"/><circle fill="#284c5a" cx="61.60" cy="46.20" r="30.80"/><circle fill="#3e5c64" cx="35.93" cy="71.87" r="25.67"/><circle fill="#714a37" cx="71.87" cy="71.87" r="20.53"/><circle fill="#976950" cx="61.60" cy="51.33" r="12.83"/></g><g transform="translate(215.33 160.67)"><rect fill="#b2aea5" x="0" y="0" width="102.67" height="102.67"/><circle fill="#284c5a" cx="30.80" cy="25.67" r="20.53"/><circle fill="#3e5c64" cx="61.60" cy="46.20" r="30.80"/><circle fill="#714a37" cx="35.93" cy="71.87" r="25.67"/><circle fill="#976950" cx="71.87" cy="71.87" r="20.53"/><circle fill="#a19081" cx="61.60" cy="51.33" r="12.83"/></g></svg>