<svg version="1.1" xmlns="http://www.w3.org/2000/svg" xmlns:xlink="http://www.w3.org/1999/xlink" width="318" height="263.33"><g transform="translate(24 24)"><circle fill="#2e361c" cx="0" cy="0" r="24"/><circle fill="#707814" cx="53" cy="0" r="24"/><circle fill="#ada713" cx="106" cy="0" r="24"/><circle fill="#c1d2cd" cx="159" cy="0" r="24"/><circle fill="#7ba7b5" cx="212" cy="0" r="24"/><circle fill="#3c758f" cx="265" cy="0" r="24"/></g><g transform="translate(0 53)"><rect fill="#2e361c" x="0" y="0" width="102.67" height="102.67"/><circle fill="#707814" cx="30.80" cy="25.67" r="20.53"/><circle fill="#ada713" cx="61.60" cy="46.20" r="30.80"/><circle fill="#c1d2cd" cx="35.93" cy="71.87" r="25.67"/><circle fill="#7ba7b5" cx="71.87" cy="71.87" r="20.53"/><circle fill="#3c758f" cx="61.60" cy="51.33" r="12.83"/></g><g transform="translate(107.67 53)"><rect fill="#707814" x="0" y="0" width="102.67" height="102.67"/><circle fill="#ada713" cx="30.80" cy="25.67" r="20.53"/><circle fill="#c1d2cd" cx="61.60" cy="46.20" r="30.80"/><circle fill="#7ba7b5" cx="35.93" cy="71.87" r="25.67"/><circle fill="#3c758f" cx="71.87" cy="71.87" r="20.53"/><circle fill="#2e361c" cx="61.60" cy="51.33" r="12.83"/></g><g transform="translate(215.33 53)"><rect fill="#ada713" x="0" y="0" width="102.67" height="102.67"/><circle fill="#c1d2cd" cx="30.80" cy="25.67" r="20.53"/><circle fill="#7ba7b5" cx="61.60" cy="46.20" r="30.80"/><circle fill="#3c758f" cx="35.93" cy="71.87" r="25.67"/><circle fill="#2e361c" cx="71.87" cy="71.87" r="20.53"/><circle fill="#707814" cx="61.60" cy="51.33" r="12.83"/></g><g transform="translate(0 160.67)"><rect fill="#c1d2cd" x="0" y="0" width="102.67" height="102.67"/><circle fill="#7ba7b5" cx="30.80" cy="25.67" r="20.53"/><circle fill="#3c758f" cx="61.60" cy="46.20" r="30.80"/><circle fill="#2e361c" cx="35.93" cy="71.87" r="25.67"/><circle fill="#707814" cx="71.87" cy="71.87" r="20.53"/><circle fill="#ada713" cx="61.60" cy="51.33" r="12.83"/></g><g transform="translate(107.67 160.67)"><rect fill="#7ba7b5" x="0" y="0" width="102.67" height="102.67"/><circle fill="#3c758f" cx="30.80" cy="25.67" r="20.53"/><circle fill="#2e361c" cx="61.60" cy="46.20" r="30.80"/><circle fill="#707814" cx="35.93" cy="71.87" r="25.67"/><circle fill="#ada713" cx="71.87" cy="71.87" r="20.53"/><circle fill="#c1d2cd" cx="61.60" cy="51.33" r="12.83"/></g><g transform="translate(215.33 160.67)"><rect fill="#3c758f" x="0" y="0" width="102.67" height="102.67"/><circle fill="#2e361c" cx="30.80" cy="25.67" r="20.53"/><circle fill="#707814" cx="61.60" cy="46.20" r="30.80"/><circle fill="#ada713" cx="35.93" cy="71.87" r="25.67"/><circle fill="#c1d2cd" cx="71.87" cy="71.87" r="20.53"/><circle fill="#7ba7b5" cx="61.60" cy="51.33" r="12.83"/></g></svg>