<svg version="1.1" xmlns="http://www.w3.org/2000/svg" xmlns:xlink="http://www.w3.org/1999/xlink" width="318" height="263.33"><g transform="translate(24 24)"><circle fill="#686565" cx="0" cy="0" r="24"/><circle fill="#888986" cx="53" cy="0" r="24"/><circle fill="#56110d" cx="106" cy="0" r="24"/><circle fill="#92342a" cx="159" cy="0" r="24"/><circle fill="#d87f6e" cx="212" cy="0" r="24"/><circle fill="#f4cbb0" cx="265" cy="0" r="24"/></g><g transform="translate(0 53)"><rect fill="#686565" x="0" y="0" width="102.67" height="102.67"/><circle fill="#888986" cx="30.80" cy="25.67" r="20.53"/><circle fill="#56110d" cx="61.60" cy="46.20" r="30.80"/><circle fill="#92342a" cx="35.93" cy="71.87" r="25.67"/><circle fill="#d87f6e" cx="71.87" cy="71.87" r="20.53"/><circle fill="#f4cbb0" cx="61.60" cy="51.33" r="12.83"/></g><g transform="translate(107.67 53)"><rect fill="#888986" x="0" y="0" width="102.67" height="102.67"/><circle fill="#56110d" cx="30.80" cy="25.67" r="20.53"/><circle fill="#92342a" cx="61.60" cy="46.20" r="30.80"/><circle fill="#d87f6e" cx="35.93" cy="71.87" r="25.67"/><circle fill="#f4cbb0" cx="71.87" cy="71.87" r="20.53"/><circle fill="#686565" cx="61.60" cy="51.33" r="12.83"/></g><g transform="translate(215.33 53)"><rect fill="#56110d" x="0" y="0" width="102.67" height="102.67"/><circle fill="#92342a" cx="30.80" cy="25.67" r="20.53"/><circle fill="#d87f6e" cx="61.60" cy="46.20" r="30.80"/><circle fill="#f4cbb0" cx="35.93" cy="71.87" r="25.67"/><circle fill="#686565" cx="71.87" cy="71.87" r="20.53"/><circle fill="#888986" cx="61.60" cy="51.33" r="12.83"/></g><g transform="translate(0 160.67)"><rect fill="#92342a" x="0" y="0" width="102.67" height="102.67"/><circle fill="#d87f6e" cx="30.80" cy="25.67" r="20.53"/><circle fill="#f4cbb0" cx="61.60" cy="46.20" r="30.80"/><circle fill="#686565" cx="35.93" cy="71.87" r="25.67"/><circle fill="#888986" cx="71.87" cy="71.87" r="20.53"/><circle fill="#56110d" cx="61.60" cy="51.33" r="12.83"/></g><g transform="translate(107.67 160.67)"><rect fill="#d87f6e" x="0" y="0" width="102.67" height="102.67"/><circle fill="#f4cbb0" cx="30.80" cy="25.67" r="20.53"/><circle fill="#686565" cx="61.60" cy="46.20" r="30.80"/><circle fill="#888986" cx="35.93" cy="71.87" r="25.67"/><circle fill="#56110d" cx="71.87" cy="71.87" r="20.53"/><circle fill="#92342a" cx="61.60" cy="51.33" r="12.83"/></g><g transform="translate(215.33 160.67)"><rect fill="#f4cbb0" x="0" y="0" width="102.67" height="102.67"/><circle fill="#686565" cx="30.80" cy="25.67" r="20.53"/><circle fill="#888986" cx="61.60" cy="46.20" r="30.80"/><circle fill="#56110d" cx="35.93" cy="71.87" r="25.67"/><circle fill="#92342a" cx="71.87" cy="71.87" r="20.53"/><circle fill="#d87f6e" cx="61.60" cy="51.33" r="12.83"/></g></svg>