<svg version="1.1" xmlns="http://www.w3.org/2000/svg" xmlns:xlink="http://www.w3.org/1999/xlink" width="318" height="263.33333333333337"><g transform="translate(24 24)"><circle fill="#440807" cx="0" cy="0" r="24"/><circle fill="#6c0f0b" cx="53" cy="0" r="24"/><circle fill="#910711" cx="106" cy="0" r="24"/><circle fill="#8c4c2a" cx="159" cy="0" r="24"/><circle fill="#b87d4e" cx="212" cy="0" r="24"/><circle fill="#d9b995" cx="265" cy="0" r="24"/></g><g transform="translate(0 53)"><rect fill="#440807" x="0" y="0" width="102.67" height="102.67"/><circle fill="#6c0f0b" cx="30.80" cy="25.67" r="20.53"/><circle fill="#910711" cx="61.60" cy="46.20" r="30.80"/><circle fill="#8c4c2a" cx="35.93" cy="71.87" r="25.67"/><circle fill="#b87d4e" cx="71.87" cy="71.87" r="20.53"/><circle fill="#d9b995" cx="61.60" cy="51.33" r="12.83"/></g><g transform="translate(107.67 53)"><rect fill="#6c0f0b" x="0" y="0" width="102.67" height="102.67"/><circle fill="#910711" cx="30.80" cy="25.67" r="20.53"/><circle fill="#8c4c2a" cx="61.60" cy="46.20" r="30.80"/><circle fill="#b87d4e" cx="35.93" cy="71.87" r="25.67"/><circle fill="#d9b995" cx="71.87" cy="71.87" r="20.53"/><circle fill="#440807" cx="61.60" cy="51.33" r="12.83"/></g><g transform="translate(215.33 53)"><rect fill="#910711" x="0" y="0" width="102.67" height="102.67"/><circle fill="#8c4c2a" cx="30.80" cy="25.67" r="20.53"/><circle fill="#b87d4e" cx="61.60" cy="46.20" r="30.80"/><circle fill="#d9b995" cx="35.93" cy="71.87" r="25.67"/><circle fill="#440807" cx="71.87" cy="71.87" r="20.53"/><circle fill="#6c0f0b" cx="61.60" cy="51.33" r="12.83"/></g><g transform="translate(0 160.67)"><rect fill="#8c4c2a" x="0" y="0" width="102.67" height="102.67"/><circle fill="#b87d4e" cx="30.80" cy="25.67" r="20.53"/><circle fill="#d9b995" cx="61.60" cy="46.20" r="30.80"/><circle fill="#440807" cx="35.93" cy="71.87" r="25.67"/><circle fill="#6c0f0b" cx="71.87" cy="71.87" r="20.53"/><circle fill="#910711" cx="61.60" cy="51.33" r="12.83"/></g><g transform="translate(107.67 160.67)"><rect fill="#b87d4e" x="0" y="0" width="102.67" height="102.67"/><circle fill="#d9b995" cx="30.80" cy="25.67" r="20.53"/><circle fill="#440807" cx="61.60" cy="46.20" r="30.80"/><circle fill="#6c0f0b" cx="35.93" cy="71.87" r="25.67"/><circle fill="#910711" cx="71.87" cy="71.87" r="20.53"/><circle fill="#8c4c2a" cx="61.60" cy="51.33" r="12.83"/></g><g transform="translate(215.33 160.67)"><rect fill="#d9b995" x="0" y="0" width="102.67" height="102.67"/><circle fill="#440807" cx="30.80" cy="25.67" r="20.53"/><circle fill="#6c0f0b" cx="61.60" cy="46.20" r="30.80"/><circle fill="#910711" cx="35.93" cy="71.87" r="25.67"/><circle fill="#8c4c2a" cx="71.87" cy="71.87" r="20.53"/><circle fill="#b87d4e" cx="61.60" cy="51.33" r="12.83"/></g></svg>