<svg version="1.1" xmlns="http://www.w3.org/2000/svg" xmlns:xlink="http://www.w3.org/1999/xlink" width="318" height="263.33333333333337"><g transform="translate(24 24)"><circle fill="#150a23" cx="0" cy="0" r="24"/><circle fill="#3c0f3f" cx="53" cy="0" r="24"/><circle fill="#591962" cx="106" cy="0" r="24"/><circle fill="#493b92" cx="159" cy="0" r="24"/><circle fill="#5465af" cx="212" cy="0" r="24"/><circle fill="#6175b8" cx="265" cy="0" r="24"/></g><g transform="translate(0 53)"><rect fill="#150a23" x="0" y="0" width="102.67" height="102.67"/><circle fill="#3c0f3f" cx="30.80" cy="25.67" r="20.53"/><circle fill="#591962" cx="61.60" cy="46.20" r="30.80"/><circle fill="#493b92" cx="35.93" cy="71.87" r="25.67"/><circle fill="#5465af" cx="71.87" cy="71.87" r="20.53"/><circle fill="#6175b8" cx="61.60" cy="51.33" r="12.83"/></g><g transform="translate(107.67 53)"><rect fill="#3c0f3f" x="0" y="0" width="102.67" height="102.67"/><circle fill="#591962" cx="30.80" cy="25.67" r="20.53"/><circle fill="#493b92" cx="61.60" cy="46.20" r="30.80"/><circle fill="#5465af" cx="35.93" cy="71.87" r="25.67"/><circle fill="#6175b8" cx="71.87" cy="71.87" r="20.53"/><circle fill="#150a23" cx="61.60" cy="51.33" r="12.83"/></g><g transform="translate(215.33 53)"><rect fill="#591962" x="0" y="0" width="102.67" height="102.67"/><circle fill="#493b92" cx="30.80" cy="25.67" r="20.53"/><circle fill="#5465af" cx="61.60" cy="46.20" r="30.80"/><circle fill="#6175b8" cx="35.93" cy="71.87" r="25.67"/><circle fill="#150a23" cx="71.87" cy="71.87" r="20.53"/><circle fill="#3c0f3f" cx="61.60" cy="51.33" r="12.83"/></g><g transform="translate(0 160.67)"><rect fill="#493b92" x="0" y="0" width="102.67" height="102.67"/><circle fill="#5465af" cx="30.80" cy="25.67" r="20.53"/><circle fill="#6175b8" cx="61.60" cy="46.20" r="30.80"/><circle fill="#150a23" cx="35.93" cy="71.87" r="25.67"/><circle fill="#3c0f3f" cx="71.87" cy="71.87" r="20.53"/><circle fill="#591962" cx="61.60" cy="51.33" r="12.83"/></g><g transform="translate(107.67 160.67)"><rect fill="#5465af" x="0" y="0" width="102.67" height="102.67"/><circle fill="#6175b8" cx="30.80" cy="25.67" r="20.53"/><circle fill="#150a23" cx="61.60" cy="46.20" r="30.80"/><circle fill="#3c0f3f" cx="35.93" cy="71.87" r="25.67"/><circle fill="#591962" cx="71.87" cy="71.87" r="20.53"/><circle fill="#493b92" cx="61.60" cy="51.33" r="12.83"/></g><g transform="translate(215.33 160.67)"><rect fill="#6175b8" x="0" y="0" width="102.67" height="102.67"/><circle fill="#150a23" cx="30.80" cy="25.67" r="20.53"/><circle fill="#3c0f3f" cx="61.60" cy="46.20" r="30.80"/><circle fill="#591962" cx="35.93" cy="71.87" r="25.67"/><circle fill="#493b92" cx="71.87" cy="71.87" r="20.53"/><circle fill="#5465af" cx="61.60" cy="51.33" r="12.83"/></g></svg>