<svg version="1.1" xmlns="http://www.w3.org/2000/svg" xmlns:xlink="http://www.w3.org/1999/xlink" width="318" height="263.33"><g transform="translate(24 24)"><circle fill="#be1f1c" cx="0" cy="0" r="24"/><circle fill="#73160c" cx="53" cy="0" r="24"/><circle fill="#d28874" cx="106" cy="0" r="24"/><circle fill="#ecdfda" cx="159" cy="0" r="24"/><circle fill="#746647" cx="212" cy="0" r="24"/><circle fill="#262412" cx="265" cy="0" r="24"/></g><g transform="translate(0 53)"><rect fill="#be1f1c" x="0" y="0" width="102.67" height="102.67"/><circle fill="#73160c" cx="30.80" cy="25.67" r="20.53"/><circle fill="#d28874" cx="61.60" cy="46.20" r="30.80"/><circle fill="#ecdfda" cx="35.93" cy="71.87" r="25.67"/><circle fill="#746647" cx="71.87" cy="71.87" r="20.53"/><circle fill="#262412" cx="61.60" cy="51.33" r="12.83"/></g><g transform="translate(107.67 53)"><rect fill="#73160c" x="0" y="0" width="102.67" height="102.67"/><circle fill="#d28874" cx="30.80" cy="25.67" r="20.53"/><circle fill="#ecdfda" cx="61.60" cy="46.20" r="30.80"/><circle fill="#746647" cx="35.93" cy="71.87" r="25.67"/><circle fill="#262412" cx="71.87" cy="71.87" r="20.53"/><circle fill="#be1f1c" cx="61.60" cy="51.33" r="12.83"/></g><g transform="translate(215.33 53)"><rect fill="#d28874" x="0" y="0" width="102.67" height="102.67"/><circle fill="#ecdfda" cx="30.80" cy="25.67" r="20.53"/><circle fill="#746647" cx="61.60" cy="46.20" r="30.80"/><circle fill="#262412" cx="35.93" cy="71.87" r="25.67"/><circle fill="#be1f1c" cx="71.87" cy="71.87" r="20.53"/><circle fill="#73160c" cx="61.60" cy="51.33" r="12.83"/></g><g transform="translate(0 160.67)"><rect fill="#ecdfda" x="0" y="0" width="102.67" height="102.67"/><circle fill="#746647" cx="30.80" cy="25.67" r="20.53"/><circle fill="#262412" cx="61.60" cy="46.20" r="30.80"/><circle fill="#be1f1c" cx="35.93" cy="71.87" r="25.67"/><circle fill="#73160c" cx="71.87" cy="71.87" r="20.53"/><circle fill="#d28874" cx="61.60" cy="51.33" r="12.83"/></g><g transform="translate(107.67 160.67)"><rect fill="#746647" x="0" y="0" width="102.67" height="102.67"/><circle fill="#262412" cx="30.80" cy="25.67" r="20.53"/><circle fill="#be1f1c" cx="61.60" cy="46.20" r="30.80"/><circle fill="#73160c" cx="35.93" cy="71.87" r="25.67"/><circle fill="#d28874" cx="71.87" cy="71.87" r="20.53"/><circle fill="#ecdfda" cx="61.60" cy="51.33" r="12.83"/></g><g transform="translate(215.33 160.67)"><rect fill="#262412" x="0" y="0" width="102.67" height="102.67"/><circle fill="#be1f1c" cx="30.80" cy="25.67" r="20.53"/><circle fill="#73160c" cx="61.60" cy="46.20" r="30.80"/><circle fill="#d28874" cx="35.93" cy="71.87" r="25.67"/><circle fill="#ecdfda" cx="71.87" cy="71.87" r="20.53"/><circle fill="#746647" cx="61.60" cy="51.33" r="12.83"/></g></svg>