<svg version="1.1" xmlns="http://www.w3.org/2000/svg" xmlns:xlink="http://www.w3.org/1999/xlink" width="318" height="263.33"><g transform="translate(24 24)"><circle fill="#392418" cx="0" cy="0" r="24"/><circle fill="#6d2c23" cx="53" cy="0" r="24"/><circle fill="#ac2d25" cx="106" cy="0" r="24"/><circle fill="#d8ada6" cx="159" cy="0" r="24"/><circle fill="#f4ca49" cx="212" cy="0" r="24"/><circle fill="#f4d9a4" cx="265" cy="0" r="24"/></g><g transform="translate(0 53)"><rect fill="#392418" x="0" y="0" width="102.67" height="102.67"/><circle fill="#6d2c23" cx="30.80" cy="25.67" r="20.53"/><circle fill="#ac2d25" cx="61.60" cy="46.20" r="30.80"/><circle fill="#d8ada6" cx="35.93" cy="71.87" r="25.67"/><circle fill="#f4ca49" cx="71.87" cy="71.87" r="20.53"/><circle fill="#f4d9a4" cx="61.60" cy="51.33" r="12.83"/></g><g transform="translate(107.67 53)"><rect fill="#6d2c23" x="0" y="0" width="102.67" height="102.67"/><circle fill="#ac2d25" cx="30.80" cy="25.67" r="20.53"/><circle fill="#d8ada6" cx="61.60" cy="46.20" r="30.80"/><circle fill="#f4ca49" cx="35.93" cy="71.87" r="25.67"/><circle fill="#f4d9a4" cx="71.87" cy="71.87" r="20.53"/><circle fill="#392418" cx="61.60" cy="51.33" r="12.83"/></g><g transform="translate(215.33 53)"><rect fill="#ac2d25" x="0" y="0" width="102.67" height="102.67"/><circle fill="#d8ada6" cx="30.80" cy="25.67" r="20.53"/><circle fill="#f4ca49" cx="61.60" cy="46.20" r="30.80"/><circle fill="#f4d9a4" cx="35.93" cy="71.87" r="25.67"/><circle fill="#392418" cx="71.87" cy="71.87" r="20.53"/><circle fill="#6d2c23" cx="61.60" cy="51.33" r="12.83"/></g><g transform="translate(0 160.67)"><rect fill="#d8ada6" x="0" y="0" width="102.67" height="102.67"/><circle fill="#f4ca49" cx="30.80" cy="25.67" r="20.53"/><circle fill="#f4d9a4" cx="61.60" cy="46.20" r="30.80"/><circle fill="#392418" cx="35.93" cy="71.87" r="25.67"/><circle fill="#6d2c23" cx="71.87" cy="71.87" r="20.53"/><circle fill="#ac2d25" cx="61.60" cy="51.33" r="12.83"/></g><g transform="translate(107.67 160.67)"><rect fill="#f4ca49" x="0" y="0" width="102.67" height="102.67"/><circle fill="#f4d9a4" cx="30.80" cy="25.67" r="20.53"/><circle fill="#392418" cx="61.60" cy="46.20" r="30.80"/><circle fill="#6d2c23" cx="35.93" cy="71.87" r="25.67"/><circle fill="#ac2d25" cx="71.87" cy="71.87" r="20.53"/><circle fill="#d8ada6" cx="61.60" cy="51.33" r="12.83"/></g><g transform="translate(215.33 160.67)"><rect fill="#f4d9a4" x="0" y="0" width="102.67" height="102.67"/><circle fill="#392418" cx="30.80" cy="25.67" r="20.53"/><circle fill="#6d2c23" cx="61.60" cy="46.20" r="30.80"/><circle fill="#ac2d25" cx="35.93" cy="71.87" r="25.67"/><circle fill="#d8ada6" cx="71.87" cy="71.87" r="20.53"/><circle fill="#f4ca49" cx="61.60" cy="51.33" r="12.83"/></g></svg>