<svg version="1.1" xmlns="http://www.w3.org/2000/svg" xmlns:xlink="http://www.w3.org/1999/xlink" width="318" height="263.33"><g transform="translate(24 24)"><circle fill="#181f15" cx="0" cy="0" r="24"/><circle fill="#2e4846" cx="53" cy="0" r="24"/><circle fill="#571b10" cx="106" cy="0" r="24"/><circle fill="#991912" cx="159" cy="0" r="24"/><circle fill="#c15a36" cx="212" cy="0" r="24"/><circle fill="#eba56c" cx="265" cy="0" r="24"/></g><g transform="translate(0 53)"><rect fill="#181f15" x="0" y="0" width="102.67" height="102.67"/><circle fill="#2e4846" cx="30.80" cy="25.67" r="20.53"/><circle fill="#571b10" cx="61.60" cy="46.20" r="30.80"/><circle fill="#991912" cx="35.93" cy="71.87" r="25.67"/><circle fill="#c15a36" cx="71.87" cy="71.87" r="20.53"/><circle fill="#eba56c" cx="61.60" cy="51.33" r="12.83"/></g><g transform="translate(107.67 53)"><rect fill="#2e4846" x="0" y="0" width="102.67" height="102.67"/><circle fill="#571b10" cx="30.80" cy="25.67" r="20.53"/><circle fill="#991912" cx="61.60" cy="46.20" r="30.80"/><circle fill="#c15a36" cx="35.93" cy="71.87" r="25.67"/><circle fill="#eba56c" cx="71.87" cy="71.87" r="20.53"/><circle fill="#181f15" cx="61.60" cy="51.33" r="12.83"/></g><g transform="translate(215.33 53)"><rect fill="#571b10" x="0" y="0" width="102.67" height="102.67"/><circle fill="#991912" cx="30.80" cy="25.67" r="20.53"/><circle fill="#c15a36" cx="61.60" cy="46.20" r="30.80"/><circle fill="#eba56c" cx="35.93" cy="71.87" r="25.67"/><circle fill="#181f15" cx="71.87" cy="71.87" r="20.53"/><circle fill="#2e4846" cx="61.60" cy="51.33" r="12.83"/></g><g transform="translate(0 160.67)"><rect fill="#991912" x="0" y="0" width="102.67" height="102.67"/><circle fill="#c15a36" cx="30.80" cy="25.67" r="20.53"/><circle fill="#eba56c" cx="61.60" cy="46.20" r="30.80"/><circle fill="#181f15" cx="35.93" cy="71.87" r="25.67"/><circle fill="#2e4846" cx="71.87" cy="71.87" r="20.53"/><circle fill="#571b10" cx="61.60" cy="51.33" r="12.83"/></g><g transform="translate(107.67 160.67)"><rect fill="#c15a36" x="0" y="0" width="102.67" height="102.67"/><circle fill="#eba56c" cx="30.80" cy="25.67" r="20.53"/><circle fill="#181f15" cx="61.60" cy="46.20" r="30.80"/><circle fill="#2e4846" cx="35.93" cy="71.87" r="25.67"/><circle fill="#571b10" cx="71.87" cy="71.87" r="20.53"/><circle fill="#991912" cx="61.60" cy="51.33" r="12.83"/></g><g transform="translate(215.33 160.67)"><rect fill="#eba56c" x="0" y="0" width="102.67" height="102.67"/><circle fill="#181f15" cx="30.80" cy="25.67" r="20.53"/><circle fill="#2e4846" cx="61.60" cy="46.20" r="30.80"/><circle fill="#571b10" cx="35.93" cy="71.87" r="25.67"/><circle fill="#991912" cx="71.87" cy="71.87" r="20.53"/><circle fill="#c15a36" cx="61.60" cy="51.33" r="12.83"/></g></svg>