<svg version="1.1" xmlns="http://www.w3.org/2000/svg" xmlns:xlink="http://www.w3.org/1999/xlink" width="318" height="263.33"><g transform="translate(24 24)"><circle fill="#101012" cx="0" cy="0" r="24"/><circle fill="#973828" cx="53" cy="0" r="24"/><circle fill="#556150" cx="106" cy="0" r="24"/><circle fill="#8d9883" cx="159" cy="0" r="24"/><circle fill="#b1bca6" cx="212" cy="0" r="24"/><circle fill="#d6dac2" cx="265" cy="0" r="24"/></g><g transform="translate(0 53)"><rect fill="#101012" x="0" y="0" width="102.67" height="102.67"/><circle fill="#973828" cx="30.80" cy="25.67" r="20.53"/><circle fill="#556150" cx="61.60" cy="46.20" r="30.80"/><circle fill="#8d9883" cx="35.93" cy="71.87" r="25.67"/><circle fill="#b1bca6" cx="71.87" cy="71.87" r="20.53"/><circle fill="#d6dac2" cx="61.60" cy="51.33" r="12.83"/></g><g transform="translate(107.67 53)"><rect fill="#973828" x="0" y="0" width="102.67" height="102.67"/><circle fill="#556150" cx="30.80" cy="25.67" r="20.53"/><circle fill="#8d9883" cx="61.60" cy="46.20" r="30.80"/><circle fill="#b1bca6" cx="35.93" cy="71.87" r="25.67"/><circle fill="#d6dac2" cx="71.87" cy="71.87" r="20.53"/><circle fill="#101012" cx="61.60" cy="51.33" r="12.83"/></g><g transform="translate(215.33 53)"><rect fill="#556150" x="0" y="0" width="102.67" height="102.67"/><circle fill="#8d9883" cx="30.80" cy="25.67" r="20.53"/><circle fill="#b1bca6" cx="61.60" cy="46.20" r="30.80"/><circle fill="#d6dac2" cx="35.93" cy="71.87" r="25.67"/><circle fill="#101012" cx="71.87" cy="71.87" r="20.53"/><circle fill="#973828" cx="61.60" cy="51.33" r="12.83"/></g><g transform="translate(0 160.67)"><rect fill="#8d9883" x="0" y="0" width="102.67" height="102.67"/><circle fill="#b1bca6" cx="30.80" cy="25.67" r="20.53"/><circle fill="#d6dac2" cx="61.60" cy="46.20" r="30.80"/><circle fill="#101012" cx="35.93" cy="71.87" r="25.67"/><circle fill="#973828" cx="71.87" cy="71.87" r="20.53"/><circle fill="#556150" cx="61.60" cy="51.33" r="12.83"/></g><g transform="translate(107.67 160.67)"><rect fill="#b1bca6" x="0" y="0" width="102.67" height="102.67"/><circle fill="#d6dac2" cx="30.80" cy="25.67" r="20.53"/><circle fill="#101012" cx="61.60" cy="46.20" r="30.80"/><circle fill="#973828" cx="35.93" cy="71.87" r="25.67"/><circle fill="#556150" cx="71.87" cy="71.87" r="20.53"/><circle fill="#8d9883" cx="61.60" cy="51.33" r="12.83"/></g><g transform="translate(215.33 160.67)"><rect fill="#d6dac2" x="0" y="0" width="102.67" height="102.67"/><circle fill="#101012" cx="30.80" cy="25.67" r="20.53"/><circle fill="#973828" cx="61.60" cy="46.20" r="30.80"/><circle fill="#556150" cx="35.93" cy="71.87" r="25.67"/><circle fill="#8d9883" cx="71.87" cy="71.87" r="20.53"/><circle fill="#b1bca6" cx="61.60" cy="51.33" r="12.83"/></g></svg>