<svg version="1.1" xmlns="http://www.w3.org/2000/svg" xmlns:xlink="http://www.w3.org/1999/xlink" width="318" height="263.33"><g transform="translate(24 24)"><circle fill="#241912" cx="0" cy="0" r="24"/><circle fill="#7e1c13" cx="53" cy="0" r="24"/><circle fill="#d95832" cx="106" cy="0" r="24"/><circle fill="#525e62" cx="159" cy="0" r="24"/><circle fill="#b9a68c" cx="212" cy="0" r="24"/><circle fill="#e3d7c0" cx="265" cy="0" r="24"/></g><g transform="translate(0 53)"><rect fill="#241912" x="0" y="0" width="102.67" height="102.67"/><circle fill="#7e1c13" cx="30.80" cy="25.67" r="20.53"/><circle fill="#d95832" cx="61.60" cy="46.20" r="30.80"/><circle fill="#525e62" cx="35.93" cy="71.87" r="25.67"/><circle fill="#b9a68c" cx="71.87" cy="71.87" r="20.53"/><circle fill="#e3d7c0" cx="61.60" cy="51.33" r="12.83"/></g><g transform="translate(107.67 53)"><rect fill="#7e1c13" x="0" y="0" width="102.67" height="102.67"/><circle fill="#d95832" cx="30.80" cy="25.67" r="20.53"/><circle fill="#525e62" cx="61.60" cy="46.20" r="30.80"/><circle fill="#b9a68c" cx="35.93" cy="71.87" r="25.67"/><circle fill="#e3d7c0" cx="71.87" cy="71.87" r="20.53"/><circle fill="#241912" cx="61.60" cy="51.33" r="12.83"/></g><g transform="translate(215.33 53)"><rect fill="#d95832" x="0" y="0" width="102.67" height="102.67"/><circle fill="#525e62" cx="30.80" cy="25.67" r="20.53"/><circle fill="#b9a68c" cx="61.60" cy="46.20" r="30.80"/><circle fill="#e3d7c0" cx="35.93" cy="71.87" r="25.67"/><circle fill="#241912" cx="71.87" cy="71.87" r="20.53"/><circle fill="#7e1c13" cx="61.60" cy="51.33" r="12.83"/></g><g transform="translate(0 160.67)"><rect fill="#525e62" x="0" y="0" width="102.67" height="102.67"/><circle fill="#b9a68c" cx="30.80" cy="25.67" r="20.53"/><circle fill="#e3d7c0" cx="61.60" cy="46.20" r="30.80"/><circle fill="#241912" cx="35.93" cy="71.87" r="25.67"/><circle fill="#7e1c13" cx="71.87" cy="71.87" r="20.53"/><circle fill="#d95832" cx="61.60" cy="51.33" r="12.83"/></g><g transform="translate(107.67 160.67)"><rect fill="#b9a68c" x="0" y="0" width="102.67" height="102.67"/><circle fill="#e3d7c0" cx="30.80" cy="25.67" r="20.53"/><circle fill="#241912" cx="61.60" cy="46.20" r="30.80"/><circle fill="#7e1c13" cx="35.93" cy="71.87" r="25.67"/><circle fill="#d95832" cx="71.87" cy="71.87" r="20.53"/><circle fill="#525e62" cx="61.60" cy="51.33" r="12.83"/></g><g transform="translate(215.33 160.67)"><rect fill="#e3d7c0" x="0" y="0" width="102.67" height="102.67"/><circle fill="#241912" cx="30.80" cy="25.67" r="20.53"/><circle fill="#7e1c13" cx="61.60" cy="46.20" r="30.80"/><circle fill="#d95832" cx="35.93" cy="71.87" r="25.67"/><circle fill="#525e62" cx="71.87" cy="71.87" r="20.53"/><circle fill="#b9a68c" cx="61.60" cy="51.33" r="12.83"/></g></svg>