<svg version="1.1" xmlns="http://www.w3.org/2000/svg" xmlns:xlink="http://www.w3.org/1999/xlink" width="318" height="263.33"><g transform="translate(24 24)"><circle fill="#200a0e" cx="0" cy="0" r="24"/><circle fill="#73263e" cx="53" cy="0" r="24"/><circle fill="#8a84a0" cx="106" cy="0" r="24"/><circle fill="#06739b" cx="159" cy="0" r="24"/><circle fill="#10abca" cx="212" cy="0" r="24"/><circle fill="#8dccdc" cx="265" cy="0" r="24"/></g><g transform="translate(0 53)"><rect fill="#200a0e" x="0" y="0" width="102.67" height="102.67"/><circle fill="#73263e" cx="30.80" cy="25.67" r="20.53"/><circle fill="#8a84a0" cx="61.60" cy="46.20" r="30.80"/><circle fill="#06739b" cx="35.93" cy="71.87" r="25.67"/><circle fill="#10abca" cx="71.87" cy="71.87" r="20.53"/><circle fill="#8dccdc" cx="61.60" cy="51.33" r="12.83"/></g><g transform="translate(107.67 53)"><rect fill="#73263e" x="0" y="0" width="102.67" height="102.67"/><circle fill="#8a84a0" cx="30.80" cy="25.67" r="20.53"/><circle fill="#06739b" cx="61.60" cy="46.20" r="30.80"/><circle fill="#10abca" cx="35.93" cy="71.87" r="25.67"/><circle fill="#8dccdc" cx="71.87" cy="71.87" r="20.53"/><circle fill="#200a0e" cx="61.60" cy="51.33" r="12.83"/></g><g transform="translate(215.33 53)"><rect fill="#8a84a0" x="0" y="0" width="102.67" height="102.67"/><circle fill="#06739b" cx="30.80" cy="25.67" r="20.53"/><circle fill="#10abca" cx="61.60" cy="46.20" r="30.80"/><circle fill="#8dccdc" cx="35.93" cy="71.87" r="25.67"/><circle fill="#200a0e" cx="71.87" cy="71.87" r="20.53"/><circle fill="#73263e" cx="61.60" cy="51.33" r="12.83"/></g><g transform="translate(0 160.67)"><rect fill="#06739b" x="0" y="0" width="102.67" height="102.67"/><circle fill="#10abca" cx="30.80" cy="25.67" r="20.53"/><circle fill="#8dccdc" cx="61.60" cy="46.20" r="30.80"/><circle fill="#200a0e" cx="35.93" cy="71.87" r="25.67"/><circle fill="#73263e" cx="71.87" cy="71.87" r="20.53"/><circle fill="#8a84a0" cx="61.60" cy="51.33" r="12.83"/></g><g transform="translate(107.67 160.67)"><rect fill="#10abca" x="0" y="0" width="102.67" height="102.67"/><circle fill="#8dccdc" cx="30.80" cy="25.67" r="20.53"/><circle fill="#200a0e" cx="61.60" cy="46.20" r="30.80"/><circle fill="#73263e" cx="35.93" cy="71.87" r="25.67"/><circle fill="#8a84a0" cx="71.87" cy="71.87" r="20.53"/><circle fill="#06739b" cx="61.60" cy="51.33" r="12.83"/></g><g transform="translate(215.33 160.67)"><rect fill="#8dccdc" x="0" y="0" width="102.67" height="102.67"/><circle fill="#200a0e" cx="30.80" cy="25.67" r="20.53"/><circle fill="#73263e" cx="61.60" cy="46.20" r="30.80"/><circle fill="#8a84a0" cx="35.93" cy="71.87" r="25.67"/><circle fill="#06739b" cx="71.87" cy="71.87" r="20.53"/><circle fill="#10abca" cx="61.60" cy="51.33" r="12.83"/></g></svg>