<svg version="1.1" xmlns="http://www.w3.org/2000/svg" xmlns:xlink="http://www.w3.org/1999/xlink" width="318" height="263.33"><g transform="translate(24 24)"><circle fill="#b01136" cx="0" cy="0" r="24"/><circle fill="#f30b68" cx="53" cy="0" r="24"/><circle fill="#db8495" cx="106" cy="0" r="24"/><circle fill="#dfb3b4" cx="159" cy="0" r="24"/><circle fill="#e4d8d2" cx="212" cy="0" r="24"/><circle fill="#f2f4eb" cx="265" cy="0" r="24"/></g><g transform="translate(0 53)"><rect fill="#b01136" x="0" y="0" width="102.67" height="102.67"/><circle fill="#f30b68" cx="30.80" cy="25.67" r="20.53"/><circle fill="#db8495" cx="61.60" cy="46.20" r="30.80"/><circle fill="#dfb3b4" cx="35.93" cy="71.87" r="25.67"/><circle fill="#e4d8d2" cx="71.87" cy="71.87" r="20.53"/><circle fill="#f2f4eb" cx="61.60" cy="51.33" r="12.83"/></g><g transform="translate(107.67 53)"><rect fill="#f30b68" x="0" y="0" width="102.67" height="102.67"/><circle fill="#db8495" cx="30.80" cy="25.67" r="20.53"/><circle fill="#dfb3b4" cx="61.60" cy="46.20" r="30.80"/><circle fill="#e4d8d2" cx="35.93" cy="71.87" r="25.67"/><circle fill="#f2f4eb" cx="71.87" cy="71.87" r="20.53"/><circle fill="#b01136" cx="61.60" cy="51.33" r="12.83"/></g><g transform="translate(215.33 53)"><rect fill="#db8495" x="0" y="0" width="102.67" height="102.67"/><circle fill="#dfb3b4" cx="30.80" cy="25.67" r="20.53"/><circle fill="#e4d8d2" cx="61.60" cy="46.20" r="30.80"/><circle fill="#f2f4eb" cx="35.93" cy="71.87" r="25.67"/><circle fill="#b01136" cx="71.87" cy="71.87" r="20.53"/><circle fill="#f30b68" cx="61.60" cy="51.33" r="12.83"/></g><g transform="translate(0 160.67)"><rect fill="#dfb3b4" x="0" y="0" width="102.67" height="102.67"/><circle fill="#e4d8d2" cx="30.80" cy="25.67" r="20.53"/><circle fill="#f2f4eb" cx="61.60" cy="46.20" r="30.80"/><circle fill="#b01136" cx="35.93" cy="71.87" r="25.67"/><circle fill="#f30b68" cx="71.87" cy="71.87" r="20.53"/><circle fill="#db8495" cx="61.60" cy="51.33" r="12.83"/></g><g transform="translate(107.67 160.67)"><rect fill="#e4d8d2" x="0" y="0" width="102.67" height="102.67"/><circle fill="#f2f4eb" cx="30.80" cy="25.67" r="20.53"/><circle fill="#b01136" cx="61.60" cy="46.20" r="30.80"/><circle fill="#f30b68" cx="35.93" cy="71.87" r="25.67"/><circle fill="#db8495" cx="71.87" cy="71.87" r="20.53"/><circle fill="#dfb3b4" cx="61.60" cy="51.33" r="12.83"/></g><g transform="translate(215.33 160.67)"><rect fill="#f2f4eb" x="0" y="0" width="102.67" height="102.67"/><circle fill="#b01136" cx="30.80" cy="25.67" r="20.53"/><circle fill="#f30b68" cx="61.60" cy="46.20" r="30.80"/><circle fill="#db8495" cx="35.93" cy="71.87" r="25.67"/><circle fill="#dfb3b4" cx="71.87" cy="71.87" r="20.53"/><circle fill="#e4d8d2" cx="61.60" cy="51.33" r="12.83"/></g></svg>