<svg version="1.1" xmlns="http://www.w3.org/2000/svg" xmlns:xlink="http://www.w3.org/1999/xlink" width="318" height="263.33"><g transform="translate(24 24)"><circle fill="#0f3e49" cx="0" cy="0" r="24"/><circle fill="#47555c" cx="53" cy="0" r="24"/><circle fill="#798388" cx="106" cy="0" r="24"/><circle fill="#1fb7c1" cx="159" cy="0" r="24"/><circle fill="#a1cad1" cx="212" cy="0" r="24"/><circle fill="#e8ecef" cx="265" cy="0" r="24"/></g><g transform="translate(0 53)"><rect fill="#0f3e49" x="0" y="0" width="102.67" height="102.67"/><circle fill="#47555c" cx="30.80" cy="25.67" r="20.53"/><circle fill="#798388" cx="61.60" cy="46.20" r="30.80"/><circle fill="#1fb7c1" cx="35.93" cy="71.87" r="25.67"/><circle fill="#a1cad1" cx="71.87" cy="71.87" r="20.53"/><circle fill="#e8ecef" cx="61.60" cy="51.33" r="12.83"/></g><g transform="translate(107.67 53)"><rect fill="#47555c" x="0" y="0" width="102.67" height="102.67"/><circle fill="#798388" cx="30.80" cy="25.67" r="20.53"/><circle fill="#1fb7c1" cx="61.60" cy="46.20" r="30.80"/><circle fill="#a1cad1" cx="35.93" cy="71.87" r="25.67"/><circle fill="#e8ecef" cx="71.87" cy="71.87" r="20.53"/><circle fill="#0f3e49" cx="61.60" cy="51.33" r="12.83"/></g><g transform="translate(215.33 53)"><rect fill="#798388" x="0" y="0" width="102.67" height="102.67"/><circle fill="#1fb7c1" cx="30.80" cy="25.67" r="20.53"/><circle fill="#a1cad1" cx="61.60" cy="46.20" r="30.80"/><circle fill="#e8ecef" cx="35.93" cy="71.87" r="25.67"/><circle fill="#0f3e49" cx="71.87" cy="71.87" r="20.53"/><circle fill="#47555c" cx="61.60" cy="51.33" r="12.83"/></g><g transform="translate(0 160.67)"><rect fill="#1fb7c1" x="0" y="0" width="102.67" height="102.67"/><circle fill="#a1cad1" cx="30.80" cy="25.67" r="20.53"/><circle fill="#e8ecef" cx="61.60" cy="46.20" r="30.80"/><circle fill="#0f3e49" cx="35.93" cy="71.87" r="25.67"/><circle fill="#47555c" cx="71.87" cy="71.87" r="20.53"/><circle fill="#798388" cx="61.60" cy="51.33" r="12.83"/></g><g transform="translate(107.67 160.67)"><rect fill="#a1cad1" x="0" y="0" width="102.67" height="102.67"/><circle fill="#e8ecef" cx="30.80" cy="25.67" r="20.53"/><circle fill="#0f3e49" cx="61.60" cy="46.20" r="30.80"/><circle fill="#47555c" cx="35.93" cy="71.87" r="25.67"/><circle fill="#798388" cx="71.87" cy="71.87" r="20.53"/><circle fill="#1fb7c1" cx="61.60" cy="51.33" r="12.83"/></g><g transform="translate(215.33 160.67)"><rect fill="#e8ecef" x="0" y="0" width="102.67" height="102.67"/><circle fill="#0f3e49" cx="30.80" cy="25.67" r="20.53"/><circle fill="#47555c" cx="61.60" cy="46.20" r="30.80"/><circle fill="#798388" cx="35.93" cy="71.87" r="25.67"/><circle fill="#1fb7c1" cx="71.87" cy="71.87" r="20.53"/><circle fill="#a1cad1" cx="61.60" cy="51.33" r="12.83"/></g></svg>