<svg version="1.1" xmlns="http://www.w3.org/2000/svg" xmlns:xlink="http://www.w3.org/1999/xlink" width="318" height="263.33"><g transform="translate(24 24)"><circle fill="#b28c80" cx="0" cy="0" r="24"/><circle fill="#fac547" cx="53" cy="0" r="24"/><circle fill="#fdb684" cx="106" cy="0" r="24"/><circle fill="#fbdabf" cx="159" cy="0" r="24"/><circle fill="#4d6c80" cx="212" cy="0" r="24"/><circle fill="#283e41" cx="265" cy="0" r="24"/><circle fill="#45551f" cx="318" cy="0" r="24"/></g><g transform="translate(0 53)"><rect fill="#b28c80" x="0" y="0" width="102.67" height="102.67"/><circle fill="#fac547" cx="30.80" cy="25.67" r="20.53"/><circle fill="#fdb684" cx="61.60" cy="46.20" r="30.80"/><circle fill="#fbdabf" cx="35.93" cy="71.87" r="25.67"/><circle fill="#4d6c80" cx="71.87" cy="71.87" r="20.53"/><circle fill="#283e41" cx="61.60" cy="51.33" r="12.83"/></g><g transform="translate(107.67 53)"><rect fill="#fac547" x="0" y="0" width="102.67" height="102.67"/><circle fill="#fdb684" cx="30.80" cy="25.67" r="20.53"/><circle fill="#fbdabf" cx="61.60" cy="46.20" r="30.80"/><circle fill="#4d6c80" cx="35.93" cy="71.87" r="25.67"/><circle fill="#283e41" cx="71.87" cy="71.87" r="20.53"/><circle fill="#45551f" cx="61.60" cy="51.33" r="12.83"/></g><g transform="translate(215.33 53)"><rect fill="#fdb684" x="0" y="0" width="102.67" height="102.67"/><circle fill="#fbdabf" cx="30.80" cy="25.67" r="20.53"/><circle fill="#4d6c80" cx="61.60" cy="46.20" r="30.80"/><circle fill="#283e41" cx="35.93" cy="71.87" r="25.67"/><circle fill="#45551f" cx="71.87" cy="71.87" r="20.53"/><circle fill="#b28c80" cx="61.60" cy="51.33" r="12.83"/></g><g transform="translate(0 160.67)"><rect fill="#fbdabf" x="0" y="0" width="102.67" height="102.67"/><circle fill="#4d6c80" cx="30.80" cy="25.67" r="20.53"/><circle fill="#283e41" cx="61.60" cy="46.20" r="30.80"/><circle fill="#45551f" cx="35.93" cy="71.87" r="25.67"/><circle fill="#b28c80" cx="71.87" cy="71.87" r="20.53"/><circle fill="#fac547" cx="61.60" cy="51.33" r="12.83"/></g><g transform="translate(107.67 160.67)"><rect fill="#4d6c80" x="0" y="0" width="102.67" height="102.67"/><circle fill="#283e41" cx="30.80" cy="25.67" r="20.53"/><circle fill="#45551f" cx="61.60" cy="46.20" r="30.80"/><circle fill="#b28c80" cx="35.93" cy="71.87" r="25.67"/><circle fill="#fac547" cx="71.87" cy="71.87" r="20.53"/><circle fill="#fdb684" cx="61.60" cy="51.33" r="12.83"/></g><g transform="translate(215.33 160.67)"><rect fill="#283e41" x="0" y="0" width="102.67" height="102.67"/><circle fill="#45551f" cx="30.80" cy="25.67" r="20.53"/><circle fill="#b28c80" cx="61.60" cy="46.20" r="30.80"/><circle fill="#fac547" cx="35.93" cy="71.87" r="25.67"/><circle fill="#fdb684" cx="71.87" cy="71.87" r="20.53"/><circle fill="#fbdabf" cx="61.60" cy="51.33" r="12.83"/></g></svg>