<svg version="1.1" xmlns="http://www.w3.org/2000/svg" xmlns:xlink="http://www.w3.org/1999/xlink" width="318" height="263.33"><g transform="translate(24 24)"><circle fill="#d03835" cx="0" cy="0" r="24"/><circle fill="#fc4340" cx="53" cy="0" r="24"/><circle fill="#c2756a" cx="106" cy="0" r="24"/><circle fill="#cf998d" cx="159" cy="0" r="24"/><circle fill="#f2c7b9" cx="212" cy="0" r="24"/><circle fill="#f2dcd5" cx="265" cy="0" r="24"/></g><g transform="translate(0 53)"><rect fill="#d03835" x="0" y="0" width="102.67" height="102.67"/><circle fill="#fc4340" cx="30.80" cy="25.67" r="20.53"/><circle fill="#c2756a" cx="61.60" cy="46.20" r="30.80"/><circle fill="#cf998d" cx="35.93" cy="71.87" r="25.67"/><circle fill="#f2c7b9" cx="71.87" cy="71.87" r="20.53"/><circle fill="#f2dcd5" cx="61.60" cy="51.33" r="12.83"/></g><g transform="translate(107.67 53)"><rect fill="#fc4340" x="0" y="0" width="102.67" height="102.67"/><circle fill="#c2756a" cx="30.80" cy="25.67" r="20.53"/><circle fill="#cf998d" cx="61.60" cy="46.20" r="30.80"/><circle fill="#f2c7b9" cx="35.93" cy="71.87" r="25.67"/><circle fill="#f2dcd5" cx="71.87" cy="71.87" r="20.53"/><circle fill="#d03835" cx="61.60" cy="51.33" r="12.83"/></g><g transform="translate(215.33 53)"><rect fill="#c2756a" x="0" y="0" width="102.67" height="102.67"/><circle fill="#cf998d" cx="30.80" cy="25.67" r="20.53"/><circle fill="#f2c7b9" cx="61.60" cy="46.20" r="30.80"/><circle fill="#f2dcd5" cx="35.93" cy="71.87" r="25.67"/><circle fill="#d03835" cx="71.87" cy="71.87" r="20.53"/><circle fill="#fc4340" cx="61.60" cy="51.33" r="12.83"/></g><g transform="translate(0 160.67)"><rect fill="#cf998d" x="0" y="0" width="102.67" height="102.67"/><circle fill="#f2c7b9" cx="30.80" cy="25.67" r="20.53"/><circle fill="#f2dcd5" cx="61.60" cy="46.20" r="30.80"/><circle fill="#d03835" cx="35.93" cy="71.87" r="25.67"/><circle fill="#fc4340" cx="71.87" cy="71.87" r="20.53"/><circle fill="#c2756a" cx="61.60" cy="51.33" r="12.83"/></g><g transform="translate(107.67 160.67)"><rect fill="#f2c7b9" x="0" y="0" width="102.67" height="102.67"/><circle fill="#f2dcd5" cx="30.80" cy="25.67" r="20.53"/><circle fill="#d03835" cx="61.60" cy="46.20" r="30.80"/><circle fill="#fc4340" cx="35.93" cy="71.87" r="25.67"/><circle fill="#c2756a" cx="71.87" cy="71.87" r="20.53"/><circle fill="#cf998d" cx="61.60" cy="51.33" r="12.83"/></g><g transform="translate(215.33 160.67)"><rect fill="#f2dcd5" x="0" y="0" width="102.67" height="102.67"/><circle fill="#d03835" cx="30.80" cy="25.67" r="20.53"/><circle fill="#fc4340" cx="61.60" cy="46.20" r="30.80"/><circle fill="#c2756a" cx="35.93" cy="71.87" r="25.67"/><circle fill="#cf998d" cx="71.87" cy="71.87" r="20.53"/><circle fill="#f2c7b9" cx="61.60" cy="51.33" r="12.83"/></g></svg>