<svg version="1.1" xmlns="http://www.w3.org/2000/svg" xmlns:xlink="http://www.w3.org/1999/xlink" width="318" height="263.33333333333337"><g transform="translate(24 24)"><circle fill="#814232" cx="0" cy="0" r="24"/><circle fill="#b87931" cx="53" cy="0" r="24"/><circle fill="#dfa531" cx="106" cy="0" r="24"/><circle fill="#e3d1be" cx="159" cy="0" r="24"/><circle fill="#d7b776" cx="212" cy="0" r="24"/><circle fill="#a69e85" cx="265" cy="0" r="24"/></g><g transform="translate(0 53)"><rect fill="#814232" x="0" y="0" width="102.67" height="102.67"/><circle fill="#b87931" cx="30.80" cy="25.67" r="20.53"/><circle fill="#dfa531" cx="61.60" cy="46.20" r="30.80"/><circle fill="#e3d1be" cx="35.93" cy="71.87" r="25.67"/><circle fill="#d7b776" cx="71.87" cy="71.87" r="20.53"/><circle fill="#a69e85" cx="61.60" cy="51.33" r="12.83"/></g><g transform="translate(107.67 53)"><rect fill="#b87931" x="0" y="0" width="102.67" height="102.67"/><circle fill="#dfa531" cx="30.80" cy="25.67" r="20.53"/><circle fill="#e3d1be" cx="61.60" cy="46.20" r="30.80"/><circle fill="#d7b776" cx="35.93" cy="71.87" r="25.67"/><circle fill="#a69e85" cx="71.87" cy="71.87" r="20.53"/><circle fill="#814232" cx="61.60" cy="51.33" r="12.83"/></g><g transform="translate(215.33 53)"><rect fill="#dfa531" x="0" y="0" width="102.67" height="102.67"/><circle fill="#e3d1be" cx="30.80" cy="25.67" r="20.53"/><circle fill="#d7b776" cx="61.60" cy="46.20" r="30.80"/><circle fill="#a69e85" cx="35.93" cy="71.87" r="25.67"/><circle fill="#814232" cx="71.87" cy="71.87" r="20.53"/><circle fill="#b87931" cx="61.60" cy="51.33" r="12.83"/></g><g transform="translate(0 160.67)"><rect fill="#e3d1be" x="0" y="0" width="102.67" height="102.67"/><circle fill="#d7b776" cx="30.80" cy="25.67" r="20.53"/><circle fill="#a69e85" cx="61.60" cy="46.20" r="30.80"/><circle fill="#814232" cx="35.93" cy="71.87" r="25.67"/><circle fill="#b87931" cx="71.87" cy="71.87" r="20.53"/><circle fill="#dfa531" cx="61.60" cy="51.33" r="12.83"/></g><g transform="translate(107.67 160.67)"><rect fill="#d7b776" x="0" y="0" width="102.67" height="102.67"/><circle fill="#a69e85" cx="30.80" cy="25.67" r="20.53"/><circle fill="#814232" cx="61.60" cy="46.20" r="30.80"/><circle fill="#b87931" cx="35.93" cy="71.87" r="25.67"/><circle fill="#dfa531" cx="71.87" cy="71.87" r="20.53"/><circle fill="#e3d1be" cx="61.60" cy="51.33" r="12.83"/></g><g transform="translate(215.33 160.67)"><rect fill="#a69e85" x="0" y="0" width="102.67" height="102.67"/><circle fill="#814232" cx="30.80" cy="25.67" r="20.53"/><circle fill="#b87931" cx="61.60" cy="46.20" r="30.80"/><circle fill="#dfa531" cx="35.93" cy="71.87" r="25.67"/><circle fill="#e3d1be" cx="71.87" cy="71.87" r="20.53"/><circle fill="#d7b776" cx="61.60" cy="51.33" r="12.83"/></g></svg>