<svg version="1.1" xmlns="http://www.w3.org/2000/svg" xmlns:xlink="http://www.w3.org/1999/xlink" width="318" height="263.33"><g transform="translate(24 24)"><circle fill="#7c7575" cx="0" cy="0" r="24"/><circle fill="#743d28" cx="53" cy="0" r="24"/><circle fill="#e88b46" cx="106" cy="0" r="24"/><circle fill="#caa78d" cx="159" cy="0" r="24"/><circle fill="#acd4d4" cx="212" cy="0" r="24"/><circle fill="#1d2544" cx="265" cy="0" r="24"/></g><g transform="translate(0 53)"><rect fill="#7c7575" x="0" y="0" width="102.67" height="102.67"/><circle fill="#743d28" cx="30.80" cy="25.67" r="20.53"/><circle fill="#e88b46" cx="61.60" cy="46.20" r="30.80"/><circle fill="#caa78d" cx="35.93" cy="71.87" r="25.67"/><circle fill="#acd4d4" cx="71.87" cy="71.87" r="20.53"/><circle fill="#1d2544" cx="61.60" cy="51.33" r="12.83"/></g><g transform="translate(107.67 53)"><rect fill="#743d28" x="0" y="0" width="102.67" height="102.67"/><circle fill="#e88b46" cx="30.80" cy="25.67" r="20.53"/><circle fill="#caa78d" cx="61.60" cy="46.20" r="30.80"/><circle fill="#acd4d4" cx="35.93" cy="71.87" r="25.67"/><circle fill="#1d2544" cx="71.87" cy="71.87" r="20.53"/><circle fill="#7c7575" cx="61.60" cy="51.33" r="12.83"/></g><g transform="translate(215.33 53)"><rect fill="#e88b46" x="0" y="0" width="102.67" height="102.67"/><circle fill="#caa78d" cx="30.80" cy="25.67" r="20.53"/><circle fill="#acd4d4" cx="61.60" cy="46.20" r="30.80"/><circle fill="#1d2544" cx="35.93" cy="71.87" r="25.67"/><circle fill="#7c7575" cx="71.87" cy="71.87" r="20.53"/><circle fill="#743d28" cx="61.60" cy="51.33" r="12.83"/></g><g transform="translate(0 160.67)"><rect fill="#caa78d" x="0" y="0" width="102.67" height="102.67"/><circle fill="#acd4d4" cx="30.80" cy="25.67" r="20.53"/><circle fill="#1d2544" cx="61.60" cy="46.20" r="30.80"/><circle fill="#7c7575" cx="35.93" cy="71.87" r="25.67"/><circle fill="#743d28" cx="71.87" cy="71.87" r="20.53"/><circle fill="#e88b46" cx="61.60" cy="51.33" r="12.83"/></g><g transform="translate(107.67 160.67)"><rect fill="#acd4d4" x="0" y="0" width="102.67" height="102.67"/><circle fill="#1d2544" cx="30.80" cy="25.67" r="20.53"/><circle fill="#7c7575" cx="61.60" cy="46.20" r="30.80"/><circle fill="#743d28" cx="35.93" cy="71.87" r="25.67"/><circle fill="#e88b46" cx="71.87" cy="71.87" r="20.53"/><circle fill="#caa78d" cx="61.60" cy="51.33" r="12.83"/></g><g transform="translate(215.33 160.67)"><rect fill="#1d2544" x="0" y="0" width="102.67" height="102.67"/><circle fill="#7c7575" cx="30.80" cy="25.67" r="20.53"/><circle fill="#743d28" cx="61.60" cy="46.20" r="30.80"/><circle fill="#e88b46" cx="35.93" cy="71.87" r="25.67"/><circle fill="#caa78d" cx="71.87" cy="71.87" r="20.53"/><circle fill="#acd4d4" cx="61.60" cy="51.33" r="12.83"/></g></svg>