<svg version="1.1" xmlns="http://www.w3.org/2000/svg" xmlns:xlink="http://www.w3.org/1999/xlink" width="318" height="263.33333333333337"><g transform="translate(24 24)"><circle fill="#763a20" cx="0" cy="0" r="24"/><circle fill="#c78f67" cx="53" cy="0" r="24"/><circle fill="#f27f14" cx="106" cy="0" r="24"/><circle fill="#86949b" cx="159" cy="0" r="24"/><circle fill="#37516c" cx="212" cy="0" r="24"/><circle fill="#1c222f" cx="265" cy="0" r="24"/></g><g transform="translate(0 53)"><rect fill="#763a20" x="0" y="0" width="102.67" height="102.67"/><circle fill="#c78f67" cx="30.80" cy="25.67" r="20.53"/><circle fill="#f27f14" cx="61.60" cy="46.20" r="30.80"/><circle fill="#86949b" cx="35.93" cy="71.87" r="25.67"/><circle fill="#37516c" cx="71.87" cy="71.87" r="20.53"/><circle fill="#1c222f" cx="61.60" cy="51.33" r="12.83"/></g><g transform="translate(107.67 53)"><rect fill="#c78f67" x="0" y="0" width="102.67" height="102.67"/><circle fill="#f27f14" cx="30.80" cy="25.67" r="20.53"/><circle fill="#86949b" cx="61.60" cy="46.20" r="30.80"/><circle fill="#37516c" cx="35.93" cy="71.87" r="25.67"/><circle fill="#1c222f" cx="71.87" cy="71.87" r="20.53"/><circle fill="#763a20" cx="61.60" cy="51.33" r="12.83"/></g><g transform="translate(215.33 53)"><rect fill="#f27f14" x="0" y="0" width="102.67" height="102.67"/><circle fill="#86949b" cx="30.80" cy="25.67" r="20.53"/><circle fill="#37516c" cx="61.60" cy="46.20" r="30.80"/><circle fill="#1c222f" cx="35.93" cy="71.87" r="25.67"/><circle fill="#763a20" cx="71.87" cy="71.87" r="20.53"/><circle fill="#c78f67" cx="61.60" cy="51.33" r="12.83"/></g><g transform="translate(0 160.67)"><rect fill="#86949b" x="0" y="0" width="102.67" height="102.67"/><circle fill="#37516c" cx="30.80" cy="25.67" r="20.53"/><circle fill="#1c222f" cx="61.60" cy="46.20" r="30.80"/><circle fill="#763a20" cx="35.93" cy="71.87" r="25.67"/><circle fill="#c78f67" cx="71.87" cy="71.87" r="20.53"/><circle fill="#f27f14" cx="61.60" cy="51.33" r="12.83"/></g><g transform="translate(107.67 160.67)"><rect fill="#37516c" x="0" y="0" width="102.67" height="102.67"/><circle fill="#1c222f" cx="30.80" cy="25.67" r="20.53"/><circle fill="#763a20" cx="61.60" cy="46.20" r="30.80"/><circle fill="#c78f67" cx="35.93" cy="71.87" r="25.67"/><circle fill="#f27f14" cx="71.87" cy="71.87" r="20.53"/><circle fill="#86949b" cx="61.60" cy="51.33" r="12.83"/></g><g transform="translate(215.33 160.67)"><rect fill="#1c222f" x="0" y="0" width="102.67" height="102.67"/><circle fill="#763a20" cx="30.80" cy="25.67" r="20.53"/><circle fill="#c78f67" cx="61.60" cy="46.20" r="30.80"/><circle fill="#f27f14" cx="35.93" cy="71.87" r="25.67"/><circle fill="#86949b" cx="71.87" cy="71.87" r="20.53"/><circle fill="#37516c" cx="61.60" cy="51.33" r="12.83"/></g></svg>