<svg version="1.1" xmlns="http://www.w3.org/2000/svg" xmlns:xlink="http://www.w3.org/1999/xlink" width="318" height="263.33333333333337"><g transform="translate(24 24)"><circle fill="#0a0e40" cx="0" cy="0" r="24"/><circle fill="#715589" cx="53" cy="0" r="24"/><circle fill="#c7264b" cx="106" cy="0" r="24"/><circle fill="#3fa1cc" cx="159" cy="0" r="24"/><circle fill="#fa7b0e" cx="212" cy="0" r="24"/><circle fill="#e8b7ac" cx="265" cy="0" r="24"/></g><g transform="translate(0 53)"><rect fill="#0a0e40" x="0" y="0" width="102.67" height="102.67"/><circle fill="#715589" cx="30.80" cy="25.67" r="20.53"/><circle fill="#c7264b" cx="61.60" cy="46.20" r="30.80"/><circle fill="#3fa1cc" cx="35.93" cy="71.87" r="25.67"/><circle fill="#fa7b0e" cx="71.87" cy="71.87" r="20.53"/><circle fill="#e8b7ac" cx="61.60" cy="51.33" r="12.83"/></g><g transform="translate(107.67 53)"><rect fill="#715589" x="0" y="0" width="102.67" height="102.67"/><circle fill="#c7264b" cx="30.80" cy="25.67" r="20.53"/><circle fill="#3fa1cc" cx="61.60" cy="46.20" r="30.80"/><circle fill="#fa7b0e" cx="35.93" cy="71.87" r="25.67"/><circle fill="#e8b7ac" cx="71.87" cy="71.87" r="20.53"/><circle fill="#0a0e40" cx="61.60" cy="51.33" r="12.83"/></g><g transform="translate(215.33 53)"><rect fill="#c7264b" x="0" y="0" width="102.67" height="102.67"/><circle fill="#3fa1cc" cx="30.80" cy="25.67" r="20.53"/><circle fill="#fa7b0e" cx="61.60" cy="46.20" r="30.80"/><circle fill="#e8b7ac" cx="35.93" cy="71.87" r="25.67"/><circle fill="#0a0e40" cx="71.87" cy="71.87" r="20.53"/><circle fill="#715589" cx="61.60" cy="51.33" r="12.83"/></g><g transform="translate(0 160.67)"><rect fill="#3fa1cc" x="0" y="0" width="102.67" height="102.67"/><circle fill="#fa7b0e" cx="30.80" cy="25.67" r="20.53"/><circle fill="#e8b7ac" cx="61.60" cy="46.20" r="30.80"/><circle fill="#0a0e40" cx="35.93" cy="71.87" r="25.67"/><circle fill="#715589" cx="71.87" cy="71.87" r="20.53"/><circle fill="#c7264b" cx="61.60" cy="51.33" r="12.83"/></g><g transform="translate(107.67 160.67)"><rect fill="#fa7b0e" x="0" y="0" width="102.67" height="102.67"/><circle fill="#e8b7ac" cx="30.80" cy="25.67" r="20.53"/><circle fill="#0a0e40" cx="61.60" cy="46.20" r="30.80"/><circle fill="#715589" cx="35.93" cy="71.87" r="25.67"/><circle fill="#c7264b" cx="71.87" cy="71.87" r="20.53"/><circle fill="#3fa1cc" cx="61.60" cy="51.33" r="12.83"/></g><g transform="translate(215.33 160.67)"><rect fill="#e8b7ac" x="0" y="0" width="102.67" height="102.67"/><circle fill="#0a0e40" cx="30.80" cy="25.67" r="20.53"/><circle fill="#715589" cx="61.60" cy="46.20" r="30.80"/><circle fill="#c7264b" cx="35.93" cy="71.87" r="25.67"/><circle fill="#3fa1cc" cx="71.87" cy="71.87" r="20.53"/><circle fill="#fa7b0e" cx="61.60" cy="51.33" r="12.83"/></g></svg>