<svg version="1.1" xmlns="http://www.w3.org/2000/svg" xmlns:xlink="http://www.w3.org/1999/xlink" width="318" height="263.33"><g transform="translate(24 24)"><circle fill="#ab3051" cx="0" cy="0" r="24"/><circle fill="#e31f4b" cx="53" cy="0" r="24"/><circle fill="#c68575" cx="106" cy="0" r="24"/><circle fill="#f3bda5" cx="159" cy="0" r="24"/><circle fill="#652b55" cx="212" cy="0" r="24"/><circle fill="#834270" cx="265" cy="0" r="24"/></g><g transform="translate(0 53)"><rect fill="#ab3051" x="0" y="0" width="102.67" height="102.67"/><circle fill="#e31f4b" cx="30.80" cy="25.67" r="20.53"/><circle fill="#c68575" cx="61.60" cy="46.20" r="30.80"/><circle fill="#f3bda5" cx="35.93" cy="71.87" r="25.67"/><circle fill="#652b55" cx="71.87" cy="71.87" r="20.53"/><circle fill="#834270" cx="61.60" cy="51.33" r="12.83"/></g><g transform="translate(107.67 53)"><rect fill="#e31f4b" x="0" y="0" width="102.67" height="102.67"/><circle fill="#c68575" cx="30.80" cy="25.67" r="20.53"/><circle fill="#f3bda5" cx="61.60" cy="46.20" r="30.80"/><circle fill="#652b55" cx="35.93" cy="71.87" r="25.67"/><circle fill="#834270" cx="71.87" cy="71.87" r="20.53"/><circle fill="#ab3051" cx="61.60" cy="51.33" r="12.83"/></g><g transform="translate(215.33 53)"><rect fill="#c68575" x="0" y="0" width="102.67" height="102.67"/><circle fill="#f3bda5" cx="30.80" cy="25.67" r="20.53"/><circle fill="#652b55" cx="61.60" cy="46.20" r="30.80"/><circle fill="#834270" cx="35.93" cy="71.87" r="25.67"/><circle fill="#ab3051" cx="71.87" cy="71.87" r="20.53"/><circle fill="#e31f4b" cx="61.60" cy="51.33" r="12.83"/></g><g transform="translate(0 160.67)"><rect fill="#f3bda5" x="0" y="0" width="102.67" height="102.67"/><circle fill="#652b55" cx="30.80" cy="25.67" r="20.53"/><circle fill="#834270" cx="61.60" cy="46.20" r="30.80"/><circle fill="#ab3051" cx="35.93" cy="71.87" r="25.67"/><circle fill="#e31f4b" cx="71.87" cy="71.87" r="20.53"/><circle fill="#c68575" cx="61.60" cy="51.33" r="12.83"/></g><g transform="translate(107.67 160.67)"><rect fill="#652b55" x="0" y="0" width="102.67" height="102.67"/><circle fill="#834270" cx="30.80" cy="25.67" r="20.53"/><circle fill="#ab3051" cx="61.60" cy="46.20" r="30.80"/><circle fill="#e31f4b" cx="35.93" cy="71.87" r="25.67"/><circle fill="#c68575" cx="71.87" cy="71.87" r="20.53"/><circle fill="#f3bda5" cx="61.60" cy="51.33" r="12.83"/></g><g transform="translate(215.33 160.67)"><rect fill="#834270" x="0" y="0" width="102.67" height="102.67"/><circle fill="#ab3051" cx="30.80" cy="25.67" r="20.53"/><circle fill="#e31f4b" cx="61.60" cy="46.20" r="30.80"/><circle fill="#c68575" cx="35.93" cy="71.87" r="25.67"/><circle fill="#f3bda5" cx="71.87" cy="71.87" r="20.53"/><circle fill="#652b55" cx="61.60" cy="51.33" r="12.83"/></g></svg>