<svg version="1.1" xmlns="http://www.w3.org/2000/svg" xmlns:xlink="http://www.w3.org/1999/xlink" width="318" height="263.33333333333337"><g transform="translate(24 24)"><circle fill="#ffd8d2" cx="0" cy="0" r="24"/><circle fill="#fbc6b7" cx="53" cy="0" r="24"/><circle fill="#fd9b79" cx="106" cy="0" r="24"/><circle fill="#ece8e8" cx="159" cy="0" r="24"/><circle fill="#c2bab6" cx="212" cy="0" r="24"/><circle fill="#888078" cx="265" cy="0" r="24"/></g><g transform="translate(0 53)"><rect fill="#ffd8d2" x="0" y="0" width="102.67" height="102.67"/><circle fill="#fbc6b7" cx="30.80" cy="25.67" r="20.53"/><circle fill="#fd9b79" cx="61.60" cy="46.20" r="30.80"/><circle fill="#ece8e8" cx="35.93" cy="71.87" r="25.67"/><circle fill="#c2bab6" cx="71.87" cy="71.87" r="20.53"/><circle fill="#888078" cx="61.60" cy="51.33" r="12.83"/></g><g transform="translate(107.67 53)"><rect fill="#fbc6b7" x="0" y="0" width="102.67" height="102.67"/><circle fill="#fd9b79" cx="30.80" cy="25.67" r="20.53"/><circle fill="#ece8e8" cx="61.60" cy="46.20" r="30.80"/><circle fill="#c2bab6" cx="35.93" cy="71.87" r="25.67"/><circle fill="#888078" cx="71.87" cy="71.87" r="20.53"/><circle fill="#ffd8d2" cx="61.60" cy="51.33" r="12.83"/></g><g transform="translate(215.33 53)"><rect fill="#fd9b79" x="0" y="0" width="102.67" height="102.67"/><circle fill="#ece8e8" cx="30.80" cy="25.67" r="20.53"/><circle fill="#c2bab6" cx="61.60" cy="46.20" r="30.80"/><circle fill="#888078" cx="35.93" cy="71.87" r="25.67"/><circle fill="#ffd8d2" cx="71.87" cy="71.87" r="20.53"/><circle fill="#fbc6b7" cx="61.60" cy="51.33" r="12.83"/></g><g transform="translate(0 160.67)"><rect fill="#ece8e8" x="0" y="0" width="102.67" height="102.67"/><circle fill="#c2bab6" cx="30.80" cy="25.67" r="20.53"/><circle fill="#888078" cx="61.60" cy="46.20" r="30.80"/><circle fill="#ffd8d2" cx="35.93" cy="71.87" r="25.67"/><circle fill="#fbc6b7" cx="71.87" cy="71.87" r="20.53"/><circle fill="#fd9b79" cx="61.60" cy="51.33" r="12.83"/></g><g transform="translate(107.67 160.67)"><rect fill="#c2bab6" x="0" y="0" width="102.67" height="102.67"/><circle fill="#888078" cx="30.80" cy="25.67" r="20.53"/><circle fill="#ffd8d2" cx="61.60" cy="46.20" r="30.80"/><circle fill="#fbc6b7" cx="35.93" cy="71.87" r="25.67"/><circle fill="#fd9b79" cx="71.87" cy="71.87" r="20.53"/><circle fill="#ece8e8" cx="61.60" cy="51.33" r="12.83"/></g><g transform="translate(215.33 160.67)"><rect fill="#888078" x="0" y="0" width="102.67" height="102.67"/><circle fill="#ffd8d2" cx="30.80" cy="25.67" r="20.53"/><circle fill="#fbc6b7" cx="61.60" cy="46.20" r="30.80"/><circle fill="#fd9b79" cx="35.93" cy="71.87" r="25.67"/><circle fill="#ece8e8" cx="71.87" cy="71.87" r="20.53"/><circle fill="#c2bab6" cx="61.60" cy="51.33" r="12.83"/></g></svg>