<svg version="1.1" xmlns="http://www.w3.org/2000/svg" xmlns:xlink="http://www.w3.org/1999/xlink" width="318" height="263.33"><g transform="translate(24 24)"><circle fill="#3e3e25" cx="0" cy="0" r="24"/><circle fill="#664d1c" cx="53" cy="0" r="24"/><circle fill="#a2510d" cx="106" cy="0" r="24"/><circle fill="#ce881d" cx="159" cy="0" r="24"/><circle fill="#f6cb53" cx="212" cy="0" r="24"/><circle fill="#fefce8" cx="265" cy="0" r="24"/></g><g transform="translate(0 53)"><rect fill="#3e3e25" x="0" y="0" width="102.67" height="102.67"/><circle fill="#664d1c" cx="30.80" cy="25.67" r="20.53"/><circle fill="#a2510d" cx="61.60" cy="46.20" r="30.80"/><circle fill="#ce881d" cx="35.93" cy="71.87" r="25.67"/><circle fill="#f6cb53" cx="71.87" cy="71.87" r="20.53"/><circle fill="#fefce8" cx="61.60" cy="51.33" r="12.83"/></g><g transform="translate(107.67 53)"><rect fill="#664d1c" x="0" y="0" width="102.67" height="102.67"/><circle fill="#a2510d" cx="30.80" cy="25.67" r="20.53"/><circle fill="#ce881d" cx="61.60" cy="46.20" r="30.80"/><circle fill="#f6cb53" cx="35.93" cy="71.87" r="25.67"/><circle fill="#fefce8" cx="71.87" cy="71.87" r="20.53"/><circle fill="#3e3e25" cx="61.60" cy="51.33" r="12.83"/></g><g transform="translate(215.33 53)"><rect fill="#a2510d" x="0" y="0" width="102.67" height="102.67"/><circle fill="#ce881d" cx="30.80" cy="25.67" r="20.53"/><circle fill="#f6cb53" cx="61.60" cy="46.20" r="30.80"/><circle fill="#fefce8" cx="35.93" cy="71.87" r="25.67"/><circle fill="#3e3e25" cx="71.87" cy="71.87" r="20.53"/><circle fill="#664d1c" cx="61.60" cy="51.33" r="12.83"/></g><g transform="translate(0 160.67)"><rect fill="#ce881d" x="0" y="0" width="102.67" height="102.67"/><circle fill="#f6cb53" cx="30.80" cy="25.67" r="20.53"/><circle fill="#fefce8" cx="61.60" cy="46.20" r="30.80"/><circle fill="#3e3e25" cx="35.93" cy="71.87" r="25.67"/><circle fill="#664d1c" cx="71.87" cy="71.87" r="20.53"/><circle fill="#a2510d" cx="61.60" cy="51.33" r="12.83"/></g><g transform="translate(107.67 160.67)"><rect fill="#f6cb53" x="0" y="0" width="102.67" height="102.67"/><circle fill="#fefce8" cx="30.80" cy="25.67" r="20.53"/><circle fill="#3e3e25" cx="61.60" cy="46.20" r="30.80"/><circle fill="#664d1c" cx="35.93" cy="71.87" r="25.67"/><circle fill="#a2510d" cx="71.87" cy="71.87" r="20.53"/><circle fill="#ce881d" cx="61.60" cy="51.33" r="12.83"/></g><g transform="translate(215.33 160.67)"><rect fill="#fefce8" x="0" y="0" width="102.67" height="102.67"/><circle fill="#3e3e25" cx="30.80" cy="25.67" r="20.53"/><circle fill="#664d1c" cx="61.60" cy="46.20" r="30.80"/><circle fill="#a2510d" cx="35.93" cy="71.87" r="25.67"/><circle fill="#ce881d" cx="71.87" cy="71.87" r="20.53"/><circle fill="#f6cb53" cx="61.60" cy="51.33" r="12.83"/></g></svg>