<svg version="1.1" xmlns="http://www.w3.org/2000/svg" xmlns:xlink="http://www.w3.org/1999/xlink" width="318" height="263.33"><g transform="translate(24 24)"><circle fill="#f77908" cx="0" cy="0" r="24"/><circle fill="#ba9623" cx="53" cy="0" r="24"/><circle fill="#c6a489" cx="106" cy="0" r="24"/><circle fill="#bbc3bb" cx="159" cy="0" r="24"/><circle fill="#9dc9be" cx="212" cy="0" r="24"/><circle fill="#668c92" cx="265" cy="0" r="24"/></g><g transform="translate(0 53)"><rect fill="#f77908" x="0" y="0" width="102.67" height="102.67"/><circle fill="#ba9623" cx="30.80" cy="25.67" r="20.53"/><circle fill="#c6a489" cx="61.60" cy="46.20" r="30.80"/><circle fill="#bbc3bb" cx="35.93" cy="71.87" r="25.67"/><circle fill="#9dc9be" cx="71.87" cy="71.87" r="20.53"/><circle fill="#668c92" cx="61.60" cy="51.33" r="12.83"/></g><g transform="translate(107.67 53)"><rect fill="#ba9623" x="0" y="0" width="102.67" height="102.67"/><circle fill="#c6a489" cx="30.80" cy="25.67" r="20.53"/><circle fill="#bbc3bb" cx="61.60" cy="46.20" r="30.80"/><circle fill="#9dc9be" cx="35.93" cy="71.87" r="25.67"/><circle fill="#668c92" cx="71.87" cy="71.87" r="20.53"/><circle fill="#f77908" cx="61.60" cy="51.33" r="12.83"/></g><g transform="translate(215.33 53)"><rect fill="#c6a489" x="0" y="0" width="102.67" height="102.67"/><circle fill="#bbc3bb" cx="30.80" cy="25.67" r="20.53"/><circle fill="#9dc9be" cx="61.60" cy="46.20" r="30.80"/><circle fill="#668c92" cx="35.93" cy="71.87" r="25.67"/><circle fill="#f77908" cx="71.87" cy="71.87" r="20.53"/><circle fill="#ba9623" cx="61.60" cy="51.33" r="12.83"/></g><g transform="translate(0 160.67)"><rect fill="#bbc3bb" x="0" y="0" width="102.67" height="102.67"/><circle fill="#9dc9be" cx="30.80" cy="25.67" r="20.53"/><circle fill="#668c92" cx="61.60" cy="46.20" r="30.80"/><circle fill="#f77908" cx="35.93" cy="71.87" r="25.67"/><circle fill="#ba9623" cx="71.87" cy="71.87" r="20.53"/><circle fill="#c6a489" cx="61.60" cy="51.33" r="12.83"/></g><g transform="translate(107.67 160.67)"><rect fill="#9dc9be" x="0" y="0" width="102.67" height="102.67"/><circle fill="#668c92" cx="30.80" cy="25.67" r="20.53"/><circle fill="#f77908" cx="61.60" cy="46.20" r="30.80"/><circle fill="#ba9623" cx="35.93" cy="71.87" r="25.67"/><circle fill="#c6a489" cx="71.87" cy="71.87" r="20.53"/><circle fill="#bbc3bb" cx="61.60" cy="51.33" r="12.83"/></g><g transform="translate(215.33 160.67)"><rect fill="#668c92" x="0" y="0" width="102.67" height="102.67"/><circle fill="#f77908" cx="30.80" cy="25.67" r="20.53"/><circle fill="#ba9623" cx="61.60" cy="46.20" r="30.80"/><circle fill="#c6a489" cx="35.93" cy="71.87" r="25.67"/><circle fill="#bbc3bb" cx="71.87" cy="71.87" r="20.53"/><circle fill="#9dc9be" cx="61.60" cy="51.33" r="12.83"/></g></svg>