<svg version="1.1" xmlns="http://www.w3.org/2000/svg" xmlns:xlink="http://www.w3.org/1999/xlink" width="318" height="263.33333333333337"><g transform="translate(24 24)"><circle fill="#242731" cx="0" cy="0" r="24"/><circle fill="#4b4c53" cx="53" cy="0" r="24"/><circle fill="#817370" cx="106" cy="0" r="24"/><circle fill="#ad9c96" cx="159" cy="0" r="24"/><circle fill="#c6b6b6" cx="212" cy="0" r="24"/><circle fill="#dfcdc9" cx="265" cy="0" r="24"/></g><g transform="translate(0 53)"><rect fill="#242731" x="0" y="0" width="102.67" height="102.67"/><circle fill="#4b4c53" cx="30.80" cy="25.67" r="20.53"/><circle fill="#817370" cx="61.60" cy="46.20" r="30.80"/><circle fill="#ad9c96" cx="35.93" cy="71.87" r="25.67"/><circle fill="#c6b6b6" cx="71.87" cy="71.87" r="20.53"/><circle fill="#dfcdc9" cx="61.60" cy="51.33" r="12.83"/></g><g transform="translate(107.67 53)"><rect fill="#4b4c53" x="0" y="0" width="102.67" height="102.67"/><circle fill="#817370" cx="30.80" cy="25.67" r="20.53"/><circle fill="#ad9c96" cx="61.60" cy="46.20" r="30.80"/><circle fill="#c6b6b6" cx="35.93" cy="71.87" r="25.67"/><circle fill="#dfcdc9" cx="71.87" cy="71.87" r="20.53"/><circle fill="#242731" cx="61.60" cy="51.33" r="12.83"/></g><g transform="translate(215.33 53)"><rect fill="#817370" x="0" y="0" width="102.67" height="102.67"/><circle fill="#ad9c96" cx="30.80" cy="25.67" r="20.53"/><circle fill="#c6b6b6" cx="61.60" cy="46.20" r="30.80"/><circle fill="#dfcdc9" cx="35.93" cy="71.87" r="25.67"/><circle fill="#242731" cx="71.87" cy="71.87" r="20.53"/><circle fill="#4b4c53" cx="61.60" cy="51.33" r="12.83"/></g><g transform="translate(0 160.67)"><rect fill="#ad9c96" x="0" y="0" width="102.67" height="102.67"/><circle fill="#c6b6b6" cx="30.80" cy="25.67" r="20.53"/><circle fill="#dfcdc9" cx="61.60" cy="46.20" r="30.80"/><circle fill="#242731" cx="35.93" cy="71.87" r="25.67"/><circle fill="#4b4c53" cx="71.87" cy="71.87" r="20.53"/><circle fill="#817370" cx="61.60" cy="51.33" r="12.83"/></g><g transform="translate(107.67 160.67)"><rect fill="#c6b6b6" x="0" y="0" width="102.67" height="102.67"/><circle fill="#dfcdc9" cx="30.80" cy="25.67" r="20.53"/><circle fill="#242731" cx="61.60" cy="46.20" r="30.80"/><circle fill="#4b4c53" cx="35.93" cy="71.87" r="25.67"/><circle fill="#817370" cx="71.87" cy="71.87" r="20.53"/><circle fill="#ad9c96" cx="61.60" cy="51.33" r="12.83"/></g><g transform="translate(215.33 160.67)"><rect fill="#dfcdc9" x="0" y="0" width="102.67" height="102.67"/><circle fill="#242731" cx="30.80" cy="25.67" r="20.53"/><circle fill="#4b4c53" cx="61.60" cy="46.20" r="30.80"/><circle fill="#817370" cx="35.93" cy="71.87" r="25.67"/><circle fill="#ad9c96" cx="71.87" cy="71.87" r="20.53"/><circle fill="#c6b6b6" cx="61.60" cy="51.33" r="12.83"/></g></svg>