<svg version="1.1" xmlns="http://www.w3.org/2000/svg" xmlns:xlink="http://www.w3.org/1999/xlink" width="318" height="263.33"><g transform="translate(24 24)"><circle fill="#3d4d20" cx="0" cy="0" r="24"/><circle fill="#73854d" cx="53" cy="0" r="24"/><circle fill="#aeb87f" cx="106" cy="0" r="24"/><circle fill="#6e9db5" cx="159" cy="0" r="24"/><circle fill="#4c6f8e" cx="212" cy="0" r="24"/><circle fill="#1c4861" cx="265" cy="0" r="24"/></g><g transform="translate(0 53)"><rect fill="#3d4d20" x="0" y="0" width="102.67" height="102.67"/><circle fill="#73854d" cx="30.80" cy="25.67" r="20.53"/><circle fill="#aeb87f" cx="61.60" cy="46.20" r="30.80"/><circle fill="#6e9db5" cx="35.93" cy="71.87" r="25.67"/><circle fill="#4c6f8e" cx="71.87" cy="71.87" r="20.53"/><circle fill="#1c4861" cx="61.60" cy="51.33" r="12.83"/></g><g transform="translate(107.67 53)"><rect fill="#73854d" x="0" y="0" width="102.67" height="102.67"/><circle fill="#aeb87f" cx="30.80" cy="25.67" r="20.53"/><circle fill="#6e9db5" cx="61.60" cy="46.20" r="30.80"/><circle fill="#4c6f8e" cx="35.93" cy="71.87" r="25.67"/><circle fill="#1c4861" cx="71.87" cy="71.87" r="20.53"/><circle fill="#3d4d20" cx="61.60" cy="51.33" r="12.83"/></g><g transform="translate(215.33 53)"><rect fill="#aeb87f" x="0" y="0" width="102.67" height="102.67"/><circle fill="#6e9db5" cx="30.80" cy="25.67" r="20.53"/><circle fill="#4c6f8e" cx="61.60" cy="46.20" r="30.80"/><circle fill="#1c4861" cx="35.93" cy="71.87" r="25.67"/><circle fill="#3d4d20" cx="71.87" cy="71.87" r="20.53"/><circle fill="#73854d" cx="61.60" cy="51.33" r="12.83"/></g><g transform="translate(0 160.67)"><rect fill="#6e9db5" x="0" y="0" width="102.67" height="102.67"/><circle fill="#4c6f8e" cx="30.80" cy="25.67" r="20.53"/><circle fill="#1c4861" cx="61.60" cy="46.20" r="30.80"/><circle fill="#3d4d20" cx="35.93" cy="71.87" r="25.67"/><circle fill="#73854d" cx="71.87" cy="71.87" r="20.53"/><circle fill="#aeb87f" cx="61.60" cy="51.33" r="12.83"/></g><g transform="translate(107.67 160.67)"><rect fill="#4c6f8e" x="0" y="0" width="102.67" height="102.67"/><circle fill="#1c4861" cx="30.80" cy="25.67" r="20.53"/><circle fill="#3d4d20" cx="61.60" cy="46.20" r="30.80"/><circle fill="#73854d" cx="35.93" cy="71.87" r="25.67"/><circle fill="#aeb87f" cx="71.87" cy="71.87" r="20.53"/><circle fill="#6e9db5" cx="61.60" cy="51.33" r="12.83"/></g><g transform="translate(215.33 160.67)"><rect fill="#1c4861" x="0" y="0" width="102.67" height="102.67"/><circle fill="#3d4d20" cx="30.80" cy="25.67" r="20.53"/><circle fill="#73854d" cx="61.60" cy="46.20" r="30.80"/><circle fill="#aeb87f" cx="35.93" cy="71.87" r="25.67"/><circle fill="#6e9db5" cx="71.87" cy="71.87" r="20.53"/><circle fill="#4c6f8e" cx="61.60" cy="51.33" r="12.83"/></g></svg>