<svg version="1.1" xmlns="http://www.w3.org/2000/svg" xmlns:xlink="http://www.w3.org/1999/xlink" width="318" height="263.33"><g transform="translate(24 24)"><circle fill="#4f4c63" cx="0" cy="0" r="24"/><circle fill="#7288a5" cx="53" cy="0" r="24"/><circle fill="#91a5be" cx="106" cy="0" r="24"/><circle fill="#c36b7e" cx="159" cy="0" r="24"/><circle fill="#f34452" cx="212" cy="0" r="24"/><circle fill="#b5172a" cx="265" cy="0" r="24"/></g><g transform="translate(0 53)"><rect fill="#4f4c63" x="0" y="0" width="102.67" height="102.67"/><circle fill="#7288a5" cx="30.80" cy="25.67" r="20.53"/><circle fill="#91a5be" cx="61.60" cy="46.20" r="30.80"/><circle fill="#c36b7e" cx="35.93" cy="71.87" r="25.67"/><circle fill="#f34452" cx="71.87" cy="71.87" r="20.53"/><circle fill="#b5172a" cx="61.60" cy="51.33" r="12.83"/></g><g transform="translate(107.67 53)"><rect fill="#7288a5" x="0" y="0" width="102.67" height="102.67"/><circle fill="#91a5be" cx="30.80" cy="25.67" r="20.53"/><circle fill="#c36b7e" cx="61.60" cy="46.20" r="30.80"/><circle fill="#f34452" cx="35.93" cy="71.87" r="25.67"/><circle fill="#b5172a" cx="71.87" cy="71.87" r="20.53"/><circle fill="#4f4c63" cx="61.60" cy="51.33" r="12.83"/></g><g transform="translate(215.33 53)"><rect fill="#91a5be" x="0" y="0" width="102.67" height="102.67"/><circle fill="#c36b7e" cx="30.80" cy="25.67" r="20.53"/><circle fill="#f34452" cx="61.60" cy="46.20" r="30.80"/><circle fill="#b5172a" cx="35.93" cy="71.87" r="25.67"/><circle fill="#4f4c63" cx="71.87" cy="71.87" r="20.53"/><circle fill="#7288a5" cx="61.60" cy="51.33" r="12.83"/></g><g transform="translate(0 160.67)"><rect fill="#c36b7e" x="0" y="0" width="102.67" height="102.67"/><circle fill="#f34452" cx="30.80" cy="25.67" r="20.53"/><circle fill="#b5172a" cx="61.60" cy="46.20" r="30.80"/><circle fill="#4f4c63" cx="35.93" cy="71.87" r="25.67"/><circle fill="#7288a5" cx="71.87" cy="71.87" r="20.53"/><circle fill="#91a5be" cx="61.60" cy="51.33" r="12.83"/></g><g transform="translate(107.67 160.67)"><rect fill="#f34452" x="0" y="0" width="102.67" height="102.67"/><circle fill="#b5172a" cx="30.80" cy="25.67" r="20.53"/><circle fill="#4f4c63" cx="61.60" cy="46.20" r="30.80"/><circle fill="#7288a5" cx="35.93" cy="71.87" r="25.67"/><circle fill="#91a5be" cx="71.87" cy="71.87" r="20.53"/><circle fill="#c36b7e" cx="61.60" cy="51.33" r="12.83"/></g><g transform="translate(215.33 160.67)"><rect fill="#b5172a" x="0" y="0" width="102.67" height="102.67"/><circle fill="#4f4c63" cx="30.80" cy="25.67" r="20.53"/><circle fill="#7288a5" cx="61.60" cy="46.20" r="30.80"/><circle fill="#91a5be" cx="35.93" cy="71.87" r="25.67"/><circle fill="#c36b7e" cx="71.87" cy="71.87" r="20.53"/><circle fill="#f34452" cx="61.60" cy="51.33" r="12.83"/></g></svg>