<svg version="1.1" xmlns="http://www.w3.org/2000/svg" xmlns:xlink="http://www.w3.org/1999/xlink" width="318" height="263.33333333333337"><g transform="translate(24 24)"><circle fill="#0a0320" cx="0" cy="0" r="24"/><circle fill="#260d6c" cx="53" cy="0" r="24"/><circle fill="#613dda" cx="106" cy="0" r="24"/><circle fill="#b4b6ac" cx="159" cy="0" r="24"/><circle fill="#f6e019" cx="212" cy="0" r="24"/><circle fill="#eef5fa" cx="265" cy="0" r="24"/></g><g transform="translate(0 53)"><rect fill="#0a0320" x="0" y="0" width="102.67" height="102.67"/><circle fill="#260d6c" cx="30.80" cy="25.67" r="20.53"/><circle fill="#613dda" cx="61.60" cy="46.20" r="30.80"/><circle fill="#b4b6ac" cx="35.93" cy="71.87" r="25.67"/><circle fill="#f6e019" cx="71.87" cy="71.87" r="20.53"/><circle fill="#eef5fa" cx="61.60" cy="51.33" r="12.83"/></g><g transform="translate(107.67 53)"><rect fill="#260d6c" x="0" y="0" width="102.67" height="102.67"/><circle fill="#613dda" cx="30.80" cy="25.67" r="20.53"/><circle fill="#b4b6ac" cx="61.60" cy="46.20" r="30.80"/><circle fill="#f6e019" cx="35.93" cy="71.87" r="25.67"/><circle fill="#eef5fa" cx="71.87" cy="71.87" r="20.53"/><circle fill="#0a0320" cx="61.60" cy="51.33" r="12.83"/></g><g transform="translate(215.33 53)"><rect fill="#613dda" x="0" y="0" width="102.67" height="102.67"/><circle fill="#b4b6ac" cx="30.80" cy="25.67" r="20.53"/><circle fill="#f6e019" cx="61.60" cy="46.20" r="30.80"/><circle fill="#eef5fa" cx="35.93" cy="71.87" r="25.67"/><circle fill="#0a0320" cx="71.87" cy="71.87" r="20.53"/><circle fill="#260d6c" cx="61.60" cy="51.33" r="12.83"/></g><g transform="translate(0 160.67)"><rect fill="#b4b6ac" x="0" y="0" width="102.67" height="102.67"/><circle fill="#f6e019" cx="30.80" cy="25.67" r="20.53"/><circle fill="#eef5fa" cx="61.60" cy="46.20" r="30.80"/><circle fill="#0a0320" cx="35.93" cy="71.87" r="25.67"/><circle fill="#260d6c" cx="71.87" cy="71.87" r="20.53"/><circle fill="#613dda" cx="61.60" cy="51.33" r="12.83"/></g><g transform="translate(107.67 160.67)"><rect fill="#f6e019" x="0" y="0" width="102.67" height="102.67"/><circle fill="#eef5fa" cx="30.80" cy="25.67" r="20.53"/><circle fill="#0a0320" cx="61.60" cy="46.20" r="30.80"/><circle fill="#260d6c" cx="35.93" cy="71.87" r="25.67"/><circle fill="#613dda" cx="71.87" cy="71.87" r="20.53"/><circle fill="#b4b6ac" cx="61.60" cy="51.33" r="12.83"/></g><g transform="translate(215.33 160.67)"><rect fill="#eef5fa" x="0" y="0" width="102.67" height="102.67"/><circle fill="#0a0320" cx="30.80" cy="25.67" r="20.53"/><circle fill="#260d6c" cx="61.60" cy="46.20" r="30.80"/><circle fill="#613dda" cx="35.93" cy="71.87" r="25.67"/><circle fill="#b4b6ac" cx="71.87" cy="71.87" r="20.53"/><circle fill="#f6e019" cx="61.60" cy="51.33" r="12.83"/></g></svg>