<svg version="1.1" xmlns="http://www.w3.org/2000/svg" xmlns:xlink="http://www.w3.org/1999/xlink" width="318" height="263.33"><g transform="translate(24 24)"><circle fill="#857564" cx="0" cy="0" r="24"/><circle fill="#aaa198" cx="53" cy="0" r="24"/><circle fill="#cfccc9" cx="106" cy="0" r="24"/><circle fill="#584d36" cx="159" cy="0" r="24"/><circle fill="#bbb40f" cx="212" cy="0" r="24"/><circle fill="#f3f777" cx="265" cy="0" r="24"/></g><g transform="translate(0 53)"><rect fill="#857564" x="0" y="0" width="102.67" height="102.67"/><circle fill="#aaa198" cx="30.80" cy="25.67" r="20.53"/><circle fill="#cfccc9" cx="61.60" cy="46.20" r="30.80"/><circle fill="#584d36" cx="35.93" cy="71.87" r="25.67"/><circle fill="#bbb40f" cx="71.87" cy="71.87" r="20.53"/><circle fill="#f3f777" cx="61.60" cy="51.33" r="12.83"/></g><g transform="translate(107.67 53)"><rect fill="#aaa198" x="0" y="0" width="102.67" height="102.67"/><circle fill="#cfccc9" cx="30.80" cy="25.67" r="20.53"/><circle fill="#584d36" cx="61.60" cy="46.20" r="30.80"/><circle fill="#bbb40f" cx="35.93" cy="71.87" r="25.67"/><circle fill="#f3f777" cx="71.87" cy="71.87" r="20.53"/><circle fill="#857564" cx="61.60" cy="51.33" r="12.83"/></g><g transform="translate(215.33 53)"><rect fill="#cfccc9" x="0" y="0" width="102.67" height="102.67"/><circle fill="#584d36" cx="30.80" cy="25.67" r="20.53"/><circle fill="#bbb40f" cx="61.60" cy="46.20" r="30.80"/><circle fill="#f3f777" cx="35.93" cy="71.87" r="25.67"/><circle fill="#857564" cx="71.87" cy="71.87" r="20.53"/><circle fill="#aaa198" cx="61.60" cy="51.33" r="12.83"/></g><g transform="translate(0 160.67)"><rect fill="#584d36" x="0" y="0" width="102.67" height="102.67"/><circle fill="#bbb40f" cx="30.80" cy="25.67" r="20.53"/><circle fill="#f3f777" cx="61.60" cy="46.20" r="30.80"/><circle fill="#857564" cx="35.93" cy="71.87" r="25.67"/><circle fill="#aaa198" cx="71.87" cy="71.87" r="20.53"/><circle fill="#cfccc9" cx="61.60" cy="51.33" r="12.83"/></g><g transform="translate(107.67 160.67)"><rect fill="#bbb40f" x="0" y="0" width="102.67" height="102.67"/><circle fill="#f3f777" cx="30.80" cy="25.67" r="20.53"/><circle fill="#857564" cx="61.60" cy="46.20" r="30.80"/><circle fill="#aaa198" cx="35.93" cy="71.87" r="25.67"/><circle fill="#cfccc9" cx="71.87" cy="71.87" r="20.53"/><circle fill="#584d36" cx="61.60" cy="51.33" r="12.83"/></g><g transform="translate(215.33 160.67)"><rect fill="#f3f777" x="0" y="0" width="102.67" height="102.67"/><circle fill="#857564" cx="30.80" cy="25.67" r="20.53"/><circle fill="#aaa198" cx="61.60" cy="46.20" r="30.80"/><circle fill="#cfccc9" cx="35.93" cy="71.87" r="25.67"/><circle fill="#584d36" cx="71.87" cy="71.87" r="20.53"/><circle fill="#bbb40f" cx="61.60" cy="51.33" r="12.83"/></g></svg>