<svg version="1.1" xmlns="http://www.w3.org/2000/svg" xmlns:xlink="http://www.w3.org/1999/xlink" width="318" height="263.33333333333337"><g transform="translate(24 24)"><circle fill="#2d1e22" cx="0" cy="0" r="24"/><circle fill="#a90f0c" cx="53" cy="0" r="24"/><circle fill="#ee1d2b" cx="106" cy="0" r="24"/><circle fill="#ba8476" cx="159" cy="0" r="24"/><circle fill="#dacbc6" cx="212" cy="0" r="24"/><circle fill="#f7f3f7" cx="265" cy="0" r="24"/></g><g transform="translate(0 53)"><rect fill="#2d1e22" x="0" y="0" width="102.67" height="102.67"/><circle fill="#a90f0c" cx="30.80" cy="25.67" r="20.53"/><circle fill="#ee1d2b" cx="61.60" cy="46.20" r="30.80"/><circle fill="#ba8476" cx="35.93" cy="71.87" r="25.67"/><circle fill="#dacbc6" cx="71.87" cy="71.87" r="20.53"/><circle fill="#f7f3f7" cx="61.60" cy="51.33" r="12.83"/></g><g transform="translate(107.67 53)"><rect fill="#a90f0c" x="0" y="0" width="102.67" height="102.67"/><circle fill="#ee1d2b" cx="30.80" cy="25.67" r="20.53"/><circle fill="#ba8476" cx="61.60" cy="46.20" r="30.80"/><circle fill="#dacbc6" cx="35.93" cy="71.87" r="25.67"/><circle fill="#f7f3f7" cx="71.87" cy="71.87" r="20.53"/><circle fill="#2d1e22" cx="61.60" cy="51.33" r="12.83"/></g><g transform="translate(215.33 53)"><rect fill="#ee1d2b" x="0" y="0" width="102.67" height="102.67"/><circle fill="#ba8476" cx="30.80" cy="25.67" r="20.53"/><circle fill="#dacbc6" cx="61.60" cy="46.20" r="30.80"/><circle fill="#f7f3f7" cx="35.93" cy="71.87" r="25.67"/><circle fill="#2d1e22" cx="71.87" cy="71.87" r="20.53"/><circle fill="#a90f0c" cx="61.60" cy="51.33" r="12.83"/></g><g transform="translate(0 160.67)"><rect fill="#ba8476" x="0" y="0" width="102.67" height="102.67"/><circle fill="#dacbc6" cx="30.80" cy="25.67" r="20.53"/><circle fill="#f7f3f7" cx="61.60" cy="46.20" r="30.80"/><circle fill="#2d1e22" cx="35.93" cy="71.87" r="25.67"/><circle fill="#a90f0c" cx="71.87" cy="71.87" r="20.53"/><circle fill="#ee1d2b" cx="61.60" cy="51.33" r="12.83"/></g><g transform="translate(107.67 160.67)"><rect fill="#dacbc6" x="0" y="0" width="102.67" height="102.67"/><circle fill="#f7f3f7" cx="30.80" cy="25.67" r="20.53"/><circle fill="#2d1e22" cx="61.60" cy="46.20" r="30.80"/><circle fill="#a90f0c" cx="35.93" cy="71.87" r="25.67"/><circle fill="#ee1d2b" cx="71.87" cy="71.87" r="20.53"/><circle fill="#ba8476" cx="61.60" cy="51.33" r="12.83"/></g><g transform="translate(215.33 160.67)"><rect fill="#f7f3f7" x="0" y="0" width="102.67" height="102.67"/><circle fill="#2d1e22" cx="30.80" cy="25.67" r="20.53"/><circle fill="#a90f0c" cx="61.60" cy="46.20" r="30.80"/><circle fill="#ee1d2b" cx="35.93" cy="71.87" r="25.67"/><circle fill="#ba8476" cx="71.87" cy="71.87" r="20.53"/><circle fill="#dacbc6" cx="61.60" cy="51.33" r="12.83"/></g></svg>