<svg version="1.1" xmlns="http://www.w3.org/2000/svg" xmlns:xlink="http://www.w3.org/1999/xlink" width="318" height="263.33"><g transform="translate(24 24)"><circle fill="#4d3621" cx="0" cy="0" r="24"/><circle fill="#806b52" cx="53" cy="0" r="24"/><circle fill="#9b9685" cx="106" cy="0" r="24"/><circle fill="#acb8af" cx="159" cy="0" r="24"/><circle fill="#bfd4d0" cx="212" cy="0" r="24"/><circle fill="#60acb2" cx="265" cy="0" r="24"/></g><g transform="translate(0 53)"><rect fill="#4d3621" x="0" y="0" width="102.67" height="102.67"/><circle fill="#806b52" cx="30.80" cy="25.67" r="20.53"/><circle fill="#9b9685" cx="61.60" cy="46.20" r="30.80"/><circle fill="#acb8af" cx="35.93" cy="71.87" r="25.67"/><circle fill="#bfd4d0" cx="71.87" cy="71.87" r="20.53"/><circle fill="#60acb2" cx="61.60" cy="51.33" r="12.83"/></g><g transform="translate(107.67 53)"><rect fill="#806b52" x="0" y="0" width="102.67" height="102.67"/><circle fill="#9b9685" cx="30.80" cy="25.67" r="20.53"/><circle fill="#acb8af" cx="61.60" cy="46.20" r="30.80"/><circle fill="#bfd4d0" cx="35.93" cy="71.87" r="25.67"/><circle fill="#60acb2" cx="71.87" cy="71.87" r="20.53"/><circle fill="#4d3621" cx="61.60" cy="51.33" r="12.83"/></g><g transform="translate(215.33 53)"><rect fill="#9b9685" x="0" y="0" width="102.67" height="102.67"/><circle fill="#acb8af" cx="30.80" cy="25.67" r="20.53"/><circle fill="#bfd4d0" cx="61.60" cy="46.20" r="30.80"/><circle fill="#60acb2" cx="35.93" cy="71.87" r="25.67"/><circle fill="#4d3621" cx="71.87" cy="71.87" r="20.53"/><circle fill="#806b52" cx="61.60" cy="51.33" r="12.83"/></g><g transform="translate(0 160.67)"><rect fill="#acb8af" x="0" y="0" width="102.67" height="102.67"/><circle fill="#bfd4d0" cx="30.80" cy="25.67" r="20.53"/><circle fill="#60acb2" cx="61.60" cy="46.20" r="30.80"/><circle fill="#4d3621" cx="35.93" cy="71.87" r="25.67"/><circle fill="#806b52" cx="71.87" cy="71.87" r="20.53"/><circle fill="#9b9685" cx="61.60" cy="51.33" r="12.83"/></g><g transform="translate(107.67 160.67)"><rect fill="#bfd4d0" x="0" y="0" width="102.67" height="102.67"/><circle fill="#60acb2" cx="30.80" cy="25.67" r="20.53"/><circle fill="#4d3621" cx="61.60" cy="46.20" r="30.80"/><circle fill="#806b52" cx="35.93" cy="71.87" r="25.67"/><circle fill="#9b9685" cx="71.87" cy="71.87" r="20.53"/><circle fill="#acb8af" cx="61.60" cy="51.33" r="12.83"/></g><g transform="translate(215.33 160.67)"><rect fill="#60acb2" x="0" y="0" width="102.67" height="102.67"/><circle fill="#4d3621" cx="30.80" cy="25.67" r="20.53"/><circle fill="#806b52" cx="61.60" cy="46.20" r="30.80"/><circle fill="#9b9685" cx="35.93" cy="71.87" r="25.67"/><circle fill="#acb8af" cx="71.87" cy="71.87" r="20.53"/><circle fill="#bfd4d0" cx="61.60" cy="51.33" r="12.83"/></g></svg>