<svg version="1.1" xmlns="http://www.w3.org/2000/svg" xmlns:xlink="http://www.w3.org/1999/xlink" width="318" height="263.33"><g transform="translate(24 24)"><circle fill="#44060c" cx="0" cy="0" r="24"/><circle fill="#8f040a" cx="53" cy="0" r="24"/><circle fill="#ce060d" cx="106" cy="0" r="24"/><circle fill="#768695" cx="159" cy="0" r="24"/><circle fill="#3a3d45" cx="212" cy="0" r="24"/><circle fill="#110b0e" cx="265" cy="0" r="24"/></g><g transform="translate(0 53)"><rect fill="#44060c" x="0" y="0" width="102.67" height="102.67"/><circle fill="#8f040a" cx="30.80" cy="25.67" r="20.53"/><circle fill="#ce060d" cx="61.60" cy="46.20" r="30.80"/><circle fill="#768695" cx="35.93" cy="71.87" r="25.67"/><circle fill="#3a3d45" cx="71.87" cy="71.87" r="20.53"/><circle fill="#110b0e" cx="61.60" cy="51.33" r="12.83"/></g><g transform="translate(107.67 53)"><rect fill="#8f040a" x="0" y="0" width="102.67" height="102.67"/><circle fill="#ce060d" cx="30.80" cy="25.67" r="20.53"/><circle fill="#768695" cx="61.60" cy="46.20" r="30.80"/><circle fill="#3a3d45" cx="35.93" cy="71.87" r="25.67"/><circle fill="#110b0e" cx="71.87" cy="71.87" r="20.53"/><circle fill="#44060c" cx="61.60" cy="51.33" r="12.83"/></g><g transform="translate(215.33 53)"><rect fill="#ce060d" x="0" y="0" width="102.67" height="102.67"/><circle fill="#768695" cx="30.80" cy="25.67" r="20.53"/><circle fill="#3a3d45" cx="61.60" cy="46.20" r="30.80"/><circle fill="#110b0e" cx="35.93" cy="71.87" r="25.67"/><circle fill="#44060c" cx="71.87" cy="71.87" r="20.53"/><circle fill="#8f040a" cx="61.60" cy="51.33" r="12.83"/></g><g transform="translate(0 160.67)"><rect fill="#768695" x="0" y="0" width="102.67" height="102.67"/><circle fill="#3a3d45" cx="30.80" cy="25.67" r="20.53"/><circle fill="#110b0e" cx="61.60" cy="46.20" r="30.80"/><circle fill="#44060c" cx="35.93" cy="71.87" r="25.67"/><circle fill="#8f040a" cx="71.87" cy="71.87" r="20.53"/><circle fill="#ce060d" cx="61.60" cy="51.33" r="12.83"/></g><g transform="translate(107.67 160.67)"><rect fill="#3a3d45" x="0" y="0" width="102.67" height="102.67"/><circle fill="#110b0e" cx="30.80" cy="25.67" r="20.53"/><circle fill="#44060c" cx="61.60" cy="46.20" r="30.80"/><circle fill="#8f040a" cx="35.93" cy="71.87" r="25.67"/><circle fill="#ce060d" cx="71.87" cy="71.87" r="20.53"/><circle fill="#768695" cx="61.60" cy="51.33" r="12.83"/></g><g transform="translate(215.33 160.67)"><rect fill="#110b0e" x="0" y="0" width="102.67" height="102.67"/><circle fill="#44060c" cx="30.80" cy="25.67" r="20.53"/><circle fill="#8f040a" cx="61.60" cy="46.20" r="30.80"/><circle fill="#ce060d" cx="35.93" cy="71.87" r="25.67"/><circle fill="#768695" cx="71.87" cy="71.87" r="20.53"/><circle fill="#3a3d45" cx="61.60" cy="51.33" r="12.83"/></g></svg>