<svg version="1.1" xmlns="http://www.w3.org/2000/svg" xmlns:xlink="http://www.w3.org/1999/xlink" width="318" height="263.33"><g transform="translate(24 24)"><circle fill="#111a26" cx="0" cy="0" r="24"/><circle fill="#313238" cx="53" cy="0" r="24"/><circle fill="#614e40" cx="106" cy="0" r="24"/><circle fill="#a69075" cx="159" cy="0" r="24"/><circle fill="#e08609" cx="212" cy="0" r="24"/><circle fill="#9d611a" cx="265" cy="0" r="24"/></g><g transform="translate(0 53)"><rect fill="#111a26" x="0" y="0" width="102.67" height="102.67"/><circle fill="#313238" cx="30.80" cy="25.67" r="20.53"/><circle fill="#614e40" cx="61.60" cy="46.20" r="30.80"/><circle fill="#a69075" cx="35.93" cy="71.87" r="25.67"/><circle fill="#e08609" cx="71.87" cy="71.87" r="20.53"/><circle fill="#9d611a" cx="61.60" cy="51.33" r="12.83"/></g><g transform="translate(107.67 53)"><rect fill="#313238" x="0" y="0" width="102.67" height="102.67"/><circle fill="#614e40" cx="30.80" cy="25.67" r="20.53"/><circle fill="#a69075" cx="61.60" cy="46.20" r="30.80"/><circle fill="#e08609" cx="35.93" cy="71.87" r="25.67"/><circle fill="#9d611a" cx="71.87" cy="71.87" r="20.53"/><circle fill="#111a26" cx="61.60" cy="51.33" r="12.83"/></g><g transform="translate(215.33 53)"><rect fill="#614e40" x="0" y="0" width="102.67" height="102.67"/><circle fill="#a69075" cx="30.80" cy="25.67" r="20.53"/><circle fill="#e08609" cx="61.60" cy="46.20" r="30.80"/><circle fill="#9d611a" cx="35.93" cy="71.87" r="25.67"/><circle fill="#111a26" cx="71.87" cy="71.87" r="20.53"/><circle fill="#313238" cx="61.60" cy="51.33" r="12.83"/></g><g transform="translate(0 160.67)"><rect fill="#a69075" x="0" y="0" width="102.67" height="102.67"/><circle fill="#e08609" cx="30.80" cy="25.67" r="20.53"/><circle fill="#9d611a" cx="61.60" cy="46.20" r="30.80"/><circle fill="#111a26" cx="35.93" cy="71.87" r="25.67"/><circle fill="#313238" cx="71.87" cy="71.87" r="20.53"/><circle fill="#614e40" cx="61.60" cy="51.33" r="12.83"/></g><g transform="translate(107.67 160.67)"><rect fill="#e08609" x="0" y="0" width="102.67" height="102.67"/><circle fill="#9d611a" cx="30.80" cy="25.67" r="20.53"/><circle fill="#111a26" cx="61.60" cy="46.20" r="30.80"/><circle fill="#313238" cx="35.93" cy="71.87" r="25.67"/><circle fill="#614e40" cx="71.87" cy="71.87" r="20.53"/><circle fill="#a69075" cx="61.60" cy="51.33" r="12.83"/></g><g transform="translate(215.33 160.67)"><rect fill="#9d611a" x="0" y="0" width="102.67" height="102.67"/><circle fill="#111a26" cx="30.80" cy="25.67" r="20.53"/><circle fill="#313238" cx="61.60" cy="46.20" r="30.80"/><circle fill="#614e40" cx="35.93" cy="71.87" r="25.67"/><circle fill="#a69075" cx="71.87" cy="71.87" r="20.53"/><circle fill="#e08609" cx="61.60" cy="51.33" r="12.83"/></g></svg>