<svg version="1.1" xmlns="http://www.w3.org/2000/svg" xmlns:xlink="http://www.w3.org/1999/xlink" width="318" height="263.33"><g transform="translate(24 24)"><circle fill="#c4575f" cx="0" cy="0" r="24"/><circle fill="#f5976d" cx="53" cy="0" r="24"/><circle fill="#0ba4d7" cx="106" cy="0" r="24"/><circle fill="#0e3077" cx="159" cy="0" r="24"/><circle fill="#f38db2" cx="212" cy="0" r="24"/><circle fill="#746fb9" cx="265" cy="0" r="24"/></g><g transform="translate(0 53)"><rect fill="#c4575f" x="0" y="0" width="102.67" height="102.67"/><circle fill="#f5976d" cx="30.80" cy="25.67" r="20.53"/><circle fill="#0ba4d7" cx="61.60" cy="46.20" r="30.80"/><circle fill="#0e3077" cx="35.93" cy="71.87" r="25.67"/><circle fill="#f38db2" cx="71.87" cy="71.87" r="20.53"/><circle fill="#746fb9" cx="61.60" cy="51.33" r="12.83"/></g><g transform="translate(107.67 53)"><rect fill="#f5976d" x="0" y="0" width="102.67" height="102.67"/><circle fill="#0ba4d7" cx="30.80" cy="25.67" r="20.53"/><circle fill="#0e3077" cx="61.60" cy="46.20" r="30.80"/><circle fill="#f38db2" cx="35.93" cy="71.87" r="25.67"/><circle fill="#746fb9" cx="71.87" cy="71.87" r="20.53"/><circle fill="#c4575f" cx="61.60" cy="51.33" r="12.83"/></g><g transform="translate(215.33 53)"><rect fill="#0ba4d7" x="0" y="0" width="102.67" height="102.67"/><circle fill="#0e3077" cx="30.80" cy="25.67" r="20.53"/><circle fill="#f38db2" cx="61.60" cy="46.20" r="30.80"/><circle fill="#746fb9" cx="35.93" cy="71.87" r="25.67"/><circle fill="#c4575f" cx="71.87" cy="71.87" r="20.53"/><circle fill="#f5976d" cx="61.60" cy="51.33" r="12.83"/></g><g transform="translate(0 160.67)"><rect fill="#0e3077" x="0" y="0" width="102.67" height="102.67"/><circle fill="#f38db2" cx="30.80" cy="25.67" r="20.53"/><circle fill="#746fb9" cx="61.60" cy="46.20" r="30.80"/><circle fill="#c4575f" cx="35.93" cy="71.87" r="25.67"/><circle fill="#f5976d" cx="71.87" cy="71.87" r="20.53"/><circle fill="#0ba4d7" cx="61.60" cy="51.33" r="12.83"/></g><g transform="translate(107.67 160.67)"><rect fill="#f38db2" x="0" y="0" width="102.67" height="102.67"/><circle fill="#746fb9" cx="30.80" cy="25.67" r="20.53"/><circle fill="#c4575f" cx="61.60" cy="46.20" r="30.80"/><circle fill="#f5976d" cx="35.93" cy="71.87" r="25.67"/><circle fill="#0ba4d7" cx="71.87" cy="71.87" r="20.53"/><circle fill="#0e3077" cx="61.60" cy="51.33" r="12.83"/></g><g transform="translate(215.33 160.67)"><rect fill="#746fb9" x="0" y="0" width="102.67" height="102.67"/><circle fill="#c4575f" cx="30.80" cy="25.67" r="20.53"/><circle fill="#f5976d" cx="61.60" cy="46.20" r="30.80"/><circle fill="#0ba4d7" cx="35.93" cy="71.87" r="25.67"/><circle fill="#0e3077" cx="71.87" cy="71.87" r="20.53"/><circle fill="#f38db2" cx="61.60" cy="51.33" r="12.83"/></g></svg>