<svg version="1.1" xmlns="http://www.w3.org/2000/svg" xmlns:xlink="http://www.w3.org/1999/xlink" width="318" height="263.33333333333337"><g transform="translate(24 24)"><circle fill="#ff569e" cx="0" cy="0" r="24"/><circle fill="#fe585e" cx="53" cy="0" r="24"/><circle fill="#fd7145" cx="106" cy="0" r="24"/><circle fill="#f5884e" cx="159" cy="0" r="24"/><circle fill="#ffad05" cx="212" cy="0" r="24"/><circle fill="#fec44c" cx="265" cy="0" r="24"/></g><g transform="translate(0 53)"><rect fill="#ff569e" x="0" y="0" width="102.67" height="102.67"/><circle fill="#fe585e" cx="30.80" cy="25.67" r="20.53"/><circle fill="#fd7145" cx="61.60" cy="46.20" r="30.80"/><circle fill="#f5884e" cx="35.93" cy="71.87" r="25.67"/><circle fill="#ffad05" cx="71.87" cy="71.87" r="20.53"/><circle fill="#fec44c" cx="61.60" cy="51.33" r="12.83"/></g><g transform="translate(107.67 53)"><rect fill="#fe585e" x="0" y="0" width="102.67" height="102.67"/><circle fill="#fd7145" cx="30.80" cy="25.67" r="20.53"/><circle fill="#f5884e" cx="61.60" cy="46.20" r="30.80"/><circle fill="#ffad05" cx="35.93" cy="71.87" r="25.67"/><circle fill="#fec44c" cx="71.87" cy="71.87" r="20.53"/><circle fill="#ff569e" cx="61.60" cy="51.33" r="12.83"/></g><g transform="translate(215.33 53)"><rect fill="#fd7145" x="0" y="0" width="102.67" height="102.67"/><circle fill="#f5884e" cx="30.80" cy="25.67" r="20.53"/><circle fill="#ffad05" cx="61.60" cy="46.20" r="30.80"/><circle fill="#fec44c" cx="35.93" cy="71.87" r="25.67"/><circle fill="#ff569e" cx="71.87" cy="71.87" r="20.53"/><circle fill="#fe585e" cx="61.60" cy="51.33" r="12.83"/></g><g transform="translate(0 160.67)"><rect fill="#f5884e" x="0" y="0" width="102.67" height="102.67"/><circle fill="#ffad05" cx="30.80" cy="25.67" r="20.53"/><circle fill="#fec44c" cx="61.60" cy="46.20" r="30.80"/><circle fill="#ff569e" cx="35.93" cy="71.87" r="25.67"/><circle fill="#fe585e" cx="71.87" cy="71.87" r="20.53"/><circle fill="#fd7145" cx="61.60" cy="51.33" r="12.83"/></g><g transform="translate(107.67 160.67)"><rect fill="#ffad05" x="0" y="0" width="102.67" height="102.67"/><circle fill="#fec44c" cx="30.80" cy="25.67" r="20.53"/><circle fill="#ff569e" cx="61.60" cy="46.20" r="30.80"/><circle fill="#fe585e" cx="35.93" cy="71.87" r="25.67"/><circle fill="#fd7145" cx="71.87" cy="71.87" r="20.53"/><circle fill="#f5884e" cx="61.60" cy="51.33" r="12.83"/></g><g transform="translate(215.33 160.67)"><rect fill="#fec44c" x="0" y="0" width="102.67" height="102.67"/><circle fill="#ff569e" cx="30.80" cy="25.67" r="20.53"/><circle fill="#fe585e" cx="61.60" cy="46.20" r="30.80"/><circle fill="#fd7145" cx="35.93" cy="71.87" r="25.67"/><circle fill="#f5884e" cx="71.87" cy="71.87" r="20.53"/><circle fill="#ffad05" cx="61.60" cy="51.33" r="12.83"/></g></svg>