<svg version="1.1" xmlns="http://www.w3.org/2000/svg" xmlns:xlink="http://www.w3.org/1999/xlink" width="318" height="263.33333333333337"><g transform="translate(24 24)"><circle fill="#f0181f" cx="0" cy="0" r="24"/><circle fill="#b51c1c" cx="53" cy="0" r="24"/><circle fill="#b4a8a2" cx="106" cy="0" r="24"/><circle fill="#dcd4db" cx="159" cy="0" r="24"/><circle fill="#75787a" cx="212" cy="0" r="24"/><circle fill="#3c373b" cx="265" cy="0" r="24"/></g><g transform="translate(0 53)"><rect fill="#f0181f" x="0" y="0" width="102.67" height="102.67"/><circle fill="#b51c1c" cx="30.80" cy="25.67" r="20.53"/><circle fill="#b4a8a2" cx="61.60" cy="46.20" r="30.80"/><circle fill="#dcd4db" cx="35.93" cy="71.87" r="25.67"/><circle fill="#75787a" cx="71.87" cy="71.87" r="20.53"/><circle fill="#3c373b" cx="61.60" cy="51.33" r="12.83"/></g><g transform="translate(107.67 53)"><rect fill="#b51c1c" x="0" y="0" width="102.67" height="102.67"/><circle fill="#b4a8a2" cx="30.80" cy="25.67" r="20.53"/><circle fill="#dcd4db" cx="61.60" cy="46.20" r="30.80"/><circle fill="#75787a" cx="35.93" cy="71.87" r="25.67"/><circle fill="#3c373b" cx="71.87" cy="71.87" r="20.53"/><circle fill="#f0181f" cx="61.60" cy="51.33" r="12.83"/></g><g transform="translate(215.33 53)"><rect fill="#b4a8a2" x="0" y="0" width="102.67" height="102.67"/><circle fill="#dcd4db" cx="30.80" cy="25.67" r="20.53"/><circle fill="#75787a" cx="61.60" cy="46.20" r="30.80"/><circle fill="#3c373b" cx="35.93" cy="71.87" r="25.67"/><circle fill="#f0181f" cx="71.87" cy="71.87" r="20.53"/><circle fill="#b51c1c" cx="61.60" cy="51.33" r="12.83"/></g><g transform="translate(0 160.67)"><rect fill="#dcd4db" x="0" y="0" width="102.67" height="102.67"/><circle fill="#75787a" cx="30.80" cy="25.67" r="20.53"/><circle fill="#3c373b" cx="61.60" cy="46.20" r="30.80"/><circle fill="#f0181f" cx="35.93" cy="71.87" r="25.67"/><circle fill="#b51c1c" cx="71.87" cy="71.87" r="20.53"/><circle fill="#b4a8a2" cx="61.60" cy="51.33" r="12.83"/></g><g transform="translate(107.67 160.67)"><rect fill="#75787a" x="0" y="0" width="102.67" height="102.67"/><circle fill="#3c373b" cx="30.80" cy="25.67" r="20.53"/><circle fill="#f0181f" cx="61.60" cy="46.20" r="30.80"/><circle fill="#b51c1c" cx="35.93" cy="71.87" r="25.67"/><circle fill="#b4a8a2" cx="71.87" cy="71.87" r="20.53"/><circle fill="#dcd4db" cx="61.60" cy="51.33" r="12.83"/></g><g transform="translate(215.33 160.67)"><rect fill="#3c373b" x="0" y="0" width="102.67" height="102.67"/><circle fill="#f0181f" cx="30.80" cy="25.67" r="20.53"/><circle fill="#b51c1c" cx="61.60" cy="46.20" r="30.80"/><circle fill="#b4a8a2" cx="35.93" cy="71.87" r="25.67"/><circle fill="#dcd4db" cx="71.87" cy="71.87" r="20.53"/><circle fill="#75787a" cx="61.60" cy="51.33" r="12.83"/></g></svg>