<svg version="1.1" xmlns="http://www.w3.org/2000/svg" xmlns:xlink="http://www.w3.org/1999/xlink" width="318" height="263.33333333333337"><g transform="translate(24 24)"><circle fill="#ddf0c3" cx="0" cy="0" r="24"/><circle fill="#b3eed4" cx="53" cy="0" r="24"/><circle fill="#94e6da" cx="106" cy="0" r="24"/><circle fill="#78d1e7" cx="159" cy="0" r="24"/><circle fill="#a3d5ed" cx="212" cy="0" r="24"/><circle fill="#c8c3ec" cx="265" cy="0" r="24"/></g><g transform="translate(0 53)"><rect fill="#ddf0c3" x="0" y="0" width="102.67" height="102.67"/><circle fill="#b3eed4" cx="30.80" cy="25.67" r="20.53"/><circle fill="#94e6da" cx="61.60" cy="46.20" r="30.80"/><circle fill="#78d1e7" cx="35.93" cy="71.87" r="25.67"/><circle fill="#a3d5ed" cx="71.87" cy="71.87" r="20.53"/><circle fill="#c8c3ec" cx="61.60" cy="51.33" r="12.83"/></g><g transform="translate(107.67 53)"><rect fill="#b3eed4" x="0" y="0" width="102.67" height="102.67"/><circle fill="#94e6da" cx="30.80" cy="25.67" r="20.53"/><circle fill="#78d1e7" cx="61.60" cy="46.20" r="30.80"/><circle fill="#a3d5ed" cx="35.93" cy="71.87" r="25.67"/><circle fill="#c8c3ec" cx="71.87" cy="71.87" r="20.53"/><circle fill="#ddf0c3" cx="61.60" cy="51.33" r="12.83"/></g><g transform="translate(215.33 53)"><rect fill="#94e6da" x="0" y="0" width="102.67" height="102.67"/><circle fill="#78d1e7" cx="30.80" cy="25.67" r="20.53"/><circle fill="#a3d5ed" cx="61.60" cy="46.20" r="30.80"/><circle fill="#c8c3ec" cx="35.93" cy="71.87" r="25.67"/><circle fill="#ddf0c3" cx="71.87" cy="71.87" r="20.53"/><circle fill="#b3eed4" cx="61.60" cy="51.33" r="12.83"/></g><g transform="translate(0 160.67)"><rect fill="#78d1e7" x="0" y="0" width="102.67" height="102.67"/><circle fill="#a3d5ed" cx="30.80" cy="25.67" r="20.53"/><circle fill="#c8c3ec" cx="61.60" cy="46.20" r="30.80"/><circle fill="#ddf0c3" cx="35.93" cy="71.87" r="25.67"/><circle fill="#b3eed4" cx="71.87" cy="71.87" r="20.53"/><circle fill="#94e6da" cx="61.60" cy="51.33" r="12.83"/></g><g transform="translate(107.67 160.67)"><rect fill="#a3d5ed" x="0" y="0" width="102.67" height="102.67"/><circle fill="#c8c3ec" cx="30.80" cy="25.67" r="20.53"/><circle fill="#ddf0c3" cx="61.60" cy="46.20" r="30.80"/><circle fill="#b3eed4" cx="35.93" cy="71.87" r="25.67"/><circle fill="#94e6da" cx="71.87" cy="71.87" r="20.53"/><circle fill="#78d1e7" cx="61.60" cy="51.33" r="12.83"/></g><g transform="translate(215.33 160.67)"><rect fill="#c8c3ec" x="0" y="0" width="102.67" height="102.67"/><circle fill="#ddf0c3" cx="30.80" cy="25.67" r="20.53"/><circle fill="#b3eed4" cx="61.60" cy="46.20" r="30.80"/><circle fill="#94e6da" cx="35.93" cy="71.87" r="25.67"/><circle fill="#78d1e7" cx="71.87" cy="71.87" r="20.53"/><circle fill="#a3d5ed" cx="61.60" cy="51.33" r="12.83"/></g></svg>