<svg version="1.1" xmlns="http://www.w3.org/2000/svg" xmlns:xlink="http://www.w3.org/1999/xlink" width="318" height="263.33333333333337"><g transform="translate(24 24)"><circle fill="#df4341" cx="0" cy="0" r="24"/><circle fill="#e8817e" cx="53" cy="0" r="24"/><circle fill="#b1a789" cx="106" cy="0" r="24"/><circle fill="#d6d1ba" cx="159" cy="0" r="24"/><circle fill="#b1b828" cx="212" cy="0" r="24"/><circle fill="#c1ed7f" cx="265" cy="0" r="24"/></g><g transform="translate(0 53)"><rect fill="#df4341" x="0" y="0" width="102.67" height="102.67"/><circle fill="#e8817e" cx="30.80" cy="25.67" r="20.53"/><circle fill="#b1a789" cx="61.60" cy="46.20" r="30.80"/><circle fill="#d6d1ba" cx="35.93" cy="71.87" r="25.67"/><circle fill="#b1b828" cx="71.87" cy="71.87" r="20.53"/><circle fill="#c1ed7f" cx="61.60" cy="51.33" r="12.83"/></g><g transform="translate(107.67 53)"><rect fill="#e8817e" x="0" y="0" width="102.67" height="102.67"/><circle fill="#b1a789" cx="30.80" cy="25.67" r="20.53"/><circle fill="#d6d1ba" cx="61.60" cy="46.20" r="30.80"/><circle fill="#b1b828" cx="35.93" cy="71.87" r="25.67"/><circle fill="#c1ed7f" cx="71.87" cy="71.87" r="20.53"/><circle fill="#df4341" cx="61.60" cy="51.33" r="12.83"/></g><g transform="translate(215.33 53)"><rect fill="#b1a789" x="0" y="0" width="102.67" height="102.67"/><circle fill="#d6d1ba" cx="30.80" cy="25.67" r="20.53"/><circle fill="#b1b828" cx="61.60" cy="46.20" r="30.80"/><circle fill="#c1ed7f" cx="35.93" cy="71.87" r="25.67"/><circle fill="#df4341" cx="71.87" cy="71.87" r="20.53"/><circle fill="#e8817e" cx="61.60" cy="51.33" r="12.83"/></g><g transform="translate(0 160.67)"><rect fill="#d6d1ba" x="0" y="0" width="102.67" height="102.67"/><circle fill="#b1b828" cx="30.80" cy="25.67" r="20.53"/><circle fill="#c1ed7f" cx="61.60" cy="46.20" r="30.80"/><circle fill="#df4341" cx="35.93" cy="71.87" r="25.67"/><circle fill="#e8817e" cx="71.87" cy="71.87" r="20.53"/><circle fill="#b1a789" cx="61.60" cy="51.33" r="12.83"/></g><g transform="translate(107.67 160.67)"><rect fill="#b1b828" x="0" y="0" width="102.67" height="102.67"/><circle fill="#c1ed7f" cx="30.80" cy="25.67" r="20.53"/><circle fill="#df4341" cx="61.60" cy="46.20" r="30.80"/><circle fill="#e8817e" cx="35.93" cy="71.87" r="25.67"/><circle fill="#b1a789" cx="71.87" cy="71.87" r="20.53"/><circle fill="#d6d1ba" cx="61.60" cy="51.33" r="12.83"/></g><g transform="translate(215.33 160.67)"><rect fill="#c1ed7f" x="0" y="0" width="102.67" height="102.67"/><circle fill="#df4341" cx="30.80" cy="25.67" r="20.53"/><circle fill="#e8817e" cx="61.60" cy="46.20" r="30.80"/><circle fill="#b1a789" cx="35.93" cy="71.87" r="25.67"/><circle fill="#d6d1ba" cx="71.87" cy="71.87" r="20.53"/><circle fill="#b1b828" cx="61.60" cy="51.33" r="12.83"/></g></svg>