<svg version="1.1" xmlns="http://www.w3.org/2000/svg" xmlns:xlink="http://www.w3.org/1999/xlink" width="318" height="263.33333333333337"><g transform="translate(24 24)"><circle fill="#4e3427" cx="0" cy="0" r="24"/><circle fill="#7f5a47" cx="53" cy="0" r="24"/><circle fill="#b68d73" cx="106" cy="0" r="24"/><circle fill="#e3ccb7" cx="159" cy="0" r="24"/><circle fill="#064857" cx="212" cy="0" r="24"/><circle fill="#077d95" cx="265" cy="0" r="24"/></g><g transform="translate(0 53)"><rect fill="#4e3427" x="0" y="0" width="102.67" height="102.67"/><circle fill="#7f5a47" cx="30.80" cy="25.67" r="20.53"/><circle fill="#b68d73" cx="61.60" cy="46.20" r="30.80"/><circle fill="#e3ccb7" cx="35.93" cy="71.87" r="25.67"/><circle fill="#064857" cx="71.87" cy="71.87" r="20.53"/><circle fill="#077d95" cx="61.60" cy="51.33" r="12.83"/></g><g transform="translate(107.67 53)"><rect fill="#7f5a47" x="0" y="0" width="102.67" height="102.67"/><circle fill="#b68d73" cx="30.80" cy="25.67" r="20.53"/><circle fill="#e3ccb7" cx="61.60" cy="46.20" r="30.80"/><circle fill="#064857" cx="35.93" cy="71.87" r="25.67"/><circle fill="#077d95" cx="71.87" cy="71.87" r="20.53"/><circle fill="#4e3427" cx="61.60" cy="51.33" r="12.83"/></g><g transform="translate(215.33 53)"><rect fill="#b68d73" x="0" y="0" width="102.67" height="102.67"/><circle fill="#e3ccb7" cx="30.80" cy="25.67" r="20.53"/><circle fill="#064857" cx="61.60" cy="46.20" r="30.80"/><circle fill="#077d95" cx="35.93" cy="71.87" r="25.67"/><circle fill="#4e3427" cx="71.87" cy="71.87" r="20.53"/><circle fill="#7f5a47" cx="61.60" cy="51.33" r="12.83"/></g><g transform="translate(0 160.67)"><rect fill="#e3ccb7" x="0" y="0" width="102.67" height="102.67"/><circle fill="#064857" cx="30.80" cy="25.67" r="20.53"/><circle fill="#077d95" cx="61.60" cy="46.20" r="30.80"/><circle fill="#4e3427" cx="35.93" cy="71.87" r="25.67"/><circle fill="#7f5a47" cx="71.87" cy="71.87" r="20.53"/><circle fill="#b68d73" cx="61.60" cy="51.33" r="12.83"/></g><g transform="translate(107.67 160.67)"><rect fill="#064857" x="0" y="0" width="102.67" height="102.67"/><circle fill="#077d95" cx="30.80" cy="25.67" r="20.53"/><circle fill="#4e3427" cx="61.60" cy="46.20" r="30.80"/><circle fill="#7f5a47" cx="35.93" cy="71.87" r="25.67"/><circle fill="#b68d73" cx="71.87" cy="71.87" r="20.53"/><circle fill="#e3ccb7" cx="61.60" cy="51.33" r="12.83"/></g><g transform="translate(215.33 160.67)"><rect fill="#077d95" x="0" y="0" width="102.67" height="102.67"/><circle fill="#4e3427" cx="30.80" cy="25.67" r="20.53"/><circle fill="#7f5a47" cx="61.60" cy="46.20" r="30.80"/><circle fill="#b68d73" cx="35.93" cy="71.87" r="25.67"/><circle fill="#e3ccb7" cx="71.87" cy="71.87" r="20.53"/><circle fill="#064857" cx="61.60" cy="51.33" r="12.83"/></g></svg>