<svg version="1.1" xmlns="http://www.w3.org/2000/svg" xmlns:xlink="http://www.w3.org/1999/xlink" width="318" height="263.33"><g transform="translate(24 24)"><circle fill="#556087" cx="0" cy="0" r="24"/><circle fill="#6e78aa" cx="53" cy="0" r="24"/><circle fill="#adb1e6" cx="106" cy="0" r="24"/><circle fill="#9c5d78" cx="159" cy="0" r="24"/><circle fill="#f1a7c0" cx="212" cy="0" r="24"/><circle fill="#c97a8e" cx="265" cy="0" r="24"/></g><g transform="translate(0 53)"><rect fill="#556087" x="0" y="0" width="102.67" height="102.67"/><circle fill="#6e78aa" cx="30.80" cy="25.67" r="20.53"/><circle fill="#adb1e6" cx="61.60" cy="46.20" r="30.80"/><circle fill="#9c5d78" cx="35.93" cy="71.87" r="25.67"/><circle fill="#f1a7c0" cx="71.87" cy="71.87" r="20.53"/><circle fill="#c97a8e" cx="61.60" cy="51.33" r="12.83"/></g><g transform="translate(107.67 53)"><rect fill="#6e78aa" x="0" y="0" width="102.67" height="102.67"/><circle fill="#adb1e6" cx="30.80" cy="25.67" r="20.53"/><circle fill="#9c5d78" cx="61.60" cy="46.20" r="30.80"/><circle fill="#f1a7c0" cx="35.93" cy="71.87" r="25.67"/><circle fill="#c97a8e" cx="71.87" cy="71.87" r="20.53"/><circle fill="#556087" cx="61.60" cy="51.33" r="12.83"/></g><g transform="translate(215.33 53)"><rect fill="#adb1e6" x="0" y="0" width="102.67" height="102.67"/><circle fill="#9c5d78" cx="30.80" cy="25.67" r="20.53"/><circle fill="#f1a7c0" cx="61.60" cy="46.20" r="30.80"/><circle fill="#c97a8e" cx="35.93" cy="71.87" r="25.67"/><circle fill="#556087" cx="71.87" cy="71.87" r="20.53"/><circle fill="#6e78aa" cx="61.60" cy="51.33" r="12.83"/></g><g transform="translate(0 160.67)"><rect fill="#9c5d78" x="0" y="0" width="102.67" height="102.67"/><circle fill="#f1a7c0" cx="30.80" cy="25.67" r="20.53"/><circle fill="#c97a8e" cx="61.60" cy="46.20" r="30.80"/><circle fill="#556087" cx="35.93" cy="71.87" r="25.67"/><circle fill="#6e78aa" cx="71.87" cy="71.87" r="20.53"/><circle fill="#adb1e6" cx="61.60" cy="51.33" r="12.83"/></g><g transform="translate(107.67 160.67)"><rect fill="#f1a7c0" x="0" y="0" width="102.67" height="102.67"/><circle fill="#c97a8e" cx="30.80" cy="25.67" r="20.53"/><circle fill="#556087" cx="61.60" cy="46.20" r="30.80"/><circle fill="#6e78aa" cx="35.93" cy="71.87" r="25.67"/><circle fill="#adb1e6" cx="71.87" cy="71.87" r="20.53"/><circle fill="#9c5d78" cx="61.60" cy="51.33" r="12.83"/></g><g transform="translate(215.33 160.67)"><rect fill="#c97a8e" x="0" y="0" width="102.67" height="102.67"/><circle fill="#556087" cx="30.80" cy="25.67" r="20.53"/><circle fill="#6e78aa" cx="61.60" cy="46.20" r="30.80"/><circle fill="#adb1e6" cx="35.93" cy="71.87" r="25.67"/><circle fill="#9c5d78" cx="71.87" cy="71.87" r="20.53"/><circle fill="#f1a7c0" cx="61.60" cy="51.33" r="12.83"/></g></svg>