<svg version="1.1" xmlns="http://www.w3.org/2000/svg" xmlns:xlink="http://www.w3.org/1999/xlink" width="318" height="263.33"><g transform="translate(24 24)"><circle fill="#461b10" cx="0" cy="0" r="24"/><circle fill="#95573a" cx="53" cy="0" r="24"/><circle fill="#dfb79b" cx="106" cy="0" r="24"/><circle fill="#75b5c7" cx="159" cy="0" r="24"/><circle fill="#33748f" cx="212" cy="0" r="24"/><circle fill="#0a2c42" cx="265" cy="0" r="24"/></g><g transform="translate(0 53)"><rect fill="#461b10" x="0" y="0" width="102.67" height="102.67"/><circle fill="#95573a" cx="30.80" cy="25.67" r="20.53"/><circle fill="#dfb79b" cx="61.60" cy="46.20" r="30.80"/><circle fill="#75b5c7" cx="35.93" cy="71.87" r="25.67"/><circle fill="#33748f" cx="71.87" cy="71.87" r="20.53"/><circle fill="#0a2c42" cx="61.60" cy="51.33" r="12.83"/></g><g transform="translate(107.67 53)"><rect fill="#95573a" x="0" y="0" width="102.67" height="102.67"/><circle fill="#dfb79b" cx="30.80" cy="25.67" r="20.53"/><circle fill="#75b5c7" cx="61.60" cy="46.20" r="30.80"/><circle fill="#33748f" cx="35.93" cy="71.87" r="25.67"/><circle fill="#0a2c42" cx="71.87" cy="71.87" r="20.53"/><circle fill="#461b10" cx="61.60" cy="51.33" r="12.83"/></g><g transform="translate(215.33 53)"><rect fill="#dfb79b" x="0" y="0" width="102.67" height="102.67"/><circle fill="#75b5c7" cx="30.80" cy="25.67" r="20.53"/><circle fill="#33748f" cx="61.60" cy="46.20" r="30.80"/><circle fill="#0a2c42" cx="35.93" cy="71.87" r="25.67"/><circle fill="#461b10" cx="71.87" cy="71.87" r="20.53"/><circle fill="#95573a" cx="61.60" cy="51.33" r="12.83"/></g><g transform="translate(0 160.67)"><rect fill="#75b5c7" x="0" y="0" width="102.67" height="102.67"/><circle fill="#33748f" cx="30.80" cy="25.67" r="20.53"/><circle fill="#0a2c42" cx="61.60" cy="46.20" r="30.80"/><circle fill="#461b10" cx="35.93" cy="71.87" r="25.67"/><circle fill="#95573a" cx="71.87" cy="71.87" r="20.53"/><circle fill="#dfb79b" cx="61.60" cy="51.33" r="12.83"/></g><g transform="translate(107.67 160.67)"><rect fill="#33748f" x="0" y="0" width="102.67" height="102.67"/><circle fill="#0a2c42" cx="30.80" cy="25.67" r="20.53"/><circle fill="#461b10" cx="61.60" cy="46.20" r="30.80"/><circle fill="#95573a" cx="35.93" cy="71.87" r="25.67"/><circle fill="#dfb79b" cx="71.87" cy="71.87" r="20.53"/><circle fill="#75b5c7" cx="61.60" cy="51.33" r="12.83"/></g><g transform="translate(215.33 160.67)"><rect fill="#0a2c42" x="0" y="0" width="102.67" height="102.67"/><circle fill="#461b10" cx="30.80" cy="25.67" r="20.53"/><circle fill="#95573a" cx="61.60" cy="46.20" r="30.80"/><circle fill="#dfb79b" cx="35.93" cy="71.87" r="25.67"/><circle fill="#75b5c7" cx="71.87" cy="71.87" r="20.53"/><circle fill="#33748f" cx="61.60" cy="51.33" r="12.83"/></g></svg>