<svg version="1.1" xmlns="http://www.w3.org/2000/svg" xmlns:xlink="http://www.w3.org/1999/xlink" width="318" height="263.33"><g transform="translate(24 24)"><circle fill="#3c1b18" cx="0" cy="0" r="24"/><circle fill="#5d2328" cx="53" cy="0" r="24"/><circle fill="#922849" cx="106" cy="0" r="24"/><circle fill="#685256" cx="159" cy="0" r="24"/><circle fill="#918289" cx="212" cy="0" r="24"/><circle fill="#b2b1bd" cx="265" cy="0" r="24"/></g><g transform="translate(0 53)"><rect fill="#3c1b18" x="0" y="0" width="102.67" height="102.67"/><circle fill="#5d2328" cx="30.80" cy="25.67" r="20.53"/><circle fill="#922849" cx="61.60" cy="46.20" r="30.80"/><circle fill="#685256" cx="35.93" cy="71.87" r="25.67"/><circle fill="#918289" cx="71.87" cy="71.87" r="20.53"/><circle fill="#b2b1bd" cx="61.60" cy="51.33" r="12.83"/></g><g transform="translate(107.67 53)"><rect fill="#5d2328" x="0" y="0" width="102.67" height="102.67"/><circle fill="#922849" cx="30.80" cy="25.67" r="20.53"/><circle fill="#685256" cx="61.60" cy="46.20" r="30.80"/><circle fill="#918289" cx="35.93" cy="71.87" r="25.67"/><circle fill="#b2b1bd" cx="71.87" cy="71.87" r="20.53"/><circle fill="#3c1b18" cx="61.60" cy="51.33" r="12.83"/></g><g transform="translate(215.33 53)"><rect fill="#922849" x="0" y="0" width="102.67" height="102.67"/><circle fill="#685256" cx="30.80" cy="25.67" r="20.53"/><circle fill="#918289" cx="61.60" cy="46.20" r="30.80"/><circle fill="#b2b1bd" cx="35.93" cy="71.87" r="25.67"/><circle fill="#3c1b18" cx="71.87" cy="71.87" r="20.53"/><circle fill="#5d2328" cx="61.60" cy="51.33" r="12.83"/></g><g transform="translate(0 160.67)"><rect fill="#685256" x="0" y="0" width="102.67" height="102.67"/><circle fill="#918289" cx="30.80" cy="25.67" r="20.53"/><circle fill="#b2b1bd" cx="61.60" cy="46.20" r="30.80"/><circle fill="#3c1b18" cx="35.93" cy="71.87" r="25.67"/><circle fill="#5d2328" cx="71.87" cy="71.87" r="20.53"/><circle fill="#922849" cx="61.60" cy="51.33" r="12.83"/></g><g transform="translate(107.67 160.67)"><rect fill="#918289" x="0" y="0" width="102.67" height="102.67"/><circle fill="#b2b1bd" cx="30.80" cy="25.67" r="20.53"/><circle fill="#3c1b18" cx="61.60" cy="46.20" r="30.80"/><circle fill="#5d2328" cx="35.93" cy="71.87" r="25.67"/><circle fill="#922849" cx="71.87" cy="71.87" r="20.53"/><circle fill="#685256" cx="61.60" cy="51.33" r="12.83"/></g><g transform="translate(215.33 160.67)"><rect fill="#b2b1bd" x="0" y="0" width="102.67" height="102.67"/><circle fill="#3c1b18" cx="30.80" cy="25.67" r="20.53"/><circle fill="#5d2328" cx="61.60" cy="46.20" r="30.80"/><circle fill="#922849" cx="35.93" cy="71.87" r="25.67"/><circle fill="#685256" cx="71.87" cy="71.87" r="20.53"/><circle fill="#918289" cx="61.60" cy="51.33" r="12.83"/></g></svg>