<svg version="1.1" xmlns="http://www.w3.org/2000/svg" xmlns:xlink="http://www.w3.org/1999/xlink" width="318" height="263.33"><g transform="translate(24 24)"><circle fill="#182d4f" cx="0" cy="0" r="24"/><circle fill="#2e629a" cx="53" cy="0" r="24"/><circle fill="#78a9d4" cx="106" cy="0" r="24"/><circle fill="#8a8c99" cx="159" cy="0" r="24"/><circle fill="#bac0cd" cx="212" cy="0" r="24"/><circle fill="#f2f2f3" cx="265" cy="0" r="24"/></g><g transform="translate(0 53)"><rect fill="#182d4f" x="0" y="0" width="102.67" height="102.67"/><circle fill="#2e629a" cx="30.80" cy="25.67" r="20.53"/><circle fill="#78a9d4" cx="61.60" cy="46.20" r="30.80"/><circle fill="#8a8c99" cx="35.93" cy="71.87" r="25.67"/><circle fill="#bac0cd" cx="71.87" cy="71.87" r="20.53"/><circle fill="#f2f2f3" cx="61.60" cy="51.33" r="12.83"/></g><g transform="translate(107.67 53)"><rect fill="#2e629a" x="0" y="0" width="102.67" height="102.67"/><circle fill="#78a9d4" cx="30.80" cy="25.67" r="20.53"/><circle fill="#8a8c99" cx="61.60" cy="46.20" r="30.80"/><circle fill="#bac0cd" cx="35.93" cy="71.87" r="25.67"/><circle fill="#f2f2f3" cx="71.87" cy="71.87" r="20.53"/><circle fill="#182d4f" cx="61.60" cy="51.33" r="12.83"/></g><g transform="translate(215.33 53)"><rect fill="#78a9d4" x="0" y="0" width="102.67" height="102.67"/><circle fill="#8a8c99" cx="30.80" cy="25.67" r="20.53"/><circle fill="#bac0cd" cx="61.60" cy="46.20" r="30.80"/><circle fill="#f2f2f3" cx="35.93" cy="71.87" r="25.67"/><circle fill="#182d4f" cx="71.87" cy="71.87" r="20.53"/><circle fill="#2e629a" cx="61.60" cy="51.33" r="12.83"/></g><g transform="translate(0 160.67)"><rect fill="#8a8c99" x="0" y="0" width="102.67" height="102.67"/><circle fill="#bac0cd" cx="30.80" cy="25.67" r="20.53"/><circle fill="#f2f2f3" cx="61.60" cy="46.20" r="30.80"/><circle fill="#182d4f" cx="35.93" cy="71.87" r="25.67"/><circle fill="#2e629a" cx="71.87" cy="71.87" r="20.53"/><circle fill="#78a9d4" cx="61.60" cy="51.33" r="12.83"/></g><g transform="translate(107.67 160.67)"><rect fill="#bac0cd" x="0" y="0" width="102.67" height="102.67"/><circle fill="#f2f2f3" cx="30.80" cy="25.67" r="20.53"/><circle fill="#182d4f" cx="61.60" cy="46.20" r="30.80"/><circle fill="#2e629a" cx="35.93" cy="71.87" r="25.67"/><circle fill="#78a9d4" cx="71.87" cy="71.87" r="20.53"/><circle fill="#8a8c99" cx="61.60" cy="51.33" r="12.83"/></g><g transform="translate(215.33 160.67)"><rect fill="#f2f2f3" x="0" y="0" width="102.67" height="102.67"/><circle fill="#182d4f" cx="30.80" cy="25.67" r="20.53"/><circle fill="#2e629a" cx="61.60" cy="46.20" r="30.80"/><circle fill="#78a9d4" cx="35.93" cy="71.87" r="25.67"/><circle fill="#8a8c99" cx="71.87" cy="71.87" r="20.53"/><circle fill="#bac0cd" cx="61.60" cy="51.33" r="12.83"/></g></svg>