<svg version="1.1" xmlns="http://www.w3.org/2000/svg" xmlns:xlink="http://www.w3.org/1999/xlink" width="318" height="263.33333333333337"><g transform="translate(24 24)"><circle fill="#160e0a" cx="0" cy="0" r="24"/><circle fill="#573014" cx="53" cy="0" r="24"/><circle fill="#9f6135" cx="106" cy="0" r="24"/><circle fill="#cf935c" cx="159" cy="0" r="24"/><circle fill="#ecc18c" cx="212" cy="0" r="24"/><circle fill="#f9eada" cx="265" cy="0" r="24"/></g><g transform="translate(0 53)"><rect fill="#160e0a" x="0" y="0" width="102.67" height="102.67"/><circle fill="#573014" cx="30.80" cy="25.67" r="20.53"/><circle fill="#9f6135" cx="61.60" cy="46.20" r="30.80"/><circle fill="#cf935c" cx="35.93" cy="71.87" r="25.67"/><circle fill="#ecc18c" cx="71.87" cy="71.87" r="20.53"/><circle fill="#f9eada" cx="61.60" cy="51.33" r="12.83"/></g><g transform="translate(107.67 53)"><rect fill="#573014" x="0" y="0" width="102.67" height="102.67"/><circle fill="#9f6135" cx="30.80" cy="25.67" r="20.53"/><circle fill="#cf935c" cx="61.60" cy="46.20" r="30.80"/><circle fill="#ecc18c" cx="35.93" cy="71.87" r="25.67"/><circle fill="#f9eada" cx="71.87" cy="71.87" r="20.53"/><circle fill="#160e0a" cx="61.60" cy="51.33" r="12.83"/></g><g transform="translate(215.33 53)"><rect fill="#9f6135" x="0" y="0" width="102.67" height="102.67"/><circle fill="#cf935c" cx="30.80" cy="25.67" r="20.53"/><circle fill="#ecc18c" cx="61.60" cy="46.20" r="30.80"/><circle fill="#f9eada" cx="35.93" cy="71.87" r="25.67"/><circle fill="#160e0a" cx="71.87" cy="71.87" r="20.53"/><circle fill="#573014" cx="61.60" cy="51.33" r="12.83"/></g><g transform="translate(0 160.67)"><rect fill="#cf935c" x="0" y="0" width="102.67" height="102.67"/><circle fill="#ecc18c" cx="30.80" cy="25.67" r="20.53"/><circle fill="#f9eada" cx="61.60" cy="46.20" r="30.80"/><circle fill="#160e0a" cx="35.93" cy="71.87" r="25.67"/><circle fill="#573014" cx="71.87" cy="71.87" r="20.53"/><circle fill="#9f6135" cx="61.60" cy="51.33" r="12.83"/></g><g transform="translate(107.67 160.67)"><rect fill="#ecc18c" x="0" y="0" width="102.67" height="102.67"/><circle fill="#f9eada" cx="30.80" cy="25.67" r="20.53"/><circle fill="#160e0a" cx="61.60" cy="46.20" r="30.80"/><circle fill="#573014" cx="35.93" cy="71.87" r="25.67"/><circle fill="#9f6135" cx="71.87" cy="71.87" r="20.53"/><circle fill="#cf935c" cx="61.60" cy="51.33" r="12.83"/></g><g transform="translate(215.33 160.67)"><rect fill="#f9eada" x="0" y="0" width="102.67" height="102.67"/><circle fill="#160e0a" cx="30.80" cy="25.67" r="20.53"/><circle fill="#573014" cx="61.60" cy="46.20" r="30.80"/><circle fill="#9f6135" cx="35.93" cy="71.87" r="25.67"/><circle fill="#cf935c" cx="71.87" cy="71.87" r="20.53"/><circle fill="#ecc18c" cx="61.60" cy="51.33" r="12.83"/></g></svg>