<svg version="1.1" xmlns="http://www.w3.org/2000/svg" xmlns:xlink="http://www.w3.org/1999/xlink" width="318" height="263.33333333333337"><g transform="translate(24 24)"><circle fill="#231927" cx="0" cy="0" r="24"/><circle fill="#323445" cx="53" cy="0" r="24"/><circle fill="#610d21" cx="106" cy="0" r="24"/><circle fill="#97061d" cx="159" cy="0" r="24"/><circle fill="#d56a76" cx="212" cy="0" r="24"/><circle fill="#eebcb2" cx="265" cy="0" r="24"/></g><g transform="translate(0 53)"><rect fill="#231927" x="0" y="0" width="102.67" height="102.67"/><circle fill="#323445" cx="30.80" cy="25.67" r="20.53"/><circle fill="#610d21" cx="61.60" cy="46.20" r="30.80"/><circle fill="#97061d" cx="35.93" cy="71.87" r="25.67"/><circle fill="#d56a76" cx="71.87" cy="71.87" r="20.53"/><circle fill="#eebcb2" cx="61.60" cy="51.33" r="12.83"/></g><g transform="translate(107.67 53)"><rect fill="#323445" x="0" y="0" width="102.67" height="102.67"/><circle fill="#610d21" cx="30.80" cy="25.67" r="20.53"/><circle fill="#97061d" cx="61.60" cy="46.20" r="30.80"/><circle fill="#d56a76" cx="35.93" cy="71.87" r="25.67"/><circle fill="#eebcb2" cx="71.87" cy="71.87" r="20.53"/><circle fill="#231927" cx="61.60" cy="51.33" r="12.83"/></g><g transform="translate(215.33 53)"><rect fill="#610d21" x="0" y="0" width="102.67" height="102.67"/><circle fill="#97061d" cx="30.80" cy="25.67" r="20.53"/><circle fill="#d56a76" cx="61.60" cy="46.20" r="30.80"/><circle fill="#eebcb2" cx="35.93" cy="71.87" r="25.67"/><circle fill="#231927" cx="71.87" cy="71.87" r="20.53"/><circle fill="#323445" cx="61.60" cy="51.33" r="12.83"/></g><g transform="translate(0 160.67)"><rect fill="#97061d" x="0" y="0" width="102.67" height="102.67"/><circle fill="#d56a76" cx="30.80" cy="25.67" r="20.53"/><circle fill="#eebcb2" cx="61.60" cy="46.20" r="30.80"/><circle fill="#231927" cx="35.93" cy="71.87" r="25.67"/><circle fill="#323445" cx="71.87" cy="71.87" r="20.53"/><circle fill="#610d21" cx="61.60" cy="51.33" r="12.83"/></g><g transform="translate(107.67 160.67)"><rect fill="#d56a76" x="0" y="0" width="102.67" height="102.67"/><circle fill="#eebcb2" cx="30.80" cy="25.67" r="20.53"/><circle fill="#231927" cx="61.60" cy="46.20" r="30.80"/><circle fill="#323445" cx="35.93" cy="71.87" r="25.67"/><circle fill="#610d21" cx="71.87" cy="71.87" r="20.53"/><circle fill="#97061d" cx="61.60" cy="51.33" r="12.83"/></g><g transform="translate(215.33 160.67)"><rect fill="#eebcb2" x="0" y="0" width="102.67" height="102.67"/><circle fill="#231927" cx="30.80" cy="25.67" r="20.53"/><circle fill="#323445" cx="61.60" cy="46.20" r="30.80"/><circle fill="#610d21" cx="35.93" cy="71.87" r="25.67"/><circle fill="#97061d" cx="71.87" cy="71.87" r="20.53"/><circle fill="#d56a76" cx="61.60" cy="51.33" r="12.83"/></g></svg>