<svg version="1.1" xmlns="http://www.w3.org/2000/svg" xmlns:xlink="http://www.w3.org/1999/xlink" width="318" height="263.33333333333337"><g transform="translate(24 24)"><circle fill="#563063" cx="0" cy="0" r="24"/><circle fill="#905c70" cx="53" cy="0" r="24"/><circle fill="#b17e84" cx="106" cy="0" r="24"/><circle fill="#c89896" cx="159" cy="0" r="24"/><circle fill="#d1bbb6" cx="212" cy="0" r="24"/><circle fill="#ebe1d8" cx="265" cy="0" r="24"/></g><g transform="translate(0 53)"><rect fill="#563063" x="0" y="0" width="102.67" height="102.67"/><circle fill="#905c70" cx="30.80" cy="25.67" r="20.53"/><circle fill="#b17e84" cx="61.60" cy="46.20" r="30.80"/><circle fill="#c89896" cx="35.93" cy="71.87" r="25.67"/><circle fill="#d1bbb6" cx="71.87" cy="71.87" r="20.53"/><circle fill="#ebe1d8" cx="61.60" cy="51.33" r="12.83"/></g><g transform="translate(107.67 53)"><rect fill="#905c70" x="0" y="0" width="102.67" height="102.67"/><circle fill="#b17e84" cx="30.80" cy="25.67" r="20.53"/><circle fill="#c89896" cx="61.60" cy="46.20" r="30.80"/><circle fill="#d1bbb6" cx="35.93" cy="71.87" r="25.67"/><circle fill="#ebe1d8" cx="71.87" cy="71.87" r="20.53"/><circle fill="#563063" cx="61.60" cy="51.33" r="12.83"/></g><g transform="translate(215.33 53)"><rect fill="#b17e84" x="0" y="0" width="102.67" height="102.67"/><circle fill="#c89896" cx="30.80" cy="25.67" r="20.53"/><circle fill="#d1bbb6" cx="61.60" cy="46.20" r="30.80"/><circle fill="#ebe1d8" cx="35.93" cy="71.87" r="25.67"/><circle fill="#563063" cx="71.87" cy="71.87" r="20.53"/><circle fill="#905c70" cx="61.60" cy="51.33" r="12.83"/></g><g transform="translate(0 160.67)"><rect fill="#c89896" x="0" y="0" width="102.67" height="102.67"/><circle fill="#d1bbb6" cx="30.80" cy="25.67" r="20.53"/><circle fill="#ebe1d8" cx="61.60" cy="46.20" r="30.80"/><circle fill="#563063" cx="35.93" cy="71.87" r="25.67"/><circle fill="#905c70" cx="71.87" cy="71.87" r="20.53"/><circle fill="#b17e84" cx="61.60" cy="51.33" r="12.83"/></g><g transform="translate(107.67 160.67)"><rect fill="#d1bbb6" x="0" y="0" width="102.67" height="102.67"/><circle fill="#ebe1d8" cx="30.80" cy="25.67" r="20.53"/><circle fill="#563063" cx="61.60" cy="46.20" r="30.80"/><circle fill="#905c70" cx="35.93" cy="71.87" r="25.67"/><circle fill="#b17e84" cx="71.87" cy="71.87" r="20.53"/><circle fill="#c89896" cx="61.60" cy="51.33" r="12.83"/></g><g transform="translate(215.33 160.67)"><rect fill="#ebe1d8" x="0" y="0" width="102.67" height="102.67"/><circle fill="#563063" cx="30.80" cy="25.67" r="20.53"/><circle fill="#905c70" cx="61.60" cy="46.20" r="30.80"/><circle fill="#b17e84" cx="35.93" cy="71.87" r="25.67"/><circle fill="#c89896" cx="71.87" cy="71.87" r="20.53"/><circle fill="#d1bbb6" cx="61.60" cy="51.33" r="12.83"/></g></svg>