<svg version="1.1" xmlns="http://www.w3.org/2000/svg" xmlns:xlink="http://www.w3.org/1999/xlink" width="318" height="263.33"><g transform="translate(24 24)"><circle fill="#4c2a2b" cx="0" cy="0" r="24"/><circle fill="#85503b" cx="53" cy="0" r="24"/><circle fill="#a47c63" cx="106" cy="0" r="24"/><circle fill="#c57929" cx="159" cy="0" r="24"/><circle fill="#ceb38d" cx="212" cy="0" r="24"/><circle fill="#e2e8c6" cx="265" cy="0" r="24"/></g><g transform="translate(0 53)"><rect fill="#4c2a2b" x="0" y="0" width="102.67" height="102.67"/><circle fill="#85503b" cx="30.80" cy="25.67" r="20.53"/><circle fill="#a47c63" cx="61.60" cy="46.20" r="30.80"/><circle fill="#c57929" cx="35.93" cy="71.87" r="25.67"/><circle fill="#ceb38d" cx="71.87" cy="71.87" r="20.53"/><circle fill="#e2e8c6" cx="61.60" cy="51.33" r="12.83"/></g><g transform="translate(107.67 53)"><rect fill="#85503b" x="0" y="0" width="102.67" height="102.67"/><circle fill="#a47c63" cx="30.80" cy="25.67" r="20.53"/><circle fill="#c57929" cx="61.60" cy="46.20" r="30.80"/><circle fill="#ceb38d" cx="35.93" cy="71.87" r="25.67"/><circle fill="#e2e8c6" cx="71.87" cy="71.87" r="20.53"/><circle fill="#4c2a2b" cx="61.60" cy="51.33" r="12.83"/></g><g transform="translate(215.33 53)"><rect fill="#a47c63" x="0" y="0" width="102.67" height="102.67"/><circle fill="#c57929" cx="30.80" cy="25.67" r="20.53"/><circle fill="#ceb38d" cx="61.60" cy="46.20" r="30.80"/><circle fill="#e2e8c6" cx="35.93" cy="71.87" r="25.67"/><circle fill="#4c2a2b" cx="71.87" cy="71.87" r="20.53"/><circle fill="#85503b" cx="61.60" cy="51.33" r="12.83"/></g><g transform="translate(0 160.67)"><rect fill="#c57929" x="0" y="0" width="102.67" height="102.67"/><circle fill="#ceb38d" cx="30.80" cy="25.67" r="20.53"/><circle fill="#e2e8c6" cx="61.60" cy="46.20" r="30.80"/><circle fill="#4c2a2b" cx="35.93" cy="71.87" r="25.67"/><circle fill="#85503b" cx="71.87" cy="71.87" r="20.53"/><circle fill="#a47c63" cx="61.60" cy="51.33" r="12.83"/></g><g transform="translate(107.67 160.67)"><rect fill="#ceb38d" x="0" y="0" width="102.67" height="102.67"/><circle fill="#e2e8c6" cx="30.80" cy="25.67" r="20.53"/><circle fill="#4c2a2b" cx="61.60" cy="46.20" r="30.80"/><circle fill="#85503b" cx="35.93" cy="71.87" r="25.67"/><circle fill="#a47c63" cx="71.87" cy="71.87" r="20.53"/><circle fill="#c57929" cx="61.60" cy="51.33" r="12.83"/></g><g transform="translate(215.33 160.67)"><rect fill="#e2e8c6" x="0" y="0" width="102.67" height="102.67"/><circle fill="#4c2a2b" cx="30.80" cy="25.67" r="20.53"/><circle fill="#85503b" cx="61.60" cy="46.20" r="30.80"/><circle fill="#a47c63" cx="35.93" cy="71.87" r="25.67"/><circle fill="#c57929" cx="71.87" cy="71.87" r="20.53"/><circle fill="#ceb38d" cx="61.60" cy="51.33" r="12.83"/></g></svg>