<svg version="1.1" xmlns="http://www.w3.org/2000/svg" xmlns:xlink="http://www.w3.org/1999/xlink" width="318" height="263.33"><g transform="translate(24 24)"><circle fill="#33341f" cx="0" cy="0" r="24"/><circle fill="#61532f" cx="53" cy="0" r="24"/><circle fill="#9b6230" cx="106" cy="0" r="24"/><circle fill="#cc8646" cx="159" cy="0" r="24"/><circle fill="#b3a68a" cx="212" cy="0" r="24"/><circle fill="#f0f5f3" cx="265" cy="0" r="24"/></g><g transform="translate(0 53)"><rect fill="#33341f" x="0" y="0" width="102.67" height="102.67"/><circle fill="#61532f" cx="30.80" cy="25.67" r="20.53"/><circle fill="#9b6230" cx="61.60" cy="46.20" r="30.80"/><circle fill="#cc8646" cx="35.93" cy="71.87" r="25.67"/><circle fill="#b3a68a" cx="71.87" cy="71.87" r="20.53"/><circle fill="#f0f5f3" cx="61.60" cy="51.33" r="12.83"/></g><g transform="translate(107.67 53)"><rect fill="#61532f" x="0" y="0" width="102.67" height="102.67"/><circle fill="#9b6230" cx="30.80" cy="25.67" r="20.53"/><circle fill="#cc8646" cx="61.60" cy="46.20" r="30.80"/><circle fill="#b3a68a" cx="35.93" cy="71.87" r="25.67"/><circle fill="#f0f5f3" cx="71.87" cy="71.87" r="20.53"/><circle fill="#33341f" cx="61.60" cy="51.33" r="12.83"/></g><g transform="translate(215.33 53)"><rect fill="#9b6230" x="0" y="0" width="102.67" height="102.67"/><circle fill="#cc8646" cx="30.80" cy="25.67" r="20.53"/><circle fill="#b3a68a" cx="61.60" cy="46.20" r="30.80"/><circle fill="#f0f5f3" cx="35.93" cy="71.87" r="25.67"/><circle fill="#33341f" cx="71.87" cy="71.87" r="20.53"/><circle fill="#61532f" cx="61.60" cy="51.33" r="12.83"/></g><g transform="translate(0 160.67)"><rect fill="#cc8646" x="0" y="0" width="102.67" height="102.67"/><circle fill="#b3a68a" cx="30.80" cy="25.67" r="20.53"/><circle fill="#f0f5f3" cx="61.60" cy="46.20" r="30.80"/><circle fill="#33341f" cx="35.93" cy="71.87" r="25.67"/><circle fill="#61532f" cx="71.87" cy="71.87" r="20.53"/><circle fill="#9b6230" cx="61.60" cy="51.33" r="12.83"/></g><g transform="translate(107.67 160.67)"><rect fill="#b3a68a" x="0" y="0" width="102.67" height="102.67"/><circle fill="#f0f5f3" cx="30.80" cy="25.67" r="20.53"/><circle fill="#33341f" cx="61.60" cy="46.20" r="30.80"/><circle fill="#61532f" cx="35.93" cy="71.87" r="25.67"/><circle fill="#9b6230" cx="71.87" cy="71.87" r="20.53"/><circle fill="#cc8646" cx="61.60" cy="51.33" r="12.83"/></g><g transform="translate(215.33 160.67)"><rect fill="#f0f5f3" x="0" y="0" width="102.67" height="102.67"/><circle fill="#33341f" cx="30.80" cy="25.67" r="20.53"/><circle fill="#61532f" cx="61.60" cy="46.20" r="30.80"/><circle fill="#9b6230" cx="35.93" cy="71.87" r="25.67"/><circle fill="#cc8646" cx="71.87" cy="71.87" r="20.53"/><circle fill="#b3a68a" cx="61.60" cy="51.33" r="12.83"/></g></svg>