<svg version="1.1" xmlns="http://www.w3.org/2000/svg" xmlns:xlink="http://www.w3.org/1999/xlink" width="318" height="263.33333333333337"><g transform="translate(24 24)"><circle fill="#47210d" cx="0" cy="0" r="24"/><circle fill="#724621" cx="53" cy="0" r="24"/><circle fill="#4d6e80" cx="106" cy="0" r="24"/><circle fill="#9c7857" cx="159" cy="0" r="24"/><circle fill="#c47619" cx="212" cy="0" r="24"/><circle fill="#d5b48a" cx="265" cy="0" r="24"/></g><g transform="translate(0 53)"><rect fill="#47210d" x="0" y="0" width="102.67" height="102.67"/><circle fill="#724621" cx="30.80" cy="25.67" r="20.53"/><circle fill="#4d6e80" cx="61.60" cy="46.20" r="30.80"/><circle fill="#9c7857" cx="35.93" cy="71.87" r="25.67"/><circle fill="#c47619" cx="71.87" cy="71.87" r="20.53"/><circle fill="#d5b48a" cx="61.60" cy="51.33" r="12.83"/></g><g transform="translate(107.67 53)"><rect fill="#724621" x="0" y="0" width="102.67" height="102.67"/><circle fill="#4d6e80" cx="30.80" cy="25.67" r="20.53"/><circle fill="#9c7857" cx="61.60" cy="46.20" r="30.80"/><circle fill="#c47619" cx="35.93" cy="71.87" r="25.67"/><circle fill="#d5b48a" cx="71.87" cy="71.87" r="20.53"/><circle fill="#47210d" cx="61.60" cy="51.33" r="12.83"/></g><g transform="translate(215.33 53)"><rect fill="#4d6e80" x="0" y="0" width="102.67" height="102.67"/><circle fill="#9c7857" cx="30.80" cy="25.67" r="20.53"/><circle fill="#c47619" cx="61.60" cy="46.20" r="30.80"/><circle fill="#d5b48a" cx="35.93" cy="71.87" r="25.67"/><circle fill="#47210d" cx="71.87" cy="71.87" r="20.53"/><circle fill="#724621" cx="61.60" cy="51.33" r="12.83"/></g><g transform="translate(0 160.67)"><rect fill="#9c7857" x="0" y="0" width="102.67" height="102.67"/><circle fill="#c47619" cx="30.80" cy="25.67" r="20.53"/><circle fill="#d5b48a" cx="61.60" cy="46.20" r="30.80"/><circle fill="#47210d" cx="35.93" cy="71.87" r="25.67"/><circle fill="#724621" cx="71.87" cy="71.87" r="20.53"/><circle fill="#4d6e80" cx="61.60" cy="51.33" r="12.83"/></g><g transform="translate(107.67 160.67)"><rect fill="#c47619" x="0" y="0" width="102.67" height="102.67"/><circle fill="#d5b48a" cx="30.80" cy="25.67" r="20.53"/><circle fill="#47210d" cx="61.60" cy="46.20" r="30.80"/><circle fill="#724621" cx="35.93" cy="71.87" r="25.67"/><circle fill="#4d6e80" cx="71.87" cy="71.87" r="20.53"/><circle fill="#9c7857" cx="61.60" cy="51.33" r="12.83"/></g><g transform="translate(215.33 160.67)"><rect fill="#d5b48a" x="0" y="0" width="102.67" height="102.67"/><circle fill="#47210d" cx="30.80" cy="25.67" r="20.53"/><circle fill="#724621" cx="61.60" cy="46.20" r="30.80"/><circle fill="#4d6e80" cx="35.93" cy="71.87" r="25.67"/><circle fill="#9c7857" cx="71.87" cy="71.87" r="20.53"/><circle fill="#c47619" cx="61.60" cy="51.33" r="12.83"/></g></svg>