<svg version="1.1" xmlns="http://www.w3.org/2000/svg" xmlns:xlink="http://www.w3.org/1999/xlink" width="318" height="263.33"><g transform="translate(24 24)"><circle fill="#7a0c04" cx="0" cy="0" r="24"/><circle fill="#bb2605" cx="53" cy="0" r="24"/><circle fill="#eb600c" cx="106" cy="0" r="24"/><circle fill="#faaa27" cx="159" cy="0" r="24"/><circle fill="#1b1e1a" cx="212" cy="0" r="24"/><circle fill="#414a47" cx="265" cy="0" r="24"/></g><g transform="translate(0 53)"><rect fill="#7a0c04" x="0" y="0" width="102.67" height="102.67"/><circle fill="#bb2605" cx="30.80" cy="25.67" r="20.53"/><circle fill="#eb600c" cx="61.60" cy="46.20" r="30.80"/><circle fill="#faaa27" cx="35.93" cy="71.87" r="25.67"/><circle fill="#1b1e1a" cx="71.87" cy="71.87" r="20.53"/><circle fill="#414a47" cx="61.60" cy="51.33" r="12.83"/></g><g transform="translate(107.67 53)"><rect fill="#bb2605" x="0" y="0" width="102.67" height="102.67"/><circle fill="#eb600c" cx="30.80" cy="25.67" r="20.53"/><circle fill="#faaa27" cx="61.60" cy="46.20" r="30.80"/><circle fill="#1b1e1a" cx="35.93" cy="71.87" r="25.67"/><circle fill="#414a47" cx="71.87" cy="71.87" r="20.53"/><circle fill="#7a0c04" cx="61.60" cy="51.33" r="12.83"/></g><g transform="translate(215.33 53)"><rect fill="#eb600c" x="0" y="0" width="102.67" height="102.67"/><circle fill="#faaa27" cx="30.80" cy="25.67" r="20.53"/><circle fill="#1b1e1a" cx="61.60" cy="46.20" r="30.80"/><circle fill="#414a47" cx="35.93" cy="71.87" r="25.67"/><circle fill="#7a0c04" cx="71.87" cy="71.87" r="20.53"/><circle fill="#bb2605" cx="61.60" cy="51.33" r="12.83"/></g><g transform="translate(0 160.67)"><rect fill="#faaa27" x="0" y="0" width="102.67" height="102.67"/><circle fill="#1b1e1a" cx="30.80" cy="25.67" r="20.53"/><circle fill="#414a47" cx="61.60" cy="46.20" r="30.80"/><circle fill="#7a0c04" cx="35.93" cy="71.87" r="25.67"/><circle fill="#bb2605" cx="71.87" cy="71.87" r="20.53"/><circle fill="#eb600c" cx="61.60" cy="51.33" r="12.83"/></g><g transform="translate(107.67 160.67)"><rect fill="#1b1e1a" x="0" y="0" width="102.67" height="102.67"/><circle fill="#414a47" cx="30.80" cy="25.67" r="20.53"/><circle fill="#7a0c04" cx="61.60" cy="46.20" r="30.80"/><circle fill="#bb2605" cx="35.93" cy="71.87" r="25.67"/><circle fill="#eb600c" cx="71.87" cy="71.87" r="20.53"/><circle fill="#faaa27" cx="61.60" cy="51.33" r="12.83"/></g><g transform="translate(215.33 160.67)"><rect fill="#414a47" x="0" y="0" width="102.67" height="102.67"/><circle fill="#7a0c04" cx="30.80" cy="25.67" r="20.53"/><circle fill="#bb2605" cx="61.60" cy="46.20" r="30.80"/><circle fill="#eb600c" cx="35.93" cy="71.87" r="25.67"/><circle fill="#faaa27" cx="71.87" cy="71.87" r="20.53"/><circle fill="#1b1e1a" cx="61.60" cy="51.33" r="12.83"/></g></svg>