<svg version="1.1" xmlns="http://www.w3.org/2000/svg" xmlns:xlink="http://www.w3.org/1999/xlink" width="318" height="263.33"><g transform="translate(24 24)"><circle fill="#1f2332" cx="0" cy="0" r="24"/><circle fill="#47363b" cx="53" cy="0" r="24"/><circle fill="#716476" cx="106" cy="0" r="24"/><circle fill="#9d8f92" cx="159" cy="0" r="24"/><circle fill="#f06b14" cx="212" cy="0" r="24"/><circle fill="#feb627" cx="265" cy="0" r="24"/></g><g transform="translate(0 53)"><rect fill="#1f2332" x="0" y="0" width="102.67" height="102.67"/><circle fill="#47363b" cx="30.80" cy="25.67" r="20.53"/><circle fill="#716476" cx="61.60" cy="46.20" r="30.80"/><circle fill="#9d8f92" cx="35.93" cy="71.87" r="25.67"/><circle fill="#f06b14" cx="71.87" cy="71.87" r="20.53"/><circle fill="#feb627" cx="61.60" cy="51.33" r="12.83"/></g><g transform="translate(107.67 53)"><rect fill="#47363b" x="0" y="0" width="102.67" height="102.67"/><circle fill="#716476" cx="30.80" cy="25.67" r="20.53"/><circle fill="#9d8f92" cx="61.60" cy="46.20" r="30.80"/><circle fill="#f06b14" cx="35.93" cy="71.87" r="25.67"/><circle fill="#feb627" cx="71.87" cy="71.87" r="20.53"/><circle fill="#1f2332" cx="61.60" cy="51.33" r="12.83"/></g><g transform="translate(215.33 53)"><rect fill="#716476" x="0" y="0" width="102.67" height="102.67"/><circle fill="#9d8f92" cx="30.80" cy="25.67" r="20.53"/><circle fill="#f06b14" cx="61.60" cy="46.20" r="30.80"/><circle fill="#feb627" cx="35.93" cy="71.87" r="25.67"/><circle fill="#1f2332" cx="71.87" cy="71.87" r="20.53"/><circle fill="#47363b" cx="61.60" cy="51.33" r="12.83"/></g><g transform="translate(0 160.67)"><rect fill="#9d8f92" x="0" y="0" width="102.67" height="102.67"/><circle fill="#f06b14" cx="30.80" cy="25.67" r="20.53"/><circle fill="#feb627" cx="61.60" cy="46.20" r="30.80"/><circle fill="#1f2332" cx="35.93" cy="71.87" r="25.67"/><circle fill="#47363b" cx="71.87" cy="71.87" r="20.53"/><circle fill="#716476" cx="61.60" cy="51.33" r="12.83"/></g><g transform="translate(107.67 160.67)"><rect fill="#f06b14" x="0" y="0" width="102.67" height="102.67"/><circle fill="#feb627" cx="30.80" cy="25.67" r="20.53"/><circle fill="#1f2332" cx="61.60" cy="46.20" r="30.80"/><circle fill="#47363b" cx="35.93" cy="71.87" r="25.67"/><circle fill="#716476" cx="71.87" cy="71.87" r="20.53"/><circle fill="#9d8f92" cx="61.60" cy="51.33" r="12.83"/></g><g transform="translate(215.33 160.67)"><rect fill="#feb627" x="0" y="0" width="102.67" height="102.67"/><circle fill="#1f2332" cx="30.80" cy="25.67" r="20.53"/><circle fill="#47363b" cx="61.60" cy="46.20" r="30.80"/><circle fill="#716476" cx="35.93" cy="71.87" r="25.67"/><circle fill="#9d8f92" cx="71.87" cy="71.87" r="20.53"/><circle fill="#f06b14" cx="61.60" cy="51.33" r="12.83"/></g></svg>