<svg version="1.1" xmlns="http://www.w3.org/2000/svg" xmlns:xlink="http://www.w3.org/1999/xlink" width="318" height="263.33"><g transform="translate(24 24)"><circle fill="#1f2844" cx="0" cy="0" r="24"/><circle fill="#556881" cx="53" cy="0" r="24"/><circle fill="#7f411d" cx="106" cy="0" r="24"/><circle fill="#f66811" cx="159" cy="0" r="24"/><circle fill="#e9a371" cx="212" cy="0" r="24"/><circle fill="#fbf4e1" cx="265" cy="0" r="24"/></g><g transform="translate(0 53)"><rect fill="#1f2844" x="0" y="0" width="102.67" height="102.67"/><circle fill="#556881" cx="30.80" cy="25.67" r="20.53"/><circle fill="#7f411d" cx="61.60" cy="46.20" r="30.80"/><circle fill="#f66811" cx="35.93" cy="71.87" r="25.67"/><circle fill="#e9a371" cx="71.87" cy="71.87" r="20.53"/><circle fill="#fbf4e1" cx="61.60" cy="51.33" r="12.83"/></g><g transform="translate(107.67 53)"><rect fill="#556881" x="0" y="0" width="102.67" height="102.67"/><circle fill="#7f411d" cx="30.80" cy="25.67" r="20.53"/><circle fill="#f66811" cx="61.60" cy="46.20" r="30.80"/><circle fill="#e9a371" cx="35.93" cy="71.87" r="25.67"/><circle fill="#fbf4e1" cx="71.87" cy="71.87" r="20.53"/><circle fill="#1f2844" cx="61.60" cy="51.33" r="12.83"/></g><g transform="translate(215.33 53)"><rect fill="#7f411d" x="0" y="0" width="102.67" height="102.67"/><circle fill="#f66811" cx="30.80" cy="25.67" r="20.53"/><circle fill="#e9a371" cx="61.60" cy="46.20" r="30.80"/><circle fill="#fbf4e1" cx="35.93" cy="71.87" r="25.67"/><circle fill="#1f2844" cx="71.87" cy="71.87" r="20.53"/><circle fill="#556881" cx="61.60" cy="51.33" r="12.83"/></g><g transform="translate(0 160.67)"><rect fill="#f66811" x="0" y="0" width="102.67" height="102.67"/><circle fill="#e9a371" cx="30.80" cy="25.67" r="20.53"/><circle fill="#fbf4e1" cx="61.60" cy="46.20" r="30.80"/><circle fill="#1f2844" cx="35.93" cy="71.87" r="25.67"/><circle fill="#556881" cx="71.87" cy="71.87" r="20.53"/><circle fill="#7f411d" cx="61.60" cy="51.33" r="12.83"/></g><g transform="translate(107.67 160.67)"><rect fill="#e9a371" x="0" y="0" width="102.67" height="102.67"/><circle fill="#fbf4e1" cx="30.80" cy="25.67" r="20.53"/><circle fill="#1f2844" cx="61.60" cy="46.20" r="30.80"/><circle fill="#556881" cx="35.93" cy="71.87" r="25.67"/><circle fill="#7f411d" cx="71.87" cy="71.87" r="20.53"/><circle fill="#f66811" cx="61.60" cy="51.33" r="12.83"/></g><g transform="translate(215.33 160.67)"><rect fill="#fbf4e1" x="0" y="0" width="102.67" height="102.67"/><circle fill="#1f2844" cx="30.80" cy="25.67" r="20.53"/><circle fill="#556881" cx="61.60" cy="46.20" r="30.80"/><circle fill="#7f411d" cx="35.93" cy="71.87" r="25.67"/><circle fill="#f66811" cx="71.87" cy="71.87" r="20.53"/><circle fill="#e9a371" cx="61.60" cy="51.33" r="12.83"/></g></svg>