<svg version="1.1" xmlns="http://www.w3.org/2000/svg" xmlns:xlink="http://www.w3.org/1999/xlink" width="318" height="263.33"><g transform="translate(24 24)"><circle fill="#552c5c" cx="0" cy="0" r="24"/><circle fill="#945b9d" cx="53" cy="0" r="24"/><circle fill="#de7f81" cx="106" cy="0" r="24"/><circle fill="#f2ac69" cx="159" cy="0" r="24"/><circle fill="#e7c1a3" cx="212" cy="0" r="24"/><circle fill="#ffede1" cx="265" cy="0" r="24"/></g><g transform="translate(0 53)"><rect fill="#552c5c" x="0" y="0" width="102.67" height="102.67"/><circle fill="#945b9d" cx="30.80" cy="25.67" r="20.53"/><circle fill="#de7f81" cx="61.60" cy="46.20" r="30.80"/><circle fill="#f2ac69" cx="35.93" cy="71.87" r="25.67"/><circle fill="#e7c1a3" cx="71.87" cy="71.87" r="20.53"/><circle fill="#ffede1" cx="61.60" cy="51.33" r="12.83"/></g><g transform="translate(107.67 53)"><rect fill="#945b9d" x="0" y="0" width="102.67" height="102.67"/><circle fill="#de7f81" cx="30.80" cy="25.67" r="20.53"/><circle fill="#f2ac69" cx="61.60" cy="46.20" r="30.80"/><circle fill="#e7c1a3" cx="35.93" cy="71.87" r="25.67"/><circle fill="#ffede1" cx="71.87" cy="71.87" r="20.53"/><circle fill="#552c5c" cx="61.60" cy="51.33" r="12.83"/></g><g transform="translate(215.33 53)"><rect fill="#de7f81" x="0" y="0" width="102.67" height="102.67"/><circle fill="#f2ac69" cx="30.80" cy="25.67" r="20.53"/><circle fill="#e7c1a3" cx="61.60" cy="46.20" r="30.80"/><circle fill="#ffede1" cx="35.93" cy="71.87" r="25.67"/><circle fill="#552c5c" cx="71.87" cy="71.87" r="20.53"/><circle fill="#945b9d" cx="61.60" cy="51.33" r="12.83"/></g><g transform="translate(0 160.67)"><rect fill="#f2ac69" x="0" y="0" width="102.67" height="102.67"/><circle fill="#e7c1a3" cx="30.80" cy="25.67" r="20.53"/><circle fill="#ffede1" cx="61.60" cy="46.20" r="30.80"/><circle fill="#552c5c" cx="35.93" cy="71.87" r="25.67"/><circle fill="#945b9d" cx="71.87" cy="71.87" r="20.53"/><circle fill="#de7f81" cx="61.60" cy="51.33" r="12.83"/></g><g transform="translate(107.67 160.67)"><rect fill="#e7c1a3" x="0" y="0" width="102.67" height="102.67"/><circle fill="#ffede1" cx="30.80" cy="25.67" r="20.53"/><circle fill="#552c5c" cx="61.60" cy="46.20" r="30.80"/><circle fill="#945b9d" cx="35.93" cy="71.87" r="25.67"/><circle fill="#de7f81" cx="71.87" cy="71.87" r="20.53"/><circle fill="#f2ac69" cx="61.60" cy="51.33" r="12.83"/></g><g transform="translate(215.33 160.67)"><rect fill="#ffede1" x="0" y="0" width="102.67" height="102.67"/><circle fill="#552c5c" cx="30.80" cy="25.67" r="20.53"/><circle fill="#945b9d" cx="61.60" cy="46.20" r="30.80"/><circle fill="#de7f81" cx="35.93" cy="71.87" r="25.67"/><circle fill="#f2ac69" cx="71.87" cy="71.87" r="20.53"/><circle fill="#e7c1a3" cx="61.60" cy="51.33" r="12.83"/></g></svg>