<svg version="1.1" xmlns="http://www.w3.org/2000/svg" xmlns:xlink="http://www.w3.org/1999/xlink" width="318" height="263.33"><g transform="translate(24 24)"><circle fill="#00334b" cx="0" cy="0" r="24"/><circle fill="#6699bb" cx="53" cy="0" r="24"/><circle fill="#7a0011" cx="106" cy="0" r="24"/><circle fill="#c21122" cx="159" cy="0" r="24"/><circle fill="#e5bf99" cx="212" cy="0" r="24"/><circle fill="#fef2d8" cx="265" cy="0" r="24"/></g><g transform="translate(0 53)"><rect fill="#00334b" x="0" y="0" width="102.67" height="102.67"/><circle fill="#6699bb" cx="30.80" cy="25.67" r="20.53"/><circle fill="#7a0011" cx="61.60" cy="46.20" r="30.80"/><circle fill="#c21122" cx="35.93" cy="71.87" r="25.67"/><circle fill="#e5bf99" cx="71.87" cy="71.87" r="20.53"/><circle fill="#fef2d8" cx="61.60" cy="51.33" r="12.83"/></g><g transform="translate(107.67 53)"><rect fill="#6699bb" x="0" y="0" width="102.67" height="102.67"/><circle fill="#7a0011" cx="30.80" cy="25.67" r="20.53"/><circle fill="#c21122" cx="61.60" cy="46.20" r="30.80"/><circle fill="#e5bf99" cx="35.93" cy="71.87" r="25.67"/><circle fill="#fef2d8" cx="71.87" cy="71.87" r="20.53"/><circle fill="#00334b" cx="61.60" cy="51.33" r="12.83"/></g><g transform="translate(215.33 53)"><rect fill="#7a0011" x="0" y="0" width="102.67" height="102.67"/><circle fill="#c21122" cx="30.80" cy="25.67" r="20.53"/><circle fill="#e5bf99" cx="61.60" cy="46.20" r="30.80"/><circle fill="#fef2d8" cx="35.93" cy="71.87" r="25.67"/><circle fill="#00334b" cx="71.87" cy="71.87" r="20.53"/><circle fill="#6699bb" cx="61.60" cy="51.33" r="12.83"/></g><g transform="translate(0 160.67)"><rect fill="#c21122" x="0" y="0" width="102.67" height="102.67"/><circle fill="#e5bf99" cx="30.80" cy="25.67" r="20.53"/><circle fill="#fef2d8" cx="61.60" cy="46.20" r="30.80"/><circle fill="#00334b" cx="35.93" cy="71.87" r="25.67"/><circle fill="#6699bb" cx="71.87" cy="71.87" r="20.53"/><circle fill="#7a0011" cx="61.60" cy="51.33" r="12.83"/></g><g transform="translate(107.67 160.67)"><rect fill="#e5bf99" x="0" y="0" width="102.67" height="102.67"/><circle fill="#fef2d8" cx="30.80" cy="25.67" r="20.53"/><circle fill="#00334b" cx="61.60" cy="46.20" r="30.80"/><circle fill="#6699bb" cx="35.93" cy="71.87" r="25.67"/><circle fill="#7a0011" cx="71.87" cy="71.87" r="20.53"/><circle fill="#c21122" cx="61.60" cy="51.33" r="12.83"/></g><g transform="translate(215.33 160.67)"><rect fill="#fef2d8" x="0" y="0" width="102.67" height="102.67"/><circle fill="#00334b" cx="30.80" cy="25.67" r="20.53"/><circle fill="#6699bb" cx="61.60" cy="46.20" r="30.80"/><circle fill="#7a0011" cx="35.93" cy="71.87" r="25.67"/><circle fill="#c21122" cx="71.87" cy="71.87" r="20.53"/><circle fill="#e5bf99" cx="61.60" cy="51.33" r="12.83"/></g></svg>