<svg version="1.1" xmlns="http://www.w3.org/2000/svg" xmlns:xlink="http://www.w3.org/1999/xlink" width="318" height="263.33"><g transform="translate(24 24)"><circle fill="#5f00ff" cx="0" cy="0" r="24"/><circle fill="#9f37ff" cx="53" cy="0" r="24"/><circle fill="#0a99cc" cx="106" cy="0" r="24"/><circle fill="#17e8ff" cx="159" cy="0" r="24"/><circle fill="#c0c1cf" cx="212" cy="0" r="24"/><circle fill="#f0f2f8" cx="265" cy="0" r="24"/></g><g transform="translate(0 53)"><rect fill="#5f00ff" x="0" y="0" width="102.67" height="102.67"/><circle fill="#9f37ff" cx="30.80" cy="25.67" r="20.53"/><circle fill="#0a99cc" cx="61.60" cy="46.20" r="30.80"/><circle fill="#17e8ff" cx="35.93" cy="71.87" r="25.67"/><circle fill="#c0c1cf" cx="71.87" cy="71.87" r="20.53"/><circle fill="#f0f2f8" cx="61.60" cy="51.33" r="12.83"/></g><g transform="translate(107.67 53)"><rect fill="#9f37ff" x="0" y="0" width="102.67" height="102.67"/><circle fill="#0a99cc" cx="30.80" cy="25.67" r="20.53"/><circle fill="#17e8ff" cx="61.60" cy="46.20" r="30.80"/><circle fill="#c0c1cf" cx="35.93" cy="71.87" r="25.67"/><circle fill="#f0f2f8" cx="71.87" cy="71.87" r="20.53"/><circle fill="#5f00ff" cx="61.60" cy="51.33" r="12.83"/></g><g transform="translate(215.33 53)"><rect fill="#0a99cc" x="0" y="0" width="102.67" height="102.67"/><circle fill="#17e8ff" cx="30.80" cy="25.67" r="20.53"/><circle fill="#c0c1cf" cx="61.60" cy="46.20" r="30.80"/><circle fill="#f0f2f8" cx="35.93" cy="71.87" r="25.67"/><circle fill="#5f00ff" cx="71.87" cy="71.87" r="20.53"/><circle fill="#9f37ff" cx="61.60" cy="51.33" r="12.83"/></g><g transform="translate(0 160.67)"><rect fill="#17e8ff" x="0" y="0" width="102.67" height="102.67"/><circle fill="#c0c1cf" cx="30.80" cy="25.67" r="20.53"/><circle fill="#f0f2f8" cx="61.60" cy="46.20" r="30.80"/><circle fill="#5f00ff" cx="35.93" cy="71.87" r="25.67"/><circle fill="#9f37ff" cx="71.87" cy="71.87" r="20.53"/><circle fill="#0a99cc" cx="61.60" cy="51.33" r="12.83"/></g><g transform="translate(107.67 160.67)"><rect fill="#c0c1cf" x="0" y="0" width="102.67" height="102.67"/><circle fill="#f0f2f8" cx="30.80" cy="25.67" r="20.53"/><circle fill="#5f00ff" cx="61.60" cy="46.20" r="30.80"/><circle fill="#9f37ff" cx="35.93" cy="71.87" r="25.67"/><circle fill="#0a99cc" cx="71.87" cy="71.87" r="20.53"/><circle fill="#17e8ff" cx="61.60" cy="51.33" r="12.83"/></g><g transform="translate(215.33 160.67)"><rect fill="#f0f2f8" x="0" y="0" width="102.67" height="102.67"/><circle fill="#5f00ff" cx="30.80" cy="25.67" r="20.53"/><circle fill="#9f37ff" cx="61.60" cy="46.20" r="30.80"/><circle fill="#0a99cc" cx="35.93" cy="71.87" r="25.67"/><circle fill="#17e8ff" cx="71.87" cy="71.87" r="20.53"/><circle fill="#c0c1cf" cx="61.60" cy="51.33" r="12.83"/></g></svg>