<svg version="1.1" xmlns="http://www.w3.org/2000/svg" xmlns:xlink="http://www.w3.org/1999/xlink" width="318" height="263.33"><g transform="translate(24 24)"><circle fill="#03223e" cx="0" cy="0" r="24"/><circle fill="#0f4272" cx="53" cy="0" r="24"/><circle fill="#fdf0cc" cx="106" cy="0" r="24"/><circle fill="#f9d860" cx="159" cy="0" r="24"/><circle fill="#f49a4d" cx="212" cy="0" r="24"/><circle fill="#f24c2c" cx="265" cy="0" r="24"/></g><g transform="translate(0 53)"><rect fill="#03223e" x="0" y="0" width="102.67" height="102.67"/><circle fill="#0f4272" cx="30.80" cy="25.67" r="20.53"/><circle fill="#fdf0cc" cx="61.60" cy="46.20" r="30.80"/><circle fill="#f9d860" cx="35.93" cy="71.87" r="25.67"/><circle fill="#f49a4d" cx="71.87" cy="71.87" r="20.53"/><circle fill="#f24c2c" cx="61.60" cy="51.33" r="12.83"/></g><g transform="translate(107.67 53)"><rect fill="#0f4272" x="0" y="0" width="102.67" height="102.67"/><circle fill="#fdf0cc" cx="30.80" cy="25.67" r="20.53"/><circle fill="#f9d860" cx="61.60" cy="46.20" r="30.80"/><circle fill="#f49a4d" cx="35.93" cy="71.87" r="25.67"/><circle fill="#f24c2c" cx="71.87" cy="71.87" r="20.53"/><circle fill="#03223e" cx="61.60" cy="51.33" r="12.83"/></g><g transform="translate(215.33 53)"><rect fill="#fdf0cc" x="0" y="0" width="102.67" height="102.67"/><circle fill="#f9d860" cx="30.80" cy="25.67" r="20.53"/><circle fill="#f49a4d" cx="61.60" cy="46.20" r="30.80"/><circle fill="#f24c2c" cx="35.93" cy="71.87" r="25.67"/><circle fill="#03223e" cx="71.87" cy="71.87" r="20.53"/><circle fill="#0f4272" cx="61.60" cy="51.33" r="12.83"/></g><g transform="translate(0 160.67)"><rect fill="#f9d860" x="0" y="0" width="102.67" height="102.67"/><circle fill="#f49a4d" cx="30.80" cy="25.67" r="20.53"/><circle fill="#f24c2c" cx="61.60" cy="46.20" r="30.80"/><circle fill="#03223e" cx="35.93" cy="71.87" r="25.67"/><circle fill="#0f4272" cx="71.87" cy="71.87" r="20.53"/><circle fill="#fdf0cc" cx="61.60" cy="51.33" r="12.83"/></g><g transform="translate(107.67 160.67)"><rect fill="#f49a4d" x="0" y="0" width="102.67" height="102.67"/><circle fill="#f24c2c" cx="30.80" cy="25.67" r="20.53"/><circle fill="#03223e" cx="61.60" cy="46.20" r="30.80"/><circle fill="#0f4272" cx="35.93" cy="71.87" r="25.67"/><circle fill="#fdf0cc" cx="71.87" cy="71.87" r="20.53"/><circle fill="#f9d860" cx="61.60" cy="51.33" r="12.83"/></g><g transform="translate(215.33 160.67)"><rect fill="#f24c2c" x="0" y="0" width="102.67" height="102.67"/><circle fill="#03223e" cx="30.80" cy="25.67" r="20.53"/><circle fill="#0f4272" cx="61.60" cy="46.20" r="30.80"/><circle fill="#fdf0cc" cx="35.93" cy="71.87" r="25.67"/><circle fill="#f9d860" cx="71.87" cy="71.87" r="20.53"/><circle fill="#f49a4d" cx="61.60" cy="51.33" r="12.83"/></g></svg>