<svg version="1.1" xmlns="http://www.w3.org/2000/svg" xmlns:xlink="http://www.w3.org/1999/xlink" width="318" height="263.33333333333337"><g transform="translate(24 24)"><circle fill="#874416" cx="0" cy="0" r="24"/><circle fill="#b56f49" cx="53" cy="0" r="24"/><circle fill="#e69f29" cx="106" cy="0" r="24"/><circle fill="#f3d28a" cx="159" cy="0" r="24"/><circle fill="#c5cda5" cx="212" cy="0" r="24"/><circle fill="#549cba" cx="265" cy="0" r="24"/></g><g transform="translate(0 53)"><rect fill="#874416" x="0" y="0" width="102.67" height="102.67"/><circle fill="#b56f49" cx="30.80" cy="25.67" r="20.53"/><circle fill="#e69f29" cx="61.60" cy="46.20" r="30.80"/><circle fill="#f3d28a" cx="35.93" cy="71.87" r="25.67"/><circle fill="#c5cda5" cx="71.87" cy="71.87" r="20.53"/><circle fill="#549cba" cx="61.60" cy="51.33" r="12.83"/></g><g transform="translate(107.67 53)"><rect fill="#b56f49" x="0" y="0" width="102.67" height="102.67"/><circle fill="#e69f29" cx="30.80" cy="25.67" r="20.53"/><circle fill="#f3d28a" cx="61.60" cy="46.20" r="30.80"/><circle fill="#c5cda5" cx="35.93" cy="71.87" r="25.67"/><circle fill="#549cba" cx="71.87" cy="71.87" r="20.53"/><circle fill="#874416" cx="61.60" cy="51.33" r="12.83"/></g><g transform="translate(215.33 53)"><rect fill="#e69f29" x="0" y="0" width="102.67" height="102.67"/><circle fill="#f3d28a" cx="30.80" cy="25.67" r="20.53"/><circle fill="#c5cda5" cx="61.60" cy="46.20" r="30.80"/><circle fill="#549cba" cx="35.93" cy="71.87" r="25.67"/><circle fill="#874416" cx="71.87" cy="71.87" r="20.53"/><circle fill="#b56f49" cx="61.60" cy="51.33" r="12.83"/></g><g transform="translate(0 160.67)"><rect fill="#f3d28a" x="0" y="0" width="102.67" height="102.67"/><circle fill="#c5cda5" cx="30.80" cy="25.67" r="20.53"/><circle fill="#549cba" cx="61.60" cy="46.20" r="30.80"/><circle fill="#874416" cx="35.93" cy="71.87" r="25.67"/><circle fill="#b56f49" cx="71.87" cy="71.87" r="20.53"/><circle fill="#e69f29" cx="61.60" cy="51.33" r="12.83"/></g><g transform="translate(107.67 160.67)"><rect fill="#c5cda5" x="0" y="0" width="102.67" height="102.67"/><circle fill="#549cba" cx="30.80" cy="25.67" r="20.53"/><circle fill="#874416" cx="61.60" cy="46.20" r="30.80"/><circle fill="#b56f49" cx="35.93" cy="71.87" r="25.67"/><circle fill="#e69f29" cx="71.87" cy="71.87" r="20.53"/><circle fill="#f3d28a" cx="61.60" cy="51.33" r="12.83"/></g><g transform="translate(215.33 160.67)"><rect fill="#549cba" x="0" y="0" width="102.67" height="102.67"/><circle fill="#874416" cx="30.80" cy="25.67" r="20.53"/><circle fill="#b56f49" cx="61.60" cy="46.20" r="30.80"/><circle fill="#e69f29" cx="35.93" cy="71.87" r="25.67"/><circle fill="#f3d28a" cx="71.87" cy="71.87" r="20.53"/><circle fill="#c5cda5" cx="61.60" cy="51.33" r="12.83"/></g></svg>