<svg version="1.1" xmlns="http://www.w3.org/2000/svg" xmlns:xlink="http://www.w3.org/1999/xlink" width="318" height="263.33333333333337"><g transform="translate(24 24)"><circle fill="#0c295a" cx="0" cy="0" r="24"/><circle fill="#374162" cx="53" cy="0" r="24"/><circle fill="#615569" cx="106" cy="0" r="24"/><circle fill="#8e6870" cx="159" cy="0" r="24"/><circle fill="#c0867c" cx="212" cy="0" r="24"/><circle fill="#e2a38a" cx="265" cy="0" r="24"/></g><g transform="translate(0 53)"><rect fill="#0c295a" x="0" y="0" width="102.67" height="102.67"/><circle fill="#374162" cx="30.80" cy="25.67" r="20.53"/><circle fill="#615569" cx="61.60" cy="46.20" r="30.80"/><circle fill="#8e6870" cx="35.93" cy="71.87" r="25.67"/><circle fill="#c0867c" cx="71.87" cy="71.87" r="20.53"/><circle fill="#e2a38a" cx="61.60" cy="51.33" r="12.83"/></g><g transform="translate(107.67 53)"><rect fill="#374162" x="0" y="0" width="102.67" height="102.67"/><circle fill="#615569" cx="30.80" cy="25.67" r="20.53"/><circle fill="#8e6870" cx="61.60" cy="46.20" r="30.80"/><circle fill="#c0867c" cx="35.93" cy="71.87" r="25.67"/><circle fill="#e2a38a" cx="71.87" cy="71.87" r="20.53"/><circle fill="#0c295a" cx="61.60" cy="51.33" r="12.83"/></g><g transform="translate(215.33 53)"><rect fill="#615569" x="0" y="0" width="102.67" height="102.67"/><circle fill="#8e6870" cx="30.80" cy="25.67" r="20.53"/><circle fill="#c0867c" cx="61.60" cy="46.20" r="30.80"/><circle fill="#e2a38a" cx="35.93" cy="71.87" r="25.67"/><circle fill="#0c295a" cx="71.87" cy="71.87" r="20.53"/><circle fill="#374162" cx="61.60" cy="51.33" r="12.83"/></g><g transform="translate(0 160.67)"><rect fill="#8e6870" x="0" y="0" width="102.67" height="102.67"/><circle fill="#c0867c" cx="30.80" cy="25.67" r="20.53"/><circle fill="#e2a38a" cx="61.60" cy="46.20" r="30.80"/><circle fill="#0c295a" cx="35.93" cy="71.87" r="25.67"/><circle fill="#374162" cx="71.87" cy="71.87" r="20.53"/><circle fill="#615569" cx="61.60" cy="51.33" r="12.83"/></g><g transform="translate(107.67 160.67)"><rect fill="#c0867c" x="0" y="0" width="102.67" height="102.67"/><circle fill="#e2a38a" cx="30.80" cy="25.67" r="20.53"/><circle fill="#0c295a" cx="61.60" cy="46.20" r="30.80"/><circle fill="#374162" cx="35.93" cy="71.87" r="25.67"/><circle fill="#615569" cx="71.87" cy="71.87" r="20.53"/><circle fill="#8e6870" cx="61.60" cy="51.33" r="12.83"/></g><g transform="translate(215.33 160.67)"><rect fill="#e2a38a" x="0" y="0" width="102.67" height="102.67"/><circle fill="#0c295a" cx="30.80" cy="25.67" r="20.53"/><circle fill="#374162" cx="61.60" cy="46.20" r="30.80"/><circle fill="#615569" cx="35.93" cy="71.87" r="25.67"/><circle fill="#8e6870" cx="71.87" cy="71.87" r="20.53"/><circle fill="#c0867c" cx="61.60" cy="51.33" r="12.83"/></g></svg>