<svg version="1.1" xmlns="http://www.w3.org/2000/svg" xmlns:xlink="http://www.w3.org/1999/xlink" width="318" height="263.33"><g transform="translate(24 24)"><circle fill="#1c2e5e" cx="0" cy="0" r="24"/><circle fill="#52506d" cx="53" cy="0" r="24"/><circle fill="#9f6771" cx="106" cy="0" r="24"/><circle fill="#d28c80" cx="159" cy="0" r="24"/><circle fill="#c3b39d" cx="212" cy="0" r="24"/><circle fill="#eec6a0" cx="265" cy="0" r="24"/></g><g transform="translate(0 53)"><rect fill="#1c2e5e" x="0" y="0" width="102.67" height="102.67"/><circle fill="#52506d" cx="30.80" cy="25.67" r="20.53"/><circle fill="#9f6771" cx="61.60" cy="46.20" r="30.80"/><circle fill="#d28c80" cx="35.93" cy="71.87" r="25.67"/><circle fill="#c3b39d" cx="71.87" cy="71.87" r="20.53"/><circle fill="#eec6a0" cx="61.60" cy="51.33" r="12.83"/></g><g transform="translate(107.67 53)"><rect fill="#52506d" x="0" y="0" width="102.67" height="102.67"/><circle fill="#9f6771" cx="30.80" cy="25.67" r="20.53"/><circle fill="#d28c80" cx="61.60" cy="46.20" r="30.80"/><circle fill="#c3b39d" cx="35.93" cy="71.87" r="25.67"/><circle fill="#eec6a0" cx="71.87" cy="71.87" r="20.53"/><circle fill="#1c2e5e" cx="61.60" cy="51.33" r="12.83"/></g><g transform="translate(215.33 53)"><rect fill="#9f6771" x="0" y="0" width="102.67" height="102.67"/><circle fill="#d28c80" cx="30.80" cy="25.67" r="20.53"/><circle fill="#c3b39d" cx="61.60" cy="46.20" r="30.80"/><circle fill="#eec6a0" cx="35.93" cy="71.87" r="25.67"/><circle fill="#1c2e5e" cx="71.87" cy="71.87" r="20.53"/><circle fill="#52506d" cx="61.60" cy="51.33" r="12.83"/></g><g transform="translate(0 160.67)"><rect fill="#d28c80" x="0" y="0" width="102.67" height="102.67"/><circle fill="#c3b39d" cx="30.80" cy="25.67" r="20.53"/><circle fill="#eec6a0" cx="61.60" cy="46.20" r="30.80"/><circle fill="#1c2e5e" cx="35.93" cy="71.87" r="25.67"/><circle fill="#52506d" cx="71.87" cy="71.87" r="20.53"/><circle fill="#9f6771" cx="61.60" cy="51.33" r="12.83"/></g><g transform="translate(107.67 160.67)"><rect fill="#c3b39d" x="0" y="0" width="102.67" height="102.67"/><circle fill="#eec6a0" cx="30.80" cy="25.67" r="20.53"/><circle fill="#1c2e5e" cx="61.60" cy="46.20" r="30.80"/><circle fill="#52506d" cx="35.93" cy="71.87" r="25.67"/><circle fill="#9f6771" cx="71.87" cy="71.87" r="20.53"/><circle fill="#d28c80" cx="61.60" cy="51.33" r="12.83"/></g><g transform="translate(215.33 160.67)"><rect fill="#eec6a0" x="0" y="0" width="102.67" height="102.67"/><circle fill="#1c2e5e" cx="30.80" cy="25.67" r="20.53"/><circle fill="#52506d" cx="61.60" cy="46.20" r="30.80"/><circle fill="#9f6771" cx="35.93" cy="71.87" r="25.67"/><circle fill="#d28c80" cx="71.87" cy="71.87" r="20.53"/><circle fill="#c3b39d" cx="61.60" cy="51.33" r="12.83"/></g></svg>