<svg version="1.1" xmlns="http://www.w3.org/2000/svg" xmlns:xlink="http://www.w3.org/1999/xlink" width="318" height="263.33"><g transform="translate(24 24)"><circle fill="#72564a" cx="0" cy="0" r="24"/><circle fill="#a29aa2" cx="53" cy="0" r="24"/><circle fill="#129dab" cx="106" cy="0" r="24"/><circle fill="#f78915" cx="159" cy="0" r="24"/><circle fill="#e0a657" cx="212" cy="0" r="24"/><circle fill="#f3d1a9" cx="265" cy="0" r="24"/></g><g transform="translate(0 53)"><rect fill="#72564a" x="0" y="0" width="102.67" height="102.67"/><circle fill="#a29aa2" cx="30.80" cy="25.67" r="20.53"/><circle fill="#129dab" cx="61.60" cy="46.20" r="30.80"/><circle fill="#f78915" cx="35.93" cy="71.87" r="25.67"/><circle fill="#e0a657" cx="71.87" cy="71.87" r="20.53"/><circle fill="#f3d1a9" cx="61.60" cy="51.33" r="12.83"/></g><g transform="translate(107.67 53)"><rect fill="#a29aa2" x="0" y="0" width="102.67" height="102.67"/><circle fill="#129dab" cx="30.80" cy="25.67" r="20.53"/><circle fill="#f78915" cx="61.60" cy="46.20" r="30.80"/><circle fill="#e0a657" cx="35.93" cy="71.87" r="25.67"/><circle fill="#f3d1a9" cx="71.87" cy="71.87" r="20.53"/><circle fill="#72564a" cx="61.60" cy="51.33" r="12.83"/></g><g transform="translate(215.33 53)"><rect fill="#129dab" x="0" y="0" width="102.67" height="102.67"/><circle fill="#f78915" cx="30.80" cy="25.67" r="20.53"/><circle fill="#e0a657" cx="61.60" cy="46.20" r="30.80"/><circle fill="#f3d1a9" cx="35.93" cy="71.87" r="25.67"/><circle fill="#72564a" cx="71.87" cy="71.87" r="20.53"/><circle fill="#a29aa2" cx="61.60" cy="51.33" r="12.83"/></g><g transform="translate(0 160.67)"><rect fill="#f78915" x="0" y="0" width="102.67" height="102.67"/><circle fill="#e0a657" cx="30.80" cy="25.67" r="20.53"/><circle fill="#f3d1a9" cx="61.60" cy="46.20" r="30.80"/><circle fill="#72564a" cx="35.93" cy="71.87" r="25.67"/><circle fill="#a29aa2" cx="71.87" cy="71.87" r="20.53"/><circle fill="#129dab" cx="61.60" cy="51.33" r="12.83"/></g><g transform="translate(107.67 160.67)"><rect fill="#e0a657" x="0" y="0" width="102.67" height="102.67"/><circle fill="#f3d1a9" cx="30.80" cy="25.67" r="20.53"/><circle fill="#72564a" cx="61.60" cy="46.20" r="30.80"/><circle fill="#a29aa2" cx="35.93" cy="71.87" r="25.67"/><circle fill="#129dab" cx="71.87" cy="71.87" r="20.53"/><circle fill="#f78915" cx="61.60" cy="51.33" r="12.83"/></g><g transform="translate(215.33 160.67)"><rect fill="#f3d1a9" x="0" y="0" width="102.67" height="102.67"/><circle fill="#72564a" cx="30.80" cy="25.67" r="20.53"/><circle fill="#a29aa2" cx="61.60" cy="46.20" r="30.80"/><circle fill="#129dab" cx="35.93" cy="71.87" r="25.67"/><circle fill="#f78915" cx="71.87" cy="71.87" r="20.53"/><circle fill="#e0a657" cx="61.60" cy="51.33" r="12.83"/></g></svg>