<svg version="1.1" xmlns="http://www.w3.org/2000/svg" xmlns:xlink="http://www.w3.org/1999/xlink" width="318" height="263.33"><g transform="translate(24 24)"><circle fill="#2a3c6f" cx="0" cy="0" r="24"/><circle fill="#8c5788" cx="53" cy="0" r="24"/><circle fill="#b6762d" cx="106" cy="0" r="24"/><circle fill="#a8928a" cx="159" cy="0" r="24"/><circle fill="#ebbc44" cx="212" cy="0" r="24"/><circle fill="#e0cdb8" cx="265" cy="0" r="24"/></g><g transform="translate(0 53)"><rect fill="#2a3c6f" x="0" y="0" width="102.67" height="102.67"/><circle fill="#8c5788" cx="30.80" cy="25.67" r="20.53"/><circle fill="#b6762d" cx="61.60" cy="46.20" r="30.80"/><circle fill="#a8928a" cx="35.93" cy="71.87" r="25.67"/><circle fill="#ebbc44" cx="71.87" cy="71.87" r="20.53"/><circle fill="#e0cdb8" cx="61.60" cy="51.33" r="12.83"/></g><g transform="translate(107.67 53)"><rect fill="#8c5788" x="0" y="0" width="102.67" height="102.67"/><circle fill="#b6762d" cx="30.80" cy="25.67" r="20.53"/><circle fill="#a8928a" cx="61.60" cy="46.20" r="30.80"/><circle fill="#ebbc44" cx="35.93" cy="71.87" r="25.67"/><circle fill="#e0cdb8" cx="71.87" cy="71.87" r="20.53"/><circle fill="#2a3c6f" cx="61.60" cy="51.33" r="12.83"/></g><g transform="translate(215.33 53)"><rect fill="#b6762d" x="0" y="0" width="102.67" height="102.67"/><circle fill="#a8928a" cx="30.80" cy="25.67" r="20.53"/><circle fill="#ebbc44" cx="61.60" cy="46.20" r="30.80"/><circle fill="#e0cdb8" cx="35.93" cy="71.87" r="25.67"/><circle fill="#2a3c6f" cx="71.87" cy="71.87" r="20.53"/><circle fill="#8c5788" cx="61.60" cy="51.33" r="12.83"/></g><g transform="translate(0 160.67)"><rect fill="#a8928a" x="0" y="0" width="102.67" height="102.67"/><circle fill="#ebbc44" cx="30.80" cy="25.67" r="20.53"/><circle fill="#e0cdb8" cx="61.60" cy="46.20" r="30.80"/><circle fill="#2a3c6f" cx="35.93" cy="71.87" r="25.67"/><circle fill="#8c5788" cx="71.87" cy="71.87" r="20.53"/><circle fill="#b6762d" cx="61.60" cy="51.33" r="12.83"/></g><g transform="translate(107.67 160.67)"><rect fill="#ebbc44" x="0" y="0" width="102.67" height="102.67"/><circle fill="#e0cdb8" cx="30.80" cy="25.67" r="20.53"/><circle fill="#2a3c6f" cx="61.60" cy="46.20" r="30.80"/><circle fill="#8c5788" cx="35.93" cy="71.87" r="25.67"/><circle fill="#b6762d" cx="71.87" cy="71.87" r="20.53"/><circle fill="#a8928a" cx="61.60" cy="51.33" r="12.83"/></g><g transform="translate(215.33 160.67)"><rect fill="#e0cdb8" x="0" y="0" width="102.67" height="102.67"/><circle fill="#2a3c6f" cx="30.80" cy="25.67" r="20.53"/><circle fill="#8c5788" cx="61.60" cy="46.20" r="30.80"/><circle fill="#b6762d" cx="35.93" cy="71.87" r="25.67"/><circle fill="#a8928a" cx="71.87" cy="71.87" r="20.53"/><circle fill="#ebbc44" cx="61.60" cy="51.33" r="12.83"/></g></svg>