<svg version="1.1" xmlns="http://www.w3.org/2000/svg" xmlns:xlink="http://www.w3.org/1999/xlink" width="318" height="263.33"><g transform="translate(24 24)"><circle fill="#102024" cx="0" cy="0" r="24"/><circle fill="#6b7438" cx="53" cy="0" r="24"/><circle fill="#a7a632" cx="106" cy="0" r="24"/><circle fill="#cccc67" cx="159" cy="0" r="24"/><circle fill="#e4c80e" cx="212" cy="0" r="24"/><circle fill="#d5dfbf" cx="265" cy="0" r="24"/></g><g transform="translate(0 53)"><rect fill="#102024" x="0" y="0" width="102.67" height="102.67"/><circle fill="#6b7438" cx="30.80" cy="25.67" r="20.53"/><circle fill="#a7a632" cx="61.60" cy="46.20" r="30.80"/><circle fill="#cccc67" cx="35.93" cy="71.87" r="25.67"/><circle fill="#e4c80e" cx="71.87" cy="71.87" r="20.53"/><circle fill="#d5dfbf" cx="61.60" cy="51.33" r="12.83"/></g><g transform="translate(107.67 53)"><rect fill="#6b7438" x="0" y="0" width="102.67" height="102.67"/><circle fill="#a7a632" cx="30.80" cy="25.67" r="20.53"/><circle fill="#cccc67" cx="61.60" cy="46.20" r="30.80"/><circle fill="#e4c80e" cx="35.93" cy="71.87" r="25.67"/><circle fill="#d5dfbf" cx="71.87" cy="71.87" r="20.53"/><circle fill="#102024" cx="61.60" cy="51.33" r="12.83"/></g><g transform="translate(215.33 53)"><rect fill="#a7a632" x="0" y="0" width="102.67" height="102.67"/><circle fill="#cccc67" cx="30.80" cy="25.67" r="20.53"/><circle fill="#e4c80e" cx="61.60" cy="46.20" r="30.80"/><circle fill="#d5dfbf" cx="35.93" cy="71.87" r="25.67"/><circle fill="#102024" cx="71.87" cy="71.87" r="20.53"/><circle fill="#6b7438" cx="61.60" cy="51.33" r="12.83"/></g><g transform="translate(0 160.67)"><rect fill="#cccc67" x="0" y="0" width="102.67" height="102.67"/><circle fill="#e4c80e" cx="30.80" cy="25.67" r="20.53"/><circle fill="#d5dfbf" cx="61.60" cy="46.20" r="30.80"/><circle fill="#102024" cx="35.93" cy="71.87" r="25.67"/><circle fill="#6b7438" cx="71.87" cy="71.87" r="20.53"/><circle fill="#a7a632" cx="61.60" cy="51.33" r="12.83"/></g><g transform="translate(107.67 160.67)"><rect fill="#e4c80e" x="0" y="0" width="102.67" height="102.67"/><circle fill="#d5dfbf" cx="30.80" cy="25.67" r="20.53"/><circle fill="#102024" cx="61.60" cy="46.20" r="30.80"/><circle fill="#6b7438" cx="35.93" cy="71.87" r="25.67"/><circle fill="#a7a632" cx="71.87" cy="71.87" r="20.53"/><circle fill="#cccc67" cx="61.60" cy="51.33" r="12.83"/></g><g transform="translate(215.33 160.67)"><rect fill="#d5dfbf" x="0" y="0" width="102.67" height="102.67"/><circle fill="#102024" cx="30.80" cy="25.67" r="20.53"/><circle fill="#6b7438" cx="61.60" cy="46.20" r="30.80"/><circle fill="#a7a632" cx="35.93" cy="71.87" r="25.67"/><circle fill="#cccc67" cx="71.87" cy="71.87" r="20.53"/><circle fill="#e4c80e" cx="61.60" cy="51.33" r="12.83"/></g></svg>