<svg version="1.1" xmlns="http://www.w3.org/2000/svg" xmlns:xlink="http://www.w3.org/1999/xlink" width="318" height="263.33"><g transform="translate(24 24)"><circle fill="#d07c14" cx="0" cy="0" r="24"/><circle fill="#e2a220" cx="53" cy="0" r="24"/><circle fill="#e1ccbd" cx="106" cy="0" r="24"/><circle fill="#d0af89" cx="159" cy="0" r="24"/><circle fill="#a7836d" cx="212" cy="0" r="24"/><circle fill="#7e4114" cx="265" cy="0" r="24"/></g><g transform="translate(0 53)"><rect fill="#d07c14" x="0" y="0" width="102.67" height="102.67"/><circle fill="#e2a220" cx="30.80" cy="25.67" r="20.53"/><circle fill="#e1ccbd" cx="61.60" cy="46.20" r="30.80"/><circle fill="#d0af89" cx="35.93" cy="71.87" r="25.67"/><circle fill="#a7836d" cx="71.87" cy="71.87" r="20.53"/><circle fill="#7e4114" cx="61.60" cy="51.33" r="12.83"/></g><g transform="translate(107.67 53)"><rect fill="#e2a220" x="0" y="0" width="102.67" height="102.67"/><circle fill="#e1ccbd" cx="30.80" cy="25.67" r="20.53"/><circle fill="#d0af89" cx="61.60" cy="46.20" r="30.80"/><circle fill="#a7836d" cx="35.93" cy="71.87" r="25.67"/><circle fill="#7e4114" cx="71.87" cy="71.87" r="20.53"/><circle fill="#d07c14" cx="61.60" cy="51.33" r="12.83"/></g><g transform="translate(215.33 53)"><rect fill="#e1ccbd" x="0" y="0" width="102.67" height="102.67"/><circle fill="#d0af89" cx="30.80" cy="25.67" r="20.53"/><circle fill="#a7836d" cx="61.60" cy="46.20" r="30.80"/><circle fill="#7e4114" cx="35.93" cy="71.87" r="25.67"/><circle fill="#d07c14" cx="71.87" cy="71.87" r="20.53"/><circle fill="#e2a220" cx="61.60" cy="51.33" r="12.83"/></g><g transform="translate(0 160.67)"><rect fill="#d0af89" x="0" y="0" width="102.67" height="102.67"/><circle fill="#a7836d" cx="30.80" cy="25.67" r="20.53"/><circle fill="#7e4114" cx="61.60" cy="46.20" r="30.80"/><circle fill="#d07c14" cx="35.93" cy="71.87" r="25.67"/><circle fill="#e2a220" cx="71.87" cy="71.87" r="20.53"/><circle fill="#e1ccbd" cx="61.60" cy="51.33" r="12.83"/></g><g transform="translate(107.67 160.67)"><rect fill="#a7836d" x="0" y="0" width="102.67" height="102.67"/><circle fill="#7e4114" cx="30.80" cy="25.67" r="20.53"/><circle fill="#d07c14" cx="61.60" cy="46.20" r="30.80"/><circle fill="#e2a220" cx="35.93" cy="71.87" r="25.67"/><circle fill="#e1ccbd" cx="71.87" cy="71.87" r="20.53"/><circle fill="#d0af89" cx="61.60" cy="51.33" r="12.83"/></g><g transform="translate(215.33 160.67)"><rect fill="#7e4114" x="0" y="0" width="102.67" height="102.67"/><circle fill="#d07c14" cx="30.80" cy="25.67" r="20.53"/><circle fill="#e2a220" cx="61.60" cy="46.20" r="30.80"/><circle fill="#e1ccbd" cx="35.93" cy="71.87" r="25.67"/><circle fill="#d0af89" cx="71.87" cy="71.87" r="20.53"/><circle fill="#a7836d" cx="61.60" cy="51.33" r="12.83"/></g></svg>