<svg version="1.1" xmlns="http://www.w3.org/2000/svg" xmlns:xlink="http://www.w3.org/1999/xlink" width="318" height="263.33"><g transform="translate(24 24)"><circle fill="#898885" cx="0" cy="0" r="24"/><circle fill="#b3b7bd" cx="53" cy="0" r="24"/><circle fill="#dfe0e1" cx="106" cy="0" r="24"/><circle fill="#ede14b" cx="159" cy="0" r="24"/><circle fill="#a6a814" cx="212" cy="0" r="24"/><circle fill="#44432e" cx="265" cy="0" r="24"/></g><g transform="translate(0 53)"><rect fill="#898885" x="0" y="0" width="102.67" height="102.67"/><circle fill="#b3b7bd" cx="30.80" cy="25.67" r="20.53"/><circle fill="#dfe0e1" cx="61.60" cy="46.20" r="30.80"/><circle fill="#ede14b" cx="35.93" cy="71.87" r="25.67"/><circle fill="#a6a814" cx="71.87" cy="71.87" r="20.53"/><circle fill="#44432e" cx="61.60" cy="51.33" r="12.83"/></g><g transform="translate(107.67 53)"><rect fill="#b3b7bd" x="0" y="0" width="102.67" height="102.67"/><circle fill="#dfe0e1" cx="30.80" cy="25.67" r="20.53"/><circle fill="#ede14b" cx="61.60" cy="46.20" r="30.80"/><circle fill="#a6a814" cx="35.93" cy="71.87" r="25.67"/><circle fill="#44432e" cx="71.87" cy="71.87" r="20.53"/><circle fill="#898885" cx="61.60" cy="51.33" r="12.83"/></g><g transform="translate(215.33 53)"><rect fill="#dfe0e1" x="0" y="0" width="102.67" height="102.67"/><circle fill="#ede14b" cx="30.80" cy="25.67" r="20.53"/><circle fill="#a6a814" cx="61.60" cy="46.20" r="30.80"/><circle fill="#44432e" cx="35.93" cy="71.87" r="25.67"/><circle fill="#898885" cx="71.87" cy="71.87" r="20.53"/><circle fill="#b3b7bd" cx="61.60" cy="51.33" r="12.83"/></g><g transform="translate(0 160.67)"><rect fill="#ede14b" x="0" y="0" width="102.67" height="102.67"/><circle fill="#a6a814" cx="30.80" cy="25.67" r="20.53"/><circle fill="#44432e" cx="61.60" cy="46.20" r="30.80"/><circle fill="#898885" cx="35.93" cy="71.87" r="25.67"/><circle fill="#b3b7bd" cx="71.87" cy="71.87" r="20.53"/><circle fill="#dfe0e1" cx="61.60" cy="51.33" r="12.83"/></g><g transform="translate(107.67 160.67)"><rect fill="#a6a814" x="0" y="0" width="102.67" height="102.67"/><circle fill="#44432e" cx="30.80" cy="25.67" r="20.53"/><circle fill="#898885" cx="61.60" cy="46.20" r="30.80"/><circle fill="#b3b7bd" cx="35.93" cy="71.87" r="25.67"/><circle fill="#dfe0e1" cx="71.87" cy="71.87" r="20.53"/><circle fill="#ede14b" cx="61.60" cy="51.33" r="12.83"/></g><g transform="translate(215.33 160.67)"><rect fill="#44432e" x="0" y="0" width="102.67" height="102.67"/><circle fill="#898885" cx="30.80" cy="25.67" r="20.53"/><circle fill="#b3b7bd" cx="61.60" cy="46.20" r="30.80"/><circle fill="#dfe0e1" cx="35.93" cy="71.87" r="25.67"/><circle fill="#ede14b" cx="71.87" cy="71.87" r="20.53"/><circle fill="#a6a814" cx="61.60" cy="51.33" r="12.83"/></g></svg>