<svg version="1.1" xmlns="http://www.w3.org/2000/svg" xmlns:xlink="http://www.w3.org/1999/xlink" width="318" height="263.33"><g transform="translate(24 24)"><circle fill="#857b84" cx="0" cy="0" r="24"/><circle fill="#b1a7b0" cx="53" cy="0" r="24"/><circle fill="#d0c7d0" cx="106" cy="0" r="24"/><circle fill="#e7e0e8" cx="159" cy="0" r="24"/><circle fill="#faeceb" cx="212" cy="0" r="24"/><circle fill="#e4e9fa" cx="265" cy="0" r="24"/></g><g transform="translate(0 53)"><rect fill="#857b84" x="0" y="0" width="102.67" height="102.67"/><circle fill="#b1a7b0" cx="30.80" cy="25.67" r="20.53"/><circle fill="#d0c7d0" cx="61.60" cy="46.20" r="30.80"/><circle fill="#e7e0e8" cx="35.93" cy="71.87" r="25.67"/><circle fill="#faeceb" cx="71.87" cy="71.87" r="20.53"/><circle fill="#e4e9fa" cx="61.60" cy="51.33" r="12.83"/></g><g transform="translate(107.67 53)"><rect fill="#b1a7b0" x="0" y="0" width="102.67" height="102.67"/><circle fill="#d0c7d0" cx="30.80" cy="25.67" r="20.53"/><circle fill="#e7e0e8" cx="61.60" cy="46.20" r="30.80"/><circle fill="#faeceb" cx="35.93" cy="71.87" r="25.67"/><circle fill="#e4e9fa" cx="71.87" cy="71.87" r="20.53"/><circle fill="#857b84" cx="61.60" cy="51.33" r="12.83"/></g><g transform="translate(215.33 53)"><rect fill="#d0c7d0" x="0" y="0" width="102.67" height="102.67"/><circle fill="#e7e0e8" cx="30.80" cy="25.67" r="20.53"/><circle fill="#faeceb" cx="61.60" cy="46.20" r="30.80"/><circle fill="#e4e9fa" cx="35.93" cy="71.87" r="25.67"/><circle fill="#857b84" cx="71.87" cy="71.87" r="20.53"/><circle fill="#b1a7b0" cx="61.60" cy="51.33" r="12.83"/></g><g transform="translate(0 160.67)"><rect fill="#e7e0e8" x="0" y="0" width="102.67" height="102.67"/><circle fill="#faeceb" cx="30.80" cy="25.67" r="20.53"/><circle fill="#e4e9fa" cx="61.60" cy="46.20" r="30.80"/><circle fill="#857b84" cx="35.93" cy="71.87" r="25.67"/><circle fill="#b1a7b0" cx="71.87" cy="71.87" r="20.53"/><circle fill="#d0c7d0" cx="61.60" cy="51.33" r="12.83"/></g><g transform="translate(107.67 160.67)"><rect fill="#faeceb" x="0" y="0" width="102.67" height="102.67"/><circle fill="#e4e9fa" cx="30.80" cy="25.67" r="20.53"/><circle fill="#857b84" cx="61.60" cy="46.20" r="30.80"/><circle fill="#b1a7b0" cx="35.93" cy="71.87" r="25.67"/><circle fill="#d0c7d0" cx="71.87" cy="71.87" r="20.53"/><circle fill="#e7e0e8" cx="61.60" cy="51.33" r="12.83"/></g><g transform="translate(215.33 160.67)"><rect fill="#e4e9fa" x="0" y="0" width="102.67" height="102.67"/><circle fill="#857b84" cx="30.80" cy="25.67" r="20.53"/><circle fill="#b1a7b0" cx="61.60" cy="46.20" r="30.80"/><circle fill="#d0c7d0" cx="35.93" cy="71.87" r="25.67"/><circle fill="#e7e0e8" cx="71.87" cy="71.87" r="20.53"/><circle fill="#faeceb" cx="61.60" cy="51.33" r="12.83"/></g></svg>