<svg version="1.1" xmlns="http://www.w3.org/2000/svg" xmlns:xlink="http://www.w3.org/1999/xlink" width="318" height="263.33"><g transform="translate(24 24)"><circle fill="#301912" cx="0" cy="0" r="24"/><circle fill="#dc1221" cx="53" cy="0" r="24"/><circle fill="#6c6250" cx="106" cy="0" r="24"/><circle fill="#b69571" cx="159" cy="0" r="24"/><circle fill="#d8d7cd" cx="212" cy="0" r="24"/><circle fill="#94afb4" cx="265" cy="0" r="24"/></g><g transform="translate(0 53)"><rect fill="#301912" x="0" y="0" width="102.67" height="102.67"/><circle fill="#dc1221" cx="30.80" cy="25.67" r="20.53"/><circle fill="#6c6250" cx="61.60" cy="46.20" r="30.80"/><circle fill="#b69571" cx="35.93" cy="71.87" r="25.67"/><circle fill="#d8d7cd" cx="71.87" cy="71.87" r="20.53"/><circle fill="#94afb4" cx="61.60" cy="51.33" r="12.83"/></g><g transform="translate(107.67 53)"><rect fill="#dc1221" x="0" y="0" width="102.67" height="102.67"/><circle fill="#6c6250" cx="30.80" cy="25.67" r="20.53"/><circle fill="#b69571" cx="61.60" cy="46.20" r="30.80"/><circle fill="#d8d7cd" cx="35.93" cy="71.87" r="25.67"/><circle fill="#94afb4" cx="71.87" cy="71.87" r="20.53"/><circle fill="#301912" cx="61.60" cy="51.33" r="12.83"/></g><g transform="translate(215.33 53)"><rect fill="#6c6250" x="0" y="0" width="102.67" height="102.67"/><circle fill="#b69571" cx="30.80" cy="25.67" r="20.53"/><circle fill="#d8d7cd" cx="61.60" cy="46.20" r="30.80"/><circle fill="#94afb4" cx="35.93" cy="71.87" r="25.67"/><circle fill="#301912" cx="71.87" cy="71.87" r="20.53"/><circle fill="#dc1221" cx="61.60" cy="51.33" r="12.83"/></g><g transform="translate(0 160.67)"><rect fill="#b69571" x="0" y="0" width="102.67" height="102.67"/><circle fill="#d8d7cd" cx="30.80" cy="25.67" r="20.53"/><circle fill="#94afb4" cx="61.60" cy="46.20" r="30.80"/><circle fill="#301912" cx="35.93" cy="71.87" r="25.67"/><circle fill="#dc1221" cx="71.87" cy="71.87" r="20.53"/><circle fill="#6c6250" cx="61.60" cy="51.33" r="12.83"/></g><g transform="translate(107.67 160.67)"><rect fill="#d8d7cd" x="0" y="0" width="102.67" height="102.67"/><circle fill="#94afb4" cx="30.80" cy="25.67" r="20.53"/><circle fill="#301912" cx="61.60" cy="46.20" r="30.80"/><circle fill="#dc1221" cx="35.93" cy="71.87" r="25.67"/><circle fill="#6c6250" cx="71.87" cy="71.87" r="20.53"/><circle fill="#b69571" cx="61.60" cy="51.33" r="12.83"/></g><g transform="translate(215.33 160.67)"><rect fill="#94afb4" x="0" y="0" width="102.67" height="102.67"/><circle fill="#301912" cx="30.80" cy="25.67" r="20.53"/><circle fill="#dc1221" cx="61.60" cy="46.20" r="30.80"/><circle fill="#6c6250" cx="35.93" cy="71.87" r="25.67"/><circle fill="#b69571" cx="71.87" cy="71.87" r="20.53"/><circle fill="#d8d7cd" cx="61.60" cy="51.33" r="12.83"/></g></svg>