<svg version="1.1" xmlns="http://www.w3.org/2000/svg" xmlns:xlink="http://www.w3.org/1999/xlink" width="318" height="263.33"><g transform="translate(24 24)"><circle fill="#140e0d" cx="0" cy="0" r="24"/><circle fill="#794121" cx="53" cy="0" r="24"/><circle fill="#cc8c3e" cx="106" cy="0" r="24"/><circle fill="#c3af92" cx="159" cy="0" r="24"/><circle fill="#7e7e77" cx="212" cy="0" r="24"/><circle fill="#2d3d3a" cx="265" cy="0" r="24"/></g><g transform="translate(0 53)"><rect fill="#140e0d" x="0" y="0" width="102.67" height="102.67"/><circle fill="#794121" cx="30.80" cy="25.67" r="20.53"/><circle fill="#cc8c3e" cx="61.60" cy="46.20" r="30.80"/><circle fill="#c3af92" cx="35.93" cy="71.87" r="25.67"/><circle fill="#7e7e77" cx="71.87" cy="71.87" r="20.53"/><circle fill="#2d3d3a" cx="61.60" cy="51.33" r="12.83"/></g><g transform="translate(107.67 53)"><rect fill="#794121" x="0" y="0" width="102.67" height="102.67"/><circle fill="#cc8c3e" cx="30.80" cy="25.67" r="20.53"/><circle fill="#c3af92" cx="61.60" cy="46.20" r="30.80"/><circle fill="#7e7e77" cx="35.93" cy="71.87" r="25.67"/><circle fill="#2d3d3a" cx="71.87" cy="71.87" r="20.53"/><circle fill="#140e0d" cx="61.60" cy="51.33" r="12.83"/></g><g transform="translate(215.33 53)"><rect fill="#cc8c3e" x="0" y="0" width="102.67" height="102.67"/><circle fill="#c3af92" cx="30.80" cy="25.67" r="20.53"/><circle fill="#7e7e77" cx="61.60" cy="46.20" r="30.80"/><circle fill="#2d3d3a" cx="35.93" cy="71.87" r="25.67"/><circle fill="#140e0d" cx="71.87" cy="71.87" r="20.53"/><circle fill="#794121" cx="61.60" cy="51.33" r="12.83"/></g><g transform="translate(0 160.67)"><rect fill="#c3af92" x="0" y="0" width="102.67" height="102.67"/><circle fill="#7e7e77" cx="30.80" cy="25.67" r="20.53"/><circle fill="#2d3d3a" cx="61.60" cy="46.20" r="30.80"/><circle fill="#140e0d" cx="35.93" cy="71.87" r="25.67"/><circle fill="#794121" cx="71.87" cy="71.87" r="20.53"/><circle fill="#cc8c3e" cx="61.60" cy="51.33" r="12.83"/></g><g transform="translate(107.67 160.67)"><rect fill="#7e7e77" x="0" y="0" width="102.67" height="102.67"/><circle fill="#2d3d3a" cx="30.80" cy="25.67" r="20.53"/><circle fill="#140e0d" cx="61.60" cy="46.20" r="30.80"/><circle fill="#794121" cx="35.93" cy="71.87" r="25.67"/><circle fill="#cc8c3e" cx="71.87" cy="71.87" r="20.53"/><circle fill="#c3af92" cx="61.60" cy="51.33" r="12.83"/></g><g transform="translate(215.33 160.67)"><rect fill="#2d3d3a" x="0" y="0" width="102.67" height="102.67"/><circle fill="#140e0d" cx="30.80" cy="25.67" r="20.53"/><circle fill="#794121" cx="61.60" cy="46.20" r="30.80"/><circle fill="#cc8c3e" cx="35.93" cy="71.87" r="25.67"/><circle fill="#c3af92" cx="71.87" cy="71.87" r="20.53"/><circle fill="#7e7e77" cx="61.60" cy="51.33" r="12.83"/></g></svg>