<svg version="1.1" xmlns="http://www.w3.org/2000/svg" xmlns:xlink="http://www.w3.org/1999/xlink" width="318" height="263.33"><g transform="translate(24 24)"><circle fill="#17565c" cx="0" cy="0" r="24"/><circle fill="#3e8c8f" cx="53" cy="0" r="24"/><circle fill="#8fccda" cx="106" cy="0" r="24"/><circle fill="#ffeecb" cx="159" cy="0" r="24"/><circle fill="#e4cfa5" cx="212" cy="0" r="24"/><circle fill="#b3a07b" cx="265" cy="0" r="24"/></g><g transform="translate(0 53)"><rect fill="#17565c" x="0" y="0" width="102.67" height="102.67"/><circle fill="#3e8c8f" cx="30.80" cy="25.67" r="20.53"/><circle fill="#8fccda" cx="61.60" cy="46.20" r="30.80"/><circle fill="#ffeecb" cx="35.93" cy="71.87" r="25.67"/><circle fill="#e4cfa5" cx="71.87" cy="71.87" r="20.53"/><circle fill="#b3a07b" cx="61.60" cy="51.33" r="12.83"/></g><g transform="translate(107.67 53)"><rect fill="#3e8c8f" x="0" y="0" width="102.67" height="102.67"/><circle fill="#8fccda" cx="30.80" cy="25.67" r="20.53"/><circle fill="#ffeecb" cx="61.60" cy="46.20" r="30.80"/><circle fill="#e4cfa5" cx="35.93" cy="71.87" r="25.67"/><circle fill="#b3a07b" cx="71.87" cy="71.87" r="20.53"/><circle fill="#17565c" cx="61.60" cy="51.33" r="12.83"/></g><g transform="translate(215.33 53)"><rect fill="#8fccda" x="0" y="0" width="102.67" height="102.67"/><circle fill="#ffeecb" cx="30.80" cy="25.67" r="20.53"/><circle fill="#e4cfa5" cx="61.60" cy="46.20" r="30.80"/><circle fill="#b3a07b" cx="35.93" cy="71.87" r="25.67"/><circle fill="#17565c" cx="71.87" cy="71.87" r="20.53"/><circle fill="#3e8c8f" cx="61.60" cy="51.33" r="12.83"/></g><g transform="translate(0 160.67)"><rect fill="#ffeecb" x="0" y="0" width="102.67" height="102.67"/><circle fill="#e4cfa5" cx="30.80" cy="25.67" r="20.53"/><circle fill="#b3a07b" cx="61.60" cy="46.20" r="30.80"/><circle fill="#17565c" cx="35.93" cy="71.87" r="25.67"/><circle fill="#3e8c8f" cx="71.87" cy="71.87" r="20.53"/><circle fill="#8fccda" cx="61.60" cy="51.33" r="12.83"/></g><g transform="translate(107.67 160.67)"><rect fill="#e4cfa5" x="0" y="0" width="102.67" height="102.67"/><circle fill="#b3a07b" cx="30.80" cy="25.67" r="20.53"/><circle fill="#17565c" cx="61.60" cy="46.20" r="30.80"/><circle fill="#3e8c8f" cx="35.93" cy="71.87" r="25.67"/><circle fill="#8fccda" cx="71.87" cy="71.87" r="20.53"/><circle fill="#ffeecb" cx="61.60" cy="51.33" r="12.83"/></g><g transform="translate(215.33 160.67)"><rect fill="#b3a07b" x="0" y="0" width="102.67" height="102.67"/><circle fill="#17565c" cx="30.80" cy="25.67" r="20.53"/><circle fill="#3e8c8f" cx="61.60" cy="46.20" r="30.80"/><circle fill="#8fccda" cx="35.93" cy="71.87" r="25.67"/><circle fill="#ffeecb" cx="71.87" cy="71.87" r="20.53"/><circle fill="#e4cfa5" cx="61.60" cy="51.33" r="12.83"/></g></svg>