<svg version="1.1" xmlns="http://www.w3.org/2000/svg" xmlns:xlink="http://www.w3.org/1999/xlink" width="318" height="263.33"><g transform="translate(24 24)"><circle fill="#1c1319" cx="0" cy="0" r="24"/><circle fill="#463e3b" cx="53" cy="0" r="24"/><circle fill="#095347" cx="106" cy="0" r="24"/><circle fill="#7a3325" cx="159" cy="0" r="24"/><circle fill="#e3773d" cx="212" cy="0" r="24"/><circle fill="#f4d19b" cx="265" cy="0" r="24"/></g><g transform="translate(0 53)"><rect fill="#1c1319" x="0" y="0" width="102.67" height="102.67"/><circle fill="#463e3b" cx="30.80" cy="25.67" r="20.53"/><circle fill="#095347" cx="61.60" cy="46.20" r="30.80"/><circle fill="#7a3325" cx="35.93" cy="71.87" r="25.67"/><circle fill="#e3773d" cx="71.87" cy="71.87" r="20.53"/><circle fill="#f4d19b" cx="61.60" cy="51.33" r="12.83"/></g><g transform="translate(107.67 53)"><rect fill="#463e3b" x="0" y="0" width="102.67" height="102.67"/><circle fill="#095347" cx="30.80" cy="25.67" r="20.53"/><circle fill="#7a3325" cx="61.60" cy="46.20" r="30.80"/><circle fill="#e3773d" cx="35.93" cy="71.87" r="25.67"/><circle fill="#f4d19b" cx="71.87" cy="71.87" r="20.53"/><circle fill="#1c1319" cx="61.60" cy="51.33" r="12.83"/></g><g transform="translate(215.33 53)"><rect fill="#095347" x="0" y="0" width="102.67" height="102.67"/><circle fill="#7a3325" cx="30.80" cy="25.67" r="20.53"/><circle fill="#e3773d" cx="61.60" cy="46.20" r="30.80"/><circle fill="#f4d19b" cx="35.93" cy="71.87" r="25.67"/><circle fill="#1c1319" cx="71.87" cy="71.87" r="20.53"/><circle fill="#463e3b" cx="61.60" cy="51.33" r="12.83"/></g><g transform="translate(0 160.67)"><rect fill="#7a3325" x="0" y="0" width="102.67" height="102.67"/><circle fill="#e3773d" cx="30.80" cy="25.67" r="20.53"/><circle fill="#f4d19b" cx="61.60" cy="46.20" r="30.80"/><circle fill="#1c1319" cx="35.93" cy="71.87" r="25.67"/><circle fill="#463e3b" cx="71.87" cy="71.87" r="20.53"/><circle fill="#095347" cx="61.60" cy="51.33" r="12.83"/></g><g transform="translate(107.67 160.67)"><rect fill="#e3773d" x="0" y="0" width="102.67" height="102.67"/><circle fill="#f4d19b" cx="30.80" cy="25.67" r="20.53"/><circle fill="#1c1319" cx="61.60" cy="46.20" r="30.80"/><circle fill="#463e3b" cx="35.93" cy="71.87" r="25.67"/><circle fill="#095347" cx="71.87" cy="71.87" r="20.53"/><circle fill="#7a3325" cx="61.60" cy="51.33" r="12.83"/></g><g transform="translate(215.33 160.67)"><rect fill="#f4d19b" x="0" y="0" width="102.67" height="102.67"/><circle fill="#1c1319" cx="30.80" cy="25.67" r="20.53"/><circle fill="#463e3b" cx="61.60" cy="46.20" r="30.80"/><circle fill="#095347" cx="35.93" cy="71.87" r="25.67"/><circle fill="#7a3325" cx="71.87" cy="71.87" r="20.53"/><circle fill="#e3773d" cx="61.60" cy="51.33" r="12.83"/></g></svg>