<svg version="1.1" xmlns="http://www.w3.org/2000/svg" xmlns:xlink="http://www.w3.org/1999/xlink" width="318" height="263.33"><g transform="translate(24 24)"><circle fill="#825e46" cx="0" cy="0" r="24"/><circle fill="#e69f36" cx="53" cy="0" r="24"/><circle fill="#3c7aa5" cx="106" cy="0" r="24"/><circle fill="#2c3f51" cx="159" cy="0" r="24"/><circle fill="#aaa2b7" cx="212" cy="0" r="24"/><circle fill="#f1ecf2" cx="265" cy="0" r="24"/></g><g transform="translate(0 53)"><rect fill="#825e46" x="0" y="0" width="102.67" height="102.67"/><circle fill="#e69f36" cx="30.80" cy="25.67" r="20.53"/><circle fill="#3c7aa5" cx="61.60" cy="46.20" r="30.80"/><circle fill="#2c3f51" cx="35.93" cy="71.87" r="25.67"/><circle fill="#aaa2b7" cx="71.87" cy="71.87" r="20.53"/><circle fill="#f1ecf2" cx="61.60" cy="51.33" r="12.83"/></g><g transform="translate(107.67 53)"><rect fill="#e69f36" x="0" y="0" width="102.67" height="102.67"/><circle fill="#3c7aa5" cx="30.80" cy="25.67" r="20.53"/><circle fill="#2c3f51" cx="61.60" cy="46.20" r="30.80"/><circle fill="#aaa2b7" cx="35.93" cy="71.87" r="25.67"/><circle fill="#f1ecf2" cx="71.87" cy="71.87" r="20.53"/><circle fill="#825e46" cx="61.60" cy="51.33" r="12.83"/></g><g transform="translate(215.33 53)"><rect fill="#3c7aa5" x="0" y="0" width="102.67" height="102.67"/><circle fill="#2c3f51" cx="30.80" cy="25.67" r="20.53"/><circle fill="#aaa2b7" cx="61.60" cy="46.20" r="30.80"/><circle fill="#f1ecf2" cx="35.93" cy="71.87" r="25.67"/><circle fill="#825e46" cx="71.87" cy="71.87" r="20.53"/><circle fill="#e69f36" cx="61.60" cy="51.33" r="12.83"/></g><g transform="translate(0 160.67)"><rect fill="#2c3f51" x="0" y="0" width="102.67" height="102.67"/><circle fill="#aaa2b7" cx="30.80" cy="25.67" r="20.53"/><circle fill="#f1ecf2" cx="61.60" cy="46.20" r="30.80"/><circle fill="#825e46" cx="35.93" cy="71.87" r="25.67"/><circle fill="#e69f36" cx="71.87" cy="71.87" r="20.53"/><circle fill="#3c7aa5" cx="61.60" cy="51.33" r="12.83"/></g><g transform="translate(107.67 160.67)"><rect fill="#aaa2b7" x="0" y="0" width="102.67" height="102.67"/><circle fill="#f1ecf2" cx="30.80" cy="25.67" r="20.53"/><circle fill="#825e46" cx="61.60" cy="46.20" r="30.80"/><circle fill="#e69f36" cx="35.93" cy="71.87" r="25.67"/><circle fill="#3c7aa5" cx="71.87" cy="71.87" r="20.53"/><circle fill="#2c3f51" cx="61.60" cy="51.33" r="12.83"/></g><g transform="translate(215.33 160.67)"><rect fill="#f1ecf2" x="0" y="0" width="102.67" height="102.67"/><circle fill="#825e46" cx="30.80" cy="25.67" r="20.53"/><circle fill="#e69f36" cx="61.60" cy="46.20" r="30.80"/><circle fill="#3c7aa5" cx="35.93" cy="71.87" r="25.67"/><circle fill="#2c3f51" cx="71.87" cy="71.87" r="20.53"/><circle fill="#aaa2b7" cx="61.60" cy="51.33" r="12.83"/></g></svg>