<svg version="1.1" xmlns="http://www.w3.org/2000/svg" xmlns:xlink="http://www.w3.org/1999/xlink" width="318" height="263.33"><g transform="translate(24 24)"><circle fill="#3b3b27" cx="0" cy="0" r="24"/><circle fill="#737674" cx="53" cy="0" r="24"/><circle fill="#aaaeba" cx="106" cy="0" r="24"/><circle fill="#d1b860" cx="159" cy="0" r="24"/><circle fill="#cea820" cx="212" cy="0" r="24"/><circle fill="#7e792c" cx="265" cy="0" r="24"/></g><g transform="translate(0 53)"><rect fill="#3b3b27" x="0" y="0" width="102.67" height="102.67"/><circle fill="#737674" cx="30.80" cy="25.67" r="20.53"/><circle fill="#aaaeba" cx="61.60" cy="46.20" r="30.80"/><circle fill="#d1b860" cx="35.93" cy="71.87" r="25.67"/><circle fill="#cea820" cx="71.87" cy="71.87" r="20.53"/><circle fill="#7e792c" cx="61.60" cy="51.33" r="12.83"/></g><g transform="translate(107.67 53)"><rect fill="#737674" x="0" y="0" width="102.67" height="102.67"/><circle fill="#aaaeba" cx="30.80" cy="25.67" r="20.53"/><circle fill="#d1b860" cx="61.60" cy="46.20" r="30.80"/><circle fill="#cea820" cx="35.93" cy="71.87" r="25.67"/><circle fill="#7e792c" cx="71.87" cy="71.87" r="20.53"/><circle fill="#3b3b27" cx="61.60" cy="51.33" r="12.83"/></g><g transform="translate(215.33 53)"><rect fill="#aaaeba" x="0" y="0" width="102.67" height="102.67"/><circle fill="#d1b860" cx="30.80" cy="25.67" r="20.53"/><circle fill="#cea820" cx="61.60" cy="46.20" r="30.80"/><circle fill="#7e792c" cx="35.93" cy="71.87" r="25.67"/><circle fill="#3b3b27" cx="71.87" cy="71.87" r="20.53"/><circle fill="#737674" cx="61.60" cy="51.33" r="12.83"/></g><g transform="translate(0 160.67)"><rect fill="#d1b860" x="0" y="0" width="102.67" height="102.67"/><circle fill="#cea820" cx="30.80" cy="25.67" r="20.53"/><circle fill="#7e792c" cx="61.60" cy="46.20" r="30.80"/><circle fill="#3b3b27" cx="35.93" cy="71.87" r="25.67"/><circle fill="#737674" cx="71.87" cy="71.87" r="20.53"/><circle fill="#aaaeba" cx="61.60" cy="51.33" r="12.83"/></g><g transform="translate(107.67 160.67)"><rect fill="#cea820" x="0" y="0" width="102.67" height="102.67"/><circle fill="#7e792c" cx="30.80" cy="25.67" r="20.53"/><circle fill="#3b3b27" cx="61.60" cy="46.20" r="30.80"/><circle fill="#737674" cx="35.93" cy="71.87" r="25.67"/><circle fill="#aaaeba" cx="71.87" cy="71.87" r="20.53"/><circle fill="#d1b860" cx="61.60" cy="51.33" r="12.83"/></g><g transform="translate(215.33 160.67)"><rect fill="#7e792c" x="0" y="0" width="102.67" height="102.67"/><circle fill="#3b3b27" cx="30.80" cy="25.67" r="20.53"/><circle fill="#737674" cx="61.60" cy="46.20" r="30.80"/><circle fill="#aaaeba" cx="35.93" cy="71.87" r="25.67"/><circle fill="#d1b860" cx="71.87" cy="71.87" r="20.53"/><circle fill="#cea820" cx="61.60" cy="51.33" r="12.83"/></g></svg>