<svg version="1.1" xmlns="http://www.w3.org/2000/svg" xmlns:xlink="http://www.w3.org/1999/xlink" width="318" height="263.33"><g transform="translate(24 24)"><circle fill="#091b0f" cx="0" cy="0" r="24"/><circle fill="#1d4219" cx="53" cy="0" r="24"/><circle fill="#4a5c1e" cx="106" cy="0" r="24"/><circle fill="#6cb7cf" cx="159" cy="0" r="24"/><circle fill="#a6dae0" cx="212" cy="0" r="24"/><circle fill="#e8bc7f" cx="265" cy="0" r="24"/></g><g transform="translate(0 53)"><rect fill="#091b0f" x="0" y="0" width="102.67" height="102.67"/><circle fill="#1d4219" cx="30.80" cy="25.67" r="20.53"/><circle fill="#4a5c1e" cx="61.60" cy="46.20" r="30.80"/><circle fill="#6cb7cf" cx="35.93" cy="71.87" r="25.67"/><circle fill="#a6dae0" cx="71.87" cy="71.87" r="20.53"/><circle fill="#e8bc7f" cx="61.60" cy="51.33" r="12.83"/></g><g transform="translate(107.67 53)"><rect fill="#1d4219" x="0" y="0" width="102.67" height="102.67"/><circle fill="#4a5c1e" cx="30.80" cy="25.67" r="20.53"/><circle fill="#6cb7cf" cx="61.60" cy="46.20" r="30.80"/><circle fill="#a6dae0" cx="35.93" cy="71.87" r="25.67"/><circle fill="#e8bc7f" cx="71.87" cy="71.87" r="20.53"/><circle fill="#091b0f" cx="61.60" cy="51.33" r="12.83"/></g><g transform="translate(215.33 53)"><rect fill="#4a5c1e" x="0" y="0" width="102.67" height="102.67"/><circle fill="#6cb7cf" cx="30.80" cy="25.67" r="20.53"/><circle fill="#a6dae0" cx="61.60" cy="46.20" r="30.80"/><circle fill="#e8bc7f" cx="35.93" cy="71.87" r="25.67"/><circle fill="#091b0f" cx="71.87" cy="71.87" r="20.53"/><circle fill="#1d4219" cx="61.60" cy="51.33" r="12.83"/></g><g transform="translate(0 160.67)"><rect fill="#6cb7cf" x="0" y="0" width="102.67" height="102.67"/><circle fill="#a6dae0" cx="30.80" cy="25.67" r="20.53"/><circle fill="#e8bc7f" cx="61.60" cy="46.20" r="30.80"/><circle fill="#091b0f" cx="35.93" cy="71.87" r="25.67"/><circle fill="#1d4219" cx="71.87" cy="71.87" r="20.53"/><circle fill="#4a5c1e" cx="61.60" cy="51.33" r="12.83"/></g><g transform="translate(107.67 160.67)"><rect fill="#a6dae0" x="0" y="0" width="102.67" height="102.67"/><circle fill="#e8bc7f" cx="30.80" cy="25.67" r="20.53"/><circle fill="#091b0f" cx="61.60" cy="46.20" r="30.80"/><circle fill="#1d4219" cx="35.93" cy="71.87" r="25.67"/><circle fill="#4a5c1e" cx="71.87" cy="71.87" r="20.53"/><circle fill="#6cb7cf" cx="61.60" cy="51.33" r="12.83"/></g><g transform="translate(215.33 160.67)"><rect fill="#e8bc7f" x="0" y="0" width="102.67" height="102.67"/><circle fill="#091b0f" cx="30.80" cy="25.67" r="20.53"/><circle fill="#1d4219" cx="61.60" cy="46.20" r="30.80"/><circle fill="#4a5c1e" cx="35.93" cy="71.87" r="25.67"/><circle fill="#6cb7cf" cx="71.87" cy="71.87" r="20.53"/><circle fill="#a6dae0" cx="61.60" cy="51.33" r="12.83"/></g></svg>