<svg version="1.1" xmlns="http://www.w3.org/2000/svg" xmlns:xlink="http://www.w3.org/1999/xlink" width="318" height="263.33"><g transform="translate(24 24)"><circle fill="#f29269" cx="0" cy="0" r="24"/><circle fill="#e8c1ac" cx="53" cy="0" r="24"/><circle fill="#856412" cx="106" cy="0" r="24"/><circle fill="#3e2e0c" cx="159" cy="0" r="24"/><circle fill="#436779" cx="212" cy="0" r="24"/><circle fill="#acc9e6" cx="265" cy="0" r="24"/></g><g transform="translate(0 53)"><rect fill="#f29269" x="0" y="0" width="102.67" height="102.67"/><circle fill="#e8c1ac" cx="30.80" cy="25.67" r="20.53"/><circle fill="#856412" cx="61.60" cy="46.20" r="30.80"/><circle fill="#3e2e0c" cx="35.93" cy="71.87" r="25.67"/><circle fill="#436779" cx="71.87" cy="71.87" r="20.53"/><circle fill="#acc9e6" cx="61.60" cy="51.33" r="12.83"/></g><g transform="translate(107.67 53)"><rect fill="#e8c1ac" x="0" y="0" width="102.67" height="102.67"/><circle fill="#856412" cx="30.80" cy="25.67" r="20.53"/><circle fill="#3e2e0c" cx="61.60" cy="46.20" r="30.80"/><circle fill="#436779" cx="35.93" cy="71.87" r="25.67"/><circle fill="#acc9e6" cx="71.87" cy="71.87" r="20.53"/><circle fill="#f29269" cx="61.60" cy="51.33" r="12.83"/></g><g transform="translate(215.33 53)"><rect fill="#856412" x="0" y="0" width="102.67" height="102.67"/><circle fill="#3e2e0c" cx="30.80" cy="25.67" r="20.53"/><circle fill="#436779" cx="61.60" cy="46.20" r="30.80"/><circle fill="#acc9e6" cx="35.93" cy="71.87" r="25.67"/><circle fill="#f29269" cx="71.87" cy="71.87" r="20.53"/><circle fill="#e8c1ac" cx="61.60" cy="51.33" r="12.83"/></g><g transform="translate(0 160.67)"><rect fill="#3e2e0c" x="0" y="0" width="102.67" height="102.67"/><circle fill="#436779" cx="30.80" cy="25.67" r="20.53"/><circle fill="#acc9e6" cx="61.60" cy="46.20" r="30.80"/><circle fill="#f29269" cx="35.93" cy="71.87" r="25.67"/><circle fill="#e8c1ac" cx="71.87" cy="71.87" r="20.53"/><circle fill="#856412" cx="61.60" cy="51.33" r="12.83"/></g><g transform="translate(107.67 160.67)"><rect fill="#436779" x="0" y="0" width="102.67" height="102.67"/><circle fill="#acc9e6" cx="30.80" cy="25.67" r="20.53"/><circle fill="#f29269" cx="61.60" cy="46.20" r="30.80"/><circle fill="#e8c1ac" cx="35.93" cy="71.87" r="25.67"/><circle fill="#856412" cx="71.87" cy="71.87" r="20.53"/><circle fill="#3e2e0c" cx="61.60" cy="51.33" r="12.83"/></g><g transform="translate(215.33 160.67)"><rect fill="#acc9e6" x="0" y="0" width="102.67" height="102.67"/><circle fill="#f29269" cx="30.80" cy="25.67" r="20.53"/><circle fill="#e8c1ac" cx="61.60" cy="46.20" r="30.80"/><circle fill="#856412" cx="35.93" cy="71.87" r="25.67"/><circle fill="#3e2e0c" cx="71.87" cy="71.87" r="20.53"/><circle fill="#436779" cx="61.60" cy="51.33" r="12.83"/></g></svg>