<svg version="1.1" xmlns="http://www.w3.org/2000/svg" xmlns:xlink="http://www.w3.org/1999/xlink" width="318" height="263.33"><g transform="translate(24 24)"><circle fill="#161212" cx="0" cy="0" r="24"/><circle fill="#03515f" cx="53" cy="0" r="24"/><circle fill="#884027" cx="106" cy="0" r="24"/><circle fill="#d87945" cx="159" cy="0" r="24"/><circle fill="#ad9d92" cx="212" cy="0" r="24"/><circle fill="#d1d2d2" cx="265" cy="0" r="24"/></g><g transform="translate(0 53)"><rect fill="#161212" x="0" y="0" width="102.67" height="102.67"/><circle fill="#03515f" cx="30.80" cy="25.67" r="20.53"/><circle fill="#884027" cx="61.60" cy="46.20" r="30.80"/><circle fill="#d87945" cx="35.93" cy="71.87" r="25.67"/><circle fill="#ad9d92" cx="71.87" cy="71.87" r="20.53"/><circle fill="#d1d2d2" cx="61.60" cy="51.33" r="12.83"/></g><g transform="translate(107.67 53)"><rect fill="#03515f" x="0" y="0" width="102.67" height="102.67"/><circle fill="#884027" cx="30.80" cy="25.67" r="20.53"/><circle fill="#d87945" cx="61.60" cy="46.20" r="30.80"/><circle fill="#ad9d92" cx="35.93" cy="71.87" r="25.67"/><circle fill="#d1d2d2" cx="71.87" cy="71.87" r="20.53"/><circle fill="#161212" cx="61.60" cy="51.33" r="12.83"/></g><g transform="translate(215.33 53)"><rect fill="#884027" x="0" y="0" width="102.67" height="102.67"/><circle fill="#d87945" cx="30.80" cy="25.67" r="20.53"/><circle fill="#ad9d92" cx="61.60" cy="46.20" r="30.80"/><circle fill="#d1d2d2" cx="35.93" cy="71.87" r="25.67"/><circle fill="#161212" cx="71.87" cy="71.87" r="20.53"/><circle fill="#03515f" cx="61.60" cy="51.33" r="12.83"/></g><g transform="translate(0 160.67)"><rect fill="#d87945" x="0" y="0" width="102.67" height="102.67"/><circle fill="#ad9d92" cx="30.80" cy="25.67" r="20.53"/><circle fill="#d1d2d2" cx="61.60" cy="46.20" r="30.80"/><circle fill="#161212" cx="35.93" cy="71.87" r="25.67"/><circle fill="#03515f" cx="71.87" cy="71.87" r="20.53"/><circle fill="#884027" cx="61.60" cy="51.33" r="12.83"/></g><g transform="translate(107.67 160.67)"><rect fill="#ad9d92" x="0" y="0" width="102.67" height="102.67"/><circle fill="#d1d2d2" cx="30.80" cy="25.67" r="20.53"/><circle fill="#161212" cx="61.60" cy="46.20" r="30.80"/><circle fill="#03515f" cx="35.93" cy="71.87" r="25.67"/><circle fill="#884027" cx="71.87" cy="71.87" r="20.53"/><circle fill="#d87945" cx="61.60" cy="51.33" r="12.83"/></g><g transform="translate(215.33 160.67)"><rect fill="#d1d2d2" x="0" y="0" width="102.67" height="102.67"/><circle fill="#161212" cx="30.80" cy="25.67" r="20.53"/><circle fill="#03515f" cx="61.60" cy="46.20" r="30.80"/><circle fill="#884027" cx="35.93" cy="71.87" r="25.67"/><circle fill="#d87945" cx="71.87" cy="71.87" r="20.53"/><circle fill="#ad9d92" cx="61.60" cy="51.33" r="12.83"/></g></svg>