<svg version="1.1" xmlns="http://www.w3.org/2000/svg" xmlns:xlink="http://www.w3.org/1999/xlink" width="318" height="263.33"><g transform="translate(24 24)"><circle fill="#551818" cx="0" cy="0" r="24"/><circle fill="#9b2c1b" cx="53" cy="0" r="24"/><circle fill="#e15847" cx="106" cy="0" r="24"/><circle fill="#efa995" cx="159" cy="0" r="24"/><circle fill="#c8bcb5" cx="212" cy="0" r="24"/><circle fill="#f0e9e3" cx="265" cy="0" r="24"/></g><g transform="translate(0 53)"><rect fill="#551818" x="0" y="0" width="102.67" height="102.67"/><circle fill="#9b2c1b" cx="30.80" cy="25.67" r="20.53"/><circle fill="#e15847" cx="61.60" cy="46.20" r="30.80"/><circle fill="#efa995" cx="35.93" cy="71.87" r="25.67"/><circle fill="#c8bcb5" cx="71.87" cy="71.87" r="20.53"/><circle fill="#f0e9e3" cx="61.60" cy="51.33" r="12.83"/></g><g transform="translate(107.67 53)"><rect fill="#9b2c1b" x="0" y="0" width="102.67" height="102.67"/><circle fill="#e15847" cx="30.80" cy="25.67" r="20.53"/><circle fill="#efa995" cx="61.60" cy="46.20" r="30.80"/><circle fill="#c8bcb5" cx="35.93" cy="71.87" r="25.67"/><circle fill="#f0e9e3" cx="71.87" cy="71.87" r="20.53"/><circle fill="#551818" cx="61.60" cy="51.33" r="12.83"/></g><g transform="translate(215.33 53)"><rect fill="#e15847" x="0" y="0" width="102.67" height="102.67"/><circle fill="#efa995" cx="30.80" cy="25.67" r="20.53"/><circle fill="#c8bcb5" cx="61.60" cy="46.20" r="30.80"/><circle fill="#f0e9e3" cx="35.93" cy="71.87" r="25.67"/><circle fill="#551818" cx="71.87" cy="71.87" r="20.53"/><circle fill="#9b2c1b" cx="61.60" cy="51.33" r="12.83"/></g><g transform="translate(0 160.67)"><rect fill="#efa995" x="0" y="0" width="102.67" height="102.67"/><circle fill="#c8bcb5" cx="30.80" cy="25.67" r="20.53"/><circle fill="#f0e9e3" cx="61.60" cy="46.20" r="30.80"/><circle fill="#551818" cx="35.93" cy="71.87" r="25.67"/><circle fill="#9b2c1b" cx="71.87" cy="71.87" r="20.53"/><circle fill="#e15847" cx="61.60" cy="51.33" r="12.83"/></g><g transform="translate(107.67 160.67)"><rect fill="#c8bcb5" x="0" y="0" width="102.67" height="102.67"/><circle fill="#f0e9e3" cx="30.80" cy="25.67" r="20.53"/><circle fill="#551818" cx="61.60" cy="46.20" r="30.80"/><circle fill="#9b2c1b" cx="35.93" cy="71.87" r="25.67"/><circle fill="#e15847" cx="71.87" cy="71.87" r="20.53"/><circle fill="#efa995" cx="61.60" cy="51.33" r="12.83"/></g><g transform="translate(215.33 160.67)"><rect fill="#f0e9e3" x="0" y="0" width="102.67" height="102.67"/><circle fill="#551818" cx="30.80" cy="25.67" r="20.53"/><circle fill="#9b2c1b" cx="61.60" cy="46.20" r="30.80"/><circle fill="#e15847" cx="35.93" cy="71.87" r="25.67"/><circle fill="#efa995" cx="71.87" cy="71.87" r="20.53"/><circle fill="#c8bcb5" cx="61.60" cy="51.33" r="12.83"/></g></svg>