<svg version="1.1" xmlns="http://www.w3.org/2000/svg" xmlns:xlink="http://www.w3.org/1999/xlink" width="318" height="263.33"><g transform="translate(24 24)"><circle fill="#322b30" cx="0" cy="0" r="24"/><circle fill="#ef2e20" cx="53" cy="0" r="24"/><circle fill="#bcd6c6" cx="106" cy="0" r="24"/><circle fill="#7dadaf" cx="159" cy="0" r="24"/><circle fill="#59878b" cx="212" cy="0" r="24"/><circle fill="#0b7d90" cx="265" cy="0" r="24"/></g><g transform="translate(0 53)"><rect fill="#322b30" x="0" y="0" width="102.67" height="102.67"/><circle fill="#ef2e20" cx="30.80" cy="25.67" r="20.53"/><circle fill="#bcd6c6" cx="61.60" cy="46.20" r="30.80"/><circle fill="#7dadaf" cx="35.93" cy="71.87" r="25.67"/><circle fill="#59878b" cx="71.87" cy="71.87" r="20.53"/><circle fill="#0b7d90" cx="61.60" cy="51.33" r="12.83"/></g><g transform="translate(107.67 53)"><rect fill="#ef2e20" x="0" y="0" width="102.67" height="102.67"/><circle fill="#bcd6c6" cx="30.80" cy="25.67" r="20.53"/><circle fill="#7dadaf" cx="61.60" cy="46.20" r="30.80"/><circle fill="#59878b" cx="35.93" cy="71.87" r="25.67"/><circle fill="#0b7d90" cx="71.87" cy="71.87" r="20.53"/><circle fill="#322b30" cx="61.60" cy="51.33" r="12.83"/></g><g transform="translate(215.33 53)"><rect fill="#bcd6c6" x="0" y="0" width="102.67" height="102.67"/><circle fill="#7dadaf" cx="30.80" cy="25.67" r="20.53"/><circle fill="#59878b" cx="61.60" cy="46.20" r="30.80"/><circle fill="#0b7d90" cx="35.93" cy="71.87" r="25.67"/><circle fill="#322b30" cx="71.87" cy="71.87" r="20.53"/><circle fill="#ef2e20" cx="61.60" cy="51.33" r="12.83"/></g><g transform="translate(0 160.67)"><rect fill="#7dadaf" x="0" y="0" width="102.67" height="102.67"/><circle fill="#59878b" cx="30.80" cy="25.67" r="20.53"/><circle fill="#0b7d90" cx="61.60" cy="46.20" r="30.80"/><circle fill="#322b30" cx="35.93" cy="71.87" r="25.67"/><circle fill="#ef2e20" cx="71.87" cy="71.87" r="20.53"/><circle fill="#bcd6c6" cx="61.60" cy="51.33" r="12.83"/></g><g transform="translate(107.67 160.67)"><rect fill="#59878b" x="0" y="0" width="102.67" height="102.67"/><circle fill="#0b7d90" cx="30.80" cy="25.67" r="20.53"/><circle fill="#322b30" cx="61.60" cy="46.20" r="30.80"/><circle fill="#ef2e20" cx="35.93" cy="71.87" r="25.67"/><circle fill="#bcd6c6" cx="71.87" cy="71.87" r="20.53"/><circle fill="#7dadaf" cx="61.60" cy="51.33" r="12.83"/></g><g transform="translate(215.33 160.67)"><rect fill="#0b7d90" x="0" y="0" width="102.67" height="102.67"/><circle fill="#322b30" cx="30.80" cy="25.67" r="20.53"/><circle fill="#ef2e20" cx="61.60" cy="46.20" r="30.80"/><circle fill="#bcd6c6" cx="35.93" cy="71.87" r="25.67"/><circle fill="#7dadaf" cx="71.87" cy="71.87" r="20.53"/><circle fill="#59878b" cx="61.60" cy="51.33" r="12.83"/></g></svg>