<svg version="1.1" xmlns="http://www.w3.org/2000/svg" xmlns:xlink="http://www.w3.org/1999/xlink" width="318" height="263.33"><g transform="translate(24 24)"><circle fill="#34240b" cx="0" cy="0" r="24"/><circle fill="#7c7e77" cx="53" cy="0" r="24"/><circle fill="#cf8f17" cx="106" cy="0" r="24"/><circle fill="#b2daed" cx="159" cy="0" r="24"/><circle fill="#2ca6d6" cx="212" cy="0" r="24"/><circle fill="#0c4f6a" cx="265" cy="0" r="24"/></g><g transform="translate(0 53)"><rect fill="#34240b" x="0" y="0" width="102.67" height="102.67"/><circle fill="#7c7e77" cx="30.80" cy="25.67" r="20.53"/><circle fill="#cf8f17" cx="61.60" cy="46.20" r="30.80"/><circle fill="#b2daed" cx="35.93" cy="71.87" r="25.67"/><circle fill="#2ca6d6" cx="71.87" cy="71.87" r="20.53"/><circle fill="#0c4f6a" cx="61.60" cy="51.33" r="12.83"/></g><g transform="translate(107.67 53)"><rect fill="#7c7e77" x="0" y="0" width="102.67" height="102.67"/><circle fill="#cf8f17" cx="30.80" cy="25.67" r="20.53"/><circle fill="#b2daed" cx="61.60" cy="46.20" r="30.80"/><circle fill="#2ca6d6" cx="35.93" cy="71.87" r="25.67"/><circle fill="#0c4f6a" cx="71.87" cy="71.87" r="20.53"/><circle fill="#34240b" cx="61.60" cy="51.33" r="12.83"/></g><g transform="translate(215.33 53)"><rect fill="#cf8f17" x="0" y="0" width="102.67" height="102.67"/><circle fill="#b2daed" cx="30.80" cy="25.67" r="20.53"/><circle fill="#2ca6d6" cx="61.60" cy="46.20" r="30.80"/><circle fill="#0c4f6a" cx="35.93" cy="71.87" r="25.67"/><circle fill="#34240b" cx="71.87" cy="71.87" r="20.53"/><circle fill="#7c7e77" cx="61.60" cy="51.33" r="12.83"/></g><g transform="translate(0 160.67)"><rect fill="#b2daed" x="0" y="0" width="102.67" height="102.67"/><circle fill="#2ca6d6" cx="30.80" cy="25.67" r="20.53"/><circle fill="#0c4f6a" cx="61.60" cy="46.20" r="30.80"/><circle fill="#34240b" cx="35.93" cy="71.87" r="25.67"/><circle fill="#7c7e77" cx="71.87" cy="71.87" r="20.53"/><circle fill="#cf8f17" cx="61.60" cy="51.33" r="12.83"/></g><g transform="translate(107.67 160.67)"><rect fill="#2ca6d6" x="0" y="0" width="102.67" height="102.67"/><circle fill="#0c4f6a" cx="30.80" cy="25.67" r="20.53"/><circle fill="#34240b" cx="61.60" cy="46.20" r="30.80"/><circle fill="#7c7e77" cx="35.93" cy="71.87" r="25.67"/><circle fill="#cf8f17" cx="71.87" cy="71.87" r="20.53"/><circle fill="#b2daed" cx="61.60" cy="51.33" r="12.83"/></g><g transform="translate(215.33 160.67)"><rect fill="#0c4f6a" x="0" y="0" width="102.67" height="102.67"/><circle fill="#34240b" cx="30.80" cy="25.67" r="20.53"/><circle fill="#7c7e77" cx="61.60" cy="46.20" r="30.80"/><circle fill="#cf8f17" cx="35.93" cy="71.87" r="25.67"/><circle fill="#b2daed" cx="71.87" cy="71.87" r="20.53"/><circle fill="#2ca6d6" cx="61.60" cy="51.33" r="12.83"/></g></svg>