<svg version="1.1" xmlns="http://www.w3.org/2000/svg" xmlns:xlink="http://www.w3.org/1999/xlink" width="318" height="263.33"><g transform="translate(24 24)"><circle fill="#001580" cx="0" cy="0" r="24"/><circle fill="#00779a" cx="53" cy="0" r="24"/><circle fill="#00afbf" cx="106" cy="0" r="24"/><circle fill="#f07167" cx="159" cy="0" r="24"/><circle fill="#fed9b7" cx="212" cy="0" r="24"/><circle fill="#fdfcdc" cx="265" cy="0" r="24"/></g><g transform="translate(0 53)"><rect fill="#001580" x="0" y="0" width="102.67" height="102.67"/><circle fill="#00779a" cx="30.80" cy="25.67" r="20.53"/><circle fill="#00afbf" cx="61.60" cy="46.20" r="30.80"/><circle fill="#f07167" cx="35.93" cy="71.87" r="25.67"/><circle fill="#fed9b7" cx="71.87" cy="71.87" r="20.53"/><circle fill="#fdfcdc" cx="61.60" cy="51.33" r="12.83"/></g><g transform="translate(107.67 53)"><rect fill="#00779a" x="0" y="0" width="102.67" height="102.67"/><circle fill="#00afbf" cx="30.80" cy="25.67" r="20.53"/><circle fill="#f07167" cx="61.60" cy="46.20" r="30.80"/><circle fill="#fed9b7" cx="35.93" cy="71.87" r="25.67"/><circle fill="#fdfcdc" cx="71.87" cy="71.87" r="20.53"/><circle fill="#001580" cx="61.60" cy="51.33" r="12.83"/></g><g transform="translate(215.33 53)"><rect fill="#00afbf" x="0" y="0" width="102.67" height="102.67"/><circle fill="#f07167" cx="30.80" cy="25.67" r="20.53"/><circle fill="#fed9b7" cx="61.60" cy="46.20" r="30.80"/><circle fill="#fdfcdc" cx="35.93" cy="71.87" r="25.67"/><circle fill="#001580" cx="71.87" cy="71.87" r="20.53"/><circle fill="#00779a" cx="61.60" cy="51.33" r="12.83"/></g><g transform="translate(0 160.67)"><rect fill="#f07167" x="0" y="0" width="102.67" height="102.67"/><circle fill="#fed9b7" cx="30.80" cy="25.67" r="20.53"/><circle fill="#fdfcdc" cx="61.60" cy="46.20" r="30.80"/><circle fill="#001580" cx="35.93" cy="71.87" r="25.67"/><circle fill="#00779a" cx="71.87" cy="71.87" r="20.53"/><circle fill="#00afbf" cx="61.60" cy="51.33" r="12.83"/></g><g transform="translate(107.67 160.67)"><rect fill="#fed9b7" x="0" y="0" width="102.67" height="102.67"/><circle fill="#fdfcdc" cx="30.80" cy="25.67" r="20.53"/><circle fill="#001580" cx="61.60" cy="46.20" r="30.80"/><circle fill="#00779a" cx="35.93" cy="71.87" r="25.67"/><circle fill="#00afbf" cx="71.87" cy="71.87" r="20.53"/><circle fill="#f07167" cx="61.60" cy="51.33" r="12.83"/></g><g transform="translate(215.33 160.67)"><rect fill="#fdfcdc" x="0" y="0" width="102.67" height="102.67"/><circle fill="#001580" cx="30.80" cy="25.67" r="20.53"/><circle fill="#00779a" cx="61.60" cy="46.20" r="30.80"/><circle fill="#00afbf" cx="35.93" cy="71.87" r="25.67"/><circle fill="#f07167" cx="71.87" cy="71.87" r="20.53"/><circle fill="#fed9b7" cx="61.60" cy="51.33" r="12.83"/></g></svg>