<svg version="1.1" xmlns="http://www.w3.org/2000/svg" xmlns:xlink="http://www.w3.org/1999/xlink" width="318" height="263.33"><g transform="translate(24 24)"><circle fill="#401447" cx="0" cy="0" r="24"/><circle fill="#077085" cx="53" cy="0" r="24"/><circle fill="#1fe1bb" cx="106" cy="0" r="24"/><circle fill="#adfc3a" cx="159" cy="0" r="24"/><circle fill="#c9ffbc" cx="212" cy="0" r="24"/><circle fill="#f2ffec" cx="265" cy="0" r="24"/></g><g transform="translate(0 53)"><rect fill="#401447" x="0" y="0" width="102.67" height="102.67"/><circle fill="#077085" cx="30.80" cy="25.67" r="20.53"/><circle fill="#1fe1bb" cx="61.60" cy="46.20" r="30.80"/><circle fill="#adfc3a" cx="35.93" cy="71.87" r="25.67"/><circle fill="#c9ffbc" cx="71.87" cy="71.87" r="20.53"/><circle fill="#f2ffec" cx="61.60" cy="51.33" r="12.83"/></g><g transform="translate(107.67 53)"><rect fill="#077085" x="0" y="0" width="102.67" height="102.67"/><circle fill="#1fe1bb" cx="30.80" cy="25.67" r="20.53"/><circle fill="#adfc3a" cx="61.60" cy="46.20" r="30.80"/><circle fill="#c9ffbc" cx="35.93" cy="71.87" r="25.67"/><circle fill="#f2ffec" cx="71.87" cy="71.87" r="20.53"/><circle fill="#401447" cx="61.60" cy="51.33" r="12.83"/></g><g transform="translate(215.33 53)"><rect fill="#1fe1bb" x="0" y="0" width="102.67" height="102.67"/><circle fill="#adfc3a" cx="30.80" cy="25.67" r="20.53"/><circle fill="#c9ffbc" cx="61.60" cy="46.20" r="30.80"/><circle fill="#f2ffec" cx="35.93" cy="71.87" r="25.67"/><circle fill="#401447" cx="71.87" cy="71.87" r="20.53"/><circle fill="#077085" cx="61.60" cy="51.33" r="12.83"/></g><g transform="translate(0 160.67)"><rect fill="#adfc3a" x="0" y="0" width="102.67" height="102.67"/><circle fill="#c9ffbc" cx="30.80" cy="25.67" r="20.53"/><circle fill="#f2ffec" cx="61.60" cy="46.20" r="30.80"/><circle fill="#401447" cx="35.93" cy="71.87" r="25.67"/><circle fill="#077085" cx="71.87" cy="71.87" r="20.53"/><circle fill="#1fe1bb" cx="61.60" cy="51.33" r="12.83"/></g><g transform="translate(107.67 160.67)"><rect fill="#c9ffbc" x="0" y="0" width="102.67" height="102.67"/><circle fill="#f2ffec" cx="30.80" cy="25.67" r="20.53"/><circle fill="#401447" cx="61.60" cy="46.20" r="30.80"/><circle fill="#077085" cx="35.93" cy="71.87" r="25.67"/><circle fill="#1fe1bb" cx="71.87" cy="71.87" r="20.53"/><circle fill="#adfc3a" cx="61.60" cy="51.33" r="12.83"/></g><g transform="translate(215.33 160.67)"><rect fill="#f2ffec" x="0" y="0" width="102.67" height="102.67"/><circle fill="#401447" cx="30.80" cy="25.67" r="20.53"/><circle fill="#077085" cx="61.60" cy="46.20" r="30.80"/><circle fill="#1fe1bb" cx="35.93" cy="71.87" r="25.67"/><circle fill="#adfc3a" cx="71.87" cy="71.87" r="20.53"/><circle fill="#c9ffbc" cx="61.60" cy="51.33" r="12.83"/></g></svg>