<svg version="1.1" xmlns="http://www.w3.org/2000/svg" xmlns:xlink="http://www.w3.org/1999/xlink" width="318" height="263.33"><g transform="translate(24 24)"><circle fill="#010d00" cx="0" cy="0" r="24"/><circle fill="#400d01" cx="53" cy="0" r="24"/><circle fill="#595859" cx="106" cy="0" r="24"/><circle fill="#bfb4aa" cx="159" cy="0" r="24"/><circle fill="#f1c8d8" cx="212" cy="0" r="24"/><circle fill="#f2f2f2" cx="265" cy="0" r="24"/></g><g transform="translate(0 53)"><rect fill="#010d00" x="0" y="0" width="102.67" height="102.67"/><circle fill="#400d01" cx="30.80" cy="25.67" r="20.53"/><circle fill="#595859" cx="61.60" cy="46.20" r="30.80"/><circle fill="#bfb4aa" cx="35.93" cy="71.87" r="25.67"/><circle fill="#f1c8d8" cx="71.87" cy="71.87" r="20.53"/><circle fill="#f2f2f2" cx="61.60" cy="51.33" r="12.83"/></g><g transform="translate(107.67 53)"><rect fill="#400d01" x="0" y="0" width="102.67" height="102.67"/><circle fill="#595859" cx="30.80" cy="25.67" r="20.53"/><circle fill="#bfb4aa" cx="61.60" cy="46.20" r="30.80"/><circle fill="#f1c8d8" cx="35.93" cy="71.87" r="25.67"/><circle fill="#f2f2f2" cx="71.87" cy="71.87" r="20.53"/><circle fill="#010d00" cx="61.60" cy="51.33" r="12.83"/></g><g transform="translate(215.33 53)"><rect fill="#595859" x="0" y="0" width="102.67" height="102.67"/><circle fill="#bfb4aa" cx="30.80" cy="25.67" r="20.53"/><circle fill="#f1c8d8" cx="61.60" cy="46.20" r="30.80"/><circle fill="#f2f2f2" cx="35.93" cy="71.87" r="25.67"/><circle fill="#010d00" cx="71.87" cy="71.87" r="20.53"/><circle fill="#400d01" cx="61.60" cy="51.33" r="12.83"/></g><g transform="translate(0 160.67)"><rect fill="#bfb4aa" x="0" y="0" width="102.67" height="102.67"/><circle fill="#f1c8d8" cx="30.80" cy="25.67" r="20.53"/><circle fill="#f2f2f2" cx="61.60" cy="46.20" r="30.80"/><circle fill="#010d00" cx="35.93" cy="71.87" r="25.67"/><circle fill="#400d01" cx="71.87" cy="71.87" r="20.53"/><circle fill="#595859" cx="61.60" cy="51.33" r="12.83"/></g><g transform="translate(107.67 160.67)"><rect fill="#f1c8d8" x="0" y="0" width="102.67" height="102.67"/><circle fill="#f2f2f2" cx="30.80" cy="25.67" r="20.53"/><circle fill="#010d00" cx="61.60" cy="46.20" r="30.80"/><circle fill="#400d01" cx="35.93" cy="71.87" r="25.67"/><circle fill="#595859" cx="71.87" cy="71.87" r="20.53"/><circle fill="#bfb4aa" cx="61.60" cy="51.33" r="12.83"/></g><g transform="translate(215.33 160.67)"><rect fill="#f2f2f2" x="0" y="0" width="102.67" height="102.67"/><circle fill="#010d00" cx="30.80" cy="25.67" r="20.53"/><circle fill="#400d01" cx="61.60" cy="46.20" r="30.80"/><circle fill="#595859" cx="35.93" cy="71.87" r="25.67"/><circle fill="#bfb4aa" cx="71.87" cy="71.87" r="20.53"/><circle fill="#f1c8d8" cx="61.60" cy="51.33" r="12.83"/></g></svg>