<svg version="1.1" xmlns="http://www.w3.org/2000/svg" xmlns:xlink="http://www.w3.org/1999/xlink" width="318" height="263.33"><g transform="translate(24 24)"><circle fill="#463114" cx="0" cy="0" r="24"/><circle fill="#976e2e" cx="53" cy="0" r="24"/><circle fill="#bbab49" cx="106" cy="0" r="24"/><circle fill="#a7a99a" cx="159" cy="0" r="24"/><circle fill="#437c84" cx="212" cy="0" r="24"/><circle fill="#144f66" cx="265" cy="0" r="24"/></g><g transform="translate(0 53)"><rect fill="#463114" x="0" y="0" width="102.67" height="102.67"/><circle fill="#976e2e" cx="30.80" cy="25.67" r="20.53"/><circle fill="#bbab49" cx="61.60" cy="46.20" r="30.80"/><circle fill="#a7a99a" cx="35.93" cy="71.87" r="25.67"/><circle fill="#437c84" cx="71.87" cy="71.87" r="20.53"/><circle fill="#144f66" cx="61.60" cy="51.33" r="12.83"/></g><g transform="translate(107.67 53)"><rect fill="#976e2e" x="0" y="0" width="102.67" height="102.67"/><circle fill="#bbab49" cx="30.80" cy="25.67" r="20.53"/><circle fill="#a7a99a" cx="61.60" cy="46.20" r="30.80"/><circle fill="#437c84" cx="35.93" cy="71.87" r="25.67"/><circle fill="#144f66" cx="71.87" cy="71.87" r="20.53"/><circle fill="#463114" cx="61.60" cy="51.33" r="12.83"/></g><g transform="translate(215.33 53)"><rect fill="#bbab49" x="0" y="0" width="102.67" height="102.67"/><circle fill="#a7a99a" cx="30.80" cy="25.67" r="20.53"/><circle fill="#437c84" cx="61.60" cy="46.20" r="30.80"/><circle fill="#144f66" cx="35.93" cy="71.87" r="25.67"/><circle fill="#463114" cx="71.87" cy="71.87" r="20.53"/><circle fill="#976e2e" cx="61.60" cy="51.33" r="12.83"/></g><g transform="translate(0 160.67)"><rect fill="#a7a99a" x="0" y="0" width="102.67" height="102.67"/><circle fill="#437c84" cx="30.80" cy="25.67" r="20.53"/><circle fill="#144f66" cx="61.60" cy="46.20" r="30.80"/><circle fill="#463114" cx="35.93" cy="71.87" r="25.67"/><circle fill="#976e2e" cx="71.87" cy="71.87" r="20.53"/><circle fill="#bbab49" cx="61.60" cy="51.33" r="12.83"/></g><g transform="translate(107.67 160.67)"><rect fill="#437c84" x="0" y="0" width="102.67" height="102.67"/><circle fill="#144f66" cx="30.80" cy="25.67" r="20.53"/><circle fill="#463114" cx="61.60" cy="46.20" r="30.80"/><circle fill="#976e2e" cx="35.93" cy="71.87" r="25.67"/><circle fill="#bbab49" cx="71.87" cy="71.87" r="20.53"/><circle fill="#a7a99a" cx="61.60" cy="51.33" r="12.83"/></g><g transform="translate(215.33 160.67)"><rect fill="#144f66" x="0" y="0" width="102.67" height="102.67"/><circle fill="#463114" cx="30.80" cy="25.67" r="20.53"/><circle fill="#976e2e" cx="61.60" cy="46.20" r="30.80"/><circle fill="#bbab49" cx="35.93" cy="71.87" r="25.67"/><circle fill="#a7a99a" cx="71.87" cy="71.87" r="20.53"/><circle fill="#437c84" cx="61.60" cy="51.33" r="12.83"/></g></svg>