<svg version="1.1" xmlns="http://www.w3.org/2000/svg" xmlns:xlink="http://www.w3.org/1999/xlink" width="318" height="263.33"><g transform="translate(24 24)"><circle fill="#12355a" cx="0" cy="0" r="24"/><circle fill="#640ea8" cx="53" cy="0" r="24"/><circle fill="#a21dd0" cx="106" cy="0" r="24"/><circle fill="#0ba67e" cx="159" cy="0" r="24"/><circle fill="#81d0a3" cx="212" cy="0" r="24"/><circle fill="#d0e4d3" cx="265" cy="0" r="24"/></g><g transform="translate(0 53)"><rect fill="#12355a" x="0" y="0" width="102.67" height="102.67"/><circle fill="#640ea8" cx="30.80" cy="25.67" r="20.53"/><circle fill="#a21dd0" cx="61.60" cy="46.20" r="30.80"/><circle fill="#0ba67e" cx="35.93" cy="71.87" r="25.67"/><circle fill="#81d0a3" cx="71.87" cy="71.87" r="20.53"/><circle fill="#d0e4d3" cx="61.60" cy="51.33" r="12.83"/></g><g transform="translate(107.67 53)"><rect fill="#640ea8" x="0" y="0" width="102.67" height="102.67"/><circle fill="#a21dd0" cx="30.80" cy="25.67" r="20.53"/><circle fill="#0ba67e" cx="61.60" cy="46.20" r="30.80"/><circle fill="#81d0a3" cx="35.93" cy="71.87" r="25.67"/><circle fill="#d0e4d3" cx="71.87" cy="71.87" r="20.53"/><circle fill="#12355a" cx="61.60" cy="51.33" r="12.83"/></g><g transform="translate(215.33 53)"><rect fill="#a21dd0" x="0" y="0" width="102.67" height="102.67"/><circle fill="#0ba67e" cx="30.80" cy="25.67" r="20.53"/><circle fill="#81d0a3" cx="61.60" cy="46.20" r="30.80"/><circle fill="#d0e4d3" cx="35.93" cy="71.87" r="25.67"/><circle fill="#12355a" cx="71.87" cy="71.87" r="20.53"/><circle fill="#640ea8" cx="61.60" cy="51.33" r="12.83"/></g><g transform="translate(0 160.67)"><rect fill="#0ba67e" x="0" y="0" width="102.67" height="102.67"/><circle fill="#81d0a3" cx="30.80" cy="25.67" r="20.53"/><circle fill="#d0e4d3" cx="61.60" cy="46.20" r="30.80"/><circle fill="#12355a" cx="35.93" cy="71.87" r="25.67"/><circle fill="#640ea8" cx="71.87" cy="71.87" r="20.53"/><circle fill="#a21dd0" cx="61.60" cy="51.33" r="12.83"/></g><g transform="translate(107.67 160.67)"><rect fill="#81d0a3" x="0" y="0" width="102.67" height="102.67"/><circle fill="#d0e4d3" cx="30.80" cy="25.67" r="20.53"/><circle fill="#12355a" cx="61.60" cy="46.20" r="30.80"/><circle fill="#640ea8" cx="35.93" cy="71.87" r="25.67"/><circle fill="#a21dd0" cx="71.87" cy="71.87" r="20.53"/><circle fill="#0ba67e" cx="61.60" cy="51.33" r="12.83"/></g><g transform="translate(215.33 160.67)"><rect fill="#d0e4d3" x="0" y="0" width="102.67" height="102.67"/><circle fill="#12355a" cx="30.80" cy="25.67" r="20.53"/><circle fill="#640ea8" cx="61.60" cy="46.20" r="30.80"/><circle fill="#a21dd0" cx="35.93" cy="71.87" r="25.67"/><circle fill="#0ba67e" cx="71.87" cy="71.87" r="20.53"/><circle fill="#81d0a3" cx="61.60" cy="51.33" r="12.83"/></g></svg>