<svg version="1.1" xmlns="http://www.w3.org/2000/svg" xmlns:xlink="http://www.w3.org/1999/xlink" width="318" height="263.33"><g transform="translate(24 24)"><circle fill="#f2b93a" cx="0" cy="0" r="24"/><circle fill="#494f31" cx="53" cy="0" r="24"/><circle fill="#01596e" cx="106" cy="0" r="24"/><circle fill="#cfd4f4" cx="159" cy="0" r="24"/><circle fill="#ba78d4" cx="212" cy="0" r="24"/><circle fill="#d802b8" cx="265" cy="0" r="24"/></g><g transform="translate(0 53)"><rect fill="#f2b93a" x="0" y="0" width="102.67" height="102.67"/><circle fill="#494f31" cx="30.80" cy="25.67" r="20.53"/><circle fill="#01596e" cx="61.60" cy="46.20" r="30.80"/><circle fill="#cfd4f4" cx="35.93" cy="71.87" r="25.67"/><circle fill="#ba78d4" cx="71.87" cy="71.87" r="20.53"/><circle fill="#d802b8" cx="61.60" cy="51.33" r="12.83"/></g><g transform="translate(107.67 53)"><rect fill="#494f31" x="0" y="0" width="102.67" height="102.67"/><circle fill="#01596e" cx="30.80" cy="25.67" r="20.53"/><circle fill="#cfd4f4" cx="61.60" cy="46.20" r="30.80"/><circle fill="#ba78d4" cx="35.93" cy="71.87" r="25.67"/><circle fill="#d802b8" cx="71.87" cy="71.87" r="20.53"/><circle fill="#f2b93a" cx="61.60" cy="51.33" r="12.83"/></g><g transform="translate(215.33 53)"><rect fill="#01596e" x="0" y="0" width="102.67" height="102.67"/><circle fill="#cfd4f4" cx="30.80" cy="25.67" r="20.53"/><circle fill="#ba78d4" cx="61.60" cy="46.20" r="30.80"/><circle fill="#d802b8" cx="35.93" cy="71.87" r="25.67"/><circle fill="#f2b93a" cx="71.87" cy="71.87" r="20.53"/><circle fill="#494f31" cx="61.60" cy="51.33" r="12.83"/></g><g transform="translate(0 160.67)"><rect fill="#cfd4f4" x="0" y="0" width="102.67" height="102.67"/><circle fill="#ba78d4" cx="30.80" cy="25.67" r="20.53"/><circle fill="#d802b8" cx="61.60" cy="46.20" r="30.80"/><circle fill="#f2b93a" cx="35.93" cy="71.87" r="25.67"/><circle fill="#494f31" cx="71.87" cy="71.87" r="20.53"/><circle fill="#01596e" cx="61.60" cy="51.33" r="12.83"/></g><g transform="translate(107.67 160.67)"><rect fill="#ba78d4" x="0" y="0" width="102.67" height="102.67"/><circle fill="#d802b8" cx="30.80" cy="25.67" r="20.53"/><circle fill="#f2b93a" cx="61.60" cy="46.20" r="30.80"/><circle fill="#494f31" cx="35.93" cy="71.87" r="25.67"/><circle fill="#01596e" cx="71.87" cy="71.87" r="20.53"/><circle fill="#cfd4f4" cx="61.60" cy="51.33" r="12.83"/></g><g transform="translate(215.33 160.67)"><rect fill="#d802b8" x="0" y="0" width="102.67" height="102.67"/><circle fill="#f2b93a" cx="30.80" cy="25.67" r="20.53"/><circle fill="#494f31" cx="61.60" cy="46.20" r="30.80"/><circle fill="#01596e" cx="35.93" cy="71.87" r="25.67"/><circle fill="#cfd4f4" cx="71.87" cy="71.87" r="20.53"/><circle fill="#ba78d4" cx="61.60" cy="51.33" r="12.83"/></g></svg>