<svg version="1.1" xmlns="http://www.w3.org/2000/svg" xmlns:xlink="http://www.w3.org/1999/xlink" width="318" height="263.33"><g transform="translate(24 24)"><circle fill="#d73215" cx="0" cy="0" r="24"/><circle fill="#b2a78e" cx="53" cy="0" r="24"/><circle fill="#f2f3f6" cx="106" cy="0" r="24"/><circle fill="#bbd6c0" cx="159" cy="0" r="24"/><circle fill="#799d91" cx="212" cy="0" r="24"/><circle fill="#193d2c" cx="265" cy="0" r="24"/></g><g transform="translate(0 53)"><rect fill="#d73215" x="0" y="0" width="102.67" height="102.67"/><circle fill="#b2a78e" cx="30.80" cy="25.67" r="20.53"/><circle fill="#f2f3f6" cx="61.60" cy="46.20" r="30.80"/><circle fill="#bbd6c0" cx="35.93" cy="71.87" r="25.67"/><circle fill="#799d91" cx="71.87" cy="71.87" r="20.53"/><circle fill="#193d2c" cx="61.60" cy="51.33" r="12.83"/></g><g transform="translate(107.67 53)"><rect fill="#b2a78e" x="0" y="0" width="102.67" height="102.67"/><circle fill="#f2f3f6" cx="30.80" cy="25.67" r="20.53"/><circle fill="#bbd6c0" cx="61.60" cy="46.20" r="30.80"/><circle fill="#799d91" cx="35.93" cy="71.87" r="25.67"/><circle fill="#193d2c" cx="71.87" cy="71.87" r="20.53"/><circle fill="#d73215" cx="61.60" cy="51.33" r="12.83"/></g><g transform="translate(215.33 53)"><rect fill="#f2f3f6" x="0" y="0" width="102.67" height="102.67"/><circle fill="#bbd6c0" cx="30.80" cy="25.67" r="20.53"/><circle fill="#799d91" cx="61.60" cy="46.20" r="30.80"/><circle fill="#193d2c" cx="35.93" cy="71.87" r="25.67"/><circle fill="#d73215" cx="71.87" cy="71.87" r="20.53"/><circle fill="#b2a78e" cx="61.60" cy="51.33" r="12.83"/></g><g transform="translate(0 160.67)"><rect fill="#bbd6c0" x="0" y="0" width="102.67" height="102.67"/><circle fill="#799d91" cx="30.80" cy="25.67" r="20.53"/><circle fill="#193d2c" cx="61.60" cy="46.20" r="30.80"/><circle fill="#d73215" cx="35.93" cy="71.87" r="25.67"/><circle fill="#b2a78e" cx="71.87" cy="71.87" r="20.53"/><circle fill="#f2f3f6" cx="61.60" cy="51.33" r="12.83"/></g><g transform="translate(107.67 160.67)"><rect fill="#799d91" x="0" y="0" width="102.67" height="102.67"/><circle fill="#193d2c" cx="30.80" cy="25.67" r="20.53"/><circle fill="#d73215" cx="61.60" cy="46.20" r="30.80"/><circle fill="#b2a78e" cx="35.93" cy="71.87" r="25.67"/><circle fill="#f2f3f6" cx="71.87" cy="71.87" r="20.53"/><circle fill="#bbd6c0" cx="61.60" cy="51.33" r="12.83"/></g><g transform="translate(215.33 160.67)"><rect fill="#193d2c" x="0" y="0" width="102.67" height="102.67"/><circle fill="#d73215" cx="30.80" cy="25.67" r="20.53"/><circle fill="#b2a78e" cx="61.60" cy="46.20" r="30.80"/><circle fill="#f2f3f6" cx="35.93" cy="71.87" r="25.67"/><circle fill="#bbd6c0" cx="71.87" cy="71.87" r="20.53"/><circle fill="#799d91" cx="61.60" cy="51.33" r="12.83"/></g></svg>