<svg version="1.1" xmlns="http://www.w3.org/2000/svg" xmlns:xlink="http://www.w3.org/1999/xlink" width="318" height="263.33"><g transform="translate(24 24)"><circle fill="#0d0d0d" cx="0" cy="0" r="24"/><circle fill="#0c4451" cx="53" cy="0" r="24"/><circle fill="#61bf36" cx="106" cy="0" r="24"/><circle fill="#f2c029" cx="159" cy="0" r="24"/><circle fill="#dd9a25" cx="212" cy="0" r="24"/><circle fill="#f2f2f4" cx="265" cy="0" r="24"/></g><g transform="translate(0 53)"><rect fill="#0d0d0d" x="0" y="0" width="102.67" height="102.67"/><circle fill="#0c4451" cx="30.80" cy="25.67" r="20.53"/><circle fill="#61bf36" cx="61.60" cy="46.20" r="30.80"/><circle fill="#f2c029" cx="35.93" cy="71.87" r="25.67"/><circle fill="#dd9a25" cx="71.87" cy="71.87" r="20.53"/><circle fill="#f2f2f4" cx="61.60" cy="51.33" r="12.83"/></g><g transform="translate(107.67 53)"><rect fill="#0c4451" x="0" y="0" width="102.67" height="102.67"/><circle fill="#61bf36" cx="30.80" cy="25.67" r="20.53"/><circle fill="#f2c029" cx="61.60" cy="46.20" r="30.80"/><circle fill="#dd9a25" cx="35.93" cy="71.87" r="25.67"/><circle fill="#f2f2f4" cx="71.87" cy="71.87" r="20.53"/><circle fill="#0d0d0d" cx="61.60" cy="51.33" r="12.83"/></g><g transform="translate(215.33 53)"><rect fill="#61bf36" x="0" y="0" width="102.67" height="102.67"/><circle fill="#f2c029" cx="30.80" cy="25.67" r="20.53"/><circle fill="#dd9a25" cx="61.60" cy="46.20" r="30.80"/><circle fill="#f2f2f4" cx="35.93" cy="71.87" r="25.67"/><circle fill="#0d0d0d" cx="71.87" cy="71.87" r="20.53"/><circle fill="#0c4451" cx="61.60" cy="51.33" r="12.83"/></g><g transform="translate(0 160.67)"><rect fill="#f2c029" x="0" y="0" width="102.67" height="102.67"/><circle fill="#dd9a25" cx="30.80" cy="25.67" r="20.53"/><circle fill="#f2f2f4" cx="61.60" cy="46.20" r="30.80"/><circle fill="#0d0d0d" cx="35.93" cy="71.87" r="25.67"/><circle fill="#0c4451" cx="71.87" cy="71.87" r="20.53"/><circle fill="#61bf36" cx="61.60" cy="51.33" r="12.83"/></g><g transform="translate(107.67 160.67)"><rect fill="#dd9a25" x="0" y="0" width="102.67" height="102.67"/><circle fill="#f2f2f4" cx="30.80" cy="25.67" r="20.53"/><circle fill="#0d0d0d" cx="61.60" cy="46.20" r="30.80"/><circle fill="#0c4451" cx="35.93" cy="71.87" r="25.67"/><circle fill="#61bf36" cx="71.87" cy="71.87" r="20.53"/><circle fill="#f2c029" cx="61.60" cy="51.33" r="12.83"/></g><g transform="translate(215.33 160.67)"><rect fill="#f2f2f4" x="0" y="0" width="102.67" height="102.67"/><circle fill="#0d0d0d" cx="30.80" cy="25.67" r="20.53"/><circle fill="#0c4451" cx="61.60" cy="46.20" r="30.80"/><circle fill="#61bf36" cx="35.93" cy="71.87" r="25.67"/><circle fill="#f2c029" cx="71.87" cy="71.87" r="20.53"/><circle fill="#dd9a25" cx="61.60" cy="51.33" r="12.83"/></g></svg>