<svg version="1.1" xmlns="http://www.w3.org/2000/svg" xmlns:xlink="http://www.w3.org/1999/xlink" width="318" height="263.33"><g transform="translate(24 24)"><circle fill="#16274b" cx="0" cy="0" r="24"/><circle fill="#237388" cx="53" cy="0" r="24"/><circle fill="#8593a9" cx="106" cy="0" r="24"/><circle fill="#6d135b" cx="159" cy="0" r="24"/><circle fill="#e62984" cx="212" cy="0" r="24"/><circle fill="#e7b0c7" cx="265" cy="0" r="24"/></g><g transform="translate(0 53)"><rect fill="#16274b" x="0" y="0" width="102.67" height="102.67"/><circle fill="#237388" cx="30.80" cy="25.67" r="20.53"/><circle fill="#8593a9" cx="61.60" cy="46.20" r="30.80"/><circle fill="#6d135b" cx="35.93" cy="71.87" r="25.67"/><circle fill="#e62984" cx="71.87" cy="71.87" r="20.53"/><circle fill="#e7b0c7" cx="61.60" cy="51.33" r="12.83"/></g><g transform="translate(107.67 53)"><rect fill="#237388" x="0" y="0" width="102.67" height="102.67"/><circle fill="#8593a9" cx="30.80" cy="25.67" r="20.53"/><circle fill="#6d135b" cx="61.60" cy="46.20" r="30.80"/><circle fill="#e62984" cx="35.93" cy="71.87" r="25.67"/><circle fill="#e7b0c7" cx="71.87" cy="71.87" r="20.53"/><circle fill="#16274b" cx="61.60" cy="51.33" r="12.83"/></g><g transform="translate(215.33 53)"><rect fill="#8593a9" x="0" y="0" width="102.67" height="102.67"/><circle fill="#6d135b" cx="30.80" cy="25.67" r="20.53"/><circle fill="#e62984" cx="61.60" cy="46.20" r="30.80"/><circle fill="#e7b0c7" cx="35.93" cy="71.87" r="25.67"/><circle fill="#16274b" cx="71.87" cy="71.87" r="20.53"/><circle fill="#237388" cx="61.60" cy="51.33" r="12.83"/></g><g transform="translate(0 160.67)"><rect fill="#6d135b" x="0" y="0" width="102.67" height="102.67"/><circle fill="#e62984" cx="30.80" cy="25.67" r="20.53"/><circle fill="#e7b0c7" cx="61.60" cy="46.20" r="30.80"/><circle fill="#16274b" cx="35.93" cy="71.87" r="25.67"/><circle fill="#237388" cx="71.87" cy="71.87" r="20.53"/><circle fill="#8593a9" cx="61.60" cy="51.33" r="12.83"/></g><g transform="translate(107.67 160.67)"><rect fill="#e62984" x="0" y="0" width="102.67" height="102.67"/><circle fill="#e7b0c7" cx="30.80" cy="25.67" r="20.53"/><circle fill="#16274b" cx="61.60" cy="46.20" r="30.80"/><circle fill="#237388" cx="35.93" cy="71.87" r="25.67"/><circle fill="#8593a9" cx="71.87" cy="71.87" r="20.53"/><circle fill="#6d135b" cx="61.60" cy="51.33" r="12.83"/></g><g transform="translate(215.33 160.67)"><rect fill="#e7b0c7" x="0" y="0" width="102.67" height="102.67"/><circle fill="#16274b" cx="30.80" cy="25.67" r="20.53"/><circle fill="#237388" cx="61.60" cy="46.20" r="30.80"/><circle fill="#8593a9" cx="35.93" cy="71.87" r="25.67"/><circle fill="#6d135b" cx="71.87" cy="71.87" r="20.53"/><circle fill="#e62984" cx="61.60" cy="51.33" r="12.83"/></g></svg>