<svg version="1.1" xmlns="http://www.w3.org/2000/svg" xmlns:xlink="http://www.w3.org/1999/xlink" width="318" height="263.33"><g transform="translate(24 24)"><circle fill="#f57a3f" cx="0" cy="0" r="24"/><circle fill="#f59637" cx="53" cy="0" r="24"/><circle fill="#f2bd2a" cx="106" cy="0" r="24"/><circle fill="#efd94d" cx="159" cy="0" r="24"/><circle fill="#dfe18a" cx="212" cy="0" r="24"/><circle fill="#ddf0bf" cx="265" cy="0" r="24"/></g><g transform="translate(0 53)"><rect fill="#f57a3f" x="0" y="0" width="102.67" height="102.67"/><circle fill="#f59637" cx="30.80" cy="25.67" r="20.53"/><circle fill="#f2bd2a" cx="61.60" cy="46.20" r="30.80"/><circle fill="#efd94d" cx="35.93" cy="71.87" r="25.67"/><circle fill="#dfe18a" cx="71.87" cy="71.87" r="20.53"/><circle fill="#ddf0bf" cx="61.60" cy="51.33" r="12.83"/></g><g transform="translate(107.67 53)"><rect fill="#f59637" x="0" y="0" width="102.67" height="102.67"/><circle fill="#f2bd2a" cx="30.80" cy="25.67" r="20.53"/><circle fill="#efd94d" cx="61.60" cy="46.20" r="30.80"/><circle fill="#dfe18a" cx="35.93" cy="71.87" r="25.67"/><circle fill="#ddf0bf" cx="71.87" cy="71.87" r="20.53"/><circle fill="#f57a3f" cx="61.60" cy="51.33" r="12.83"/></g><g transform="translate(215.33 53)"><rect fill="#f2bd2a" x="0" y="0" width="102.67" height="102.67"/><circle fill="#efd94d" cx="30.80" cy="25.67" r="20.53"/><circle fill="#dfe18a" cx="61.60" cy="46.20" r="30.80"/><circle fill="#ddf0bf" cx="35.93" cy="71.87" r="25.67"/><circle fill="#f57a3f" cx="71.87" cy="71.87" r="20.53"/><circle fill="#f59637" cx="61.60" cy="51.33" r="12.83"/></g><g transform="translate(0 160.67)"><rect fill="#efd94d" x="0" y="0" width="102.67" height="102.67"/><circle fill="#dfe18a" cx="30.80" cy="25.67" r="20.53"/><circle fill="#ddf0bf" cx="61.60" cy="46.20" r="30.80"/><circle fill="#f57a3f" cx="35.93" cy="71.87" r="25.67"/><circle fill="#f59637" cx="71.87" cy="71.87" r="20.53"/><circle fill="#f2bd2a" cx="61.60" cy="51.33" r="12.83"/></g><g transform="translate(107.67 160.67)"><rect fill="#dfe18a" x="0" y="0" width="102.67" height="102.67"/><circle fill="#ddf0bf" cx="30.80" cy="25.67" r="20.53"/><circle fill="#f57a3f" cx="61.60" cy="46.20" r="30.80"/><circle fill="#f59637" cx="35.93" cy="71.87" r="25.67"/><circle fill="#f2bd2a" cx="71.87" cy="71.87" r="20.53"/><circle fill="#efd94d" cx="61.60" cy="51.33" r="12.83"/></g><g transform="translate(215.33 160.67)"><rect fill="#ddf0bf" x="0" y="0" width="102.67" height="102.67"/><circle fill="#f57a3f" cx="30.80" cy="25.67" r="20.53"/><circle fill="#f59637" cx="61.60" cy="46.20" r="30.80"/><circle fill="#f2bd2a" cx="35.93" cy="71.87" r="25.67"/><circle fill="#efd94d" cx="71.87" cy="71.87" r="20.53"/><circle fill="#dfe18a" cx="61.60" cy="51.33" r="12.83"/></g></svg>