<svg version="1.1" xmlns="http://www.w3.org/2000/svg" xmlns:xlink="http://www.w3.org/1999/xlink" width="318" height="263.33"><g transform="translate(24 24)"><circle fill="#56261b" cx="0" cy="0" r="24"/><circle fill="#9b5847" cx="53" cy="0" r="24"/><circle fill="#e28f6d" cx="106" cy="0" r="24"/><circle fill="#e3c4b5" cx="159" cy="0" r="24"/><circle fill="#fadaae" cx="212" cy="0" r="24"/><circle fill="#e0eae8" cx="265" cy="0" r="24"/></g><g transform="translate(0 53)"><rect fill="#56261b" x="0" y="0" width="102.67" height="102.67"/><circle fill="#9b5847" cx="30.80" cy="25.67" r="20.53"/><circle fill="#e28f6d" cx="61.60" cy="46.20" r="30.80"/><circle fill="#e3c4b5" cx="35.93" cy="71.87" r="25.67"/><circle fill="#fadaae" cx="71.87" cy="71.87" r="20.53"/><circle fill="#e0eae8" cx="61.60" cy="51.33" r="12.83"/></g><g transform="translate(107.67 53)"><rect fill="#9b5847" x="0" y="0" width="102.67" height="102.67"/><circle fill="#e28f6d" cx="30.80" cy="25.67" r="20.53"/><circle fill="#e3c4b5" cx="61.60" cy="46.20" r="30.80"/><circle fill="#fadaae" cx="35.93" cy="71.87" r="25.67"/><circle fill="#e0eae8" cx="71.87" cy="71.87" r="20.53"/><circle fill="#56261b" cx="61.60" cy="51.33" r="12.83"/></g><g transform="translate(215.33 53)"><rect fill="#e28f6d" x="0" y="0" width="102.67" height="102.67"/><circle fill="#e3c4b5" cx="30.80" cy="25.67" r="20.53"/><circle fill="#fadaae" cx="61.60" cy="46.20" r="30.80"/><circle fill="#e0eae8" cx="35.93" cy="71.87" r="25.67"/><circle fill="#56261b" cx="71.87" cy="71.87" r="20.53"/><circle fill="#9b5847" cx="61.60" cy="51.33" r="12.83"/></g><g transform="translate(0 160.67)"><rect fill="#e3c4b5" x="0" y="0" width="102.67" height="102.67"/><circle fill="#fadaae" cx="30.80" cy="25.67" r="20.53"/><circle fill="#e0eae8" cx="61.60" cy="46.20" r="30.80"/><circle fill="#56261b" cx="35.93" cy="71.87" r="25.67"/><circle fill="#9b5847" cx="71.87" cy="71.87" r="20.53"/><circle fill="#e28f6d" cx="61.60" cy="51.33" r="12.83"/></g><g transform="translate(107.67 160.67)"><rect fill="#fadaae" x="0" y="0" width="102.67" height="102.67"/><circle fill="#e0eae8" cx="30.80" cy="25.67" r="20.53"/><circle fill="#56261b" cx="61.60" cy="46.20" r="30.80"/><circle fill="#9b5847" cx="35.93" cy="71.87" r="25.67"/><circle fill="#e28f6d" cx="71.87" cy="71.87" r="20.53"/><circle fill="#e3c4b5" cx="61.60" cy="51.33" r="12.83"/></g><g transform="translate(215.33 160.67)"><rect fill="#e0eae8" x="0" y="0" width="102.67" height="102.67"/><circle fill="#56261b" cx="30.80" cy="25.67" r="20.53"/><circle fill="#9b5847" cx="61.60" cy="46.20" r="30.80"/><circle fill="#e28f6d" cx="35.93" cy="71.87" r="25.67"/><circle fill="#e3c4b5" cx="71.87" cy="71.87" r="20.53"/><circle fill="#fadaae" cx="61.60" cy="51.33" r="12.83"/></g></svg>