<svg version="1.1" xmlns="http://www.w3.org/2000/svg" xmlns:xlink="http://www.w3.org/1999/xlink" width="318" height="263.33"><g transform="translate(24 24)"><circle fill="#272817" cx="0" cy="0" r="24"/><circle fill="#484223" cx="53" cy="0" r="24"/><circle fill="#9d7a20" cx="106" cy="0" r="24"/><circle fill="#ed9120" cx="159" cy="0" r="24"/><circle fill="#bcb69b" cx="212" cy="0" r="24"/><circle fill="#4e5c66" cx="265" cy="0" r="24"/></g><g transform="translate(0 53)"><rect fill="#272817" x="0" y="0" width="102.67" height="102.67"/><circle fill="#484223" cx="30.80" cy="25.67" r="20.53"/><circle fill="#9d7a20" cx="61.60" cy="46.20" r="30.80"/><circle fill="#ed9120" cx="35.93" cy="71.87" r="25.67"/><circle fill="#bcb69b" cx="71.87" cy="71.87" r="20.53"/><circle fill="#4e5c66" cx="61.60" cy="51.33" r="12.83"/></g><g transform="translate(107.67 53)"><rect fill="#484223" x="0" y="0" width="102.67" height="102.67"/><circle fill="#9d7a20" cx="30.80" cy="25.67" r="20.53"/><circle fill="#ed9120" cx="61.60" cy="46.20" r="30.80"/><circle fill="#bcb69b" cx="35.93" cy="71.87" r="25.67"/><circle fill="#4e5c66" cx="71.87" cy="71.87" r="20.53"/><circle fill="#272817" cx="61.60" cy="51.33" r="12.83"/></g><g transform="translate(215.33 53)"><rect fill="#9d7a20" x="0" y="0" width="102.67" height="102.67"/><circle fill="#ed9120" cx="30.80" cy="25.67" r="20.53"/><circle fill="#bcb69b" cx="61.60" cy="46.20" r="30.80"/><circle fill="#4e5c66" cx="35.93" cy="71.87" r="25.67"/><circle fill="#272817" cx="71.87" cy="71.87" r="20.53"/><circle fill="#484223" cx="61.60" cy="51.33" r="12.83"/></g><g transform="translate(0 160.67)"><rect fill="#ed9120" x="0" y="0" width="102.67" height="102.67"/><circle fill="#bcb69b" cx="30.80" cy="25.67" r="20.53"/><circle fill="#4e5c66" cx="61.60" cy="46.20" r="30.80"/><circle fill="#272817" cx="35.93" cy="71.87" r="25.67"/><circle fill="#484223" cx="71.87" cy="71.87" r="20.53"/><circle fill="#9d7a20" cx="61.60" cy="51.33" r="12.83"/></g><g transform="translate(107.67 160.67)"><rect fill="#bcb69b" x="0" y="0" width="102.67" height="102.67"/><circle fill="#4e5c66" cx="30.80" cy="25.67" r="20.53"/><circle fill="#272817" cx="61.60" cy="46.20" r="30.80"/><circle fill="#484223" cx="35.93" cy="71.87" r="25.67"/><circle fill="#9d7a20" cx="71.87" cy="71.87" r="20.53"/><circle fill="#ed9120" cx="61.60" cy="51.33" r="12.83"/></g><g transform="translate(215.33 160.67)"><rect fill="#4e5c66" x="0" y="0" width="102.67" height="102.67"/><circle fill="#272817" cx="30.80" cy="25.67" r="20.53"/><circle fill="#484223" cx="61.60" cy="46.20" r="30.80"/><circle fill="#9d7a20" cx="35.93" cy="71.87" r="25.67"/><circle fill="#ed9120" cx="71.87" cy="71.87" r="20.53"/><circle fill="#bcb69b" cx="61.60" cy="51.33" r="12.83"/></g></svg>