<svg version="1.1" xmlns="http://www.w3.org/2000/svg" xmlns:xlink="http://www.w3.org/1999/xlink" width="318" height="263.33"><g transform="translate(24 24)"><circle fill="#172328" cx="0" cy="0" r="24"/><circle fill="#2a454b" cx="53" cy="0" r="24"/><circle fill="#516f75" cx="106" cy="0" r="24"/><circle fill="#7f9b9f" cx="159" cy="0" r="24"/><circle fill="#afc4c6" cx="212" cy="0" r="24"/><circle fill="#543e31" cx="265" cy="0" r="24"/></g><g transform="translate(0 53)"><rect fill="#172328" x="0" y="0" width="102.67" height="102.67"/><circle fill="#2a454b" cx="30.80" cy="25.67" r="20.53"/><circle fill="#516f75" cx="61.60" cy="46.20" r="30.80"/><circle fill="#7f9b9f" cx="35.93" cy="71.87" r="25.67"/><circle fill="#afc4c6" cx="71.87" cy="71.87" r="20.53"/><circle fill="#543e31" cx="61.60" cy="51.33" r="12.83"/></g><g transform="translate(107.67 53)"><rect fill="#2a454b" x="0" y="0" width="102.67" height="102.67"/><circle fill="#516f75" cx="30.80" cy="25.67" r="20.53"/><circle fill="#7f9b9f" cx="61.60" cy="46.20" r="30.80"/><circle fill="#afc4c6" cx="35.93" cy="71.87" r="25.67"/><circle fill="#543e31" cx="71.87" cy="71.87" r="20.53"/><circle fill="#172328" cx="61.60" cy="51.33" r="12.83"/></g><g transform="translate(215.33 53)"><rect fill="#516f75" x="0" y="0" width="102.67" height="102.67"/><circle fill="#7f9b9f" cx="30.80" cy="25.67" r="20.53"/><circle fill="#afc4c6" cx="61.60" cy="46.20" r="30.80"/><circle fill="#543e31" cx="35.93" cy="71.87" r="25.67"/><circle fill="#172328" cx="71.87" cy="71.87" r="20.53"/><circle fill="#2a454b" cx="61.60" cy="51.33" r="12.83"/></g><g transform="translate(0 160.67)"><rect fill="#7f9b9f" x="0" y="0" width="102.67" height="102.67"/><circle fill="#afc4c6" cx="30.80" cy="25.67" r="20.53"/><circle fill="#543e31" cx="61.60" cy="46.20" r="30.80"/><circle fill="#172328" cx="35.93" cy="71.87" r="25.67"/><circle fill="#2a454b" cx="71.87" cy="71.87" r="20.53"/><circle fill="#516f75" cx="61.60" cy="51.33" r="12.83"/></g><g transform="translate(107.67 160.67)"><rect fill="#afc4c6" x="0" y="0" width="102.67" height="102.67"/><circle fill="#543e31" cx="30.80" cy="25.67" r="20.53"/><circle fill="#172328" cx="61.60" cy="46.20" r="30.80"/><circle fill="#2a454b" cx="35.93" cy="71.87" r="25.67"/><circle fill="#516f75" cx="71.87" cy="71.87" r="20.53"/><circle fill="#7f9b9f" cx="61.60" cy="51.33" r="12.83"/></g><g transform="translate(215.33 160.67)"><rect fill="#543e31" x="0" y="0" width="102.67" height="102.67"/><circle fill="#172328" cx="30.80" cy="25.67" r="20.53"/><circle fill="#2a454b" cx="61.60" cy="46.20" r="30.80"/><circle fill="#516f75" cx="35.93" cy="71.87" r="25.67"/><circle fill="#7f9b9f" cx="71.87" cy="71.87" r="20.53"/><circle fill="#afc4c6" cx="61.60" cy="51.33" r="12.83"/></g></svg>