<svg version="1.1" xmlns="http://www.w3.org/2000/svg" xmlns:xlink="http://www.w3.org/1999/xlink" width="318" height="263.33"><g transform="translate(24 24)"><circle fill="#1d070d" cx="0" cy="0" r="24"/><circle fill="#3b1625" cx="53" cy="0" r="24"/><circle fill="#711c44" cx="106" cy="0" r="24"/><circle fill="#ab1934" cx="159" cy="0" r="24"/><circle fill="#858b98" cx="212" cy="0" r="24"/><circle fill="#404252" cx="265" cy="0" r="24"/></g><g transform="translate(0 53)"><rect fill="#1d070d" x="0" y="0" width="102.67" height="102.67"/><circle fill="#3b1625" cx="30.80" cy="25.67" r="20.53"/><circle fill="#711c44" cx="61.60" cy="46.20" r="30.80"/><circle fill="#ab1934" cx="35.93" cy="71.87" r="25.67"/><circle fill="#858b98" cx="71.87" cy="71.87" r="20.53"/><circle fill="#404252" cx="61.60" cy="51.33" r="12.83"/></g><g transform="translate(107.67 53)"><rect fill="#3b1625" x="0" y="0" width="102.67" height="102.67"/><circle fill="#711c44" cx="30.80" cy="25.67" r="20.53"/><circle fill="#ab1934" cx="61.60" cy="46.20" r="30.80"/><circle fill="#858b98" cx="35.93" cy="71.87" r="25.67"/><circle fill="#404252" cx="71.87" cy="71.87" r="20.53"/><circle fill="#1d070d" cx="61.60" cy="51.33" r="12.83"/></g><g transform="translate(215.33 53)"><rect fill="#711c44" x="0" y="0" width="102.67" height="102.67"/><circle fill="#ab1934" cx="30.80" cy="25.67" r="20.53"/><circle fill="#858b98" cx="61.60" cy="46.20" r="30.80"/><circle fill="#404252" cx="35.93" cy="71.87" r="25.67"/><circle fill="#1d070d" cx="71.87" cy="71.87" r="20.53"/><circle fill="#3b1625" cx="61.60" cy="51.33" r="12.83"/></g><g transform="translate(0 160.67)"><rect fill="#ab1934" x="0" y="0" width="102.67" height="102.67"/><circle fill="#858b98" cx="30.80" cy="25.67" r="20.53"/><circle fill="#404252" cx="61.60" cy="46.20" r="30.80"/><circle fill="#1d070d" cx="35.93" cy="71.87" r="25.67"/><circle fill="#3b1625" cx="71.87" cy="71.87" r="20.53"/><circle fill="#711c44" cx="61.60" cy="51.33" r="12.83"/></g><g transform="translate(107.67 160.67)"><rect fill="#858b98" x="0" y="0" width="102.67" height="102.67"/><circle fill="#404252" cx="30.80" cy="25.67" r="20.53"/><circle fill="#1d070d" cx="61.60" cy="46.20" r="30.80"/><circle fill="#3b1625" cx="35.93" cy="71.87" r="25.67"/><circle fill="#711c44" cx="71.87" cy="71.87" r="20.53"/><circle fill="#ab1934" cx="61.60" cy="51.33" r="12.83"/></g><g transform="translate(215.33 160.67)"><rect fill="#404252" x="0" y="0" width="102.67" height="102.67"/><circle fill="#1d070d" cx="30.80" cy="25.67" r="20.53"/><circle fill="#3b1625" cx="61.60" cy="46.20" r="30.80"/><circle fill="#711c44" cx="35.93" cy="71.87" r="25.67"/><circle fill="#ab1934" cx="71.87" cy="71.87" r="20.53"/><circle fill="#858b98" cx="61.60" cy="51.33" r="12.83"/></g></svg>