<svg version="1.1" xmlns="http://www.w3.org/2000/svg" xmlns:xlink="http://www.w3.org/1999/xlink" width="318" height="263.33"><g transform="translate(24 24)"><circle fill="#e2f4eb" cx="0" cy="0" r="24"/><circle fill="#bedbde" cx="53" cy="0" r="24"/><circle fill="#88bada" cx="106" cy="0" r="24"/><circle fill="#2190d8" cx="159" cy="0" r="24"/><circle fill="#8672ae" cx="212" cy="0" r="24"/><circle fill="#5f1c5d" cx="265" cy="0" r="24"/></g><g transform="translate(0 53)"><rect fill="#e2f4eb" x="0" y="0" width="102.67" height="102.67"/><circle fill="#bedbde" cx="30.80" cy="25.67" r="20.53"/><circle fill="#88bada" cx="61.60" cy="46.20" r="30.80"/><circle fill="#2190d8" cx="35.93" cy="71.87" r="25.67"/><circle fill="#8672ae" cx="71.87" cy="71.87" r="20.53"/><circle fill="#5f1c5d" cx="61.60" cy="51.33" r="12.83"/></g><g transform="translate(107.67 53)"><rect fill="#bedbde" x="0" y="0" width="102.67" height="102.67"/><circle fill="#88bada" cx="30.80" cy="25.67" r="20.53"/><circle fill="#2190d8" cx="61.60" cy="46.20" r="30.80"/><circle fill="#8672ae" cx="35.93" cy="71.87" r="25.67"/><circle fill="#5f1c5d" cx="71.87" cy="71.87" r="20.53"/><circle fill="#e2f4eb" cx="61.60" cy="51.33" r="12.83"/></g><g transform="translate(215.33 53)"><rect fill="#88bada" x="0" y="0" width="102.67" height="102.67"/><circle fill="#2190d8" cx="30.80" cy="25.67" r="20.53"/><circle fill="#8672ae" cx="61.60" cy="46.20" r="30.80"/><circle fill="#5f1c5d" cx="35.93" cy="71.87" r="25.67"/><circle fill="#e2f4eb" cx="71.87" cy="71.87" r="20.53"/><circle fill="#bedbde" cx="61.60" cy="51.33" r="12.83"/></g><g transform="translate(0 160.67)"><rect fill="#2190d8" x="0" y="0" width="102.67" height="102.67"/><circle fill="#8672ae" cx="30.80" cy="25.67" r="20.53"/><circle fill="#5f1c5d" cx="61.60" cy="46.20" r="30.80"/><circle fill="#e2f4eb" cx="35.93" cy="71.87" r="25.67"/><circle fill="#bedbde" cx="71.87" cy="71.87" r="20.53"/><circle fill="#88bada" cx="61.60" cy="51.33" r="12.83"/></g><g transform="translate(107.67 160.67)"><rect fill="#8672ae" x="0" y="0" width="102.67" height="102.67"/><circle fill="#5f1c5d" cx="30.80" cy="25.67" r="20.53"/><circle fill="#e2f4eb" cx="61.60" cy="46.20" r="30.80"/><circle fill="#bedbde" cx="35.93" cy="71.87" r="25.67"/><circle fill="#88bada" cx="71.87" cy="71.87" r="20.53"/><circle fill="#2190d8" cx="61.60" cy="51.33" r="12.83"/></g><g transform="translate(215.33 160.67)"><rect fill="#5f1c5d" x="0" y="0" width="102.67" height="102.67"/><circle fill="#e2f4eb" cx="30.80" cy="25.67" r="20.53"/><circle fill="#bedbde" cx="61.60" cy="46.20" r="30.80"/><circle fill="#88bada" cx="35.93" cy="71.87" r="25.67"/><circle fill="#2190d8" cx="71.87" cy="71.87" r="20.53"/><circle fill="#8672ae" cx="61.60" cy="51.33" r="12.83"/></g></svg>