<svg version="1.1" xmlns="http://www.w3.org/2000/svg" xmlns:xlink="http://www.w3.org/1999/xlink" width="318" height="263.33"><g transform="translate(24 24)"><circle fill="#1a0e24" cx="0" cy="0" r="24"/><circle fill="#6a8aa6" cx="53" cy="0" r="24"/><circle fill="#aedff2" cx="106" cy="0" r="24"/><circle fill="#fabd05" cx="159" cy="0" r="24"/><circle fill="#bf7e04" cx="212" cy="0" r="24"/><circle fill="#734743" cx="265" cy="0" r="24"/></g><g transform="translate(0 53)"><rect fill="#1a0e24" x="0" y="0" width="102.67" height="102.67"/><circle fill="#6a8aa6" cx="30.80" cy="25.67" r="20.53"/><circle fill="#aedff2" cx="61.60" cy="46.20" r="30.80"/><circle fill="#fabd05" cx="35.93" cy="71.87" r="25.67"/><circle fill="#bf7e04" cx="71.87" cy="71.87" r="20.53"/><circle fill="#734743" cx="61.60" cy="51.33" r="12.83"/></g><g transform="translate(107.67 53)"><rect fill="#6a8aa6" x="0" y="0" width="102.67" height="102.67"/><circle fill="#aedff2" cx="30.80" cy="25.67" r="20.53"/><circle fill="#fabd05" cx="61.60" cy="46.20" r="30.80"/><circle fill="#bf7e04" cx="35.93" cy="71.87" r="25.67"/><circle fill="#734743" cx="71.87" cy="71.87" r="20.53"/><circle fill="#1a0e24" cx="61.60" cy="51.33" r="12.83"/></g><g transform="translate(215.33 53)"><rect fill="#aedff2" x="0" y="0" width="102.67" height="102.67"/><circle fill="#fabd05" cx="30.80" cy="25.67" r="20.53"/><circle fill="#bf7e04" cx="61.60" cy="46.20" r="30.80"/><circle fill="#734743" cx="35.93" cy="71.87" r="25.67"/><circle fill="#1a0e24" cx="71.87" cy="71.87" r="20.53"/><circle fill="#6a8aa6" cx="61.60" cy="51.33" r="12.83"/></g><g transform="translate(0 160.67)"><rect fill="#fabd05" x="0" y="0" width="102.67" height="102.67"/><circle fill="#bf7e04" cx="30.80" cy="25.67" r="20.53"/><circle fill="#734743" cx="61.60" cy="46.20" r="30.80"/><circle fill="#1a0e24" cx="35.93" cy="71.87" r="25.67"/><circle fill="#6a8aa6" cx="71.87" cy="71.87" r="20.53"/><circle fill="#aedff2" cx="61.60" cy="51.33" r="12.83"/></g><g transform="translate(107.67 160.67)"><rect fill="#bf7e04" x="0" y="0" width="102.67" height="102.67"/><circle fill="#734743" cx="30.80" cy="25.67" r="20.53"/><circle fill="#1a0e24" cx="61.60" cy="46.20" r="30.80"/><circle fill="#6a8aa6" cx="35.93" cy="71.87" r="25.67"/><circle fill="#aedff2" cx="71.87" cy="71.87" r="20.53"/><circle fill="#fabd05" cx="61.60" cy="51.33" r="12.83"/></g><g transform="translate(215.33 160.67)"><rect fill="#734743" x="0" y="0" width="102.67" height="102.67"/><circle fill="#1a0e24" cx="30.80" cy="25.67" r="20.53"/><circle fill="#6a8aa6" cx="61.60" cy="46.20" r="30.80"/><circle fill="#aedff2" cx="35.93" cy="71.87" r="25.67"/><circle fill="#fabd05" cx="71.87" cy="71.87" r="20.53"/><circle fill="#bf7e04" cx="61.60" cy="51.33" r="12.83"/></g></svg>