<svg version="1.1" xmlns="http://www.w3.org/2000/svg" xmlns:xlink="http://www.w3.org/1999/xlink" width="318" height="263.33"><g transform="translate(24 24)"><circle fill="#252426" cx="0" cy="0" r="24"/><circle fill="#ad0401" cx="53" cy="0" r="24"/><circle fill="#e90408" cx="106" cy="0" r="24"/><circle fill="#fc9518" cx="159" cy="0" r="24"/><circle fill="#62c3d9" cx="212" cy="0" r="24"/><circle fill="#b6e7f2" cx="265" cy="0" r="24"/></g><g transform="translate(0 53)"><rect fill="#252426" x="0" y="0" width="102.67" height="102.67"/><circle fill="#ad0401" cx="30.80" cy="25.67" r="20.53"/><circle fill="#e90408" cx="61.60" cy="46.20" r="30.80"/><circle fill="#fc9518" cx="35.93" cy="71.87" r="25.67"/><circle fill="#62c3d9" cx="71.87" cy="71.87" r="20.53"/><circle fill="#b6e7f2" cx="61.60" cy="51.33" r="12.83"/></g><g transform="translate(107.67 53)"><rect fill="#ad0401" x="0" y="0" width="102.67" height="102.67"/><circle fill="#e90408" cx="30.80" cy="25.67" r="20.53"/><circle fill="#fc9518" cx="61.60" cy="46.20" r="30.80"/><circle fill="#62c3d9" cx="35.93" cy="71.87" r="25.67"/><circle fill="#b6e7f2" cx="71.87" cy="71.87" r="20.53"/><circle fill="#252426" cx="61.60" cy="51.33" r="12.83"/></g><g transform="translate(215.33 53)"><rect fill="#e90408" x="0" y="0" width="102.67" height="102.67"/><circle fill="#fc9518" cx="30.80" cy="25.67" r="20.53"/><circle fill="#62c3d9" cx="61.60" cy="46.20" r="30.80"/><circle fill="#b6e7f2" cx="35.93" cy="71.87" r="25.67"/><circle fill="#252426" cx="71.87" cy="71.87" r="20.53"/><circle fill="#ad0401" cx="61.60" cy="51.33" r="12.83"/></g><g transform="translate(0 160.67)"><rect fill="#fc9518" x="0" y="0" width="102.67" height="102.67"/><circle fill="#62c3d9" cx="30.80" cy="25.67" r="20.53"/><circle fill="#b6e7f2" cx="61.60" cy="46.20" r="30.80"/><circle fill="#252426" cx="35.93" cy="71.87" r="25.67"/><circle fill="#ad0401" cx="71.87" cy="71.87" r="20.53"/><circle fill="#e90408" cx="61.60" cy="51.33" r="12.83"/></g><g transform="translate(107.67 160.67)"><rect fill="#62c3d9" x="0" y="0" width="102.67" height="102.67"/><circle fill="#b6e7f2" cx="30.80" cy="25.67" r="20.53"/><circle fill="#252426" cx="61.60" cy="46.20" r="30.80"/><circle fill="#ad0401" cx="35.93" cy="71.87" r="25.67"/><circle fill="#e90408" cx="71.87" cy="71.87" r="20.53"/><circle fill="#fc9518" cx="61.60" cy="51.33" r="12.83"/></g><g transform="translate(215.33 160.67)"><rect fill="#b6e7f2" x="0" y="0" width="102.67" height="102.67"/><circle fill="#252426" cx="30.80" cy="25.67" r="20.53"/><circle fill="#ad0401" cx="61.60" cy="46.20" r="30.80"/><circle fill="#e90408" cx="35.93" cy="71.87" r="25.67"/><circle fill="#fc9518" cx="71.87" cy="71.87" r="20.53"/><circle fill="#62c3d9" cx="61.60" cy="51.33" r="12.83"/></g></svg>