<svg version="1.1" xmlns="http://www.w3.org/2000/svg" xmlns:xlink="http://www.w3.org/1999/xlink" width="318" height="263.33"><g transform="translate(24 24)"><circle fill="#1e2e46" cx="0" cy="0" r="24"/><circle fill="#8d6747" cx="53" cy="0" r="24"/><circle fill="#aa987e" cx="106" cy="0" r="24"/><circle fill="#da7347" cx="159" cy="0" r="24"/><circle fill="#eea789" cx="212" cy="0" r="24"/><circle fill="#f5bfc2" cx="265" cy="0" r="24"/></g><g transform="translate(0 53)"><rect fill="#1e2e46" x="0" y="0" width="102.67" height="102.67"/><circle fill="#8d6747" cx="30.80" cy="25.67" r="20.53"/><circle fill="#aa987e" cx="61.60" cy="46.20" r="30.80"/><circle fill="#da7347" cx="35.93" cy="71.87" r="25.67"/><circle fill="#eea789" cx="71.87" cy="71.87" r="20.53"/><circle fill="#f5bfc2" cx="61.60" cy="51.33" r="12.83"/></g><g transform="translate(107.67 53)"><rect fill="#8d6747" x="0" y="0" width="102.67" height="102.67"/><circle fill="#aa987e" cx="30.80" cy="25.67" r="20.53"/><circle fill="#da7347" cx="61.60" cy="46.20" r="30.80"/><circle fill="#eea789" cx="35.93" cy="71.87" r="25.67"/><circle fill="#f5bfc2" cx="71.87" cy="71.87" r="20.53"/><circle fill="#1e2e46" cx="61.60" cy="51.33" r="12.83"/></g><g transform="translate(215.33 53)"><rect fill="#aa987e" x="0" y="0" width="102.67" height="102.67"/><circle fill="#da7347" cx="30.80" cy="25.67" r="20.53"/><circle fill="#eea789" cx="61.60" cy="46.20" r="30.80"/><circle fill="#f5bfc2" cx="35.93" cy="71.87" r="25.67"/><circle fill="#1e2e46" cx="71.87" cy="71.87" r="20.53"/><circle fill="#8d6747" cx="61.60" cy="51.33" r="12.83"/></g><g transform="translate(0 160.67)"><rect fill="#da7347" x="0" y="0" width="102.67" height="102.67"/><circle fill="#eea789" cx="30.80" cy="25.67" r="20.53"/><circle fill="#f5bfc2" cx="61.60" cy="46.20" r="30.80"/><circle fill="#1e2e46" cx="35.93" cy="71.87" r="25.67"/><circle fill="#8d6747" cx="71.87" cy="71.87" r="20.53"/><circle fill="#aa987e" cx="61.60" cy="51.33" r="12.83"/></g><g transform="translate(107.67 160.67)"><rect fill="#eea789" x="0" y="0" width="102.67" height="102.67"/><circle fill="#f5bfc2" cx="30.80" cy="25.67" r="20.53"/><circle fill="#1e2e46" cx="61.60" cy="46.20" r="30.80"/><circle fill="#8d6747" cx="35.93" cy="71.87" r="25.67"/><circle fill="#aa987e" cx="71.87" cy="71.87" r="20.53"/><circle fill="#da7347" cx="61.60" cy="51.33" r="12.83"/></g><g transform="translate(215.33 160.67)"><rect fill="#f5bfc2" x="0" y="0" width="102.67" height="102.67"/><circle fill="#1e2e46" cx="30.80" cy="25.67" r="20.53"/><circle fill="#8d6747" cx="61.60" cy="46.20" r="30.80"/><circle fill="#aa987e" cx="35.93" cy="71.87" r="25.67"/><circle fill="#da7347" cx="71.87" cy="71.87" r="20.53"/><circle fill="#eea789" cx="61.60" cy="51.33" r="12.83"/></g></svg>