<svg version="1.1" xmlns="http://www.w3.org/2000/svg" xmlns:xlink="http://www.w3.org/1999/xlink" width="318" height="263.33"><g transform="translate(24 24)"><circle fill="#fc65a0" cx="0" cy="0" r="24"/><circle fill="#eb13a3" cx="53" cy="0" r="24"/><circle fill="#603423" cx="106" cy="0" r="24"/><circle fill="#b6875c" cx="159" cy="0" r="24"/><circle fill="#c2a9a5" cx="212" cy="0" r="24"/><circle fill="#d0d9d4" cx="265" cy="0" r="24"/></g><g transform="translate(0 53)"><rect fill="#fc65a0" x="0" y="0" width="102.67" height="102.67"/><circle fill="#eb13a3" cx="30.80" cy="25.67" r="20.53"/><circle fill="#603423" cx="61.60" cy="46.20" r="30.80"/><circle fill="#b6875c" cx="35.93" cy="71.87" r="25.67"/><circle fill="#c2a9a5" cx="71.87" cy="71.87" r="20.53"/><circle fill="#d0d9d4" cx="61.60" cy="51.33" r="12.83"/></g><g transform="translate(107.67 53)"><rect fill="#eb13a3" x="0" y="0" width="102.67" height="102.67"/><circle fill="#603423" cx="30.80" cy="25.67" r="20.53"/><circle fill="#b6875c" cx="61.60" cy="46.20" r="30.80"/><circle fill="#c2a9a5" cx="35.93" cy="71.87" r="25.67"/><circle fill="#d0d9d4" cx="71.87" cy="71.87" r="20.53"/><circle fill="#fc65a0" cx="61.60" cy="51.33" r="12.83"/></g><g transform="translate(215.33 53)"><rect fill="#603423" x="0" y="0" width="102.67" height="102.67"/><circle fill="#b6875c" cx="30.80" cy="25.67" r="20.53"/><circle fill="#c2a9a5" cx="61.60" cy="46.20" r="30.80"/><circle fill="#d0d9d4" cx="35.93" cy="71.87" r="25.67"/><circle fill="#fc65a0" cx="71.87" cy="71.87" r="20.53"/><circle fill="#eb13a3" cx="61.60" cy="51.33" r="12.83"/></g><g transform="translate(0 160.67)"><rect fill="#b6875c" x="0" y="0" width="102.67" height="102.67"/><circle fill="#c2a9a5" cx="30.80" cy="25.67" r="20.53"/><circle fill="#d0d9d4" cx="61.60" cy="46.20" r="30.80"/><circle fill="#fc65a0" cx="35.93" cy="71.87" r="25.67"/><circle fill="#eb13a3" cx="71.87" cy="71.87" r="20.53"/><circle fill="#603423" cx="61.60" cy="51.33" r="12.83"/></g><g transform="translate(107.67 160.67)"><rect fill="#c2a9a5" x="0" y="0" width="102.67" height="102.67"/><circle fill="#d0d9d4" cx="30.80" cy="25.67" r="20.53"/><circle fill="#fc65a0" cx="61.60" cy="46.20" r="30.80"/><circle fill="#eb13a3" cx="35.93" cy="71.87" r="25.67"/><circle fill="#603423" cx="71.87" cy="71.87" r="20.53"/><circle fill="#b6875c" cx="61.60" cy="51.33" r="12.83"/></g><g transform="translate(215.33 160.67)"><rect fill="#d0d9d4" x="0" y="0" width="102.67" height="102.67"/><circle fill="#fc65a0" cx="30.80" cy="25.67" r="20.53"/><circle fill="#eb13a3" cx="61.60" cy="46.20" r="30.80"/><circle fill="#603423" cx="35.93" cy="71.87" r="25.67"/><circle fill="#b6875c" cx="71.87" cy="71.87" r="20.53"/><circle fill="#c2a9a5" cx="61.60" cy="51.33" r="12.83"/></g></svg>