<svg version="1.1" xmlns="http://www.w3.org/2000/svg" xmlns:xlink="http://www.w3.org/1999/xlink" width="318" height="263.33"><g transform="translate(24 24)"><circle fill="#0a041b" cx="0" cy="0" r="24"/><circle fill="#2a117e" cx="53" cy="0" r="24"/><circle fill="#240cf4" cx="106" cy="0" r="24"/><circle fill="#7d2ff4" cx="159" cy="0" r="24"/><circle fill="#eb72fc" cx="212" cy="0" r="24"/><circle fill="#fceffc" cx="265" cy="0" r="24"/></g><g transform="translate(0 53)"><rect fill="#0a041b" x="0" y="0" width="102.67" height="102.67"/><circle fill="#2a117e" cx="30.80" cy="25.67" r="20.53"/><circle fill="#240cf4" cx="61.60" cy="46.20" r="30.80"/><circle fill="#7d2ff4" cx="35.93" cy="71.87" r="25.67"/><circle fill="#eb72fc" cx="71.87" cy="71.87" r="20.53"/><circle fill="#fceffc" cx="61.60" cy="51.33" r="12.83"/></g><g transform="translate(107.67 53)"><rect fill="#2a117e" x="0" y="0" width="102.67" height="102.67"/><circle fill="#240cf4" cx="30.80" cy="25.67" r="20.53"/><circle fill="#7d2ff4" cx="61.60" cy="46.20" r="30.80"/><circle fill="#eb72fc" cx="35.93" cy="71.87" r="25.67"/><circle fill="#fceffc" cx="71.87" cy="71.87" r="20.53"/><circle fill="#0a041b" cx="61.60" cy="51.33" r="12.83"/></g><g transform="translate(215.33 53)"><rect fill="#240cf4" x="0" y="0" width="102.67" height="102.67"/><circle fill="#7d2ff4" cx="30.80" cy="25.67" r="20.53"/><circle fill="#eb72fc" cx="61.60" cy="46.20" r="30.80"/><circle fill="#fceffc" cx="35.93" cy="71.87" r="25.67"/><circle fill="#0a041b" cx="71.87" cy="71.87" r="20.53"/><circle fill="#2a117e" cx="61.60" cy="51.33" r="12.83"/></g><g transform="translate(0 160.67)"><rect fill="#7d2ff4" x="0" y="0" width="102.67" height="102.67"/><circle fill="#eb72fc" cx="30.80" cy="25.67" r="20.53"/><circle fill="#fceffc" cx="61.60" cy="46.20" r="30.80"/><circle fill="#0a041b" cx="35.93" cy="71.87" r="25.67"/><circle fill="#2a117e" cx="71.87" cy="71.87" r="20.53"/><circle fill="#240cf4" cx="61.60" cy="51.33" r="12.83"/></g><g transform="translate(107.67 160.67)"><rect fill="#eb72fc" x="0" y="0" width="102.67" height="102.67"/><circle fill="#fceffc" cx="30.80" cy="25.67" r="20.53"/><circle fill="#0a041b" cx="61.60" cy="46.20" r="30.80"/><circle fill="#2a117e" cx="35.93" cy="71.87" r="25.67"/><circle fill="#240cf4" cx="71.87" cy="71.87" r="20.53"/><circle fill="#7d2ff4" cx="61.60" cy="51.33" r="12.83"/></g><g transform="translate(215.33 160.67)"><rect fill="#fceffc" x="0" y="0" width="102.67" height="102.67"/><circle fill="#0a041b" cx="30.80" cy="25.67" r="20.53"/><circle fill="#2a117e" cx="61.60" cy="46.20" r="30.80"/><circle fill="#240cf4" cx="35.93" cy="71.87" r="25.67"/><circle fill="#7d2ff4" cx="71.87" cy="71.87" r="20.53"/><circle fill="#eb72fc" cx="61.60" cy="51.33" r="12.83"/></g></svg>