<svg version="1.1" xmlns="http://www.w3.org/2000/svg" xmlns:xlink="http://www.w3.org/1999/xlink" width="318" height="263.33"><g transform="translate(24 24)"><circle fill="#2d6253" cx="0" cy="0" r="24"/><circle fill="#62aec8" cx="53" cy="0" r="24"/><circle fill="#f16844" cx="106" cy="0" r="24"/><circle fill="#f3b436" cx="159" cy="0" r="24"/><circle fill="#d6ad9c" cx="212" cy="0" r="24"/><circle fill="#efe0cf" cx="265" cy="0" r="24"/></g><g transform="translate(0 53)"><rect fill="#2d6253" x="0" y="0" width="102.67" height="102.67"/><circle fill="#62aec8" cx="30.80" cy="25.67" r="20.53"/><circle fill="#f16844" cx="61.60" cy="46.20" r="30.80"/><circle fill="#f3b436" cx="35.93" cy="71.87" r="25.67"/><circle fill="#d6ad9c" cx="71.87" cy="71.87" r="20.53"/><circle fill="#efe0cf" cx="61.60" cy="51.33" r="12.83"/></g><g transform="translate(107.67 53)"><rect fill="#62aec8" x="0" y="0" width="102.67" height="102.67"/><circle fill="#f16844" cx="30.80" cy="25.67" r="20.53"/><circle fill="#f3b436" cx="61.60" cy="46.20" r="30.80"/><circle fill="#d6ad9c" cx="35.93" cy="71.87" r="25.67"/><circle fill="#efe0cf" cx="71.87" cy="71.87" r="20.53"/><circle fill="#2d6253" cx="61.60" cy="51.33" r="12.83"/></g><g transform="translate(215.33 53)"><rect fill="#f16844" x="0" y="0" width="102.67" height="102.67"/><circle fill="#f3b436" cx="30.80" cy="25.67" r="20.53"/><circle fill="#d6ad9c" cx="61.60" cy="46.20" r="30.80"/><circle fill="#efe0cf" cx="35.93" cy="71.87" r="25.67"/><circle fill="#2d6253" cx="71.87" cy="71.87" r="20.53"/><circle fill="#62aec8" cx="61.60" cy="51.33" r="12.83"/></g><g transform="translate(0 160.67)"><rect fill="#f3b436" x="0" y="0" width="102.67" height="102.67"/><circle fill="#d6ad9c" cx="30.80" cy="25.67" r="20.53"/><circle fill="#efe0cf" cx="61.60" cy="46.20" r="30.80"/><circle fill="#2d6253" cx="35.93" cy="71.87" r="25.67"/><circle fill="#62aec8" cx="71.87" cy="71.87" r="20.53"/><circle fill="#f16844" cx="61.60" cy="51.33" r="12.83"/></g><g transform="translate(107.67 160.67)"><rect fill="#d6ad9c" x="0" y="0" width="102.67" height="102.67"/><circle fill="#efe0cf" cx="30.80" cy="25.67" r="20.53"/><circle fill="#2d6253" cx="61.60" cy="46.20" r="30.80"/><circle fill="#62aec8" cx="35.93" cy="71.87" r="25.67"/><circle fill="#f16844" cx="71.87" cy="71.87" r="20.53"/><circle fill="#f3b436" cx="61.60" cy="51.33" r="12.83"/></g><g transform="translate(215.33 160.67)"><rect fill="#efe0cf" x="0" y="0" width="102.67" height="102.67"/><circle fill="#2d6253" cx="30.80" cy="25.67" r="20.53"/><circle fill="#62aec8" cx="61.60" cy="46.20" r="30.80"/><circle fill="#f16844" cx="35.93" cy="71.87" r="25.67"/><circle fill="#f3b436" cx="71.87" cy="71.87" r="20.53"/><circle fill="#d6ad9c" cx="61.60" cy="51.33" r="12.83"/></g></svg>