<svg version="1.1" xmlns="http://www.w3.org/2000/svg" xmlns:xlink="http://www.w3.org/1999/xlink" width="318" height="263.33"><g transform="translate(24 24)"><circle fill="#182d3a" cx="0" cy="0" r="24"/><circle fill="#65493b" cx="53" cy="0" r="24"/><circle fill="#897969" cx="106" cy="0" r="24"/><circle fill="#b4a692" cx="159" cy="0" r="24"/><circle fill="#d47827" cx="212" cy="0" r="24"/><circle fill="#facb8d" cx="265" cy="0" r="24"/></g><g transform="translate(0 53)"><rect fill="#182d3a" x="0" y="0" width="102.67" height="102.67"/><circle fill="#65493b" cx="30.80" cy="25.67" r="20.53"/><circle fill="#897969" cx="61.60" cy="46.20" r="30.80"/><circle fill="#b4a692" cx="35.93" cy="71.87" r="25.67"/><circle fill="#d47827" cx="71.87" cy="71.87" r="20.53"/><circle fill="#facb8d" cx="61.60" cy="51.33" r="12.83"/></g><g transform="translate(107.67 53)"><rect fill="#65493b" x="0" y="0" width="102.67" height="102.67"/><circle fill="#897969" cx="30.80" cy="25.67" r="20.53"/><circle fill="#b4a692" cx="61.60" cy="46.20" r="30.80"/><circle fill="#d47827" cx="35.93" cy="71.87" r="25.67"/><circle fill="#facb8d" cx="71.87" cy="71.87" r="20.53"/><circle fill="#182d3a" cx="61.60" cy="51.33" r="12.83"/></g><g transform="translate(215.33 53)"><rect fill="#897969" x="0" y="0" width="102.67" height="102.67"/><circle fill="#b4a692" cx="30.80" cy="25.67" r="20.53"/><circle fill="#d47827" cx="61.60" cy="46.20" r="30.80"/><circle fill="#facb8d" cx="35.93" cy="71.87" r="25.67"/><circle fill="#182d3a" cx="71.87" cy="71.87" r="20.53"/><circle fill="#65493b" cx="61.60" cy="51.33" r="12.83"/></g><g transform="translate(0 160.67)"><rect fill="#b4a692" x="0" y="0" width="102.67" height="102.67"/><circle fill="#d47827" cx="30.80" cy="25.67" r="20.53"/><circle fill="#facb8d" cx="61.60" cy="46.20" r="30.80"/><circle fill="#182d3a" cx="35.93" cy="71.87" r="25.67"/><circle fill="#65493b" cx="71.87" cy="71.87" r="20.53"/><circle fill="#897969" cx="61.60" cy="51.33" r="12.83"/></g><g transform="translate(107.67 160.67)"><rect fill="#d47827" x="0" y="0" width="102.67" height="102.67"/><circle fill="#facb8d" cx="30.80" cy="25.67" r="20.53"/><circle fill="#182d3a" cx="61.60" cy="46.20" r="30.80"/><circle fill="#65493b" cx="35.93" cy="71.87" r="25.67"/><circle fill="#897969" cx="71.87" cy="71.87" r="20.53"/><circle fill="#b4a692" cx="61.60" cy="51.33" r="12.83"/></g><g transform="translate(215.33 160.67)"><rect fill="#facb8d" x="0" y="0" width="102.67" height="102.67"/><circle fill="#182d3a" cx="30.80" cy="25.67" r="20.53"/><circle fill="#65493b" cx="61.60" cy="46.20" r="30.80"/><circle fill="#897969" cx="35.93" cy="71.87" r="25.67"/><circle fill="#b4a692" cx="71.87" cy="71.87" r="20.53"/><circle fill="#d47827" cx="61.60" cy="51.33" r="12.83"/></g></svg>