<svg version="1.1" xmlns="http://www.w3.org/2000/svg" xmlns:xlink="http://www.w3.org/1999/xlink" width="318" height="263.33"><g transform="translate(24 24)"><circle fill="#021436" cx="0" cy="0" r="24"/><circle fill="#0d2f73" cx="53" cy="0" r="24"/><circle fill="#0150a5" cx="106" cy="0" r="24"/><circle fill="#6e6249" cx="159" cy="0" r="24"/><circle fill="#dfd2ba" cx="212" cy="0" r="24"/><circle fill="#eba21a" cx="265" cy="0" r="24"/></g><g transform="translate(0 53)"><rect fill="#021436" x="0" y="0" width="102.67" height="102.67"/><circle fill="#0d2f73" cx="30.80" cy="25.67" r="20.53"/><circle fill="#0150a5" cx="61.60" cy="46.20" r="30.80"/><circle fill="#6e6249" cx="35.93" cy="71.87" r="25.67"/><circle fill="#dfd2ba" cx="71.87" cy="71.87" r="20.53"/><circle fill="#eba21a" cx="61.60" cy="51.33" r="12.83"/></g><g transform="translate(107.67 53)"><rect fill="#0d2f73" x="0" y="0" width="102.67" height="102.67"/><circle fill="#0150a5" cx="30.80" cy="25.67" r="20.53"/><circle fill="#6e6249" cx="61.60" cy="46.20" r="30.80"/><circle fill="#dfd2ba" cx="35.93" cy="71.87" r="25.67"/><circle fill="#eba21a" cx="71.87" cy="71.87" r="20.53"/><circle fill="#021436" cx="61.60" cy="51.33" r="12.83"/></g><g transform="translate(215.33 53)"><rect fill="#0150a5" x="0" y="0" width="102.67" height="102.67"/><circle fill="#6e6249" cx="30.80" cy="25.67" r="20.53"/><circle fill="#dfd2ba" cx="61.60" cy="46.20" r="30.80"/><circle fill="#eba21a" cx="35.93" cy="71.87" r="25.67"/><circle fill="#021436" cx="71.87" cy="71.87" r="20.53"/><circle fill="#0d2f73" cx="61.60" cy="51.33" r="12.83"/></g><g transform="translate(0 160.67)"><rect fill="#6e6249" x="0" y="0" width="102.67" height="102.67"/><circle fill="#dfd2ba" cx="30.80" cy="25.67" r="20.53"/><circle fill="#eba21a" cx="61.60" cy="46.20" r="30.80"/><circle fill="#021436" cx="35.93" cy="71.87" r="25.67"/><circle fill="#0d2f73" cx="71.87" cy="71.87" r="20.53"/><circle fill="#0150a5" cx="61.60" cy="51.33" r="12.83"/></g><g transform="translate(107.67 160.67)"><rect fill="#dfd2ba" x="0" y="0" width="102.67" height="102.67"/><circle fill="#eba21a" cx="30.80" cy="25.67" r="20.53"/><circle fill="#021436" cx="61.60" cy="46.20" r="30.80"/><circle fill="#0d2f73" cx="35.93" cy="71.87" r="25.67"/><circle fill="#0150a5" cx="71.87" cy="71.87" r="20.53"/><circle fill="#6e6249" cx="61.60" cy="51.33" r="12.83"/></g><g transform="translate(215.33 160.67)"><rect fill="#eba21a" x="0" y="0" width="102.67" height="102.67"/><circle fill="#021436" cx="30.80" cy="25.67" r="20.53"/><circle fill="#0d2f73" cx="61.60" cy="46.20" r="30.80"/><circle fill="#0150a5" cx="35.93" cy="71.87" r="25.67"/><circle fill="#6e6249" cx="71.87" cy="71.87" r="20.53"/><circle fill="#dfd2ba" cx="61.60" cy="51.33" r="12.83"/></g></svg>