<svg version="1.1" xmlns="http://www.w3.org/2000/svg" xmlns:xlink="http://www.w3.org/1999/xlink" width="318" height="263.33"><g transform="translate(24 24)"><circle fill="#e1176f" cx="0" cy="0" r="24"/><circle fill="#154e66" cx="53" cy="0" r="24"/><circle fill="#2f749e" cx="106" cy="0" r="24"/><circle fill="#519fdc" cx="159" cy="0" r="24"/><circle fill="#95a8bb" cx="212" cy="0" r="24"/><circle fill="#d3dfea" cx="265" cy="0" r="24"/></g><g transform="translate(0 53)"><rect fill="#e1176f" x="0" y="0" width="102.67" height="102.67"/><circle fill="#154e66" cx="30.80" cy="25.67" r="20.53"/><circle fill="#2f749e" cx="61.60" cy="46.20" r="30.80"/><circle fill="#519fdc" cx="35.93" cy="71.87" r="25.67"/><circle fill="#95a8bb" cx="71.87" cy="71.87" r="20.53"/><circle fill="#d3dfea" cx="61.60" cy="51.33" r="12.83"/></g><g transform="translate(107.67 53)"><rect fill="#154e66" x="0" y="0" width="102.67" height="102.67"/><circle fill="#2f749e" cx="30.80" cy="25.67" r="20.53"/><circle fill="#519fdc" cx="61.60" cy="46.20" r="30.80"/><circle fill="#95a8bb" cx="35.93" cy="71.87" r="25.67"/><circle fill="#d3dfea" cx="71.87" cy="71.87" r="20.53"/><circle fill="#e1176f" cx="61.60" cy="51.33" r="12.83"/></g><g transform="translate(215.33 53)"><rect fill="#2f749e" x="0" y="0" width="102.67" height="102.67"/><circle fill="#519fdc" cx="30.80" cy="25.67" r="20.53"/><circle fill="#95a8bb" cx="61.60" cy="46.20" r="30.80"/><circle fill="#d3dfea" cx="35.93" cy="71.87" r="25.67"/><circle fill="#e1176f" cx="71.87" cy="71.87" r="20.53"/><circle fill="#154e66" cx="61.60" cy="51.33" r="12.83"/></g><g transform="translate(0 160.67)"><rect fill="#519fdc" x="0" y="0" width="102.67" height="102.67"/><circle fill="#95a8bb" cx="30.80" cy="25.67" r="20.53"/><circle fill="#d3dfea" cx="61.60" cy="46.20" r="30.80"/><circle fill="#e1176f" cx="35.93" cy="71.87" r="25.67"/><circle fill="#154e66" cx="71.87" cy="71.87" r="20.53"/><circle fill="#2f749e" cx="61.60" cy="51.33" r="12.83"/></g><g transform="translate(107.67 160.67)"><rect fill="#95a8bb" x="0" y="0" width="102.67" height="102.67"/><circle fill="#d3dfea" cx="30.80" cy="25.67" r="20.53"/><circle fill="#e1176f" cx="61.60" cy="46.20" r="30.80"/><circle fill="#154e66" cx="35.93" cy="71.87" r="25.67"/><circle fill="#2f749e" cx="71.87" cy="71.87" r="20.53"/><circle fill="#519fdc" cx="61.60" cy="51.33" r="12.83"/></g><g transform="translate(215.33 160.67)"><rect fill="#d3dfea" x="0" y="0" width="102.67" height="102.67"/><circle fill="#e1176f" cx="30.80" cy="25.67" r="20.53"/><circle fill="#154e66" cx="61.60" cy="46.20" r="30.80"/><circle fill="#2f749e" cx="35.93" cy="71.87" r="25.67"/><circle fill="#519fdc" cx="71.87" cy="71.87" r="20.53"/><circle fill="#95a8bb" cx="61.60" cy="51.33" r="12.83"/></g></svg>