<svg version="1.1" xmlns="http://www.w3.org/2000/svg" xmlns:xlink="http://www.w3.org/1999/xlink" width="318" height="263.33"><g transform="translate(24 24)"><circle fill="#e8e1ec" cx="0" cy="0" r="24"/><circle fill="#dac9c6" cx="53" cy="0" r="24"/><circle fill="#c2a797" cx="106" cy="0" r="24"/><circle fill="#7cc992" cx="159" cy="0" r="24"/><circle fill="#0dae34" cx="212" cy="0" r="24"/><circle fill="#146318" cx="265" cy="0" r="24"/></g><g transform="translate(0 53)"><rect fill="#e8e1ec" x="0" y="0" width="102.67" height="102.67"/><circle fill="#dac9c6" cx="30.80" cy="25.67" r="20.53"/><circle fill="#c2a797" cx="61.60" cy="46.20" r="30.80"/><circle fill="#7cc992" cx="35.93" cy="71.87" r="25.67"/><circle fill="#0dae34" cx="71.87" cy="71.87" r="20.53"/><circle fill="#146318" cx="61.60" cy="51.33" r="12.83"/></g><g transform="translate(107.67 53)"><rect fill="#dac9c6" x="0" y="0" width="102.67" height="102.67"/><circle fill="#c2a797" cx="30.80" cy="25.67" r="20.53"/><circle fill="#7cc992" cx="61.60" cy="46.20" r="30.80"/><circle fill="#0dae34" cx="35.93" cy="71.87" r="25.67"/><circle fill="#146318" cx="71.87" cy="71.87" r="20.53"/><circle fill="#e8e1ec" cx="61.60" cy="51.33" r="12.83"/></g><g transform="translate(215.33 53)"><rect fill="#c2a797" x="0" y="0" width="102.67" height="102.67"/><circle fill="#7cc992" cx="30.80" cy="25.67" r="20.53"/><circle fill="#0dae34" cx="61.60" cy="46.20" r="30.80"/><circle fill="#146318" cx="35.93" cy="71.87" r="25.67"/><circle fill="#e8e1ec" cx="71.87" cy="71.87" r="20.53"/><circle fill="#dac9c6" cx="61.60" cy="51.33" r="12.83"/></g><g transform="translate(0 160.67)"><rect fill="#7cc992" x="0" y="0" width="102.67" height="102.67"/><circle fill="#0dae34" cx="30.80" cy="25.67" r="20.53"/><circle fill="#146318" cx="61.60" cy="46.20" r="30.80"/><circle fill="#e8e1ec" cx="35.93" cy="71.87" r="25.67"/><circle fill="#dac9c6" cx="71.87" cy="71.87" r="20.53"/><circle fill="#c2a797" cx="61.60" cy="51.33" r="12.83"/></g><g transform="translate(107.67 160.67)"><rect fill="#0dae34" x="0" y="0" width="102.67" height="102.67"/><circle fill="#146318" cx="30.80" cy="25.67" r="20.53"/><circle fill="#e8e1ec" cx="61.60" cy="46.20" r="30.80"/><circle fill="#dac9c6" cx="35.93" cy="71.87" r="25.67"/><circle fill="#c2a797" cx="71.87" cy="71.87" r="20.53"/><circle fill="#7cc992" cx="61.60" cy="51.33" r="12.83"/></g><g transform="translate(215.33 160.67)"><rect fill="#146318" x="0" y="0" width="102.67" height="102.67"/><circle fill="#e8e1ec" cx="30.80" cy="25.67" r="20.53"/><circle fill="#dac9c6" cx="61.60" cy="46.20" r="30.80"/><circle fill="#c2a797" cx="35.93" cy="71.87" r="25.67"/><circle fill="#7cc992" cx="71.87" cy="71.87" r="20.53"/><circle fill="#0dae34" cx="61.60" cy="51.33" r="12.83"/></g></svg>