<svg version="1.1" xmlns="http://www.w3.org/2000/svg" xmlns:xlink="http://www.w3.org/1999/xlink" width="318" height="263.33"><g transform="translate(24 24)"><circle fill="#231c0c" cx="0" cy="0" r="24"/><circle fill="#4f4824" cx="53" cy="0" r="24"/><circle fill="#5c6251" cx="106" cy="0" r="24"/><circle fill="#7f7e65" cx="159" cy="0" r="24"/><circle fill="#9d9e7b" cx="212" cy="0" r="24"/><circle fill="#d6c060" cx="265" cy="0" r="24"/></g><g transform="translate(0 53)"><rect fill="#231c0c" x="0" y="0" width="102.67" height="102.67"/><circle fill="#4f4824" cx="30.80" cy="25.67" r="20.53"/><circle fill="#5c6251" cx="61.60" cy="46.20" r="30.80"/><circle fill="#7f7e65" cx="35.93" cy="71.87" r="25.67"/><circle fill="#9d9e7b" cx="71.87" cy="71.87" r="20.53"/><circle fill="#d6c060" cx="61.60" cy="51.33" r="12.83"/></g><g transform="translate(107.67 53)"><rect fill="#4f4824" x="0" y="0" width="102.67" height="102.67"/><circle fill="#5c6251" cx="30.80" cy="25.67" r="20.53"/><circle fill="#7f7e65" cx="61.60" cy="46.20" r="30.80"/><circle fill="#9d9e7b" cx="35.93" cy="71.87" r="25.67"/><circle fill="#d6c060" cx="71.87" cy="71.87" r="20.53"/><circle fill="#231c0c" cx="61.60" cy="51.33" r="12.83"/></g><g transform="translate(215.33 53)"><rect fill="#5c6251" x="0" y="0" width="102.67" height="102.67"/><circle fill="#7f7e65" cx="30.80" cy="25.67" r="20.53"/><circle fill="#9d9e7b" cx="61.60" cy="46.20" r="30.80"/><circle fill="#d6c060" cx="35.93" cy="71.87" r="25.67"/><circle fill="#231c0c" cx="71.87" cy="71.87" r="20.53"/><circle fill="#4f4824" cx="61.60" cy="51.33" r="12.83"/></g><g transform="translate(0 160.67)"><rect fill="#7f7e65" x="0" y="0" width="102.67" height="102.67"/><circle fill="#9d9e7b" cx="30.80" cy="25.67" r="20.53"/><circle fill="#d6c060" cx="61.60" cy="46.20" r="30.80"/><circle fill="#231c0c" cx="35.93" cy="71.87" r="25.67"/><circle fill="#4f4824" cx="71.87" cy="71.87" r="20.53"/><circle fill="#5c6251" cx="61.60" cy="51.33" r="12.83"/></g><g transform="translate(107.67 160.67)"><rect fill="#9d9e7b" x="0" y="0" width="102.67" height="102.67"/><circle fill="#d6c060" cx="30.80" cy="25.67" r="20.53"/><circle fill="#231c0c" cx="61.60" cy="46.20" r="30.80"/><circle fill="#4f4824" cx="35.93" cy="71.87" r="25.67"/><circle fill="#5c6251" cx="71.87" cy="71.87" r="20.53"/><circle fill="#7f7e65" cx="61.60" cy="51.33" r="12.83"/></g><g transform="translate(215.33 160.67)"><rect fill="#d6c060" x="0" y="0" width="102.67" height="102.67"/><circle fill="#231c0c" cx="30.80" cy="25.67" r="20.53"/><circle fill="#4f4824" cx="61.60" cy="46.20" r="30.80"/><circle fill="#5c6251" cx="35.93" cy="71.87" r="25.67"/><circle fill="#7f7e65" cx="71.87" cy="71.87" r="20.53"/><circle fill="#9d9e7b" cx="61.60" cy="51.33" r="12.83"/></g></svg>