<svg version="1.1" xmlns="http://www.w3.org/2000/svg" xmlns:xlink="http://www.w3.org/1999/xlink" width="318" height="263.33"><g transform="translate(24 24)"><circle fill="#372b17" cx="0" cy="0" r="24"/><circle fill="#564830" cx="53" cy="0" r="24"/><circle fill="#937f72" cx="106" cy="0" r="24"/><circle fill="#b1985f" cx="159" cy="0" r="24"/><circle fill="#d2b357" cx="212" cy="0" r="24"/><circle fill="#df9829" cx="265" cy="0" r="24"/></g><g transform="translate(0 53)"><rect fill="#372b17" x="0" y="0" width="102.67" height="102.67"/><circle fill="#564830" cx="30.80" cy="25.67" r="20.53"/><circle fill="#937f72" cx="61.60" cy="46.20" r="30.80"/><circle fill="#b1985f" cx="35.93" cy="71.87" r="25.67"/><circle fill="#d2b357" cx="71.87" cy="71.87" r="20.53"/><circle fill="#df9829" cx="61.60" cy="51.33" r="12.83"/></g><g transform="translate(107.67 53)"><rect fill="#564830" x="0" y="0" width="102.67" height="102.67"/><circle fill="#937f72" cx="30.80" cy="25.67" r="20.53"/><circle fill="#b1985f" cx="61.60" cy="46.20" r="30.80"/><circle fill="#d2b357" cx="35.93" cy="71.87" r="25.67"/><circle fill="#df9829" cx="71.87" cy="71.87" r="20.53"/><circle fill="#372b17" cx="61.60" cy="51.33" r="12.83"/></g><g transform="translate(215.33 53)"><rect fill="#937f72" x="0" y="0" width="102.67" height="102.67"/><circle fill="#b1985f" cx="30.80" cy="25.67" r="20.53"/><circle fill="#d2b357" cx="61.60" cy="46.20" r="30.80"/><circle fill="#df9829" cx="35.93" cy="71.87" r="25.67"/><circle fill="#372b17" cx="71.87" cy="71.87" r="20.53"/><circle fill="#564830" cx="61.60" cy="51.33" r="12.83"/></g><g transform="translate(0 160.67)"><rect fill="#b1985f" x="0" y="0" width="102.67" height="102.67"/><circle fill="#d2b357" cx="30.80" cy="25.67" r="20.53"/><circle fill="#df9829" cx="61.60" cy="46.20" r="30.80"/><circle fill="#372b17" cx="35.93" cy="71.87" r="25.67"/><circle fill="#564830" cx="71.87" cy="71.87" r="20.53"/><circle fill="#937f72" cx="61.60" cy="51.33" r="12.83"/></g><g transform="translate(107.67 160.67)"><rect fill="#d2b357" x="0" y="0" width="102.67" height="102.67"/><circle fill="#df9829" cx="30.80" cy="25.67" r="20.53"/><circle fill="#372b17" cx="61.60" cy="46.20" r="30.80"/><circle fill="#564830" cx="35.93" cy="71.87" r="25.67"/><circle fill="#937f72" cx="71.87" cy="71.87" r="20.53"/><circle fill="#b1985f" cx="61.60" cy="51.33" r="12.83"/></g><g transform="translate(215.33 160.67)"><rect fill="#df9829" x="0" y="0" width="102.67" height="102.67"/><circle fill="#372b17" cx="30.80" cy="25.67" r="20.53"/><circle fill="#564830" cx="61.60" cy="46.20" r="30.80"/><circle fill="#937f72" cx="35.93" cy="71.87" r="25.67"/><circle fill="#b1985f" cx="71.87" cy="71.87" r="20.53"/><circle fill="#d2b357" cx="61.60" cy="51.33" r="12.83"/></g></svg>