<svg version="1.1" xmlns="http://www.w3.org/2000/svg" xmlns:xlink="http://www.w3.org/1999/xlink" width="318" height="263.33"><g transform="translate(24 24)"><circle fill="#f4db6a" cx="0" cy="0" r="24"/><circle fill="#fcebd9" cx="53" cy="0" r="24"/><circle fill="#f5af84" cx="106" cy="0" r="24"/><circle fill="#dea8b2" cx="159" cy="0" r="24"/><circle fill="#59295b" cx="212" cy="0" r="24"/><circle fill="#2d073a" cx="265" cy="0" r="24"/></g><g transform="translate(0 53)"><rect fill="#f4db6a" x="0" y="0" width="102.67" height="102.67"/><circle fill="#fcebd9" cx="30.80" cy="25.67" r="20.53"/><circle fill="#f5af84" cx="61.60" cy="46.20" r="30.80"/><circle fill="#dea8b2" cx="35.93" cy="71.87" r="25.67"/><circle fill="#59295b" cx="71.87" cy="71.87" r="20.53"/><circle fill="#2d073a" cx="61.60" cy="51.33" r="12.83"/></g><g transform="translate(107.67 53)"><rect fill="#fcebd9" x="0" y="0" width="102.67" height="102.67"/><circle fill="#f5af84" cx="30.80" cy="25.67" r="20.53"/><circle fill="#dea8b2" cx="61.60" cy="46.20" r="30.80"/><circle fill="#59295b" cx="35.93" cy="71.87" r="25.67"/><circle fill="#2d073a" cx="71.87" cy="71.87" r="20.53"/><circle fill="#f4db6a" cx="61.60" cy="51.33" r="12.83"/></g><g transform="translate(215.33 53)"><rect fill="#f5af84" x="0" y="0" width="102.67" height="102.67"/><circle fill="#dea8b2" cx="30.80" cy="25.67" r="20.53"/><circle fill="#59295b" cx="61.60" cy="46.20" r="30.80"/><circle fill="#2d073a" cx="35.93" cy="71.87" r="25.67"/><circle fill="#f4db6a" cx="71.87" cy="71.87" r="20.53"/><circle fill="#fcebd9" cx="61.60" cy="51.33" r="12.83"/></g><g transform="translate(0 160.67)"><rect fill="#dea8b2" x="0" y="0" width="102.67" height="102.67"/><circle fill="#59295b" cx="30.80" cy="25.67" r="20.53"/><circle fill="#2d073a" cx="61.60" cy="46.20" r="30.80"/><circle fill="#f4db6a" cx="35.93" cy="71.87" r="25.67"/><circle fill="#fcebd9" cx="71.87" cy="71.87" r="20.53"/><circle fill="#f5af84" cx="61.60" cy="51.33" r="12.83"/></g><g transform="translate(107.67 160.67)"><rect fill="#59295b" x="0" y="0" width="102.67" height="102.67"/><circle fill="#2d073a" cx="30.80" cy="25.67" r="20.53"/><circle fill="#f4db6a" cx="61.60" cy="46.20" r="30.80"/><circle fill="#fcebd9" cx="35.93" cy="71.87" r="25.67"/><circle fill="#f5af84" cx="71.87" cy="71.87" r="20.53"/><circle fill="#dea8b2" cx="61.60" cy="51.33" r="12.83"/></g><g transform="translate(215.33 160.67)"><rect fill="#2d073a" x="0" y="0" width="102.67" height="102.67"/><circle fill="#f4db6a" cx="30.80" cy="25.67" r="20.53"/><circle fill="#fcebd9" cx="61.60" cy="46.20" r="30.80"/><circle fill="#f5af84" cx="35.93" cy="71.87" r="25.67"/><circle fill="#dea8b2" cx="71.87" cy="71.87" r="20.53"/><circle fill="#59295b" cx="61.60" cy="51.33" r="12.83"/></g></svg>