<svg version="1.1" xmlns="http://www.w3.org/2000/svg" xmlns:xlink="http://www.w3.org/1999/xlink" width="318" height="263.33"><g transform="translate(24 24)"><circle fill="#396574" cx="0" cy="0" r="24"/><circle fill="#9bbed2" cx="53" cy="0" r="24"/><circle fill="#cfcfcd" cx="106" cy="0" r="24"/><circle fill="#ac938e" cx="159" cy="0" r="24"/><circle fill="#e82f36" cx="212" cy="0" r="24"/><circle fill="#d9d447" cx="265" cy="0" r="24"/></g><g transform="translate(0 53)"><rect fill="#396574" x="0" y="0" width="102.67" height="102.67"/><circle fill="#9bbed2" cx="30.80" cy="25.67" r="20.53"/><circle fill="#cfcfcd" cx="61.60" cy="46.20" r="30.80"/><circle fill="#ac938e" cx="35.93" cy="71.87" r="25.67"/><circle fill="#e82f36" cx="71.87" cy="71.87" r="20.53"/><circle fill="#d9d447" cx="61.60" cy="51.33" r="12.83"/></g><g transform="translate(107.67 53)"><rect fill="#9bbed2" x="0" y="0" width="102.67" height="102.67"/><circle fill="#cfcfcd" cx="30.80" cy="25.67" r="20.53"/><circle fill="#ac938e" cx="61.60" cy="46.20" r="30.80"/><circle fill="#e82f36" cx="35.93" cy="71.87" r="25.67"/><circle fill="#d9d447" cx="71.87" cy="71.87" r="20.53"/><circle fill="#396574" cx="61.60" cy="51.33" r="12.83"/></g><g transform="translate(215.33 53)"><rect fill="#cfcfcd" x="0" y="0" width="102.67" height="102.67"/><circle fill="#ac938e" cx="30.80" cy="25.67" r="20.53"/><circle fill="#e82f36" cx="61.60" cy="46.20" r="30.80"/><circle fill="#d9d447" cx="35.93" cy="71.87" r="25.67"/><circle fill="#396574" cx="71.87" cy="71.87" r="20.53"/><circle fill="#9bbed2" cx="61.60" cy="51.33" r="12.83"/></g><g transform="translate(0 160.67)"><rect fill="#ac938e" x="0" y="0" width="102.67" height="102.67"/><circle fill="#e82f36" cx="30.80" cy="25.67" r="20.53"/><circle fill="#d9d447" cx="61.60" cy="46.20" r="30.80"/><circle fill="#396574" cx="35.93" cy="71.87" r="25.67"/><circle fill="#9bbed2" cx="71.87" cy="71.87" r="20.53"/><circle fill="#cfcfcd" cx="61.60" cy="51.33" r="12.83"/></g><g transform="translate(107.67 160.67)"><rect fill="#e82f36" x="0" y="0" width="102.67" height="102.67"/><circle fill="#d9d447" cx="30.80" cy="25.67" r="20.53"/><circle fill="#396574" cx="61.60" cy="46.20" r="30.80"/><circle fill="#9bbed2" cx="35.93" cy="71.87" r="25.67"/><circle fill="#cfcfcd" cx="71.87" cy="71.87" r="20.53"/><circle fill="#ac938e" cx="61.60" cy="51.33" r="12.83"/></g><g transform="translate(215.33 160.67)"><rect fill="#d9d447" x="0" y="0" width="102.67" height="102.67"/><circle fill="#396574" cx="30.80" cy="25.67" r="20.53"/><circle fill="#9bbed2" cx="61.60" cy="46.20" r="30.80"/><circle fill="#cfcfcd" cx="35.93" cy="71.87" r="25.67"/><circle fill="#ac938e" cx="71.87" cy="71.87" r="20.53"/><circle fill="#e82f36" cx="61.60" cy="51.33" r="12.83"/></g></svg>