<svg version="1.1" xmlns="http://www.w3.org/2000/svg" xmlns:xlink="http://www.w3.org/1999/xlink" width="318" height="263.33"><g transform="translate(24 24)"><circle fill="#4e0101" cx="0" cy="0" r="24"/><circle fill="#850503" cx="53" cy="0" r="24"/><circle fill="#bb2609" cx="106" cy="0" r="24"/><circle fill="#e54908" cx="159" cy="0" r="24"/><circle fill="#f87c23" cx="212" cy="0" r="24"/><circle fill="#fdc170" cx="265" cy="0" r="24"/></g><g transform="translate(0 53)"><rect fill="#4e0101" x="0" y="0" width="102.67" height="102.67"/><circle fill="#850503" cx="30.80" cy="25.67" r="20.53"/><circle fill="#bb2609" cx="61.60" cy="46.20" r="30.80"/><circle fill="#e54908" cx="35.93" cy="71.87" r="25.67"/><circle fill="#f87c23" cx="71.87" cy="71.87" r="20.53"/><circle fill="#fdc170" cx="61.60" cy="51.33" r="12.83"/></g><g transform="translate(107.67 53)"><rect fill="#850503" x="0" y="0" width="102.67" height="102.67"/><circle fill="#bb2609" cx="30.80" cy="25.67" r="20.53"/><circle fill="#e54908" cx="61.60" cy="46.20" r="30.80"/><circle fill="#f87c23" cx="35.93" cy="71.87" r="25.67"/><circle fill="#fdc170" cx="71.87" cy="71.87" r="20.53"/><circle fill="#4e0101" cx="61.60" cy="51.33" r="12.83"/></g><g transform="translate(215.33 53)"><rect fill="#bb2609" x="0" y="0" width="102.67" height="102.67"/><circle fill="#e54908" cx="30.80" cy="25.67" r="20.53"/><circle fill="#f87c23" cx="61.60" cy="46.20" r="30.80"/><circle fill="#fdc170" cx="35.93" cy="71.87" r="25.67"/><circle fill="#4e0101" cx="71.87" cy="71.87" r="20.53"/><circle fill="#850503" cx="61.60" cy="51.33" r="12.83"/></g><g transform="translate(0 160.67)"><rect fill="#e54908" x="0" y="0" width="102.67" height="102.67"/><circle fill="#f87c23" cx="30.80" cy="25.67" r="20.53"/><circle fill="#fdc170" cx="61.60" cy="46.20" r="30.80"/><circle fill="#4e0101" cx="35.93" cy="71.87" r="25.67"/><circle fill="#850503" cx="71.87" cy="71.87" r="20.53"/><circle fill="#bb2609" cx="61.60" cy="51.33" r="12.83"/></g><g transform="translate(107.67 160.67)"><rect fill="#f87c23" x="0" y="0" width="102.67" height="102.67"/><circle fill="#fdc170" cx="30.80" cy="25.67" r="20.53"/><circle fill="#4e0101" cx="61.60" cy="46.20" r="30.80"/><circle fill="#850503" cx="35.93" cy="71.87" r="25.67"/><circle fill="#bb2609" cx="71.87" cy="71.87" r="20.53"/><circle fill="#e54908" cx="61.60" cy="51.33" r="12.83"/></g><g transform="translate(215.33 160.67)"><rect fill="#fdc170" x="0" y="0" width="102.67" height="102.67"/><circle fill="#4e0101" cx="30.80" cy="25.67" r="20.53"/><circle fill="#850503" cx="61.60" cy="46.20" r="30.80"/><circle fill="#bb2609" cx="35.93" cy="71.87" r="25.67"/><circle fill="#e54908" cx="71.87" cy="71.87" r="20.53"/><circle fill="#f87c23" cx="61.60" cy="51.33" r="12.83"/></g></svg>