<svg version="1.1" xmlns="http://www.w3.org/2000/svg" xmlns:xlink="http://www.w3.org/1999/xlink" width="318" height="263.33"><g transform="translate(24 24)"><circle fill="#303214" cx="0" cy="0" r="24"/><circle fill="#796e27" cx="53" cy="0" r="24"/><circle fill="#b2a14e" cx="106" cy="0" r="24"/><circle fill="#dfdfca" cx="159" cy="0" r="24"/><circle fill="#86b3cc" cx="212" cy="0" r="24"/><circle fill="#339fe4" cx="265" cy="0" r="24"/></g><g transform="translate(0 53)"><rect fill="#303214" x="0" y="0" width="102.67" height="102.67"/><circle fill="#796e27" cx="30.80" cy="25.67" r="20.53"/><circle fill="#b2a14e" cx="61.60" cy="46.20" r="30.80"/><circle fill="#dfdfca" cx="35.93" cy="71.87" r="25.67"/><circle fill="#86b3cc" cx="71.87" cy="71.87" r="20.53"/><circle fill="#339fe4" cx="61.60" cy="51.33" r="12.83"/></g><g transform="translate(107.67 53)"><rect fill="#796e27" x="0" y="0" width="102.67" height="102.67"/><circle fill="#b2a14e" cx="30.80" cy="25.67" r="20.53"/><circle fill="#dfdfca" cx="61.60" cy="46.20" r="30.80"/><circle fill="#86b3cc" cx="35.93" cy="71.87" r="25.67"/><circle fill="#339fe4" cx="71.87" cy="71.87" r="20.53"/><circle fill="#303214" cx="61.60" cy="51.33" r="12.83"/></g><g transform="translate(215.33 53)"><rect fill="#b2a14e" x="0" y="0" width="102.67" height="102.67"/><circle fill="#dfdfca" cx="30.80" cy="25.67" r="20.53"/><circle fill="#86b3cc" cx="61.60" cy="46.20" r="30.80"/><circle fill="#339fe4" cx="35.93" cy="71.87" r="25.67"/><circle fill="#303214" cx="71.87" cy="71.87" r="20.53"/><circle fill="#796e27" cx="61.60" cy="51.33" r="12.83"/></g><g transform="translate(0 160.67)"><rect fill="#dfdfca" x="0" y="0" width="102.67" height="102.67"/><circle fill="#86b3cc" cx="30.80" cy="25.67" r="20.53"/><circle fill="#339fe4" cx="61.60" cy="46.20" r="30.80"/><circle fill="#303214" cx="35.93" cy="71.87" r="25.67"/><circle fill="#796e27" cx="71.87" cy="71.87" r="20.53"/><circle fill="#b2a14e" cx="61.60" cy="51.33" r="12.83"/></g><g transform="translate(107.67 160.67)"><rect fill="#86b3cc" x="0" y="0" width="102.67" height="102.67"/><circle fill="#339fe4" cx="30.80" cy="25.67" r="20.53"/><circle fill="#303214" cx="61.60" cy="46.20" r="30.80"/><circle fill="#796e27" cx="35.93" cy="71.87" r="25.67"/><circle fill="#b2a14e" cx="71.87" cy="71.87" r="20.53"/><circle fill="#dfdfca" cx="61.60" cy="51.33" r="12.83"/></g><g transform="translate(215.33 160.67)"><rect fill="#339fe4" x="0" y="0" width="102.67" height="102.67"/><circle fill="#303214" cx="30.80" cy="25.67" r="20.53"/><circle fill="#796e27" cx="61.60" cy="46.20" r="30.80"/><circle fill="#b2a14e" cx="35.93" cy="71.87" r="25.67"/><circle fill="#dfdfca" cx="71.87" cy="71.87" r="20.53"/><circle fill="#86b3cc" cx="61.60" cy="51.33" r="12.83"/></g></svg>