<svg version="1.1" xmlns="http://www.w3.org/2000/svg" xmlns:xlink="http://www.w3.org/1999/xlink" width="318" height="263.33"><g transform="translate(24 24)"><circle fill="#2a1a0d" cx="0" cy="0" r="24"/><circle fill="#5c3511" cx="53" cy="0" r="24"/><circle fill="#8f5d28" cx="106" cy="0" r="24"/><circle fill="#b67e38" cx="159" cy="0" r="24"/><circle fill="#dfa44e" cx="212" cy="0" r="24"/><circle fill="#3e5e5f" cx="265" cy="0" r="24"/></g><g transform="translate(0 53)"><rect fill="#2a1a0d" x="0" y="0" width="102.67" height="102.67"/><circle fill="#5c3511" cx="30.80" cy="25.67" r="20.53"/><circle fill="#8f5d28" cx="61.60" cy="46.20" r="30.80"/><circle fill="#b67e38" cx="35.93" cy="71.87" r="25.67"/><circle fill="#dfa44e" cx="71.87" cy="71.87" r="20.53"/><circle fill="#3e5e5f" cx="61.60" cy="51.33" r="12.83"/></g><g transform="translate(107.67 53)"><rect fill="#5c3511" x="0" y="0" width="102.67" height="102.67"/><circle fill="#8f5d28" cx="30.80" cy="25.67" r="20.53"/><circle fill="#b67e38" cx="61.60" cy="46.20" r="30.80"/><circle fill="#dfa44e" cx="35.93" cy="71.87" r="25.67"/><circle fill="#3e5e5f" cx="71.87" cy="71.87" r="20.53"/><circle fill="#2a1a0d" cx="61.60" cy="51.33" r="12.83"/></g><g transform="translate(215.33 53)"><rect fill="#8f5d28" x="0" y="0" width="102.67" height="102.67"/><circle fill="#b67e38" cx="30.80" cy="25.67" r="20.53"/><circle fill="#dfa44e" cx="61.60" cy="46.20" r="30.80"/><circle fill="#3e5e5f" cx="35.93" cy="71.87" r="25.67"/><circle fill="#2a1a0d" cx="71.87" cy="71.87" r="20.53"/><circle fill="#5c3511" cx="61.60" cy="51.33" r="12.83"/></g><g transform="translate(0 160.67)"><rect fill="#b67e38" x="0" y="0" width="102.67" height="102.67"/><circle fill="#dfa44e" cx="30.80" cy="25.67" r="20.53"/><circle fill="#3e5e5f" cx="61.60" cy="46.20" r="30.80"/><circle fill="#2a1a0d" cx="35.93" cy="71.87" r="25.67"/><circle fill="#5c3511" cx="71.87" cy="71.87" r="20.53"/><circle fill="#8f5d28" cx="61.60" cy="51.33" r="12.83"/></g><g transform="translate(107.67 160.67)"><rect fill="#dfa44e" x="0" y="0" width="102.67" height="102.67"/><circle fill="#3e5e5f" cx="30.80" cy="25.67" r="20.53"/><circle fill="#2a1a0d" cx="61.60" cy="46.20" r="30.80"/><circle fill="#5c3511" cx="35.93" cy="71.87" r="25.67"/><circle fill="#8f5d28" cx="71.87" cy="71.87" r="20.53"/><circle fill="#b67e38" cx="61.60" cy="51.33" r="12.83"/></g><g transform="translate(215.33 160.67)"><rect fill="#3e5e5f" x="0" y="0" width="102.67" height="102.67"/><circle fill="#2a1a0d" cx="30.80" cy="25.67" r="20.53"/><circle fill="#5c3511" cx="61.60" cy="46.20" r="30.80"/><circle fill="#8f5d28" cx="35.93" cy="71.87" r="25.67"/><circle fill="#b67e38" cx="71.87" cy="71.87" r="20.53"/><circle fill="#dfa44e" cx="61.60" cy="51.33" r="12.83"/></g></svg>