<svg version="1.1" xmlns="http://www.w3.org/2000/svg" xmlns:xlink="http://www.w3.org/1999/xlink" width="318" height="263.33"><g transform="translate(24 24)"><circle fill="#5b403d" cx="0" cy="0" r="24"/><circle fill="#a55d47" cx="53" cy="0" r="24"/><circle fill="#cd744f" cx="106" cy="0" r="24"/><circle fill="#f3a45c" cx="159" cy="0" r="24"/><circle fill="#f3e2a7" cx="212" cy="0" r="24"/><circle fill="#f6f8ef" cx="265" cy="0" r="24"/></g><g transform="translate(0 53)"><rect fill="#5b403d" x="0" y="0" width="102.67" height="102.67"/><circle fill="#a55d47" cx="30.80" cy="25.67" r="20.53"/><circle fill="#cd744f" cx="61.60" cy="46.20" r="30.80"/><circle fill="#f3a45c" cx="35.93" cy="71.87" r="25.67"/><circle fill="#f3e2a7" cx="71.87" cy="71.87" r="20.53"/><circle fill="#f6f8ef" cx="61.60" cy="51.33" r="12.83"/></g><g transform="translate(107.67 53)"><rect fill="#a55d47" x="0" y="0" width="102.67" height="102.67"/><circle fill="#cd744f" cx="30.80" cy="25.67" r="20.53"/><circle fill="#f3a45c" cx="61.60" cy="46.20" r="30.80"/><circle fill="#f3e2a7" cx="35.93" cy="71.87" r="25.67"/><circle fill="#f6f8ef" cx="71.87" cy="71.87" r="20.53"/><circle fill="#5b403d" cx="61.60" cy="51.33" r="12.83"/></g><g transform="translate(215.33 53)"><rect fill="#cd744f" x="0" y="0" width="102.67" height="102.67"/><circle fill="#f3a45c" cx="30.80" cy="25.67" r="20.53"/><circle fill="#f3e2a7" cx="61.60" cy="46.20" r="30.80"/><circle fill="#f6f8ef" cx="35.93" cy="71.87" r="25.67"/><circle fill="#5b403d" cx="71.87" cy="71.87" r="20.53"/><circle fill="#a55d47" cx="61.60" cy="51.33" r="12.83"/></g><g transform="translate(0 160.67)"><rect fill="#f3a45c" x="0" y="0" width="102.67" height="102.67"/><circle fill="#f3e2a7" cx="30.80" cy="25.67" r="20.53"/><circle fill="#f6f8ef" cx="61.60" cy="46.20" r="30.80"/><circle fill="#5b403d" cx="35.93" cy="71.87" r="25.67"/><circle fill="#a55d47" cx="71.87" cy="71.87" r="20.53"/><circle fill="#cd744f" cx="61.60" cy="51.33" r="12.83"/></g><g transform="translate(107.67 160.67)"><rect fill="#f3e2a7" x="0" y="0" width="102.67" height="102.67"/><circle fill="#f6f8ef" cx="30.80" cy="25.67" r="20.53"/><circle fill="#5b403d" cx="61.60" cy="46.20" r="30.80"/><circle fill="#a55d47" cx="35.93" cy="71.87" r="25.67"/><circle fill="#cd744f" cx="71.87" cy="71.87" r="20.53"/><circle fill="#f3a45c" cx="61.60" cy="51.33" r="12.83"/></g><g transform="translate(215.33 160.67)"><rect fill="#f6f8ef" x="0" y="0" width="102.67" height="102.67"/><circle fill="#5b403d" cx="30.80" cy="25.67" r="20.53"/><circle fill="#a55d47" cx="61.60" cy="46.20" r="30.80"/><circle fill="#cd744f" cx="35.93" cy="71.87" r="25.67"/><circle fill="#f3a45c" cx="71.87" cy="71.87" r="20.53"/><circle fill="#f3e2a7" cx="61.60" cy="51.33" r="12.83"/></g></svg>