<svg version="1.1" xmlns="http://www.w3.org/2000/svg" xmlns:xlink="http://www.w3.org/1999/xlink" width="318" height="263.33"><g transform="translate(24 24)"><circle fill="#45edd3" cx="0" cy="0" r="24"/><circle fill="#fce12b" cx="53" cy="0" r="24"/><circle fill="#d82d22" cx="106" cy="0" r="24"/><circle fill="#e9aa8a" cx="159" cy="0" r="24"/><circle fill="#7c5766" cx="212" cy="0" r="24"/><circle fill="#2f1528" cx="265" cy="0" r="24"/></g><g transform="translate(0 53)"><rect fill="#45edd3" x="0" y="0" width="102.67" height="102.67"/><circle fill="#fce12b" cx="30.80" cy="25.67" r="20.53"/><circle fill="#d82d22" cx="61.60" cy="46.20" r="30.80"/><circle fill="#e9aa8a" cx="35.93" cy="71.87" r="25.67"/><circle fill="#7c5766" cx="71.87" cy="71.87" r="20.53"/><circle fill="#2f1528" cx="61.60" cy="51.33" r="12.83"/></g><g transform="translate(107.67 53)"><rect fill="#fce12b" x="0" y="0" width="102.67" height="102.67"/><circle fill="#d82d22" cx="30.80" cy="25.67" r="20.53"/><circle fill="#e9aa8a" cx="61.60" cy="46.20" r="30.80"/><circle fill="#7c5766" cx="35.93" cy="71.87" r="25.67"/><circle fill="#2f1528" cx="71.87" cy="71.87" r="20.53"/><circle fill="#45edd3" cx="61.60" cy="51.33" r="12.83"/></g><g transform="translate(215.33 53)"><rect fill="#d82d22" x="0" y="0" width="102.67" height="102.67"/><circle fill="#e9aa8a" cx="30.80" cy="25.67" r="20.53"/><circle fill="#7c5766" cx="61.60" cy="46.20" r="30.80"/><circle fill="#2f1528" cx="35.93" cy="71.87" r="25.67"/><circle fill="#45edd3" cx="71.87" cy="71.87" r="20.53"/><circle fill="#fce12b" cx="61.60" cy="51.33" r="12.83"/></g><g transform="translate(0 160.67)"><rect fill="#e9aa8a" x="0" y="0" width="102.67" height="102.67"/><circle fill="#7c5766" cx="30.80" cy="25.67" r="20.53"/><circle fill="#2f1528" cx="61.60" cy="46.20" r="30.80"/><circle fill="#45edd3" cx="35.93" cy="71.87" r="25.67"/><circle fill="#fce12b" cx="71.87" cy="71.87" r="20.53"/><circle fill="#d82d22" cx="61.60" cy="51.33" r="12.83"/></g><g transform="translate(107.67 160.67)"><rect fill="#7c5766" x="0" y="0" width="102.67" height="102.67"/><circle fill="#2f1528" cx="30.80" cy="25.67" r="20.53"/><circle fill="#45edd3" cx="61.60" cy="46.20" r="30.80"/><circle fill="#fce12b" cx="35.93" cy="71.87" r="25.67"/><circle fill="#d82d22" cx="71.87" cy="71.87" r="20.53"/><circle fill="#e9aa8a" cx="61.60" cy="51.33" r="12.83"/></g><g transform="translate(215.33 160.67)"><rect fill="#2f1528" x="0" y="0" width="102.67" height="102.67"/><circle fill="#45edd3" cx="30.80" cy="25.67" r="20.53"/><circle fill="#fce12b" cx="61.60" cy="46.20" r="30.80"/><circle fill="#d82d22" cx="35.93" cy="71.87" r="25.67"/><circle fill="#e9aa8a" cx="71.87" cy="71.87" r="20.53"/><circle fill="#7c5766" cx="61.60" cy="51.33" r="12.83"/></g></svg>