<svg version="1.1" xmlns="http://www.w3.org/2000/svg" xmlns:xlink="http://www.w3.org/1999/xlink" width="318" height="263.33"><g transform="translate(24 24)"><circle fill="#452531" cx="0" cy="0" r="24"/><circle fill="#596475" cx="53" cy="0" r="24"/><circle fill="#c27c70" cx="106" cy="0" r="24"/><circle fill="#89aead" cx="159" cy="0" r="24"/><circle fill="#2fdde4" cx="212" cy="0" r="24"/><circle fill="#91faf8" cx="265" cy="0" r="24"/></g><g transform="translate(0 53)"><rect fill="#452531" x="0" y="0" width="102.67" height="102.67"/><circle fill="#596475" cx="30.80" cy="25.67" r="20.53"/><circle fill="#c27c70" cx="61.60" cy="46.20" r="30.80"/><circle fill="#89aead" cx="35.93" cy="71.87" r="25.67"/><circle fill="#2fdde4" cx="71.87" cy="71.87" r="20.53"/><circle fill="#91faf8" cx="61.60" cy="51.33" r="12.83"/></g><g transform="translate(107.67 53)"><rect fill="#596475" x="0" y="0" width="102.67" height="102.67"/><circle fill="#c27c70" cx="30.80" cy="25.67" r="20.53"/><circle fill="#89aead" cx="61.60" cy="46.20" r="30.80"/><circle fill="#2fdde4" cx="35.93" cy="71.87" r="25.67"/><circle fill="#91faf8" cx="71.87" cy="71.87" r="20.53"/><circle fill="#452531" cx="61.60" cy="51.33" r="12.83"/></g><g transform="translate(215.33 53)"><rect fill="#c27c70" x="0" y="0" width="102.67" height="102.67"/><circle fill="#89aead" cx="30.80" cy="25.67" r="20.53"/><circle fill="#2fdde4" cx="61.60" cy="46.20" r="30.80"/><circle fill="#91faf8" cx="35.93" cy="71.87" r="25.67"/><circle fill="#452531" cx="71.87" cy="71.87" r="20.53"/><circle fill="#596475" cx="61.60" cy="51.33" r="12.83"/></g><g transform="translate(0 160.67)"><rect fill="#89aead" x="0" y="0" width="102.67" height="102.67"/><circle fill="#2fdde4" cx="30.80" cy="25.67" r="20.53"/><circle fill="#91faf8" cx="61.60" cy="46.20" r="30.80"/><circle fill="#452531" cx="35.93" cy="71.87" r="25.67"/><circle fill="#596475" cx="71.87" cy="71.87" r="20.53"/><circle fill="#c27c70" cx="61.60" cy="51.33" r="12.83"/></g><g transform="translate(107.67 160.67)"><rect fill="#2fdde4" x="0" y="0" width="102.67" height="102.67"/><circle fill="#91faf8" cx="30.80" cy="25.67" r="20.53"/><circle fill="#452531" cx="61.60" cy="46.20" r="30.80"/><circle fill="#596475" cx="35.93" cy="71.87" r="25.67"/><circle fill="#c27c70" cx="71.87" cy="71.87" r="20.53"/><circle fill="#89aead" cx="61.60" cy="51.33" r="12.83"/></g><g transform="translate(215.33 160.67)"><rect fill="#91faf8" x="0" y="0" width="102.67" height="102.67"/><circle fill="#452531" cx="30.80" cy="25.67" r="20.53"/><circle fill="#596475" cx="61.60" cy="46.20" r="30.80"/><circle fill="#c27c70" cx="35.93" cy="71.87" r="25.67"/><circle fill="#89aead" cx="71.87" cy="71.87" r="20.53"/><circle fill="#2fdde4" cx="61.60" cy="51.33" r="12.83"/></g></svg>