<svg version="1.1" xmlns="http://www.w3.org/2000/svg" xmlns:xlink="http://www.w3.org/1999/xlink" width="318" height="263.33"><g transform="translate(24 24)"><circle fill="#5b234c" cx="0" cy="0" r="24"/><circle fill="#cf6a5d" cx="53" cy="0" r="24"/><circle fill="#f49b6c" cx="106" cy="0" r="24"/><circle fill="#e6bdb2" cx="159" cy="0" r="24"/><circle fill="#feedd2" cx="212" cy="0" r="24"/><circle fill="#9396ae" cx="265" cy="0" r="24"/></g><g transform="translate(0 53)"><rect fill="#5b234c" x="0" y="0" width="102.67" height="102.67"/><circle fill="#cf6a5d" cx="30.80" cy="25.67" r="20.53"/><circle fill="#f49b6c" cx="61.60" cy="46.20" r="30.80"/><circle fill="#e6bdb2" cx="35.93" cy="71.87" r="25.67"/><circle fill="#feedd2" cx="71.87" cy="71.87" r="20.53"/><circle fill="#9396ae" cx="61.60" cy="51.33" r="12.83"/></g><g transform="translate(107.67 53)"><rect fill="#cf6a5d" x="0" y="0" width="102.67" height="102.67"/><circle fill="#f49b6c" cx="30.80" cy="25.67" r="20.53"/><circle fill="#e6bdb2" cx="61.60" cy="46.20" r="30.80"/><circle fill="#feedd2" cx="35.93" cy="71.87" r="25.67"/><circle fill="#9396ae" cx="71.87" cy="71.87" r="20.53"/><circle fill="#5b234c" cx="61.60" cy="51.33" r="12.83"/></g><g transform="translate(215.33 53)"><rect fill="#f49b6c" x="0" y="0" width="102.67" height="102.67"/><circle fill="#e6bdb2" cx="30.80" cy="25.67" r="20.53"/><circle fill="#feedd2" cx="61.60" cy="46.20" r="30.80"/><circle fill="#9396ae" cx="35.93" cy="71.87" r="25.67"/><circle fill="#5b234c" cx="71.87" cy="71.87" r="20.53"/><circle fill="#cf6a5d" cx="61.60" cy="51.33" r="12.83"/></g><g transform="translate(0 160.67)"><rect fill="#e6bdb2" x="0" y="0" width="102.67" height="102.67"/><circle fill="#feedd2" cx="30.80" cy="25.67" r="20.53"/><circle fill="#9396ae" cx="61.60" cy="46.20" r="30.80"/><circle fill="#5b234c" cx="35.93" cy="71.87" r="25.67"/><circle fill="#cf6a5d" cx="71.87" cy="71.87" r="20.53"/><circle fill="#f49b6c" cx="61.60" cy="51.33" r="12.83"/></g><g transform="translate(107.67 160.67)"><rect fill="#feedd2" x="0" y="0" width="102.67" height="102.67"/><circle fill="#9396ae" cx="30.80" cy="25.67" r="20.53"/><circle fill="#5b234c" cx="61.60" cy="46.20" r="30.80"/><circle fill="#cf6a5d" cx="35.93" cy="71.87" r="25.67"/><circle fill="#f49b6c" cx="71.87" cy="71.87" r="20.53"/><circle fill="#e6bdb2" cx="61.60" cy="51.33" r="12.83"/></g><g transform="translate(215.33 160.67)"><rect fill="#9396ae" x="0" y="0" width="102.67" height="102.67"/><circle fill="#5b234c" cx="30.80" cy="25.67" r="20.53"/><circle fill="#cf6a5d" cx="61.60" cy="46.20" r="30.80"/><circle fill="#f49b6c" cx="35.93" cy="71.87" r="25.67"/><circle fill="#e6bdb2" cx="71.87" cy="71.87" r="20.53"/><circle fill="#feedd2" cx="61.60" cy="51.33" r="12.83"/></g></svg>