<svg version="1.1" xmlns="http://www.w3.org/2000/svg" xmlns:xlink="http://www.w3.org/1999/xlink" width="318" height="263.33"><g transform="translate(24 24)"><circle fill="#0e0d11" cx="0" cy="0" r="24"/><circle fill="#313335" cx="53" cy="0" r="24"/><circle fill="#5a5751" cx="106" cy="0" r="24"/><circle fill="#8b7c68" cx="159" cy="0" r="24"/><circle fill="#c3a37c" cx="212" cy="0" r="24"/><circle fill="#f6e5bb" cx="265" cy="0" r="24"/></g><g transform="translate(0 53)"><rect fill="#0e0d11" x="0" y="0" width="102.67" height="102.67"/><circle fill="#313335" cx="30.80" cy="25.67" r="20.53"/><circle fill="#5a5751" cx="61.60" cy="46.20" r="30.80"/><circle fill="#8b7c68" cx="35.93" cy="71.87" r="25.67"/><circle fill="#c3a37c" cx="71.87" cy="71.87" r="20.53"/><circle fill="#f6e5bb" cx="61.60" cy="51.33" r="12.83"/></g><g transform="translate(107.67 53)"><rect fill="#313335" x="0" y="0" width="102.67" height="102.67"/><circle fill="#5a5751" cx="30.80" cy="25.67" r="20.53"/><circle fill="#8b7c68" cx="61.60" cy="46.20" r="30.80"/><circle fill="#c3a37c" cx="35.93" cy="71.87" r="25.67"/><circle fill="#f6e5bb" cx="71.87" cy="71.87" r="20.53"/><circle fill="#0e0d11" cx="61.60" cy="51.33" r="12.83"/></g><g transform="translate(215.33 53)"><rect fill="#5a5751" x="0" y="0" width="102.67" height="102.67"/><circle fill="#8b7c68" cx="30.80" cy="25.67" r="20.53"/><circle fill="#c3a37c" cx="61.60" cy="46.20" r="30.80"/><circle fill="#f6e5bb" cx="35.93" cy="71.87" r="25.67"/><circle fill="#0e0d11" cx="71.87" cy="71.87" r="20.53"/><circle fill="#313335" cx="61.60" cy="51.33" r="12.83"/></g><g transform="translate(0 160.67)"><rect fill="#8b7c68" x="0" y="0" width="102.67" height="102.67"/><circle fill="#c3a37c" cx="30.80" cy="25.67" r="20.53"/><circle fill="#f6e5bb" cx="61.60" cy="46.20" r="30.80"/><circle fill="#0e0d11" cx="35.93" cy="71.87" r="25.67"/><circle fill="#313335" cx="71.87" cy="71.87" r="20.53"/><circle fill="#5a5751" cx="61.60" cy="51.33" r="12.83"/></g><g transform="translate(107.67 160.67)"><rect fill="#c3a37c" x="0" y="0" width="102.67" height="102.67"/><circle fill="#f6e5bb" cx="30.80" cy="25.67" r="20.53"/><circle fill="#0e0d11" cx="61.60" cy="46.20" r="30.80"/><circle fill="#313335" cx="35.93" cy="71.87" r="25.67"/><circle fill="#5a5751" cx="71.87" cy="71.87" r="20.53"/><circle fill="#8b7c68" cx="61.60" cy="51.33" r="12.83"/></g><g transform="translate(215.33 160.67)"><rect fill="#f6e5bb" x="0" y="0" width="102.67" height="102.67"/><circle fill="#0e0d11" cx="30.80" cy="25.67" r="20.53"/><circle fill="#313335" cx="61.60" cy="46.20" r="30.80"/><circle fill="#5a5751" cx="35.93" cy="71.87" r="25.67"/><circle fill="#8b7c68" cx="71.87" cy="71.87" r="20.53"/><circle fill="#c3a37c" cx="61.60" cy="51.33" r="12.83"/></g></svg>