<svg version="1.1" xmlns="http://www.w3.org/2000/svg" xmlns:xlink="http://www.w3.org/1999/xlink" width="318" height="263.33"><g transform="translate(24 24)"><circle fill="#440f15" cx="0" cy="0" r="24"/><circle fill="#8f1925" cx="53" cy="0" r="24"/><circle fill="#c71c25" cx="106" cy="0" r="24"/><circle fill="#c7988c" cx="159" cy="0" r="24"/><circle fill="#dbc1cc" cx="212" cy="0" r="24"/><circle fill="#fef7ff" cx="265" cy="0" r="24"/></g><g transform="translate(0 53)"><rect fill="#440f15" x="0" y="0" width="102.67" height="102.67"/><circle fill="#8f1925" cx="30.80" cy="25.67" r="20.53"/><circle fill="#c71c25" cx="61.60" cy="46.20" r="30.80"/><circle fill="#c7988c" cx="35.93" cy="71.87" r="25.67"/><circle fill="#dbc1cc" cx="71.87" cy="71.87" r="20.53"/><circle fill="#fef7ff" cx="61.60" cy="51.33" r="12.83"/></g><g transform="translate(107.67 53)"><rect fill="#8f1925" x="0" y="0" width="102.67" height="102.67"/><circle fill="#c71c25" cx="30.80" cy="25.67" r="20.53"/><circle fill="#c7988c" cx="61.60" cy="46.20" r="30.80"/><circle fill="#dbc1cc" cx="35.93" cy="71.87" r="25.67"/><circle fill="#fef7ff" cx="71.87" cy="71.87" r="20.53"/><circle fill="#440f15" cx="61.60" cy="51.33" r="12.83"/></g><g transform="translate(215.33 53)"><rect fill="#c71c25" x="0" y="0" width="102.67" height="102.67"/><circle fill="#c7988c" cx="30.80" cy="25.67" r="20.53"/><circle fill="#dbc1cc" cx="61.60" cy="46.20" r="30.80"/><circle fill="#fef7ff" cx="35.93" cy="71.87" r="25.67"/><circle fill="#440f15" cx="71.87" cy="71.87" r="20.53"/><circle fill="#8f1925" cx="61.60" cy="51.33" r="12.83"/></g><g transform="translate(0 160.67)"><rect fill="#c7988c" x="0" y="0" width="102.67" height="102.67"/><circle fill="#dbc1cc" cx="30.80" cy="25.67" r="20.53"/><circle fill="#fef7ff" cx="61.60" cy="46.20" r="30.80"/><circle fill="#440f15" cx="35.93" cy="71.87" r="25.67"/><circle fill="#8f1925" cx="71.87" cy="71.87" r="20.53"/><circle fill="#c71c25" cx="61.60" cy="51.33" r="12.83"/></g><g transform="translate(107.67 160.67)"><rect fill="#dbc1cc" x="0" y="0" width="102.67" height="102.67"/><circle fill="#fef7ff" cx="30.80" cy="25.67" r="20.53"/><circle fill="#440f15" cx="61.60" cy="46.20" r="30.80"/><circle fill="#8f1925" cx="35.93" cy="71.87" r="25.67"/><circle fill="#c71c25" cx="71.87" cy="71.87" r="20.53"/><circle fill="#c7988c" cx="61.60" cy="51.33" r="12.83"/></g><g transform="translate(215.33 160.67)"><rect fill="#fef7ff" x="0" y="0" width="102.67" height="102.67"/><circle fill="#440f15" cx="30.80" cy="25.67" r="20.53"/><circle fill="#8f1925" cx="61.60" cy="46.20" r="30.80"/><circle fill="#c71c25" cx="35.93" cy="71.87" r="25.67"/><circle fill="#c7988c" cx="71.87" cy="71.87" r="20.53"/><circle fill="#dbc1cc" cx="61.60" cy="51.33" r="12.83"/></g></svg>