<svg version="1.1" xmlns="http://www.w3.org/2000/svg" xmlns:xlink="http://www.w3.org/1999/xlink" width="318" height="263.33"><g transform="translate(24 24)"><circle fill="#895f0d" cx="0" cy="0" r="24"/><circle fill="#212013" cx="53" cy="0" r="24"/><circle fill="#393a29" cx="106" cy="0" r="24"/><circle fill="#495d4e" cx="159" cy="0" r="24"/><circle fill="#637868" cx="212" cy="0" r="24"/><circle fill="#889487" cx="265" cy="0" r="24"/></g><g transform="translate(0 53)"><rect fill="#895f0d" x="0" y="0" width="102.67" height="102.67"/><circle fill="#212013" cx="30.80" cy="25.67" r="20.53"/><circle fill="#393a29" cx="61.60" cy="46.20" r="30.80"/><circle fill="#495d4e" cx="35.93" cy="71.87" r="25.67"/><circle fill="#637868" cx="71.87" cy="71.87" r="20.53"/><circle fill="#889487" cx="61.60" cy="51.33" r="12.83"/></g><g transform="translate(107.67 53)"><rect fill="#212013" x="0" y="0" width="102.67" height="102.67"/><circle fill="#393a29" cx="30.80" cy="25.67" r="20.53"/><circle fill="#495d4e" cx="61.60" cy="46.20" r="30.80"/><circle fill="#637868" cx="35.93" cy="71.87" r="25.67"/><circle fill="#889487" cx="71.87" cy="71.87" r="20.53"/><circle fill="#895f0d" cx="61.60" cy="51.33" r="12.83"/></g><g transform="translate(215.33 53)"><rect fill="#393a29" x="0" y="0" width="102.67" height="102.67"/><circle fill="#495d4e" cx="30.80" cy="25.67" r="20.53"/><circle fill="#637868" cx="61.60" cy="46.20" r="30.80"/><circle fill="#889487" cx="35.93" cy="71.87" r="25.67"/><circle fill="#895f0d" cx="71.87" cy="71.87" r="20.53"/><circle fill="#212013" cx="61.60" cy="51.33" r="12.83"/></g><g transform="translate(0 160.67)"><rect fill="#495d4e" x="0" y="0" width="102.67" height="102.67"/><circle fill="#637868" cx="30.80" cy="25.67" r="20.53"/><circle fill="#889487" cx="61.60" cy="46.20" r="30.80"/><circle fill="#895f0d" cx="35.93" cy="71.87" r="25.67"/><circle fill="#212013" cx="71.87" cy="71.87" r="20.53"/><circle fill="#393a29" cx="61.60" cy="51.33" r="12.83"/></g><g transform="translate(107.67 160.67)"><rect fill="#637868" x="0" y="0" width="102.67" height="102.67"/><circle fill="#889487" cx="30.80" cy="25.67" r="20.53"/><circle fill="#895f0d" cx="61.60" cy="46.20" r="30.80"/><circle fill="#212013" cx="35.93" cy="71.87" r="25.67"/><circle fill="#393a29" cx="71.87" cy="71.87" r="20.53"/><circle fill="#495d4e" cx="61.60" cy="51.33" r="12.83"/></g><g transform="translate(215.33 160.67)"><rect fill="#889487" x="0" y="0" width="102.67" height="102.67"/><circle fill="#895f0d" cx="30.80" cy="25.67" r="20.53"/><circle fill="#212013" cx="61.60" cy="46.20" r="30.80"/><circle fill="#393a29" cx="35.93" cy="71.87" r="25.67"/><circle fill="#495d4e" cx="71.87" cy="71.87" r="20.53"/><circle fill="#637868" cx="61.60" cy="51.33" r="12.83"/></g></svg>