<svg version="1.1" xmlns="http://www.w3.org/2000/svg" xmlns:xlink="http://www.w3.org/1999/xlink" width="318" height="263.33"><g transform="translate(24 24)"><circle fill="#b61b15" cx="0" cy="0" r="24"/><circle fill="#a98a77" cx="53" cy="0" r="24"/><circle fill="#b5cce3" cx="106" cy="0" r="24"/><circle fill="#0c7faa" cx="159" cy="0" r="24"/><circle fill="#0b133a" cx="212" cy="0" r="24"/><circle fill="#443342" cx="265" cy="0" r="24"/></g><g transform="translate(0 53)"><rect fill="#b61b15" x="0" y="0" width="102.67" height="102.67"/><circle fill="#a98a77" cx="30.80" cy="25.67" r="20.53"/><circle fill="#b5cce3" cx="61.60" cy="46.20" r="30.80"/><circle fill="#0c7faa" cx="35.93" cy="71.87" r="25.67"/><circle fill="#0b133a" cx="71.87" cy="71.87" r="20.53"/><circle fill="#443342" cx="61.60" cy="51.33" r="12.83"/></g><g transform="translate(107.67 53)"><rect fill="#a98a77" x="0" y="0" width="102.67" height="102.67"/><circle fill="#b5cce3" cx="30.80" cy="25.67" r="20.53"/><circle fill="#0c7faa" cx="61.60" cy="46.20" r="30.80"/><circle fill="#0b133a" cx="35.93" cy="71.87" r="25.67"/><circle fill="#443342" cx="71.87" cy="71.87" r="20.53"/><circle fill="#b61b15" cx="61.60" cy="51.33" r="12.83"/></g><g transform="translate(215.33 53)"><rect fill="#b5cce3" x="0" y="0" width="102.67" height="102.67"/><circle fill="#0c7faa" cx="30.80" cy="25.67" r="20.53"/><circle fill="#0b133a" cx="61.60" cy="46.20" r="30.80"/><circle fill="#443342" cx="35.93" cy="71.87" r="25.67"/><circle fill="#b61b15" cx="71.87" cy="71.87" r="20.53"/><circle fill="#a98a77" cx="61.60" cy="51.33" r="12.83"/></g><g transform="translate(0 160.67)"><rect fill="#0c7faa" x="0" y="0" width="102.67" height="102.67"/><circle fill="#0b133a" cx="30.80" cy="25.67" r="20.53"/><circle fill="#443342" cx="61.60" cy="46.20" r="30.80"/><circle fill="#b61b15" cx="35.93" cy="71.87" r="25.67"/><circle fill="#a98a77" cx="71.87" cy="71.87" r="20.53"/><circle fill="#b5cce3" cx="61.60" cy="51.33" r="12.83"/></g><g transform="translate(107.67 160.67)"><rect fill="#0b133a" x="0" y="0" width="102.67" height="102.67"/><circle fill="#443342" cx="30.80" cy="25.67" r="20.53"/><circle fill="#b61b15" cx="61.60" cy="46.20" r="30.80"/><circle fill="#a98a77" cx="35.93" cy="71.87" r="25.67"/><circle fill="#b5cce3" cx="71.87" cy="71.87" r="20.53"/><circle fill="#0c7faa" cx="61.60" cy="51.33" r="12.83"/></g><g transform="translate(215.33 160.67)"><rect fill="#443342" x="0" y="0" width="102.67" height="102.67"/><circle fill="#b61b15" cx="30.80" cy="25.67" r="20.53"/><circle fill="#a98a77" cx="61.60" cy="46.20" r="30.80"/><circle fill="#b5cce3" cx="35.93" cy="71.87" r="25.67"/><circle fill="#0c7faa" cx="71.87" cy="71.87" r="20.53"/><circle fill="#0b133a" cx="61.60" cy="51.33" r="12.83"/></g></svg>