<svg version="1.1" xmlns="http://www.w3.org/2000/svg" xmlns:xlink="http://www.w3.org/1999/xlink" width="318" height="263.33"><g transform="translate(24 24)"><circle fill="#060101" cx="0" cy="0" r="24"/><circle fill="#4e1905" cx="53" cy="0" r="24"/><circle fill="#f56811" cx="106" cy="0" r="24"/><circle fill="#ff8c2e" cx="159" cy="0" r="24"/><circle fill="#d4a58a" cx="212" cy="0" r="24"/><circle fill="#fde7db" cx="265" cy="0" r="24"/></g><g transform="translate(0 53)"><rect fill="#060101" x="0" y="0" width="102.67" height="102.67"/><circle fill="#4e1905" cx="30.80" cy="25.67" r="20.53"/><circle fill="#f56811" cx="61.60" cy="46.20" r="30.80"/><circle fill="#ff8c2e" cx="35.93" cy="71.87" r="25.67"/><circle fill="#d4a58a" cx="71.87" cy="71.87" r="20.53"/><circle fill="#fde7db" cx="61.60" cy="51.33" r="12.83"/></g><g transform="translate(107.67 53)"><rect fill="#4e1905" x="0" y="0" width="102.67" height="102.67"/><circle fill="#f56811" cx="30.80" cy="25.67" r="20.53"/><circle fill="#ff8c2e" cx="61.60" cy="46.20" r="30.80"/><circle fill="#d4a58a" cx="35.93" cy="71.87" r="25.67"/><circle fill="#fde7db" cx="71.87" cy="71.87" r="20.53"/><circle fill="#060101" cx="61.60" cy="51.33" r="12.83"/></g><g transform="translate(215.33 53)"><rect fill="#f56811" x="0" y="0" width="102.67" height="102.67"/><circle fill="#ff8c2e" cx="30.80" cy="25.67" r="20.53"/><circle fill="#d4a58a" cx="61.60" cy="46.20" r="30.80"/><circle fill="#fde7db" cx="35.93" cy="71.87" r="25.67"/><circle fill="#060101" cx="71.87" cy="71.87" r="20.53"/><circle fill="#4e1905" cx="61.60" cy="51.33" r="12.83"/></g><g transform="translate(0 160.67)"><rect fill="#ff8c2e" x="0" y="0" width="102.67" height="102.67"/><circle fill="#d4a58a" cx="30.80" cy="25.67" r="20.53"/><circle fill="#fde7db" cx="61.60" cy="46.20" r="30.80"/><circle fill="#060101" cx="35.93" cy="71.87" r="25.67"/><circle fill="#4e1905" cx="71.87" cy="71.87" r="20.53"/><circle fill="#f56811" cx="61.60" cy="51.33" r="12.83"/></g><g transform="translate(107.67 160.67)"><rect fill="#d4a58a" x="0" y="0" width="102.67" height="102.67"/><circle fill="#fde7db" cx="30.80" cy="25.67" r="20.53"/><circle fill="#060101" cx="61.60" cy="46.20" r="30.80"/><circle fill="#4e1905" cx="35.93" cy="71.87" r="25.67"/><circle fill="#f56811" cx="71.87" cy="71.87" r="20.53"/><circle fill="#ff8c2e" cx="61.60" cy="51.33" r="12.83"/></g><g transform="translate(215.33 160.67)"><rect fill="#fde7db" x="0" y="0" width="102.67" height="102.67"/><circle fill="#060101" cx="30.80" cy="25.67" r="20.53"/><circle fill="#4e1905" cx="61.60" cy="46.20" r="30.80"/><circle fill="#f56811" cx="35.93" cy="71.87" r="25.67"/><circle fill="#ff8c2e" cx="71.87" cy="71.87" r="20.53"/><circle fill="#d4a58a" cx="61.60" cy="51.33" r="12.83"/></g></svg>