<svg version="1.1" xmlns="http://www.w3.org/2000/svg" xmlns:xlink="http://www.w3.org/1999/xlink" width="318" height="263.33"><g transform="translate(24 24)"><circle fill="#892e33" cx="0" cy="0" r="24"/><circle fill="#bf9081" cx="53" cy="0" r="24"/><circle fill="#f4a522" cx="106" cy="0" r="24"/><circle fill="#10343e" cx="159" cy="0" r="24"/><circle fill="#5e89a2" cx="212" cy="0" r="24"/><circle fill="#bec4cf" cx="265" cy="0" r="24"/></g><g transform="translate(0 53)"><rect fill="#892e33" x="0" y="0" width="102.67" height="102.67"/><circle fill="#bf9081" cx="30.80" cy="25.67" r="20.53"/><circle fill="#f4a522" cx="61.60" cy="46.20" r="30.80"/><circle fill="#10343e" cx="35.93" cy="71.87" r="25.67"/><circle fill="#5e89a2" cx="71.87" cy="71.87" r="20.53"/><circle fill="#bec4cf" cx="61.60" cy="51.33" r="12.83"/></g><g transform="translate(107.67 53)"><rect fill="#bf9081" x="0" y="0" width="102.67" height="102.67"/><circle fill="#f4a522" cx="30.80" cy="25.67" r="20.53"/><circle fill="#10343e" cx="61.60" cy="46.20" r="30.80"/><circle fill="#5e89a2" cx="35.93" cy="71.87" r="25.67"/><circle fill="#bec4cf" cx="71.87" cy="71.87" r="20.53"/><circle fill="#892e33" cx="61.60" cy="51.33" r="12.83"/></g><g transform="translate(215.33 53)"><rect fill="#f4a522" x="0" y="0" width="102.67" height="102.67"/><circle fill="#10343e" cx="30.80" cy="25.67" r="20.53"/><circle fill="#5e89a2" cx="61.60" cy="46.20" r="30.80"/><circle fill="#bec4cf" cx="35.93" cy="71.87" r="25.67"/><circle fill="#892e33" cx="71.87" cy="71.87" r="20.53"/><circle fill="#bf9081" cx="61.60" cy="51.33" r="12.83"/></g><g transform="translate(0 160.67)"><rect fill="#10343e" x="0" y="0" width="102.67" height="102.67"/><circle fill="#5e89a2" cx="30.80" cy="25.67" r="20.53"/><circle fill="#bec4cf" cx="61.60" cy="46.20" r="30.80"/><circle fill="#892e33" cx="35.93" cy="71.87" r="25.67"/><circle fill="#bf9081" cx="71.87" cy="71.87" r="20.53"/><circle fill="#f4a522" cx="61.60" cy="51.33" r="12.83"/></g><g transform="translate(107.67 160.67)"><rect fill="#5e89a2" x="0" y="0" width="102.67" height="102.67"/><circle fill="#bec4cf" cx="30.80" cy="25.67" r="20.53"/><circle fill="#892e33" cx="61.60" cy="46.20" r="30.80"/><circle fill="#bf9081" cx="35.93" cy="71.87" r="25.67"/><circle fill="#f4a522" cx="71.87" cy="71.87" r="20.53"/><circle fill="#10343e" cx="61.60" cy="51.33" r="12.83"/></g><g transform="translate(215.33 160.67)"><rect fill="#bec4cf" x="0" y="0" width="102.67" height="102.67"/><circle fill="#892e33" cx="30.80" cy="25.67" r="20.53"/><circle fill="#bf9081" cx="61.60" cy="46.20" r="30.80"/><circle fill="#f4a522" cx="35.93" cy="71.87" r="25.67"/><circle fill="#10343e" cx="71.87" cy="71.87" r="20.53"/><circle fill="#5e89a2" cx="61.60" cy="51.33" r="12.83"/></g></svg>