<svg version="1.1" xmlns="http://www.w3.org/2000/svg" xmlns:xlink="http://www.w3.org/1999/xlink" width="318" height="263.33"><g transform="translate(24 24)"><circle fill="#cfcfcf" cx="0" cy="0" r="24"/><circle fill="#92877f" cx="53" cy="0" r="24"/><circle fill="#2a2621" cx="106" cy="0" r="24"/><circle fill="#0d4e4b" cx="159" cy="0" r="24"/><circle fill="#228d8a" cx="212" cy="0" r="24"/><circle fill="#42aca7" cx="265" cy="0" r="24"/></g><g transform="translate(0 53)"><rect fill="#cfcfcf" x="0" y="0" width="102.67" height="102.67"/><circle fill="#92877f" cx="30.80" cy="25.67" r="20.53"/><circle fill="#2a2621" cx="61.60" cy="46.20" r="30.80"/><circle fill="#0d4e4b" cx="35.93" cy="71.87" r="25.67"/><circle fill="#228d8a" cx="71.87" cy="71.87" r="20.53"/><circle fill="#42aca7" cx="61.60" cy="51.33" r="12.83"/></g><g transform="translate(107.67 53)"><rect fill="#92877f" x="0" y="0" width="102.67" height="102.67"/><circle fill="#2a2621" cx="30.80" cy="25.67" r="20.53"/><circle fill="#0d4e4b" cx="61.60" cy="46.20" r="30.80"/><circle fill="#228d8a" cx="35.93" cy="71.87" r="25.67"/><circle fill="#42aca7" cx="71.87" cy="71.87" r="20.53"/><circle fill="#cfcfcf" cx="61.60" cy="51.33" r="12.83"/></g><g transform="translate(215.33 53)"><rect fill="#2a2621" x="0" y="0" width="102.67" height="102.67"/><circle fill="#0d4e4b" cx="30.80" cy="25.67" r="20.53"/><circle fill="#228d8a" cx="61.60" cy="46.20" r="30.80"/><circle fill="#42aca7" cx="35.93" cy="71.87" r="25.67"/><circle fill="#cfcfcf" cx="71.87" cy="71.87" r="20.53"/><circle fill="#92877f" cx="61.60" cy="51.33" r="12.83"/></g><g transform="translate(0 160.67)"><rect fill="#0d4e4b" x="0" y="0" width="102.67" height="102.67"/><circle fill="#228d8a" cx="30.80" cy="25.67" r="20.53"/><circle fill="#42aca7" cx="61.60" cy="46.20" r="30.80"/><circle fill="#cfcfcf" cx="35.93" cy="71.87" r="25.67"/><circle fill="#92877f" cx="71.87" cy="71.87" r="20.53"/><circle fill="#2a2621" cx="61.60" cy="51.33" r="12.83"/></g><g transform="translate(107.67 160.67)"><rect fill="#228d8a" x="0" y="0" width="102.67" height="102.67"/><circle fill="#42aca7" cx="30.80" cy="25.67" r="20.53"/><circle fill="#cfcfcf" cx="61.60" cy="46.20" r="30.80"/><circle fill="#92877f" cx="35.93" cy="71.87" r="25.67"/><circle fill="#2a2621" cx="71.87" cy="71.87" r="20.53"/><circle fill="#0d4e4b" cx="61.60" cy="51.33" r="12.83"/></g><g transform="translate(215.33 160.67)"><rect fill="#42aca7" x="0" y="0" width="102.67" height="102.67"/><circle fill="#cfcfcf" cx="30.80" cy="25.67" r="20.53"/><circle fill="#92877f" cx="61.60" cy="46.20" r="30.80"/><circle fill="#2a2621" cx="35.93" cy="71.87" r="25.67"/><circle fill="#0d4e4b" cx="71.87" cy="71.87" r="20.53"/><circle fill="#228d8a" cx="61.60" cy="51.33" r="12.83"/></g></svg>