<svg version="1.1" xmlns="http://www.w3.org/2000/svg" xmlns:xlink="http://www.w3.org/1999/xlink" width="318" height="263.33"><g transform="translate(24 24)"><circle fill="#686c6a" cx="0" cy="0" r="24"/><circle fill="#93867f" cx="53" cy="0" r="24"/><circle fill="#cca897" cx="106" cy="0" r="24"/><circle fill="#d4590f" cx="159" cy="0" r="24"/><circle fill="#772e0f" cx="212" cy="0" r="24"/><circle fill="#3e2110" cx="265" cy="0" r="24"/></g><g transform="translate(0 53)"><rect fill="#686c6a" x="0" y="0" width="102.67" height="102.67"/><circle fill="#93867f" cx="30.80" cy="25.67" r="20.53"/><circle fill="#cca897" cx="61.60" cy="46.20" r="30.80"/><circle fill="#d4590f" cx="35.93" cy="71.87" r="25.67"/><circle fill="#772e0f" cx="71.87" cy="71.87" r="20.53"/><circle fill="#3e2110" cx="61.60" cy="51.33" r="12.83"/></g><g transform="translate(107.67 53)"><rect fill="#93867f" x="0" y="0" width="102.67" height="102.67"/><circle fill="#cca897" cx="30.80" cy="25.67" r="20.53"/><circle fill="#d4590f" cx="61.60" cy="46.20" r="30.80"/><circle fill="#772e0f" cx="35.93" cy="71.87" r="25.67"/><circle fill="#3e2110" cx="71.87" cy="71.87" r="20.53"/><circle fill="#686c6a" cx="61.60" cy="51.33" r="12.83"/></g><g transform="translate(215.33 53)"><rect fill="#cca897" x="0" y="0" width="102.67" height="102.67"/><circle fill="#d4590f" cx="30.80" cy="25.67" r="20.53"/><circle fill="#772e0f" cx="61.60" cy="46.20" r="30.80"/><circle fill="#3e2110" cx="35.93" cy="71.87" r="25.67"/><circle fill="#686c6a" cx="71.87" cy="71.87" r="20.53"/><circle fill="#93867f" cx="61.60" cy="51.33" r="12.83"/></g><g transform="translate(0 160.67)"><rect fill="#d4590f" x="0" y="0" width="102.67" height="102.67"/><circle fill="#772e0f" cx="30.80" cy="25.67" r="20.53"/><circle fill="#3e2110" cx="61.60" cy="46.20" r="30.80"/><circle fill="#686c6a" cx="35.93" cy="71.87" r="25.67"/><circle fill="#93867f" cx="71.87" cy="71.87" r="20.53"/><circle fill="#cca897" cx="61.60" cy="51.33" r="12.83"/></g><g transform="translate(107.67 160.67)"><rect fill="#772e0f" x="0" y="0" width="102.67" height="102.67"/><circle fill="#3e2110" cx="30.80" cy="25.67" r="20.53"/><circle fill="#686c6a" cx="61.60" cy="46.20" r="30.80"/><circle fill="#93867f" cx="35.93" cy="71.87" r="25.67"/><circle fill="#cca897" cx="71.87" cy="71.87" r="20.53"/><circle fill="#d4590f" cx="61.60" cy="51.33" r="12.83"/></g><g transform="translate(215.33 160.67)"><rect fill="#3e2110" x="0" y="0" width="102.67" height="102.67"/><circle fill="#686c6a" cx="30.80" cy="25.67" r="20.53"/><circle fill="#93867f" cx="61.60" cy="46.20" r="30.80"/><circle fill="#cca897" cx="35.93" cy="71.87" r="25.67"/><circle fill="#d4590f" cx="71.87" cy="71.87" r="20.53"/><circle fill="#772e0f" cx="61.60" cy="51.33" r="12.83"/></g></svg>