<svg version="1.1" xmlns="http://www.w3.org/2000/svg" xmlns:xlink="http://www.w3.org/1999/xlink" width="318" height="263.33"><g transform="translate(24 24)"><circle fill="#28100b" cx="0" cy="0" r="24"/><circle fill="#837271" cx="53" cy="0" r="24"/><circle fill="#a295aa" cx="106" cy="0" r="24"/><circle fill="#563b26" cx="159" cy="0" r="24"/><circle fill="#e4cb95" cx="212" cy="0" r="24"/><circle fill="#a07726" cx="265" cy="0" r="24"/></g><g transform="translate(0 53)"><rect fill="#28100b" x="0" y="0" width="102.67" height="102.67"/><circle fill="#837271" cx="30.80" cy="25.67" r="20.53"/><circle fill="#a295aa" cx="61.60" cy="46.20" r="30.80"/><circle fill="#563b26" cx="35.93" cy="71.87" r="25.67"/><circle fill="#e4cb95" cx="71.87" cy="71.87" r="20.53"/><circle fill="#a07726" cx="61.60" cy="51.33" r="12.83"/></g><g transform="translate(107.67 53)"><rect fill="#837271" x="0" y="0" width="102.67" height="102.67"/><circle fill="#a295aa" cx="30.80" cy="25.67" r="20.53"/><circle fill="#563b26" cx="61.60" cy="46.20" r="30.80"/><circle fill="#e4cb95" cx="35.93" cy="71.87" r="25.67"/><circle fill="#a07726" cx="71.87" cy="71.87" r="20.53"/><circle fill="#28100b" cx="61.60" cy="51.33" r="12.83"/></g><g transform="translate(215.33 53)"><rect fill="#a295aa" x="0" y="0" width="102.67" height="102.67"/><circle fill="#563b26" cx="30.80" cy="25.67" r="20.53"/><circle fill="#e4cb95" cx="61.60" cy="46.20" r="30.80"/><circle fill="#a07726" cx="35.93" cy="71.87" r="25.67"/><circle fill="#28100b" cx="71.87" cy="71.87" r="20.53"/><circle fill="#837271" cx="61.60" cy="51.33" r="12.83"/></g><g transform="translate(0 160.67)"><rect fill="#563b26" x="0" y="0" width="102.67" height="102.67"/><circle fill="#e4cb95" cx="30.80" cy="25.67" r="20.53"/><circle fill="#a07726" cx="61.60" cy="46.20" r="30.80"/><circle fill="#28100b" cx="35.93" cy="71.87" r="25.67"/><circle fill="#837271" cx="71.87" cy="71.87" r="20.53"/><circle fill="#a295aa" cx="61.60" cy="51.33" r="12.83"/></g><g transform="translate(107.67 160.67)"><rect fill="#e4cb95" x="0" y="0" width="102.67" height="102.67"/><circle fill="#a07726" cx="30.80" cy="25.67" r="20.53"/><circle fill="#28100b" cx="61.60" cy="46.20" r="30.80"/><circle fill="#837271" cx="35.93" cy="71.87" r="25.67"/><circle fill="#a295aa" cx="71.87" cy="71.87" r="20.53"/><circle fill="#563b26" cx="61.60" cy="51.33" r="12.83"/></g><g transform="translate(215.33 160.67)"><rect fill="#a07726" x="0" y="0" width="102.67" height="102.67"/><circle fill="#28100b" cx="30.80" cy="25.67" r="20.53"/><circle fill="#837271" cx="61.60" cy="46.20" r="30.80"/><circle fill="#a295aa" cx="35.93" cy="71.87" r="25.67"/><circle fill="#563b26" cx="71.87" cy="71.87" r="20.53"/><circle fill="#e4cb95" cx="61.60" cy="51.33" r="12.83"/></g></svg>