<svg version="1.1" xmlns="http://www.w3.org/2000/svg" xmlns:xlink="http://www.w3.org/1999/xlink" width="318" height="263.33"><g transform="translate(24 24)"><circle fill="#2d2909" cx="0" cy="0" r="24"/><circle fill="#434f4b" cx="53" cy="0" r="24"/><circle fill="#787764" cx="106" cy="0" r="24"/><circle fill="#a3b293" cx="159" cy="0" r="24"/><circle fill="#c9c790" cx="212" cy="0" r="24"/><circle fill="#806813" cx="265" cy="0" r="24"/></g><g transform="translate(0 53)"><rect fill="#2d2909" x="0" y="0" width="102.67" height="102.67"/><circle fill="#434f4b" cx="30.80" cy="25.67" r="20.53"/><circle fill="#787764" cx="61.60" cy="46.20" r="30.80"/><circle fill="#a3b293" cx="35.93" cy="71.87" r="25.67"/><circle fill="#c9c790" cx="71.87" cy="71.87" r="20.53"/><circle fill="#806813" cx="61.60" cy="51.33" r="12.83"/></g><g transform="translate(107.67 53)"><rect fill="#434f4b" x="0" y="0" width="102.67" height="102.67"/><circle fill="#787764" cx="30.80" cy="25.67" r="20.53"/><circle fill="#a3b293" cx="61.60" cy="46.20" r="30.80"/><circle fill="#c9c790" cx="35.93" cy="71.87" r="25.67"/><circle fill="#806813" cx="71.87" cy="71.87" r="20.53"/><circle fill="#2d2909" cx="61.60" cy="51.33" r="12.83"/></g><g transform="translate(215.33 53)"><rect fill="#787764" x="0" y="0" width="102.67" height="102.67"/><circle fill="#a3b293" cx="30.80" cy="25.67" r="20.53"/><circle fill="#c9c790" cx="61.60" cy="46.20" r="30.80"/><circle fill="#806813" cx="35.93" cy="71.87" r="25.67"/><circle fill="#2d2909" cx="71.87" cy="71.87" r="20.53"/><circle fill="#434f4b" cx="61.60" cy="51.33" r="12.83"/></g><g transform="translate(0 160.67)"><rect fill="#a3b293" x="0" y="0" width="102.67" height="102.67"/><circle fill="#c9c790" cx="30.80" cy="25.67" r="20.53"/><circle fill="#806813" cx="61.60" cy="46.20" r="30.80"/><circle fill="#2d2909" cx="35.93" cy="71.87" r="25.67"/><circle fill="#434f4b" cx="71.87" cy="71.87" r="20.53"/><circle fill="#787764" cx="61.60" cy="51.33" r="12.83"/></g><g transform="translate(107.67 160.67)"><rect fill="#c9c790" x="0" y="0" width="102.67" height="102.67"/><circle fill="#806813" cx="30.80" cy="25.67" r="20.53"/><circle fill="#2d2909" cx="61.60" cy="46.20" r="30.80"/><circle fill="#434f4b" cx="35.93" cy="71.87" r="25.67"/><circle fill="#787764" cx="71.87" cy="71.87" r="20.53"/><circle fill="#a3b293" cx="61.60" cy="51.33" r="12.83"/></g><g transform="translate(215.33 160.67)"><rect fill="#806813" x="0" y="0" width="102.67" height="102.67"/><circle fill="#2d2909" cx="30.80" cy="25.67" r="20.53"/><circle fill="#434f4b" cx="61.60" cy="46.20" r="30.80"/><circle fill="#787764" cx="35.93" cy="71.87" r="25.67"/><circle fill="#a3b293" cx="71.87" cy="71.87" r="20.53"/><circle fill="#c9c790" cx="61.60" cy="51.33" r="12.83"/></g></svg>