<svg version="1.1" xmlns="http://www.w3.org/2000/svg" xmlns:xlink="http://www.w3.org/1999/xlink" width="318" height="263.33"><g transform="translate(24 24)"><circle fill="#252115" cx="0" cy="0" r="24"/><circle fill="#735e2d" cx="53" cy="0" r="24"/><circle fill="#cea041" cx="106" cy="0" r="24"/><circle fill="#f7eeb3" cx="159" cy="0" r="24"/><circle fill="#9ab5e7" cx="212" cy="0" r="24"/><circle fill="#6984b9" cx="265" cy="0" r="24"/></g><g transform="translate(0 53)"><rect fill="#252115" x="0" y="0" width="102.67" height="102.67"/><circle fill="#735e2d" cx="30.80" cy="25.67" r="20.53"/><circle fill="#cea041" cx="61.60" cy="46.20" r="30.80"/><circle fill="#f7eeb3" cx="35.93" cy="71.87" r="25.67"/><circle fill="#9ab5e7" cx="71.87" cy="71.87" r="20.53"/><circle fill="#6984b9" cx="61.60" cy="51.33" r="12.83"/></g><g transform="translate(107.67 53)"><rect fill="#735e2d" x="0" y="0" width="102.67" height="102.67"/><circle fill="#cea041" cx="30.80" cy="25.67" r="20.53"/><circle fill="#f7eeb3" cx="61.60" cy="46.20" r="30.80"/><circle fill="#9ab5e7" cx="35.93" cy="71.87" r="25.67"/><circle fill="#6984b9" cx="71.87" cy="71.87" r="20.53"/><circle fill="#252115" cx="61.60" cy="51.33" r="12.83"/></g><g transform="translate(215.33 53)"><rect fill="#cea041" x="0" y="0" width="102.67" height="102.67"/><circle fill="#f7eeb3" cx="30.80" cy="25.67" r="20.53"/><circle fill="#9ab5e7" cx="61.60" cy="46.20" r="30.80"/><circle fill="#6984b9" cx="35.93" cy="71.87" r="25.67"/><circle fill="#252115" cx="71.87" cy="71.87" r="20.53"/><circle fill="#735e2d" cx="61.60" cy="51.33" r="12.83"/></g><g transform="translate(0 160.67)"><rect fill="#f7eeb3" x="0" y="0" width="102.67" height="102.67"/><circle fill="#9ab5e7" cx="30.80" cy="25.67" r="20.53"/><circle fill="#6984b9" cx="61.60" cy="46.20" r="30.80"/><circle fill="#252115" cx="35.93" cy="71.87" r="25.67"/><circle fill="#735e2d" cx="71.87" cy="71.87" r="20.53"/><circle fill="#cea041" cx="61.60" cy="51.33" r="12.83"/></g><g transform="translate(107.67 160.67)"><rect fill="#9ab5e7" x="0" y="0" width="102.67" height="102.67"/><circle fill="#6984b9" cx="30.80" cy="25.67" r="20.53"/><circle fill="#252115" cx="61.60" cy="46.20" r="30.80"/><circle fill="#735e2d" cx="35.93" cy="71.87" r="25.67"/><circle fill="#cea041" cx="71.87" cy="71.87" r="20.53"/><circle fill="#f7eeb3" cx="61.60" cy="51.33" r="12.83"/></g><g transform="translate(215.33 160.67)"><rect fill="#6984b9" x="0" y="0" width="102.67" height="102.67"/><circle fill="#252115" cx="30.80" cy="25.67" r="20.53"/><circle fill="#735e2d" cx="61.60" cy="46.20" r="30.80"/><circle fill="#cea041" cx="35.93" cy="71.87" r="25.67"/><circle fill="#f7eeb3" cx="71.87" cy="71.87" r="20.53"/><circle fill="#9ab5e7" cx="61.60" cy="51.33" r="12.83"/></g></svg>