<svg version="1.1" xmlns="http://www.w3.org/2000/svg" xmlns:xlink="http://www.w3.org/1999/xlink" width="318" height="263.33"><g transform="translate(24 24)"><circle fill="#800804" cx="0" cy="0" r="24"/><circle fill="#ba280e" cx="53" cy="0" r="24"/><circle fill="#dc6d27" cx="106" cy="0" r="24"/><circle fill="#e6a576" cx="159" cy="0" r="24"/><circle fill="#efc7ba" cx="212" cy="0" r="24"/><circle fill="#b4d9ef" cx="265" cy="0" r="24"/></g><g transform="translate(0 53)"><rect fill="#800804" x="0" y="0" width="102.67" height="102.67"/><circle fill="#ba280e" cx="30.80" cy="25.67" r="20.53"/><circle fill="#dc6d27" cx="61.60" cy="46.20" r="30.80"/><circle fill="#e6a576" cx="35.93" cy="71.87" r="25.67"/><circle fill="#efc7ba" cx="71.87" cy="71.87" r="20.53"/><circle fill="#b4d9ef" cx="61.60" cy="51.33" r="12.83"/></g><g transform="translate(107.67 53)"><rect fill="#ba280e" x="0" y="0" width="102.67" height="102.67"/><circle fill="#dc6d27" cx="30.80" cy="25.67" r="20.53"/><circle fill="#e6a576" cx="61.60" cy="46.20" r="30.80"/><circle fill="#efc7ba" cx="35.93" cy="71.87" r="25.67"/><circle fill="#b4d9ef" cx="71.87" cy="71.87" r="20.53"/><circle fill="#800804" cx="61.60" cy="51.33" r="12.83"/></g><g transform="translate(215.33 53)"><rect fill="#dc6d27" x="0" y="0" width="102.67" height="102.67"/><circle fill="#e6a576" cx="30.80" cy="25.67" r="20.53"/><circle fill="#efc7ba" cx="61.60" cy="46.20" r="30.80"/><circle fill="#b4d9ef" cx="35.93" cy="71.87" r="25.67"/><circle fill="#800804" cx="71.87" cy="71.87" r="20.53"/><circle fill="#ba280e" cx="61.60" cy="51.33" r="12.83"/></g><g transform="translate(0 160.67)"><rect fill="#e6a576" x="0" y="0" width="102.67" height="102.67"/><circle fill="#efc7ba" cx="30.80" cy="25.67" r="20.53"/><circle fill="#b4d9ef" cx="61.60" cy="46.20" r="30.80"/><circle fill="#800804" cx="35.93" cy="71.87" r="25.67"/><circle fill="#ba280e" cx="71.87" cy="71.87" r="20.53"/><circle fill="#dc6d27" cx="61.60" cy="51.33" r="12.83"/></g><g transform="translate(107.67 160.67)"><rect fill="#efc7ba" x="0" y="0" width="102.67" height="102.67"/><circle fill="#b4d9ef" cx="30.80" cy="25.67" r="20.53"/><circle fill="#800804" cx="61.60" cy="46.20" r="30.80"/><circle fill="#ba280e" cx="35.93" cy="71.87" r="25.67"/><circle fill="#dc6d27" cx="71.87" cy="71.87" r="20.53"/><circle fill="#e6a576" cx="61.60" cy="51.33" r="12.83"/></g><g transform="translate(215.33 160.67)"><rect fill="#b4d9ef" x="0" y="0" width="102.67" height="102.67"/><circle fill="#800804" cx="30.80" cy="25.67" r="20.53"/><circle fill="#ba280e" cx="61.60" cy="46.20" r="30.80"/><circle fill="#dc6d27" cx="35.93" cy="71.87" r="25.67"/><circle fill="#e6a576" cx="71.87" cy="71.87" r="20.53"/><circle fill="#efc7ba" cx="61.60" cy="51.33" r="12.83"/></g></svg>