<svg version="1.1" xmlns="http://www.w3.org/2000/svg" xmlns:xlink="http://www.w3.org/1999/xlink" width="318" height="263.33"><g transform="translate(24 24)"><circle fill="#062268" cx="0" cy="0" r="24"/><circle fill="#0b4d91" cx="53" cy="0" r="24"/><circle fill="#1e76a7" cx="106" cy="0" r="24"/><circle fill="#428ebf" cx="159" cy="0" r="24"/><circle fill="#99bfd9" cx="212" cy="0" r="24"/><circle fill="#d2e0ea" cx="265" cy="0" r="24"/></g><g transform="translate(0 53)"><rect fill="#062268" x="0" y="0" width="102.67" height="102.67"/><circle fill="#0b4d91" cx="30.80" cy="25.67" r="20.53"/><circle fill="#1e76a7" cx="61.60" cy="46.20" r="30.80"/><circle fill="#428ebf" cx="35.93" cy="71.87" r="25.67"/><circle fill="#99bfd9" cx="71.87" cy="71.87" r="20.53"/><circle fill="#d2e0ea" cx="61.60" cy="51.33" r="12.83"/></g><g transform="translate(107.67 53)"><rect fill="#0b4d91" x="0" y="0" width="102.67" height="102.67"/><circle fill="#1e76a7" cx="30.80" cy="25.67" r="20.53"/><circle fill="#428ebf" cx="61.60" cy="46.20" r="30.80"/><circle fill="#99bfd9" cx="35.93" cy="71.87" r="25.67"/><circle fill="#d2e0ea" cx="71.87" cy="71.87" r="20.53"/><circle fill="#062268" cx="61.60" cy="51.33" r="12.83"/></g><g transform="translate(215.33 53)"><rect fill="#1e76a7" x="0" y="0" width="102.67" height="102.67"/><circle fill="#428ebf" cx="30.80" cy="25.67" r="20.53"/><circle fill="#99bfd9" cx="61.60" cy="46.20" r="30.80"/><circle fill="#d2e0ea" cx="35.93" cy="71.87" r="25.67"/><circle fill="#062268" cx="71.87" cy="71.87" r="20.53"/><circle fill="#0b4d91" cx="61.60" cy="51.33" r="12.83"/></g><g transform="translate(0 160.67)"><rect fill="#428ebf" x="0" y="0" width="102.67" height="102.67"/><circle fill="#99bfd9" cx="30.80" cy="25.67" r="20.53"/><circle fill="#d2e0ea" cx="61.60" cy="46.20" r="30.80"/><circle fill="#062268" cx="35.93" cy="71.87" r="25.67"/><circle fill="#0b4d91" cx="71.87" cy="71.87" r="20.53"/><circle fill="#1e76a7" cx="61.60" cy="51.33" r="12.83"/></g><g transform="translate(107.67 160.67)"><rect fill="#99bfd9" x="0" y="0" width="102.67" height="102.67"/><circle fill="#d2e0ea" cx="30.80" cy="25.67" r="20.53"/><circle fill="#062268" cx="61.60" cy="46.20" r="30.80"/><circle fill="#0b4d91" cx="35.93" cy="71.87" r="25.67"/><circle fill="#1e76a7" cx="71.87" cy="71.87" r="20.53"/><circle fill="#428ebf" cx="61.60" cy="51.33" r="12.83"/></g><g transform="translate(215.33 160.67)"><rect fill="#d2e0ea" x="0" y="0" width="102.67" height="102.67"/><circle fill="#062268" cx="30.80" cy="25.67" r="20.53"/><circle fill="#0b4d91" cx="61.60" cy="46.20" r="30.80"/><circle fill="#1e76a7" cx="35.93" cy="71.87" r="25.67"/><circle fill="#428ebf" cx="71.87" cy="71.87" r="20.53"/><circle fill="#99bfd9" cx="61.60" cy="51.33" r="12.83"/></g></svg>