<svg version="1.1" xmlns="http://www.w3.org/2000/svg" xmlns:xlink="http://www.w3.org/1999/xlink" width="318" height="263.33"><g transform="translate(24 24)"><circle fill="#090b42" cx="0" cy="0" r="24"/><circle fill="#01246c" cx="53" cy="0" r="24"/><circle fill="#2e5f85" cx="106" cy="0" r="24"/><circle fill="#6e5f79" cx="159" cy="0" r="24"/><circle fill="#b66a57" cx="212" cy="0" r="24"/><circle fill="#f88f09" cx="265" cy="0" r="24"/></g><g transform="translate(0 53)"><rect fill="#090b42" x="0" y="0" width="102.67" height="102.67"/><circle fill="#01246c" cx="30.80" cy="25.67" r="20.53"/><circle fill="#2e5f85" cx="61.60" cy="46.20" r="30.80"/><circle fill="#6e5f79" cx="35.93" cy="71.87" r="25.67"/><circle fill="#b66a57" cx="71.87" cy="71.87" r="20.53"/><circle fill="#f88f09" cx="61.60" cy="51.33" r="12.83"/></g><g transform="translate(107.67 53)"><rect fill="#01246c" x="0" y="0" width="102.67" height="102.67"/><circle fill="#2e5f85" cx="30.80" cy="25.67" r="20.53"/><circle fill="#6e5f79" cx="61.60" cy="46.20" r="30.80"/><circle fill="#b66a57" cx="35.93" cy="71.87" r="25.67"/><circle fill="#f88f09" cx="71.87" cy="71.87" r="20.53"/><circle fill="#090b42" cx="61.60" cy="51.33" r="12.83"/></g><g transform="translate(215.33 53)"><rect fill="#2e5f85" x="0" y="0" width="102.67" height="102.67"/><circle fill="#6e5f79" cx="30.80" cy="25.67" r="20.53"/><circle fill="#b66a57" cx="61.60" cy="46.20" r="30.80"/><circle fill="#f88f09" cx="35.93" cy="71.87" r="25.67"/><circle fill="#090b42" cx="71.87" cy="71.87" r="20.53"/><circle fill="#01246c" cx="61.60" cy="51.33" r="12.83"/></g><g transform="translate(0 160.67)"><rect fill="#6e5f79" x="0" y="0" width="102.67" height="102.67"/><circle fill="#b66a57" cx="30.80" cy="25.67" r="20.53"/><circle fill="#f88f09" cx="61.60" cy="46.20" r="30.80"/><circle fill="#090b42" cx="35.93" cy="71.87" r="25.67"/><circle fill="#01246c" cx="71.87" cy="71.87" r="20.53"/><circle fill="#2e5f85" cx="61.60" cy="51.33" r="12.83"/></g><g transform="translate(107.67 160.67)"><rect fill="#b66a57" x="0" y="0" width="102.67" height="102.67"/><circle fill="#f88f09" cx="30.80" cy="25.67" r="20.53"/><circle fill="#090b42" cx="61.60" cy="46.20" r="30.80"/><circle fill="#01246c" cx="35.93" cy="71.87" r="25.67"/><circle fill="#2e5f85" cx="71.87" cy="71.87" r="20.53"/><circle fill="#6e5f79" cx="61.60" cy="51.33" r="12.83"/></g><g transform="translate(215.33 160.67)"><rect fill="#f88f09" x="0" y="0" width="102.67" height="102.67"/><circle fill="#090b42" cx="30.80" cy="25.67" r="20.53"/><circle fill="#01246c" cx="61.60" cy="46.20" r="30.80"/><circle fill="#2e5f85" cx="35.93" cy="71.87" r="25.67"/><circle fill="#6e5f79" cx="71.87" cy="71.87" r="20.53"/><circle fill="#b66a57" cx="61.60" cy="51.33" r="12.83"/></g></svg>