<svg version="1.1" xmlns="http://www.w3.org/2000/svg" xmlns:xlink="http://www.w3.org/1999/xlink" width="318" height="263.33"><g transform="translate(24 24)"><circle fill="#252660" cx="0" cy="0" r="24"/><circle fill="#534b96" cx="53" cy="0" r="24"/><circle fill="#98618b" cx="106" cy="0" r="24"/><circle fill="#e2917e" cx="159" cy="0" r="24"/><circle fill="#e8b5b1" cx="212" cy="0" r="24"/><circle fill="#f0f3f9" cx="265" cy="0" r="24"/></g><g transform="translate(0 53)"><rect fill="#252660" x="0" y="0" width="102.67" height="102.67"/><circle fill="#534b96" cx="30.80" cy="25.67" r="20.53"/><circle fill="#98618b" cx="61.60" cy="46.20" r="30.80"/><circle fill="#e2917e" cx="35.93" cy="71.87" r="25.67"/><circle fill="#e8b5b1" cx="71.87" cy="71.87" r="20.53"/><circle fill="#f0f3f9" cx="61.60" cy="51.33" r="12.83"/></g><g transform="translate(107.67 53)"><rect fill="#534b96" x="0" y="0" width="102.67" height="102.67"/><circle fill="#98618b" cx="30.80" cy="25.67" r="20.53"/><circle fill="#e2917e" cx="61.60" cy="46.20" r="30.80"/><circle fill="#e8b5b1" cx="35.93" cy="71.87" r="25.67"/><circle fill="#f0f3f9" cx="71.87" cy="71.87" r="20.53"/><circle fill="#252660" cx="61.60" cy="51.33" r="12.83"/></g><g transform="translate(215.33 53)"><rect fill="#98618b" x="0" y="0" width="102.67" height="102.67"/><circle fill="#e2917e" cx="30.80" cy="25.67" r="20.53"/><circle fill="#e8b5b1" cx="61.60" cy="46.20" r="30.80"/><circle fill="#f0f3f9" cx="35.93" cy="71.87" r="25.67"/><circle fill="#252660" cx="71.87" cy="71.87" r="20.53"/><circle fill="#534b96" cx="61.60" cy="51.33" r="12.83"/></g><g transform="translate(0 160.67)"><rect fill="#e2917e" x="0" y="0" width="102.67" height="102.67"/><circle fill="#e8b5b1" cx="30.80" cy="25.67" r="20.53"/><circle fill="#f0f3f9" cx="61.60" cy="46.20" r="30.80"/><circle fill="#252660" cx="35.93" cy="71.87" r="25.67"/><circle fill="#534b96" cx="71.87" cy="71.87" r="20.53"/><circle fill="#98618b" cx="61.60" cy="51.33" r="12.83"/></g><g transform="translate(107.67 160.67)"><rect fill="#e8b5b1" x="0" y="0" width="102.67" height="102.67"/><circle fill="#f0f3f9" cx="30.80" cy="25.67" r="20.53"/><circle fill="#252660" cx="61.60" cy="46.20" r="30.80"/><circle fill="#534b96" cx="35.93" cy="71.87" r="25.67"/><circle fill="#98618b" cx="71.87" cy="71.87" r="20.53"/><circle fill="#e2917e" cx="61.60" cy="51.33" r="12.83"/></g><g transform="translate(215.33 160.67)"><rect fill="#f0f3f9" x="0" y="0" width="102.67" height="102.67"/><circle fill="#252660" cx="30.80" cy="25.67" r="20.53"/><circle fill="#534b96" cx="61.60" cy="46.20" r="30.80"/><circle fill="#98618b" cx="35.93" cy="71.87" r="25.67"/><circle fill="#e2917e" cx="71.87" cy="71.87" r="20.53"/><circle fill="#e8b5b1" cx="61.60" cy="51.33" r="12.83"/></g></svg>