<svg version="1.1" xmlns="http://www.w3.org/2000/svg" xmlns:xlink="http://www.w3.org/1999/xlink" width="318" height="263.33"><g transform="translate(24 24)"><circle fill="#d5b5bf" cx="0" cy="0" r="24"/><circle fill="#d41749" cx="53" cy="0" r="24"/><circle fill="#e6a01d" cx="106" cy="0" r="24"/><circle fill="#70b7ad" cx="159" cy="0" r="24"/><circle fill="#0d7a9e" cx="212" cy="0" r="24"/><circle fill="#152848" cx="265" cy="0" r="24"/></g><g transform="translate(0 53)"><rect fill="#d5b5bf" x="0" y="0" width="102.67" height="102.67"/><circle fill="#d41749" cx="30.80" cy="25.67" r="20.53"/><circle fill="#e6a01d" cx="61.60" cy="46.20" r="30.80"/><circle fill="#70b7ad" cx="35.93" cy="71.87" r="25.67"/><circle fill="#0d7a9e" cx="71.87" cy="71.87" r="20.53"/><circle fill="#152848" cx="61.60" cy="51.33" r="12.83"/></g><g transform="translate(107.67 53)"><rect fill="#d41749" x="0" y="0" width="102.67" height="102.67"/><circle fill="#e6a01d" cx="30.80" cy="25.67" r="20.53"/><circle fill="#70b7ad" cx="61.60" cy="46.20" r="30.80"/><circle fill="#0d7a9e" cx="35.93" cy="71.87" r="25.67"/><circle fill="#152848" cx="71.87" cy="71.87" r="20.53"/><circle fill="#d5b5bf" cx="61.60" cy="51.33" r="12.83"/></g><g transform="translate(215.33 53)"><rect fill="#e6a01d" x="0" y="0" width="102.67" height="102.67"/><circle fill="#70b7ad" cx="30.80" cy="25.67" r="20.53"/><circle fill="#0d7a9e" cx="61.60" cy="46.20" r="30.80"/><circle fill="#152848" cx="35.93" cy="71.87" r="25.67"/><circle fill="#d5b5bf" cx="71.87" cy="71.87" r="20.53"/><circle fill="#d41749" cx="61.60" cy="51.33" r="12.83"/></g><g transform="translate(0 160.67)"><rect fill="#70b7ad" x="0" y="0" width="102.67" height="102.67"/><circle fill="#0d7a9e" cx="30.80" cy="25.67" r="20.53"/><circle fill="#152848" cx="61.60" cy="46.20" r="30.80"/><circle fill="#d5b5bf" cx="35.93" cy="71.87" r="25.67"/><circle fill="#d41749" cx="71.87" cy="71.87" r="20.53"/><circle fill="#e6a01d" cx="61.60" cy="51.33" r="12.83"/></g><g transform="translate(107.67 160.67)"><rect fill="#0d7a9e" x="0" y="0" width="102.67" height="102.67"/><circle fill="#152848" cx="30.80" cy="25.67" r="20.53"/><circle fill="#d5b5bf" cx="61.60" cy="46.20" r="30.80"/><circle fill="#d41749" cx="35.93" cy="71.87" r="25.67"/><circle fill="#e6a01d" cx="71.87" cy="71.87" r="20.53"/><circle fill="#70b7ad" cx="61.60" cy="51.33" r="12.83"/></g><g transform="translate(215.33 160.67)"><rect fill="#152848" x="0" y="0" width="102.67" height="102.67"/><circle fill="#d5b5bf" cx="30.80" cy="25.67" r="20.53"/><circle fill="#d41749" cx="61.60" cy="46.20" r="30.80"/><circle fill="#e6a01d" cx="35.93" cy="71.87" r="25.67"/><circle fill="#70b7ad" cx="71.87" cy="71.87" r="20.53"/><circle fill="#0d7a9e" cx="61.60" cy="51.33" r="12.83"/></g></svg>