<svg version="1.1" xmlns="http://www.w3.org/2000/svg" xmlns:xlink="http://www.w3.org/1999/xlink" width="318" height="263.33"><g transform="translate(24 24)"><circle fill="#e4c023" cx="0" cy="0" r="24"/><circle fill="#e7c8a4" cx="53" cy="0" r="24"/><circle fill="#694b41" cx="106" cy="0" r="24"/><circle fill="#071d36" cx="159" cy="0" r="24"/><circle fill="#3c608d" cx="212" cy="0" r="24"/><circle fill="#82baf5" cx="265" cy="0" r="24"/></g><g transform="translate(0 53)"><rect fill="#e4c023" x="0" y="0" width="102.67" height="102.67"/><circle fill="#e7c8a4" cx="30.80" cy="25.67" r="20.53"/><circle fill="#694b41" cx="61.60" cy="46.20" r="30.80"/><circle fill="#071d36" cx="35.93" cy="71.87" r="25.67"/><circle fill="#3c608d" cx="71.87" cy="71.87" r="20.53"/><circle fill="#82baf5" cx="61.60" cy="51.33" r="12.83"/></g><g transform="translate(107.67 53)"><rect fill="#e7c8a4" x="0" y="0" width="102.67" height="102.67"/><circle fill="#694b41" cx="30.80" cy="25.67" r="20.53"/><circle fill="#071d36" cx="61.60" cy="46.20" r="30.80"/><circle fill="#3c608d" cx="35.93" cy="71.87" r="25.67"/><circle fill="#82baf5" cx="71.87" cy="71.87" r="20.53"/><circle fill="#e4c023" cx="61.60" cy="51.33" r="12.83"/></g><g transform="translate(215.33 53)"><rect fill="#694b41" x="0" y="0" width="102.67" height="102.67"/><circle fill="#071d36" cx="30.80" cy="25.67" r="20.53"/><circle fill="#3c608d" cx="61.60" cy="46.20" r="30.80"/><circle fill="#82baf5" cx="35.93" cy="71.87" r="25.67"/><circle fill="#e4c023" cx="71.87" cy="71.87" r="20.53"/><circle fill="#e7c8a4" cx="61.60" cy="51.33" r="12.83"/></g><g transform="translate(0 160.67)"><rect fill="#071d36" x="0" y="0" width="102.67" height="102.67"/><circle fill="#3c608d" cx="30.80" cy="25.67" r="20.53"/><circle fill="#82baf5" cx="61.60" cy="46.20" r="30.80"/><circle fill="#e4c023" cx="35.93" cy="71.87" r="25.67"/><circle fill="#e7c8a4" cx="71.87" cy="71.87" r="20.53"/><circle fill="#694b41" cx="61.60" cy="51.33" r="12.83"/></g><g transform="translate(107.67 160.67)"><rect fill="#3c608d" x="0" y="0" width="102.67" height="102.67"/><circle fill="#82baf5" cx="30.80" cy="25.67" r="20.53"/><circle fill="#e4c023" cx="61.60" cy="46.20" r="30.80"/><circle fill="#e7c8a4" cx="35.93" cy="71.87" r="25.67"/><circle fill="#694b41" cx="71.87" cy="71.87" r="20.53"/><circle fill="#071d36" cx="61.60" cy="51.33" r="12.83"/></g><g transform="translate(215.33 160.67)"><rect fill="#82baf5" x="0" y="0" width="102.67" height="102.67"/><circle fill="#e4c023" cx="30.80" cy="25.67" r="20.53"/><circle fill="#e7c8a4" cx="61.60" cy="46.20" r="30.80"/><circle fill="#694b41" cx="35.93" cy="71.87" r="25.67"/><circle fill="#071d36" cx="71.87" cy="71.87" r="20.53"/><circle fill="#3c608d" cx="61.60" cy="51.33" r="12.83"/></g></svg>