<svg version="1.1" xmlns="http://www.w3.org/2000/svg" xmlns:xlink="http://www.w3.org/1999/xlink" xmlns:inkscape="http://www.inkscape.org/namespaces/inkscape" width="318" height="263.33"><g transform="translate(24 24)"><circle fill="#e54902" cx="0" cy="0" r="24"/><circle fill="#f56c05" cx="53" cy="0" r="24"/><circle fill="#d19474" cx="106" cy="0" r="24"/><circle fill="#759dc0" cx="159" cy="0" r="24"/><circle fill="#0986c1" cx="212" cy="0" r="24"/><circle fill="#492b45" cx="265" cy="0" r="24"/></g><g transform="translate(0 53)"><rect fill="#e54902" x="0" y="0" width="102.67" height="102.67"/><circle fill="#f56c05" cx="30.80" cy="25.67" r="20.53"/><circle fill="#d19474" cx="61.60" cy="46.20" r="30.80"/><circle fill="#759dc0" cx="35.93" cy="71.87" r="25.67"/><circle fill="#0986c1" cx="71.87" cy="71.87" r="20.53"/><circle fill="#492b45" cx="61.60" cy="51.33" r="12.83"/></g><g transform="translate(107.67 53)"><rect fill="#f56c05" x="0" y="0" width="102.67" height="102.67"/><circle fill="#d19474" cx="30.80" cy="25.67" r="20.53"/><circle fill="#759dc0" cx="61.60" cy="46.20" r="30.80"/><circle fill="#0986c1" cx="35.93" cy="71.87" r="25.67"/><circle fill="#492b45" cx="71.87" cy="71.87" r="20.53"/><circle fill="#e54902" cx="61.60" cy="51.33" r="12.83"/></g><g transform="translate(215.33 53)"><rect fill="#d19474" x="0" y="0" width="102.67" height="102.67"/><circle fill="#759dc0" cx="30.80" cy="25.67" r="20.53"/><circle fill="#0986c1" cx="61.60" cy="46.20" r="30.80"/><circle fill="#492b45" cx="35.93" cy="71.87" r="25.67"/><circle fill="#e54902" cx="71.87" cy="71.87" r="20.53"/><circle fill="#f56c05" cx="61.60" cy="51.33" r="12.83"/></g><g transform="translate(0 160.67)"><rect fill="#759dc0" x="0" y="0" width="102.67" height="102.67"/><circle fill="#0986c1" cx="30.80" cy="25.67" r="20.53"/><circle fill="#492b45" cx="61.60" cy="46.20" r="30.80"/><circle fill="#e54902" cx="35.93" cy="71.87" r="25.67"/><circle fill="#f56c05" cx="71.87" cy="71.87" r="20.53"/><circle fill="#d19474" cx="61.60" cy="51.33" r="12.83"/></g><g transform="translate(107.67 160.67)"><rect fill="#0986c1" x="0" y="0" width="102.67" height="102.67"/><circle fill="#492b45" cx="30.80" cy="25.67" r="20.53"/><circle fill="#e54902" cx="61.60" cy="46.20" r="30.80"/><circle fill="#f56c05" cx="35.93" cy="71.87" r="25.67"/><circle fill="#d19474" cx="71.87" cy="71.87" r="20.53"/><circle fill="#759dc0" cx="61.60" cy="51.33" r="12.83"/></g><g transform="translate(215.33 160.67)"><rect fill="#492b45" x="0" y="0" width="102.67" height="102.67"/><circle fill="#e54902" cx="30.80" cy="25.67" r="20.53"/><circle fill="#f56c05" cx="61.60" cy="46.20" r="30.80"/><circle fill="#d19474" cx="35.93" cy="71.87" r="25.67"/><circle fill="#759dc0" cx="71.87" cy="71.87" r="20.53"/><circle fill="#0986c1" cx="61.60" cy="51.33" r="12.83"/></g></svg>