<svg version="1.1" xmlns="http://www.w3.org/2000/svg" xmlns:xlink="http://www.w3.org/1999/xlink" xmlns:inkscape="http://www.inkscape.org/namespaces/inkscape" width="318" height="263.33"><g transform="translate(24 24)"><circle fill="#eb650d" cx="0" cy="0" r="24"/><circle fill="#dabd8e" cx="53" cy="0" r="24"/><circle fill="#cdb80a" cx="106" cy="0" r="24"/><circle fill="#9acfc9" cx="159" cy="0" r="24"/><circle fill="#099bb9" cx="212" cy="0" r="24"/><circle fill="#04334e" cx="265" cy="0" r="24"/></g><g transform="translate(0 53)"><rect fill="#eb650d" x="0" y="0" width="102.67" height="102.67"/><circle fill="#dabd8e" cx="30.80" cy="25.67" r="20.53"/><circle fill="#cdb80a" cx="61.60" cy="46.20" r="30.80"/><circle fill="#9acfc9" cx="35.93" cy="71.87" r="25.67"/><circle fill="#099bb9" cx="71.87" cy="71.87" r="20.53"/><circle fill="#04334e" cx="61.60" cy="51.33" r="12.83"/></g><g transform="translate(107.67 53)"><rect fill="#dabd8e" x="0" y="0" width="102.67" height="102.67"/><circle fill="#cdb80a" cx="30.80" cy="25.67" r="20.53"/><circle fill="#9acfc9" cx="61.60" cy="46.20" r="30.80"/><circle fill="#099bb9" cx="35.93" cy="71.87" r="25.67"/><circle fill="#04334e" cx="71.87" cy="71.87" r="20.53"/><circle fill="#eb650d" cx="61.60" cy="51.33" r="12.83"/></g><g transform="translate(215.33 53)"><rect fill="#cdb80a" x="0" y="0" width="102.67" height="102.67"/><circle fill="#9acfc9" cx="30.80" cy="25.67" r="20.53"/><circle fill="#099bb9" cx="61.60" cy="46.20" r="30.80"/><circle fill="#04334e" cx="35.93" cy="71.87" r="25.67"/><circle fill="#eb650d" cx="71.87" cy="71.87" r="20.53"/><circle fill="#dabd8e" cx="61.60" cy="51.33" r="12.83"/></g><g transform="translate(0 160.67)"><rect fill="#9acfc9" x="0" y="0" width="102.67" height="102.67"/><circle fill="#099bb9" cx="30.80" cy="25.67" r="20.53"/><circle fill="#04334e" cx="61.60" cy="46.20" r="30.80"/><circle fill="#eb650d" cx="35.93" cy="71.87" r="25.67"/><circle fill="#dabd8e" cx="71.87" cy="71.87" r="20.53"/><circle fill="#cdb80a" cx="61.60" cy="51.33" r="12.83"/></g><g transform="translate(107.67 160.67)"><rect fill="#099bb9" x="0" y="0" width="102.67" height="102.67"/><circle fill="#04334e" cx="30.80" cy="25.67" r="20.53"/><circle fill="#eb650d" cx="61.60" cy="46.20" r="30.80"/><circle fill="#dabd8e" cx="35.93" cy="71.87" r="25.67"/><circle fill="#cdb80a" cx="71.87" cy="71.87" r="20.53"/><circle fill="#9acfc9" cx="61.60" cy="51.33" r="12.83"/></g><g transform="translate(215.33 160.67)"><rect fill="#04334e" x="0" y="0" width="102.67" height="102.67"/><circle fill="#eb650d" cx="30.80" cy="25.67" r="20.53"/><circle fill="#dabd8e" cx="61.60" cy="46.20" r="30.80"/><circle fill="#cdb80a" cx="35.93" cy="71.87" r="25.67"/><circle fill="#9acfc9" cx="71.87" cy="71.87" r="20.53"/><circle fill="#099bb9" cx="61.60" cy="51.33" r="12.83"/></g></svg>