<svg version="1.1" xmlns="http://www.w3.org/2000/svg" xmlns:xlink="http://www.w3.org/1999/xlink" xmlns:inkscape="http://www.inkscape.org/namespaces/inkscape" width="318" height="263.33"><g transform="translate(24 24)"><circle fill="#de5660" cx="0" cy="0" r="24"/><circle fill="#e9cfb1" cx="53" cy="0" r="24"/><circle fill="#efa31e" cx="106" cy="0" r="24"/><circle fill="#829124" cx="159" cy="0" r="24"/><circle fill="#87bbbe" cx="212" cy="0" r="24"/><circle fill="#4e4170" cx="265" cy="0" r="24"/></g><g transform="translate(0 53)"><rect fill="#de5660" x="0" y="0" width="102.67" height="102.67"/><circle fill="#e9cfb1" cx="30.80" cy="25.67" r="20.53"/><circle fill="#efa31e" cx="61.60" cy="46.20" r="30.80"/><circle fill="#829124" cx="35.93" cy="71.87" r="25.67"/><circle fill="#87bbbe" cx="71.87" cy="71.87" r="20.53"/><circle fill="#4e4170" cx="61.60" cy="51.33" r="12.83"/></g><g transform="translate(107.67 53)"><rect fill="#e9cfb1" x="0" y="0" width="102.67" height="102.67"/><circle fill="#efa31e" cx="30.80" cy="25.67" r="20.53"/><circle fill="#829124" cx="61.60" cy="46.20" r="30.80"/><circle fill="#87bbbe" cx="35.93" cy="71.87" r="25.67"/><circle fill="#4e4170" cx="71.87" cy="71.87" r="20.53"/><circle fill="#de5660" cx="61.60" cy="51.33" r="12.83"/></g><g transform="translate(215.33 53)"><rect fill="#efa31e" x="0" y="0" width="102.67" height="102.67"/><circle fill="#829124" cx="30.80" cy="25.67" r="20.53"/><circle fill="#87bbbe" cx="61.60" cy="46.20" r="30.80"/><circle fill="#4e4170" cx="35.93" cy="71.87" r="25.67"/><circle fill="#de5660" cx="71.87" cy="71.87" r="20.53"/><circle fill="#e9cfb1" cx="61.60" cy="51.33" r="12.83"/></g><g transform="translate(0 160.67)"><rect fill="#829124" x="0" y="0" width="102.67" height="102.67"/><circle fill="#87bbbe" cx="30.80" cy="25.67" r="20.53"/><circle fill="#4e4170" cx="61.60" cy="46.20" r="30.80"/><circle fill="#de5660" cx="35.93" cy="71.87" r="25.67"/><circle fill="#e9cfb1" cx="71.87" cy="71.87" r="20.53"/><circle fill="#efa31e" cx="61.60" cy="51.33" r="12.83"/></g><g transform="translate(107.67 160.67)"><rect fill="#87bbbe" x="0" y="0" width="102.67" height="102.67"/><circle fill="#4e4170" cx="30.80" cy="25.67" r="20.53"/><circle fill="#de5660" cx="61.60" cy="46.20" r="30.80"/><circle fill="#e9cfb1" cx="35.93" cy="71.87" r="25.67"/><circle fill="#efa31e" cx="71.87" cy="71.87" r="20.53"/><circle fill="#829124" cx="61.60" cy="51.33" r="12.83"/></g><g transform="translate(215.33 160.67)"><rect fill="#4e4170" x="0" y="0" width="102.67" height="102.67"/><circle fill="#de5660" cx="30.80" cy="25.67" r="20.53"/><circle fill="#e9cfb1" cx="61.60" cy="46.20" r="30.80"/><circle fill="#efa31e" cx="35.93" cy="71.87" r="25.67"/><circle fill="#829124" cx="71.87" cy="71.87" r="20.53"/><circle fill="#87bbbe" cx="61.60" cy="51.33" r="12.83"/></g></svg>