<svg version="1.1" xmlns="http://www.w3.org/2000/svg" xmlns:xlink="http://www.w3.org/1999/xlink" xmlns:inkscape="http://www.inkscape.org/namespaces/inkscape" width="318" height="263.33"><g transform="translate(24 24)"><circle fill="#1b2b29" cx="0" cy="0" r="24"/><circle fill="#8c8999" cx="53" cy="0" r="24"/><circle fill="#8f7612" cx="106" cy="0" r="24"/><circle fill="#e58827" cx="159" cy="0" r="24"/><circle fill="#f4a589" cx="212" cy="0" r="24"/><circle fill="#eeece7" cx="265" cy="0" r="24"/></g><g transform="translate(0 53)"><rect fill="#1b2b29" x="0" y="0" width="102.67" height="102.67"/><circle fill="#8c8999" cx="30.80" cy="25.67" r="20.53"/><circle fill="#8f7612" cx="61.60" cy="46.20" r="30.80"/><circle fill="#e58827" cx="35.93" cy="71.87" r="25.67"/><circle fill="#f4a589" cx="71.87" cy="71.87" r="20.53"/><circle fill="#eeece7" cx="61.60" cy="51.33" r="12.83"/></g><g transform="translate(107.67 53)"><rect fill="#8c8999" x="0" y="0" width="102.67" height="102.67"/><circle fill="#8f7612" cx="30.80" cy="25.67" r="20.53"/><circle fill="#e58827" cx="61.60" cy="46.20" r="30.80"/><circle fill="#f4a589" cx="35.93" cy="71.87" r="25.67"/><circle fill="#eeece7" cx="71.87" cy="71.87" r="20.53"/><circle fill="#1b2b29" cx="61.60" cy="51.33" r="12.83"/></g><g transform="translate(215.33 53)"><rect fill="#8f7612" x="0" y="0" width="102.67" height="102.67"/><circle fill="#e58827" cx="30.80" cy="25.67" r="20.53"/><circle fill="#f4a589" cx="61.60" cy="46.20" r="30.80"/><circle fill="#eeece7" cx="35.93" cy="71.87" r="25.67"/><circle fill="#1b2b29" cx="71.87" cy="71.87" r="20.53"/><circle fill="#8c8999" cx="61.60" cy="51.33" r="12.83"/></g><g transform="translate(0 160.67)"><rect fill="#e58827" x="0" y="0" width="102.67" height="102.67"/><circle fill="#f4a589" cx="30.80" cy="25.67" r="20.53"/><circle fill="#eeece7" cx="61.60" cy="46.20" r="30.80"/><circle fill="#1b2b29" cx="35.93" cy="71.87" r="25.67"/><circle fill="#8c8999" cx="71.87" cy="71.87" r="20.53"/><circle fill="#8f7612" cx="61.60" cy="51.33" r="12.83"/></g><g transform="translate(107.67 160.67)"><rect fill="#f4a589" x="0" y="0" width="102.67" height="102.67"/><circle fill="#eeece7" cx="30.80" cy="25.67" r="20.53"/><circle fill="#1b2b29" cx="61.60" cy="46.20" r="30.80"/><circle fill="#8c8999" cx="35.93" cy="71.87" r="25.67"/><circle fill="#8f7612" cx="71.87" cy="71.87" r="20.53"/><circle fill="#e58827" cx="61.60" cy="51.33" r="12.83"/></g><g transform="translate(215.33 160.67)"><rect fill="#eeece7" x="0" y="0" width="102.67" height="102.67"/><circle fill="#1b2b29" cx="30.80" cy="25.67" r="20.53"/><circle fill="#8c8999" cx="61.60" cy="46.20" r="30.80"/><circle fill="#8f7612" cx="35.93" cy="71.87" r="25.67"/><circle fill="#e58827" cx="71.87" cy="71.87" r="20.53"/><circle fill="#f4a589" cx="61.60" cy="51.33" r="12.83"/></g></svg>