<svg version="1.1" xmlns="http://www.w3.org/2000/svg" xmlns:xlink="http://www.w3.org/1999/xlink" xmlns:inkscape="http://www.inkscape.org/namespaces/inkscape" width="318" height="263.33"><g transform="translate(24 24)"><circle fill="#2f2d19" cx="0" cy="0" r="24"/><circle fill="#64553c" cx="53" cy="0" r="24"/><circle fill="#a89380" cx="106" cy="0" r="24"/><circle fill="#a6691c" cx="159" cy="0" r="24"/><circle fill="#f0bc6d" cx="212" cy="0" r="24"/><circle fill="#f0d39f" cx="265" cy="0" r="24"/></g><g transform="translate(0 53)"><rect fill="#2f2d19" x="0" y="0" width="102.67" height="102.67"/><circle fill="#64553c" cx="30.80" cy="25.67" r="20.53"/><circle fill="#a89380" cx="61.60" cy="46.20" r="30.80"/><circle fill="#a6691c" cx="35.93" cy="71.87" r="25.67"/><circle fill="#f0bc6d" cx="71.87" cy="71.87" r="20.53"/><circle fill="#f0d39f" cx="61.60" cy="51.33" r="12.83"/></g><g transform="translate(107.67 53)"><rect fill="#64553c" x="0" y="0" width="102.67" height="102.67"/><circle fill="#a89380" cx="30.80" cy="25.67" r="20.53"/><circle fill="#a6691c" cx="61.60" cy="46.20" r="30.80"/><circle fill="#f0bc6d" cx="35.93" cy="71.87" r="25.67"/><circle fill="#f0d39f" cx="71.87" cy="71.87" r="20.53"/><circle fill="#2f2d19" cx="61.60" cy="51.33" r="12.83"/></g><g transform="translate(215.33 53)"><rect fill="#a89380" x="0" y="0" width="102.67" height="102.67"/><circle fill="#a6691c" cx="30.80" cy="25.67" r="20.53"/><circle fill="#f0bc6d" cx="61.60" cy="46.20" r="30.80"/><circle fill="#f0d39f" cx="35.93" cy="71.87" r="25.67"/><circle fill="#2f2d19" cx="71.87" cy="71.87" r="20.53"/><circle fill="#64553c" cx="61.60" cy="51.33" r="12.83"/></g><g transform="translate(0 160.67)"><rect fill="#a6691c" x="0" y="0" width="102.67" height="102.67"/><circle fill="#f0bc6d" cx="30.80" cy="25.67" r="20.53"/><circle fill="#f0d39f" cx="61.60" cy="46.20" r="30.80"/><circle fill="#2f2d19" cx="35.93" cy="71.87" r="25.67"/><circle fill="#64553c" cx="71.87" cy="71.87" r="20.53"/><circle fill="#a89380" cx="61.60" cy="51.33" r="12.83"/></g><g transform="translate(107.67 160.67)"><rect fill="#f0bc6d" x="0" y="0" width="102.67" height="102.67"/><circle fill="#f0d39f" cx="30.80" cy="25.67" r="20.53"/><circle fill="#2f2d19" cx="61.60" cy="46.20" r="30.80"/><circle fill="#64553c" cx="35.93" cy="71.87" r="25.67"/><circle fill="#a89380" cx="71.87" cy="71.87" r="20.53"/><circle fill="#a6691c" cx="61.60" cy="51.33" r="12.83"/></g><g transform="translate(215.33 160.67)"><rect fill="#f0d39f" x="0" y="0" width="102.67" height="102.67"/><circle fill="#2f2d19" cx="30.80" cy="25.67" r="20.53"/><circle fill="#64553c" cx="61.60" cy="46.20" r="30.80"/><circle fill="#a89380" cx="35.93" cy="71.87" r="25.67"/><circle fill="#a6691c" cx="71.87" cy="71.87" r="20.53"/><circle fill="#f0bc6d" cx="61.60" cy="51.33" r="12.83"/></g></svg>