<svg version="1.1" xmlns="http://www.w3.org/2000/svg" xmlns:xlink="http://www.w3.org/1999/xlink" xmlns:inkscape="http://www.inkscape.org/namespaces/inkscape" width="318" height="263.33"><g transform="translate(24 24)"><circle fill="#bcafa7" cx="0" cy="0" r="24"/><circle fill="#3f301c" cx="53" cy="0" r="24"/><circle fill="#73550d" cx="106" cy="0" r="24"/><circle fill="#c8a10e" cx="159" cy="0" r="24"/><circle fill="#f7dd0b" cx="212" cy="0" r="24"/><circle fill="#f3ed6a" cx="265" cy="0" r="24"/></g><g transform="translate(0 53)"><rect fill="#bcafa7" x="0" y="0" width="102.67" height="102.67"/><circle fill="#3f301c" cx="30.80" cy="25.67" r="20.53"/><circle fill="#73550d" cx="61.60" cy="46.20" r="30.80"/><circle fill="#c8a10e" cx="35.93" cy="71.87" r="25.67"/><circle fill="#f7dd0b" cx="71.87" cy="71.87" r="20.53"/><circle fill="#f3ed6a" cx="61.60" cy="51.33" r="12.83"/></g><g transform="translate(107.67 53)"><rect fill="#3f301c" x="0" y="0" width="102.67" height="102.67"/><circle fill="#73550d" cx="30.80" cy="25.67" r="20.53"/><circle fill="#c8a10e" cx="61.60" cy="46.20" r="30.80"/><circle fill="#f7dd0b" cx="35.93" cy="71.87" r="25.67"/><circle fill="#f3ed6a" cx="71.87" cy="71.87" r="20.53"/><circle fill="#bcafa7" cx="61.60" cy="51.33" r="12.83"/></g><g transform="translate(215.33 53)"><rect fill="#73550d" x="0" y="0" width="102.67" height="102.67"/><circle fill="#c8a10e" cx="30.80" cy="25.67" r="20.53"/><circle fill="#f7dd0b" cx="61.60" cy="46.20" r="30.80"/><circle fill="#f3ed6a" cx="35.93" cy="71.87" r="25.67"/><circle fill="#bcafa7" cx="71.87" cy="71.87" r="20.53"/><circle fill="#3f301c" cx="61.60" cy="51.33" r="12.83"/></g><g transform="translate(0 160.67)"><rect fill="#c8a10e" x="0" y="0" width="102.67" height="102.67"/><circle fill="#f7dd0b" cx="30.80" cy="25.67" r="20.53"/><circle fill="#f3ed6a" cx="61.60" cy="46.20" r="30.80"/><circle fill="#bcafa7" cx="35.93" cy="71.87" r="25.67"/><circle fill="#3f301c" cx="71.87" cy="71.87" r="20.53"/><circle fill="#73550d" cx="61.60" cy="51.33" r="12.83"/></g><g transform="translate(107.67 160.67)"><rect fill="#f7dd0b" x="0" y="0" width="102.67" height="102.67"/><circle fill="#f3ed6a" cx="30.80" cy="25.67" r="20.53"/><circle fill="#bcafa7" cx="61.60" cy="46.20" r="30.80"/><circle fill="#3f301c" cx="35.93" cy="71.87" r="25.67"/><circle fill="#73550d" cx="71.87" cy="71.87" r="20.53"/><circle fill="#c8a10e" cx="61.60" cy="51.33" r="12.83"/></g><g transform="translate(215.33 160.67)"><rect fill="#f3ed6a" x="0" y="0" width="102.67" height="102.67"/><circle fill="#bcafa7" cx="30.80" cy="25.67" r="20.53"/><circle fill="#3f301c" cx="61.60" cy="46.20" r="30.80"/><circle fill="#73550d" cx="35.93" cy="71.87" r="25.67"/><circle fill="#c8a10e" cx="71.87" cy="71.87" r="20.53"/><circle fill="#f7dd0b" cx="61.60" cy="51.33" r="12.83"/></g></svg>