<svg version="1.1" xmlns="http://www.w3.org/2000/svg" xmlns:xlink="http://www.w3.org/1999/xlink" xmlns:inkscape="http://www.inkscape.org/namespaces/inkscape" width="318" height="263.33"><g transform="translate(24 24)"><circle fill="#213413" cx="0" cy="0" r="24"/><circle fill="#4a5a51" cx="53" cy="0" r="24"/><circle fill="#687a09" cx="106" cy="0" r="24"/><circle fill="#138c0f" cx="159" cy="0" r="24"/><circle fill="#ac7714" cx="212" cy="0" r="24"/><circle fill="#789297" cx="265" cy="0" r="24"/></g><g transform="translate(0 53)"><rect fill="#213413" x="0" y="0" width="102.67" height="102.67"/><circle fill="#4a5a51" cx="30.80" cy="25.67" r="20.53"/><circle fill="#687a09" cx="61.60" cy="46.20" r="30.80"/><circle fill="#138c0f" cx="35.93" cy="71.87" r="25.67"/><circle fill="#ac7714" cx="71.87" cy="71.87" r="20.53"/><circle fill="#789297" cx="61.60" cy="51.33" r="12.83"/></g><g transform="translate(107.67 53)"><rect fill="#4a5a51" x="0" y="0" width="102.67" height="102.67"/><circle fill="#687a09" cx="30.80" cy="25.67" r="20.53"/><circle fill="#138c0f" cx="61.60" cy="46.20" r="30.80"/><circle fill="#ac7714" cx="35.93" cy="71.87" r="25.67"/><circle fill="#789297" cx="71.87" cy="71.87" r="20.53"/><circle fill="#213413" cx="61.60" cy="51.33" r="12.83"/></g><g transform="translate(215.33 53)"><rect fill="#687a09" x="0" y="0" width="102.67" height="102.67"/><circle fill="#138c0f" cx="30.80" cy="25.67" r="20.53"/><circle fill="#ac7714" cx="61.60" cy="46.20" r="30.80"/><circle fill="#789297" cx="35.93" cy="71.87" r="25.67"/><circle fill="#213413" cx="71.87" cy="71.87" r="20.53"/><circle fill="#4a5a51" cx="61.60" cy="51.33" r="12.83"/></g><g transform="translate(0 160.67)"><rect fill="#138c0f" x="0" y="0" width="102.67" height="102.67"/><circle fill="#ac7714" cx="30.80" cy="25.67" r="20.53"/><circle fill="#789297" cx="61.60" cy="46.20" r="30.80"/><circle fill="#213413" cx="35.93" cy="71.87" r="25.67"/><circle fill="#4a5a51" cx="71.87" cy="71.87" r="20.53"/><circle fill="#687a09" cx="61.60" cy="51.33" r="12.83"/></g><g transform="translate(107.67 160.67)"><rect fill="#ac7714" x="0" y="0" width="102.67" height="102.67"/><circle fill="#789297" cx="30.80" cy="25.67" r="20.53"/><circle fill="#213413" cx="61.60" cy="46.20" r="30.80"/><circle fill="#4a5a51" cx="35.93" cy="71.87" r="25.67"/><circle fill="#687a09" cx="71.87" cy="71.87" r="20.53"/><circle fill="#138c0f" cx="61.60" cy="51.33" r="12.83"/></g><g transform="translate(215.33 160.67)"><rect fill="#789297" x="0" y="0" width="102.67" height="102.67"/><circle fill="#213413" cx="30.80" cy="25.67" r="20.53"/><circle fill="#4a5a51" cx="61.60" cy="46.20" r="30.80"/><circle fill="#687a09" cx="35.93" cy="71.87" r="25.67"/><circle fill="#138c0f" cx="71.87" cy="71.87" r="20.53"/><circle fill="#ac7714" cx="61.60" cy="51.33" r="12.83"/></g></svg>