<svg version="1.1" xmlns="http://www.w3.org/2000/svg" xmlns:xlink="http://www.w3.org/1999/xlink" xmlns:inkscape="http://www.inkscape.org/namespaces/inkscape" width="318" height="263.33"><g transform="translate(24 24)"><circle fill="#1a2140" cx="0" cy="0" r="24"/><circle fill="#b0a8b1" cx="53" cy="0" r="24"/><circle fill="#dcd9db" cx="106" cy="0" r="24"/><circle fill="#f6b6af" cx="159" cy="0" r="24"/><circle fill="#fb8484" cx="212" cy="0" r="24"/><circle fill="#f83e23" cx="265" cy="0" r="24"/></g><g transform="translate(0 53)"><rect fill="#1a2140" x="0" y="0" width="102.67" height="102.67"/><circle fill="#b0a8b1" cx="30.80" cy="25.67" r="20.53"/><circle fill="#dcd9db" cx="61.60" cy="46.20" r="30.80"/><circle fill="#f6b6af" cx="35.93" cy="71.87" r="25.67"/><circle fill="#fb8484" cx="71.87" cy="71.87" r="20.53"/><circle fill="#f83e23" cx="61.60" cy="51.33" r="12.83"/></g><g transform="translate(107.67 53)"><rect fill="#b0a8b1" x="0" y="0" width="102.67" height="102.67"/><circle fill="#dcd9db" cx="30.80" cy="25.67" r="20.53"/><circle fill="#f6b6af" cx="61.60" cy="46.20" r="30.80"/><circle fill="#fb8484" cx="35.93" cy="71.87" r="25.67"/><circle fill="#f83e23" cx="71.87" cy="71.87" r="20.53"/><circle fill="#1a2140" cx="61.60" cy="51.33" r="12.83"/></g><g transform="translate(215.33 53)"><rect fill="#dcd9db" x="0" y="0" width="102.67" height="102.67"/><circle fill="#f6b6af" cx="30.80" cy="25.67" r="20.53"/><circle fill="#fb8484" cx="61.60" cy="46.20" r="30.80"/><circle fill="#f83e23" cx="35.93" cy="71.87" r="25.67"/><circle fill="#1a2140" cx="71.87" cy="71.87" r="20.53"/><circle fill="#b0a8b1" cx="61.60" cy="51.33" r="12.83"/></g><g transform="translate(0 160.67)"><rect fill="#f6b6af" x="0" y="0" width="102.67" height="102.67"/><circle fill="#fb8484" cx="30.80" cy="25.67" r="20.53"/><circle fill="#f83e23" cx="61.60" cy="46.20" r="30.80"/><circle fill="#1a2140" cx="35.93" cy="71.87" r="25.67"/><circle fill="#b0a8b1" cx="71.87" cy="71.87" r="20.53"/><circle fill="#dcd9db" cx="61.60" cy="51.33" r="12.83"/></g><g transform="translate(107.67 160.67)"><rect fill="#fb8484" x="0" y="0" width="102.67" height="102.67"/><circle fill="#f83e23" cx="30.80" cy="25.67" r="20.53"/><circle fill="#1a2140" cx="61.60" cy="46.20" r="30.80"/><circle fill="#b0a8b1" cx="35.93" cy="71.87" r="25.67"/><circle fill="#dcd9db" cx="71.87" cy="71.87" r="20.53"/><circle fill="#f6b6af" cx="61.60" cy="51.33" r="12.83"/></g><g transform="translate(215.33 160.67)"><rect fill="#f83e23" x="0" y="0" width="102.67" height="102.67"/><circle fill="#1a2140" cx="30.80" cy="25.67" r="20.53"/><circle fill="#b0a8b1" cx="61.60" cy="46.20" r="30.80"/><circle fill="#dcd9db" cx="35.93" cy="71.87" r="25.67"/><circle fill="#f6b6af" cx="71.87" cy="71.87" r="20.53"/><circle fill="#fb8484" cx="61.60" cy="51.33" r="12.83"/></g></svg>