<svg version="1.1" xmlns="http://www.w3.org/2000/svg" xmlns:xlink="http://www.w3.org/1999/xlink" xmlns:inkscape="http://www.inkscape.org/namespaces/inkscape" width="318" height="263.33"><g transform="translate(24 24)"><circle fill="#ebdfc7" cx="0" cy="0" r="24"/><circle fill="#cec078" cx="53" cy="0" r="24"/><circle fill="#d4ce2d" cx="106" cy="0" r="24"/><circle fill="#c4c7b4" cx="159" cy="0" r="24"/><circle fill="#a1b9b4" cx="212" cy="0" r="24"/><circle fill="#45aba9" cx="265" cy="0" r="24"/></g><g transform="translate(0 53)"><rect fill="#ebdfc7" x="0" y="0" width="102.67" height="102.67"/><circle fill="#cec078" cx="30.80" cy="25.67" r="20.53"/><circle fill="#d4ce2d" cx="61.60" cy="46.20" r="30.80"/><circle fill="#c4c7b4" cx="35.93" cy="71.87" r="25.67"/><circle fill="#a1b9b4" cx="71.87" cy="71.87" r="20.53"/><circle fill="#45aba9" cx="61.60" cy="51.33" r="12.83"/></g><g transform="translate(107.67 53)"><rect fill="#cec078" x="0" y="0" width="102.67" height="102.67"/><circle fill="#d4ce2d" cx="30.80" cy="25.67" r="20.53"/><circle fill="#c4c7b4" cx="61.60" cy="46.20" r="30.80"/><circle fill="#a1b9b4" cx="35.93" cy="71.87" r="25.67"/><circle fill="#45aba9" cx="71.87" cy="71.87" r="20.53"/><circle fill="#ebdfc7" cx="61.60" cy="51.33" r="12.83"/></g><g transform="translate(215.33 53)"><rect fill="#d4ce2d" x="0" y="0" width="102.67" height="102.67"/><circle fill="#c4c7b4" cx="30.80" cy="25.67" r="20.53"/><circle fill="#a1b9b4" cx="61.60" cy="46.20" r="30.80"/><circle fill="#45aba9" cx="35.93" cy="71.87" r="25.67"/><circle fill="#ebdfc7" cx="71.87" cy="71.87" r="20.53"/><circle fill="#cec078" cx="61.60" cy="51.33" r="12.83"/></g><g transform="translate(0 160.67)"><rect fill="#c4c7b4" x="0" y="0" width="102.67" height="102.67"/><circle fill="#a1b9b4" cx="30.80" cy="25.67" r="20.53"/><circle fill="#45aba9" cx="61.60" cy="46.20" r="30.80"/><circle fill="#ebdfc7" cx="35.93" cy="71.87" r="25.67"/><circle fill="#cec078" cx="71.87" cy="71.87" r="20.53"/><circle fill="#d4ce2d" cx="61.60" cy="51.33" r="12.83"/></g><g transform="translate(107.67 160.67)"><rect fill="#a1b9b4" x="0" y="0" width="102.67" height="102.67"/><circle fill="#45aba9" cx="30.80" cy="25.67" r="20.53"/><circle fill="#ebdfc7" cx="61.60" cy="46.20" r="30.80"/><circle fill="#cec078" cx="35.93" cy="71.87" r="25.67"/><circle fill="#d4ce2d" cx="71.87" cy="71.87" r="20.53"/><circle fill="#c4c7b4" cx="61.60" cy="51.33" r="12.83"/></g><g transform="translate(215.33 160.67)"><rect fill="#45aba9" x="0" y="0" width="102.67" height="102.67"/><circle fill="#ebdfc7" cx="30.80" cy="25.67" r="20.53"/><circle fill="#cec078" cx="61.60" cy="46.20" r="30.80"/><circle fill="#d4ce2d" cx="35.93" cy="71.87" r="25.67"/><circle fill="#c4c7b4" cx="71.87" cy="71.87" r="20.53"/><circle fill="#a1b9b4" cx="61.60" cy="51.33" r="12.83"/></g></svg>