<svg version="1.1" xmlns="http://www.w3.org/2000/svg" xmlns:xlink="http://www.w3.org/1999/xlink" xmlns:inkscape="http://www.inkscape.org/namespaces/inkscape" width="318" height="263.33"><g transform="translate(24 24)"><circle fill="#d4b876" cx="0" cy="0" r="24"/><circle fill="#1a8cc5" cx="53" cy="0" r="24"/><circle fill="#8035a7" cx="106" cy="0" r="24"/><circle fill="#b830bb" cx="159" cy="0" r="24"/><circle fill="#e281c1" cx="212" cy="0" r="24"/><circle fill="#a8b0c0" cx="265" cy="0" r="24"/></g><g transform="translate(0 53)"><rect fill="#d4b876" x="0" y="0" width="102.67" height="102.67"/><circle fill="#1a8cc5" cx="30.80" cy="25.67" r="20.53"/><circle fill="#8035a7" cx="61.60" cy="46.20" r="30.80"/><circle fill="#b830bb" cx="35.93" cy="71.87" r="25.67"/><circle fill="#e281c1" cx="71.87" cy="71.87" r="20.53"/><circle fill="#a8b0c0" cx="61.60" cy="51.33" r="12.83"/></g><g transform="translate(107.67 53)"><rect fill="#1a8cc5" x="0" y="0" width="102.67" height="102.67"/><circle fill="#8035a7" cx="30.80" cy="25.67" r="20.53"/><circle fill="#b830bb" cx="61.60" cy="46.20" r="30.80"/><circle fill="#e281c1" cx="35.93" cy="71.87" r="25.67"/><circle fill="#a8b0c0" cx="71.87" cy="71.87" r="20.53"/><circle fill="#d4b876" cx="61.60" cy="51.33" r="12.83"/></g><g transform="translate(215.33 53)"><rect fill="#8035a7" x="0" y="0" width="102.67" height="102.67"/><circle fill="#b830bb" cx="30.80" cy="25.67" r="20.53"/><circle fill="#e281c1" cx="61.60" cy="46.20" r="30.80"/><circle fill="#a8b0c0" cx="35.93" cy="71.87" r="25.67"/><circle fill="#d4b876" cx="71.87" cy="71.87" r="20.53"/><circle fill="#1a8cc5" cx="61.60" cy="51.33" r="12.83"/></g><g transform="translate(0 160.67)"><rect fill="#b830bb" x="0" y="0" width="102.67" height="102.67"/><circle fill="#e281c1" cx="30.80" cy="25.67" r="20.53"/><circle fill="#a8b0c0" cx="61.60" cy="46.20" r="30.80"/><circle fill="#d4b876" cx="35.93" cy="71.87" r="25.67"/><circle fill="#1a8cc5" cx="71.87" cy="71.87" r="20.53"/><circle fill="#8035a7" cx="61.60" cy="51.33" r="12.83"/></g><g transform="translate(107.67 160.67)"><rect fill="#e281c1" x="0" y="0" width="102.67" height="102.67"/><circle fill="#a8b0c0" cx="30.80" cy="25.67" r="20.53"/><circle fill="#d4b876" cx="61.60" cy="46.20" r="30.80"/><circle fill="#1a8cc5" cx="35.93" cy="71.87" r="25.67"/><circle fill="#8035a7" cx="71.87" cy="71.87" r="20.53"/><circle fill="#b830bb" cx="61.60" cy="51.33" r="12.83"/></g><g transform="translate(215.33 160.67)"><rect fill="#a8b0c0" x="0" y="0" width="102.67" height="102.67"/><circle fill="#d4b876" cx="30.80" cy="25.67" r="20.53"/><circle fill="#1a8cc5" cx="61.60" cy="46.20" r="30.80"/><circle fill="#8035a7" cx="35.93" cy="71.87" r="25.67"/><circle fill="#b830bb" cx="71.87" cy="71.87" r="20.53"/><circle fill="#e281c1" cx="61.60" cy="51.33" r="12.83"/></g></svg>