<svg version="1.1" xmlns="http://www.w3.org/2000/svg" xmlns:xlink="http://www.w3.org/1999/xlink" xmlns:inkscape="http://www.inkscape.org/namespaces/inkscape" width="318" height="263.33"><g transform="translate(24 24)"><circle fill="#a69926" cx="0" cy="0" r="24"/><circle fill="#e8d80f" cx="53" cy="0" r="24"/><circle fill="#e6dd79" cx="106" cy="0" r="24"/><circle fill="#9bd3e1" cx="159" cy="0" r="24"/><circle fill="#11b2ca" cx="212" cy="0" r="24"/><circle fill="#e3c8eb" cx="265" cy="0" r="24"/></g><g transform="translate(0 53)"><rect fill="#a69926" x="0" y="0" width="102.67" height="102.67"/><circle fill="#e8d80f" cx="30.80" cy="25.67" r="20.53"/><circle fill="#e6dd79" cx="61.60" cy="46.20" r="30.80"/><circle fill="#9bd3e1" cx="35.93" cy="71.87" r="25.67"/><circle fill="#11b2ca" cx="71.87" cy="71.87" r="20.53"/><circle fill="#e3c8eb" cx="61.60" cy="51.33" r="12.83"/></g><g transform="translate(107.67 53)"><rect fill="#e8d80f" x="0" y="0" width="102.67" height="102.67"/><circle fill="#e6dd79" cx="30.80" cy="25.67" r="20.53"/><circle fill="#9bd3e1" cx="61.60" cy="46.20" r="30.80"/><circle fill="#11b2ca" cx="35.93" cy="71.87" r="25.67"/><circle fill="#e3c8eb" cx="71.87" cy="71.87" r="20.53"/><circle fill="#a69926" cx="61.60" cy="51.33" r="12.83"/></g><g transform="translate(215.33 53)"><rect fill="#e6dd79" x="0" y="0" width="102.67" height="102.67"/><circle fill="#9bd3e1" cx="30.80" cy="25.67" r="20.53"/><circle fill="#11b2ca" cx="61.60" cy="46.20" r="30.80"/><circle fill="#e3c8eb" cx="35.93" cy="71.87" r="25.67"/><circle fill="#a69926" cx="71.87" cy="71.87" r="20.53"/><circle fill="#e8d80f" cx="61.60" cy="51.33" r="12.83"/></g><g transform="translate(0 160.67)"><rect fill="#9bd3e1" x="0" y="0" width="102.67" height="102.67"/><circle fill="#11b2ca" cx="30.80" cy="25.67" r="20.53"/><circle fill="#e3c8eb" cx="61.60" cy="46.20" r="30.80"/><circle fill="#a69926" cx="35.93" cy="71.87" r="25.67"/><circle fill="#e8d80f" cx="71.87" cy="71.87" r="20.53"/><circle fill="#e6dd79" cx="61.60" cy="51.33" r="12.83"/></g><g transform="translate(107.67 160.67)"><rect fill="#11b2ca" x="0" y="0" width="102.67" height="102.67"/><circle fill="#e3c8eb" cx="30.80" cy="25.67" r="20.53"/><circle fill="#a69926" cx="61.60" cy="46.20" r="30.80"/><circle fill="#e8d80f" cx="35.93" cy="71.87" r="25.67"/><circle fill="#e6dd79" cx="71.87" cy="71.87" r="20.53"/><circle fill="#9bd3e1" cx="61.60" cy="51.33" r="12.83"/></g><g transform="translate(215.33 160.67)"><rect fill="#e3c8eb" x="0" y="0" width="102.67" height="102.67"/><circle fill="#a69926" cx="30.80" cy="25.67" r="20.53"/><circle fill="#e8d80f" cx="61.60" cy="46.20" r="30.80"/><circle fill="#e6dd79" cx="35.93" cy="71.87" r="25.67"/><circle fill="#9bd3e1" cx="71.87" cy="71.87" r="20.53"/><circle fill="#11b2ca" cx="61.60" cy="51.33" r="12.83"/></g></svg>