<svg version="1.1" xmlns="http://www.w3.org/2000/svg" xmlns:xlink="http://www.w3.org/1999/xlink" xmlns:inkscape="http://www.inkscape.org/namespaces/inkscape" width="318" height="263.33"><g transform="translate(24 24)"><circle fill="#e2202b" cx="0" cy="0" r="24"/><circle fill="#f3c208" cx="53" cy="0" r="24"/><circle fill="#d5ea16" cx="106" cy="0" r="24"/><circle fill="#2b8650" cx="159" cy="0" r="24"/><circle fill="#dbe3de" cx="212" cy="0" r="24"/><circle fill="#29b1bc" cx="265" cy="0" r="24"/></g><g transform="translate(0 53)"><rect fill="#e2202b" x="0" y="0" width="102.67" height="102.67"/><circle fill="#f3c208" cx="30.80" cy="25.67" r="20.53"/><circle fill="#d5ea16" cx="61.60" cy="46.20" r="30.80"/><circle fill="#2b8650" cx="35.93" cy="71.87" r="25.67"/><circle fill="#dbe3de" cx="71.87" cy="71.87" r="20.53"/><circle fill="#29b1bc" cx="61.60" cy="51.33" r="12.83"/></g><g transform="translate(107.67 53)"><rect fill="#f3c208" x="0" y="0" width="102.67" height="102.67"/><circle fill="#d5ea16" cx="30.80" cy="25.67" r="20.53"/><circle fill="#2b8650" cx="61.60" cy="46.20" r="30.80"/><circle fill="#dbe3de" cx="35.93" cy="71.87" r="25.67"/><circle fill="#29b1bc" cx="71.87" cy="71.87" r="20.53"/><circle fill="#e2202b" cx="61.60" cy="51.33" r="12.83"/></g><g transform="translate(215.33 53)"><rect fill="#d5ea16" x="0" y="0" width="102.67" height="102.67"/><circle fill="#2b8650" cx="30.80" cy="25.67" r="20.53"/><circle fill="#dbe3de" cx="61.60" cy="46.20" r="30.80"/><circle fill="#29b1bc" cx="35.93" cy="71.87" r="25.67"/><circle fill="#e2202b" cx="71.87" cy="71.87" r="20.53"/><circle fill="#f3c208" cx="61.60" cy="51.33" r="12.83"/></g><g transform="translate(0 160.67)"><rect fill="#2b8650" x="0" y="0" width="102.67" height="102.67"/><circle fill="#dbe3de" cx="30.80" cy="25.67" r="20.53"/><circle fill="#29b1bc" cx="61.60" cy="46.20" r="30.80"/><circle fill="#e2202b" cx="35.93" cy="71.87" r="25.67"/><circle fill="#f3c208" cx="71.87" cy="71.87" r="20.53"/><circle fill="#d5ea16" cx="61.60" cy="51.33" r="12.83"/></g><g transform="translate(107.67 160.67)"><rect fill="#dbe3de" x="0" y="0" width="102.67" height="102.67"/><circle fill="#29b1bc" cx="30.80" cy="25.67" r="20.53"/><circle fill="#e2202b" cx="61.60" cy="46.20" r="30.80"/><circle fill="#f3c208" cx="35.93" cy="71.87" r="25.67"/><circle fill="#d5ea16" cx="71.87" cy="71.87" r="20.53"/><circle fill="#2b8650" cx="61.60" cy="51.33" r="12.83"/></g><g transform="translate(215.33 160.67)"><rect fill="#29b1bc" x="0" y="0" width="102.67" height="102.67"/><circle fill="#e2202b" cx="30.80" cy="25.67" r="20.53"/><circle fill="#f3c208" cx="61.60" cy="46.20" r="30.80"/><circle fill="#d5ea16" cx="35.93" cy="71.87" r="25.67"/><circle fill="#2b8650" cx="71.87" cy="71.87" r="20.53"/><circle fill="#dbe3de" cx="61.60" cy="51.33" r="12.83"/></g></svg>