<svg version="1.1" xmlns="http://www.w3.org/2000/svg" xmlns:xlink="http://www.w3.org/1999/xlink" xmlns:inkscape="http://www.inkscape.org/namespaces/inkscape" width="318" height="263.33"><g transform="translate(24 24)"><circle fill="#05236b" cx="0" cy="0" r="24"/><circle fill="#125692" cx="53" cy="0" r="24"/><circle fill="#0e79b6" cx="106" cy="0" r="24"/><circle fill="#3580ad" cx="159" cy="0" r="24"/><circle fill="#77a4c2" cx="212" cy="0" r="24"/><circle fill="#a0c2db" cx="265" cy="0" r="24"/></g><g transform="translate(0 53)"><rect fill="#05236b" x="0" y="0" width="102.67" height="102.67"/><circle fill="#125692" cx="30.80" cy="25.67" r="20.53"/><circle fill="#0e79b6" cx="61.60" cy="46.20" r="30.80"/><circle fill="#3580ad" cx="35.93" cy="71.87" r="25.67"/><circle fill="#77a4c2" cx="71.87" cy="71.87" r="20.53"/><circle fill="#a0c2db" cx="61.60" cy="51.33" r="12.83"/></g><g transform="translate(107.67 53)"><rect fill="#125692" x="0" y="0" width="102.67" height="102.67"/><circle fill="#0e79b6" cx="30.80" cy="25.67" r="20.53"/><circle fill="#3580ad" cx="61.60" cy="46.20" r="30.80"/><circle fill="#77a4c2" cx="35.93" cy="71.87" r="25.67"/><circle fill="#a0c2db" cx="71.87" cy="71.87" r="20.53"/><circle fill="#05236b" cx="61.60" cy="51.33" r="12.83"/></g><g transform="translate(215.33 53)"><rect fill="#0e79b6" x="0" y="0" width="102.67" height="102.67"/><circle fill="#3580ad" cx="30.80" cy="25.67" r="20.53"/><circle fill="#77a4c2" cx="61.60" cy="46.20" r="30.80"/><circle fill="#a0c2db" cx="35.93" cy="71.87" r="25.67"/><circle fill="#05236b" cx="71.87" cy="71.87" r="20.53"/><circle fill="#125692" cx="61.60" cy="51.33" r="12.83"/></g><g transform="translate(0 160.67)"><rect fill="#3580ad" x="0" y="0" width="102.67" height="102.67"/><circle fill="#77a4c2" cx="30.80" cy="25.67" r="20.53"/><circle fill="#a0c2db" cx="61.60" cy="46.20" r="30.80"/><circle fill="#05236b" cx="35.93" cy="71.87" r="25.67"/><circle fill="#125692" cx="71.87" cy="71.87" r="20.53"/><circle fill="#0e79b6" cx="61.60" cy="51.33" r="12.83"/></g><g transform="translate(107.67 160.67)"><rect fill="#77a4c2" x="0" y="0" width="102.67" height="102.67"/><circle fill="#a0c2db" cx="30.80" cy="25.67" r="20.53"/><circle fill="#05236b" cx="61.60" cy="46.20" r="30.80"/><circle fill="#125692" cx="35.93" cy="71.87" r="25.67"/><circle fill="#0e79b6" cx="71.87" cy="71.87" r="20.53"/><circle fill="#3580ad" cx="61.60" cy="51.33" r="12.83"/></g><g transform="translate(215.33 160.67)"><rect fill="#a0c2db" x="0" y="0" width="102.67" height="102.67"/><circle fill="#05236b" cx="30.80" cy="25.67" r="20.53"/><circle fill="#125692" cx="61.60" cy="46.20" r="30.80"/><circle fill="#0e79b6" cx="35.93" cy="71.87" r="25.67"/><circle fill="#3580ad" cx="71.87" cy="71.87" r="20.53"/><circle fill="#77a4c2" cx="61.60" cy="51.33" r="12.83"/></g></svg>