<svg version="1.1" xmlns="http://www.w3.org/2000/svg" xmlns:xlink="http://www.w3.org/1999/xlink" xmlns:inkscape="http://www.inkscape.org/namespaces/inkscape" width="318" height="263.33"><g transform="translate(24 24)"><circle fill="#18260b" cx="0" cy="0" r="24"/><circle fill="#32590c" cx="53" cy="0" r="24"/><circle fill="#4ab483" cx="106" cy="0" r="24"/><circle fill="#7fdd28" cx="159" cy="0" r="24"/><circle fill="#c7e818" cx="212" cy="0" r="24"/><circle fill="#99cd94" cx="265" cy="0" r="24"/></g><g transform="translate(0 53)"><rect fill="#18260b" x="0" y="0" width="102.67" height="102.67"/><circle fill="#32590c" cx="30.80" cy="25.67" r="20.53"/><circle fill="#4ab483" cx="61.60" cy="46.20" r="30.80"/><circle fill="#7fdd28" cx="35.93" cy="71.87" r="25.67"/><circle fill="#c7e818" cx="71.87" cy="71.87" r="20.53"/><circle fill="#99cd94" cx="61.60" cy="51.33" r="12.83"/></g><g transform="translate(107.67 53)"><rect fill="#32590c" x="0" y="0" width="102.67" height="102.67"/><circle fill="#4ab483" cx="30.80" cy="25.67" r="20.53"/><circle fill="#7fdd28" cx="61.60" cy="46.20" r="30.80"/><circle fill="#c7e818" cx="35.93" cy="71.87" r="25.67"/><circle fill="#99cd94" cx="71.87" cy="71.87" r="20.53"/><circle fill="#18260b" cx="61.60" cy="51.33" r="12.83"/></g><g transform="translate(215.33 53)"><rect fill="#4ab483" x="0" y="0" width="102.67" height="102.67"/><circle fill="#7fdd28" cx="30.80" cy="25.67" r="20.53"/><circle fill="#c7e818" cx="61.60" cy="46.20" r="30.80"/><circle fill="#99cd94" cx="35.93" cy="71.87" r="25.67"/><circle fill="#18260b" cx="71.87" cy="71.87" r="20.53"/><circle fill="#32590c" cx="61.60" cy="51.33" r="12.83"/></g><g transform="translate(0 160.67)"><rect fill="#7fdd28" x="0" y="0" width="102.67" height="102.67"/><circle fill="#c7e818" cx="30.80" cy="25.67" r="20.53"/><circle fill="#99cd94" cx="61.60" cy="46.20" r="30.80"/><circle fill="#18260b" cx="35.93" cy="71.87" r="25.67"/><circle fill="#32590c" cx="71.87" cy="71.87" r="20.53"/><circle fill="#4ab483" cx="61.60" cy="51.33" r="12.83"/></g><g transform="translate(107.67 160.67)"><rect fill="#c7e818" x="0" y="0" width="102.67" height="102.67"/><circle fill="#99cd94" cx="30.80" cy="25.67" r="20.53"/><circle fill="#18260b" cx="61.60" cy="46.20" r="30.80"/><circle fill="#32590c" cx="35.93" cy="71.87" r="25.67"/><circle fill="#4ab483" cx="71.87" cy="71.87" r="20.53"/><circle fill="#7fdd28" cx="61.60" cy="51.33" r="12.83"/></g><g transform="translate(215.33 160.67)"><rect fill="#99cd94" x="0" y="0" width="102.67" height="102.67"/><circle fill="#18260b" cx="30.80" cy="25.67" r="20.53"/><circle fill="#32590c" cx="61.60" cy="46.20" r="30.80"/><circle fill="#4ab483" cx="35.93" cy="71.87" r="25.67"/><circle fill="#7fdd28" cx="71.87" cy="71.87" r="20.53"/><circle fill="#c7e818" cx="61.60" cy="51.33" r="12.83"/></g></svg>