<svg version="1.1" xmlns="http://www.w3.org/2000/svg" xmlns:xlink="http://www.w3.org/1999/xlink" xmlns:inkscape="http://www.inkscape.org/namespaces/inkscape" width="318" height="263.33"><g transform="translate(24 24)"><circle fill="#da3807" cx="0" cy="0" r="24"/><circle fill="#f17d0a" cx="53" cy="0" r="24"/><circle fill="#edba24" cx="106" cy="0" r="24"/><circle fill="#f7e358" cx="159" cy="0" r="24"/><circle fill="#a5bfb3" cx="212" cy="0" r="24"/><circle fill="#373933" cx="265" cy="0" r="24"/></g><g transform="translate(0 53)"><rect fill="#da3807" x="0" y="0" width="102.67" height="102.67"/><circle fill="#f17d0a" cx="30.80" cy="25.67" r="20.53"/><circle fill="#edba24" cx="61.60" cy="46.20" r="30.80"/><circle fill="#f7e358" cx="35.93" cy="71.87" r="25.67"/><circle fill="#a5bfb3" cx="71.87" cy="71.87" r="20.53"/><circle fill="#373933" cx="61.60" cy="51.33" r="12.83"/></g><g transform="translate(107.67 53)"><rect fill="#f17d0a" x="0" y="0" width="102.67" height="102.67"/><circle fill="#edba24" cx="30.80" cy="25.67" r="20.53"/><circle fill="#f7e358" cx="61.60" cy="46.20" r="30.80"/><circle fill="#a5bfb3" cx="35.93" cy="71.87" r="25.67"/><circle fill="#373933" cx="71.87" cy="71.87" r="20.53"/><circle fill="#da3807" cx="61.60" cy="51.33" r="12.83"/></g><g transform="translate(215.33 53)"><rect fill="#edba24" x="0" y="0" width="102.67" height="102.67"/><circle fill="#f7e358" cx="30.80" cy="25.67" r="20.53"/><circle fill="#a5bfb3" cx="61.60" cy="46.20" r="30.80"/><circle fill="#373933" cx="35.93" cy="71.87" r="25.67"/><circle fill="#da3807" cx="71.87" cy="71.87" r="20.53"/><circle fill="#f17d0a" cx="61.60" cy="51.33" r="12.83"/></g><g transform="translate(0 160.67)"><rect fill="#f7e358" x="0" y="0" width="102.67" height="102.67"/><circle fill="#a5bfb3" cx="30.80" cy="25.67" r="20.53"/><circle fill="#373933" cx="61.60" cy="46.20" r="30.80"/><circle fill="#da3807" cx="35.93" cy="71.87" r="25.67"/><circle fill="#f17d0a" cx="71.87" cy="71.87" r="20.53"/><circle fill="#edba24" cx="61.60" cy="51.33" r="12.83"/></g><g transform="translate(107.67 160.67)"><rect fill="#a5bfb3" x="0" y="0" width="102.67" height="102.67"/><circle fill="#373933" cx="30.80" cy="25.67" r="20.53"/><circle fill="#da3807" cx="61.60" cy="46.20" r="30.80"/><circle fill="#f17d0a" cx="35.93" cy="71.87" r="25.67"/><circle fill="#edba24" cx="71.87" cy="71.87" r="20.53"/><circle fill="#f7e358" cx="61.60" cy="51.33" r="12.83"/></g><g transform="translate(215.33 160.67)"><rect fill="#373933" x="0" y="0" width="102.67" height="102.67"/><circle fill="#da3807" cx="30.80" cy="25.67" r="20.53"/><circle fill="#f17d0a" cx="61.60" cy="46.20" r="30.80"/><circle fill="#edba24" cx="35.93" cy="71.87" r="25.67"/><circle fill="#f7e358" cx="71.87" cy="71.87" r="20.53"/><circle fill="#a5bfb3" cx="61.60" cy="51.33" r="12.83"/></g></svg>