<svg version="1.1" xmlns="http://www.w3.org/2000/svg" xmlns:xlink="http://www.w3.org/1999/xlink" xmlns:inkscape="http://www.inkscape.org/namespaces/inkscape" width="318" height="263.33"><g transform="translate(24 24)"><circle fill="#151d23" cx="0" cy="0" r="24"/><circle fill="#2d3841" cx="53" cy="0" r="24"/><circle fill="#7b899d" cx="106" cy="0" r="24"/><circle fill="#a7caee" cx="159" cy="0" r="24"/><circle fill="#9e8ced" cx="212" cy="0" r="24"/><circle fill="#7b37cd" cx="265" cy="0" r="24"/></g><g transform="translate(0 53)"><rect fill="#151d23" x="0" y="0" width="102.67" height="102.67"/><circle fill="#2d3841" cx="30.80" cy="25.67" r="20.53"/><circle fill="#7b899d" cx="61.60" cy="46.20" r="30.80"/><circle fill="#a7caee" cx="35.93" cy="71.87" r="25.67"/><circle fill="#9e8ced" cx="71.87" cy="71.87" r="20.53"/><circle fill="#7b37cd" cx="61.60" cy="51.33" r="12.83"/></g><g transform="translate(107.67 53)"><rect fill="#2d3841" x="0" y="0" width="102.67" height="102.67"/><circle fill="#7b899d" cx="30.80" cy="25.67" r="20.53"/><circle fill="#a7caee" cx="61.60" cy="46.20" r="30.80"/><circle fill="#9e8ced" cx="35.93" cy="71.87" r="25.67"/><circle fill="#7b37cd" cx="71.87" cy="71.87" r="20.53"/><circle fill="#151d23" cx="61.60" cy="51.33" r="12.83"/></g><g transform="translate(215.33 53)"><rect fill="#7b899d" x="0" y="0" width="102.67" height="102.67"/><circle fill="#a7caee" cx="30.80" cy="25.67" r="20.53"/><circle fill="#9e8ced" cx="61.60" cy="46.20" r="30.80"/><circle fill="#7b37cd" cx="35.93" cy="71.87" r="25.67"/><circle fill="#151d23" cx="71.87" cy="71.87" r="20.53"/><circle fill="#2d3841" cx="61.60" cy="51.33" r="12.83"/></g><g transform="translate(0 160.67)"><rect fill="#a7caee" x="0" y="0" width="102.67" height="102.67"/><circle fill="#9e8ced" cx="30.80" cy="25.67" r="20.53"/><circle fill="#7b37cd" cx="61.60" cy="46.20" r="30.80"/><circle fill="#151d23" cx="35.93" cy="71.87" r="25.67"/><circle fill="#2d3841" cx="71.87" cy="71.87" r="20.53"/><circle fill="#7b899d" cx="61.60" cy="51.33" r="12.83"/></g><g transform="translate(107.67 160.67)"><rect fill="#9e8ced" x="0" y="0" width="102.67" height="102.67"/><circle fill="#7b37cd" cx="30.80" cy="25.67" r="20.53"/><circle fill="#151d23" cx="61.60" cy="46.20" r="30.80"/><circle fill="#2d3841" cx="35.93" cy="71.87" r="25.67"/><circle fill="#7b899d" cx="71.87" cy="71.87" r="20.53"/><circle fill="#a7caee" cx="61.60" cy="51.33" r="12.83"/></g><g transform="translate(215.33 160.67)"><rect fill="#7b37cd" x="0" y="0" width="102.67" height="102.67"/><circle fill="#151d23" cx="30.80" cy="25.67" r="20.53"/><circle fill="#2d3841" cx="61.60" cy="46.20" r="30.80"/><circle fill="#7b899d" cx="35.93" cy="71.87" r="25.67"/><circle fill="#a7caee" cx="71.87" cy="71.87" r="20.53"/><circle fill="#9e8ced" cx="61.60" cy="51.33" r="12.83"/></g></svg>