<svg version="1.1" xmlns="http://www.w3.org/2000/svg" xmlns:xlink="http://www.w3.org/1999/xlink" xmlns:inkscape="http://www.inkscape.org/namespaces/inkscape" width="318" height="263.33"><g transform="translate(24 24)"><circle fill="#051f46" cx="0" cy="0" r="24"/><circle fill="#711732" cx="53" cy="0" r="24"/><circle fill="#b11586" cx="106" cy="0" r="24"/><circle fill="#1c8d99" cx="159" cy="0" r="24"/><circle fill="#76967e" cx="212" cy="0" r="24"/><circle fill="#bfe0d4" cx="265" cy="0" r="24"/></g><g transform="translate(0 53)"><rect fill="#051f46" x="0" y="0" width="102.67" height="102.67"/><circle fill="#711732" cx="30.80" cy="25.67" r="20.53"/><circle fill="#b11586" cx="61.60" cy="46.20" r="30.80"/><circle fill="#1c8d99" cx="35.93" cy="71.87" r="25.67"/><circle fill="#76967e" cx="71.87" cy="71.87" r="20.53"/><circle fill="#bfe0d4" cx="61.60" cy="51.33" r="12.83"/></g><g transform="translate(107.67 53)"><rect fill="#711732" x="0" y="0" width="102.67" height="102.67"/><circle fill="#b11586" cx="30.80" cy="25.67" r="20.53"/><circle fill="#1c8d99" cx="61.60" cy="46.20" r="30.80"/><circle fill="#76967e" cx="35.93" cy="71.87" r="25.67"/><circle fill="#bfe0d4" cx="71.87" cy="71.87" r="20.53"/><circle fill="#051f46" cx="61.60" cy="51.33" r="12.83"/></g><g transform="translate(215.33 53)"><rect fill="#b11586" x="0" y="0" width="102.67" height="102.67"/><circle fill="#1c8d99" cx="30.80" cy="25.67" r="20.53"/><circle fill="#76967e" cx="61.60" cy="46.20" r="30.80"/><circle fill="#bfe0d4" cx="35.93" cy="71.87" r="25.67"/><circle fill="#051f46" cx="71.87" cy="71.87" r="20.53"/><circle fill="#711732" cx="61.60" cy="51.33" r="12.83"/></g><g transform="translate(0 160.67)"><rect fill="#1c8d99" x="0" y="0" width="102.67" height="102.67"/><circle fill="#76967e" cx="30.80" cy="25.67" r="20.53"/><circle fill="#bfe0d4" cx="61.60" cy="46.20" r="30.80"/><circle fill="#051f46" cx="35.93" cy="71.87" r="25.67"/><circle fill="#711732" cx="71.87" cy="71.87" r="20.53"/><circle fill="#b11586" cx="61.60" cy="51.33" r="12.83"/></g><g transform="translate(107.67 160.67)"><rect fill="#76967e" x="0" y="0" width="102.67" height="102.67"/><circle fill="#bfe0d4" cx="30.80" cy="25.67" r="20.53"/><circle fill="#051f46" cx="61.60" cy="46.20" r="30.80"/><circle fill="#711732" cx="35.93" cy="71.87" r="25.67"/><circle fill="#b11586" cx="71.87" cy="71.87" r="20.53"/><circle fill="#1c8d99" cx="61.60" cy="51.33" r="12.83"/></g><g transform="translate(215.33 160.67)"><rect fill="#bfe0d4" x="0" y="0" width="102.67" height="102.67"/><circle fill="#051f46" cx="30.80" cy="25.67" r="20.53"/><circle fill="#711732" cx="61.60" cy="46.20" r="30.80"/><circle fill="#b11586" cx="35.93" cy="71.87" r="25.67"/><circle fill="#1c8d99" cx="71.87" cy="71.87" r="20.53"/><circle fill="#76967e" cx="61.60" cy="51.33" r="12.83"/></g></svg>