<?xml version="1.0" encoding="UTF-8" standalone="no"?>
<!DOCTYPE svg PUBLIC "-//W3C//DTD SVG 1.1//EN"
 "http://www.w3.org/Graphics/SVG/1.1/DTD/svg11.dtd">
<!-- Generated by graphviz version 7.1.0 (20230121.1956)
 -->
<!-- Title: g Pages: 1 -->
<svg width="471pt" height="155pt"
 viewBox="0.00 0.00 471.04 155.21" xmlns="http://www.w3.org/2000/svg" xmlns:xlink="http://www.w3.org/1999/xlink">
<g id="graph0" class="graph" transform="scale(1 1) rotate(0) translate(4 151.21)">
<title>g</title>
<polygon fill="white" stroke="none" points="-4,4 -4,-151.21 467.04,-151.21 467.04,4 -4,4"/>
<!-- s0 -->
<g id="node1" class="node">
<title>s0</title>
<ellipse fill="blue" stroke="blue" cx="39.6" cy="-108.21" rx="39.7" ry="21.43"/>
<text text-anchor="middle" x="39.6" y="-111.21" font-family="sans-serif" font-size="10.00" fill="white">iterable&#45;0</text>
<text text-anchor="middle" x="39.6" y="-100.21" font-family="sans-serif" font-size="10.00" fill="white">(Stream)</text>
</g>
<!-- s1 -->
<g id="node2" class="node">
<title>s1</title>
<ellipse fill="black" stroke="black" cx="179.64" cy="-129.21" rx="27" ry="18"/>
<text text-anchor="middle" x="179.64" y="-126.71" font-family="sans-serif" font-size="10.00" fill="white">x10</text>
</g>
<!-- s0&#45;&gt;s1 -->
<g id="edge3" class="edge">
<title>s0&#45;&gt;s1</title>
<path fill="none" stroke="black" d="M78.32,-113.95C98.11,-116.96 122.26,-120.64 141.9,-123.62"/>
<polygon fill="black" stroke="black" points="141.27,-127.07 151.68,-125.11 142.32,-120.15 141.27,-127.07"/>
<text text-anchor="middle" x="109.7" y="-123.21" font-family="sans-serif" font-size="10.00">xform</text>
</g>
<!-- s2 -->
<g id="node3" class="node">
<title>s2</title>
<ellipse fill="black" stroke="black" cx="179.64" cy="-75.21" rx="39.38" ry="18"/>
<text text-anchor="middle" x="179.64" y="-72.71" font-family="sans-serif" font-size="10.00" fill="white">in&#45;iterable&#45;0</text>
</g>
<!-- s0&#45;&gt;s2 -->
<g id="edge4" class="edge">
<title>s0&#45;&gt;s2</title>
<path fill="none" stroke="black" d="M76.51,-99.63C93.84,-95.49 114.82,-90.47 133.25,-86.06"/>
<polygon fill="black" stroke="black" points="133.95,-89.49 142.86,-83.77 132.32,-82.69 133.95,-89.49"/>
</g>
<!-- s3 -->
<g id="node4" class="node">
<title>s3</title>
<ellipse fill="red" stroke="red" cx="314.06" cy="-47.21" rx="57.97" ry="21.43"/>
<text text-anchor="middle" x="314.06" y="-50.21" font-family="sans-serif" font-size="10.00" fill="white">streammerge&#45;2</text>
<text text-anchor="middle" x="314.06" y="-39.21" font-family="sans-serif" font-size="10.00" fill="white">(StreamMerge)</text>
</g>
<!-- s2&#45;&gt;s3 -->
<g id="edge2" class="edge">
<title>s2&#45;&gt;s3</title>
<path fill="none" stroke="black" d="M215.78,-67.78C227.04,-65.4 239.85,-62.69 252.39,-60.04"/>
<polygon fill="black" stroke="black" points="252.76,-63.54 261.82,-58.05 251.31,-56.69 252.76,-63.54"/>
</g>
<!-- s4 -->
<g id="node5" class="node">
<title>s4</title>
<ellipse fill="black" stroke="black" cx="436.04" cy="-47.21" rx="27" ry="18"/>
<text text-anchor="middle" x="436.04" y="-44.71" font-family="sans-serif" font-size="10.00" fill="white">sub&#45;3</text>
</g>
<!-- s3&#45;&gt;s4 -->
<g id="edge1" class="edge">
<title>s3&#45;&gt;s4</title>
<path fill="none" stroke="black" d="M372.24,-47.21C380.84,-47.21 389.51,-47.21 397.55,-47.21"/>
<polygon fill="black" stroke="black" points="397.29,-50.71 407.29,-47.21 397.29,-43.71 397.29,-50.71"/>
</g>
<!-- s5 -->
<g id="node6" class="node">
<title>s5</title>
<ellipse fill="blue" stroke="blue" cx="39.6" cy="-21.21" rx="39.7" ry="21.43"/>
<text text-anchor="middle" x="39.6" y="-24.21" font-family="sans-serif" font-size="10.00" fill="white">iterable&#45;1</text>
<text text-anchor="middle" x="39.6" y="-13.21" font-family="sans-serif" font-size="10.00" fill="white">(Stream)</text>
</g>
<!-- s6 -->
<g id="node7" class="node">
<title>s6</title>
<ellipse fill="black" stroke="black" cx="179.64" cy="-21.21" rx="39.38" ry="18"/>
<text text-anchor="middle" x="179.64" y="-18.71" font-family="sans-serif" font-size="10.00" fill="white">in&#45;iterable&#45;1</text>
</g>
<!-- s5&#45;&gt;s6 -->
<g id="edge6" class="edge">
<title>s5&#45;&gt;s6</title>
<path fill="none" stroke="black" d="M79.79,-21.21C94.92,-21.21 112.43,-21.21 128.47,-21.21"/>
<polygon fill="black" stroke="black" points="128.32,-24.71 138.32,-21.21 128.32,-17.71 128.32,-24.71"/>
</g>
<!-- s6&#45;&gt;s3 -->
<g id="edge5" class="edge">
<title>s6&#45;&gt;s3</title>
<path fill="none" stroke="black" d="M216.47,-28.25C227.15,-30.35 239.18,-32.71 251.03,-35.03"/>
<polygon fill="black" stroke="black" points="250.31,-38.46 260.8,-36.95 251.66,-31.59 250.31,-38.46"/>
</g>
</g>
</svg>
