<?xml version="1.0" encoding="UTF-8" standalone="no"?>
<!DOCTYPE svg PUBLIC "-//W3C//DTD SVG 1.1//EN"
 "http://www.w3.org/Graphics/SVG/1.1/DTD/svg11.dtd">
<!-- Generated by graphviz version 2.40.1 (20161225.0304)
 -->
<!-- Title: g Pages: 1 -->
<svg width="1597pt" height="463pt"
 viewBox="0.00 0.00 1597.33 462.98" xmlns="http://www.w3.org/2000/svg" xmlns:xlink="http://www.w3.org/1999/xlink">
<g id="graph0" class="graph" transform="scale(1 1) rotate(0) translate(4 458.9754)">
<title>g</title>
<polygon fill="#ffffff" stroke="transparent" points="-4,4 -4,-458.9754 1593.3257,-458.9754 1593.3257,4 -4,4"/>
<!-- s0 -->
<g id="node1" class="node">
<title>s0</title>
<ellipse fill="#0000ff" stroke="#0000ff" cx="42.4264" cy="-21.9754" rx="42.3529" ry="21.9508"/>
<text text-anchor="middle" x="42.4264" y="-24.7144" font-family="Inconsolata" font-size="11.00" fill="#ffffff">S</text>
<text text-anchor="middle" x="42.4264" y="-13.1754" font-family="Inconsolata" font-size="11.00" fill="#ffffff">(Stream)</text>
</g>
<!-- s1 -->
<g id="node2" class="node">
<title>s1</title>
<ellipse fill="#0000ff" stroke="#0000ff" cx="42.4264" cy="-306.9754" rx="42.3529" ry="21.9508"/>
<text text-anchor="middle" x="42.4264" y="-309.7144" font-family="Inconsolata" font-size="11.00" fill="#ffffff">P</text>
<text text-anchor="middle" x="42.4264" y="-298.1754" font-family="Inconsolata" font-size="11.00" fill="#ffffff">(Stream)</text>
</g>
<!-- s2 -->
<g id="node3" class="node">
<title>s2</title>
<ellipse fill="#000000" stroke="#000000" cx="190.7792" cy="-220.9754" rx="27" ry="18"/>
<text text-anchor="middle" x="190.7792" y="-217.9449" font-family="Inconsolata" font-size="11.00" fill="#ffffff">p</text>
</g>
<!-- s1&#45;&gt;s2 -->
<g id="edge28" class="edge">
<title>s1&#45;&gt;s2</title>
<path fill="none" stroke="#000000" d="M71.0303,-290.3937C97.0904,-275.2867 135.4032,-253.0768 161.6319,-237.8721"/>
<polygon fill="#000000" stroke="#000000" points="163.4693,-240.8525 170.3654,-232.8092 159.9586,-234.7965 163.4693,-240.8525"/>
<text text-anchor="middle" x="116.6028" y="-274.7144" font-family="Inconsolata" font-size="11.00" fill="#000000">xform</text>
</g>
<!-- s21 -->
<g id="node22" class="node">
<title>s21</title>
<ellipse fill="#000000" stroke="#000000" cx="190.7792" cy="-392.9754" rx="27" ry="18"/>
<text text-anchor="middle" x="190.7792" y="-389.9449" font-family="Inconsolata" font-size="11.00" fill="#ffffff">p</text>
</g>
<!-- s1&#45;&gt;s21 -->
<g id="edge29" class="edge">
<title>s1&#45;&gt;s21</title>
<path fill="none" stroke="#000000" d="M71.0303,-323.5571C97.0904,-338.6641 135.4032,-360.874 161.6319,-376.0787"/>
<polygon fill="#000000" stroke="#000000" points="159.9586,-379.1543 170.3654,-381.1416 163.4693,-373.0983 159.9586,-379.1543"/>
<text text-anchor="middle" x="116.6028" y="-360.7144" font-family="Inconsolata" font-size="11.00" fill="#000000">xform</text>
</g>
<!-- s3 -->
<g id="node4" class="node">
<title>s3</title>
<ellipse fill="#000000" stroke="#000000" cx="323.7056" cy="-166.9754" rx="27" ry="18"/>
<text text-anchor="middle" x="323.7056" y="-163.9449" font-family="Inconsolata" font-size="11.00" fill="#ffffff">in&#45;p</text>
</g>
<!-- s2&#45;&gt;s3 -->
<g id="edge18" class="edge">
<title>s2&#45;&gt;s3</title>
<path fill="none" stroke="#000000" d="M213.9332,-211.5693C235.2458,-202.9113 267.0821,-189.9781 290.9892,-180.2661"/>
<polygon fill="#000000" stroke="#000000" points="292.4236,-183.4613 300.3709,-176.4549 289.7889,-176.976 292.4236,-183.4613"/>
<text text-anchor="middle" x="264.9556" y="-198.7144" font-family="Inconsolata" font-size="11.00" fill="#000000">xform</text>
</g>
<!-- s14 -->
<g id="node15" class="node">
<title>s14</title>
<ellipse fill="#000000" stroke="#000000" cx="323.7056" cy="-220.9754" rx="27" ry="18"/>
<text text-anchor="middle" x="323.7056" y="-217.9449" font-family="Inconsolata" font-size="11.00" fill="#ffffff">in&#45;p</text>
</g>
<!-- s2&#45;&gt;s14 -->
<g id="edge19" class="edge">
<title>s2&#45;&gt;s14</title>
<path fill="none" stroke="#000000" d="M217.9996,-220.9754C237.7125,-220.9754 264.6012,-220.9754 286.3257,-220.9754"/>
<polygon fill="#000000" stroke="#000000" points="286.5217,-224.4755 296.5216,-220.9754 286.5216,-217.4755 286.5217,-224.4755"/>
<text text-anchor="middle" x="264.9556" y="-223.7144" font-family="Inconsolata" font-size="11.00" fill="#000000">xform</text>
</g>
<!-- s4 -->
<g id="node5" class="node">
<title>s4</title>
<ellipse fill="#c0c0c0" stroke="#c0c0c0" cx="416.8759" cy="-166.9754" rx="29.3416" ry="18"/>
<text text-anchor="middle" x="416.8759" y="-163.9449" font-family="Inconsolata" font-size="11.00" fill="#ffffff">&lt;noid&gt;</text>
</g>
<!-- s3&#45;&gt;s4 -->
<g id="edge10" class="edge">
<title>s3&#45;&gt;s4</title>
<path fill="none" stroke="#000000" d="M351.1559,-166.9754C359.4122,-166.9754 368.639,-166.9754 377.5081,-166.9754"/>
<polygon fill="#000000" stroke="#000000" points="377.6759,-170.4755 387.6758,-166.9754 377.6758,-163.4755 377.6759,-170.4755"/>
</g>
<!-- s5 -->
<g id="node6" class="node">
<title>s5</title>
<ellipse fill="#ff0000" stroke="#ff0000" cx="567.529" cy="-170.9754" rx="57.9655" ry="21.9508"/>
<text text-anchor="middle" x="567.529" y="-173.7144" font-family="Inconsolata" font-size="11.00" fill="#ffffff">query&#45;0&#45;raw</text>
<text text-anchor="middle" x="567.529" y="-162.1754" font-family="Inconsolata" font-size="11.00" fill="#ffffff">(StreamSync)</text>
</g>
<!-- s4&#45;&gt;s5 -->
<g id="edge9" class="edge">
<title>s4&#45;&gt;s5</title>
<path fill="none" stroke="#000000" d="M446.3139,-167.4575C460.0583,-167.7067 476.6405,-168.0416 491.5462,-168.4364 494.0861,-168.5037 496.6737,-168.5752 499.2873,-168.65"/>
<polygon fill="#000000" stroke="#000000" points="499.3529,-172.1534 509.4524,-168.9521 499.5609,-165.1565 499.3529,-172.1534"/>
<text text-anchor="middle" x="477.7962" y="-171.7144" font-family="Inconsolata" font-size="11.00" fill="#000000">xform</text>
</g>
<!-- s6 -->
<g id="node7" class="node">
<title>s6</title>
<ellipse fill="#000000" stroke="#000000" cx="721.4563" cy="-170.9754" rx="32.3892" ry="18"/>
<text text-anchor="middle" x="721.4563" y="-167.9449" font-family="Inconsolata" font-size="11.00" fill="#ffffff">xform&#45;1</text>
</g>
<!-- s5&#45;&gt;s6 -->
<g id="edge8" class="edge">
<title>s5&#45;&gt;s6</title>
<path fill="none" stroke="#000000" d="M625.7223,-170.9754C643.1818,-170.9754 662.0138,-170.9754 678.3177,-170.9754"/>
<polygon fill="#000000" stroke="#000000" points="678.6268,-174.4755 688.6268,-170.9754 678.6267,-167.4755 678.6268,-174.4755"/>
<text text-anchor="middle" x="657.2618" y="-173.7144" font-family="Inconsolata" font-size="11.00" fill="#000000">xform</text>
</g>
<!-- s7 -->
<g id="node8" class="node">
<title>s7</title>
<ellipse fill="#000000" stroke="#000000" cx="849.8453" cy="-170.9754" rx="32.3892" ry="18"/>
<text text-anchor="middle" x="849.8453" y="-167.9449" font-family="Inconsolata" font-size="11.00" fill="#ffffff">query&#45;0</text>
</g>
<!-- s6&#45;&gt;s7 -->
<g id="edge7" class="edge">
<title>s6&#45;&gt;s7</title>
<path fill="none" stroke="#000000" d="M754.1865,-170.9754C770.1829,-170.9754 789.6423,-170.9754 806.8232,-170.9754"/>
<polygon fill="#000000" stroke="#000000" points="807.175,-174.4755 817.1749,-170.9754 807.1749,-167.4755 807.175,-174.4755"/>
<text text-anchor="middle" x="785.6508" y="-173.7144" font-family="Inconsolata" font-size="11.00" fill="#000000">xform</text>
</g>
<!-- s8 -->
<g id="node9" class="node">
<title>s8</title>
<ellipse fill="#000000" stroke="#000000" cx="972.7899" cy="-173.9754" rx="27" ry="18"/>
<text text-anchor="middle" x="972.7899" y="-170.9449" font-family="Inconsolata" font-size="11.00" fill="#ffffff">in&#45;0</text>
</g>
<!-- s7&#45;&gt;s8 -->
<g id="edge6" class="edge">
<title>s7&#45;&gt;s8</title>
<path fill="none" stroke="#000000" d="M882.4694,-171.7715C898.729,-172.1682 918.471,-172.65 935.346,-173.0617"/>
<polygon fill="#000000" stroke="#000000" points="935.3433,-176.5626 945.4258,-173.3077 935.5142,-169.5647 935.3433,-176.5626"/>
<text text-anchor="middle" x="914.0399" y="-175.7144" font-family="Inconsolata" font-size="11.00" fill="#000000">xform</text>
</g>
<!-- s9 -->
<g id="node10" class="node">
<title>s9</title>
<ellipse fill="#c0c0c0" stroke="#c0c0c0" cx="1065.9602" cy="-180.9754" rx="29.3416" ry="18"/>
<text text-anchor="middle" x="1065.9602" y="-177.9449" font-family="Inconsolata" font-size="11.00" fill="#ffffff">&lt;noid&gt;</text>
</g>
<!-- s8&#45;&gt;s9 -->
<g id="edge5" class="edge">
<title>s8&#45;&gt;s9</title>
<path fill="none" stroke="#000000" d="M999.7386,-176.0001C1008.173,-176.6338 1017.6585,-177.3464 1026.7584,-178.0301"/>
<polygon fill="#000000" stroke="#000000" points="1026.5578,-181.5248 1036.792,-178.784 1027.0823,-174.5445 1026.5578,-181.5248"/>
</g>
<!-- s10 -->
<g id="node11" class="node">
<title>s10</title>
<ellipse fill="#ff0000" stroke="#ff0000" cx="1216.6132" cy="-236.9754" rx="57.9655" ry="21.9508"/>
<text text-anchor="middle" x="1216.6132" y="-239.7144" font-family="Inconsolata" font-size="11.00" fill="#ffffff">streamsync&#45;6</text>
<text text-anchor="middle" x="1216.6132" y="-228.1754" font-family="Inconsolata" font-size="11.00" fill="#ffffff">(StreamSync)</text>
</g>
<!-- s9&#45;&gt;s10 -->
<g id="edge4" class="edge">
<title>s9&#45;&gt;s10</title>
<path fill="none" stroke="#000000" d="M1091.1761,-190.3485C1111.4533,-197.8859 1140.5966,-208.7189 1165.6895,-218.0463"/>
<polygon fill="#000000" stroke="#000000" points="1164.4885,-221.3338 1175.0814,-221.5374 1166.9275,-214.7724 1164.4885,-221.3338"/>
<text text-anchor="middle" x="1126.8805" y="-210.7144" font-family="Inconsolata" font-size="11.00" fill="#000000">xform</text>
</g>
<!-- s11 -->
<g id="node12" class="node">
<title>s11</title>
<ellipse fill="#000000" stroke="#000000" cx="1370.5405" cy="-236.9754" rx="32.3892" ry="18"/>
<text text-anchor="middle" x="1370.5405" y="-233.9449" font-family="Inconsolata" font-size="11.00" fill="#ffffff">xform&#45;7</text>
</g>
<!-- s10&#45;&gt;s11 -->
<g id="edge3" class="edge">
<title>s10&#45;&gt;s11</title>
<path fill="none" stroke="#000000" d="M1274.8066,-236.9754C1292.266,-236.9754 1311.098,-236.9754 1327.4019,-236.9754"/>
<polygon fill="#000000" stroke="#000000" points="1327.711,-240.4755 1337.711,-236.9754 1327.711,-233.4755 1327.711,-240.4755"/>
<text text-anchor="middle" x="1306.346" y="-239.7144" font-family="Inconsolata" font-size="11.00" fill="#000000">xform</text>
</g>
<!-- s12 -->
<g id="node13" class="node">
<title>s12</title>
<ellipse fill="#000000" stroke="#000000" cx="1466.9851" cy="-236.9754" rx="27" ry="18"/>
<text text-anchor="middle" x="1466.9851" y="-233.9449" font-family="Inconsolata" font-size="11.00" fill="#ffffff">sub&#45;8</text>
</g>
<!-- s11&#45;&gt;s12 -->
<g id="edge2" class="edge">
<title>s11&#45;&gt;s12</title>
<path fill="none" stroke="#000000" d="M1403.1922,-236.9754C1411.6617,-236.9754 1420.849,-236.9754 1429.5435,-236.9754"/>
<polygon fill="#000000" stroke="#000000" points="1429.8231,-240.4755 1439.8231,-236.9754 1429.823,-233.4755 1429.8231,-240.4755"/>
</g>
<!-- s13 -->
<g id="node14" class="node">
<title>s13</title>
<ellipse fill="#c0c0c0" stroke="#c0c0c0" cx="1560.1554" cy="-236.9754" rx="29.3416" ry="18"/>
<text text-anchor="middle" x="1560.1554" y="-233.9449" font-family="Inconsolata" font-size="11.00" fill="#ffffff">&lt;noid&gt;</text>
</g>
<!-- s12&#45;&gt;s13 -->
<g id="edge1" class="edge">
<title>s12&#45;&gt;s13</title>
<path fill="none" stroke="#000000" d="M1494.4353,-236.9754C1502.6916,-236.9754 1511.9184,-236.9754 1520.7876,-236.9754"/>
<polygon fill="#000000" stroke="#000000" points="1520.9553,-240.4755 1530.9553,-236.9754 1520.9552,-233.4755 1520.9553,-240.4755"/>
</g>
<!-- s15 -->
<g id="node16" class="node">
<title>s15</title>
<ellipse fill="#c0c0c0" stroke="#c0c0c0" cx="416.8759" cy="-220.9754" rx="29.3416" ry="18"/>
<text text-anchor="middle" x="416.8759" y="-217.9449" font-family="Inconsolata" font-size="11.00" fill="#ffffff">&lt;noid&gt;</text>
</g>
<!-- s14&#45;&gt;s15 -->
<g id="edge17" class="edge">
<title>s14&#45;&gt;s15</title>
<path fill="none" stroke="#000000" d="M351.1559,-220.9754C359.4122,-220.9754 368.639,-220.9754 377.5081,-220.9754"/>
<polygon fill="#000000" stroke="#000000" points="377.6759,-224.4755 387.6758,-220.9754 377.6758,-217.4755 377.6759,-224.4755"/>
</g>
<!-- s16 -->
<g id="node17" class="node">
<title>s16</title>
<ellipse fill="#ff0000" stroke="#ff0000" cx="567.529" cy="-236.9754" rx="57.9655" ry="21.9508"/>
<text text-anchor="middle" x="567.529" y="-239.7144" font-family="Inconsolata" font-size="11.00" fill="#ffffff">query&#45;4&#45;raw</text>
<text text-anchor="middle" x="567.529" y="-228.1754" font-family="Inconsolata" font-size="11.00" fill="#ffffff">(StreamSync)</text>
</g>
<!-- s15&#45;&gt;s16 -->
<g id="edge16" class="edge">
<title>s15&#45;&gt;s16</title>
<path fill="none" stroke="#000000" d="M445.9234,-224.0604C461.7236,-225.7384 481.9591,-227.8875 501.3702,-229.9491"/>
<polygon fill="#000000" stroke="#000000" points="501.1042,-233.4404 511.418,-231.0162 501.8436,-226.4796 501.1042,-233.4404"/>
<text text-anchor="middle" x="477.7962" y="-231.7144" font-family="Inconsolata" font-size="11.00" fill="#000000">xform</text>
</g>
<!-- s17 -->
<g id="node18" class="node">
<title>s17</title>
<ellipse fill="#000000" stroke="#000000" cx="721.4563" cy="-236.9754" rx="32.3892" ry="18"/>
<text text-anchor="middle" x="721.4563" y="-233.9449" font-family="Inconsolata" font-size="11.00" fill="#ffffff">xform&#45;5</text>
</g>
<!-- s16&#45;&gt;s17 -->
<g id="edge15" class="edge">
<title>s16&#45;&gt;s17</title>
<path fill="none" stroke="#000000" d="M625.7223,-236.9754C643.1818,-236.9754 662.0138,-236.9754 678.3177,-236.9754"/>
<polygon fill="#000000" stroke="#000000" points="678.6268,-240.4755 688.6268,-236.9754 678.6267,-233.4755 678.6268,-240.4755"/>
<text text-anchor="middle" x="657.2618" y="-239.7144" font-family="Inconsolata" font-size="11.00" fill="#000000">xform</text>
</g>
<!-- s18 -->
<g id="node19" class="node">
<title>s18</title>
<ellipse fill="#000000" stroke="#000000" cx="849.8453" cy="-236.9754" rx="32.3892" ry="18"/>
<text text-anchor="middle" x="849.8453" y="-233.9449" font-family="Inconsolata" font-size="11.00" fill="#ffffff">query&#45;4</text>
</g>
<!-- s17&#45;&gt;s18 -->
<g id="edge14" class="edge">
<title>s17&#45;&gt;s18</title>
<path fill="none" stroke="#000000" d="M754.1865,-236.9754C770.1829,-236.9754 789.6423,-236.9754 806.8232,-236.9754"/>
<polygon fill="#000000" stroke="#000000" points="807.175,-240.4755 817.1749,-236.9754 807.1749,-233.4755 807.175,-240.4755"/>
<text text-anchor="middle" x="785.6508" y="-239.7144" font-family="Inconsolata" font-size="11.00" fill="#000000">xform</text>
</g>
<!-- s19 -->
<g id="node20" class="node">
<title>s19</title>
<ellipse fill="#000000" stroke="#000000" cx="972.7899" cy="-236.9754" rx="27" ry="18"/>
<text text-anchor="middle" x="972.7899" y="-233.9449" font-family="Inconsolata" font-size="11.00" fill="#ffffff">in&#45;2</text>
</g>
<!-- s18&#45;&gt;s19 -->
<g id="edge13" class="edge">
<title>s18&#45;&gt;s19</title>
<path fill="none" stroke="#000000" d="M882.4694,-236.9754C898.729,-236.9754 918.471,-236.9754 935.346,-236.9754"/>
<polygon fill="#000000" stroke="#000000" points="935.4258,-240.4755 945.4258,-236.9754 935.4257,-233.4755 935.4258,-240.4755"/>
<text text-anchor="middle" x="914.0399" y="-239.7144" font-family="Inconsolata" font-size="11.00" fill="#000000">xform</text>
</g>
<!-- s20 -->
<g id="node21" class="node">
<title>s20</title>
<ellipse fill="#c0c0c0" stroke="#c0c0c0" cx="1065.9602" cy="-236.9754" rx="29.3416" ry="18"/>
<text text-anchor="middle" x="1065.9602" y="-233.9449" font-family="Inconsolata" font-size="11.00" fill="#ffffff">&lt;noid&gt;</text>
</g>
<!-- s19&#45;&gt;s20 -->
<g id="edge12" class="edge">
<title>s19&#45;&gt;s20</title>
<path fill="none" stroke="#000000" d="M1000.2401,-236.9754C1008.4964,-236.9754 1017.7232,-236.9754 1026.5924,-236.9754"/>
<polygon fill="#000000" stroke="#000000" points="1026.7601,-240.4755 1036.7601,-236.9754 1026.76,-233.4755 1026.7601,-240.4755"/>
</g>
<!-- s20&#45;&gt;s10 -->
<g id="edge11" class="edge">
<title>s20&#45;&gt;s10</title>
<path fill="none" stroke="#000000" d="M1095.3652,-236.9754C1110.5379,-236.9754 1129.7301,-236.9754 1148.3427,-236.9754"/>
<polygon fill="#000000" stroke="#000000" points="1148.5941,-240.4755 1158.5941,-236.9754 1148.5941,-233.4755 1148.5941,-240.4755"/>
<text text-anchor="middle" x="1126.8805" y="-239.7144" font-family="Inconsolata" font-size="11.00" fill="#000000">xform</text>
</g>
<!-- s22 -->
<g id="node23" class="node">
<title>s22</title>
<ellipse fill="#000000" stroke="#000000" cx="323.7056" cy="-436.9754" rx="27" ry="18"/>
<text text-anchor="middle" x="323.7056" y="-433.9449" font-family="Inconsolata" font-size="11.00" fill="#ffffff">in&#45;a</text>
</g>
<!-- s21&#45;&gt;s22 -->
<g id="edge27" class="edge">
<title>s21&#45;&gt;s22</title>
<path fill="none" stroke="#000000" d="M215.16,-401.0457C236.1462,-407.9923 266.6417,-418.0867 289.9693,-425.8083"/>
<polygon fill="#000000" stroke="#000000" points="288.8861,-429.1365 299.4794,-428.9563 291.0859,-422.4911 288.8861,-429.1365"/>
<text text-anchor="middle" x="264.9556" y="-424.7144" font-family="Inconsolata" font-size="11.00" fill="#000000">xform</text>
</g>
<!-- s23 -->
<g id="node24" class="node">
<title>s23</title>
<ellipse fill="#c0c0c0" stroke="#c0c0c0" cx="416.8759" cy="-436.9754" rx="29.3416" ry="18"/>
<text text-anchor="middle" x="416.8759" y="-433.9449" font-family="Inconsolata" font-size="11.00" fill="#ffffff">&lt;noid&gt;</text>
</g>
<!-- s22&#45;&gt;s23 -->
<g id="edge26" class="edge">
<title>s22&#45;&gt;s23</title>
<path fill="none" stroke="#000000" d="M351.1559,-436.9754C359.4122,-436.9754 368.639,-436.9754 377.5081,-436.9754"/>
<polygon fill="#000000" stroke="#000000" points="377.6759,-440.4755 387.6758,-436.9754 377.6758,-433.4755 377.6759,-440.4755"/>
</g>
<!-- s24 -->
<g id="node25" class="node">
<title>s24</title>
<ellipse fill="#ff0000" stroke="#ff0000" cx="567.529" cy="-382.9754" rx="57.9655" ry="21.9508"/>
<text text-anchor="middle" x="567.529" y="-385.7144" font-family="Inconsolata" font-size="11.00" fill="#ffffff">query&#45;2&#45;raw</text>
<text text-anchor="middle" x="567.529" y="-374.1754" font-family="Inconsolata" font-size="11.00" fill="#ffffff">(StreamSync)</text>
</g>
<!-- s23&#45;&gt;s24 -->
<g id="edge25" class="edge">
<title>s23&#45;&gt;s24</title>
<path fill="none" stroke="#000000" d="M442.4322,-427.815C462.4423,-420.6426 490.9337,-410.4302 515.6728,-401.5627"/>
<polygon fill="#000000" stroke="#000000" points="517.065,-404.7818 525.2976,-398.1128 514.7031,-398.1923 517.065,-404.7818"/>
<text text-anchor="middle" x="477.7962" y="-422.7144" font-family="Inconsolata" font-size="11.00" fill="#000000">xform</text>
</g>
<!-- s25 -->
<g id="node26" class="node">
<title>s25</title>
<ellipse fill="#000000" stroke="#000000" cx="721.4563" cy="-378.9754" rx="32.3892" ry="18"/>
<text text-anchor="middle" x="721.4563" y="-375.9449" font-family="Inconsolata" font-size="11.00" fill="#ffffff">xform&#45;3</text>
</g>
<!-- s24&#45;&gt;s25 -->
<g id="edge24" class="edge">
<title>s24&#45;&gt;s25</title>
<path fill="none" stroke="#000000" d="M625.7223,-381.4632C643.1818,-381.0095 662.0138,-380.5201 678.3177,-380.0964"/>
<polygon fill="#000000" stroke="#000000" points="678.7211,-383.5872 688.6268,-379.8285 678.5392,-376.5896 678.7211,-383.5872"/>
<text text-anchor="middle" x="657.2618" y="-383.7144" font-family="Inconsolata" font-size="11.00" fill="#000000">xform</text>
</g>
<!-- s26 -->
<g id="node27" class="node">
<title>s26</title>
<ellipse fill="#000000" stroke="#000000" cx="849.8453" cy="-331.9754" rx="32.3892" ry="18"/>
<text text-anchor="middle" x="849.8453" y="-328.9449" font-family="Inconsolata" font-size="11.00" fill="#ffffff">query&#45;2</text>
</g>
<!-- s25&#45;&gt;s26 -->
<g id="edge23" class="edge">
<title>s25&#45;&gt;s26</title>
<path fill="none" stroke="#000000" d="M748.6843,-369.0079C767.4084,-362.1535 792.4975,-352.969 813.0052,-345.4617"/>
<polygon fill="#000000" stroke="#000000" points="814.4692,-348.6529 822.6566,-341.9285 812.0628,-342.0795 814.4692,-348.6529"/>
<text text-anchor="middle" x="785.6508" y="-362.7144" font-family="Inconsolata" font-size="11.00" fill="#000000">xform</text>
</g>
<!-- s27 -->
<g id="node28" class="node">
<title>s27</title>
<ellipse fill="#000000" stroke="#000000" cx="972.7899" cy="-307.9754" rx="27" ry="18"/>
<text text-anchor="middle" x="972.7899" y="-304.9449" font-family="Inconsolata" font-size="11.00" fill="#ffffff">in&#45;1</text>
</g>
<!-- s26&#45;&gt;s27 -->
<g id="edge22" class="edge">
<title>s26&#45;&gt;s27</title>
<path fill="none" stroke="#000000" d="M880.5523,-325.9811C897.5564,-322.6617 918.792,-318.5163 936.5998,-315.0401"/>
<polygon fill="#000000" stroke="#000000" points="937.4866,-318.4331 946.6307,-313.0819 936.1453,-311.5628 937.4866,-318.4331"/>
<text text-anchor="middle" x="914.0399" y="-325.7144" font-family="Inconsolata" font-size="11.00" fill="#000000">xform</text>
</g>
<!-- s28 -->
<g id="node29" class="node">
<title>s28</title>
<ellipse fill="#c0c0c0" stroke="#c0c0c0" cx="1065.9602" cy="-296.9754" rx="29.3416" ry="18"/>
<text text-anchor="middle" x="1065.9602" y="-293.9449" font-family="Inconsolata" font-size="11.00" fill="#ffffff">&lt;noid&gt;</text>
</g>
<!-- s27&#45;&gt;s28 -->
<g id="edge21" class="edge">
<title>s27&#45;&gt;s28</title>
<path fill="none" stroke="#000000" d="M999.7386,-304.7937C1008.2511,-303.7887 1017.8343,-302.6573 1027.0111,-301.5739"/>
<polygon fill="#000000" stroke="#000000" points="1027.5999,-305.0287 1037.1206,-300.3803 1026.7791,-298.077 1027.5999,-305.0287"/>
</g>
<!-- s28&#45;&gt;s10 -->
<g id="edge20" class="edge">
<title>s28&#45;&gt;s10</title>
<path fill="none" stroke="#000000" d="M1090.5005,-287.2018C1111.1277,-278.9867 1141.2652,-266.984 1166.9065,-256.7719"/>
<polygon fill="#000000" stroke="#000000" points="1168.4892,-259.909 1176.4845,-252.9573 1165.8991,-253.4058 1168.4892,-259.909"/>
<text text-anchor="middle" x="1126.8805" y="-280.7144" font-family="Inconsolata" font-size="11.00" fill="#000000">xform</text>
</g>
<!-- s29 -->
<g id="node30" class="node">
<title>s29</title>
<ellipse fill="#0000ff" stroke="#0000ff" cx="42.4264" cy="-83.9754" rx="42.3529" ry="21.9508"/>
<text text-anchor="middle" x="42.4264" y="-86.7144" font-family="Inconsolata" font-size="11.00" fill="#ffffff">O</text>
<text text-anchor="middle" x="42.4264" y="-75.1754" font-family="Inconsolata" font-size="11.00" fill="#ffffff">(Stream)</text>
</g>
<!-- s30 -->
<g id="node31" class="node">
<title>s30</title>
<ellipse fill="#000000" stroke="#000000" cx="190.7792" cy="-58.9754" rx="27" ry="18"/>
<text text-anchor="middle" x="190.7792" y="-55.9449" font-family="Inconsolata" font-size="11.00" fill="#ffffff">o</text>
</g>
<!-- s29&#45;&gt;s30 -->
<g id="edge36" class="edge">
<title>s29&#45;&gt;s30</title>
<path fill="none" stroke="#000000" d="M81.004,-74.784C88.2406,-73.2158 95.7598,-71.6907 102.8528,-70.4364 119.3571,-67.518 137.7267,-65.009 153.3898,-63.089"/>
<polygon fill="#000000" stroke="#000000" points="154.2289,-66.5139 163.7449,-61.856 153.4012,-59.563 154.2289,-66.5139"/>
<text text-anchor="middle" x="116.6028" y="-73.7144" font-family="Inconsolata" font-size="11.00" fill="#000000">xform</text>
</g>
<!-- s33 -->
<g id="node34" class="node">
<title>s33</title>
<ellipse fill="#000000" stroke="#000000" cx="190.7792" cy="-112.9754" rx="27" ry="18"/>
<text text-anchor="middle" x="190.7792" y="-109.9449" font-family="Inconsolata" font-size="11.00" fill="#ffffff">o</text>
</g>
<!-- s29&#45;&gt;s33 -->
<g id="edge37" class="edge">
<title>s29&#45;&gt;s33</title>
<path fill="none" stroke="#000000" d="M82.1822,-91.7469C104.7067,-96.15 132.6721,-101.6166 154.5828,-105.8997"/>
<polygon fill="#000000" stroke="#000000" points="154.0059,-109.3531 164.4917,-107.8367 155.3489,-102.4832 154.0059,-109.3531"/>
<text text-anchor="middle" x="116.6028" y="-104.7144" font-family="Inconsolata" font-size="11.00" fill="#000000">xform</text>
</g>
<!-- s31 -->
<g id="node32" class="node">
<title>s31</title>
<ellipse fill="#000000" stroke="#000000" cx="323.7056" cy="-58.9754" rx="27" ry="18"/>
<text text-anchor="middle" x="323.7056" y="-55.9449" font-family="Inconsolata" font-size="11.00" fill="#ffffff">in&#45;o</text>
</g>
<!-- s30&#45;&gt;s31 -->
<g id="edge32" class="edge">
<title>s30&#45;&gt;s31</title>
<path fill="none" stroke="#000000" d="M217.9996,-58.9754C237.7125,-58.9754 264.6012,-58.9754 286.3257,-58.9754"/>
<polygon fill="#000000" stroke="#000000" points="286.5217,-62.4755 296.5216,-58.9754 286.5216,-55.4755 286.5217,-62.4755"/>
<text text-anchor="middle" x="264.9556" y="-61.7144" font-family="Inconsolata" font-size="11.00" fill="#000000">xform</text>
</g>
<!-- s32 -->
<g id="node33" class="node">
<title>s32</title>
<ellipse fill="#c0c0c0" stroke="#c0c0c0" cx="416.8759" cy="-58.9754" rx="29.3416" ry="18"/>
<text text-anchor="middle" x="416.8759" y="-55.9449" font-family="Inconsolata" font-size="11.00" fill="#ffffff">&lt;noid&gt;</text>
</g>
<!-- s31&#45;&gt;s32 -->
<g id="edge31" class="edge">
<title>s31&#45;&gt;s32</title>
<path fill="none" stroke="#000000" d="M351.1559,-58.9754C359.4122,-58.9754 368.639,-58.9754 377.5081,-58.9754"/>
<polygon fill="#000000" stroke="#000000" points="377.6759,-62.4755 387.6758,-58.9754 377.6758,-55.4755 377.6759,-62.4755"/>
</g>
<!-- s32&#45;&gt;s5 -->
<g id="edge30" class="edge">
<title>s32&#45;&gt;s5</title>
<path fill="none" stroke="#000000" d="M443.5001,-66.6918C458.4198,-71.7624 476.9112,-79.338 491.5462,-89.4364 512.213,-103.6968 531.4512,-124.4511 545.399,-141.4517"/>
<polygon fill="#000000" stroke="#000000" points="542.8217,-143.8327 551.8042,-149.451 548.2859,-139.4574 542.8217,-143.8327"/>
<text text-anchor="middle" x="477.7962" y="-92.7144" font-family="Inconsolata" font-size="11.00" fill="#000000">xform</text>
</g>
<!-- s34 -->
<g id="node35" class="node">
<title>s34</title>
<ellipse fill="#000000" stroke="#000000" cx="323.7056" cy="-112.9754" rx="27" ry="18"/>
<text text-anchor="middle" x="323.7056" y="-109.9449" font-family="Inconsolata" font-size="11.00" fill="#ffffff">in&#45;o</text>
</g>
<!-- s33&#45;&gt;s34 -->
<g id="edge35" class="edge">
<title>s33&#45;&gt;s34</title>
<path fill="none" stroke="#000000" d="M217.9996,-112.9754C237.7125,-112.9754 264.6012,-112.9754 286.3257,-112.9754"/>
<polygon fill="#000000" stroke="#000000" points="286.5217,-116.4755 296.5216,-112.9754 286.5216,-109.4755 286.5217,-116.4755"/>
<text text-anchor="middle" x="264.9556" y="-115.7144" font-family="Inconsolata" font-size="11.00" fill="#000000">xform</text>
</g>
<!-- s35 -->
<g id="node36" class="node">
<title>s35</title>
<ellipse fill="#c0c0c0" stroke="#c0c0c0" cx="416.8759" cy="-112.9754" rx="29.3416" ry="18"/>
<text text-anchor="middle" x="416.8759" y="-109.9449" font-family="Inconsolata" font-size="11.00" fill="#ffffff">&lt;noid&gt;</text>
</g>
<!-- s34&#45;&gt;s35 -->
<g id="edge34" class="edge">
<title>s34&#45;&gt;s35</title>
<path fill="none" stroke="#000000" d="M351.1559,-112.9754C359.4122,-112.9754 368.639,-112.9754 377.5081,-112.9754"/>
<polygon fill="#000000" stroke="#000000" points="377.6759,-116.4755 387.6758,-112.9754 377.6758,-109.4755 377.6759,-116.4755"/>
</g>
<!-- s35&#45;&gt;s16 -->
<g id="edge33" class="edge">
<title>s35&#45;&gt;s16</title>
<path fill="none" stroke="#000000" d="M443.1541,-121.3665C459.0836,-127.6548 478.7378,-137.7314 491.5462,-152.4364 506.9324,-170.1008 494.669,-183.8804 509.5462,-201.9754 513.14,-206.3464 517.4316,-210.3109 522.0318,-213.8672"/>
<polygon fill="#000000" stroke="#000000" points="520.3594,-216.9684 530.5612,-219.8275 524.369,-211.2305 520.3594,-216.9684"/>
<text text-anchor="middle" x="477.7962" y="-155.7144" font-family="Inconsolata" font-size="11.00" fill="#000000">xform</text>
</g>
<!-- s36 -->
<g id="node37" class="node">
<title>s36</title>
<ellipse fill="#0000ff" stroke="#0000ff" cx="190.7792" cy="-328.9754" rx="42.3529" ry="21.9508"/>
<text text-anchor="middle" x="190.7792" y="-331.7144" font-family="Inconsolata" font-size="11.00" fill="#ffffff">ALL</text>
<text text-anchor="middle" x="190.7792" y="-320.1754" font-family="Inconsolata" font-size="11.00" fill="#ffffff">(Stream)</text>
</g>
<!-- s37 -->
<g id="node38" class="node">
<title>s37</title>
<ellipse fill="#000000" stroke="#000000" cx="323.7056" cy="-274.9754" rx="27" ry="18"/>
<text text-anchor="middle" x="323.7056" y="-271.9449" font-family="Inconsolata" font-size="11.00" fill="#ffffff">in&#45;s</text>
</g>
<!-- s36&#45;&gt;s37 -->
<g id="edge44" class="edge">
<title>s36&#45;&gt;s37</title>
<path fill="none" stroke="#000000" d="M224.3222,-315.3489C244.8117,-307.0253 270.8857,-296.433 291.1853,-288.1864"/>
<polygon fill="#000000" stroke="#000000" points="292.6896,-291.3532 300.637,-284.3468 290.055,-284.8679 292.6896,-291.3532"/>
<text text-anchor="middle" x="264.9556" y="-306.7144" font-family="Inconsolata" font-size="11.00" fill="#000000">xform</text>
</g>
<!-- s39 -->
<g id="node40" class="node">
<title>s39</title>
<ellipse fill="#000000" stroke="#000000" cx="323.7056" cy="-382.9754" rx="27" ry="18"/>
<text text-anchor="middle" x="323.7056" y="-379.9449" font-family="Inconsolata" font-size="11.00" fill="#ffffff">in&#45;b</text>
</g>
<!-- s36&#45;&gt;s39 -->
<g id="edge45" class="edge">
<title>s36&#45;&gt;s39</title>
<path fill="none" stroke="#000000" d="M224.3222,-342.6019C244.8117,-350.9255 270.8857,-361.5178 291.1853,-369.7644"/>
<polygon fill="#000000" stroke="#000000" points="290.055,-373.0829 300.637,-373.604 292.6896,-366.5976 290.055,-373.0829"/>
<text text-anchor="middle" x="264.9556" y="-366.7144" font-family="Inconsolata" font-size="11.00" fill="#000000">xform</text>
</g>
<!-- s41 -->
<g id="node42" class="node">
<title>s41</title>
<ellipse fill="#000000" stroke="#000000" cx="323.7056" cy="-328.9754" rx="27" ry="18"/>
<text text-anchor="middle" x="323.7056" y="-325.9449" font-family="Inconsolata" font-size="11.00" fill="#ffffff">in&#45;s</text>
</g>
<!-- s36&#45;&gt;s41 -->
<g id="edge46" class="edge">
<title>s36&#45;&gt;s41</title>
<path fill="none" stroke="#000000" d="M233.5697,-328.9754C250.5039,-328.9754 269.7966,-328.9754 286.1762,-328.9754"/>
<polygon fill="#000000" stroke="#000000" points="286.4652,-332.4755 296.4651,-328.9754 286.4651,-325.4755 286.4652,-332.4755"/>
<text text-anchor="middle" x="264.9556" y="-331.7144" font-family="Inconsolata" font-size="11.00" fill="#000000">xform</text>
</g>
<!-- s38 -->
<g id="node39" class="node">
<title>s38</title>
<ellipse fill="#c0c0c0" stroke="#c0c0c0" cx="416.8759" cy="-274.9754" rx="29.3416" ry="18"/>
<text text-anchor="middle" x="416.8759" y="-271.9449" font-family="Inconsolata" font-size="11.00" fill="#ffffff">&lt;noid&gt;</text>
</g>
<!-- s37&#45;&gt;s38 -->
<g id="edge39" class="edge">
<title>s37&#45;&gt;s38</title>
<path fill="none" stroke="#000000" d="M351.1559,-274.9754C359.4122,-274.9754 368.639,-274.9754 377.5081,-274.9754"/>
<polygon fill="#000000" stroke="#000000" points="377.6759,-278.4755 387.6758,-274.9754 377.6758,-271.4755 377.6759,-278.4755"/>
</g>
<!-- s38&#45;&gt;s5 -->
<g id="edge38" class="edge">
<title>s38&#45;&gt;s5</title>
<path fill="none" stroke="#000000" d="M434.6004,-260.5123C438.6591,-256.6967 442.7455,-252.4005 446.0462,-247.9754 456.87,-233.4644 450.713,-223.6818 464.0462,-211.4364 476.4001,-200.0905 492.3005,-191.7842 507.9129,-185.7615"/>
<polygon fill="#000000" stroke="#000000" points="509.3315,-188.9711 517.5623,-182.2999 506.9678,-182.3822 509.3315,-188.9711"/>
<text text-anchor="middle" x="477.7962" y="-214.7144" font-family="Inconsolata" font-size="11.00" fill="#000000">xform</text>
</g>
<!-- s40 -->
<g id="node41" class="node">
<title>s40</title>
<ellipse fill="#c0c0c0" stroke="#c0c0c0" cx="416.8759" cy="-382.9754" rx="29.3416" ry="18"/>
<text text-anchor="middle" x="416.8759" y="-379.9449" font-family="Inconsolata" font-size="11.00" fill="#ffffff">&lt;noid&gt;</text>
</g>
<!-- s39&#45;&gt;s40 -->
<g id="edge41" class="edge">
<title>s39&#45;&gt;s40</title>
<path fill="none" stroke="#000000" d="M351.1559,-382.9754C359.4122,-382.9754 368.639,-382.9754 377.5081,-382.9754"/>
<polygon fill="#000000" stroke="#000000" points="377.6759,-386.4755 387.6758,-382.9754 377.6758,-379.4755 377.6759,-386.4755"/>
</g>
<!-- s40&#45;&gt;s24 -->
<g id="edge40" class="edge">
<title>s40&#45;&gt;s24</title>
<path fill="none" stroke="#000000" d="M446.281,-382.9754C461.4536,-382.9754 480.6459,-382.9754 499.2584,-382.9754"/>
<polygon fill="#000000" stroke="#000000" points="499.5099,-386.4755 509.5099,-382.9754 499.5098,-379.4755 499.5099,-386.4755"/>
<text text-anchor="middle" x="477.7962" y="-385.7144" font-family="Inconsolata" font-size="11.00" fill="#000000">xform</text>
</g>
<!-- s42 -->
<g id="node43" class="node">
<title>s42</title>
<ellipse fill="#c0c0c0" stroke="#c0c0c0" cx="416.8759" cy="-328.9754" rx="29.3416" ry="18"/>
<text text-anchor="middle" x="416.8759" y="-325.9449" font-family="Inconsolata" font-size="11.00" fill="#ffffff">&lt;noid&gt;</text>
</g>
<!-- s41&#45;&gt;s42 -->
<g id="edge43" class="edge">
<title>s41&#45;&gt;s42</title>
<path fill="none" stroke="#000000" d="M351.1559,-328.9754C359.4122,-328.9754 368.639,-328.9754 377.5081,-328.9754"/>
<polygon fill="#000000" stroke="#000000" points="377.6759,-332.4755 387.6758,-328.9754 377.6758,-325.4755 377.6759,-332.4755"/>
</g>
<!-- s42&#45;&gt;s16 -->
<g id="edge42" class="edge">
<title>s42&#45;&gt;s16</title>
<path fill="none" stroke="#000000" d="M437.8236,-316.1832C461.1236,-301.9545 499.2871,-278.649 528.1999,-260.9927"/>
<polygon fill="#000000" stroke="#000000" points="530.1388,-263.9097 536.8492,-255.7108 526.4905,-257.9356 530.1388,-263.9097"/>
<text text-anchor="middle" x="477.7962" y="-302.7144" font-family="Inconsolata" font-size="11.00" fill="#000000">xform</text>
</g>
</g>
</svg>
